<?xml version="1.0" encoding="utf-8"?>
<!-- Generator: Adobe Illustrator 16.0.0, SVG Export Plug-In . SVG Version: 6.00 Build 0)  -->
<!DOCTYPE svg PUBLIC "-//W3C//DTD SVG 1.1//EN" "http://www.w3.org/Graphics/SVG/1.1/DTD/svg11.dtd">
<svg version="1.1" id="Layer_1" xmlns="http://www.w3.org/2000/svg" xmlns:xlink="http://www.w3.org/1999/xlink" x="0px" y="0px"
	 width="260px" height="90px" viewBox="-30 -27.25 260 90" enable-background="new -30 -27.25 260 90" xml:space="preserve">
<g>
	<path fill="#004C99" d="M-8.369,14.65c1.314-0.564,2.724,0.094,3.288,1.409c0.566,1.316-0.092,2.819-1.407,3.29
		c-1.317,0.564-2.727-0.093-3.29-1.41C-10.248,16.72-9.591,15.216-8.369,14.65"/>
	<path fill="#004C99" d="M-2.166,23.767C-2.637,23.109-2.45,22.17-1.884,21.7c0.656-0.471,1.596-0.282,2.065,0.279
		c0.469,0.658,0.282,1.599-0.282,2.067C-0.759,24.519-1.697,24.426-2.166,23.767"/>
	<path fill="#004C99" d="M1.685,23.956c-0.376-0.47-0.282-1.221,0.282-1.598c0.471-0.377,1.222-0.282,1.599,0.282
		c0.374,0.469,0.282,1.221-0.282,1.598C2.718,24.519,1.967,24.426,1.685,23.956"/>
	<path fill="#004C99" d="M4.412,23.486c-0.282-0.377-0.282-1.034,0.279-1.41c0.376-0.282,1.035-0.282,1.412,0.282
		c0.282,0.377,0.282,1.032-0.282,1.408C5.254,23.956,4.691,23.956,4.412,23.486"/>
	<path fill="#004C99" d="M6.854,22.452c-0.282-0.282-0.189-0.846,0.187-1.129c0.282-0.282,0.848-0.187,1.127,0.189
		c0.282,0.282,0.189,0.846-0.187,1.128C7.604,22.922,7.135,22.827,6.854,22.452"/>
	<path fill="#004C99" d="M8.829,21.231c-0.282-0.282-0.19-0.752,0.187-0.94c0.282-0.282,0.75-0.189,0.938,0.188
		c0.285,0.28,0.19,0.752-0.187,0.938C9.485,21.606,9.016,21.512,8.829,21.231"/>
	<path fill="#004C99" d="M10.049,19.82c-0.282-0.282-0.187-0.753,0.187-0.848c0.282-0.279,0.658-0.187,0.845,0.189
		c0.282,0.282,0.187,0.753-0.187,0.847C10.612,20.102,10.236,20.102,10.049,19.82"/>
	<path fill="#004C99" d="M11.081,18.316c-0.187-0.282-0.187-0.565,0.095-0.847c0.282-0.189,0.563-0.189,0.75,0.094
		c0.189,0.282,0.189,0.563-0.092,0.846C11.645,18.599,11.176,18.504,11.081,18.316"/>
	<path fill="#004C99" d="M11.834,16.907c-0.189-0.282-0.095-0.47,0.095-0.658c0.282-0.188,0.469-0.094,0.656,0.094
		c0.189,0.282,0.095,0.47-0.092,0.657C12.303,17.094,12.021,17.094,11.834,16.907"/>
	<path fill="#004C99" d="M12.303,15.497c-0.187-0.189-0.095-0.376,0.095-0.564c0.187-0.189,0.374-0.094,0.561,0.093
		c0.189,0.189,0.095,0.376-0.092,0.564C12.68,15.778,12.398,15.778,12.303,15.497"/>
	<path fill="#004C99" d="M12.398,14.463c-0.095-0.189-0.095-0.377,0.092-0.47c0.187-0.093,0.376-0.093,0.469,0.094
		c0.095,0.188,0.095,0.376-0.092,0.47C12.68,14.65,12.585,14.65,12.398,14.463"/>
	<path fill="#004C99" d="M12.585,13.524c-0.095-0.188-0.095-0.282,0.092-0.377c0.189-0.094,0.282-0.094,0.376,0.094
		s0.095,0.282-0.095,0.376C12.772,13.618,12.68,13.618,12.585,13.524"/>
	<path fill="#004C99" d="M12.68,12.49c-0.095-0.093-0.095-0.28,0.095-0.28c0.095-0.095,0.282-0.095,0.282,0.093
		c0.095,0.093,0.095,0.283-0.095,0.283C12.867,12.585,12.772,12.585,12.68,12.49"/>
	<path fill="#004C99" d="M12.68,11.738c-0.095-0.093,0-0.187,0-0.281c0.095-0.094,0.189,0,0.282,0c0.095,0.094,0,0.188,0,0.281
		C12.772,11.833,12.772,11.833,12.68,11.738"/>
	<path fill="#004C99" d="M12.585,11.081c-0.095-0.094,0-0.187,0-0.187c0.092-0.095,0.187,0,0.187,0c0.095,0.093,0,0.187,0,0.187
		C12.772,11.175,12.68,11.175,12.585,11.081"/>
	<path fill="#004C99" d="M-0.006,21.231c-0.75-0.377-0.846-1.411-0.469-1.975c0.376-0.752,1.317-0.94,1.973-0.471
		c0.751,0.376,0.846,1.41,0.469,1.974C1.59,21.418,0.745,21.7-0.006,21.231"/>
	<path fill="#004C99" d="M3.563,19.915C3,19.632,2.812,18.881,3.189,18.316c0.282-0.565,1.033-0.752,1.501-0.375
		c0.563,0.282,0.753,1.031,0.376,1.597C4.786,20.102,4.035,20.196,3.563,19.915"/>
	<path fill="#004C99" d="M5.913,18.411C5.444,18.128,5.254,17.564,5.631,17c0.282-0.469,0.848-0.657,1.409-0.282
		C7.512,17,7.699,17.564,7.322,18.127C6.946,18.504,6.385,18.693,5.913,18.411"/>
	<path fill="#004C99" d="M7.889,16.531c-0.377-0.282-0.472-0.752-0.285-1.127c0.19-0.376,0.753-0.47,1.127-0.283
		c0.377,0.283,0.472,0.752,0.282,1.128C8.734,16.72,8.263,16.812,7.889,16.531"/>
	<path fill="#004C99" d="M9.108,14.65c-0.282-0.188-0.377-0.657-0.282-0.939c0.188-0.283,0.659-0.376,0.846-0.283
		c0.282,0.188,0.377,0.657,0.282,0.94C9.862,14.65,9.485,14.745,9.108,14.65"/>
	<path fill="#004C99" d="M9.767,12.867c-0.282-0.188-0.376-0.564-0.282-0.846c0.187-0.283,0.564-0.375,0.846-0.283
		c0.282,0.095,0.376,0.564,0.282,0.847C10.52,12.959,10.049,13.054,9.767,12.867"/>
	<path fill="#004C99" d="M10.144,11.081c-0.282-0.187-0.282-0.469-0.19-0.751c0.19-0.282,0.472-0.282,0.751-0.188
		c0.282,0.093,0.282,0.47,0.189,0.752C10.707,11.175,10.425,11.269,10.144,11.081"/>
	<path fill="#004C99" d="M10.331,9.388c-0.282-0.187-0.282-0.376-0.187-0.657c0.092-0.281,0.376-0.281,0.656-0.187
		c0.282,0.094,0.282,0.376,0.187,0.659C10.799,9.483,10.612,9.578,10.331,9.388"/>
	<path fill="#004C99" d="M10.236,8.074c-0.187-0.094-0.282-0.282-0.187-0.563c0.095-0.188,0.282-0.282,0.469-0.188
		c0.189,0.093,0.282,0.281,0.189,0.564C10.612,8.074,10.425,8.168,10.236,8.074"/>
	<path fill="#004C99" d="M9.954,6.946c-0.187-0.093-0.282-0.281-0.092-0.47c0.092-0.189,0.282-0.282,0.469-0.093
		c0.187,0.093,0.282,0.282,0.095,0.47C10.236,7.041,10.049,7.041,9.954,6.946"/>
	<path fill="#004C99" d="M9.672,6.007C9.485,5.913,9.485,5.724,9.58,5.631c0.092-0.094,0.282-0.188,0.374-0.094
		c0.19,0.094,0.19,0.282,0.095,0.376C10.049,6.007,9.862,6.101,9.672,6.007"/>
	<path fill="#004C99" d="M9.485,5.067C9.39,4.973,9.295,4.88,9.39,4.785c0.095-0.093,0.187-0.188,0.282-0.093
		c0.095,0.093,0.19,0.189,0.095,0.282C9.672,5.067,9.577,5.067,9.485,5.067"/>
	<path fill="#004C99" d="M9.108,4.315C9.014,4.221,9.014,4.128,9.014,4.034c0.095-0.095,0.189-0.095,0.282-0.095
		C9.39,4.034,9.39,4.126,9.39,4.221C9.295,4.315,9.203,4.408,9.108,4.315"/>
	<path fill="#004C99" d="M8.829,3.751c-0.095,0-0.095-0.093-0.095-0.189c0-0.093,0.095-0.093,0.187-0.093
		c0.095,0,0.095,0.093,0.095,0.189C9.016,3.751,8.921,3.751,8.829,3.751"/>
	<path fill="#004C99" d="M0.84,14.65c-0.846,0.188-1.599-0.282-1.786-1.034c-0.189-0.846,0.282-1.598,1.035-1.785
		c0.846-0.188,1.596,0.282,1.786,1.034C1.967,13.713,1.498,14.558,0.84,14.65"/>
	<path fill="#004C99" d="M2.344,11.269c-0.659,0.188-1.222-0.282-1.412-0.847C0.745,9.765,1.214,9.201,1.78,9.012
		C2.436,8.825,3,9.294,3.189,9.858C3.376,10.422,3.002,11.081,2.344,11.269"/>
	<path fill="#004C99" d="M3.002,8.449C2.533,8.637,1.967,8.26,1.78,7.698C1.593,7.135,1.967,6.664,2.533,6.476
		c0.469-0.189,1.033,0.189,1.22,0.752C3.848,7.791,3.563,8.356,3.002,8.449"/>
	<path fill="#004C99" d="M3.002,5.819c-0.377,0.094-0.846-0.188-0.94-0.564C1.967,4.88,2.249,4.408,2.625,4.315
		c0.377-0.093,0.848,0.188,0.94,0.564C3.753,5.254,3.563,5.63,3.002,5.819"/>
	<path fill="#004C99" d="M2.625,3.469C2.344,3.563,1.873,3.282,1.78,3C1.685,2.625,1.967,2.248,2.249,2.153
		C2.531,2.06,3,2.343,3.095,2.625C3.189,3,3.002,3.375,2.625,3.469"/>
	<path fill="#004C99" d="M1.873,1.777C1.59,1.872,1.122,1.589,1.027,1.308C0.932,1.025,1.214,0.555,1.498,0.461
		C1.78,0.368,2.249,0.65,2.344,0.931C2.436,1.401,2.157,1.684,1.873,1.777"/>
	<path fill="#004C99" d="M0.84,0.273C0.558,0.368,0.276,0.179,0.181-0.102C0.089-0.384,0.276-0.666,0.558-0.76
		C0.84-0.854,1.122-0.666,1.214-0.384C1.309-0.102,1.122,0.181,0.84,0.273"/>
	<path fill="#004C99" d="M-0.193-1.041c-0.285,0.094-0.472-0.093-0.566-0.282c-0.092-0.188,0.095-0.47,0.285-0.564
		c0.187-0.093,0.469,0.094,0.563,0.282C0.181-1.417,0.089-1.135-0.193-1.041"/>
	<path fill="#004C99" d="M-1.228-1.98C-1.51-1.886-1.604-2.075-1.697-2.263c-0.095-0.282,0.092-0.375,0.282-0.469
		c0.282-0.094,0.376,0.094,0.469,0.282C-0.852-2.263-1.039-2.076-1.228-1.98"/>
	<path fill="#004C99" d="M-2.166-2.544C-2.355-2.45-2.542-2.638-2.542-2.826C-2.637-3.014-2.45-3.202-2.261-3.202
		c0.187-0.095,0.377,0.093,0.377,0.282C-1.884-2.733-1.979-2.544-2.166-2.544"/>
	<path fill="#004C99" d="M-3.014-3.014c-0.187,0-0.282-0.094-0.282-0.283c0-0.187,0.095-0.282,0.282-0.282
		c0.19,0,0.282,0.095,0.282,0.282C-2.824-3.202-2.919-3.014-3.014-3.014"/>
	<path fill="#004C99" d="M-3.859-3.483c-0.092,0-0.282-0.094-0.282-0.188c0-0.095,0.095-0.283,0.19-0.283
		c0.092,0,0.282,0.093,0.282,0.189C-3.67-3.672-3.765-3.483-3.859-3.483"/>
	<path fill="#004C99" d="M-4.61-3.766c-0.095,0-0.189,0-0.282-0.189c0-0.094,0-0.187,0.187-0.282c0.095,0,0.189,0,0.282,0.188
		C-4.423-3.86-4.516-3.766-4.61-3.766"/>
	<path fill="#004C99" d="M-5.174-3.86c-0.095,0-0.19,0-0.19-0.093c0-0.094,0-0.187,0.095-0.187c0.095,0,0.187,0,0.187,0.093
		S-5.174-3.955-5.174-3.86"/>
	<path fill="#004C99" d="M-0.759,11.738c-0.656,0.472-1.596,0.283-2.065-0.281C-3.296,10.8-3.109,9.86-2.542,9.39
		c0.656-0.47,1.596-0.283,2.068,0.282C0.089,10.329-0.101,11.269-0.759,11.738"/>
	<path fill="#004C99" d="M-0.569,7.885c-0.472,0.376-1.223,0.282-1.597-0.282c-0.376-0.47-0.284-1.222,0.282-1.598
		c0.469-0.375,1.219-0.283,1.596,0.282C-0.006,6.758-0.101,7.51-0.569,7.885"/>
	<path fill="#004C99" d="M-1.039,5.067C-1.415,5.35-2.074,5.35-2.45,4.785C-2.732,4.41-2.732,3.751-2.166,3.376
		c0.374-0.282,1.033-0.282,1.407,0.282C-0.475,4.221-0.569,4.784-1.039,5.067"/>
	<path fill="#004C99" d="M-1.979,2.623c-0.282,0.282-0.845,0.188-1.13-0.188c-0.279-0.282-0.187-0.846,0.19-1.128
		c0.376-0.283,0.845-0.188,1.127,0.188C-1.51,1.777-1.604,2.343-1.979,2.623"/>
	<path fill="#004C99" d="M-3.296,0.651c-0.282,0.281-0.75,0.188-0.938-0.189c-0.282-0.282-0.19-0.752,0.187-0.939
		c0.282-0.283,0.753-0.188,0.94,0.187C-2.919,0.086-3.014,0.462-3.296,0.651"/>
	<path fill="#004C99" d="M-4.61-0.571c-0.282,0.28-0.658,0.188-0.846-0.189c-0.282-0.282-0.189-0.751,0.188-0.845
		c0.282-0.282,0.658-0.189,0.845,0.188C-4.233-1.23-4.329-0.854-4.61-0.571"/>
	<path fill="#004C99" d="M-6.114-1.698c-0.282,0.188-0.564,0.188-0.751-0.095c-0.189-0.282-0.189-0.563,0.092-0.846
		c0.285-0.188,0.566-0.188,0.753,0.093C-5.833-2.264-5.833-1.793-6.114-1.698"/>
	<path fill="#004C99" d="M-7.523-2.452C-7.806-2.264-7.993-2.356-8.18-2.544c-0.189-0.282-0.095-0.469,0.092-0.657
		c0.282-0.188,0.469-0.095,0.656,0.094C-7.336-2.826-7.336-2.639-7.523-2.452"/>
	<path fill="#004C99" d="M-8.933-2.921C-9.123-2.733-9.31-2.828-9.497-3.015c-0.187-0.188-0.095-0.375,0.092-0.563
		c0.189-0.189,0.376-0.094,0.563,0.093C-8.651-3.298-8.651-3.014-8.933-2.921"/>
	<path fill="#004C99" d="M-9.965-3.014c-0.19,0.094-0.377,0.094-0.472-0.094c-0.092-0.189-0.092-0.376,0.095-0.471
		c0.187-0.093,0.377-0.093,0.469,0.095C-9.778-3.296-9.778-3.202-9.965-3.014"/>
	<path fill="#004C99" d="M-10.906-3.202c-0.189,0.094-0.282,0.094-0.377-0.095c-0.095-0.187-0.095-0.281,0.095-0.376
		c0.187-0.094,0.282-0.094,0.374,0.094C-10.719-3.389-10.813-3.296-10.906-3.202"/>
	<path fill="#004C99" d="M-11.846-3.296c-0.092,0.095-0.282,0.095-0.282-0.093c-0.092-0.094-0.092-0.282,0.095-0.282
		c0.095-0.094,0.282-0.094,0.282,0.094C-11.751-3.483-11.751-3.296-11.846-3.296"/>
	<path fill="#004C99" d="M-12.597-3.296c-0.095,0.095-0.189,0-0.282,0c-0.095-0.093,0-0.187,0-0.281c0.092-0.094,0.187,0,0.282,0
		C-12.505-3.389-12.505-3.296-12.597-3.296"/>
	<path fill="#004C99" d="M-13.255-3.202c-0.095,0.094-0.187,0-0.187,0c-0.095-0.095,0-0.188,0-0.188c0.092-0.094,0.187,0,0.187,0
		S-13.255-3.296-13.255-3.202"/>
	<path fill="#004C99" d="M-3.201,9.578c-0.376,0.751-1.314,0.939-1.973,0.47C-5.925,9.672-6.02,8.638-5.643,8.074
		c0.375-0.751,1.314-0.939,1.973-0.469C-3.014,7.979-2.824,8.826-3.201,9.578"/>
	<path fill="#004C99" d="M-4.61,5.912c-0.282,0.564-1.035,0.752-1.504,0.375c-0.564-0.282-0.751-1.034-0.377-1.596
		c0.285-0.564,1.035-0.752,1.504-0.376C-4.423,4.691-4.233,5.442-4.61,5.912"/>
	<path fill="#004C99" d="M-6.02,3.562c-0.282,0.47-0.846,0.657-1.409,0.283C-7.897,3.562-8.087,2.999-7.71,2.436
		c0.282-0.471,0.845-0.657,1.409-0.282C-5.833,2.436-5.738,3.093-6.02,3.562"/>
	<path fill="#004C99" d="M-7.897,1.589c-0.282,0.375-0.753,0.469-1.13,0.282C-9.404,1.589-9.497,1.12-9.31,0.743
		c0.282-0.377,0.753-0.47,1.13-0.282C-7.806,0.743-7.618,1.214-7.897,1.589"/>
	<path fill="#004C99" d="M-9.778,0.273c-0.187,0.282-0.659,0.377-0.846,0.282C-10.906,0.366-11-0.102-10.906-0.384
		c0.187-0.282,0.658-0.376,0.846-0.282C-9.684-0.477-9.591-0.007-9.778,0.273"/>
	<path fill="#004C99" d="M-11.47-0.382c-0.189,0.282-0.563,0.375-0.845,0.282c-0.282-0.189-0.377-0.563-0.282-0.846
		c0.187-0.282,0.564-0.376,0.846-0.282C-11.377-1.041-11.283-0.664-11.47-0.382"/>
	<path fill="#004C99" d="M-13.35-0.76c-0.187,0.282-0.469,0.282-0.751,0.189c-0.282-0.189-0.282-0.471-0.189-0.753
		c0.189-0.281,0.469-0.281,0.753-0.187C-13.255-1.323-13.163-1.041-13.35-0.76"/>
	<path fill="#004C99" d="M-14.947-0.947c-0.189,0.283-0.376,0.283-0.658,0.188c-0.282-0.094-0.282-0.376-0.187-0.657
		c0.187-0.282,0.374-0.282,0.656-0.188C-14.854-1.417-14.76-1.135-14.947-0.947"/>
	<path fill="#004C99" d="M-16.261-0.854c-0.095,0.189-0.282,0.283-0.471,0.189c-0.187-0.095-0.282-0.283-0.187-0.564
		c0.092-0.188,0.282-0.282,0.469-0.188C-16.261-1.23-16.169-1.041-16.261-0.854"/>
	<path fill="#004C99" d="M-17.296-0.571c-0.095,0.188-0.282,0.28-0.469,0.093c-0.187-0.093-0.282-0.282-0.095-0.47
		c0.095-0.187,0.282-0.282,0.469-0.094C-17.296-0.947-17.201-0.664-17.296-0.571"/>
	<path fill="#004C99" d="M-18.329-0.29c-0.095,0.189-0.282,0.283-0.377,0.189c-0.187-0.094-0.187-0.282-0.095-0.376
		c0.095-0.188,0.282-0.188,0.376-0.094C-18.329-0.571-18.234-0.382-18.329-0.29"/>
	<path fill="#004C99" d="M-19.269-0.007c-0.095,0.094-0.187,0.188-0.282,0.094c-0.095-0.094-0.095-0.282,0-0.282
		c0.095-0.095,0.187-0.188,0.282-0.095C-19.177-0.195-19.177-0.102-19.269-0.007"/>
	<path fill="#004C99" d="M-19.928,0.273c-0.092,0.094-0.187,0.094-0.279,0.094c-0.095-0.094-0.095-0.188-0.095-0.282
		c0.095-0.094,0.187-0.094,0.282-0.094C-19.928,0.086-19.928,0.181-19.928,0.273"/>
	<path fill="#004C99" d="M-20.491,0.557c-0.092,0.095-0.187,0.095-0.187,0.095c-0.095,0-0.095-0.095-0.095-0.189
		c0-0.095,0.095-0.095,0.19-0.095C-20.491,0.462-20.491,0.557-20.491,0.557"/>
	<path fill="#004C99" d="M-6.396,8.544C-6.488,9.39-7.242,9.953-8.087,9.86c-0.846-0.095-1.409-0.846-1.22-1.691
		c0.095-0.846,0.846-1.411,1.691-1.315C-6.865,6.946-6.301,7.698-6.396,8.544"/>
	<path fill="#004C99" d="M-9.028,5.724c-0.095,0.657-0.656,1.034-1.314,0.941C-11,6.57-11.377,6.007-11.283,5.35
		c0.095-0.657,0.659-1.034,1.317-0.94C-9.31,4.503-8.933,5.067-9.028,5.724"/>
	<path fill="#004C99" d="M-11.188,4.034c-0.095,0.563-0.564,0.846-1.127,0.846c-0.564-0.095-0.846-0.564-0.846-1.129
		c0.095-0.563,0.563-0.846,1.127-0.846C-11.47,2.905-11.188,3.469-11.188,4.034"/>
	<path fill="#004C99" d="M-13.632,2.905c-0.095,0.377-0.469,0.752-0.845,0.657c-0.377-0.094-0.751-0.469-0.659-0.846
		c0.095-0.376,0.472-0.751,0.848-0.657C-13.914,2.155-13.537,2.53-13.632,2.905"/>
	<path fill="#004C99" d="M-15.979,2.53c-0.095,0.376-0.377,0.657-0.848,0.563C-17.201,3-17.483,2.717-17.391,2.248
		c0.095-0.376,0.377-0.657,0.848-0.563C-16.074,1.777-15.887,2.155-15.979,2.53"/>
	<path fill="#004C99" d="M-17.765,2.623c-0.095,0.282-0.376,0.563-0.753,0.563c-0.374-0.093-0.658-0.375-0.563-0.845
		c0.095-0.283,0.376-0.564,0.753-0.564C-17.952,1.872-17.765,2.155-17.765,2.623"/>
	<path fill="#004C99" d="M-19.551,2.905c-0.095,0.281-0.282,0.47-0.656,0.47c-0.284-0.093-0.471-0.282-0.471-0.657
		c0.095-0.281,0.282-0.47,0.658-0.47C-19.738,2.343-19.456,2.623-19.551,2.905"/>
	<path fill="#004C99" d="M-21.055,3.375c0,0.283-0.282,0.376-0.469,0.376s-0.377-0.282-0.377-0.563c0-0.281,0.282-0.375,0.469-0.375
		C-21.242,2.812-21.055,3.093-21.055,3.375"/>
	<path fill="#004C99" d="M-22.37,3.939c0,0.282-0.282,0.282-0.376,0.282c-0.282,0-0.282-0.282-0.282-0.375
		c0-0.282,0.282-0.282,0.376-0.282C-22.464,3.562-22.37,3.751-22.37,3.939"/>
	<path fill="#004C99" d="M-23.218,4.691c0,0.189-0.279,0.282-0.374,0.282c-0.187,0-0.282-0.282-0.282-0.376
		c0-0.188,0.282-0.282,0.376-0.282C-23.31,4.315-23.218,4.503-23.218,4.691"/>
	<path fill="#004C99" d="M-23.966,5.254c0,0.189-0.189,0.283-0.282,0.283c-0.095,0-0.285-0.188-0.285-0.283
		c0-0.094,0.189-0.282,0.285-0.282C-24.061,4.973-23.966,5.162-23.966,5.254"/>
	<path fill="#004C99" d="M-24.814,5.912c0,0.188-0.187,0.281-0.282,0.188c-0.095,0-0.282-0.188-0.187-0.282
		c0-0.188,0.187-0.282,0.282-0.188C-24.814,5.63-24.814,5.819-24.814,5.912"/>
	<path fill="#004C99" d="M-25.283,6.476c0,0.093-0.095,0.189-0.187,0.189c-0.095,0-0.19-0.095-0.19-0.189
		c0-0.095,0.095-0.189,0.19-0.189C-25.378,6.194-25.283,6.381-25.283,6.476"/>
	<path fill="#004C99" d="M-25.66,6.946c0,0.095-0.092,0.095-0.187,0.095s-0.095-0.095-0.095-0.188c0-0.095,0.095-0.095,0.189-0.095
		C-25.752,6.853-25.66,6.853-25.66,6.946"/>
	<path fill="#004C99" d="M-9.684,8.731c0.187,0.847-0.282,1.598-1.035,1.786c-0.846,0.188-1.596-0.282-1.786-1.034
		c-0.187-0.846,0.285-1.596,1.035-1.785C-10.624,7.51-9.873,7.979-9.684,8.731"/>
	<path fill="#004C99" d="M-13.163,7.133c0.189,0.657-0.279,1.222-0.843,1.409c-0.658,0.187-1.222-0.282-1.412-0.846
		c-0.187-0.658,0.282-1.221,0.848-1.41C-13.914,6.194-13.35,6.476-13.163,7.133"/>
	<path fill="#004C99" d="M-15.887,6.476c0.189,0.564-0.188,1.034-0.751,1.222c-0.472,0.188-1.035-0.189-1.222-0.752
		s0.187-1.034,0.75-1.222C-16.543,5.63-15.979,5.912-15.887,6.476"/>
	<path fill="#004C99" d="M-18.519,6.476c0.095,0.377-0.187,0.846-0.563,0.939c-0.374,0.094-0.846-0.189-0.938-0.563
		c-0.095-0.376,0.187-0.846,0.564-0.94C-18.987,5.724-18.611,6.007-18.519,6.476"/>
	<path fill="#004C99" d="M-20.773,6.946c0.095,0.376-0.187,0.752-0.469,0.846c-0.282,0.095-0.75-0.188-0.846-0.47
		c-0.095-0.376,0.187-0.752,0.469-0.846C-21.242,6.287-20.868,6.476-20.773,6.946"/>
	<path fill="#004C99" d="M-22.464,7.603c0.095,0.282-0.187,0.752-0.469,0.846c-0.282,0.093-0.751-0.189-0.846-0.47
		c-0.095-0.282,0.187-0.751,0.469-0.846C-22.841,7.133-22.557,7.322-22.464,7.603"/>
	<path fill="#004C99" d="M-23.966,8.637c0.092,0.282-0.095,0.564-0.377,0.657c-0.282,0.093-0.563-0.093-0.658-0.376
		c-0.095-0.282,0.095-0.564,0.376-0.657C-24.248,8.168-24.061,8.356-23.966,8.637"/>
	<path fill="#004C99" d="M-25.283,9.765c0.095,0.283-0.095,0.47-0.282,0.564c-0.282,0.094-0.469-0.094-0.563-0.282
		c-0.095-0.283,0.095-0.47,0.282-0.564C-25.47,9.295-25.283,9.483-25.283,9.765"/>
	<path fill="#004C99" d="M-26.128,10.799c0.095,0.282-0.095,0.376-0.282,0.47c-0.282,0-0.472-0.093-0.472-0.282
		c-0.092-0.282,0.095-0.376,0.285-0.469C-26.505,10.422-26.223,10.517-26.128,10.799"/>
	<path fill="#004C99" d="M-26.692,11.738c0.095,0.189-0.095,0.376-0.282,0.376c-0.189,0.095-0.376-0.094-0.376-0.282
		c-0.095-0.188,0.095-0.375,0.282-0.375C-26.974,11.363-26.692,11.551-26.692,11.738"/>
	<path fill="#004C99" d="M-27.164,12.585c0,0.187-0.092,0.282-0.282,0.282c-0.187,0-0.282-0.095-0.282-0.282
		c0-0.188,0.095-0.283,0.282-0.283C-27.351,12.395-27.164,12.49-27.164,12.585"/>
	<path fill="#004C99" d="M-27.632,13.524c0,0.094-0.092,0.282-0.187,0.282c-0.095,0-0.282-0.093-0.282-0.188
		c0-0.094,0.095-0.282,0.187-0.282C-27.819,13.242-27.632,13.336-27.632,13.524"/>
	<path fill="#004C99" d="M-27.915,14.182c0,0.093,0,0.188-0.187,0.282c-0.095,0-0.189,0-0.282-0.188c0-0.093,0-0.188,0.187-0.282
		C-28.102,13.993-28.007,14.087-27.915,14.182"/>
	<path fill="#004C99" d="M-28.102,14.745c0,0.094,0,0.188-0.095,0.188c-0.092,0-0.187,0-0.187-0.094c0-0.094,0-0.188,0.095-0.188
		C-28.196,14.65-28.102,14.65-28.102,14.745"/>
	<path fill="#004C99" d="M-12.597,10.329c0.469,0.657,0.282,1.598-0.282,2.068c-0.658,0.47-1.599,0.282-2.068-0.283
		c-0.471-0.657-0.282-1.597,0.282-2.067C-14.006,9.483-13.068,9.672-12.597,10.329"/>
	<path fill="#004C99" d="M-16.451,10.14c0.376,0.47,0.282,1.222-0.282,1.596c-0.564,0.377-1.22,0.283-1.596-0.28
		c-0.377-0.47-0.282-1.222,0.282-1.598C-17.483,9.483-16.827,9.672-16.451,10.14"/>
	<path fill="#004C99" d="M-19.177,10.61c0.284,0.376,0.284,1.034-0.279,1.411c-0.377,0.282-1.035,0.282-1.412-0.283
		c-0.282-0.375-0.282-1.033,0.285-1.409C-20.115,10.047-19.456,10.14-19.177,10.61"/>
	<path fill="#004C99" d="M-21.619,11.551c0.282,0.282,0.187,0.846-0.187,1.128c-0.282,0.281-0.846,0.188-1.127-0.189
		c-0.285-0.28-0.19-0.846,0.187-1.126C-22.464,11.081-21.901,11.175-21.619,11.551"/>
	<path fill="#004C99" d="M-23.592,12.867c0.282,0.282,0.187,0.751-0.187,0.939c-0.376,0.188-0.753,0.188-0.94-0.188
		c-0.282-0.282-0.187-0.751,0.187-0.939C-24.248,12.49-23.779,12.49-23.592,12.867"/>
	<path fill="#004C99" d="M-24.814,14.182c0.282,0.282,0.189,0.751-0.187,0.846c-0.282,0.282-0.659,0.189-0.846-0.188
		c-0.187-0.282-0.095-0.657,0.187-0.846C-25.378,13.9-25.001,13.9-24.814,14.182"/>
	<path fill="#004C99" d="M-25.847,15.778c0.187,0.283,0.187,0.564-0.095,0.847c-0.282,0.188-0.563,0.188-0.751-0.094
		c-0.189-0.282-0.189-0.563,0.095-0.846C-26.41,15.404-26.034,15.497-25.847,15.778"/>
	<path fill="#004C99" d="M-26.597,17.189c0.187,0.282,0.092,0.47-0.095,0.657c-0.282,0.188-0.471,0.095-0.658-0.095
		c-0.187-0.282-0.095-0.469,0.095-0.657C-27.069,16.907-26.787,16.907-26.597,17.189"/>
	<path fill="#004C99" d="M-27.069,18.504c0.187,0.187,0.095,0.377-0.095,0.563c-0.187,0.188-0.374,0.094-0.561-0.095
		c-0.19-0.188-0.095-0.375,0.092-0.563C-27.538,18.316-27.256,18.411-27.069,18.504"/>
	<path fill="#004C99" d="M-27.256,19.632c0.092,0.188,0.092,0.377-0.095,0.47c-0.187,0.095-0.374,0.095-0.469-0.093
		c-0.095-0.094,0-0.282,0.187-0.471C-27.538,19.443-27.351,19.443-27.256,19.632"/>
	<path fill="#004C99" d="M-27.351,20.667c0.095,0.188,0.095,0.282-0.095,0.374c-0.187,0.096-0.282,0.096-0.377-0.092
		c-0.095-0.189-0.095-0.282,0.095-0.377C-27.538,20.479-27.445,20.479-27.351,20.667"/>
	<path fill="#004C99" d="M-27.445,21.606c0.095,0.094,0.095,0.282-0.092,0.282c-0.095,0.093-0.282,0.093-0.282-0.095
		c-0.095-0.094-0.095-0.282,0.095-0.282C-27.632,21.418-27.538,21.512-27.445,21.606"/>
	<path fill="#004C99" d="M-27.445,22.358c0.095,0.094,0,0.188,0,0.282c-0.092,0.095-0.187,0-0.279,0c-0.095-0.095,0-0.188,0-0.282
		C-27.538,22.265-27.538,22.265-27.445,22.358"/>
	<path fill="#004C99" d="M-27.351,22.922c0.095,0.093,0,0.188,0,0.188c-0.095,0.095-0.187,0-0.187,0c-0.095-0.095,0-0.188,0-0.188
		C-27.538,22.827-27.445,22.922-27.351,22.922"/>
	<path fill="#004C99" d="M-14.76,12.867c0.753,0.375,0.846,1.409,0.472,1.973c-0.376,0.752-1.317,0.939-1.973,0.47
		c-0.753-0.376-0.848-1.409-0.471-1.973C-16.356,12.585-15.51,12.395-14.76,12.867"/>
	<path fill="#004C99" d="M-18.329,14.182c0.563,0.282,0.75,1.034,0.376,1.596c-0.282,0.564-1.035,0.752-1.504,0.377
		c-0.564-0.282-0.751-1.034-0.377-1.598C-19.551,13.993-18.8,13.806-18.329,14.182"/>
	<path fill="#004C99" d="M-20.773,15.686c0.472,0.282,0.659,0.846,0.282,1.409c-0.282,0.47-0.846,0.657-1.41,0.283
		c-0.469-0.283-0.656-0.846-0.282-1.409C-21.806,15.497-21.15,15.309-20.773,15.686"/>
	<path fill="#004C99" d="M-22.651,17.47c0.376,0.282,0.469,0.752,0.282,1.128c-0.187,0.375-0.753,0.47-1.127,0.281
		c-0.376-0.188-0.469-0.752-0.282-1.127C-23.497,17.377-23.028,17.282-22.651,17.47"/>
	<path fill="#004C99" d="M-23.874,19.443c0.282,0.188,0.376,0.657,0.282,0.939c-0.187,0.282-0.656,0.377-0.846,0.282
		c-0.282-0.188-0.376-0.656-0.282-0.938C-24.719,19.35-24.248,19.257-23.874,19.443"/>
	<path fill="#004C99" d="M-24.532,21.231c0.285,0.187,0.377,0.563,0.285,0.845c-0.285,0.282-0.659,0.377-0.94,0.282
		c-0.282-0.187-0.374-0.563-0.282-0.846C-25.283,21.137-24.814,21.041-24.532,21.231"/>
	<path fill="#004C99" d="M-24.906,22.922c0.282,0.188,0.282,0.469,0.187,0.751c-0.187,0.283-0.469,0.377-0.75,0.283
		c-0.282-0.189-0.282-0.47-0.19-0.752C-25.47,22.827-25.19,22.827-24.906,22.922"/>
	<path fill="#004C99" d="M-25.096,24.613c0.282,0.188,0.282,0.377,0.189,0.658c-0.189,0.281-0.376,0.281-0.659,0.188
		c-0.282-0.095-0.282-0.377-0.187-0.658C-25.565,24.519-25.378,24.519-25.096,24.613"/>
	<path fill="#004C99" d="M-25.001,26.022c0.187,0.094,0.282,0.282,0.187,0.563c-0.092,0.188-0.282,0.282-0.469,0.188
		c-0.187-0.093-0.282-0.282-0.187-0.562C-25.378,26.022-25.19,25.929-25.001,26.022"/>
	<path fill="#004C99" d="M-24.719,27.15c0.187,0.095,0.282,0.281,0.095,0.47c-0.095,0.188-0.282,0.282-0.471,0.094
		c-0.187-0.094-0.282-0.282-0.095-0.469C-25.096,27.058-24.814,26.963-24.719,27.15"/>
	<path fill="#004C99" d="M-24.438,28.091c0.19,0.093,0.19,0.281,0.095,0.375c-0.095,0.188-0.282,0.188-0.376,0.094
		c-0.187-0.094-0.187-0.281-0.095-0.376C-24.719,28.091-24.625,27.995-24.438,28.091"/>
	<path fill="#004C99" d="M-24.248,28.936c0.092,0.093,0.187,0.188,0.092,0.282c-0.092,0.092-0.188,0.188-0.282,0.092
		c-0.092-0.092-0.187-0.188-0.092-0.281C-24.438,28.936-24.248,28.936-24.248,28.936"/>
	<path fill="#004C99" d="M-23.874,29.687c0.095,0.095,0.095,0.188,0.095,0.283c-0.095,0.094-0.187,0.094-0.282,0.094
		c-0.095-0.094-0.095-0.188-0.095-0.282C-24.155,29.687-23.966,29.593-23.874,29.687"/>
	<path fill="#004C99" d="M-23.592,30.252c0.095,0,0.095,0.093,0.095,0.188c0,0.093-0.095,0.093-0.189,0.093
		c-0.092,0-0.092-0.093-0.092-0.188C-23.779,30.252-23.687,30.252-23.592,30.252"/>
	<path fill="#004C99" d="M-15.792,15.966c0.845,0.095,1.409,0.846,1.222,1.692c-0.095,0.846-0.848,1.409-1.691,1.314
		c-0.848-0.092-1.412-0.844-1.222-1.69C-17.296,16.437-16.638,15.874-15.792,15.966"/>
	<path fill="#004C99" d="M-18.611,18.599c0.659,0.095,1.033,0.658,0.938,1.316c-0.092,0.657-0.656,1.034-1.314,0.939
		c-0.656-0.095-1.033-0.658-0.94-1.316C-19.833,18.973-19.269,18.504-18.611,18.599"/>
	<path fill="#004C99" d="M-20.207,20.854c0.564,0.095,0.846,0.563,0.846,1.127c-0.095,0.564-0.564,0.846-1.127,0.846
		c-0.564-0.092-0.846-0.562-0.846-1.127C-21.242,21.231-20.773,20.76-20.207,20.854"/>
	<path fill="#004C99" d="M-21.337,23.391c0.376,0.094,0.753,0.471,0.659,0.848c-0.095,0.375-0.472,0.752-0.848,0.657
		c-0.375-0.095-0.751-0.47-0.656-0.846C-22.088,23.579-21.711,23.296-21.337,23.391"/>
	<path fill="#004C99" d="M-21.711,25.646c0.374,0.095,0.656,0.377,0.563,0.848c-0.095,0.375-0.376,0.657-0.845,0.564
		c-0.377-0.095-0.659-0.377-0.564-0.847C-22.464,25.834-22.088,25.553-21.711,25.646"/>
	<path fill="#004C99" d="M-21.619,27.526c0.282,0.094,0.563,0.376,0.563,0.752c-0.095,0.282-0.376,0.562-0.75,0.562
		c-0.282-0.092-0.564-0.375-0.564-0.75C-22.37,27.714-22.088,27.432-21.619,27.526"/>
	<path fill="#004C99" d="M-21.337,29.31c0.282,0.096,0.469,0.283,0.469,0.659c-0.092,0.281-0.282,0.469-0.656,0.469
		c-0.282-0.095-0.564-0.282-0.469-0.658C-21.901,29.405-21.619,29.31-21.337,29.31"/>
	<path fill="#004C99" d="M-20.96,30.909c0.282,0,0.377,0.281,0.377,0.563s-0.285,0.375-0.472,0.375s-0.376-0.281-0.376-0.562
		S-21.15,30.909-20.96,30.909"/>
	<path fill="#004C99" d="M-20.302,32.13c0.282,0,0.282,0.283,0.282,0.377c0,0.283-0.282,0.283-0.376,0.283
		c-0.282,0-0.282-0.283-0.282-0.377S-20.491,32.13-20.302,32.13"/>
	<path fill="#004C99" d="M-19.646,33.069c0.19,0,0.282,0.281,0.282,0.376c0,0.188-0.282,0.282-0.375,0.282
		c-0.095,0-0.282-0.282-0.282-0.377C-19.928,33.164-19.833,33.069-19.646,33.069"/>
	<path fill="#004C99" d="M-18.987,33.821c0.187,0,0.282,0.188,0.282,0.283c0,0.188-0.187,0.281-0.282,0.281
		c-0.189,0-0.282-0.188-0.282-0.281C-19.269,34.009-19.177,33.821-18.987,33.821"/>
	<path fill="#004C99" d="M-18.329,34.573c0.095,0,0.282,0.189,0.187,0.281c0,0.189-0.187,0.282-0.282,0.189
		c-0.095,0-0.282-0.189-0.187-0.281C-18.611,34.668-18.519,34.573-18.329,34.573"/>
	<path fill="#004C99" d="M-17.86,35.137c0.095,0,0.187,0.095,0.187,0.189c0,0.093-0.092,0.188-0.187,0.188
		c-0.092,0-0.187-0.095-0.187-0.188C-18.047,35.137-17.952,35.137-17.86,35.137"/>
	<path fill="#004C99" d="M-17.391,35.514c0.095,0,0.095,0.093,0.095,0.187c0,0.095-0.095,0.095-0.187,0.095
		c-0.095,0-0.095-0.095-0.095-0.188C-17.483,35.514-17.391,35.514-17.391,35.514"/>
	<path fill="#004C99" d="M-15.605,19.35c0.845-0.188,1.599,0.282,1.786,1.036c0.19,0.846-0.282,1.596-1.035,1.784
		c-0.845,0.188-1.596-0.281-1.783-1.033C-16.827,20.386-16.356,19.538-15.605,19.35"/>
	<path fill="#004C99" d="M-17.201,22.827c0.658-0.187,1.222,0.282,1.409,0.846c0.187,0.658-0.282,1.223-0.846,1.409
		c-0.659,0.189-1.222-0.281-1.409-0.846C-18.142,23.579-17.765,22.922-17.201,22.827"/>
	<path fill="#004C99" d="M-17.765,25.553c0.469-0.188,1.033,0.188,1.222,0.752c0.187,0.563-0.189,1.032-0.753,1.222
		c-0.469,0.188-1.032-0.189-1.222-0.753C-18.611,26.211-18.329,25.646-17.765,25.553"/>
	<path fill="#004C99" d="M-17.86,28.278c0.376-0.095,0.846,0.188,0.94,0.564c0.092,0.376-0.19,0.847-0.564,0.938
		c-0.376,0.095-0.845-0.187-0.94-0.562C-18.519,28.841-18.329,28.372-17.86,28.278"/>
	<path fill="#004C99" d="M-17.391,30.533c0.282-0.093,0.753,0.188,0.848,0.471c0.092,0.374-0.189,0.751-0.471,0.846
		c-0.282,0.093-0.751-0.188-0.846-0.47C-17.952,31.004-17.765,30.627-17.391,30.533"/>
	<path fill="#004C99" d="M-16.638,32.225c0.282-0.095,0.751,0.188,0.846,0.47c0.095,0.282-0.187,0.751-0.469,0.846
		c-0.282,0.094-0.753-0.189-0.848-0.471C-17.201,32.694-17.014,32.319-16.638,32.225"/>
	<path fill="#004C99" d="M-15.605,33.821c0.282-0.094,0.563,0.095,0.658,0.376c0.092,0.282-0.095,0.565-0.376,0.657
		c-0.282,0.095-0.563-0.092-0.656-0.375C-16.074,34.197-15.979,33.821-15.605,33.821"/>
	<path fill="#004C99" d="M-14.57,35.044c0.282-0.095,0.469,0.093,0.563,0.282c0.092,0.188-0.095,0.469-0.282,0.562
		c-0.282,0.095-0.472-0.094-0.566-0.282C-15.042,35.419-14.854,35.137-14.57,35.044"/>
	<path fill="#004C99" d="M-13.537,35.983c0.282-0.095,0.374,0.094,0.469,0.282c0.095,0.281-0.095,0.375-0.282,0.47
		c-0.282,0.093-0.375-0.095-0.469-0.281C-13.914,36.266-13.819,36.077-13.537,35.983"/>
	<path fill="#004C99" d="M-12.597,36.547c0.187-0.093,0.377,0.094,0.377,0.281c0.092,0.189-0.095,0.376-0.285,0.376
		c-0.187,0.095-0.374-0.095-0.374-0.281C-12.879,36.828-12.879,36.547-12.597,36.547"/>
	<path fill="#004C99" d="M-11.751,37.018c0.187,0,0.282,0.092,0.282,0.281c0,0.188-0.095,0.281-0.282,0.281
		s-0.282-0.094-0.282-0.281C-12.033,37.204-11.938,37.018-11.751,37.018"/>
	<path fill="#004C99" d="M-10.906,37.58c0.092,0,0.282,0.093,0.282,0.188c0,0.093-0.095,0.281-0.189,0.281
		c-0.092,0-0.282-0.094-0.282-0.188C-11.095,37.673-11.095,37.58-10.906,37.58"/>
	<path fill="#004C99" d="M-10.248,37.769c0.092,0,0.188,0,0.282,0.189c0,0.092,0,0.187-0.19,0.281c-0.092,0-0.187,0-0.282-0.187
		C-10.342,37.956-10.342,37.861-10.248,37.769"/>
	<path fill="#004C99" d="M-9.591,38.05c0.095,0,0.187,0,0.187,0.095c0,0.094,0,0.188-0.095,0.188c-0.092,0-0.187,0-0.187-0.095
		C-9.686,38.145-9.684,38.05-9.591,38.05"/>
	<path fill="#004C99" d="M-14.006,22.358c0.656-0.47,1.596-0.282,2.068,0.282c0.469,0.655,0.279,1.598-0.282,2.067
		c-0.659,0.469-1.599,0.282-2.068-0.282C-14.854,23.767-14.665,22.827-14.006,22.358"/>
	<path fill="#004C99" d="M-14.193,26.116c0.469-0.376,1.22-0.282,1.596,0.283c0.377,0.469,0.282,1.221-0.282,1.596
		c-0.471,0.377-1.222,0.283-1.599-0.281C-14.854,27.245-14.665,26.586-14.193,26.116"/>
	<path fill="#004C99" d="M-13.819,28.936c0.377-0.281,1.033-0.281,1.409,0.282c0.282,0.375,0.282,1.034-0.282,1.409
		c-0.376,0.282-1.033,0.282-1.409-0.282C-14.288,29.97-14.193,29.31-13.819,28.936"/>
	<path fill="#004C99" d="M-12.879,31.473c0.282-0.282,0.846-0.188,1.127,0.187c0.282,0.283,0.187,0.848-0.187,1.128
		c-0.376,0.282-0.848,0.189-1.13-0.188C-13.255,32.225-13.163,31.659-12.879,31.473"/>
	<path fill="#004C99" d="M-11.564,33.445c0.282-0.281,0.751-0.187,0.94,0.188c0.282,0.282,0.187,0.752-0.189,0.939
		c-0.374,0.189-0.751,0.189-0.938-0.188C-11.846,34.104-11.751,33.634-11.564,33.445"/>
	<path fill="#004C99" d="M-10.155,34.668c0.282-0.282,0.656-0.188,0.846,0.187c0.282,0.282,0.187,0.752-0.187,0.846
		c-0.282,0.283-0.659,0.188-0.846-0.187C-10.529,35.326-10.437,34.854-10.155,34.668"/>
	<path fill="#004C99" d="M-8.651,35.7c0.282-0.187,0.563-0.187,0.753,0.095c0.187,0.282,0.187,0.563-0.095,0.846
		c-0.282,0.188-0.563,0.188-0.753-0.094C-9.028,36.266-8.933,35.889-8.651,35.7"/>
	<path fill="#004C99" d="M-7.242,36.547c0.282-0.188,0.469-0.093,0.659,0.094c0.187,0.282,0.092,0.469-0.095,0.657
		c-0.282,0.188-0.469,0.094-0.658-0.095C-7.429,36.923-7.429,36.641-7.242,36.547"/>
	<path fill="#004C99" d="M-5.925,37.018c0.187-0.189,0.377-0.095,0.564,0.092c0.189,0.189,0.095,0.377-0.095,0.563
		c-0.187,0.188-0.374,0.096-0.563-0.093C-6.114,37.299-6.114,37.018-5.925,37.018"/>
	<path fill="#004C99" d="M-4.8,37.018c0.189-0.095,0.376-0.095,0.471,0.092c0.095,0.189,0.095,0.377-0.095,0.471
		c-0.187,0.093-0.376,0.093-0.469-0.094C-5.082,37.486-4.987,37.204-4.8,37.018"/>
	<path fill="#004C99" d="M-3.859,37.204c0.189-0.095,0.282-0.095,0.376,0.095c0.095,0.19,0.095,0.281-0.095,0.377
		c-0.189,0.095-0.282,0.095-0.376-0.095C-4.046,37.486-4.046,37.299-3.859,37.204"/>
	<path fill="#004C99" d="M-2.919,37.299c0.095-0.095,0.282-0.095,0.282,0.093c0.095,0.095,0.095,0.281-0.095,0.281
		c-0.092,0.096-0.282,0.096-0.282-0.093C-3.014,37.58-3.014,37.392-2.919,37.299"/>
	<path fill="#004C99" d="M-2.166,37.299c0.092-0.095,0.187-0.095,0.282,0c0.092,0.093,0,0.19,0,0.281c-0.095,0.093-0.19,0-0.282,0
		C-2.261,37.486-2.261,37.392-2.166,37.299"/>
	<path fill="#004C99" d="M-1.51,37.204c0.095-0.095,0.187,0,0.187,0c0.095,0.095,0,0.188,0,0.188c-0.092,0.095-0.187,0-0.187,0
		C-1.604,37.392-1.604,37.299-1.51,37.204"/>
	<path fill="#004C99" d="M-11.564,24.519c0.377-0.752,1.317-0.939,1.973-0.469c0.753,0.376,0.846,1.409,0.469,1.973
		c-0.376,0.751-1.314,0.94-1.973,0.471C-11.751,26.116-11.938,25.177-11.564,24.519"/>
	<path fill="#004C99" d="M-10.155,28.091c0.282-0.564,1.033-0.754,1.504-0.377c0.563,0.281,0.753,1.035,0.376,1.596
		c-0.282,0.565-1.035,0.754-1.504,0.377C-10.342,29.405-10.529,28.654-10.155,28.091"/>
	<path fill="#004C99" d="M-8.746,30.533c0.282-0.47,0.848-0.658,1.409-0.281c0.471,0.281,0.658,0.847,0.282,1.407
		c-0.282,0.471-0.846,0.66-1.409,0.283C-8.933,31.566-9.028,31.004-8.746,30.533"/>
	<path fill="#004C99" d="M-6.865,32.507c0.282-0.377,0.751-0.471,1.127-0.282c0.377,0.282,0.469,0.752,0.282,1.126
		c-0.187,0.377-0.75,0.471-1.127,0.283C-7.052,33.259-7.149,32.787-6.865,32.507"/>
	<path fill="#004C99" d="M-4.987,33.821c0.187-0.282,0.658-0.376,0.845-0.282c0.282,0.188,0.377,0.657,0.282,0.939
		c-0.187,0.281-0.656,0.375-0.846,0.281C-5.082,34.479-5.174,34.104-4.987,33.821"/>
	<path fill="#004C99" d="M-3.296,34.386c0.187-0.281,0.564-0.377,0.846-0.281c0.284,0.187,0.376,0.563,0.284,0.845
		c-0.189,0.282-0.566,0.377-0.848,0.282C-3.388,35.137-3.483,34.763-3.296,34.386"/>
	<path fill="#004C99" d="M-1.51,34.854c0.187-0.281,0.469-0.281,0.75-0.187c0.285,0.187,0.285,0.469,0.19,0.751
		c-0.19,0.281-0.472,0.281-0.753,0.188C-1.604,35.419-1.697,35.044-1.51,34.854"/>
	<path fill="#004C99" d="M0.089,34.949c0.187-0.281,0.377-0.281,0.656-0.187c0.282,0.092,0.282,0.374,0.187,0.656
		C0.745,35.7,0.555,35.7,0.276,35.606C0.089,35.419-0.006,35.231,0.089,34.949"/>
	<path fill="#004C99" d="M1.498,34.854c0.092-0.187,0.282-0.281,0.469-0.187c0.189,0.095,0.282,0.281,0.189,0.563
		c-0.095,0.188-0.282,0.282-0.472,0.188C1.403,35.326,1.403,35.044,1.498,34.854"/>
	<path fill="#004C99" d="M2.531,34.573C2.625,34.386,2.812,34.292,3,34.479c0.19,0.094,0.282,0.283,0.095,0.47
		C3,35.14,2.812,35.231,2.623,35.044C2.436,34.949,2.436,34.763,2.531,34.573"/>
	<path fill="#004C99" d="M3.563,34.292c0.095-0.188,0.284-0.188,0.376-0.095c0.19,0.095,0.19,0.282,0.095,0.376
		c-0.095,0.189-0.282,0.189-0.377,0.095C3.471,34.573,3.471,34.386,3.563,34.292"/>
	<path fill="#004C99" d="M4.412,34.009c0.095-0.093,0.187-0.188,0.279-0.093c0.095,0.093,0.189,0.188,0.095,0.281
		c-0.095,0.095-0.189,0.188-0.282,0.095C4.412,34.292,4.412,34.197,4.412,34.009"/>
	<path fill="#004C99" d="M5.162,33.821c0.095-0.094,0.19-0.094,0.282-0.094c0.095,0.094,0.095,0.188,0.095,0.281
		c-0.095,0.096-0.187,0.096-0.282,0.096C5.162,33.916,5.067,33.821,5.162,33.821"/>
	<path fill="#004C99" d="M5.726,33.445c0-0.092,0.095-0.092,0.187-0.092c0.095,0,0.095,0.092,0.095,0.187
		c0,0.094-0.095,0.094-0.187,0.094C5.726,33.54,5.726,33.445,5.726,33.445"/>
	<path fill="#004C99" d="M-8.464,25.553c0.095-0.848,0.848-1.409,1.691-1.314c0.848,0.093,1.409,0.847,1.222,1.69
		c-0.095,0.847-0.845,1.408-1.691,1.316C-7.897,27.15-8.464,26.305-8.464,25.553"/>
	<path fill="#004C99" d="M-5.738,28.278c0.095-0.658,0.656-1.033,1.314-0.941c0.659,0.095,1.035,0.658,0.94,1.317
		c-0.095,0.655-0.659,1.032-1.317,0.938C-5.456,29.593-5.925,28.936-5.738,28.278"/>
	<path fill="#004C99" d="M-3.578,29.97c0.095-0.564,0.563-0.847,1.127-0.847c0.563,0.095,0.846,0.563,0.846,1.129
		c-0.092,0.563-0.562,0.847-1.127,0.847C-3.296,31.004-3.578,30.533-3.578,29.97"/>
	<path fill="#004C99" d="M-1.133,31.096c0.092-0.374,0.469-0.751,0.846-0.655c0.376,0.093,0.75,0.469,0.656,0.845
		c-0.095,0.374-0.469,0.751-0.846,0.656C-0.852,31.942-1.228,31.566-1.133,31.096"/>
	<path fill="#004C99" d="M1.122,31.566c0.092-0.376,0.376-0.657,0.846-0.562c0.376,0.092,0.658,0.374,0.566,0.846
		c-0.095,0.376-0.376,0.657-0.848,0.563C1.309,32.225,1.122,31.942,1.122,31.566"/>
	<path fill="#004C99" d="M3.002,31.566c0.092-0.281,0.376-0.562,0.75-0.562c0.282,0.092,0.564,0.374,0.564,0.751
		c-0.095,0.281-0.377,0.564-0.751,0.564C3.189,32.13,3.002,31.848,3.002,31.566"/>
	<path fill="#004C99" d="M4.691,31.096c0.095-0.281,0.282-0.469,0.659-0.469c0.282,0.095,0.471,0.282,0.471,0.657
		c-0.095,0.28-0.284,0.471-0.659,0.471C4.786,31.755,4.691,31.473,4.691,31.096"/>
	<path fill="#004C99" d="M6.29,30.722c0-0.281,0.282-0.377,0.469-0.377s0.376,0.282,0.376,0.564c0,0.281-0.282,0.376-0.469,0.376
		C6.385,31.19,6.29,31.004,6.29,30.722"/>
	<path fill="#004C99" d="M7.604,30.063c0-0.282,0.285-0.282,0.377-0.282c0.282,0,0.282,0.282,0.282,0.376
		c0,0.283-0.282,0.283-0.374,0.283C7.699,30.533,7.512,30.252,7.604,30.063"/>
	<path fill="#004C99" d="M8.45,29.405c0-0.188,0.282-0.282,0.376-0.282c0.095,0,0.282,0.282,0.282,0.377
		c0,0.187-0.282,0.281-0.377,0.281C8.544,29.781,8.45,29.593,8.45,29.405"/>
	<path fill="#004C99" d="M9.203,28.841c0-0.187,0.189-0.281,0.282-0.281c0.187,0,0.282,0.189,0.282,0.281
		c0,0.095-0.187,0.282-0.282,0.282C9.295,29.028,9.203,28.936,9.203,28.841"/>
	<path fill="#004C99" d="M9.954,28.184c0-0.188,0.19-0.281,0.282-0.188c0.095,0,0.282,0.188,0.189,0.283
		c0,0.188-0.189,0.281-0.282,0.188C10.049,28.372,9.954,28.278,9.954,28.184"/>
	<path fill="#004C99" d="M10.52,27.62c0-0.094,0.092-0.188,0.187-0.188s0.19,0.095,0.19,0.188s-0.095,0.188-0.19,0.188
		C10.612,27.808,10.52,27.808,10.52,27.62"/>
	<path fill="#004C99" d="M10.894,27.15c0-0.093,0.092-0.093,0.187-0.093c0.095,0,0.095,0.093,0.095,0.188
		c0,0.092-0.095,0.092-0.19,0.092C10.894,27.337,10.894,27.245,10.894,27.15"/>
	<path fill="#004C99" d="M-5.174,25.271c-0.19-0.846,0.282-1.599,1.032-1.785c0.846-0.19,1.599,0.281,1.786,1.033
		c0.189,0.847-0.282,1.597-1.035,1.785C-4.142,26.586-4.892,26.116-5.174,25.271"/>
	<path fill="#004C99" d="M-1.697,26.868c-0.187-0.657,0.282-1.223,0.845-1.409c0.659-0.188,1.222,0.281,1.41,0.846
		c0.189,0.658-0.282,1.222-0.846,1.409C-0.852,27.902-1.51,27.526-1.697,26.868"/>
	<path fill="#004C99" d="M1.027,27.526c-0.187-0.563,0.187-1.033,0.753-1.222C2.249,26.116,2.812,26.493,3,27.058
		c0.19,0.562-0.187,1.033-0.75,1.221C1.685,28.372,1.214,28.091,1.027,27.526"/>
	<path fill="#004C99" d="M3.658,27.62c-0.092-0.375,0.189-0.847,0.564-0.939c0.376-0.095,0.848,0.188,0.94,0.564
		c0.095,0.375-0.187,0.846-0.563,0.938C4.222,28.277,3.848,27.995,3.658,27.62"/>
	<path fill="#004C99" d="M6.008,27.15c-0.095-0.377,0.189-0.751,0.472-0.846c0.282-0.094,0.75,0.188,0.845,0.469
		c0.092,0.377-0.187,0.753-0.469,0.847C6.385,27.808,6.103,27.526,6.008,27.15"/>
	<path fill="#004C99" d="M7.699,26.399c-0.095-0.283,0.189-0.754,0.471-0.847c0.282-0.094,0.751,0.188,0.846,0.47
		s-0.187,0.751-0.469,0.846C8.076,26.963,7.794,26.681,7.699,26.399"/>
	<path fill="#004C99" d="M9.203,25.364c-0.092-0.282,0.095-0.563,0.376-0.656c0.282-0.095,0.564,0.093,0.656,0.377
		c0.095,0.281-0.092,0.563-0.374,0.655C9.577,25.834,9.203,25.646,9.203,25.364"/>
	<path fill="#004C99" d="M10.425,24.331c-0.095-0.281,0.092-0.47,0.279-0.564c0.282-0.094,0.472,0.095,0.563,0.283
		c0.095,0.188-0.092,0.469-0.282,0.563C10.707,24.708,10.52,24.519,10.425,24.331"/>
	<path fill="#004C99" d="M11.363,23.296c-0.095-0.281,0.095-0.374,0.282-0.469c0.282-0.092,0.376,0.095,0.471,0.282
		c0.092,0.281-0.095,0.377-0.282,0.47C11.645,23.579,11.458,23.486,11.363,23.296"/>
	<path fill="#004C99" d="M11.927,22.358c-0.092-0.188,0.095-0.377,0.282-0.377c0.19-0.093,0.377,0.095,0.377,0.283
		c0.092,0.188-0.095,0.376-0.282,0.376C12.116,22.641,11.927,22.452,11.927,22.358"/>
	<path fill="#004C99" d="M12.398,21.418c0-0.187,0.092-0.281,0.279-0.281c0.189,0,0.282,0.093,0.282,0.281S12.867,21.7,12.678,21.7
		C12.585,21.7,12.398,21.606,12.398,21.418"/>
	<path fill="#004C99" d="M12.867,20.667c0-0.095,0.092-0.281,0.187-0.281s0.282,0.094,0.282,0.187c0,0.095-0.095,0.282-0.187,0.282
		C12.962,20.76,12.867,20.667,12.867,20.667"/>
	<path fill="#004C99" d="M13.149,19.915c0-0.095,0-0.188,0.187-0.283c0.095,0,0.19,0,0.282,0.188c0,0.095,0,0.188-0.187,0.281
		C13.244,20.102,13.149,20.009,13.149,19.915"/>
	<path fill="#004C99" d="M13.338,19.257c0-0.095,0-0.189,0.095-0.189c0.092,0,0.187,0,0.187,0.095s0,0.188-0.095,0.188
		C13.338,19.35,13.338,19.35,13.338,19.257"/>
	<path fill="#004C99" d="M-4.142,21.041c-0.75-0.469-0.94-1.503-0.469-2.351c0.469-0.751,1.501-0.939,2.255-0.469
		c0.751,0.469,0.938,1.505,0.469,2.351C-2.355,21.323-3.388,21.512-4.142,21.041"/>
	<path fill="#004C99" d="M-3.483,13.713c-0.469,0.751-1.504,0.939-2.255,0.469c-0.75-0.469-0.94-1.503-0.469-2.255
		c0.469-0.751,1.501-0.939,2.255-0.47C-3.109,11.926-2.919,12.959-3.483,13.713"/>
	<path fill="#004C99" d="M-6.865,11.833c0.187,0.846-0.376,1.786-1.314,1.88c-0.848,0.188-1.786-0.377-1.88-1.316
		c-0.188-0.846,0.376-1.786,1.314-1.88C-7.897,10.329-7.052,10.894-6.865,11.833"/>
	<path fill="#004C99" d="M-10.624,13.054c0.751,0.47,0.94,1.503,0.469,2.255c-0.469,0.752-1.504,0.941-2.255,0.469
		c-0.753-0.469-0.94-1.503-0.469-2.254C-12.41,12.679-11.377,12.49-10.624,13.054"/>
	<path fill="#004C99" d="M-12.505,16.531c0.846-0.188,1.786,0.376,1.881,1.315c0.187,0.847-0.376,1.786-1.314,1.88
		c-0.94,0.094-1.786-0.377-1.881-1.315C-13.914,17.564-13.35,16.72-12.505,16.531"/>
	<path fill="#004C99" d="M-11.377,20.291c0.472-0.753,1.504-0.941,2.255-0.471c0.753,0.471,0.943,1.503,0.472,2.35
		c-0.472,0.752-1.504,0.939-2.255,0.471C-11.659,22.17-11.846,21.137-11.377,20.291"/>
	<path fill="#004C99" d="M-7.897,22.265c-0.19-0.847,0.374-1.785,1.314-1.879c0.845-0.189,1.783,0.376,1.878,1.314
		c0.189,0.847-0.376,1.786-1.314,1.881C-6.865,23.673-7.71,23.109-7.897,22.265"/>
	<path fill="#004C99" d="M-2.261,17.47c-0.848,0.188-1.786-0.376-1.881-1.316c-0.187-0.846,0.377-1.785,1.317-1.88
		c0.94-0.093,1.783,0.376,1.878,1.316C-0.852,16.531-1.415,17.377-2.261,17.47"/>
	<path fill="#004C99" d="M1.027,18.034c-0.846-0.093-1.409-0.846-1.22-1.691c0.092-0.846,0.846-1.409,1.691-1.315
		c0.846,0.094,1.41,0.846,1.223,1.692C2.533,17.566,1.873,18.128,1.027,18.034"/>
	<path fill="#004C99" d="M3.848,15.404c-0.658-0.095-1.035-0.658-0.943-1.316C3,13.43,3.563,13.054,4.222,13.148
		c0.658,0.094,1.032,0.657,0.94,1.315C4.975,15.121,4.412,15.497,3.848,15.404"/>
	<path fill="#004C99" d="M5.444,13.147c-0.564-0.094-0.848-0.564-0.848-1.126c0.095-0.564,0.566-0.846,1.127-0.846
		c0.563,0.093,0.845,0.562,0.845,1.126C6.477,12.867,6.008,13.242,5.444,13.147"/>
	<path fill="#004C99" d="M6.477,10.705c-0.374-0.095-0.75-0.47-0.656-0.846C5.913,9.482,6.29,9.106,6.664,9.201
		c0.376,0.093,0.753,0.47,0.658,0.845C7.322,10.422,6.946,10.799,6.477,10.705"/>
	<path fill="#004C99" d="M6.946,8.356C6.572,8.262,6.29,7.979,6.385,7.51c0.092-0.375,0.374-0.657,0.843-0.564
		c0.376,0.095,0.659,0.376,0.566,0.846C7.699,8.168,7.322,8.449,6.946,8.356"/>
	<path fill="#004C99" d="M6.854,6.476C6.572,6.383,6.29,6.1,6.29,5.724c0.095-0.281,0.375-0.563,0.751-0.563
		c0.282,0.094,0.563,0.376,0.563,0.752C7.604,6.381,7.322,6.57,6.854,6.476"/>
	<path fill="#004C99" d="M6.572,4.784C6.29,4.691,6.103,4.502,6.103,4.126c0.092-0.282,0.282-0.469,0.656-0.469
		c0.282,0.093,0.469,0.28,0.469,0.657C7.135,4.596,6.854,4.784,6.572,4.784"/>
	<path fill="#004C99" d="M6.103,3.188c-0.282,0-0.376-0.281-0.376-0.563s0.282-0.377,0.469-0.377c0.19,0,0.377,0.283,0.377,0.564
		C6.572,3,6.29,3.188,6.103,3.188"/>
	<path fill="#004C99" d="M5.539,1.872c-0.285,0-0.285-0.282-0.285-0.376c0-0.283,0.285-0.283,0.377-0.283
		c0.282,0,0.282,0.283,0.282,0.377C5.913,1.777,5.726,1.872,5.539,1.872"/>
	<path fill="#004C99" d="M4.786,1.027c-0.189,0-0.282-0.283-0.282-0.375c0-0.095,0.282-0.282,0.376-0.282
		c0.187,0,0.282,0.282,0.282,0.376C5.162,0.931,5.067,1.027,4.786,1.027"/>
	<path fill="#004C99" d="M4.222,0.273c-0.187,0-0.282-0.188-0.282-0.282c0-0.094,0.19-0.283,0.282-0.283
		c0.189,0,0.282,0.189,0.282,0.283C4.506,0.181,4.412,0.273,4.222,0.273"/>
	<path fill="#004C99" d="M3.563-0.571c-0.092,0-0.282-0.189-0.187-0.283c0-0.188,0.187-0.281,0.282-0.188
		c0.095,0,0.282,0.188,0.189,0.282C3.848-0.571,3.753-0.571,3.563-0.571"/>
	<path fill="#004C99" d="M3.095-1.135c-0.092,0-0.19-0.095-0.19-0.189c0-0.093,0.095-0.187,0.19-0.187
		c0.095,0,0.189,0.094,0.189,0.187C3.282-1.135,3.189-1.041,3.095-1.135"/>
	<path fill="#004C99" d="M2.531-1.511c-0.095,0-0.095-0.093-0.095-0.188c0-0.095,0.095-0.095,0.189-0.095
		c0.095,0,0.095,0.095,0.095,0.189C2.718-1.511,2.625-1.511,2.531-1.511"/>
</g>
<path fill="#004C99" d="M21.899,5.98c0-0.611,0.369-0.979,0.735-0.979c0.366,0,0.735,0.246,0.735,0.856l0,0
	c0.243-0.611,0.855-0.856,1.588-0.856c0.856,0,1.591,0.49,1.591,1.834v4.892c0,0.611-0.369,0.979-0.735,0.979
	s-0.733-0.246-0.733-0.979V7.203c0-0.489-0.246-0.733-0.612-0.733c-0.489,0-0.856,0.367-0.856,1.222v3.914
	c0,0.611-0.366,0.977-0.733,0.977c-0.366,0-0.735-0.244-0.735-0.977C21.899,11.606,21.899,5.98,21.899,5.98z"/>
<path fill="#004C99" d="M29.115,8.915c-0.856-0.735-1.099-1.101-1.099-1.956c0-1.223,0.855-1.958,2.321-1.958
	c1.834,0,2.201,1.101,2.201,1.834c0,0.49-0.244,0.735-0.854,0.735c-0.369,0-0.612-0.245-0.612-0.611
	c0-0.489-0.246-0.734-0.735-0.734c-0.364,0-0.489,0.245-0.489,0.489s0.123,0.489,0.366,0.735l0.979,0.733
	c0.979,0.734,1.591,1.224,1.591,2.323c0,1.468-0.979,2.202-2.447,2.202c-1.834,0-2.324-1.101-2.324-2.08
	c0-0.611,0.367-0.734,0.735-0.734c0.61,0,0.733,0.366,0.856,0.979c0,0.246,0.244,0.611,0.733,0.611c0.369,0,0.612-0.244,0.612-0.611
	c0-0.366-0.123-0.489-0.612-0.855L29.115,8.915z"/>
<path fill="#004C99" d="M33.886,6.47h-0.123c-0.489,0-0.735-0.124-0.735-0.612c0-0.489,0.246-0.611,0.735-0.611h0.123V4.023
	c0-0.611,0.366-0.979,0.735-0.979c0.364,0,0.733,0.245,0.733,0.979v1.224h0.366c0.489,0,0.735,0.122,0.735,0.611
	c0,0.49-0.246,0.612-0.735,0.612h-0.243v4.403c0,0.244,0.12,0.489,0.489,0.489c0.366,0,0.61,0.122,0.61,0.611
	c0,0.489-0.367,0.734-0.979,0.734c-1.222,0-1.711-0.611-1.711-1.467V6.348l0,0V6.47L33.886,6.47z"/>
<path fill="#004C99" d="M38.044,2.433c0.489,0,0.855,0.368,0.855,0.856c0,0.49-0.366,0.857-0.855,0.857
	c-0.49,0-0.856-0.368-0.856-0.857C37.188,2.801,37.555,2.433,38.044,2.433z M37.309,5.98c0-0.611,0.369-0.979,0.735-0.979
	c0.366,0,0.732,0.246,0.732,0.979v5.749c0,0.611-0.366,0.979-0.732,0.979c-0.369,0-0.735-0.245-0.735-0.979V5.98z"/>
<path fill="#004C99" d="M40.612,6.47h-0.123c-0.489,0-0.735-0.124-0.735-0.612c0-0.489,0.246-0.611,0.735-0.611h0.123V4.023
	c0-0.611,0.366-0.979,0.735-0.979c0.366,0,0.733,0.245,0.733,0.979v1.224h0.366c0.492,0,0.735,0.122,0.735,0.611
	c0,0.49-0.243,0.612-0.735,0.612H42.08v4.403c0,0.244,0.123,0.489,0.489,0.489c0.369,0,0.612,0.122,0.612,0.611
	c0,0.489-0.366,0.734-0.979,0.734c-1.223,0-1.712-0.611-1.712-1.467C40.612,11.362,40.612,6.47,40.612,6.47z"/>
<path fill="#004C99" d="M43.915,5.98c0-0.611,0.366-0.979,0.733-0.979c0.369,0,0.733,0.246,0.733,0.979v4.525
	c0,0.49,0.246,0.735,0.612,0.735c0.612,0,0.855-0.367,0.855-1.224V6.102c0-0.611,0.367-0.979,0.735-0.979
	c0.367,0,0.733,0.244,0.733,0.979v5.748c0,0.612-0.366,0.978-0.733,0.978c-0.366,0-0.735-0.243-0.735-0.855l0,0
	c-0.243,0.612-0.855,0.855-1.588,0.855c-0.856,0-1.591-0.489-1.591-1.834V5.98H43.915L43.915,5.98z"/>
<path fill="#004C99" d="M50.518,6.47h-0.123c-0.489,0-0.733-0.124-0.733-0.612c0-0.489,0.244-0.611,0.733-0.611h0.123V4.023
	c0-0.611,0.366-0.979,0.735-0.979c0.366,0,0.733,0.245,0.733,0.979v1.224h0.366c0.489,0,0.735,0.122,0.735,0.611
	c0,0.49-0.246,0.612-0.735,0.612h-0.243v4.403c0,0.244,0.123,0.489,0.489,0.489s0.612,0.122,0.612,0.611
	c0,0.489-0.369,0.734-0.979,0.734c-1.225,0-1.714-0.611-1.714-1.467V6.348l0,0V6.47z"/>
<path fill="#004C99" d="M53.574,7.814c0-1.59,0.492-2.813,2.57-2.813c1.958,0,2.567,1.223,2.567,2.813v2.079
	c0,1.59-0.49,2.813-2.567,2.813c-1.958,0-2.57-1.223-2.57-2.813V7.814z M55.409,9.648c0,1.467,0.246,1.712,0.735,1.712
	c0.489,0,0.735-0.368,0.735-1.712V7.814c0-1.223-0.246-1.712-0.735-1.712c-0.49,0-0.735,0.368-0.735,1.712V9.648z"/>
<path fill="#004C99" d="M62.87,7.814c0-1.59,0.244-2.813,1.835-2.813c0.61,0,1.099,0.246,1.468,0.856l0,0V3.533
	c0-0.611,0.366-0.979,0.733-0.979c0.366,0,0.735,0.246,0.735,0.979v8.196c0,0.611-0.367,0.979-0.735,0.979
	c-0.49,0-0.733-0.368-0.733-0.856l0,0c-0.246,0.613-0.858,0.856-1.468,0.856c-1.591,0-1.835-1.467-1.835-2.814V7.814z M64.705,9.404
	c0,1.223,0.12,1.958,0.61,1.958c0.612,0,0.735-0.735,0.735-1.835V8.059c0-1.59-0.367-1.834-0.735-1.834
	c-0.49,0-0.733,0.489-0.733,2.078v0.98h0.12v0.122H64.705z"/>
<path fill="#004C99" d="M69.23,8.059c0-1.957,0.244-3.057,2.57-3.057c1.712,0,2.322,0.979,2.322,2.935
	c0,0.612-0.121,1.101-0.854,1.101h-2.204v0.734c0,0.855,0.123,1.59,0.735,1.59c0.367,0,0.612-0.368,0.612-0.735
	c0-0.734,0.367-0.855,0.733-0.855c0.49,0,0.856,0.122,0.856,0.733c0,1.223-0.856,2.202-2.321,2.202c-2.327,0-2.57-1.101-2.57-3.058
	v-1.59H69.23z M72.41,7.814V7.203c0-0.489-0.123-0.978-0.735-0.978c-0.489,0-0.733,0.367-0.733,0.978v0.612H72.41z"/>
<path fill="#004C99" d="M79.233,8.059c0-1.957,0.243-3.057,2.567-3.057c1.711,0,2.324,0.979,2.324,2.935
	c0,0.612-0.123,1.101-0.856,1.101h-2.201v0.734c0,0.855,0.123,1.59,0.735,1.59c0.366,0,0.61-0.368,0.61-0.735
	c0-0.734,0.366-0.855,0.735-0.855c0.489,0,0.856,0.122,0.856,0.733c0,1.223-0.856,2.202-2.324,2.202
	c-2.324,0-2.567-1.101-2.567-3.058v-1.59H79.233z M82.411,7.814V7.203c0-0.489-0.121-0.978-0.736-0.978
	c-0.489,0-0.732,0.367-0.732,0.978v0.612H82.411z"/>
<path fill="#004C99" d="M85.252,5.98c0-0.611,0.367-0.979,0.733-0.979s0.735,0.246,0.735,0.856l0,0
	c0.246-0.611,0.856-0.856,1.588-0.856c0.856,0,1.591,0.49,1.591,1.834v4.892c0,0.611-0.369,0.979-0.735,0.979
	c-0.366,0-0.735-0.246-0.735-0.979V7.203c0-0.489-0.243-0.733-0.61-0.733c-0.489,0-0.855,0.367-0.855,1.222v3.914
	c0,0.611-0.369,0.977-0.735,0.977c-0.367,0-0.735-0.244-0.735-0.977V5.98H85.252z"/>
<path fill="#004C99" d="M91.368,8.059c0-1.957,0.244-3.057,2.567-3.057c1.712,0,2.321,0.979,2.321,2.935
	c0,0.612-0.12,1.101-0.853,1.101H93.2v0.734c0,0.855,0.123,1.59,0.735,1.59c0.367,0,0.61-0.368,0.61-0.735
	c0-0.734,0.369-0.855,0.735-0.855c0.49,0,0.856,0.122,0.856,0.733c0,1.223-0.856,2.202-2.324,2.202c-2.324,0-2.57-1.101-2.57-3.058
	v-1.59H91.368z M94.545,7.814V7.203c0-0.489-0.121-0.978-0.735-0.978c-0.489,0-0.733,0.367-0.733,0.978v0.612H94.545z"/>
<path fill="#004C99" d="M97.356,5.98c0-0.489,0.246-0.856,0.735-0.856s0.733,0.367,0.733,0.856v0.612l0,0
	c0.246-0.856,0.612-1.59,1.222-1.59c0.492,0,0.735,0.368,0.735,0.979c0,0.49-0.246,0.979-0.979,0.979
	c-0.489,0-0.856,0.366-0.856,0.979v3.545c0,0.612-0.366,0.979-0.732,0.979c-0.369,0-0.735-0.246-0.735-0.979V5.736h-0.123V5.98
	L97.356,5.98z"/>
<path fill="#004C99" d="M101.638,7.692c0-1.467,0.366-2.812,1.835-2.812c0.612,0,1.222,0.366,1.589,0.977l0,0
	c0-0.611,0.245-0.977,0.735-0.977c0.489,0,0.735,0.243,0.735,0.977v6.971c0,1.712-0.735,2.446-2.447,2.446
	c-1.223,0-2.204-0.367-2.204-1.468c0-0.489,0.369-0.733,0.736-0.733c0.366,0,0.614,0.245,0.735,0.489
	c0.122,0.366,0.366,0.489,0.489,0.489c0.735,0,0.855-0.489,0.855-1.468v-0.979l0,0c-0.366,0.611-0.735,0.734-1.466,0.734
	c-1.591,0-1.834-1.468-1.834-2.812C101.638,9.648,101.638,7.692,101.638,7.692z M103.229,9.159c0,1.714,0.12,2.081,0.732,2.081
	c0.369,0,0.735-0.245,0.735-1.834V8.182c0-1.589-0.489-1.834-0.735-1.834c-0.489,0-0.732,0.367-0.732,1.712V9.159z"/>
<path fill="#004C99" d="M108.855,2.433c0.487,0,0.854,0.368,0.854,0.856c0,0.49-0.366,0.857-0.854,0.857
	c-0.491,0-0.857-0.368-0.857-0.857C107.998,2.801,108.364,2.433,108.855,2.433z M108.12,5.98c0-0.611,0.367-0.979,0.735-0.979
	c0.364,0,0.733,0.246,0.733,0.979v5.749c0,0.611-0.366,0.979-0.733,0.979c-0.366,0-0.735-0.245-0.735-0.979V5.98z"/>
<path fill="#004C99" d="M19.332,2.433c0.489,0,0.855,0.368,0.855,0.856c0,0.49-0.366,0.857-0.855,0.857
	c-0.49,0-0.856-0.368-0.856-0.857C18.476,2.801,18.842,2.433,19.332,2.433z M18.597,5.98c0-0.611,0.366-0.979,0.735-0.979
	c0.369,0,0.732,0.246,0.732,0.979v5.749c0,0.611-0.364,0.979-0.732,0.979c-0.367,0-0.735-0.245-0.735-0.979V5.98L18.597,5.98z"/>
<path fill="#004C99" d="M115.945,10.873c0,0.491,0.123,0.856,0.123,1.101c0,0.367-0.245,0.612-0.732,0.612
	c-0.369,0-0.858-0.245-0.858-0.856l0,0c-0.243,0.611-0.854,0.856-1.589,0.856c-0.976,0-1.714-0.612-1.714-1.958
	c0-1.101,0.246-1.834,1.102-2.202l1.592-0.735c0.366-0.122,0.489-0.489,0.489-0.734c0-0.366-0.246-0.735-0.612-0.735
	c-0.489,0-0.735,0.246-0.735,0.856c0,0.366-0.367,0.49-0.735,0.49c-0.367,0-0.854-0.124-0.854-0.611
	c0-1.223,0.977-1.956,2.321-1.956c2.201,0,2.447,0.977,2.447,2.2v3.547h-0.246v0.125H115.945z M114.234,8.793l-0.61,0.366
	c-0.735,0.491-0.855,0.735-0.855,1.468c0,0.491,0.246,0.856,0.612,0.856c0.487,0,0.854-0.611,0.854-1.467V8.793z"/>
<path fill="#004C99" d="M163.312,10.873c0,0.491,0.123,0.856,0.123,1.101c0,0.367-0.246,0.612-0.735,0.612
	c-0.366,0-0.855-0.245-0.855-0.856l0,0c-0.246,0.611-0.855,0.856-1.589,0.856c-0.979,0-1.714-0.612-1.714-1.958
	c0-1.101,0.246-1.834,1.102-2.202l1.591-0.735c0.364-0.122,0.487-0.489,0.487-0.734c0-0.366-0.246-0.735-0.61-0.735
	c-0.489,0-0.735,0.246-0.735,0.856c0,0.366-0.368,0.49-0.735,0.49c-0.366,0-0.855-0.124-0.855-0.611
	c0-1.223,0.979-1.956,2.324-1.956c2.201,0,2.446,0.977,2.446,2.2v3.547h-0.245v0.125H163.312z M161.598,8.793l-0.609,0.366
	c-0.736,0.491-0.856,0.735-0.856,1.468c0,0.491,0.243,0.856,0.612,0.856c0.489,0,0.854-0.611,0.854-1.467V8.793L161.598,8.793z"/>
<path fill="#004C99" d="M120.351,8.059c0-1.957,0.246-3.057,2.569-3.057c1.712,0,2.322,0.979,2.322,2.935
	c0,0.612-0.121,1.101-0.856,1.101h-2.201v0.734c0,0.855,0.123,1.59,0.735,1.59c0.367,0,0.61-0.368,0.61-0.735
	c0-0.734,0.369-0.855,0.738-0.855c0.486,0,0.853,0.122,0.853,0.733c0,1.223-0.853,2.202-2.321,2.202
	c-2.324,0-2.569-1.101-2.569-3.058L120.351,8.059L120.351,8.059z M123.53,7.814V7.203c0-0.489-0.123-0.978-0.733-0.978
	c-0.489,0-0.734,0.367-0.734,0.978v0.612H123.53z"/>
<path fill="#004C99" d="M138.94,8.059c0-1.957,0.246-3.057,2.568-3.057c1.71,0,2.324,0.979,2.324,2.935
	c0,0.612-0.123,1.101-0.855,1.101h-2.204v0.734c0,0.855,0.123,1.59,0.735,1.59c0.367,0,0.612-0.368,0.612-0.735
	c0-0.734,0.367-0.855,0.736-0.855c0.489,0,0.855,0.122,0.855,0.733c0,1.223-0.855,2.202-2.324,2.202
	c-2.322,0-2.566-1.101-2.566-3.058L138.94,8.059L138.94,8.059z M142.239,7.814V7.203c0-0.489-0.123-0.978-0.732-0.978
	c-0.489,0-0.735,0.367-0.735,0.978v0.612H142.239z"/>
<path fill="#004C99" d="M145.911,2.433c0.487,0,0.854,0.368,0.854,0.856c0,0.49-0.366,0.857-0.854,0.857
	c-0.489,0-0.855-0.368-0.855-0.857C145.056,2.801,145.422,2.433,145.911,2.433z M145.056,5.98c0-0.611,0.366-0.979,0.732-0.979
	s0.735,0.246,0.735,0.979v5.749c0,0.611-0.366,0.979-0.735,0.979c-0.366,0-0.732-0.245-0.732-0.979V5.98z"/>
<path fill="#004C99" d="M147.989,7.814c0-1.59,0.489-2.813,2.567-2.813c1.958,0,2.57,1.223,2.57,2.813v2.079
	c0,1.59-0.489,2.813-2.57,2.813c-1.955,0-2.567-1.223-2.567-2.813V7.814z M149.703,9.648c0,1.467,0.244,1.712,0.733,1.712
	s0.735-0.368,0.735-1.712V7.814c0-1.223-0.246-1.712-0.735-1.712s-0.733,0.368-0.733,1.712V9.648z"/>
<path fill="#004C99" d="M172.08,11.728c0,0.611-0.364,0.979-0.733,0.979c-0.366,0-0.735-0.246-0.735-0.979V7.203
	c0-0.489-0.243-0.733-0.612-0.733c-0.489,0-0.855,0.367-0.855,1.222v3.914c0,0.611-0.364,0.977-0.732,0.977
	c-0.369,0-0.733-0.244-0.733-0.977V7.08c0-0.489-0.248-0.735-0.615-0.735c-0.489,0-0.853,0.368-0.853,1.224v3.914
	c0,0.611-0.369,0.979-0.738,0.979c-0.486,0-0.732-0.245-0.732-0.979V5.736c0-0.612,0.366-0.979,0.732-0.979
	c0.492,0,0.738,0.246,0.738,0.856l0,0c0.243-0.611,0.853-0.856,1.589-0.856c0.735,0,1.099,0.246,1.588,0.734
	c0.492-0.61,0.856-0.734,1.712-0.734c0.858,0,1.591,0.49,1.591,1.835v5.015h-0.612L172.08,11.728L172.08,11.728z"/>
<path fill="#004C99" d="M137.044,11.728c0,0.611-0.366,0.979-0.735,0.979s-0.733-0.246-0.733-0.979V7.203
	c0-0.489-0.245-0.733-0.612-0.733c-0.489,0-0.855,0.367-0.855,1.222v3.914c0,0.611-0.366,0.977-0.735,0.977
	c-0.366,0-0.733-0.244-0.733-0.977V7.08c0-0.489-0.245-0.735-0.612-0.735c-0.489,0-0.855,0.368-0.855,1.224v3.914
	c0,0.611-0.366,0.979-0.735,0.979c-0.486,0-0.735-0.245-0.735-0.979V5.736c0-0.612,0.369-0.979,0.735-0.979
	c0.489,0,0.735,0.246,0.735,0.856l0,0c0.243-0.611,0.855-0.856,1.591-0.856c0.733,0,1.1,0.246,1.589,0.734
	c0.489-0.61,0.856-0.734,1.712-0.734s1.591,0.49,1.591,1.835v5.015h-0.612L137.044,11.728L137.044,11.728z"/>
<path fill="#004C99" d="M173.428,3.533c0-0.611,0.366-0.979,0.735-0.979c0.366,0,0.732,0.246,0.732,0.979v2.324l0,0
	c0.246-0.49,0.858-0.855,1.469-0.855c1.591,0,1.835,1.468,1.835,2.813v1.957c0,1.59-0.246,2.813-1.835,2.813
	c-0.61,0-1.1-0.246-1.469-0.857l0,0c0,0.491-0.366,0.857-0.732,0.857c-0.492,0-0.735-0.246-0.735-0.979V3.533z M175.14,9.526
	c0,0.979,0.123,1.835,0.735,1.835c0.609,0,0.609-0.735,0.609-1.958V8.425c0-1.711-0.12-2.079-0.732-2.079
	c-0.366,0-0.735,0.245-0.735,1.834v1.468h0.123V9.526z"/>
<path fill="#004C99" d="M180.644,2.433c0.489,0,0.858,0.368,0.858,0.856c0,0.49-0.369,0.857-0.858,0.857
	c-0.49,0-0.856-0.368-0.856-0.857C179.664,2.801,180.033,2.433,180.644,2.433z M179.664,5.98c0-0.611,0.369-0.979,0.735-0.979
	s0.735,0.246,0.735,0.979v5.749c0,0.611-0.369,0.979-0.735,0.979s-0.735-0.245-0.735-0.979V5.98L179.664,5.98z"/>
<path fill="#004C99" d="M182.601,8.059c0-1.957,0.243-3.057,2.567-3.057c1.712,0,2.324,0.979,2.324,2.935
	c0,0.612-0.123,1.101-0.855,1.101h-2.204v0.734c0,0.855,0.126,1.59,0.738,1.59c0.363,0,0.609-0.368,0.609-0.735
	c0-0.734,0.366-0.855,0.735-0.855c0.487,0,0.856,0.122,0.856,0.733c0,1.223-0.856,2.202-2.324,2.202c-2.324,0-2.57-1.101-2.57-3.058
	L182.601,8.059L182.601,8.059z M185.903,7.814V7.203c0-0.489-0.123-0.978-0.735-0.978c-0.489,0-0.735,0.367-0.735,0.978v0.612
	H185.903z"/>
<path fill="#004C99" d="M188.717,5.98c0-0.611,0.364-0.979,0.733-0.979c0.366,0,0.735,0.246,0.735,0.856l0,0
	c0.243-0.611,0.855-0.856,1.588-0.856c0.856,0,1.592,0.49,1.592,1.834v4.892c0,0.611-0.367,0.979-0.735,0.979
	c-0.366,0-0.733-0.246-0.733-0.979V7.203c0-0.489-0.248-0.733-0.612-0.733c-0.492,0-0.855,0.367-0.855,1.222v3.914
	c0,0.611-0.369,0.977-0.738,0.977c-0.363,0-0.732-0.244-0.732-0.977L188.717,5.98L188.717,5.98z"/>
<path fill="#004C99" d="M195.197,6.47h-0.123c-0.489,0-0.733-0.124-0.733-0.612c0-0.489,0.244-0.611,0.733-0.611h0.123V4.023
	c0-0.611,0.369-0.979,0.735-0.979s0.735,0.245,0.735,0.979v1.224h0.366c0.489,0,0.732,0.122,0.732,0.611
	c0,0.49-0.243,0.612-0.732,0.612h-0.123v4.403c0,0.244,0.123,0.489,0.487,0.489c0.368,0,0.614,0.122,0.614,0.611
	c0,0.489-0.369,0.734-0.979,0.734c-1.225,0-1.714-0.611-1.714-1.467V6.348h-0.121L195.197,6.47L195.197,6.47z"/>
<path fill="#004C99" d="M198.254,8.059c0-1.957,0.246-3.057,2.57-3.057c1.711,0,2.323,0.979,2.323,2.935
	c0,0.612-0.125,1.101-0.855,1.101h-2.203v0.734c0,0.855,0.122,1.59,0.735,1.59c0.366,0,0.612-0.368,0.612-0.735
	c0-0.734,0.366-0.855,0.732-0.855c0.489,0,0.855,0.122,0.855,0.733c0,1.223-0.855,2.202-2.323,2.202
	c-2.324,0-2.565-1.101-2.565-3.058L198.254,8.059L198.254,8.059z M201.434,7.814V7.203c0-0.489-0.123-0.978-0.735-0.978
	c-0.489,0-0.735,0.367-0.735,0.978v0.612H201.434z"/>
<g>
	<path fill="#004C99" d="M205.961,3.289c-0.369,0-0.492,0.123-0.492,0.367c0,0.245,0.123,0.367,0.492,0.367h0.733v3.913
		c0,0.244,0.246,0.489,0.489,0.489s0.489-0.245,0.489-0.489V4.023h0.735c0.366,0,0.489-0.122,0.489-0.367
		c0-0.244-0.123-0.367-0.489-0.367C208.528,3.289,205.961,3.289,205.961,3.289z"/>
	<path fill="#004C99" d="M209.508,7.936c0,0.244,0.243,0.489,0.486,0.489s0.492-0.245,0.492-0.489V4.267l0,0l0.732,3.914
		c0,0.122,0.123,0.245,0.367,0.245c0.245,0,0.245-0.123,0.366-0.245l0.735-3.914l0,0v3.669c0,0.244,0.246,0.489,0.489,0.489
		s0.489-0.245,0.489-0.489v-4.28c0-0.489-0.123-0.733-0.735-0.733c-0.487,0-0.732,0.122-0.855,0.733l-0.489,2.569l0,0l-0.49-2.569
		c-0.12-0.612-0.366-0.733-0.853-0.733c-0.612,0-0.735,0.245-0.735,0.733V7.936L209.508,7.936z"/>
</g>
<g>
	<path fill="#004C99" d="M18.771,22.407c0-0.92,0.392-1.312,1.312-1.312h3.154c2.101,0,3.416,1.05,3.416,3.809
		c0,2.103-1.051,3.942-3.154,3.942h-2.101v4.599c0,0.788-0.525,1.312-1.181,1.312c-0.659,0-1.184-0.524-1.184-1.312V22.407H18.771
		L18.771,22.407z M21.267,26.875h1.05c1.051,0,1.576-0.788,1.576-1.971c0-1.446-0.525-1.971-1.445-1.971h-1.181V26.875
		L21.267,26.875z"/>
	<path fill="#004C99" d="M28.098,22.146c0-0.92,0.395-1.314,1.181-1.314c0.789,0,1.184,0.395,1.184,1.314v11.168
		c0,0.92-0.395,1.313-1.184,1.313c-0.787,0-1.181-0.395-1.181-1.313V22.146z"/>
	<path fill="#004C99" d="M38.739,32.262c0,0.656,0.133,1.184,0.133,1.445c0,0.656-0.395,0.92-1.181,0.92
		c-0.659,0-1.184-0.264-1.184-1.313l0,0c-0.395,0.92-1.184,1.313-2.101,1.313c-1.314,0-2.368-0.789-2.368-2.76
		c0-1.576,0.395-2.365,1.579-3.021l1.97-1.051c0.525-0.264,0.787-0.656,0.787-1.051c0-0.526-0.261-1.051-0.92-1.051
		c-0.787,0-1.05,0.395-1.05,1.182c0,0.395-0.525,0.786-1.051,0.786c-0.525,0-1.181-0.261-1.181-0.917
		c0-1.709,1.445-2.629,3.152-2.629c3.023,0,3.416,1.314,3.416,3.022V32.262L38.739,32.262z M36.507,29.241l-0.789,0.523
		c-1.051,0.657-1.181,1.051-1.181,1.971c0,0.788,0.261,1.183,0.787,1.183c0.789,0,1.184-0.788,1.184-1.839V29.241z"/>
	<path fill="#004C99" d="M40.973,26.088h-0.262c-0.658,0-1.053-0.264-1.053-0.79c0-0.656,0.395-0.92,1.053-0.92h0.262v-1.707
		c0-0.92,0.395-1.314,1.181-1.314c0.792,0,1.184,0.395,1.184,1.314v1.709h0.528c0.656,0,1.051,0.262,1.051,0.92
		c0,0.656-0.395,0.789-1.051,0.789h-0.528V32c0,0.394,0.131,0.656,0.656,0.656c0.528,0,0.789,0.264,0.789,0.789
		c0,0.788-0.525,1.051-1.445,1.051c-1.709,0-2.234-0.92-2.234-1.84v-6.568H40.973z"/>
	<path fill="#004C99" d="M51.878,32.262c0,0.656,0.131,1.184,0.131,1.445c0,0.656-0.395,0.92-1.181,0.92
		c-0.656,0-1.184-0.264-1.184-1.313l0,0c-0.395,0.92-1.181,1.313-2.101,1.313c-1.314,0-2.365-0.789-2.365-2.76
		c0-1.576,0.395-2.365,1.576-3.021l1.971-1.051c0.525-0.264,0.789-0.656,0.789-1.051c0-0.526-0.264-1.051-0.92-1.051
		c-0.789,0-1.051,0.395-1.051,1.182c0,0.395-0.525,0.786-1.05,0.786c-0.528,0-1.184-0.261-1.184-0.917
		c0-1.709,1.445-2.629,3.151-2.629c3.023,0,3.416,1.314,3.416,3.022v5.123H51.878z M49.513,29.241l-0.787,0.523
		c-1.053,0.657-1.184,1.051-1.184,1.971c0,0.788,0.264,1.183,0.79,1.183c0.789,0,1.184-0.788,1.184-1.839v-1.838H49.513z"/>
	<path fill="#004C99" d="M53.979,26.088h-0.261c-0.658,0-1.05-0.264-1.05-0.79c0-0.656,0.392-0.92,1.05-0.92h0.261v-1.312
		c0-1.709,0.79-2.234,2.496-2.234c0.789,0,1.184,0.265,1.184,1.051c0,0.395-0.264,0.789-0.656,0.789
		c-0.528,0-0.656,0.263-0.656,0.92v0.92h0.395c0.656,0,1.051,0.262,1.051,0.92c0,0.657-0.395,0.788-1.051,0.788h-0.395v7.227
		c0,0.919-0.395,1.312-1.184,1.312c-0.787,0-1.181-0.395-1.181-1.312L53.979,26.088L53.979,26.088z"/>
	<path fill="#004C99" d="M58.317,28.057c0-2.101,0.656-3.94,3.416-3.94c2.759,0,3.416,1.708,3.416,3.94v2.76
		c0,2.104-0.656,3.941-3.416,3.941c-2.76,0-3.416-1.708-3.416-3.941V28.057z M60.68,30.553c0,1.84,0.264,2.365,1.053,2.365
		c0.787,0,1.05-0.395,1.05-2.365v-2.365c0-1.837-0.395-2.231-1.05-2.231c-0.656,0-1.053,0.392-1.053,2.231V30.553z"/>
	<path fill="#004C99" d="M66.854,25.298c0-0.788,0.264-1.182,1.053-1.182c0.787,0,1.051,0.524,1.051,1.182v0.92l0,0
		c0.395-1.313,0.92-2.234,1.707-2.234c0.656,0,1.05,0.395,1.05,1.444c0,0.659-0.395,1.316-1.445,1.316
		c-0.656,0-1.312,0.526-1.312,1.312v4.993c0,0.92-0.395,1.314-1.184,1.314c-0.656,0-1.181-0.395-1.181-1.314v-7.752H66.854
		L66.854,25.298z"/>
	<path fill="#004C99" d="M83.804,33.313c0,0.92-0.395,1.313-1.181,1.313c-0.789,0-1.184-0.395-1.184-1.313v-6.175
		c0-0.788-0.395-1.051-0.92-1.051c-0.656,0-1.181,0.524-1.181,1.839v5.387c0,0.92-0.395,1.313-1.181,1.313
		c-0.79,0-1.184-0.395-1.184-1.313v-6.175c0-0.788-0.395-1.051-0.917-1.051c-0.656,0-1.184,0.524-1.184,1.839v5.386
		c0,0.92-0.395,1.312-1.184,1.312c-0.656,0-1.181-0.396-1.181-1.312v-7.885c0-0.918,0.395-1.312,1.181-1.312
		c0.658,0,1.184,0.394,1.184,1.312l0,0c0.395-0.918,1.184-1.312,2.101-1.312c1.053,0,1.579,0.262,1.971,1.182
		c0.656-0.788,1.314-1.182,2.234-1.182c1.312,0,2.232,0.788,2.232,2.496v6.7L83.804,33.313L83.804,33.313z"/>
	<path fill="#004C99" d="M92.081,32.262c0,0.656,0.133,1.184,0.133,1.445c0,0.656-0.395,0.92-1.181,0.92
		c-0.656,0-1.184-0.264-1.184-1.313l0,0c-0.392,0.92-1.181,1.313-2.101,1.313c-1.314,0-2.365-0.789-2.365-2.76
		c0-1.576,0.395-2.365,1.576-3.021l1.97-1.051c0.528-0.264,0.79-0.656,0.79-1.051c0-0.526-0.261-1.051-0.917-1.051
		c-0.789,0-1.05,0.395-1.05,1.182c0,0.395-0.528,0.786-1.053,0.786c-0.523,0-1.181-0.261-1.181-0.917
		c0-1.709,1.445-2.629,3.154-2.629c3.021,0,3.416,1.314,3.416,3.022v5.123H92.081z M89.849,29.241l-0.789,0.523
		c-1.05,0.657-1.181,1.051-1.181,1.971c0,0.788,0.264,1.183,0.787,1.183c0.789,0,1.184-0.788,1.184-1.839V29.241L89.849,29.241z"/>
	<path fill="#004C99" d="M98.256,28.057c0-2.101,0.395-3.94,2.365-3.94c0.789,0,1.578,0.394,1.97,1.182l0,0v-3.152
		c0-0.92,0.393-1.314,1.182-1.314s1.181,0.395,1.181,1.314v11.168c0,0.92-0.395,1.313-1.181,1.313c-0.656,0-1.182-0.525-1.182-1.182
		l0,0c-0.395,0.788-1.184,1.182-1.97,1.182c-2.104,0-2.365-1.84-2.365-3.941V28.057z M100.621,30.159c0,1.708,0.13,2.628,0.92,2.628
		c0.92,0,1.178-1.051,1.178-2.496v-1.84c0-1.97-0.522-2.495-1.05-2.495c-0.787,0-0.92,0.656-0.92,2.76v1.443H100.621L100.621,30.159
		z"/>
	<path fill="#004C99" d="M113.365,32.262c0,0.656,0.131,1.184,0.131,1.445c0,0.656-0.395,0.92-1.181,0.92
		c-0.659,0-1.185-0.264-1.185-1.313l0,0c-0.395,0.92-1.181,1.313-2.101,1.313c-1.314,0-2.365-0.789-2.365-2.76
		c0-1.576,0.395-2.365,1.576-3.021l1.97-1.051c0.525-0.264,0.79-0.656,0.79-1.051c0-0.526-0.265-1.051-0.92-1.051
		c-0.787,0-1.051,0.395-1.051,1.182c0,0.395-0.525,0.786-1.051,0.786c-0.527,0-1.184-0.261-1.184-0.917
		c0-1.709,1.447-2.629,3.154-2.629c3.021,0,3.415,1.314,3.415,3.022V32.262L113.365,32.262z M111.129,29.241l-0.787,0.523
		c-1.051,0.657-1.181,1.051-1.181,1.971c0,0.788,0.261,1.183,0.786,1.183c0.789,0,1.182-0.788,1.182-1.839V29.241L111.129,29.241z"
		/>
	<path fill="#004C99" d="M119.541,26.218c0-4.862,1.968-5.519,4.071-5.519s4.071,0.525,4.071,5.519v2.89
		c0,1.971-0.262,3.151-0.786,4.071l0.655,0.656c0.395,0.395,0.525,0.658,0.525,0.923c0,0.395-0.395,0.787-0.789,0.787
		s-0.656-0.264-1.182-0.657l-0.524-0.524c-0.656,0.395-1.314,0.395-2.104,0.395c-2.364,0-4.071-0.656-4.071-5.65v-2.89H119.541
		L119.541,26.218z M122.167,28.977c0,3.282,0.525,3.679,1.448,3.679c0.13,0,0.392,0,0.522-0.132l-0.131-0.132
		c-0.264-0.263-0.395-0.394-0.395-0.656c0-0.526,0.395-0.788,0.917-0.788c0.134,0,0.264,0,0.397,0.264
		c0.131-0.526,0.131-1.184,0.131-2.234v-2.89c0-2.892-0.525-3.548-1.445-3.548s-1.448,0.656-1.448,3.548v2.89H122.167z"/>
	<path fill="#004C99" d="M129.523,25.428c0-0.918,0.395-1.312,1.182-1.312c0.789,0,1.184,0.394,1.184,1.312v6.176
		c0,0.79,0.261,1.052,0.917,1.052c0.789,0,1.184-0.526,1.184-1.839v-5.386c0-0.92,0.395-1.314,1.182-1.314
		c0.655,0,1.184,0.395,1.184,1.314v7.883c0,0.92-0.395,1.314-1.184,1.314c-0.656,0-1.182-0.395-1.182-1.314l0,0
		c-0.395,0.92-1.184,1.314-2.101,1.314c-1.317,0-2.237-0.79-2.237-2.497v-6.699L129.523,25.428L129.523,25.428z"/>
	<path fill="#004C99" d="M144.369,32.262c0,0.656,0.133,1.184,0.133,1.445c0,0.656-0.397,0.92-1.184,0.92
		c-0.656,0-1.182-0.264-1.182-1.313l0,0c-0.395,0.92-1.181,1.313-2.103,1.313c-1.312,0-2.365-0.789-2.365-2.76
		c0-1.576,0.397-2.365,1.579-3.021l1.969-1.051c0.525-0.264,0.787-0.656,0.787-1.051c0-0.526-0.262-1.051-0.92-1.051
		c-0.786,0-1.05,0.395-1.05,1.182c0,0.395-0.525,0.786-1.05,0.786c-0.525,0-1.183-0.261-1.183-0.917
		c0-1.709,1.446-2.629,3.151-2.629c3.021,0,3.416,1.314,3.416,3.022V32.262L144.369,32.262z M142.137,29.241l-0.789,0.523
		c-1.05,0.657-1.183,1.051-1.183,1.971c0,0.788,0.264,1.183,0.788,1.183c0.789,0,1.184-0.788,1.184-1.839V29.241L142.137,29.241z"/>
	<path fill="#004C99" d="M146.473,22.146c0-0.92,0.395-1.314,1.181-1.314c0.789,0,1.182,0.395,1.182,1.314v11.168
		c0,0.92-0.393,1.313-1.182,1.313s-1.181-0.395-1.181-1.313V22.146z"/>
	<path fill="#004C99" d="M151.989,20.699c0.789,0,1.314,0.525,1.314,1.313c0,0.789-0.525,1.314-1.314,1.314
		s-1.312-0.525-1.312-1.314C150.677,21.226,151.333,20.699,151.989,20.699z M150.938,25.428c0-0.918,0.395-1.312,1.181-1.312
		c0.79,0,1.185,0.394,1.185,1.312v7.885c0,0.92-0.395,1.312-1.185,1.312c-0.789,0-1.181-0.396-1.181-1.312V25.428z"/>
	<path fill="#004C99" d="M155.013,28.057c0-2.101,0.395-3.94,2.365-3.94c0.789,0,1.575,0.394,1.97,1.182l0,0v-3.152
		c0-0.92,0.397-1.314,1.182-1.314c0.789,0,1.184,0.395,1.184,1.314v11.168c0,0.92-0.395,1.313-1.184,1.313
		c-0.656,0-1.182-0.525-1.182-1.182l0,0c-0.395,0.788-1.181,1.182-1.97,1.182c-2.104,0-2.365-1.84-2.365-3.941V28.057z
		 M157.375,30.159c0,1.708,0.133,2.628,0.92,2.628c0.92,0,1.181-1.051,1.181-2.496v-1.84c0-1.97-0.524-2.495-1.05-2.495
		c-0.787,0-0.92,0.656-0.92,2.76v1.443H157.375L157.375,30.159z"/>
	<path fill="#004C99" d="M170.253,32.262c0,0.656,0.131,1.184,0.131,1.445c0,0.656-0.395,0.92-1.182,0.92
		c-0.655,0-1.181-0.264-1.181-1.313l0,0c-0.395,0.92-1.184,1.313-2.104,1.313c-1.314,0-2.365-0.789-2.365-2.76
		c0-1.576,0.395-2.365,1.576-3.021l1.97-1.051c0.525-0.264,0.792-0.656,0.792-1.051c0-0.526-0.264-1.051-0.92-1.051
		c-0.792,0-1.053,0.395-1.053,1.182c0,0.395-0.525,0.786-1.051,0.786s-1.184-0.261-1.184-0.917c0-1.709,1.447-2.629,3.151-2.629
		c3.023,0,3.418,1.314,3.418,3.022V32.262L170.253,32.262z M167.888,29.241l-0.789,0.523c-1.051,0.657-1.181,1.051-1.181,1.971
		c0,0.788,0.261,1.183,0.786,1.183c0.789,0,1.184-0.788,1.184-1.839V29.241z"/>
	<path fill="#004C99" d="M171.829,28.057c0-2.101,0.395-3.94,2.364-3.94c0.79,0,1.576,0.394,1.971,1.182l0,0v-3.152
		c0-0.92,0.395-1.314,1.184-1.314c0.787,0,1.182,0.395,1.182,1.314v11.168c0,0.92-0.397,1.313-1.182,1.313
		c-0.658,0-1.184-0.525-1.184-1.182l0,0c-0.395,0.788-1.181,1.182-1.971,1.182c-2.104,0-2.364-1.84-2.364-3.941V28.057z
		 M174.324,30.159c0,1.708,0.134,2.628,0.92,2.628c0.918,0,1.182-1.051,1.182-2.496v-1.84c0-1.97-0.525-2.495-1.051-2.495
		c-0.789,0-0.92,0.656-0.92,2.76v1.443H174.324L174.324,30.159z"/>
	<path fill="#004C99" d="M180.369,28.321c0-2.629,0.395-4.205,3.415-4.205c2.368,0,3.154,1.312,3.154,3.94
		c0,0.92-0.133,1.576-1.314,1.576h-3.021v1.052c0,1.183,0.131,2.103,1.051,2.103c0.524,0,0.92-0.525,0.92-1.051
		c0-1.052,0.522-1.184,1.05-1.184c0.656,0,1.182,0.264,1.182,1.051c0,1.84-1.182,2.89-3.021,2.89c-3.023,0-3.415-1.707-3.415-4.204
		V28.321L180.369,28.321z M184.835,28.057v-0.789c0-0.788-0.261-1.312-1.051-1.312c-0.789,0-1.053,0.656-1.053,1.312v0.789H184.835z
		"/>
	<path fill="#004C99" d="M192.85,28.057c0-2.101,0.395-3.94,2.365-3.94c0.789,0,1.576,0.394,1.971,1.182l0,0v-3.152
		c0-0.92,0.395-1.314,1.181-1.314c0.79,0,1.185,0.395,1.185,1.314v11.168c0,0.92-0.395,1.313-1.185,1.313
		c-0.655,0-1.181-0.525-1.181-1.182l0,0c-0.395,0.788-1.182,1.182-1.971,1.182c-2.104,0-2.365-1.84-2.365-3.941V28.057z
		 M195.215,30.159c0,1.708,0.131,2.628,0.92,2.628c0.92,0,1.182-1.051,1.182-2.496v-1.84c0-1.97-0.525-2.495-1.051-2.495
		c-0.789,0-0.92,0.656-0.92,2.76v1.443H195.215L195.215,30.159z"/>
	<path fill="#004C99" d="M201.388,28.057c0-2.101,0.661-3.94,3.418-3.94c2.76,0,3.415,1.708,3.415,3.94v2.76
		c0,2.104-0.658,3.941-3.415,3.941s-3.418-1.708-3.418-3.941V28.057z M203.755,30.553c0,1.84,0.262,2.365,1.051,2.365
		s1.051-0.395,1.051-2.365v-2.365c0-1.837-0.393-2.231-1.051-2.231c-0.656,0-1.051,0.392-1.051,2.231V30.553z"/>
	<path fill="#004C99" d="M215.972,31.079l-0.522,2.366c-0.136,0.788-0.527,1.182-1.314,1.182c-0.789,0-1.184-0.395-1.184-1.051
		c0-0.263,0-0.656,0.131-1.051l2.367-9.985c0.262-1.314,0.656-1.709,2.104-1.709c1.312,0,1.707,0.396,2.102,1.709l2.365,9.985
		c0.13,0.393,0.13,0.788,0.13,1.051c0,0.788-0.655,1.182-1.179,1.182c-0.922,0-1.314-0.395-1.447-1.576l-0.395-1.971h-3.154v-0.132
		H215.972z M218.601,29.108l-1.05-5.518l0,0l-1.184,5.518H218.601z"/>
	<path fill="#004C99" d="M223.331,25.298c0-0.788,0.262-1.182,1.051-1.182s1.05,0.524,1.05,1.182v0.92l0,0
		c0.397-1.313,0.92-2.234,1.712-2.234c0.656,0,1.051,0.395,1.051,1.444c0,0.659-0.395,1.316-1.445,1.316
		c-0.658,0-1.317,0.526-1.317,1.312v4.993c0,0.92-0.392,1.314-1.181,1.314s-1.182-0.395-1.182-1.314v-7.752H223.331L223.331,25.298z
		"/>
</g>
</svg>
