<?xml version="1.0" encoding="utf-8"?>
<!-- Generator: Adobe Illustrator 16.0.0, SVG Export Plug-In . SVG Version: 6.00 Build 0)  -->
<!DOCTYPE svg PUBLIC "-//W3C//DTD SVG 1.1//EN" "http://www.w3.org/Graphics/SVG/1.1/DTD/svg11.dtd">
<svg version="1.1" id="Layer_1" xmlns="http://www.w3.org/2000/svg" xmlns:xlink="http://www.w3.org/1999/xlink" x="0px" y="0px"
	 width="142.5px" height="143.926px" viewBox="69.14 546.445 142.5 143.926" enable-background="new 69.14 546.445 142.5 143.926"
	 xml:space="preserve">
<path fill="#ECE8DF" d="M204.597,611.572c0,35.416-28.71,64.128-64.125,64.128c-35.417,0-64.127-28.712-64.127-64.128
	s28.71-64.126,64.127-64.126C175.887,547.446,204.597,576.156,204.597,611.572"/>
<path fill="#333333" d="M140.434,671.46c-21.353,0-41.221-11.523-51.851-30.069l0.779-0.447
	c10.47,18.269,30.041,29.618,51.072,29.618c21.031-0.002,40.6-11.35,51.069-29.614l0.779,0.448
	C181.653,659.938,161.786,671.458,140.434,671.46"/>
<path fill="#333333" d="M140.434,675.503c-23.659,0-45.254-12.994-56.36-33.911l1.586-0.842
	c10.794,20.328,31.782,32.956,54.774,32.956c22.995,0,43.982-12.628,54.772-32.955l1.587,0.843
	C185.691,662.509,164.095,675.503,140.434,675.503"/>
<path fill="#333333" d="M86.561,610.993v-3.562c0-2.037-0.182-2.364-1.781-2.364c-1.601,0-1.783,0.327-1.783,2.364v2.836
	c0,1.49,0.219,1.745,2.328,2.836c5.055,2.617,5.455,3.237,5.455,6.981v4.618c0,5.346-1.018,6.072-5.999,6.072
	c-4.691,0-5.819-0.727-5.819-6.072v-5.708h4.073v5.708c0,2,0.217,2.364,1.746,2.364c1.562,0,1.781-0.364,1.781-2.364v-4.327
	c0-1.928-0.146-2.328-2.327-3.454c-5.018-2.581-5.418-3.419-5.418-6.727v-2.764c0-5.346,0.982-6.109,5.964-6.109
	c4.835,0,5.853,0.764,5.853,6.109v3.562H86.561z"/>
<rect x="93.688" y="601.684" fill="#333333" width="4.181" height="28.727"/>
<polygon fill="#333333" points="117.397,601.684 117.397,630.41 113.979,630.41 113.979,610.121 113.834,610.121 111.178,630.41 
	107.433,630.41 104.779,609.975 104.634,609.975 104.634,630.41 101.179,630.41 101.179,601.684 107.034,601.684 109.216,620.994 
	109.361,620.994 111.578,601.684 "/>
<path fill="#333333" d="M120.489,624.702v-23.019h4.182v23.019c0,2,0.291,2.326,1.818,2.326c1.454,0,1.746-0.326,1.746-2.326
	v-23.019h4.073v23.019c0,5.346-1.091,6.072-5.891,6.072C121.615,630.774,120.489,630.048,120.489,624.702"/>
<polygon fill="#333333" points="143.835,630.41 135.362,630.41 135.362,601.684 139.544,601.684 139.544,626.774 143.835,626.774 
	"/>
<path fill="#333333" d="M153.289,630.41v-6.398h-3.527v6.398h-4.073v-23.054c0-5.307,1.091-6.035,5.854-6.035
	c4.764,0,5.926,0.872,5.926,6.035v23.054H153.289z M149.762,607.356v13.238h3.527v-13.238c0-1.963-0.291-2.29-1.782-2.29
	C150.017,605.066,149.762,605.394,149.762,607.356"/>
<path fill="#333333" d="M172.452,624.52c0,5.127-1.054,5.891-5.999,5.891h-5.963v-28.727h5.963c4.945,0,5.999,0.729,5.999,5.855
	V624.52z M168.234,607.539c0-1.892-0.254-2.218-1.781-2.218h-1.781v21.49h1.781c1.527,0,1.781-0.364,1.781-2.292V607.539z"/>
<path fill="#333333" d="M187.036,624.702c0,5.346-1.056,6.072-6,6.072c-4.945,0-5.963-0.727-5.963-6.072v-17.346
	c0-5.307,1.018-6.035,5.963-6.035c4.945,0,6,0.729,6,6.035V624.702z M182.817,607.356c0-1.963-0.254-2.29-1.781-2.29
	s-1.782,0.437-1.782,2.29v17.346c0,2,0.255,2.364,1.782,2.364c1.563,0,1.781-0.438,1.781-2.364V607.356z"/>
<path fill="#333333" d="M194.125,630.41h-4.181v-28.727h5.963c4.946,0,5.999,0.801,5.999,5.855v3.018
	c0,3.017-1.454,3.638-2.582,3.927v0.146c1.529,0.363,2.582,1.163,2.582,4.327v11.453h-4.218v-12.108
	c0-1.562-0.217-2.073-1.672-2.073h-1.891V630.41z M194.125,612.922h1.891c1.346,0,1.672-0.475,1.672-1.856v-3.526
	c0-1.818-0.181-2.218-1.781-2.218h-1.782V612.922z"/>
<path fill="#333333" d="M107.248,641.022c0,0.846-0.174,1.494-0.518,1.942c-0.345,0.449-0.842,0.672-1.49,0.672h-1.256v-5.132h1.372
	c0.597,0,1.061,0.22,1.394,0.662C107.082,639.608,107.248,640.227,107.248,641.022 M106.269,641.051
	c0-1.147-0.316-1.721-0.948-1.721h-0.383v3.472h0.31c0.347,0,0.606-0.146,0.771-0.438
	C106.185,642.072,106.269,641.636,106.269,641.051"/>
<polygon fill="#333333" points="110.308,643.637 107.995,643.637 107.995,638.505 110.308,638.505 110.308,639.33 108.95,639.33 
	108.95,640.552 110.21,640.552 110.21,641.38 108.95,641.38 108.95,642.802 110.308,642.802 "/>
<rect x="113.004" y="638.505" fill="#333333" width="0.898" height="5.132"/>
<path fill="#333333" d="M116.82,643.637l-0.976-4.37h-0.039c0.045,0.337,0.067,0.647,0.067,0.927v3.443h-0.884v-5.132h1.467
	l0.877,4.033h0.028l0.87-4.033h1.488v5.132h-0.906v-3.478c0-0.29,0.018-0.583,0.049-0.885h-0.028l-0.973,4.362H116.82z"/>
<path fill="#333333" d="M123.422,640.086c0,0.544-0.137,0.962-0.412,1.254c-0.275,0.291-0.672,0.437-1.192,0.437h-0.238v1.86h-0.955
	v-5.132h1.303C122.924,638.505,123.422,639.032,123.422,640.086 M121.579,640.949h0.183c0.234,0,0.409-0.064,0.523-0.194
	c0.115-0.129,0.172-0.339,0.172-0.632c0-0.27-0.053-0.469-0.158-0.6c-0.106-0.129-0.268-0.193-0.489-0.193h-0.231V640.949z"/>
<path fill="#333333" d="M126.353,643.637l-0.294-1.294h-1.337l-0.295,1.294h-0.954l1.271-5.152h1.295l1.274,5.152H126.353z
	 M125.88,641.497l-0.274-1.194c-0.017-0.073-0.054-0.255-0.11-0.547c-0.058-0.29-0.092-0.484-0.104-0.584
	c-0.031,0.201-0.069,0.423-0.116,0.666c-0.046,0.242-0.168,0.794-0.365,1.659H125.88z"/>
<path fill="#333333" d="M129.467,639.267c-0.274,0-0.49,0.161-0.648,0.481c-0.158,0.319-0.237,0.765-0.237,1.338
	c0,1.188,0.31,1.782,0.93,1.782c0.271,0,0.556-0.088,0.853-0.258v0.847c-0.25,0.167-0.571,0.25-0.961,0.25
	c-0.579,0-1.023-0.229-1.333-0.689s-0.465-1.106-0.465-1.939c0-0.832,0.16-1.481,0.479-1.949c0.319-0.466,0.763-0.697,1.332-0.697
	c0.187,0,0.367,0.025,0.539,0.077c0.172,0.053,0.356,0.141,0.553,0.27l-0.316,0.777c-0.105-0.074-0.217-0.139-0.337-0.199
	C129.738,639.297,129.607,639.267,129.467,639.267"/>
<polygon fill="#333333" points="132.668,643.637 131.717,643.637 131.717,639.345 130.734,639.345 130.734,638.505 133.651,638.505 
	133.651,639.345 132.668,639.345 "/>
<path fill="#333333" d="M137.635,641.064c0,0.85-0.159,1.502-0.477,1.959c-0.319,0.457-0.773,0.684-1.366,0.684
	c-0.594,0-1.05-0.227-1.369-0.683c-0.318-0.455-0.477-1.11-0.477-1.968c0-0.849,0.159-1.5,0.477-1.953
	c0.319-0.452,0.777-0.679,1.376-0.679c0.592,0,1.046,0.227,1.362,0.682C137.477,639.562,137.635,640.215,137.635,641.064
	 M134.922,641.064c0,0.585,0.073,1.031,0.221,1.337c0.147,0.307,0.364,0.46,0.649,0.46c0.576,0,0.864-0.6,0.864-1.797
	c0-1.198-0.285-1.798-0.856-1.798c-0.29,0-0.509,0.153-0.656,0.458C134.995,640.03,134.922,640.478,134.922,641.064"/>
<path fill="#333333" d="M140.72,642.222c0,0.48-0.121,0.848-0.363,1.103c-0.242,0.256-0.591,0.383-1.047,0.383
	c-0.447,0-0.828-0.087-1.141-0.263V642.5c0.383,0.25,0.736,0.376,1.056,0.376c0.183,0,0.321-0.051,0.413-0.151
	c0.092-0.101,0.138-0.237,0.138-0.411c0-0.171-0.055-0.327-0.165-0.469c-0.109-0.142-0.292-0.298-0.544-0.471
	c-0.22-0.153-0.387-0.298-0.5-0.438c-0.113-0.141-0.201-0.296-0.263-0.47c-0.062-0.172-0.093-0.374-0.093-0.604
	c0-0.438,0.122-0.788,0.367-1.045c0.245-0.257,0.573-0.387,0.984-0.387c0.393,0,0.771,0.11,1.134,0.33l-0.315,0.765
	c-0.113-0.065-0.23-0.124-0.354-0.175c-0.122-0.052-0.254-0.077-0.395-0.077c-0.154,0-0.273,0.05-0.356,0.152
	c-0.084,0.102-0.125,0.239-0.125,0.416c0,0.174,0.05,0.323,0.149,0.453c0.099,0.128,0.273,0.274,0.522,0.438
	c0.334,0.225,0.567,0.453,0.7,0.688C140.654,641.655,140.72,641.923,140.72,642.222"/>
<path fill="#333333" d="M145.557,643.637l-0.295-1.294h-1.337l-0.295,1.294h-0.955l1.271-5.152h1.295l1.274,5.152H145.557z
	 M145.083,641.497l-0.273-1.194c-0.017-0.073-0.054-0.255-0.111-0.547c-0.057-0.29-0.092-0.484-0.104-0.584
	c-0.03,0.201-0.069,0.423-0.115,0.666c-0.047,0.242-0.168,0.794-0.365,1.659H145.083z"/>
<path fill="#333333" d="M148.801,643.637l-0.976-4.37h-0.039c0.045,0.337,0.067,0.647,0.067,0.927v3.443h-0.885v-5.132h1.468
	l0.878,4.033h0.028l0.871-4.033h1.488v5.132h-0.906v-3.478c0-0.29,0.017-0.583,0.049-0.885h-0.028l-0.972,4.362H148.801z"/>
<path fill="#333333" d="M152.605,638.505h1.31c0.533,0,0.922,0.104,1.166,0.311c0.242,0.208,0.365,0.536,0.365,0.987
	c0,0.299-0.064,0.547-0.193,0.748c-0.129,0.199-0.304,0.32-0.527,0.362v0.036c0.291,0.072,0.5,0.208,0.628,0.406
	c0.129,0.198,0.193,0.464,0.193,0.793c0,0.466-0.125,0.831-0.374,1.094c-0.249,0.264-0.59,0.395-1.023,0.395h-1.545V638.505z
	 M153.504,640.569h0.439c0.202,0,0.344-0.054,0.425-0.161c0.083-0.108,0.123-0.268,0.123-0.482c0-0.212-0.047-0.364-0.141-0.458
	c-0.093-0.091-0.241-0.138-0.442-0.138h-0.404V640.569z M153.504,641.366v1.436h0.481c0.199,0,0.347-0.06,0.444-0.183
	c0.097-0.122,0.146-0.311,0.146-0.565c0-0.459-0.202-0.688-0.604-0.688H153.504z"/>
<rect x="156.421" y="638.505" fill="#333333" width="0.899" height="5.132"/>
<polygon fill="#333333" points="160.718,643.637 158.405,643.637 158.405,638.505 160.718,638.505 160.718,639.33 159.359,639.33 
	159.359,640.552 160.619,640.552 160.619,641.38 159.359,641.38 159.359,642.802 160.718,642.802 "/>
<path fill="#333333" d="M165.06,643.637h-1.166l-1.587-3.717h-0.045c0.059,0.282,0.088,0.586,0.088,0.913v2.804h-0.886v-5.132h1.173
	l1.573,3.679h0.039c-0.045-0.246-0.067-0.537-0.067-0.877v-2.802h0.878V643.637z"/>
<polygon fill="#333333" points="167.541,643.637 166.59,643.637 166.59,639.345 165.607,639.345 165.607,638.505 168.524,638.505 
	168.524,639.345 167.541,639.345 "/>
<path fill="#333333" d="M171.255,643.637l-0.295-1.294h-1.337l-0.295,1.294h-0.955l1.271-5.152h1.295l1.274,5.152H171.255z
	 M170.781,641.497l-0.274-1.194c-0.017-0.073-0.054-0.255-0.11-0.547c-0.057-0.29-0.092-0.484-0.104-0.584
	c-0.031,0.201-0.069,0.423-0.116,0.666c-0.046,0.242-0.168,0.794-0.365,1.659H170.781z"/>
<rect x="172.838" y="638.505" fill="#333333" width="0.899" height="5.132"/>
<path fill="#333333" d="M177.159,642.222c0,0.48-0.122,0.848-0.363,1.103c-0.243,0.256-0.592,0.383-1.049,0.383
	c-0.446,0-0.828-0.087-1.141-0.263V642.5c0.384,0.25,0.736,0.376,1.057,0.376c0.183,0,0.32-0.051,0.413-0.151
	s0.139-0.237,0.139-0.411c0-0.171-0.055-0.327-0.166-0.469c-0.109-0.142-0.291-0.298-0.544-0.471
	c-0.221-0.153-0.387-0.298-0.5-0.438c-0.113-0.141-0.2-0.296-0.263-0.47c-0.063-0.172-0.094-0.374-0.094-0.604
	c0-0.438,0.122-0.788,0.368-1.045c0.245-0.257,0.572-0.387,0.985-0.387c0.392,0,0.771,0.11,1.133,0.33l-0.316,0.765
	c-0.112-0.065-0.23-0.124-0.353-0.175c-0.123-0.052-0.254-0.077-0.395-0.077c-0.154,0-0.272,0.05-0.356,0.152
	c-0.083,0.102-0.124,0.239-0.124,0.416c0,0.174,0.05,0.323,0.148,0.453c0.1,0.128,0.273,0.274,0.522,0.438
	c0.333,0.225,0.567,0.453,0.7,0.688C177.094,641.655,177.159,641.923,177.159,642.222"/>
<polygon fill="#333333" points="81.328,654.828 79.757,652.167 84.998,649.069 86.571,651.729 85.728,652.228 84.804,650.665 
	83.557,651.403 84.414,652.852 83.568,653.353 82.711,651.903 81.259,652.762 82.183,654.322 "/>
<path fill="#333333" d="M83.604,658.218l3.436-4.096l-0.031-0.041c-0.289,0.282-0.568,0.521-0.838,0.717l-3.31,2.395l-0.692-0.957
	l4.932-3.569l1.15,1.589l-3.19,3.753l0.022,0.031l4.559-1.863l1.165,1.61l-4.932,3.569l-0.709-0.979l3.344-2.42
	c0.277-0.199,0.572-0.388,0.888-0.562l-0.021-0.029l-4.955,1.981L83.604,658.218z"/>
<path fill="#333333" d="M91.188,667.226l0.834-1.35l-1.238-1.286l-1.38,0.782l-0.885-0.919l5.581-3.017l1.199,1.245l-3.222,5.466
	L91.188,667.226z M92.579,665.009l0.767-1.245c0.046-0.075,0.168-0.261,0.363-0.556c0.197-0.296,0.332-0.489,0.404-0.581
	c-0.2,0.137-0.426,0.281-0.676,0.436c-0.25,0.153-0.835,0.493-1.755,1.013L92.579,665.009z"/>
<path fill="#333333" d="M94.386,671.669c-0.198,0.221-0.437,0.323-0.718,0.306c-0.281-0.019-0.596-0.183-0.943-0.493
	c-0.171-0.151-0.304-0.31-0.4-0.473l0.426-0.48c0.112,0.164,0.237,0.306,0.376,0.433c0.206,0.181,0.37,0.205,0.492,0.068
	c0.155-0.175,0.072-0.45-0.245-0.833l0.714-0.243l0.605,0.539l-0.34,0.12c0.126,0.178,0.199,0.36,0.215,0.544
	C94.586,671.342,94.524,671.514,94.386,671.669 M98.091,666.575c-0.272-0.244-0.615-0.294-1.026-0.149
	c-0.41,0.144-0.841,0.469-1.291,0.975c-0.938,1.051-1.098,1.854-0.481,2.404c0.271,0.241,0.623,0.418,1.056,0.528l-0.67,0.752
	c-0.381-0.075-0.766-0.287-1.156-0.633c-0.576-0.515-0.838-1.113-0.784-1.796c0.053-0.683,0.409-1.393,1.067-2.131
	c0.657-0.737,1.329-1.17,2.015-1.3c0.686-0.128,1.312,0.062,1.879,0.565c0.187,0.167,0.345,0.349,0.476,0.547
	c0.13,0.199,0.244,0.443,0.338,0.731l-0.927,0.406c-0.048-0.157-0.108-0.315-0.18-0.475S98.23,666.701,98.091,666.575"/>
<path fill="#333333" d="M102.272,672.61c-0.608,0.803-1.245,1.293-1.912,1.467c-0.665,0.176-1.313,0.024-1.943-0.454
	c-0.633-0.478-0.956-1.061-0.969-1.749c-0.013-0.686,0.287-1.436,0.901-2.245c0.608-0.803,1.244-1.292,1.908-1.463
	s1.313-0.016,1.952,0.468c0.63,0.478,0.95,1.06,0.96,1.744C103.18,671.062,102.88,671.807,102.272,672.61 M99.384,670.422
	c-0.42,0.554-0.661,1.034-0.723,1.443c-0.062,0.408,0.058,0.729,0.362,0.959c0.614,0.464,1.348,0.13,2.207-1.004
	c0.858-1.133,0.983-1.929,0.375-2.39c-0.309-0.235-0.651-0.267-1.026-0.096C100.202,669.504,99.803,669.867,99.384,670.422
	 M102.26,667.624c-0.077-0.059-0.159-0.079-0.244-0.062c-0.086,0.017-0.192,0.084-0.321,0.202l-0.527-0.398
	c0.285-0.317,0.56-0.505,0.827-0.56c0.268-0.056,0.518,0.004,0.748,0.18c0.107,0.081,0.191,0.173,0.249,0.274
	c0.059,0.102,0.108,0.203,0.149,0.304c0.042,0.101,0.083,0.196,0.125,0.285s0.101,0.163,0.175,0.219
	c0.084,0.064,0.167,0.082,0.25,0.055c0.081-0.029,0.183-0.094,0.305-0.197l0.528,0.399c-0.283,0.314-0.559,0.5-0.83,0.554
	c-0.27,0.055-0.52-0.003-0.746-0.175c-0.11-0.084-0.194-0.176-0.252-0.277c-0.059-0.102-0.107-0.203-0.147-0.304
	c-0.038-0.102-0.078-0.196-0.117-0.282C102.393,667.752,102.335,667.681,102.26,667.624"/>
<polygon fill="#333333" points="104.341,677.575 101.739,675.909 105.022,670.782 107.624,672.447 107.097,673.271 105.569,672.295 
	104.787,673.515 106.204,674.421 105.674,675.249 104.258,674.34 103.347,675.762 104.874,676.741 "/>
<path fill="#333333" d="M109.189,678.381c-0.276,0.497-0.628,0.802-1.057,0.91c-0.43,0.108-0.912,0.017-1.445-0.279
	c-0.521-0.288-0.917-0.625-1.183-1.009l0.542-0.981c0.305,0.508,0.645,0.865,1.02,1.071c0.213,0.119,0.403,0.155,0.569,0.109
	c0.166-0.044,0.298-0.156,0.397-0.336c0.097-0.178,0.123-0.375,0.075-0.594c-0.047-0.216-0.169-0.498-0.365-0.841
	c-0.17-0.301-0.281-0.559-0.334-0.777c-0.053-0.217-0.066-0.437-0.04-0.656c0.027-0.22,0.106-0.45,0.238-0.688
	c0.252-0.456,0.595-0.74,1.029-0.849c0.433-0.11,0.891-0.032,1.372,0.234c0.46,0.253,0.838,0.611,1.137,1.075l-0.809,0.591
	c-0.093-0.143-0.197-0.278-0.312-0.411s-0.253-0.244-0.417-0.335c-0.18-0.1-0.349-0.124-0.504-0.071s-0.283,0.169-0.384,0.353
	c-0.1,0.179-0.128,0.367-0.086,0.565c0.042,0.197,0.162,0.461,0.358,0.792c0.262,0.45,0.404,0.838,0.424,1.166
	C109.436,677.75,109.36,678.069,109.189,678.381"/>
<path fill="#333333" d="M117.397,680.474c-0.38,0.931-0.885,1.554-1.513,1.872c-0.627,0.316-1.342,0.312-2.143-0.017l-1.553-0.635
	l2.304-5.635l1.697,0.694c0.738,0.303,1.213,0.779,1.425,1.431C117.827,678.838,117.755,679.601,117.397,680.474 M116.174,680.01
	c0.516-1.26,0.383-2.049-0.399-2.368l-0.473-0.192l-1.558,3.812l0.382,0.155c0.431,0.177,0.814,0.146,1.15-0.089
	C115.611,681.09,115.911,680.652,116.174,680.01"/>
<polygon fill="#333333" points="120.65,684.802 117.71,683.854 119.576,678.06 122.516,679.007 122.216,679.938 120.49,679.382 
	120.046,680.762 121.648,681.278 121.346,682.213 119.745,681.697 119.227,683.303 120.954,683.858 "/>
<path fill="#333333" d="M127.337,686.405l-0.365-5.334l-0.051-0.008c-0.013,0.402-0.047,0.77-0.108,1.097l-0.722,4.021l-1.163-0.209
	l1.078-5.991l1.929,0.346l0.307,4.918l0.037,0.006l1.992-4.503l1.956,0.354l-1.078,5.989l-1.19-0.214l0.73-4.062
	c0.06-0.337,0.145-0.676,0.251-1.02l-0.037-0.008l-2.194,4.864L127.337,686.405z"/>
<path fill="#333333" d="M137.956,684.583c-0.074,1.005-0.342,1.761-0.805,2.27c-0.464,0.509-1.09,0.735-1.879,0.677
	c-0.792-0.059-1.379-0.372-1.764-0.941c-0.384-0.569-0.539-1.361-0.465-2.375c0.074-1.005,0.342-1.759,0.804-2.265
	c0.464-0.503,1.095-0.728,1.893-0.669c0.789,0.059,1.375,0.373,1.755,0.94C137.876,682.79,138.03,683.577,137.956,684.583
	 M134.342,684.317c-0.051,0.69,0.008,1.226,0.179,1.604c0.169,0.376,0.445,0.578,0.825,0.607c0.767,0.056,1.202-0.624,1.306-2.043
	c0.104-1.417-0.224-2.153-0.984-2.209c-0.386-0.028-0.691,0.129-0.915,0.478C134.53,683.102,134.392,683.621,134.342,684.317"/>
<path fill="#333333" d="M139.242,681.572l1.748-0.027c0.713-0.012,1.234,0.103,1.563,0.343c0.329,0.239,0.498,0.629,0.506,1.165
	c0.005,0.352-0.075,0.648-0.244,0.889c-0.168,0.239-0.4,0.387-0.696,0.442l0.001,0.04c0.388,0.082,0.67,0.237,0.846,0.47
	c0.176,0.233,0.267,0.547,0.273,0.938c0.009,0.553-0.15,0.986-0.479,1.306c-0.328,0.317-0.782,0.48-1.358,0.489l-2.063,0.035
	L139.242,681.572z M140.481,684.001l0.586-0.009c0.269-0.005,0.458-0.07,0.564-0.201c0.107-0.129,0.159-0.32,0.154-0.573
	c-0.003-0.253-0.069-0.433-0.195-0.54c-0.127-0.106-0.325-0.159-0.594-0.154l-0.54,0.008L140.481,684.001z M140.496,684.946
	l0.027,1.703l0.642-0.008c0.266-0.005,0.462-0.082,0.59-0.229s0.188-0.371,0.184-0.674c-0.009-0.544-0.282-0.812-0.82-0.804
	L140.496,684.946z"/>
<rect x="142.247" y="683.816" transform="matrix(0.0721 0.9974 -0.9974 0.0721 817.453 490.1622)" fill="#333333" width="6.089" height="1.2"/>
<polygon fill="#333333" points="148.04,687.237 147.267,681.197 148.533,681.036 149.18,686.091 150.933,685.867 151.058,686.851 
	"/>
<rect x="149.579" y="682.877" transform="matrix(0.182 0.9833 -0.9833 0.182 796.9069 409.0071)" fill="#333333" width="6.09" height="1.199"/>
<path fill="#333333" d="M159.169,681.899c0.25,0.972,0.216,1.774-0.099,2.404c-0.315,0.629-0.892,1.05-1.73,1.267l-1.626,0.414
	l-1.509-5.898l1.776-0.454c0.772-0.197,1.438-0.098,1.997,0.301C158.538,680.328,158.936,680.984,159.169,681.899 M157.91,682.256
	c-0.337-1.319-0.914-1.873-1.732-1.665l-0.494,0.127l1.02,3.99l0.399-0.102c0.452-0.116,0.741-0.368,0.872-0.759
	C158.103,683.458,158.082,682.928,157.91,682.256"/>
<path fill="#333333" d="M164.524,683.367l-0.878-1.324l-1.687,0.587l0.132,1.58l-1.204,0.42l-0.406-6.331l1.634-0.568l3.616,5.214
	L164.524,683.367z M163.091,681.174l-0.811-1.217c-0.049-0.075-0.167-0.262-0.353-0.563c-0.186-0.301-0.306-0.504-0.357-0.608
	c0.039,0.238,0.076,0.502,0.113,0.796c0.034,0.292,0.097,0.964,0.185,2.019L163.091,681.174z"/>
<path fill="#333333" d="M169.561,677.873c0.41,0.919,0.512,1.715,0.307,2.388c-0.204,0.673-0.702,1.186-1.493,1.538l-1.533,0.683
	l-2.478-5.56l1.675-0.746c0.728-0.324,1.401-0.338,2.019-0.041C168.676,676.433,169.177,677.012,169.561,677.873 M168.38,678.437
	c-0.553-1.242-1.215-1.692-1.986-1.349l-0.467,0.209l1.677,3.761l0.376-0.169c0.426-0.188,0.669-0.486,0.73-0.892
	C168.773,679.59,168.663,679.07,168.38,678.437"/>
<polygon fill="#333333" points="174.942,678.512 172.224,679.981 169.329,674.625 172.046,673.156 172.511,674.017 170.916,674.88 
	171.605,676.154 173.085,675.354 173.552,676.219 172.073,677.019 172.875,678.502 174.471,677.641 "/>
<path fill="#333333" d="M178.615,668.835l2.264,3.224c0.416,0.594,0.583,1.151,0.5,1.676c-0.082,0.524-0.409,0.986-0.979,1.388
	c-0.558,0.393-1.091,0.535-1.6,0.429c-0.511-0.104-0.978-0.462-1.403-1.068l-2.255-3.21l1.036-0.728l2.302,3.279
	c0.445,0.633,0.904,0.785,1.378,0.452c0.22-0.154,0.333-0.354,0.34-0.601c0.007-0.246-0.094-0.519-0.302-0.814l-2.317-3.299
	L178.615,668.835z"/>
<path fill="#333333" d="M182.986,670.086l1.515,1.822l-0.98,0.815l-3.893-4.681l1.283-1.067c0.542-0.451,1.039-0.67,1.488-0.657
	c0.448,0.014,0.868,0.256,1.258,0.726c0.491,0.591,0.61,1.191,0.356,1.8l2.719,1.209l-1.049,0.873l-2.348-1.13L182.986,670.086z
	 M182.363,669.337l0.251-0.209c0.231-0.191,0.349-0.389,0.354-0.589c0.004-0.2-0.09-0.416-0.282-0.645
	c-0.199-0.241-0.394-0.366-0.585-0.378c-0.19-0.012-0.398,0.074-0.621,0.26l-0.245,0.203L182.363,669.337z"/>
<path fill="#333333" d="M183.364,664.872l1.254-1.219c0.512-0.496,0.969-0.771,1.373-0.819c0.404-0.051,0.793,0.115,1.167,0.5
	c0.246,0.253,0.39,0.524,0.432,0.813c0.042,0.291-0.027,0.558-0.205,0.8l0.029,0.03c0.337-0.207,0.651-0.288,0.938-0.238
	c0.289,0.05,0.568,0.216,0.84,0.496c0.385,0.397,0.567,0.821,0.546,1.278c-0.021,0.455-0.24,0.884-0.654,1.288l-1.479,1.438
	L183.364,664.872z M185.93,665.791l0.42-0.407c0.193-0.188,0.285-0.365,0.273-0.532c-0.01-0.169-0.104-0.344-0.279-0.523
	c-0.176-0.182-0.346-0.268-0.513-0.26c-0.166,0.008-0.345,0.107-0.539,0.293l-0.386,0.375L185.93,665.791z M186.589,666.471
	l1.186,1.222l0.461-0.447c0.191-0.187,0.283-0.375,0.274-0.57c-0.007-0.194-0.117-0.398-0.328-0.616
	c-0.378-0.39-0.761-0.396-1.146-0.023L186.589,666.471z"/>
<path fill="#333333" d="M193.611,662.954l-1.416-0.719l-1.177,1.343l0.895,1.311l-0.84,0.958l-3.477-5.308l1.141-1.301l5.718,2.752
	L193.611,662.954z M191.284,661.754l-1.306-0.66c-0.08-0.04-0.273-0.146-0.583-0.315c-0.311-0.17-0.514-0.287-0.613-0.353
	c0.154,0.188,0.316,0.4,0.492,0.636c0.175,0.238,0.56,0.792,1.157,1.665L191.284,661.754z"/>
<path fill="#333333" d="M198.051,657.154l-0.919,1.256l-4.811-0.893l-0.036,0.049c0.318,0.136,0.632,0.316,0.943,0.544l2.686,1.964
	l-0.697,0.956l-4.914-3.596l0.923-1.265l4.763,0.881l0.031-0.042c-0.27-0.122-0.568-0.304-0.894-0.542l-2.682-1.961l0.692-0.946
	L198.051,657.154z"/>
<path fill="#333333" d="M200.721,652.848l-1.52-0.456l-0.922,1.528l1.112,1.131l-0.659,1.093l-4.357-4.612l0.895-1.479l6.112,1.701
	L200.721,652.848z M198.22,652.077l-1.401-0.418c-0.085-0.026-0.295-0.095-0.631-0.207c-0.334-0.114-0.557-0.194-0.666-0.242
	c0.184,0.159,0.382,0.34,0.597,0.542c0.213,0.201,0.691,0.68,1.432,1.434L198.22,652.077z"/>
<rect x="130.639" y="660.536" fill="#333333" width="19.116" height="0.898"/>
<rect x="132.507" y="650.772" fill="#333333" width="2.696" height="9.241"/>
<rect x="136.79" y="655.393" fill="#333333" width="2.696" height="4.621"/>
<rect x="141.071" y="652.673" fill="#333333" width="2.696" height="7.341"/>
<rect x="145.356" y="650.772" fill="#333333" width="2.696" height="9.241"/>
<path fill="#333333" d="M127.405,656.768c0,0.423-0.343,0.766-0.767,0.766c-0.423,0-0.766-0.343-0.766-0.766
	s0.343-0.767,0.766-0.767C127.061,656.001,127.405,656.345,127.405,656.768"/>
<path fill="#333333" d="M154.997,656.768c0,0.423-0.344,0.766-0.767,0.766c-0.424,0-0.767-0.343-0.767-0.766
	s0.343-0.767,0.767-0.767C154.654,656.001,154.997,656.345,154.997,656.768"/>
<path fill="#333333" d="M117.341,567.99l0.643,0.104c0.082,0.074,0.186,0.111,0.297,0.111c0.249,0.002,0.451-0.194,0.463-0.436
	l1.182-1.316c-0.113,0.271-0.176,0.569-0.178,0.877c0.001,1.281,1.044,2.323,2.324,2.328c1.281-0.002,2.324-1.043,2.324-2.324
	c0-1.283-1.042-2.326-2.321-2.327c-0.21,0-0.416,0.032-0.63,0.093l-0.297-1.193l0.507,0.002c0.032,0,0.325-0.014,0.532-0.128
	c0.268-0.147,0.43-0.436,0.43-0.784h0.001c-0.003-0.101-0.02-0.179-0.056-0.237c-0.048-0.076-0.123-0.119-0.207-0.119
	c-0.168,0-0.333,0.178-0.334,0.357c-0.003,0.188-0.065,0.23-0.123,0.263c-0.075,0.045-0.192,0.056-0.273,0.052l-1.133,0.002
	l0.024,0.163l-0.031,0.007l0.12,0.523l-3.179-0.003l-0.229-0.748c0.184-0.006,0.344,0,0.365,0.001
	c0.069,0.007,0.173-0.011,0.248-0.077c0.056-0.054,0.089-0.126,0.088-0.206c0-0.176-0.166-0.273-0.316-0.301
	c-0.034-0.006-0.813-0.113-1.202-0.132c-0.161-0.008-0.288,0.032-0.377,0.115c-0.139,0.134-0.146,0.387-0.039,0.563
	c0.144,0.229,0.367,0.173,0.623,0.109l0.009-0.004l0.282,0.927l-0.703,1.018c-0.334-0.173-0.696-0.263-1.062-0.263
	c-0.619-0.003-1.203,0.238-1.641,0.679c-0.44,0.438-0.682,1.021-0.681,1.645c-0.001,1.279,1.042,2.323,2.321,2.322
	C116.155,569.651,117.05,568.979,117.341,567.99 M113.386,567.33c0.003-0.953,0.776-1.729,1.727-1.729
	c0.25,0.002,0.492,0.057,0.723,0.165l-0.765,1.106c-0.233,0.023-0.417,0.22-0.417,0.461c0,0.253,0.206,0.458,0.458,0.458
	c0.111,0,0.215-0.038,0.298-0.112l1.333,0.214c-0.238,0.695-0.887,1.166-1.631,1.169
	C114.161,569.059,113.386,568.282,113.386,567.33 M115.136,567.028v0.002V567.028z M116.846,567.308l-1.218-0.195l0.696-1.007
	C116.651,566.428,116.837,566.858,116.846,567.308 M117.438,567.404c0-0.023,0.002-0.051,0.001-0.074
	c0.001-0.658-0.278-1.274-0.774-1.719l0.435-0.632l0.76,2.492L117.438,567.404z M118.415,567.252l-0.807-2.649h3.135l0.009,0.043
	L118.415,567.252z M123.803,567.333c-0.002,0.952-0.777,1.73-1.731,1.729c-0.951-0.002-1.727-0.777-1.729-1.729
	c0.003-0.544,0.267-1.057,0.705-1.382l0.044,0.196l0.559,1.004c-0.132,0.294,0.106,0.646,0.423,0.646
	c0.252,0,0.459-0.208,0.459-0.464c0-0.212-0.148-0.394-0.348-0.445l-0.53-0.938l-0.069-0.272c0.165-0.049,0.327-0.072,0.487-0.074
	C123.026,565.605,123.802,566.383,123.803,567.333"/>
<path fill="#333333" d="M183.605,579.906c0,0-0.076-0.024-0.199-0.049l-0.274-2.378c0-0.249-0.2-0.448-0.447-0.448l-5.952,0.002
	c-0.249-0.002-0.451,0.197-0.451,0.446l-0.274,2.389c-0.127,0.022-0.201,0.036-0.201,0.036c-0.29-0.001-0.524,0.233-0.524,0.525
	v1.977c-0.001,0.29,0.235,0.53,0.527,0.528h0.417l0,0.461c0,0.291,0.236,0.527,0.526,0.527l0.397-0.001
	c0.291,0.001,0.526-0.236,0.526-0.526v-0.461l3.952,0.002l0.002,0.459c-0.002,0.29,0.235,0.526,0.526,0.527l0.395-0.001
	c0.291,0.001,0.526-0.235,0.526-0.526l0-0.461h0.526c0.292,0,0.527-0.238,0.527-0.528v-1.977
	C184.13,580.138,183.896,579.906,183.605,579.906 M177.116,582.1c-0.372,0-0.67-0.301-0.669-0.67c0-0.371,0.297-0.672,0.667-0.673
	c0.371,0.001,0.671,0.303,0.671,0.673C177.784,581.799,177.485,582.1,177.116,582.1 M180.753,581.823
	c0,0.042-0.071,0.076-0.157,0.076h-1.837c-0.086,0-0.16-0.031-0.158-0.078l-0.002-0.097c0-0.044,0.074-0.077,0.16-0.08l1.837,0.003
	c0.086-0.003,0.157,0.033,0.157,0.077V581.823z M180.753,581.285c0,0.043-0.071,0.079-0.16,0.078l-1.835,0.001
	c-0.086-0.001-0.16-0.036-0.157-0.079v-0.096c0-0.046,0.069-0.08,0.157-0.08l1.837-0.002c0.086,0,0.157,0.037,0.157,0.082V581.285z
	 M177.28,579.479c-0.323,0.001-0.587-0.213-0.587-0.475l0.134-1.065c-0.001-0.261,0.262-0.472,0.587-0.472h4.659
	c0.325,0,0.586,0.211,0.585,0.472l0.134,1.065c0,0.262-0.265,0.475-0.588,0.475H177.28z M182.355,582.1
	c-0.37,0-0.668-0.301-0.668-0.67c-0.002-0.37,0.298-0.672,0.667-0.673c0.37,0.001,0.669,0.303,0.67,0.673
	C183.025,581.799,182.724,582.1,182.355,582.1"/>
<path fill="#333333" d="M142.594,557.671c0,0.612-0.497,1.107-1.104,1.107c-0.609,0-1.104-0.495-1.106-1.107
	c0.002-0.609,0.496-1.104,1.106-1.104C142.097,556.567,142.594,557.062,142.594,557.671"/>
<path fill="#333333" d="M140.321,562.913c-0.08,0.404-0.438,0.67-0.801,0.596c-0.363-0.073-0.59-0.459-0.51-0.687l0.79-3.238
	c0.08-0.576,0.438-0.843,0.8-0.769c0.363,0.074,0.592,0.457,0.509,0.859L140.321,562.913z"/>
<path fill="#333333" d="M141.723,561.669c0.055,0.192-0.06,0.392-0.25,0.447c-0.193,0.055-0.392-0.059-0.446-0.25l-0.626-2.209
	c-0.058-0.192,0.055-0.392,0.248-0.447c0.193-0.054,0.394,0.056,0.448,0.249L141.723,561.669z"/>
<path fill="#333333" d="M142.315,566.806c0.121,0.188,0.039,0.456-0.185,0.593c-0.223,0.141-0.498,0.1-0.614-0.091l-2.468-4.172
	c-0.119-0.19-0.037-0.455,0.186-0.593c0.223-0.14,0.497-0.099,0.616,0.092L142.315,566.806z"/>
<path fill="#333333" d="M139.71,565.651c-0.027,0.222-0.265,0.376-0.531,0.347c-0.267-0.03-0.463-0.233-0.437-0.458l0.253-1.773
	l0.824,1.355L139.71,565.651z"/>
<path fill="#333333" d="M137.731,567.868c-0.156,0.159-0.431,0.146-0.617-0.034c-0.183-0.177-0.205-0.453-0.05-0.615l1.792-1.839
	c0.16-0.161,0.435-0.145,0.619,0.034c0.185,0.179,0.207,0.454,0.05,0.613L137.731,567.868z"/>
<path fill="#333333" d="M143.586,563.035c0.157,0.121,0.184,0.353,0.061,0.508c-0.125,0.157-0.353,0.183-0.508,0.06l-1.804-1.423
	c-0.156-0.125-0.184-0.354-0.059-0.51c0.123-0.156,0.35-0.184,0.508-0.057L143.586,563.035z"/>
<path fill="#333333" d="M138.451,560.557c-0.176,0.094-0.396,0.021-0.487-0.156c-0.089-0.178-0.02-0.398,0.159-0.486l2.049-1.038
	c0.179-0.092,0.398-0.021,0.485,0.158c0.093,0.178,0.021,0.397-0.157,0.487L138.451,560.557z"/>
<path fill="#333333" d="M137.909,562.549c-0.062,0.188-0.267,0.293-0.456,0.229c-0.193-0.062-0.294-0.267-0.232-0.455l0.718-2.182
	c0.064-0.192,0.267-0.294,0.457-0.231s0.294,0.267,0.233,0.457L137.909,562.549z"/>
<path fill="#333333" d="M106.423,573.682c0,0-2.117-0.396-4.229-0.396c-2.115,0-4.227,0.396-4.227,0.396
	c-0.293,0-0.525,0.236-0.527,0.527v9.882c0.002,0.292,0.233,0.527,0.527,0.527h0.416v0.726c0.002,0.29,0.237,0.526,0.529,0.526
	h0.398c0.287,0,0.522-0.236,0.522-0.526l0.002-0.726h4.612v0.727c0,0.289,0.237,0.525,0.526,0.525h0.395
	c0.292,0,0.527-0.236,0.527-0.526l0.002-0.726h0.526c0.292,0,0.525-0.235,0.527-0.527v-9.88
	C106.948,573.918,106.715,573.682,106.423,573.682 M98.965,574.677c0-0.184,0.188-0.337,0.418-0.337h5.56
	c0.232,0,0.419,0.152,0.419,0.337v0.161c0,0.187-0.188,0.339-0.419,0.339l-5.558-0.003c-0.232,0-0.42-0.149-0.42-0.336V574.677z
	 M99.272,583.124c-0.37,0.002-0.67-0.299-0.67-0.669c0-0.367,0.3-0.669,0.67-0.671c0.371,0,0.667,0.304,0.667,0.674
	C99.941,582.825,99.645,583.124,99.272,583.124 M103.573,582.85c-0.002,0.04-0.075,0.076-0.163,0.076h-2.494
	c-0.087,0.003-0.159-0.036-0.159-0.076l0.001-0.099c0-0.043,0.07-0.078,0.158-0.078h2.497c0.087,0,0.157,0.034,0.159,0.077
	L103.573,582.85z M103.569,582.311c0,0.045-0.072,0.078-0.157,0.078l-2.497,0.003c-0.087-0.003-0.159-0.036-0.159-0.081v-0.098
	c0-0.041,0.072-0.077,0.159-0.076l2.497-0.001c0.085,0,0.159,0.036,0.159,0.077L103.569,582.311z M105.171,583.124
	c-0.37,0-0.67-0.299-0.668-0.67c-0.001-0.369,0.3-0.668,0.667-0.668c0.372-0.002,0.671,0.302,0.671,0.669
	C105.841,582.825,105.542,583.124,105.171,583.124 M105.897,580.01c0,0.288-0.293,0.522-0.654,0.522l-6.206,0.002
	c-0.36,0-0.652-0.236-0.652-0.526l-0.002-3.295c0.002-0.291,0.293-0.526,0.655-0.526l6.206-0.002
	c0.36,0.002,0.654,0.237,0.654,0.527V580.01z"/>
<path fill="#333333" d="M168.541,567.526c-0.735,0-1.333,0.598-1.333,1.335c0,0.736,0.599,1.334,1.333,1.334
	c0.736,0,1.335-0.598,1.335-1.334C169.876,568.124,169.278,567.526,168.541,567.526 M168.541,566.614
	c1.242,0,2.249,1.004,2.249,2.247c0,1.242-1.007,2.249-2.249,2.249s-2.248-1.007-2.248-2.249
	C166.293,567.618,167.3,566.614,168.541,566.614"/>
<path fill="#333333" d="M157.993,567.526c-0.735,0-1.333,0.598-1.333,1.335c0,0.736,0.598,1.334,1.333,1.334
	c0.737,0,1.335-0.598,1.335-1.334C159.328,568.124,158.73,567.526,157.993,567.526 M157.993,566.614c1.242,0,2.25,1.004,2.25,2.247
	c0,1.242-1.008,2.249-2.25,2.249c-1.241,0-2.248-1.007-2.248-2.249C155.745,567.618,156.752,566.614,157.993,566.614"/>
<path fill="#333333" d="M157.993,569.188c0.119,0,0.232-0.064,0.291-0.176l2.348-4.504c0.084-0.16,0.021-0.356-0.139-0.44
	c-0.16-0.083-0.357-0.021-0.44,0.138l-2.349,4.504c-0.084,0.159-0.021,0.358,0.137,0.442
	C157.892,569.175,157.943,569.188,157.993,569.188"/>
<path fill="#333333" d="M160.473,564.183c0.047,0,0.092-0.024,0.115-0.07l0.469-0.897l0.902,0.349
	c0.067,0.028,0.144-0.007,0.168-0.073c0.026-0.066-0.007-0.144-0.074-0.17l-1.12-0.432l-0.576,1.104
	c-0.034,0.063-0.007,0.142,0.055,0.175C160.432,564.178,160.454,564.183,160.473,564.183"/>
<path fill="#333333" d="M164.463,567.012c-2.326,0-4.251-0.522-4.251-0.522l0.943,3.308h3.308l0.547-0.413h4.226
	c0,0,0.261-0.124,0.261-0.522c0-0.399-0.261-0.655-0.261-0.655l-3.756,0.459C165.48,568.665,167.436,567.012,164.463,567.012"/>
<path fill="#333333" d="M164.727,566.576c-0.806,0-2.851-0.262-2.851-0.262s-1.136,0-1.136-0.74c0-1.827,2.093-0.419,3.594-0.088
	C165.992,565.855,165.359,566.576,164.727,566.576"/>
<path fill="#333333" d="M166.081,566.452c0.018,0,0.038-0.002,0.057-0.006l1.994-0.354c0.021-0.005,0.042-0.011,0.062-0.017
	l1.239-0.489c0.167-0.066,0.25-0.257,0.184-0.424c-0.067-0.167-0.256-0.25-0.423-0.185l-1.21,0.477l-1.959,0.348
	c-0.177,0.033-0.297,0.201-0.265,0.379C165.789,566.339,165.926,566.452,166.081,566.452"/>
<path fill="#333333" d="M158.586,563.791c0.511,0,1.059-0.009,1.059,0.653c0,0.666-1.059,0.585-1.059,0.585s-0.073-0.26-0.073-0.619
	C158.513,563.791,158.586,563.791,158.586,563.791"/>
<rect x="72.141" y="590.042" fill="#333333" width="136.586" height="3.595"/>
<rect x="72.175" y="639.372" fill="#333333" width="26.88" height="3.595"/>
<rect x="180.825" y="639.372" fill="#333333" width="27.935" height="3.595"/>
<path fill="#333333" d="M199.253,592.114c-8.249-25.558-31.849-42.729-58.727-42.729c-26.877,0-50.476,17.171-58.725,42.729
	l-1.711-0.553c8.489-26.302,32.776-43.974,60.436-43.974c27.661,0,51.949,17.672,60.438,43.974L199.253,592.114z"/>
<path fill="#333333" d="M84.733,591.983l-0.85-0.292c8.279-24.148,31.005-40.374,56.547-40.374h0.001
	c25.466,0,48.168,16.157,56.492,40.207l-0.849,0.293c-8.2-23.688-30.562-39.601-55.643-39.601
	C115.272,552.215,92.889,568.196,84.733,591.983"/>
</svg>
