<?xml version="1.0" encoding="utf-8"?>
<!-- Generator: Adobe Illustrator 16.0.0, SVG Export Plug-In . SVG Version: 6.00 Build 0)  -->
<!DOCTYPE svg PUBLIC "-//W3C//DTD SVG 1.1//EN" "http://www.w3.org/Graphics/SVG/1.1/DTD/svg11.dtd">
<svg version="1.1" id="Layer_1" xmlns="http://www.w3.org/2000/svg" xmlns:xlink="http://www.w3.org/1999/xlink" x="0px" y="0px"
	 width="260px" height="90px" viewBox="-55 30 260 90" enable-background="new -55 30 260 90" xml:space="preserve">
<path fill="#F48020" d="M-6.168,74.627c-13.505-4.25-18.896-11.61-18.896-17.332c0-7.567,6.064-13.231,14.245-13.231
	c5.3,0,12.588,1.244,17.065,4.284c-5.523-4.372-13.812-6.798-20.3-6.798c-8.644,0-16.136,6.725-16.136,15.023
	c0,8.295,10.243,18.312,22.282,20.499l17.447,0.543C3.393,77.053-1.808,76.002-6.168,74.627L-6.168,74.627z"/>
<path fill="#788C39" d="M-2.405,72.029c13.427,0.763,23.77-2.412,25.3-8.588c2.044-8.236-12.354-18.688-32.15-23.348
	c-0.1-0.024-0.198-0.042-0.296-0.067c0.817,0.148,1.637,0.305,2.463,0.478C12.82,44.7,27.41,55.076,25.5,63.677
	c-1.523,6.853-13.057,10.512-27.749,9.595L-2.405,72.029L-2.405,72.029z"/>
<path fill="#D0E7C5" d="M2.54,61.921c0,2.865,2.785,4.859,6.191,4.859c3.405,0,9.889-2.119,9.889-6.731
	c0-4.61-10.347-12.588-23.809-12.588c-13.46,0-13.584,8.6-13.584,11.092c0,2.494,5.609,19.196,29.54,19.196
	c14.459,0,23.525-6.762,23.525-14.148c0-14.022-28.604-32.064-57.21-32.064c-19.538,0-28.98,8.881-28.98,8.881
	s10.078-7.472,28.789-7.472c21.875,0,50.203,12.614,50.203,29.534c0,8.788-12.888,10.283-18.362,10.283
	c-5.475,0-19.31-5.329-19.31-13.182c0-6.17,5.89-6.731,9.254-6.731c4.02,0,11.032,3.179,12.246,5.424
	C6.997,57.524,2.54,58.274,2.54,61.921L2.54,61.921z"/>
<path fill="#788C39" d="M-36.576,46.645c4.134-9.588,20.014-12.13,36.698-6.393c-1.095-0.575-2.225-1.121-3.395-1.625
	c-15.88-6.845-32.294-4.184-36.657,5.942c-3.975,9.226,3.423,21.466,16.781,28.745C-34.263,65.265-40.031,54.662-36.576,46.645
	L-36.576,46.645z"/>
<g>
	<path fill="#34421B" d="M-43.613,89.619c0,1.709-0.433,3.052-1.296,4.029c-0.864,0.98-2.073,1.47-3.626,1.47
		c-1.573,0-2.788-0.481-3.646-1.442c-0.859-0.962-1.289-2.318-1.289-4.071c0-1.738,0.429-3.085,1.282-4.043
		c0.854-0.956,2.078-1.433,3.67-1.433c1.547,0,2.753,0.484,3.614,1.455C-44.042,86.556-43.612,87.901-43.613,89.619L-43.613,89.619z
		 M-52.054,89.619c0,1.412,0.299,2.488,0.898,3.228c0.599,0.741,1.473,1.11,2.622,1.11c1.143,0,2.014-0.365,2.607-1.096
		c0.594-0.73,0.891-1.81,0.891-3.242c0-1.427-0.294-2.502-0.884-3.224c-0.589-0.724-1.455-1.084-2.6-1.084
		c-1.159,0-2.037,0.366-2.637,1.099C-51.754,87.142-52.053,88.212-52.054,89.619L-52.054,89.619z M-37.639,86.821
		c1.056,0,1.872,0.364,2.446,1.092s0.862,1.744,0.862,3.05c0,1.323-0.293,2.347-0.877,3.07c-0.584,0.723-1.395,1.085-2.431,1.085
		c-0.541,0-1.022-0.098-1.446-0.293c-0.423-0.194-0.769-0.483-1.036-0.868h-0.103c-0.151,0.583-0.241,0.923-0.27,1.015h-0.942
		V83.608h1.314v2.762c0,0.549-0.024,1.099-0.074,1.648h0.074C-39.582,87.221-38.754,86.822-37.639,86.821L-37.639,86.821z
		 M-37.858,87.91c-0.808,0-1.388,0.229-1.738,0.687c-0.351,0.457-0.526,1.231-0.526,2.323v0.058c0,1.096,0.179,1.878,0.537,2.348
		c0.358,0.471,0.943,0.706,1.756,0.706c0.721,0,1.257-0.265,1.61-0.793c0.354-0.528,0.531-1.291,0.531-2.29
		c0-1.012-0.178-1.771-0.534-2.277C-36.579,88.164-37.123,87.911-37.858,87.91L-37.858,87.91z M-27.014,92.759
		c0,0.75-0.281,1.331-0.84,1.741c-0.561,0.412-1.346,0.618-2.359,0.618c-1.055,0-1.896-0.168-2.52-0.505v-1.198
		c0.882,0.429,1.732,0.644,2.549,0.644c0.662,0,1.144-0.108,1.447-0.321c0.301-0.215,0.451-0.501,0.451-0.862
		c0-0.316-0.144-0.585-0.433-0.803c-0.29-0.221-0.805-0.471-1.545-0.753c-0.754-0.292-1.284-0.542-1.591-0.749
		c-0.307-0.206-0.533-0.439-0.677-0.698c-0.144-0.257-0.215-0.571-0.215-0.941c0-0.657,0.267-1.177,0.804-1.557
		c0.535-0.379,1.271-0.569,2.206-0.569c0.91,0,1.762,0.18,2.555,0.54l-0.445,1.045c-0.812-0.342-1.545-0.511-2.198-0.511
		c-0.546,0-0.958,0.086-1.241,0.26c-0.283,0.173-0.423,0.409-0.423,0.71c0,0.294,0.122,0.535,0.366,0.726
		c0.243,0.194,0.81,0.46,1.701,0.802c0.667,0.247,1.16,0.478,1.479,0.693c0.317,0.216,0.553,0.456,0.704,0.724
		c0.151,0.269,0.227,0.589,0.227,0.964L-27.014,92.759z M-21.663,95.118c-1.202,0-2.146-0.365-2.829-1.093
		c-0.683-0.726-1.026-1.729-1.026-3.005c0-1.284,0.319-2.309,0.958-3.07c0.637-0.762,1.498-1.143,2.585-1.143
		c1.006,0,1.811,0.324,2.408,0.975c0.6,0.649,0.899,1.529,0.899,2.64v0.797h-5.492c0.024,0.911,0.256,1.602,0.695,2.074
		c0.437,0.472,1.058,0.706,1.861,0.706c0.428,0,0.835-0.036,1.219-0.111c0.384-0.076,0.835-0.223,1.351-0.442v1.155
		c-0.441,0.188-0.858,0.322-1.247,0.4c-0.391,0.078-0.85,0.117-1.381,0.117H-21.663z M-21.99,87.88c-0.628,0-1.125,0.204-1.49,0.607
		c-0.366,0.404-0.582,0.966-0.65,1.688h4.082c-0.011-0.751-0.183-1.319-0.518-1.709c-0.337-0.39-0.812-0.584-1.424-0.584
		L-21.99,87.88z M-12.899,86.808c0.355,0,0.669,0.029,0.942,0.089l-0.16,1.211c-0.298-0.067-0.587-0.104-0.87-0.104
		c-0.423,0-0.817,0.117-1.18,0.351c-0.362,0.234-0.646,0.556-0.851,0.968c-0.205,0.412-0.307,0.869-0.307,1.37v4.278h-1.314v-8.018
		h1.082l0.146,1.467h0.058c0.306-0.53,0.669-0.931,1.088-1.204s0.874-0.41,1.366-0.41V86.808z M-8.693,94.972l-3.037-8.018h1.409
		l1.701,4.725c0.336,0.949,0.551,1.657,0.643,2.124h0.059c0.015-0.063,0.033-0.134,0.055-0.217c0.022-0.08,0.048-0.167,0.077-0.263
		c0.029-0.095,0.209-0.644,0.541-1.646l1.709-4.726h1.402L-7.18,94.97h-1.513V94.972z M2.086,94.972L1.83,93.833H1.771
		c-0.399,0.501-0.798,0.84-1.193,1.018c-0.398,0.178-0.898,0.268-1.501,0.268c-0.788,0-1.407-0.207-1.855-0.621
		s-0.671-1-0.671-1.754c0-1.625,1.283-2.478,3.848-2.556l1.359-0.051v-0.475c0-0.608-0.132-1.058-0.395-1.348
		c-0.262-0.289-0.684-0.435-1.262-0.435c-0.424,0-0.824,0.063-1.202,0.189c-0.377,0.126-0.731,0.268-1.062,0.425l-0.401-0.985
		c0.404-0.216,0.844-0.383,1.322-0.505c0.476-0.121,0.949-0.182,1.416-0.182c0.969,0,1.688,0.215,2.162,0.643
		c0.471,0.429,0.708,1.111,0.708,2.045v5.462H2.086z M-0.625,94.06c0.736,0,1.313-0.199,1.735-0.596
		c0.42-0.396,0.632-0.961,0.632-1.69v-0.722l-1.183,0.049c-0.92,0.034-1.59,0.181-2.012,0.439c-0.421,0.258-0.63,0.665-0.63,1.22
		c0,0.418,0.128,0.739,0.382,0.963C-1.445,93.947-1.087,94.06-0.625,94.06L-0.625,94.06z M8.205,94.045
		c0.171,0,0.371-0.018,0.598-0.053c0.231-0.032,0.403-0.071,0.521-0.115v1.008c-0.122,0.054-0.311,0.107-0.567,0.157
		C8.5,95.093,8.24,95.119,7.978,95.119c-1.567,0-2.35-0.826-2.35-2.476v-4.669H4.495v-0.628l1.147-0.525l0.525-1.708h0.78v1.839
		h2.315v1.022H6.948v4.63c0,0.464,0.112,0.818,0.333,1.066C7.502,93.919,7.809,94.044,8.205,94.045L8.205,94.045z M17.888,90.948
		c0,1.309-0.331,2.331-0.994,3.066c-0.661,0.735-1.577,1.104-2.745,1.104c-0.725,0-1.367-0.171-1.927-0.509
		c-0.561-0.338-0.992-0.823-1.293-1.457c-0.301-0.633-0.453-1.367-0.453-2.205c0-1.305,0.327-2.321,0.979-3.048
		c0.653-0.728,1.567-1.093,2.746-1.093c1.13,0,2.026,0.371,2.69,1.114C17.556,88.664,17.888,89.671,17.888,90.948z M11.834,90.948
		c0,1.008,0.199,1.772,0.595,2.297c0.397,0.522,0.982,0.785,1.757,0.785c0.764,0,1.345-0.263,1.746-0.785
		c0.397-0.524,0.598-1.288,0.598-2.297c0-1.008-0.201-1.766-0.603-2.274c-0.401-0.509-0.99-0.764-1.764-0.764
		C12.609,87.91,11.834,88.923,11.834,90.948L11.834,90.948z M13.134,85.727c0.186-0.234,0.421-0.566,0.705-0.996
		c0.285-0.433,0.524-0.837,0.719-1.217h1.585v0.152c-0.215,0.312-0.548,0.705-1,1.177c-0.453,0.473-0.833,0.827-1.138,1.067h-0.872
		L13.134,85.727L13.134,85.727z M23.708,86.808c0.356,0,0.67,0.029,0.941,0.089l-0.16,1.211c-0.297-0.067-0.586-0.104-0.868-0.104
		c-0.424,0-0.818,0.117-1.181,0.351c-0.363,0.234-0.646,0.556-0.851,0.968c-0.205,0.412-0.307,0.869-0.307,1.37v4.278h-1.314v-8.018
		h1.081l0.146,1.467h0.058c0.307-0.53,0.67-0.931,1.088-1.204c0.42-0.273,0.875-0.41,1.366-0.41L23.708,86.808z M26.046,84.784
		c0-0.291,0.072-0.503,0.222-0.635c0.148-0.131,0.332-0.197,0.552-0.197c0.204,0,0.383,0.066,0.536,0.197
		c0.153,0.132,0.229,0.344,0.229,0.635c0,0.288-0.076,0.5-0.229,0.636c-0.153,0.137-0.332,0.204-0.536,0.204
		c-0.22,0-0.402-0.066-0.552-0.204C26.119,85.284,26.046,85.072,26.046,84.784z M27.461,94.972h-1.313v-8.018h1.313V94.972
		L27.461,94.972z M36.969,90.948c0,1.309-0.33,2.331-0.992,3.066c-0.663,0.735-1.577,1.104-2.746,1.104
		c-0.726,0-1.367-0.171-1.927-0.509c-0.561-0.338-0.992-0.823-1.293-1.457c-0.302-0.633-0.453-1.367-0.453-2.205
		c0-1.305,0.326-2.321,0.978-3.048c0.654-0.728,1.568-1.093,2.747-1.093c1.13,0,2.026,0.371,2.691,1.114
		c0.665,0.742,0.997,1.749,0.997,3.026H36.969z M30.915,90.948c0,1.008,0.198,1.772,0.597,2.297
		c0.396,0.522,0.981,0.785,1.755,0.785c0.767,0,1.348-0.263,1.747-0.785c0.398-0.524,0.598-1.288,0.598-2.297
		c0-1.008-0.2-1.766-0.603-2.274c-0.4-0.509-0.989-0.764-1.764-0.764C31.691,87.91,30.916,88.923,30.915,90.948L30.915,90.948z"/>
</g>
<g>
	<path fill="#34421B" d="M-48.232,117.354c-1.085,0-1.928-0.376-2.527-1.126c-0.598-0.751-0.898-1.814-0.898-3.189
		c0-1.365,0.3-2.43,0.903-3.196c0.6-0.767,1.447-1.149,2.538-1.149c1.122,0,1.984,0.409,2.588,1.232h0.1
		c-0.015-0.102-0.037-0.307-0.061-0.613c-0.026-0.307-0.039-0.514-0.039-0.619v-3.336h1.37v11.843h-1.105l-0.205-1.118h-0.06
		C-46.212,116.93-47.08,117.353-48.232,117.354L-48.232,117.354z M-48.011,116.219c0.832,0,1.439-0.227,1.823-0.681
		c0.382-0.455,0.574-1.199,0.574-2.233v-0.252c0-1.161-0.195-1.99-0.583-2.485c-0.387-0.494-0.998-0.741-1.831-0.741
		c-0.705,0-1.25,0.279-1.636,0.841c-0.386,0.562-0.578,1.359-0.578,2.401c0,1.034,0.191,1.818,0.575,2.352
		C-49.283,115.951-48.731,116.219-48.011,116.219L-48.011,116.219z M-34.341,113.007c0,1.365-0.345,2.432-1.035,3.197
		c-0.69,0.766-1.644,1.149-2.862,1.149c-0.756,0-1.427-0.175-2.01-0.528c-0.584-0.354-1.032-0.859-1.348-1.52
		c-0.314-0.66-0.471-1.425-0.471-2.299c0-1.359,0.34-2.42,1.02-3.178c0.681-0.759,1.634-1.137,2.862-1.137
		c1.179,0,2.113,0.387,2.806,1.16C-34.687,110.626-34.341,111.678-34.341,113.007L-34.341,113.007z M-40.651,113.007
		c0,1.052,0.207,1.849,0.622,2.395s1.024,0.818,1.829,0.818c0.797,0,1.404-0.272,1.82-0.818s0.624-1.343,0.624-2.395
		c0-1.049-0.209-1.84-0.628-2.37c-0.419-0.529-1.03-0.796-1.838-0.796C-39.842,109.841-40.651,110.896-40.651,113.007z"/>
</g>
<g>
	<path fill="#34421B" d="M-20.668,103.493c-1.363,0-2.419,0.514-3.167,1.538c-0.749,1.024-1.122,2.451-1.122,4.282
		c0,3.811,1.429,5.715,4.289,5.715c1.199,0,2.652-0.301,4.359-0.9v3.038c-1.402,0.584-2.969,0.876-4.698,0.876
		c-2.485,0-4.386-0.753-5.703-2.262c-1.317-1.508-1.976-3.67-1.976-6.491c0-1.775,0.323-3.333,0.969-4.668
		c0.647-1.336,1.577-2.359,2.789-3.075c1.212-0.714,2.631-1.068,4.26-1.068c1.66,0,3.327,0.4,5.002,1.203l-1.169,2.945
		c-0.639-0.304-1.283-0.569-1.929-0.796c-0.646-0.225-1.282-0.34-1.905-0.34V103.493z M-9.391,117.81h-3.565V99.626h3.565V117.81z
		 M-5.802,101.368c0-1.162,0.646-1.743,1.94-1.743s1.94,0.581,1.94,1.741c0,0.553-0.162,0.983-0.485,1.292
		c-0.323,0.306-0.808,0.461-1.455,0.461C-5.155,103.119-5.802,102.535-5.802,101.368L-5.802,101.368z M-2.086,117.81H-5.65v-13.065
		h3.564V117.81z M13.352,117.81H9.787v-7.631c0-0.942-0.158-1.649-0.473-2.122c-0.316-0.47-0.812-0.706-1.49-0.706
		c-0.912,0-1.575,0.334-1.987,1.004c-0.413,0.671-0.619,1.771-0.619,3.308v6.147H1.654v-13.065h2.722l0.48,1.67h0.198
		c0.35-0.601,0.856-1.068,1.52-1.407c0.662-0.34,1.421-0.509,2.278-0.509c1.955,0,3.281,0.639,3.974,1.916h0.317
		c0.351-0.607,0.866-1.078,1.547-1.414c0.683-0.334,1.452-0.501,2.31-0.501c1.48,0,2.601,0.379,3.36,1.139
		c0.758,0.761,1.14,1.979,1.14,3.652v8.52h-3.576v-7.631c0-0.942-0.159-1.649-0.473-2.122c-0.316-0.47-0.813-0.706-1.491-0.706
		c-0.872,0-1.524,0.311-1.957,0.934c-0.434,0.624-0.649,1.613-0.649,2.97v6.556H13.352z M33.454,117.81l-0.689-1.775h-0.093
		c-0.601,0.756-1.218,1.28-1.854,1.573c-0.635,0.291-1.462,0.438-2.481,0.438c-1.257,0-2.244-0.358-2.963-1.075
		c-0.722-0.718-1.082-1.738-1.082-3.062c0-1.387,0.485-2.408,1.456-3.067c0.97-0.659,2.433-1.022,4.388-1.092l2.27-0.071v-0.572
		c0-1.324-0.679-1.987-2.034-1.987c-1.045,0-2.273,0.317-3.684,0.948l-1.18-2.407c1.504-0.787,3.17-1.182,5.002-1.182
		c1.753,0,3.098,0.382,4.032,1.146c0.935,0.764,1.402,1.922,1.402,3.481v8.707h-2.489L33.454,117.81z M32.402,111.756l-1.379,0.047
		c-1.037,0.031-1.809,0.217-2.314,0.561c-0.507,0.344-0.761,0.866-0.761,1.566c0,1.007,0.577,1.509,1.73,1.509
		c0.826,0,1.486-0.238,1.981-0.713c0.494-0.478,0.742-1.106,0.742-1.895V111.756L32.402,111.756z"/>
</g>
</svg>
