<?xml version="1.0" encoding="utf-8"?>
<!-- Generator: Adobe Illustrator 16.0.0, SVG Export Plug-In . SVG Version: 6.00 Build 0)  -->
<!DOCTYPE svg PUBLIC "-//W3C//DTD SVG 1.1//EN" "http://www.w3.org/Graphics/SVG/1.1/DTD/svg11.dtd">
<svg version="1.1" id="Camada_1" xmlns="http://www.w3.org/2000/svg" xmlns:xlink="http://www.w3.org/1999/xlink" x="0px" y="0px"
	 width="260px" height="90px" viewBox="-30 -22.266 260 90" enable-background="new -30 -22.266 260 90" xml:space="preserve">
<g>
	<path fill="#247678" d="M-24.823,35.475l2.317-2.257h1.223l-2.646,2.257H-24.823z M-24.586,46.798V36.354h1.3v10.444H-24.586z"/>
	<path fill="#247678" d="M-20.892,46.798v-7.562h1.168v1.093c0.296-0.351,0.687-0.652,1.173-0.905
		c0.487-0.25,0.992-0.378,1.517-0.378c1.606,0,2.409,0.816,2.409,2.449v5.306h-1.168v-4.947c0-0.632-0.147-1.083-0.437-1.354
		c-0.29-0.27-0.708-0.403-1.253-0.403c-0.438,0-0.863,0.113-1.272,0.344c-0.411,0.229-0.734,0.508-0.968,0.834v5.528L-20.892,46.798
		L-20.892,46.798z"/>
	<path fill="#247678" d="M-12.71,43.027c0-1.2,0.313-2.164,0.938-2.891c0.624-0.727,1.435-1.091,2.435-1.091
		c0.505,0,0.979,0.117,1.419,0.352c0.44,0.234,0.817,0.561,1.129,0.98v-4.023h1.169v10.444h-1.167v-1.116
		c-0.296,0.396-0.667,0.712-1.109,0.949c-0.443,0.24-0.923,0.356-1.438,0.356c-0.999,0-1.811-0.356-2.435-1.072
		C-12.397,45.201-12.71,44.237-12.71,43.027z M-10.832,40.917c-0.435,0.548-0.653,1.251-0.653,2.108s0.219,1.557,0.653,2.103
		c0.436,0.543,1.025,0.813,1.771,0.813c0.458,0,0.899-0.113,1.319-0.339c0.421-0.228,0.738-0.51,0.952-0.846v-3.438
		c-0.22-0.341-0.54-0.629-0.959-0.868c-0.421-0.239-0.858-0.355-1.312-0.355C-9.807,40.094-10.396,40.368-10.832,40.917z"/>
	<path fill="#247678" d="M-3.24,37.929c-0.155-0.153-0.233-0.341-0.233-0.56s0.078-0.405,0.233-0.562
		c0.157-0.154,0.338-0.233,0.547-0.233c0.219,0,0.408,0.077,0.567,0.233c0.157,0.157,0.238,0.344,0.238,0.562
		s-0.081,0.406-0.238,0.56c-0.159,0.152-0.348,0.229-0.567,0.229C-2.902,38.158-3.083,38.082-3.24,37.929z M-3.266,46.798v-7.562
		h1.169v7.562H-3.266z"/>
	<path fill="#247678" d="M-0.191,43.009c0-0.743,0.157-1.417,0.471-2.018c0.314-0.599,0.758-1.074,1.334-1.423
		c0.577-0.351,1.234-0.525,1.973-0.525c1.168,0,2.091,0.44,2.769,1.316l-0.781,0.721c-0.484-0.657-1.127-0.986-1.927-0.986
		c-0.796,0-1.429,0.273-1.904,0.816c-0.474,0.549-0.712,1.247-0.712,2.099c0,0.854,0.238,1.555,0.712,2.105s1.108,0.826,1.904,0.826
		c0.791,0,1.432-0.328,1.927-0.987l0.781,0.728c-0.678,0.872-1.601,1.308-2.769,1.308c-0.739,0-1.396-0.174-1.973-0.521
		c-0.576-0.351-1.02-0.827-1.334-1.43C-0.034,44.432-0.191,43.758-0.191,43.009z"/>
	<path fill="#247678" d="M7.556,43.007c0-0.725,0.159-1.389,0.475-1.992c0.317-0.604,0.761-1.083,1.331-1.439
		c0.569-0.353,1.206-0.529,1.913-0.529c0.747,0,1.399,0.184,1.957,0.544c0.558,0.36,0.979,0.846,1.262,1.456
		c0.283,0.61,0.426,1.296,0.426,2.061v0.297H8.778c0.046,0.741,0.316,1.361,0.809,1.861c0.493,0.502,1.133,0.753,1.918,0.753
		c0.438,0,0.865-0.082,1.28-0.251c0.414-0.167,0.768-0.404,1.064-0.705l0.562,0.766c-0.775,0.776-1.781,1.161-3.013,1.161
		c-1.125,0-2.045-0.367-2.764-1.108C7.916,45.14,7.556,44.184,7.556,43.007z M8.779,42.54h4.971
		c-0.005-0.296-0.057-0.584-0.158-0.87c-0.099-0.287-0.246-0.554-0.44-0.807c-0.194-0.253-0.456-0.457-0.782-0.614
		c-0.326-0.154-0.697-0.232-1.109-0.232c-0.388,0-0.741,0.078-1.058,0.229c-0.317,0.153-0.574,0.352-0.77,0.6
		s-0.352,0.518-0.463,0.807C8.858,41.945,8.794,42.239,8.779,42.54z"/>
	<path fill="#247678" d="M20.41,43.027c0-1.2,0.312-2.164,0.938-2.891c0.623-0.727,1.436-1.091,2.435-1.091
		c0.504,0,0.978,0.117,1.419,0.352c0.44,0.234,0.815,0.561,1.127,0.98v-4.023h1.169v10.444h-1.169v-1.116
		c-0.296,0.396-0.666,0.712-1.108,0.949c-0.444,0.24-0.923,0.356-1.438,0.356c-1,0-1.811-0.356-2.435-1.072
		C20.724,45.201,20.41,44.237,20.41,43.027z M22.289,40.917c-0.436,0.548-0.653,1.251-0.653,2.108s0.217,1.557,0.653,2.103
		c0.435,0.543,1.025,0.813,1.77,0.813c0.458,0,0.899-0.113,1.319-0.339c0.422-0.228,0.738-0.51,0.952-0.846v-3.438
		c-0.219-0.341-0.539-0.629-0.961-0.868c-0.421-0.239-0.858-0.355-1.312-0.355C23.314,40.094,22.724,40.368,22.289,40.917z"/>
	<path fill="#247678" d="M29.413,43.007c0-0.725,0.161-1.389,0.477-1.992c0.317-0.604,0.761-1.083,1.329-1.439
		c0.57-0.353,1.207-0.529,1.914-0.529c0.747,0,1.398,0.184,1.956,0.544c0.558,0.36,0.979,0.846,1.263,1.456
		c0.284,0.61,0.427,1.296,0.427,2.061v0.297h-6.142c0.047,0.741,0.316,1.361,0.809,1.861c0.494,0.502,1.133,0.753,1.917,0.753
		c0.441,0,0.867-0.082,1.281-0.251c0.414-0.167,0.769-0.404,1.065-0.705l0.562,0.766c-0.777,0.776-1.78,1.161-3.012,1.161
		c-1.125,0-2.046-0.367-2.764-1.108C29.772,45.14,29.413,44.184,29.413,43.007z M30.634,42.54h4.972
		c-0.006-0.296-0.057-0.584-0.158-0.87c-0.099-0.287-0.246-0.554-0.44-0.807c-0.194-0.253-0.454-0.457-0.782-0.614
		c-0.326-0.154-0.696-0.232-1.111-0.232c-0.388,0-0.74,0.078-1.058,0.229c-0.317,0.153-0.573,0.352-0.769,0.6
		c-0.196,0.248-0.351,0.518-0.464,0.807C30.715,41.945,30.65,42.239,30.634,42.54z"/>
	<path fill="#247678" d="M42.757,46.798V36.354h4.198c1.01,0,1.808,0.302,2.395,0.906c0.586,0.604,0.878,1.352,0.878,2.242
		s-0.294,1.639-0.886,2.243c-0.594,0.605-1.388,0.907-2.388,0.907h-2.898v4.144h-1.298V46.798z M44.057,41.493h2.737
		c0.618,0,1.119-0.184,1.506-0.552c0.387-0.367,0.582-0.847,0.582-1.438c0-0.589-0.195-1.069-0.582-1.436
		c-0.388-0.365-0.89-0.552-1.506-0.552h-2.737V41.493z"/>
	<path fill="#247678" d="M51.903,46.798v-7.562h1.168v1.223c0.326-0.421,0.706-0.759,1.135-1.007
		c0.432-0.251,0.894-0.377,1.391-0.377v1.208c-0.138-0.03-0.297-0.045-0.476-0.045c-0.356,0-0.744,0.126-1.163,0.374
		c-0.417,0.25-0.713,0.528-0.888,0.834v5.352H51.903L51.903,46.798z"/>
	<path fill="#247678" d="M57.073,45.014c-0.301-0.602-0.453-1.268-0.453-2.002c0-0.735,0.15-1.4,0.453-2
		c0.301-0.597,0.738-1.074,1.312-1.43c0.574-0.356,1.234-0.536,1.984-0.536c0.748,0,1.408,0.18,1.981,0.536
		c0.569,0.355,1.002,0.835,1.299,1.43c0.296,0.6,0.444,1.265,0.444,2c0,0.734-0.148,1.402-0.444,2.002
		c-0.297,0.599-0.73,1.079-1.299,1.438c-0.571,0.358-1.231,0.537-1.981,0.537c-0.75,0-1.412-0.181-1.984-0.537
		C57.812,46.093,57.374,45.613,57.073,45.014z M57.844,43.009c0,0.817,0.228,1.509,0.68,2.078c0.455,0.568,1.07,0.852,1.845,0.852
		c0.52,0,0.971-0.137,1.355-0.41c0.386-0.275,0.674-0.631,0.861-1.068c0.19-0.436,0.283-0.92,0.283-1.451
		c0-0.525-0.093-1.004-0.283-1.438c-0.187-0.435-0.475-0.789-0.861-1.064c-0.384-0.275-0.835-0.412-1.355-0.412
		s-0.975,0.137-1.367,0.412c-0.389,0.275-0.679,0.63-0.87,1.067C57.942,42.009,57.844,42.489,57.844,43.009z"/>
	<path fill="#247678" d="M65.579,42.977c0-1.199,0.31-2.153,0.932-2.865c0.623-0.71,1.435-1.066,2.441-1.066
		c0.503,0,0.974,0.116,1.41,0.349s0.811,0.559,1.121,0.983v-1.141h1.171v7.339c0,0.485-0.066,0.917-0.2,1.299
		c-0.131,0.385-0.31,0.698-0.531,0.942c-0.22,0.244-0.488,0.446-0.801,0.608c-0.313,0.161-0.637,0.275-0.978,0.341
		c-0.336,0.065-0.7,0.099-1.086,0.099c-0.672,0-1.243-0.081-1.707-0.244c-0.462-0.163-0.913-0.456-1.348-0.879l0.589-0.88
		c0.306,0.366,0.655,0.63,1.049,0.79c0.391,0.161,0.862,0.242,1.415,0.242c0.325,0,0.628-0.041,0.909-0.127
		c0.279-0.086,0.537-0.213,0.769-0.385c0.232-0.176,0.412-0.411,0.545-0.715c0.132-0.298,0.201-0.647,0.201-1.046v-1.076
		c-0.293,0.402-0.66,0.726-1.1,0.975c-0.445,0.247-0.923,0.369-1.431,0.369c-1.004,0-1.815-0.35-2.438-1.054
		C65.89,45.132,65.579,44.177,65.579,42.977z M66.801,42.983c0,0.849,0.219,1.541,0.656,2.082c0.435,0.537,1.024,0.808,1.767,0.808
		c0.455,0,0.89-0.122,1.31-0.363c0.417-0.242,0.732-0.536,0.947-0.877V41.32c-0.208-0.343-0.523-0.634-0.944-0.871
		c-0.422-0.238-0.86-0.356-1.312-0.356c-0.75,0-1.341,0.268-1.773,0.805C67.018,41.434,66.801,42.129,66.801,42.983z"/>
	<path fill="#247678" d="M75.007,46.798v-7.562h1.169v1.223c0.326-0.421,0.704-0.759,1.135-1.007
		c0.431-0.251,0.894-0.377,1.389-0.377v1.208c-0.138-0.03-0.296-0.045-0.476-0.045c-0.356,0-0.744,0.126-1.163,0.374
		c-0.419,0.25-0.714,0.528-0.886,0.834v5.352H75.007L75.007,46.798z"/>
	<path fill="#247678" d="M79.728,43.007c0-0.725,0.157-1.389,0.476-1.992c0.318-0.604,0.761-1.083,1.33-1.439
		c0.569-0.353,1.206-0.529,1.914-0.529c0.746,0,1.398,0.184,1.956,0.544c0.557,0.36,0.979,0.846,1.263,1.456
		c0.283,0.61,0.425,1.296,0.425,2.061v0.297h-6.139c0.045,0.741,0.313,1.361,0.809,1.861c0.493,0.502,1.132,0.753,1.917,0.753
		c0.44,0,0.865-0.082,1.282-0.251c0.412-0.167,0.766-0.404,1.064-0.705l0.562,0.766c-0.776,0.776-1.781,1.161-3.013,1.161
		c-1.124,0-2.045-0.367-2.764-1.108C80.084,45.14,79.728,44.184,79.728,43.007z M80.949,42.54h4.974
		c-0.008-0.296-0.058-0.584-0.159-0.87c-0.099-0.287-0.244-0.554-0.44-0.807c-0.195-0.253-0.455-0.457-0.781-0.614
		c-0.325-0.154-0.695-0.232-1.11-0.232c-0.387,0-0.741,0.078-1.057,0.229c-0.317,0.153-0.574,0.352-0.769,0.6
		c-0.197,0.248-0.352,0.518-0.464,0.807C81.03,41.945,80.964,42.239,80.949,42.54z"/>
	<path fill="#247678" d="M88.326,45.782l0.605-0.844c0.271,0.304,0.628,0.562,1.077,0.771c0.45,0.205,0.92,0.31,1.416,0.31
		c0.566,0,1.006-0.118,1.321-0.357c0.315-0.238,0.472-0.551,0.472-0.937c0-0.244-0.086-0.448-0.259-0.617
		c-0.172-0.167-0.401-0.291-0.679-0.369c-0.278-0.081-0.582-0.167-0.908-0.259c-0.326-0.093-0.657-0.188-0.994-0.283
		c-0.335-0.095-0.642-0.219-0.916-0.364c-0.277-0.148-0.502-0.355-0.674-0.629c-0.176-0.271-0.262-0.594-0.262-0.968
		c0-0.621,0.253-1.141,0.756-1.561c0.505-0.419,1.191-0.629,2.062-0.629c1.133,0,2.067,0.371,2.803,1.114l-0.542,0.807
		c-0.237-0.283-0.553-0.512-0.955-0.688c-0.399-0.174-0.836-0.262-1.306-0.262c-0.505,0-0.911,0.116-1.217,0.351
		c-0.306,0.235-0.459,0.525-0.459,0.877c0,0.232,0.083,0.425,0.249,0.576c0.169,0.151,0.392,0.266,0.665,0.345
		c0.274,0.077,0.577,0.161,0.906,0.255c0.326,0.091,0.66,0.188,1,0.28c0.339,0.097,0.647,0.221,0.923,0.369
		c0.278,0.149,0.502,0.362,0.679,0.641c0.176,0.275,0.264,0.604,0.264,0.985c0,0.666-0.26,1.213-0.781,1.645
		c-0.521,0.433-1.251,0.648-2.197,0.648C90.092,46.989,89.077,46.586,88.326,45.782z"/>
	<path fill="#247678" d="M95.606,45.782l0.607-0.844c0.268,0.304,0.628,0.562,1.077,0.771c0.447,0.205,0.92,0.31,1.413,0.31
		c0.569,0,1.009-0.118,1.324-0.357c0.313-0.238,0.472-0.551,0.472-0.937c0-0.244-0.086-0.448-0.259-0.617
		c-0.174-0.167-0.401-0.291-0.679-0.369c-0.278-0.081-0.582-0.167-0.908-0.259c-0.326-0.093-0.658-0.188-0.994-0.283
		c-0.336-0.097-0.642-0.219-0.916-0.364c-0.277-0.148-0.501-0.355-0.675-0.629c-0.172-0.271-0.259-0.594-0.259-0.968
		c0-0.621,0.251-1.141,0.756-1.561c0.504-0.417,1.191-0.629,2.062-0.629c1.133,0,2.068,0.371,2.803,1.114l-0.543,0.807
		c-0.233-0.283-0.552-0.512-0.953-0.688c-0.4-0.174-0.837-0.262-1.307-0.262c-0.505,0-0.91,0.116-1.219,0.351
		c-0.307,0.235-0.46,0.525-0.46,0.877c0,0.232,0.086,0.425,0.253,0.576c0.168,0.151,0.389,0.266,0.665,0.345
		c0.273,0.077,0.574,0.161,0.905,0.255c0.328,0.091,0.66,0.188,0.999,0.28c0.339,0.097,0.647,0.221,0.923,0.369
		c0.278,0.149,0.503,0.362,0.68,0.641c0.175,0.275,0.265,0.604,0.265,0.985c0,0.666-0.261,1.213-0.782,1.645
		c-0.519,0.433-1.252,0.648-2.196,0.648C97.374,46.989,96.355,46.586,95.606,45.782z"/>
	<path fill="#247678" d="M103.556,45.014c-0.301-0.602-0.453-1.268-0.453-2.002c0-0.735,0.15-1.4,0.453-2
		c0.299-0.597,0.736-1.074,1.312-1.43c0.574-0.356,1.236-0.536,1.982-0.536c0.751,0,1.411,0.18,1.98,0.536
		c0.569,0.355,1.003,0.835,1.302,1.43c0.296,0.6,0.442,1.265,0.442,2c0,0.734-0.146,1.402-0.442,2.002
		c-0.297,0.599-0.73,1.079-1.302,1.438c-0.569,0.358-1.229,0.537-1.98,0.537c-0.748,0-1.408-0.181-1.982-0.537
		C104.294,46.093,103.856,45.613,103.556,45.014z M104.326,43.009c0,0.817,0.228,1.509,0.681,2.078
		c0.454,0.568,1.069,0.852,1.843,0.852c0.521,0,0.974-0.137,1.358-0.41c0.385-0.275,0.672-0.631,0.861-1.068
		c0.188-0.436,0.282-0.92,0.282-1.451c0-0.525-0.095-1.004-0.282-1.438c-0.189-0.435-0.477-0.789-0.861-1.064
		s-0.837-0.412-1.358-0.412c-0.52,0-0.976,0.137-1.365,0.412s-0.68,0.63-0.869,1.067C104.423,42.009,104.326,42.489,104.326,43.009z
		"/>
	<path fill="#247678" d="M115.96,45.325l0.764-0.985c0.388,0.432,0.859,0.788,1.423,1.067c0.562,0.28,1.183,0.421,1.866,0.421
		c0.443,0,0.832-0.056,1.166-0.167c0.331-0.108,0.591-0.254,0.773-0.439c0.181-0.184,0.311-0.374,0.396-0.574
		c0.085-0.197,0.128-0.403,0.128-0.618c0-0.285-0.069-0.536-0.208-0.754c-0.142-0.215-0.331-0.393-0.569-0.525
		c-0.242-0.137-0.518-0.251-0.831-0.346c-0.313-0.092-0.637-0.19-0.979-0.292c-0.341-0.103-0.683-0.204-1.021-0.307
		c-0.344-0.102-0.669-0.228-0.976-0.378c-0.309-0.149-0.582-0.324-0.823-0.519c-0.241-0.195-0.43-0.447-0.57-0.756
		c-0.139-0.309-0.21-0.66-0.21-1.056c0-0.854,0.341-1.55,1.017-2.089c0.678-0.538,1.536-0.808,2.57-0.808
		c1.55,0,2.786,0.486,3.709,1.461l-0.78,0.955c-0.756-0.836-1.761-1.253-3.021-1.253c-0.632,0-1.148,0.154-1.547,0.463
		c-0.402,0.309-0.602,0.708-0.602,1.198c0,0.249,0.07,0.468,0.21,0.657c0.138,0.188,0.328,0.344,0.567,0.466
		c0.239,0.118,0.512,0.225,0.825,0.314c0.31,0.092,0.639,0.188,0.981,0.289c0.345,0.102,0.685,0.2,1.023,0.3
		c0.342,0.1,0.667,0.231,0.977,0.391c0.309,0.159,0.581,0.347,0.822,0.559c0.242,0.21,0.429,0.479,0.57,0.805
		c0.14,0.323,0.21,0.695,0.21,1.112c0,0.315-0.043,0.619-0.126,0.905c-0.084,0.29-0.224,0.568-0.421,0.833
		c-0.196,0.268-0.44,0.5-0.729,0.692c-0.292,0.192-0.657,0.349-1.099,0.464c-0.44,0.118-0.935,0.177-1.479,0.177
		C118.283,46.989,116.948,46.433,115.96,45.325z"/>
	<path fill="#247678" d="M125.725,45.014c-0.301-0.602-0.451-1.268-0.451-2.002c0-0.735,0.148-1.4,0.451-2
		c0.299-0.597,0.738-1.074,1.312-1.43c0.574-0.356,1.235-0.536,1.982-0.536c0.751,0,1.412,0.18,1.982,0.536
		c0.569,0.355,1.001,0.835,1.3,1.43c0.296,0.6,0.445,1.265,0.445,2c0,0.734-0.149,1.402-0.445,2.002
		c-0.297,0.599-0.729,1.079-1.3,1.438s-1.231,0.537-1.982,0.537c-0.747,0-1.408-0.181-1.982-0.537
		C126.465,46.093,126.025,45.613,125.725,45.014z M126.498,43.009c0,0.817,0.227,1.509,0.68,2.078
		c0.453,0.568,1.067,0.852,1.841,0.852c0.521,0,0.974-0.137,1.359-0.41c0.384-0.275,0.671-0.631,0.86-1.068
		c0.19-0.436,0.282-0.92,0.282-1.451c0-0.525-0.092-1.004-0.282-1.438c-0.189-0.435-0.474-0.789-0.86-1.064
		c-0.386-0.275-0.836-0.412-1.359-0.412c-0.519,0-0.974,0.137-1.362,0.412c-0.391,0.275-0.683,0.63-0.872,1.067
		C126.594,42.009,126.498,42.489,126.498,43.009z"/>
	<path fill="#247678" d="M134.229,43.009c0-0.743,0.157-1.417,0.472-2.018c0.313-0.599,0.759-1.074,1.332-1.423
		c0.577-0.351,1.234-0.525,1.976-0.525c1.166,0,2.089,0.44,2.768,1.316l-0.781,0.721c-0.485-0.657-1.129-0.986-1.926-0.986
		s-1.43,0.273-1.905,0.816c-0.475,0.549-0.713,1.247-0.713,2.099c0,0.854,0.238,1.555,0.713,2.105
		c0.473,0.551,1.105,0.826,1.905,0.826c0.79,0,1.431-0.328,1.926-0.987l0.781,0.728c-0.679,0.872-1.603,1.308-2.768,1.308
		c-0.741,0-1.398-0.174-1.976-0.521c-0.573-0.351-1.019-0.827-1.332-1.43C134.386,44.432,134.229,43.758,134.229,43.009z"/>
	<path fill="#247678" d="M142.447,37.929c-0.157-0.153-0.236-0.341-0.236-0.56s0.079-0.405,0.236-0.562
		c0.154-0.154,0.338-0.233,0.546-0.233c0.219,0,0.406,0.077,0.566,0.233c0.158,0.157,0.237,0.344,0.237,0.562
		s-0.079,0.406-0.237,0.56c-0.159,0.152-0.348,0.229-0.566,0.229C142.785,38.158,142.602,38.082,142.447,37.929z M142.419,46.798
		v-7.562h1.169v7.562H142.419z"/>
	<path fill="#247678" d="M145.509,44.473c0-0.406,0.077-0.777,0.232-1.104c0.154-0.326,0.356-0.588,0.613-0.784
		c0.258-0.197,0.539-0.349,0.85-0.455c0.31-0.104,0.631-0.156,0.962-0.156c1.075,0,1.91,0.347,2.506,1.036v-1.356
		c0-0.491-0.178-0.881-0.534-1.164c-0.355-0.283-0.815-0.428-1.375-0.428c-0.889,0-1.658,0.352-2.318,1.049l-0.556-0.812
		c0.801-0.836,1.812-1.253,3.033-1.253c0.413,0,0.789,0.048,1.131,0.146c0.344,0.096,0.652,0.242,0.925,0.439
		c0.271,0.195,0.483,0.463,0.635,0.8c0.152,0.336,0.229,0.727,0.229,1.168v5.199h-1.17v-0.867c-0.642,0.705-1.477,1.058-2.506,1.058
		c-0.444,0-0.864-0.093-1.256-0.275c-0.396-0.186-0.729-0.472-0.998-0.864C145.645,45.458,145.509,45.001,145.509,44.473z
		 M146.732,44.49c0,0.477,0.175,0.869,0.523,1.174c0.35,0.308,0.797,0.461,1.338,0.461c0.428,0,0.828-0.08,1.196-0.241
		c0.369-0.159,0.663-0.392,0.881-0.694v-1.416c-0.218-0.305-0.512-0.538-0.881-0.697c-0.368-0.159-0.767-0.24-1.196-0.24
		c-0.541,0-0.99,0.155-1.338,0.463C146.907,43.612,146.732,44.008,146.732,44.49z"/>
	<path fill="#247678" d="M154.189,46.798V36.354h1.169v10.444H154.189z"/>
	<path fill="#247678" d="M160.705,46.798l4.198-10.444h1.613l4.212,10.444h-1.482l-0.926-2.318h-5.202l-0.924,2.318H160.705z
		 M163.495,43.32h4.437l-2.211-5.62L163.495,43.32z"/>
	<path fill="#247678" d="M172.047,46.798v-7.562h1.168v1.093c0.19-0.288,0.517-0.575,0.986-0.859
		c0.469-0.283,0.956-0.424,1.462-0.424c0.551,0,0.997,0.13,1.342,0.394c0.345,0.263,0.574,0.604,0.692,1.021
		c0.23-0.372,0.581-0.701,1.055-0.987c0.474-0.285,0.969-0.428,1.483-0.428c0.694,0,1.218,0.19,1.576,0.572
		c0.356,0.385,0.536,0.953,0.536,1.715v5.465h-1.171v-5.137c0-0.495-0.116-0.88-0.348-1.155c-0.232-0.274-0.58-0.412-1.05-0.412
		c-0.373,0-0.749,0.114-1.128,0.344c-0.382,0.231-0.673,0.503-0.878,0.819v5.544h-1.166v-5.14c0-1.045-0.467-1.567-1.399-1.567
		c-0.369,0-0.736,0.116-1.11,0.351c-0.372,0.231-0.665,0.509-0.88,0.829v5.527h-1.171V46.798L172.047,46.798z"/>
	<path fill="#247678" d="M184.267,44.473c0-0.406,0.079-0.777,0.23-1.104c0.154-0.326,0.357-0.588,0.614-0.784
		c0.258-0.197,0.541-0.349,0.85-0.455c0.309-0.104,0.631-0.156,0.965-0.156c1.072,0,1.91,0.347,2.502,1.036v-1.356
		c0-0.491-0.178-0.881-0.534-1.164c-0.354-0.283-0.813-0.428-1.374-0.428c-0.886,0-1.66,0.352-2.317,1.049l-0.558-0.812
		c0.801-0.836,1.812-1.253,3.036-1.253c0.409,0,0.787,0.048,1.131,0.146c0.343,0.096,0.648,0.242,0.922,0.439
		c0.271,0.195,0.482,0.463,0.636,0.8c0.153,0.336,0.229,0.727,0.229,1.168v5.199h-1.17v-0.867c-0.64,0.705-1.476,1.058-2.502,1.058
		c-0.445,0-0.866-0.093-1.261-0.275c-0.395-0.186-0.729-0.472-0.996-0.864C184.4,45.458,184.267,45.001,184.267,44.473z
		 M185.49,44.49c0,0.477,0.175,0.869,0.521,1.174c0.349,0.308,0.796,0.461,1.34,0.461c0.428,0,0.827-0.08,1.196-0.241
		c0.366-0.159,0.662-0.392,0.88-0.694v-1.416c-0.218-0.305-0.513-0.538-0.88-0.697c-0.369-0.159-0.769-0.24-1.196-0.24
		c-0.544,0-0.991,0.155-1.34,0.463C185.665,43.612,185.49,44.008,185.49,44.49z"/>
	<path fill="#247678" d="M192.579,46.798v-0.91l4.171-5.635h-4.171v-1.017h5.704v0.883l-4.198,5.664h4.259v1.015H192.579
		L192.579,46.798z"/>
	<path fill="#247678" d="M200.341,45.014c-0.299-0.602-0.451-1.268-0.451-2.002c0-0.735,0.149-1.4,0.451-2
		c0.3-0.597,0.737-1.074,1.312-1.43c0.575-0.356,1.236-0.536,1.983-0.536c0.75,0,1.409,0.18,1.979,0.536
		c0.571,0.355,1.006,0.835,1.302,1.43c0.296,0.6,0.445,1.265,0.445,2c0,0.734-0.146,1.402-0.445,2.002
		c-0.296,0.599-0.73,1.079-1.302,1.438c-0.569,0.358-1.228,0.537-1.979,0.537c-0.75,0-1.409-0.181-1.983-0.537
		C201.078,46.093,200.644,45.613,200.341,45.014z M201.113,43.009c0,0.817,0.228,1.509,0.682,2.078
		c0.454,0.568,1.065,0.852,1.841,0.852c0.522,0,0.974-0.137,1.357-0.41c0.386-0.275,0.672-0.631,0.861-1.068
		c0.187-0.436,0.283-0.92,0.283-1.451c0-0.525-0.097-1.004-0.283-1.438c-0.189-0.435-0.476-0.789-0.861-1.064
		c-0.384-0.275-0.838-0.412-1.357-0.412s-0.975,0.137-1.364,0.412c-0.392,0.275-0.68,0.63-0.872,1.067
		C201.211,42.009,201.113,42.489,201.113,43.009z M201.563,38.089l1.492-2.256h1.122l1.54,2.256h-0.796l-1.303-1.658l-1.252,1.658
		H201.563z"/>
	<path fill="#247678" d="M209.289,46.798v-7.562h1.167v1.093c0.297-0.351,0.688-0.652,1.175-0.905
		c0.486-0.25,0.994-0.378,1.518-0.378c1.605,0,2.408,0.816,2.408,2.449v5.306h-1.169v-4.947c0-0.632-0.145-1.083-0.435-1.354
		c-0.291-0.27-0.71-0.403-1.254-0.403c-0.44,0-0.864,0.113-1.274,0.344c-0.409,0.229-0.731,0.508-0.969,0.834v5.528L209.289,46.798
		L209.289,46.798z"/>
	<path fill="#247678" d="M217.941,37.929c-0.155-0.153-0.234-0.341-0.234-0.56s0.079-0.405,0.234-0.562
		c0.155-0.156,0.338-0.233,0.547-0.233c0.221,0,0.407,0.077,0.566,0.233c0.154,0.157,0.238,0.344,0.238,0.562
		s-0.081,0.406-0.238,0.56c-0.159,0.152-0.349,0.229-0.566,0.229C218.279,38.158,218.096,38.082,217.941,37.929z M217.912,46.798
		v-7.562h1.171v7.562H217.912z"/>
	<path fill="#247678" d="M221.003,44.473c0-0.406,0.08-0.777,0.231-1.104c0.153-0.326,0.358-0.588,0.614-0.784
		c0.256-0.197,0.539-0.349,0.85-0.455c0.31-0.104,0.63-0.156,0.964-0.156c1.074,0,1.908,0.347,2.503,1.036v-1.356
		c0-0.491-0.177-0.881-0.532-1.164c-0.357-0.283-0.815-0.428-1.374-0.428c-0.888,0-1.659,0.352-2.318,1.049l-0.557-0.812
		c0.802-0.836,1.812-1.253,3.034-1.253c0.412,0,0.789,0.048,1.133,0.146c0.344,0.096,0.649,0.242,0.92,0.439
		c0.271,0.195,0.483,0.463,0.636,0.8c0.153,0.336,0.231,0.727,0.231,1.168v5.199h-1.17v-0.867c-0.642,0.705-1.477,1.058-2.504,1.058
		c-0.446,0-0.867-0.093-1.262-0.275c-0.395-0.186-0.726-0.472-0.996-0.864C221.139,45.46,221.003,45.001,221.003,44.473z
		 M222.226,44.49c0,0.477,0.176,0.869,0.523,1.174c0.349,0.308,0.795,0.461,1.339,0.461c0.428,0,0.825-0.08,1.194-0.241
		c0.371-0.159,0.665-0.392,0.883-0.694v-1.416c-0.218-0.305-0.512-0.538-0.883-0.697c-0.369-0.159-0.765-0.24-1.194-0.24
		c-0.544,0-0.991,0.155-1.339,0.463C222.401,43.612,222.226,44.008,222.226,44.49z"/>
</g>
<g>
	<path fill="#247678" d="M-24.578,27.904V-2.794h6.541v30.698H-24.578z"/>
	<path fill="#247678" d="M-14.731,27.904V-2.794h14.335c1.614,0,3.083,0.263,4.408,0.786c1.323,0.524,2.407,1.236,3.252,2.134
		C8.108,1.024,8.759,2.069,9.214,3.26c0.457,1.191,0.685,2.468,0.685,3.832c0,1.349-0.228,2.617-0.685,3.81
		c-0.456,1.191-1.108,2.24-1.961,3.148c-0.853,0.908-1.936,1.626-3.25,2.158c-1.315,0.532-2.779,0.799-4.395,0.799h-7.802v10.896
		H-14.731z M-8.19,11.251h6.944c1.318,0,2.401-0.382,3.248-1.146c0.845-0.764,1.27-1.769,1.27-3.013c0-1.272-0.425-2.28-1.27-3.021
		C1.155,3.33,0.072,2.96-1.246,2.96H-8.19V11.251z"/>
	<path fill="#247678" d="M9.124,23.53l3.55-4.949c1.181,1.222,2.603,2.216,4.263,2.983c1.66,0.769,3.485,1.151,5.475,1.151
		c1.711,0,3.028-0.332,3.951-0.995c0.923-0.662,1.386-1.465,1.386-2.403c0-0.567-0.201-1.062-0.603-1.487
		c-0.401-0.425-0.94-0.772-1.616-1.04c-0.674-0.268-1.457-0.519-2.341-0.752c-0.884-0.231-1.807-0.474-2.771-0.728
		c-0.965-0.254-1.939-0.51-2.923-0.768c-0.985-0.259-1.92-0.623-2.804-1.093c-0.884-0.471-1.667-1.019-2.348-1.644
		c-0.682-0.625-1.225-1.423-1.628-2.392c-0.405-0.967-0.607-2.063-0.607-3.285c0-2.649,1.056-4.875,3.171-6.674
		c2.113-1.799,4.925-2.699,8.437-2.699c4.92,0,8.917,1.439,11.991,4.32l-3.64,4.785C28.85,4.759,27.462,3.925,25.9,3.358
		c-1.561-0.567-3.151-0.849-4.771-0.849c-1.381,0-2.458,0.276-3.232,0.83c-0.773,0.555-1.16,1.296-1.16,2.225
		c0,0.562,0.259,1.051,0.777,1.473c0.518,0.421,1.195,0.739,2.028,0.954c0.835,0.215,1.781,0.459,2.839,0.732
		c1.06,0.274,2.132,0.552,3.223,0.833c1.088,0.28,2.158,0.666,3.21,1.151c1.052,0.487,1.994,1.048,2.822,1.685
		c0.829,0.638,1.494,1.485,1.994,2.551c0.5,1.063,0.75,2.274,0.75,3.638c0,2.942-1.047,5.325-3.138,7.151
		c-2.092,1.823-5.14,2.735-9.143,2.735C16.667,28.467,12.343,26.821,9.124,23.53z"/>
	<path fill="#247678" d="M41.801,27.904L53.667-2.794h8.202l11.823,30.698h-7.461l-1.889-5.191H51.193l-1.933,5.191H41.801z
		 M52.97,16.962h9.578L57.758,3.746L52.97,16.962z"/>
	<path fill="#247678" d="M73.626,27.904V5.679h5.845v2.898c0.555-0.809,1.521-1.587,2.9-2.338c1.379-0.749,2.838-1.124,4.383-1.124
		c1.585,0,2.896,0.354,3.926,1.057c1.03,0.706,1.753,1.7,2.169,2.988c0.69-1.093,1.738-2.041,3.142-2.842
		c1.403-0.801,2.909-1.203,4.516-1.203c2.068,0,3.668,0.562,4.801,1.686c1.133,1.124,1.697,2.803,1.697,5.035v16.071h-5.843V13.861
		c0-1.095-0.271-1.957-0.809-2.586c-0.542-0.629-1.383-0.944-2.523-0.944c-0.948,0-1.831,0.254-2.651,0.762
		c-0.818,0.512-1.469,1.109-1.948,1.801v15.01h-5.843V13.86c0-2.354-1.1-3.53-3.302-3.53c-0.93,0-1.808,0.259-2.631,0.776
		c-0.823,0.515-1.482,1.127-1.977,1.833v14.966H73.626z"/>
	<path fill="#247678" d="M108.645,21.109c0-1.003,0.152-1.915,0.458-2.738c0.306-0.822,0.718-1.503,1.229-2.042
		c0.517-0.538,1.107-0.989,1.779-1.356c0.671-0.366,1.361-0.632,2.066-0.798c0.711-0.165,1.429-0.246,2.159-0.246
		c1.487,0,2.85,0.235,4.092,0.708c1.236,0.471,2.225,1.14,2.96,2.008v-2.998c0-1.127-0.446-2.033-1.34-2.717
		c-0.893-0.684-2.075-1.025-3.547-1.025c-2.44,0-4.602,0.882-6.488,2.646l-2.186-3.926c2.662-2.337,5.89-3.505,9.688-3.505
		c1.332,0,2.558,0.142,3.666,0.427c1.107,0.284,2.132,0.742,3.069,1.372c0.938,0.629,1.669,1.504,2.193,2.628
		c0.525,1.123,0.788,2.458,0.788,4.001v14.36h-5.844V25.62c-0.766,0.896-1.767,1.598-3.009,2.097
		c-1.238,0.501-2.586,0.751-4.043,0.751c-0.91,0-1.808-0.156-2.695-0.47c-0.886-0.314-1.709-0.762-2.469-1.346
		c-0.76-0.582-1.371-1.357-1.833-2.322C108.876,23.363,108.645,22.29,108.645,21.109z M114.49,21.243
		c0,1.007,0.402,1.803,1.206,2.391c0.802,0.586,1.8,0.879,2.985,0.879c0.977,0,1.89-0.164,2.736-0.496
		c0.85-0.331,1.508-0.811,1.973-1.443v-2.751c-0.465-0.631-1.123-1.112-1.973-1.442c-0.847-0.331-1.762-0.497-2.736-0.497
		c-1.202,0-2.201,0.297-2.998,0.891C114.888,19.369,114.49,20.192,114.49,21.243z"/>
	<path fill="#247678" d="M131.327,27.904v-4.38l10.021-12.742h-10.021V5.68h17.957v4.225l-10.182,12.901h10.361v5.101
		L131.327,27.904L131.327,27.904z"/>
	<path fill="#247678" d="M150.139,16.76c0-2.127,0.46-4.064,1.382-5.812c0.921-1.746,2.284-3.154,4.092-4.226
		c1.806-1.071,3.892-1.606,6.258-1.606c2.383,0,4.478,0.536,6.293,1.606c1.812,1.072,3.179,2.48,4.102,4.226
		c0.92,1.746,1.381,3.685,1.381,5.812c0,1.59-0.274,3.09-0.821,4.505c-0.547,1.416-1.311,2.659-2.292,3.729
		c-0.98,1.071-2.222,1.919-3.719,2.537c-1.499,0.622-3.146,0.934-4.945,0.934c-2.365,0-4.454-0.536-6.258-1.605
		c-1.809-1.071-3.17-2.486-4.091-4.247S150.139,18.903,150.139,16.76z M154.968,2.306l4.229-6.628h5.236l4.338,6.628h-3.597
		l-3.348-4.089l-3.282,4.089H154.968z M156.207,16.76c0,1.828,0.504,3.368,1.517,4.618c1.012,1.25,2.394,1.875,4.146,1.875
		c1.752,0,3.142-0.625,4.168-1.875c1.026-1.251,1.539-2.792,1.539-4.618c0-1.812-0.514-3.34-1.539-4.575
		c-1.025-1.236-2.414-1.854-4.168-1.854c-1.755,0-3.135,0.618-4.146,1.854C156.711,13.42,156.207,14.947,156.207,16.76z"/>
	<path fill="#247678" d="M175.201,27.904V5.679h5.844v2.898c0.808-0.973,1.886-1.794,3.236-2.46
		c1.348-0.667,2.861-1.001,4.539-1.001c2.382,0,4.183,0.626,5.406,1.877c1.22,1.249,1.833,2.992,1.833,5.225v15.687h-5.847V14.467
		c0-1.468-0.354-2.525-1.066-3.169c-0.713-0.646-1.727-0.967-3.045-0.967c-1.064,0-2.038,0.25-2.925,0.752
		c-0.882,0.502-1.594,1.12-2.132,1.856v14.968L175.201,27.904L175.201,27.904z"/>
	<path fill="#247678" d="M199.508,2.25c-0.695-0.682-1.044-1.502-1.044-2.46s0.344-1.776,1.034-2.451
		c0.688-0.673,1.515-1.011,2.473-1.011c0.974,0,1.8,0.336,2.481,1.011c0.682,0.676,1.022,1.492,1.022,2.451
		c0,0.959-0.341,1.78-1.022,2.46c-0.682,0.682-1.508,1.023-2.481,1.023C201.025,3.273,200.206,2.933,199.508,2.25z M199.07,27.904
		V5.679h5.844v22.225H199.07z"/>
	<path fill="#247678" d="M206.534,21.109c0-1.003,0.152-1.915,0.46-2.738c0.305-0.822,0.716-1.503,1.229-2.042
		c0.514-0.538,1.105-0.989,1.778-1.356c0.67-0.366,1.359-0.632,2.068-0.798c0.705-0.165,1.427-0.246,2.156-0.246
		c1.485,0,2.851,0.235,4.089,0.708c1.241,0.471,2.228,1.14,2.963,2.008v-2.998c0-1.127-0.446-2.033-1.34-2.717
		c-0.893-0.684-2.076-1.025-3.55-1.025c-2.438,0-4.601,0.882-6.484,2.646l-2.186-3.926c2.661-2.337,5.89-3.505,9.685-3.505
		c1.336,0,2.558,0.142,3.667,0.427c1.108,0.284,2.133,0.742,3.07,1.372c0.94,0.629,1.669,1.504,2.194,2.628
		c0.523,1.123,0.787,2.458,0.787,4.001v14.36h-5.845V25.62c-0.765,0.896-1.769,1.598-3.008,2.097
		c-1.238,0.501-2.586,0.751-4.045,0.751c-0.908,0-1.806-0.156-2.693-0.47c-0.889-0.314-1.709-0.762-2.47-1.346
		c-0.759-0.582-1.372-1.357-1.833-2.322C206.765,23.363,206.534,22.29,206.534,21.109z M212.379,21.243
		c0,1.007,0.403,1.803,1.205,2.391c0.804,0.586,1.8,0.879,2.985,0.879c0.978,0,1.891-0.164,2.738-0.496
		c0.848-0.331,1.505-0.811,1.97-1.443v-2.751c-0.465-0.631-1.122-1.112-1.97-1.442c-0.848-0.331-1.762-0.497-2.738-0.497
		c-1.2,0-2.2,0.297-2.997,0.891C212.774,19.369,212.379,20.192,212.379,21.243z"/>
</g>
</svg>
