<?xml version="1.0" encoding="utf-8"?>
<!-- Generator: Adobe Illustrator 16.0.0, SVG Export Plug-In . SVG Version: 6.00 Build 0)  -->
<!DOCTYPE svg PUBLIC "-//W3C//DTD SVG 1.1//EN" "http://www.w3.org/Graphics/SVG/1.1/DTD/svg11.dtd">
<svg version="1.1" id="Layer_1" xmlns="http://www.w3.org/2000/svg" xmlns:xlink="http://www.w3.org/1999/xlink" x="0px" y="0px"
	 width="328px" height="309.464px" viewBox="247.5 -0.964 328 309.464" enable-background="new 247.5 -0.964 328 309.464"
	 xml:space="preserve">
<g>
	<g>
		<g>
			<path fill="#EDEDED" d="M544.022,81.329c0.001,3.464,2.811,6.273,6.271,6.273c3.466,0,6.271-2.81,6.271-6.273
				c0-3.468-2.806-6.274-6.271-6.274C546.831,75.054,544.023,77.864,544.022,81.329z"/>
		</g>
		<g>
			<path fill="#EDEDED" d="M544.022,104.673c0.001,3.465,2.811,6.273,6.271,6.273c3.466,0,6.271-2.808,6.271-6.273
				c0-3.46-2.806-6.27-6.271-6.27C546.831,98.403,544.023,101.213,544.022,104.673z"/>
		</g>
		<g>
			<path fill="#EDEDED" d="M544.022,57.979c0.001,3.468,2.81,6.275,6.271,6.275c3.466,0,6.268-2.807,6.271-6.275
				c0-3.464-2.806-6.271-6.271-6.271C546.83,51.707,544.023,54.517,544.022,57.979z"/>
		</g>
		<g>
			<path fill="#EDEDED" d="M544.023,34.631c0,3.466,2.808,6.271,6.271,6.271c3.464,0.001,6.271-2.806,6.271-6.273
				c0-3.464-2.807-6.272-6.271-6.27C546.83,28.357,544.023,31.169,544.023,34.631z"/>
		</g>
		<g>
			<path fill="#EDEDED" d="M544.022,128.022c0.001,3.464,2.81,6.274,6.271,6.274c3.466,0.001,6.268-2.811,6.271-6.276
				c0-3.46-2.806-6.273-6.271-6.27C546.83,121.748,544.023,124.562,544.022,128.022z"/>
		</g>
	</g>
	<g>
		<g>
			<path fill="#EDEDED" d="M520.76,81.329c0.001,3.464,2.811,6.273,6.271,6.273c3.466,0,6.271-2.81,6.272-6.273
				c0-3.468-2.807-6.274-6.272-6.274C523.571,75.054,520.761,77.864,520.76,81.329z"/>
		</g>
		<g>
			<path fill="#EDEDED" d="M520.76,104.673c0.001,3.465,2.811,6.273,6.271,6.273c3.466,0,6.271-2.808,6.272-6.273
				c0-3.46-2.807-6.27-6.272-6.27C523.571,98.403,520.761,101.213,520.76,104.673z"/>
		</g>
		<g>
			<path fill="#EDEDED" d="M520.76,57.979c0.001,3.468,2.81,6.275,6.271,6.275c3.466,0,6.269-2.807,6.272-6.275
				c0-3.464-2.807-6.271-6.272-6.271C523.57,51.707,520.761,54.517,520.76,57.979z"/>
		</g>
		<g>
			<path fill="#EDEDED" d="M520.761,34.631c0,3.466,2.808,6.271,6.27,6.271c3.465,0.001,6.271-2.806,6.271-6.273
				c0-3.464-2.806-6.272-6.271-6.27C523.569,28.357,520.761,31.169,520.761,34.631z"/>
		</g>
		<g>
			<path fill="#EDEDED" d="M520.76,128.022c0.001,3.464,2.81,6.274,6.271,6.274c3.466,0.001,6.269-2.811,6.272-6.276
				c0-3.46-2.807-6.273-6.272-6.27C523.57,121.748,520.761,124.562,520.76,128.022z"/>
		</g>
	</g>
	<g>
		<g>
			<path fill="#EDEDED" d="M497.497,81.329c0.001,3.464,2.811,6.273,6.271,6.273c3.466,0,6.271-2.81,6.272-6.273
				c0-3.468-2.807-6.274-6.272-6.274C500.308,75.054,497.498,77.864,497.497,81.329z"/>
		</g>
		<g>
			<path fill="#EDEDED" d="M497.497,104.673c0.001,3.465,2.811,6.273,6.271,6.273c3.466,0,6.271-2.808,6.272-6.273
				c0-3.46-2.807-6.27-6.272-6.27C500.308,98.403,497.498,101.213,497.497,104.673z"/>
		</g>
		<g>
			<path fill="#EDEDED" d="M497.497,57.979c0.001,3.468,2.81,6.275,6.271,6.275c3.466,0,6.269-2.807,6.272-6.275
				c0-3.464-2.807-6.271-6.272-6.271C500.307,51.707,497.498,54.517,497.497,57.979z"/>
		</g>
		<g>
			<path fill="#EDEDED" d="M497.498,34.631c0,3.466,2.808,6.271,6.27,6.271c3.465,0.001,6.271-2.806,6.271-6.273
				c0-3.464-2.807-6.272-6.271-6.27C500.306,28.357,497.498,31.169,497.498,34.631z"/>
		</g>
		<g>
			<path fill="#EDEDED" d="M497.497,128.022c0.001,3.464,2.81,6.274,6.271,6.274c3.466,0.001,6.269-2.811,6.272-6.276
				c0-3.46-2.807-6.273-6.272-6.27C500.307,121.748,497.498,124.562,497.497,128.022z"/>
		</g>
	</g>
	<g>
		<g>
			<path fill="#EDEDED" d="M474.236,104.673c0.002,3.465,2.811,6.273,6.272,6.273c3.465,0,6.27-2.808,6.271-6.273
				c0-3.46-2.807-6.27-6.271-6.27C477.046,98.403,474.238,101.213,474.236,104.673z"/>
		</g>
		<g>
			<path fill="#EDEDED" d="M474.238,34.631c0,3.466,2.808,6.271,6.27,6.271c3.465,0.001,6.271-2.806,6.271-6.273
				c0-3.464-2.806-6.272-6.271-6.27C477.044,28.357,474.238,31.169,474.238,34.631z"/>
		</g>
		<g>
			<path fill="#EDEDED" d="M474.236,128.022c0.002,3.464,2.811,6.274,6.272,6.274c3.465,0.001,6.268-2.811,6.271-6.276
				c0-3.46-2.807-6.273-6.271-6.27C477.045,121.748,474.238,124.562,474.236,128.022z"/>
		</g>
	</g>
	<g>
		<g>
			<path fill="#EDEDED" d="M451.049,128.022c0.002,3.464,2.811,6.274,6.272,6.274c3.465,0.001,6.268-2.811,6.271-6.276
				c0-3.46-2.807-6.273-6.271-6.27C453.859,121.748,451.051,124.562,451.049,128.022z"/>
		</g>
	</g>
</g>
<g>
	<g>
		<g>
			<path fill="#EDEDED" d="M353.904,26.727c0,3.466,2.808,6.271,6.27,6.271c3.464,0.001,6.271-2.806,6.271-6.273
				c0-3.464-2.807-6.272-6.271-6.27C356.712,20.453,353.904,23.264,353.904,26.727z"/>
		</g>
	</g>
	<g>
		<g>
			<path fill="#EDEDED" d="M330.642,50.074c0.001,3.468,2.809,6.275,6.271,6.275c3.467,0,6.269-2.807,6.272-6.275
				c0-3.464-2.805-6.271-6.272-6.271C333.451,43.803,330.643,46.612,330.642,50.074z"/>
		</g>
		<g>
			<path fill="#EDEDED" d="M330.642,26.727c0,3.466,2.808,6.271,6.269,6.271c3.465,0.001,6.271-2.806,6.271-6.273
				c0-3.464-2.806-6.272-6.271-6.27C333.45,20.453,330.642,23.264,330.642,26.727z"/>
		</g>
		<g>
			<path fill="#EDEDED" d="M330.642,120.118c0.001,3.464,2.809,6.274,6.271,6.274c3.467,0.001,6.269-2.81,6.272-6.276
				c0-3.46-2.805-6.273-6.272-6.27C333.451,113.843,330.643,116.657,330.642,120.118z"/>
		</g>
	</g>
	<g>
		<g>
			<path fill="#EDEDED" d="M307.38,73.424c0.001,3.464,2.81,6.273,6.271,6.273c3.466,0,6.271-2.809,6.272-6.273
				c0-3.467-2.805-6.274-6.272-6.274C310.19,67.15,307.381,69.959,307.38,73.424z"/>
		</g>
		<g>
			<path fill="#EDEDED" d="M307.38,96.769c0.001,3.465,2.81,6.273,6.271,6.273c3.466,0,6.271-2.808,6.272-6.273
				c0-3.46-2.805-6.27-6.272-6.27C310.19,90.499,307.381,93.309,307.38,96.769z"/>
		</g>
		<g>
			<path fill="#EDEDED" d="M307.38,50.074c0.001,3.468,2.81,6.275,6.271,6.275c3.467,0,6.268-2.807,6.272-6.275
				c0-3.464-2.805-6.271-6.272-6.271C310.189,43.803,307.381,46.612,307.38,50.074z"/>
		</g>
		<g>
			<path fill="#EDEDED" d="M307.381,26.727c0,3.466,2.808,6.271,6.269,6.271c3.465,0.001,6.271-2.806,6.271-6.273
				c0-3.464-2.806-6.272-6.271-6.27C310.188,20.453,307.381,23.264,307.381,26.727z"/>
		</g>
		<g>
			<path fill="#EDEDED" d="M307.38,120.118c0.001,3.464,2.81,6.274,6.271,6.274c3.467,0.001,6.268-2.81,6.272-6.276
				c0-3.46-2.805-6.273-6.272-6.27C310.189,113.843,307.381,116.657,307.38,120.118z"/>
		</g>
	</g>
	<g>
		<g>
			<path fill="#EDEDED" d="M284.117,73.424c0.002,3.464,2.811,6.273,6.272,6.273c3.466,0,6.271-2.809,6.272-6.273
				c0-3.467-2.806-6.274-6.272-6.274C286.928,67.15,284.119,69.959,284.117,73.424z"/>
		</g>
		<g>
			<path fill="#EDEDED" d="M284.117,96.769c0.002,3.465,2.811,6.273,6.272,6.273c3.466,0,6.271-2.808,6.272-6.273
				c0-3.46-2.806-6.27-6.272-6.27C286.928,90.499,284.119,93.309,284.117,96.769z"/>
		</g>
		<g>
			<path fill="#EDEDED" d="M284.117,50.074c0.002,3.468,2.81,6.275,6.272,6.275c3.466,0,6.268-2.807,6.272-6.275
				c0-3.464-2.806-6.271-6.272-6.271C286.928,43.803,284.119,46.612,284.117,50.074z"/>
		</g>
		<g>
			<path fill="#EDEDED" d="M284.119,26.727c0,3.466,2.808,6.271,6.27,6.271c3.465,0.001,6.271-2.806,6.271-6.273
				c0-3.464-2.806-6.272-6.271-6.27C286.927,20.453,284.119,23.264,284.119,26.727z"/>
		</g>
		<g>
			<path fill="#EDEDED" d="M284.117,120.118c0.002,3.464,2.81,6.274,6.272,6.274c3.466,0.001,6.268-2.81,6.272-6.276
				c0-3.46-2.806-6.273-6.272-6.27C286.928,113.843,284.119,116.657,284.117,120.118z"/>
		</g>
	</g>
	<g>
		<g>
			<path fill="#EDEDED" d="M260.856,73.424c0.001,3.464,2.81,6.273,6.272,6.273c3.465,0,6.27-2.809,6.272-6.273
				c0-3.467-2.806-6.274-6.272-6.274C263.666,67.15,260.858,69.959,260.856,73.424z"/>
		</g>
		<g>
			<path fill="#EDEDED" d="M260.856,96.769c0.001,3.465,2.81,6.273,6.272,6.273c3.465,0,6.27-2.808,6.272-6.273
				c0-3.46-2.806-6.27-6.272-6.27C263.666,90.499,260.858,93.309,260.856,96.769z"/>
		</g>
		<g>
			<path fill="#EDEDED" d="M260.856,50.074c0.001,3.468,2.809,6.275,6.272,6.275c3.466,0,6.268-2.807,6.272-6.275
				c0-3.464-2.806-6.271-6.272-6.271C263.665,43.803,260.858,46.612,260.856,50.074z"/>
		</g>
		<g>
			<path fill="#EDEDED" d="M260.857,26.727c0,3.466,2.808,6.271,6.27,6.271c3.464,0.001,6.271-2.806,6.271-6.273
				c0-3.464-2.806-6.272-6.271-6.27C263.664,20.453,260.857,23.264,260.857,26.727z"/>
		</g>
		<g>
			<path fill="#EDEDED" d="M260.856,120.118c0.001,3.464,2.809,6.274,6.272,6.274c3.466,0.001,6.268-2.81,6.272-6.276
				c0-3.46-2.806-6.273-6.272-6.27C263.665,113.843,260.858,116.657,260.856,120.118z"/>
		</g>
	</g>
</g>
<g>
	<g>
		<path fill="#99CC29" d="M255.566,227.693h27.607c0.421,0,0.791,0.159,1.107,0.476c0.316,0.314,0.475,0.686,0.475,1.106v0.713
			c0,0.474-0.158,0.857-0.475,1.147c-0.315,0.289-0.686,0.434-1.107,0.434h-26.817v47.621h26.817c0.421,0,0.791,0.146,1.107,0.434
			c0.317,0.29,0.475,0.672,0.475,1.147v0.713c0,0.423-0.158,0.791-0.475,1.106c-0.315,0.316-0.686,0.476-1.107,0.476h-27.687
			c-1.266,0-2.096-0.278-2.491-0.83c-0.396-0.555-0.594-1.332-0.594-2.335v-49.124c0-1.053,0.238-1.83,0.712-2.333
			C253.588,227.945,254.405,227.693,255.566,227.693z M261.103,252.374h16.928c0.475,0,0.857,0.157,1.147,0.475
			c0.289,0.315,0.435,0.686,0.435,1.107v0.711c0,1.056-0.528,1.582-1.583,1.582h-16.928c-1.055,0-1.583-0.526-1.583-1.582v-0.711
			c0-0.422,0.146-0.792,0.436-1.107C260.245,252.531,260.629,252.374,261.103,252.374z"/>
		<path fill="#99CC29" d="M283.174,283.919h-27.687c-1.572,0-2.614-0.388-3.185-1.187c-0.499-0.699-0.752-1.651-0.752-2.83v-49.123
			c0-1.274,0.318-2.257,0.945-2.92c0.651-0.685,1.656-1.018,3.073-1.018h27.608c0.645,0,1.236,0.249,1.709,0.725
			c0.474,0.473,0.725,1.065,0.725,1.71v0.713c0,0.712-0.26,1.326-0.753,1.776c-0.467,0.431-1.05,0.659-1.682,0.659H257.21v45.915
			h25.965c0.629,0,1.211,0.228,1.682,0.658c0.493,0.453,0.752,1.065,0.752,1.776v0.713c0,0.645-0.25,1.234-0.724,1.709
			C284.409,283.669,283.818,283.919,283.174,283.919z M255.566,228.547c-0.898,0-1.532,0.167-1.834,0.485
			c-0.317,0.336-0.478,0.923-0.478,1.747v49.124c0,0.817,0.145,1.435,0.434,1.838c0.215,0.303,0.87,0.475,1.798,0.475h27.687
			c0.193,0,0.349-0.07,0.504-0.226c0.158-0.158,0.225-0.307,0.225-0.504v-0.712c0-0.298-0.101-0.43-0.199-0.52
			c-0.159-0.146-0.323-0.209-0.531-0.209h-27.669v-49.327h27.669c0.208,0,0.371-0.065,0.531-0.21c0.1-0.091,0.199-0.222,0.199-0.52
			v-0.712c0-0.193-0.07-0.349-0.225-0.505c-0.155-0.155-0.311-0.225-0.504-0.225L255.566,228.547L255.566,228.547z M278.031,257.103
			h-16.928c-1.525,0-2.434-0.91-2.434-2.436v-0.711c0-0.632,0.228-1.215,0.661-1.685c0.447-0.49,1.062-0.75,1.774-0.75h16.928
			c0.71,0,1.325,0.26,1.775,0.75c0.432,0.473,0.66,1.054,0.66,1.685v0.711C280.467,256.192,279.556,257.103,278.031,257.103z
			 M261.103,253.226c-0.298,0-0.429,0.1-0.518,0.198c-0.146,0.16-0.211,0.323-0.211,0.532v0.711c0,0.588,0.144,0.729,0.729,0.729
			h16.928c0.587,0,0.73-0.143,0.73-0.729v-0.711c0-0.209-0.065-0.372-0.211-0.532c-0.089-0.097-0.221-0.198-0.519-0.198H261.103z"/>
	</g>
	<g>
		<path fill="#99CC29" d="M296.384,246.758c2.532-2.267,5.827-3.401,9.888-3.401c4.06,0,7.33,1.147,9.81,3.441
			c2.477,2.293,3.717,5.496,3.717,9.61c0,1.002-0.527,1.503-1.582,1.503h-0.632c-1.003,0-1.502-0.501-1.502-1.503
			c0-3.006-0.924-5.3-2.77-6.882c-1.847-1.581-4.192-2.373-7.04-2.373c-2.847,0-5.208,0.807-7.08,2.412
			c-1.873,1.609-2.808,3.915-2.808,6.922v13.605c0,3.008,0.936,5.315,2.808,6.923c1.872,1.609,4.233,2.412,7.08,2.412
			c2.848,0,5.181-0.777,7.001-2.333c1.819-1.555,2.755-3.783,2.809-6.685c0-0.421,0.145-0.791,0.434-1.106
			c0.289-0.317,0.645-0.476,1.068-0.476h0.633c0.475,0,0.856,0.158,1.147,0.476c0.289,0.315,0.434,0.686,0.434,1.106
			c-0.106,4.008-1.398,7.146-3.875,9.413c-2.48,2.27-5.709,3.401-9.69,3.401c-3.983,0-7.252-1.146-9.809-3.44
			c-2.559-2.294-3.836-5.497-3.836-9.611v-13.765C292.586,252.243,293.852,249.024,296.384,246.758z"/>
		<path fill="#99CC29" d="M306.233,284.077c-4.18,0-7.671-1.229-10.378-3.658c-2.734-2.45-4.121-5.898-4.121-10.246v-13.765
			c0-4.399,1.373-7.859,4.081-10.285c2.682-2.401,6.199-3.621,10.456-3.621c4.263,0,7.757,1.235,10.388,3.668
			c2.648,2.453,3.991,5.896,3.991,10.236c0,1.475-0.91,2.354-2.434,2.354h-0.633c-1.474,0-2.355-0.88-2.355-2.354
			c0-2.77-0.808-4.81-2.47-6.233c-1.703-1.461-3.825-2.169-6.486-2.169c-2.625,0-4.819,0.741-6.523,2.207
			c-1.691,1.452-2.511,3.505-2.511,6.274v13.606c0,2.771,0.82,4.824,2.511,6.275c1.703,1.464,3.898,2.207,6.523,2.207
			s4.795-0.716,6.446-2.129c1.641-1.4,2.462-3.381,2.51-6.052c0-0.616,0.228-1.198,0.661-1.668c0.448-0.49,1.035-0.752,1.694-0.752
			h0.633c0.71,0,1.324,0.26,1.775,0.752c0.433,0.473,0.66,1.054,0.66,1.684c-0.112,4.254-1.509,7.624-4.152,10.043
			C313.868,282.857,310.415,284.077,306.233,284.077z M306.271,244.209c-3.825,0-6.96,1.07-9.319,3.184
			c-2.365,2.117-3.513,5.066-3.513,9.016v13.765c0,3.896,1.162,6.833,3.553,8.977c2.384,2.139,5.493,3.224,9.24,3.224
			c3.743,0,6.81-1.07,9.115-3.179c2.289-2.094,3.5-5.057,3.599-8.807c0-0.186-0.065-0.349-0.212-0.511
			c-0.089-0.096-0.221-0.196-0.518-0.196h-0.633c-0.182,0-0.31,0.058-0.437,0.196c-0.147,0.16-0.212,0.325-0.212,0.532
			c-0.057,3.158-1.103,5.619-3.107,7.332c-1.969,1.685-4.511,2.538-7.555,2.538c-3.045,0-5.615-0.881-7.636-2.619
			c-2.06-1.769-3.104-4.315-3.104-7.568v-13.606c0-3.25,1.044-5.796,3.104-7.567c2.022-1.737,4.592-2.618,7.636-2.618
			c3.043,0,5.598,0.867,7.595,2.577c2.035,1.746,3.066,4.278,3.066,7.529c0,0.529,0.122,0.65,0.651,0.65h0.632
			c0.661,0,0.73-0.197,0.73-0.65c0-3.846-1.159-6.87-3.445-8.984C313.196,245.29,310.091,244.209,306.271,244.209z"/>
	</g>
	<g>
		<path fill="#99CC29" d="M336.33,246.758c2.531-2.267,5.826-3.401,9.887-3.401c4.062,0,7.33,1.147,9.81,3.441
			c2.478,2.293,3.719,5.496,3.719,9.61v13.766c0,4.113-1.241,7.317-3.719,9.612c-2.48,2.294-5.736,3.439-9.77,3.439
			c-4.036,0-7.33-1.146-9.888-3.439c-2.559-2.295-3.837-5.498-3.837-9.612v-13.766C332.534,252.243,333.8,249.024,336.33,246.758z
			 M353.259,249.486c-1.848-1.607-4.194-2.412-7.042-2.412c-2.847,0-5.221,0.805-7.119,2.412c-1.898,1.609-2.848,3.916-2.848,6.922
			v13.766c0,3.006,0.949,5.313,2.848,6.921c1.898,1.609,4.271,2.413,7.119,2.413c2.849,0,5.194-0.804,7.042-2.413
			c1.845-1.607,2.769-3.915,2.769-6.921v-13.766C356.028,253.402,355.104,251.096,353.259,249.486z"/>
		<path fill="#99CC29" d="M346.259,284.077c-4.233,0-7.751-1.229-10.458-3.658c-2.733-2.45-4.12-5.898-4.12-10.246v-13.765
			c0-4.399,1.374-7.859,4.081-10.285c2.682-2.401,6.2-3.621,10.456-3.621c4.263,0,7.758,1.235,10.388,3.668
			c2.65,2.453,3.992,5.896,3.992,10.236v13.767c0,4.34-1.342,7.783-3.991,10.235C353.975,282.845,350.493,284.077,346.259,284.077z
			 M346.218,244.209c-3.824,0-6.959,1.07-9.319,3.184c-2.364,2.117-3.513,5.066-3.513,9.016v13.765c0,3.896,1.162,6.833,3.553,8.977
			c2.384,2.139,5.52,3.224,9.32,3.224c3.792,0,6.885-1.082,9.19-3.215c2.286-2.115,3.445-5.139,3.445-8.985v-13.765
			c0-3.848-1.159-6.871-3.445-8.985C353.143,245.29,350.037,244.209,346.218,244.209z M346.218,280.359
			c-3.042,0-5.622-0.878-7.67-2.614c-2.09-1.77-3.149-4.317-3.149-7.572v-13.765c0-3.253,1.06-5.802,3.149-7.572
			c2.048-1.734,4.629-2.615,7.67-2.615c3.045,0,5.603,0.884,7.601,2.623c2.032,1.771,3.062,4.315,3.062,7.564v13.765
			c0,3.25-1.03,5.796-3.061,7.564C351.822,279.478,349.265,280.359,346.218,280.359z M346.218,247.928
			c-2.625,0-4.836,0.742-6.567,2.208c-1.714,1.454-2.547,3.505-2.547,6.272v13.765c0,2.769,0.833,4.82,2.547,6.271
			c1.73,1.466,3.94,2.21,6.567,2.21c2.66,0,4.781-0.72,6.482-2.202c1.665-1.453,2.476-3.507,2.476-6.279v-13.767
			c0-2.771-0.811-4.826-2.476-6.279C350.997,248.647,348.877,247.928,346.218,247.928z"/>
	</g>
	<g>
		<path fill="#3F3F3F" d="M373.644,240.085c0-3.475,1.426-6.504,4.283-9.09c2.854-2.586,6.747-3.88,11.676-3.88
			c4.927,0,9.075,1.308,12.442,3.919c3.366,2.614,5.158,6.506,5.374,11.676c0,0.433-0.162,0.821-0.486,1.172
			c-0.321,0.352-0.699,0.526-1.129,0.526h-0.809c-0.377,0-0.728-0.148-1.051-0.445c-0.323-0.296-0.512-0.659-0.564-1.091
			c-0.162-4.093-1.535-7.069-4.121-8.929c-2.586-1.858-5.684-2.785-9.291-2.785c-3.88,0-6.897,0.887-9.051,2.665
			c-2.154,1.777-3.231,3.974-3.231,6.585c0,2.614,0.753,4.699,2.263,6.263c2.101,2.1,6.005,4.255,11.715,6.463
			c6.788,2.693,11.312,5.386,13.574,8.079c1.724,2.048,2.586,4.984,2.586,8.809c0,3.825-1.55,7.097-4.646,9.817
			c-3.099,2.72-7.502,4.079-13.209,4.079c-4.259,0-8.271-1.157-12.04-3.474c-1.993-1.239-3.623-2.976-4.89-5.211
			c-1.265-2.235-1.953-4.808-2.059-7.717c0-1.131,0.538-1.698,1.615-1.698h0.728c0.969,0,1.507,0.513,1.617,1.536
			c0.106,2.371,0.698,4.431,1.777,6.181c1.077,1.752,2.425,3.058,4.042,3.919c3.122,1.671,6.557,2.505,10.301,2.505
			s6.812-0.983,9.211-2.948c2.396-1.966,3.596-4.432,3.596-7.393c0-3.016-0.972-5.335-2.911-6.951
			c-1.561-1.293-3.259-2.396-5.089-3.312c-2.372-1.132-6.088-2.72-11.149-4.768c-3.88-1.723-6.695-3.703-8.446-5.938
			C374.518,246.415,373.644,243.561,373.644,240.085z"/>
	</g>
	<g>
		<path fill="#3F3F3F" d="M413.772,244.288h1.897c0.476,0,0.857,0.158,1.147,0.474c0.289,0.317,0.434,0.687,0.434,1.108v0.474
			c0,0.423-0.145,0.793-0.434,1.108c-0.29,0.316-0.672,0.474-1.147,0.474h-1.897c-0.475,0-0.858-0.157-1.146-0.474
			c-0.291-0.315-0.434-0.686-0.434-1.108v-0.474c0-0.422,0.144-0.791,0.434-1.108C412.914,244.446,413.297,244.288,413.772,244.288z
			 M419.863,226.866h0.633c1.001,0,1.503,0.503,1.503,1.504l-0.239,43.288c0.053,2.688,0.805,4.773,2.256,6.248
			c1.449,1.479,3.362,2.216,5.734,2.216h1.979c0.423,0,0.777,0.159,1.068,0.475c0.288,0.316,0.435,0.659,0.435,1.028v0.633
			c0,1.055-1.187,1.582-3.56,1.582c-3.48,0-6.276-1.068-8.385-3.204c-2.11-2.136-3.191-5.103-3.244-8.898l0.238-43.367
			C418.385,227.369,418.914,226.866,419.863,226.866z M424.371,244.288h5.854c0.421,0,0.777,0.158,1.067,0.474
			c0.289,0.317,0.435,0.687,0.435,1.108v0.474c0,0.423-0.146,0.793-0.435,1.108c-0.29,0.316-0.646,0.474-1.067,0.474h-5.854
			c-0.423,0-0.79-0.157-1.107-0.474c-0.317-0.315-0.475-0.686-0.475-1.108v-0.474c0-0.422,0.157-0.791,0.475-1.108
			C423.581,244.446,423.948,244.288,424.371,244.288z"/>
	</g>
	<g>
		<path fill="#3F3F3F" d="M447.073,247.53c2.531-2.266,5.827-3.401,9.889-3.401c4.06,0,7.329,1.147,9.81,3.442
			c2.477,2.293,3.718,5.496,3.718,9.609v17.404c0,2.057,0.171,3.468,0.513,4.233c0.343,0.765,1.017,1.277,2.019,1.542l0.869,0.237
			c0.791,0.159,1.187,0.502,1.187,1.028v0.871c0,0.896-0.526,1.345-1.582,1.345c-2.584,0-4.351-0.764-5.3-2.295
			c-0.949-1.53-1.423-3.877-1.423-7.04v-17.324c0-3.007-0.924-5.312-2.771-6.922c-1.846-1.607-4.192-2.412-7.039-2.412
			c-2.849,0-5.222,0.805-7.12,2.412c-1.897,1.609-2.848,3.915-2.848,6.922v13.528c0,3.11,0.778,5.457,2.334,7.038
			c1.556,1.584,3.797,2.374,6.724,2.374s5.339-1.187,7.238-3.559c0.368-0.476,0.883-0.713,1.543-0.713
			c0.658,0,1.12,0.396,1.384,1.187c0.158,0.632,0.079,1.187-0.237,1.659c-2.27,3.431-5.524,5.144-9.77,5.144
			c-4.247,0-7.464-1.134-9.65-3.402c-2.19-2.267-3.283-5.484-3.283-9.65v-13.605C443.277,253.016,444.542,249.798,447.073,247.53z"
			/>
	</g>
	<g>
		<path fill="#3F3F3F" d="M486.704,247.61c2.531-2.268,5.841-3.401,9.929-3.401c4.086,0,7.357,1.135,9.809,3.401
			c2.453,2.268,3.679,5.484,3.679,9.648v32.593c0,4.481-1.187,7.897-3.559,10.245c-2.373,2.346-5.553,3.519-9.533,3.519
			c-3.981,0-7.186-1.106-9.611-3.321c-2.426-2.216-3.667-5.328-3.718-9.334c0-0.95,0.5-1.424,1.502-1.424h0.633
			c1.054,0,1.582,0.474,1.582,1.424c0.106,2.899,1.041,5.114,2.808,6.645s4.047,2.295,6.844,2.295c2.796,0,5.049-0.846,6.764-2.53
			c1.712-1.69,2.571-4.221,2.571-7.595v-8.781c-2.85,2.058-6.21,3.086-10.087,3.086c-3.876,0-7.08-1.134-9.612-3.402
			c-2.529-2.266-3.796-5.484-3.796-9.65v-13.766C482.908,253.095,484.174,249.878,486.704,247.61z M503.635,250.338
			c-1.849-1.606-4.207-2.412-7.08-2.412c-2.876,0-5.235,0.806-7.08,2.412c-1.848,1.609-2.77,3.943-2.77,7.001v13.607
			c0,3.005,0.962,5.313,2.888,6.921c1.925,1.609,4.219,2.414,6.881,2.414c2.663,0,4.852-0.437,6.566-1.306
			c1.715-0.871,2.834-1.833,3.363-2.888V257.26C506.404,254.254,505.479,251.947,503.635,250.338z"/>
	</g>
	<g>
		<path fill="#3F3F3F" d="M527.681,247.53c2.531-2.266,5.825-3.401,9.888-3.401c4.061,0,7.328,1.147,9.809,3.442
			c2.479,2.293,3.718,5.496,3.718,9.609v4.747c0,2.269-1.08,3.401-3.241,3.401h-17.088c-0.474,0-0.857-0.158-1.146-0.476
			c-0.29-0.314-0.436-0.684-0.436-1.107v-0.633c0-0.421,0.146-0.79,0.436-1.106c0.289-0.317,0.672-0.476,1.146-0.476h16.612v-4.271
			c0-3.006-0.924-5.312-2.769-6.921c-1.847-1.606-4.192-2.412-7.04-2.412s-5.208,0.806-7.08,2.412
			c-1.871,1.609-2.808,3.915-2.808,6.921v13.606c0,3.008,0.937,5.315,2.808,6.923c1.872,1.609,4.218,2.412,7.04,2.412
			c2.82,0,5.168-0.777,7.041-2.334c1.87-1.555,2.808-3.782,2.808-6.684c0-0.422,0.146-0.791,0.435-1.106
			c0.29-0.317,0.646-0.476,1.068-0.476h0.632c0.474,0,0.856,0.158,1.147,0.476c0.288,0.315,0.435,0.685,0.435,1.106
			c-0.053,4.062-1.319,7.212-3.796,9.452c-2.48,2.243-5.723,3.361-9.73,3.361c-4.009,0-7.292-1.146-9.849-3.439
			c-2.56-2.295-3.837-5.498-3.837-9.611v-13.766C523.883,253.016,525.15,249.798,527.681,247.53z"/>
	</g>
	<circle fill="#3F3F3F" cx="567.066" cy="278.517" r="4.356"/>
	<g>
		<g>
			<g>
				<path fill="#99CC29" d="M402.719,43.05c0,3.461,2.808,6.271,6.27,6.271c3.463,0,6.269-2.811,6.269-6.271
					c0-3.464-2.806-6.273-6.269-6.273C405.526,36.777,402.719,39.586,402.719,43.05z"/>
			</g>
			<g>
				<path fill="#99CC29" d="M377.293,73.426c0,3.464,2.809,6.273,6.27,6.273c3.465,0,6.271-2.809,6.271-6.273
					c0-3.467-2.807-6.274-6.271-6.274C380.101,67.151,377.293,69.961,377.293,73.426z"/>
			</g>
			<g>
				<path fill="#99CC29" d="M427.681,58.018c0,3.461,2.81,6.266,6.271,6.266c3.467,0.003,6.271-2.805,6.272-6.269
					c0-3.464-2.806-6.274-6.272-6.272C430.49,51.741,427.681,54.554,427.681,58.018z"/>
			</g>
			<g>
				<path fill="#99CC29" d="M427.681,125.837c0,3.462,2.81,6.272,6.271,6.272c3.467,0,6.271-2.81,6.272-6.272
					c0-3.467-2.806-6.278-6.272-6.278C430.49,119.56,427.681,122.37,427.681,125.837z"/>
			</g>
			<g>
				<path fill="#99CC29" d="M377.293,50.076c0,3.468,2.809,6.275,6.27,6.275c3.465,0,6.271-2.807,6.271-6.275
					c0-3.464-2.807-6.271-6.271-6.271C380.101,43.804,377.293,46.614,377.293,50.076z"/>
			</g>
			<g>
				<path fill="#99CC29" d="M353.943,96.77c0.001,3.465,2.81,6.273,6.272,6.273c3.467,0,6.269-2.808,6.272-6.273
					c0-3.459-2.806-6.27-6.272-6.27C356.753,90.5,353.944,93.311,353.943,96.77z"/>
			</g>
			<g>
				<path fill="#99CC29" d="M330.937,73.426c0.002,3.464,2.81,6.273,6.272,6.273c3.465,0,6.27-2.809,6.271-6.273
					c0-3.467-2.805-6.274-6.271-6.274C333.747,67.151,330.939,69.961,330.937,73.426z"/>
			</g>
			<g>
				<path fill="#99CC29" d="M330.937,96.77c0.002,3.465,2.81,6.273,6.272,6.273c3.465,0,6.27-2.808,6.271-6.273
					c0-3.459-2.805-6.27-6.271-6.27C333.747,90.5,330.939,93.311,330.937,96.77z"/>
			</g>
			<g>
				<path fill="#99CC29" d="M353.943,50.076c0.001,3.468,2.81,6.275,6.272,6.275c3.467,0,6.269-2.807,6.272-6.275
					c0-3.464-2.806-6.271-6.272-6.271C356.753,43.804,353.944,46.614,353.943,50.076z"/>
			</g>
			<g>
				<path fill="#99CC29" d="M427.681,34.667c0,3.463,2.81,6.272,6.271,6.272c3.467,0,6.271-2.809,6.272-6.272
					c0-3.465-2.806-6.273-6.272-6.273C430.49,28.393,427.681,31.202,427.681,34.667z"/>
			</g>
			<g>
				<path fill="#99CC29" d="M377.293,26.729c0,3.466,2.809,6.271,6.27,6.271c3.465,0.001,6.271-2.805,6.271-6.273
					c0-3.464-2.807-6.272-6.271-6.27C380.101,20.454,377.293,23.266,377.293,26.729z"/>
			</g>
			<g>
				<path fill="#99CC29" d="M427.681,11.319c0,3.465,2.81,6.271,6.271,6.271c3.467,0,6.271-2.806,6.272-6.271
					c0-3.469-2.806-6.277-6.272-6.277C430.49,5.042,427.681,7.853,427.681,11.319z"/>
			</g>
			<g>
				<path fill="#99CC29" d="M451.03,58.018c0,3.461,2.809,6.266,6.271,6.266c3.467,0.003,6.272-2.805,6.272-6.269
					c0-3.464-2.806-6.274-6.272-6.272C453.838,51.741,451.03,54.554,451.03,58.018z"/>
			</g>
			<g>
				<path fill="#99CC29" d="M474.549,81.364c0,3.466,2.809,6.27,6.267,6.27c3.469,0.003,6.274-2.804,6.276-6.271
					c0-3.463-2.808-6.271-6.276-6.271C477.358,75.092,474.549,77.902,474.549,81.364z"/>
			</g>
			<g>
				<path fill="#99CC29" d="M451.03,104.708c0,3.465,2.809,6.275,6.271,6.275c3.467,0,6.272-2.81,6.272-6.275
					c0-3.466-2.806-6.271-6.272-6.271C453.838,98.437,451.03,101.246,451.03,104.708z"/>
			</g>
			<g>
				<path fill="#3F3F3F" d="M402.719,19.701c0,3.463,2.808,6.274,6.27,6.274c3.463,0,6.269-2.811,6.269-6.274
					c0-3.467-2.806-6.274-6.269-6.274C405.526,13.427,402.719,16.237,402.719,19.701z"/>
			</g>
			<g>
				<path fill="#3F3F3F" d="M353.943,73.426c0.001,3.464,2.81,6.273,6.272,6.273c3.467,0,6.269-2.809,6.272-6.273
					c0-3.467-2.806-6.274-6.272-6.274C356.753,67.151,353.944,69.961,353.943,73.426z"/>
			</g>
			<g>
				<path fill="#3F3F3F" d="M353.943,120.12c0.001,3.464,2.81,6.274,6.272,6.274c3.467,0.001,6.269-2.81,6.272-6.276
					c0-3.46-2.806-6.273-6.272-6.27C356.753,113.845,353.944,116.658,353.943,120.12z"/>
			</g>
			<g>
				<path fill="#3F3F3F" d="M451.03,81.364c0,3.466,2.809,6.27,6.271,6.27c3.467,0.003,6.272-2.804,6.272-6.271
					c0-3.463-2.806-6.271-6.272-6.271C453.838,75.092,451.03,77.902,451.03,81.364z"/>
			</g>
			<g>
				<path fill="#3F3F3F" d="M474.549,58.018c0,3.461,2.809,6.266,6.267,6.266c3.469,0.003,6.274-2.805,6.276-6.269
					c0-3.464-2.808-6.274-6.276-6.272C477.358,51.741,474.549,54.554,474.549,58.018z"/>
			</g>
			<g>
				<path fill="#3F3F3F" d="M451.03,34.667c0,3.463,2.809,6.272,6.271,6.272c3.467,0,6.272-2.809,6.272-6.272
					c0-3.465-2.806-6.273-6.272-6.273C453.838,28.393,451.03,31.202,451.03,34.667z"/>
			</g>
			<g>
				<path fill="#3F3F3F" d="M408.968,183.687c-1.483,0-2.683,0.315-2.683-1.167V72.763c0-1.48,1.2-2.686,2.683-2.686
					c1.482,0,2.688,1.205,2.688,2.686V182.52C411.656,184.002,410.45,183.687,408.968,183.687z"/>
			</g>
			<g>
				<path fill="#3F3F3F" d="M408.969,74.352c-3.582,0-6.496-2.913-6.496-6.494s2.914-6.496,6.496-6.496
					c3.58,0,6.493,2.915,6.493,6.496C415.463,71.439,412.551,74.352,408.969,74.352z M408.969,66.066
					c-0.989,0-1.792,0.801-1.792,1.792c0,0.988,0.803,1.793,1.792,1.793c0.99,0,1.794-0.805,1.794-1.793
					C410.763,66.868,409.96,66.066,408.969,66.066z"/>
			</g>
			<g>
				<path fill="#3F3F3F" d="M408.913,123.704c-1.484,0-2.688-1.205-2.688-2.689c0-9.8,7.625-13.124,17.597-16.457
					c7.613-2.539,7.582-6.069,7.504-14.591c-0.008-0.832-0.013-1.695-0.013-2.588c0-1.484,1.2-2.69,2.685-2.69
					c1.482,0,2.687,1.207,2.687,2.69c0,0.877,0.008,1.723,0.013,2.541c0.082,8.91,0.146,15.953-11.173,19.736
					c-11.063,3.696-13.927,6.032-13.927,11.359C411.598,122.5,410.396,123.704,408.913,123.704z"/>
			</g>
			<g>
				<path fill="#3F3F3F" d="M408.913,135.952c-1.484,0-2.688-1.201-2.688-2.685c0-5.328-2.865-7.664-13.929-11.36
					c-11.32-3.783-11.254-10.824-11.177-19.742c0.008-0.814,0.017-1.664,0.017-2.537c0-1.484,1.174-1.02,2.657-1.02
					c1.485,0,2.715-0.464,2.715,1.02c0,0.893-0.01,1.756-0.015,2.588c-0.077,8.522-0.11,12.053,7.507,14.591
					c9.97,3.333,17.597,6.66,17.597,16.46C411.598,134.751,410.396,135.952,408.913,135.952z"/>
			</g>
			<g>
				<path fill="#3F3F3F" d="M408.968,193.16c-3.579,0-6.494-2.915-6.494-6.497c0-3.577,2.915-6.493,6.494-6.493
					c3.583,0,6.492,2.916,6.492,6.493C415.461,190.244,412.551,193.16,408.968,193.16z M408.968,184.872
					c-0.988,0-1.792,0.803-1.792,1.789c0,0.99,0.805,1.798,1.792,1.798c0.991,0,1.793-0.808,1.793-1.798
					C410.762,185.674,409.96,184.872,408.968,184.872z"/>
			</g>
			<g>
				<path fill="#3F3F3F" d="M383.794,103.307c-3.582,0-6.495-2.914-6.495-6.497c0-3.579,2.913-6.49,6.495-6.49
					c3.579,0,6.496,2.912,6.496,6.49C390.289,100.392,387.373,103.307,383.794,103.307z M383.794,95.019
					c-0.99,0-1.793,0.805-1.793,1.791c0,0.991,0.805,1.798,1.793,1.798c0.989,0,1.793-0.807,1.793-1.798
					C385.587,95.824,384.783,95.019,383.794,95.019z"/>
			</g>
			<g>
				<path fill="#3F3F3F" d="M433.868,87.953c-3.579,0-6.493-2.915-6.493-6.495c0-3.582,2.914-6.494,6.493-6.494
					c3.583,0,6.495,2.913,6.495,6.494C440.364,85.038,437.451,87.953,433.868,87.953z M433.868,79.663
					c-0.988,0-1.792,0.805-1.792,1.794c0,0.99,0.804,1.794,1.792,1.794c0.989,0,1.792-0.804,1.792-1.794
					C435.661,80.467,434.858,79.663,433.868,79.663z"/>
			</g>
		</g>
	</g>
</g>
</svg>
