<?xml version="1.0" encoding="utf-8"?>
<!-- Generator: Adobe Illustrator 19.0.0, SVG Export Plug-In . SVG Version: 6.00 Build 0)  -->
<svg version="1.1" id="Layer_1" xmlns="http://www.w3.org/2000/svg" xmlns:xlink="http://www.w3.org/1999/xlink" x="0px" y="0px"
	 viewBox="0 0 120 58.5" style="enable-background:new 0 0 120 58.5;" xml:space="preserve">
<style type="text/css">
	.st0{fill:#56B047;}
	.st1{fill:#010101;}
	.st2{fill:#F2672A;}
	.st3{fill:#1ABFF1;}
	.st4{fill:#AA5426;}
</style>
<g id="XMLID_549_">
	<g id="XMLID_610_">
		<g id="XMLID_684_">
			<path id="XMLID_701_" class="st0" d="M74.4,26.4c0,3-1.7,4.8-4.9,4.8c-1.6,0-3.3-0.5-3.3-2.3c0-2.8,4.2-3.1,7.1-3.1h1.1V26.4z
				 M61.5,29c0,4,3.4,5.6,6.3,5.8v-0.7h1.3v0.7c2.4-0.1,4.4-1.3,5.3-2.8h0.1v2.4h4.4V22.9c0-3.7-1.6-7.9-8.4-7.9c-2.9,0-5.8,1-7.9,3
				l1.4,2.9c1.2-1.2,4.2-2.1,6.2-2.1c2.3,0,4.3,1.1,4.3,3.4v0.5C68.6,22.6,61.5,23.4,61.5,29"/>
			<path id="XMLID_698_" class="st0" d="M90.6,31c-3.4,0-5.5-3.1-5.5-6c0-2.9,2.1-6.1,5.5-6.1c3.6,0,5.4,3.1,5.4,6
				C95.9,27.8,94.2,31,90.6,31 M91.6,15c-3.4,0-5.3,1.7-6.3,2.9h-0.1v-9h-4.7v25.4H85v-2.5h0.1c1.3,2.1,3.8,3,6.4,3
				c5.7,0,9.2-4.5,9.2-10C100.7,19.3,97,15,91.6,15"/>
			<path id="XMLID_697_" class="st0" d="M112,31c-3.6,0-5.3-3.1-5.3-6c0-2.9,1.7-6,5.2-6c1.5,0,3.1,0.8,3.9,1.8l3.2-2.8
				c-1.5-1.8-4.3-2.9-7.1-2.9c-5.5,0-10,3.8-10,9.9c0,6.2,4.6,9.9,10.2,9.9c2.8,0,5.3-0.9,6.9-2.6l-2.9-3C115,30.4,113.4,31,112,31"
				/>
			<path id="XMLID_694_" class="st0" d="M64.6,37.9c1,0,1.5,0.8,1.5,1.7c0,0.8-0.5,1.7-1.5,1.7c-1,0-1.5-0.9-1.5-1.7
				C63.1,38.8,63.6,37.9,64.6,37.9 M64.6,42.3c1.6,0,2.8-1.1,2.8-2.7c0-1.6-1.2-2.7-2.8-2.7c-1.6,0-2.8,1.1-2.8,2.7
				C61.8,41.2,63,42.3,64.6,42.3"/>
			<path id="XMLID_691_" class="st0" d="M70.6,37.9c1,0,1.5,0.8,1.5,1.7c0,0.8-0.5,1.7-1.5,1.7c-0.9,0-1.5-0.8-1.5-1.7
				C69.1,38.8,69.6,37.9,70.6,37.9 M67.8,34.8v7.4H69v-0.8h0c0.4,0.6,1.1,0.9,1.8,0.9c1.6,0,2.5-1.2,2.5-2.7c0-1.5-1-2.7-2.5-2.7
				c-0.9,0-1.5,0.5-1.7,0.8h0v-2.9c-0.2,0-0.4,0-0.5,0C68.3,34.8,68.1,34.8,67.8,34.8"/>
			<path id="XMLID_690_" class="st0" d="M67.8,34.1v0.7c0.3,0,0.5,0,0.8,0c0.2,0,0.4,0,0.5,0v-0.7H67.8z"/>
			<path id="XMLID_689_" class="st0" d="M76,39.1c-0.7-0.2-1.1-0.3-1.1-0.7c0-0.4,0.4-0.6,0.8-0.6c0.5,0,0.9,0.3,1.1,0.6l0.8-0.7
				c-0.4-0.5-1.2-0.8-1.9-0.8c-1,0-2.1,0.5-2.1,1.6c0,1,0.8,1.3,1.5,1.5c0.8,0.2,1.2,0.3,1.2,0.7c0,0.5-0.5,0.6-0.8,0.6
				c-0.6,0-1-0.3-1.3-0.6l-0.8,0.8c0.5,0.5,1.3,0.8,2.1,0.8c1.1,0,2.1-0.5,2.1-1.7C77.6,39.6,76.7,39.3,76,39.1"/>
			<path id="XMLID_686_" class="st0" d="M79.3,39.1c0.1-0.7,0.7-1.2,1.4-1.2c0.8,0,1.2,0.6,1.2,1.2H79.3z M80.7,36.9
				c-1.6,0-2.7,1.1-2.7,2.8c0,1.7,1.2,2.7,2.8,2.7c1,0,1.7-0.3,2.2-1l-0.9-0.7c-0.3,0.4-0.7,0.7-1.4,0.7c-0.8,0-1.4-0.5-1.5-1.3h3.9
				c0-0.1,0-0.2,0-0.3C83.2,37.8,82.2,36.9,80.7,36.9"/>
			<path id="XMLID_685_" class="st0" d="M86.9,36.9c-0.1,0-0.2,0-0.3,0c-0.7,0-1.2,0.4-1.5,1h0V37h-1.2v5.2h1.3v-2.8
				c0-0.4,0.2-1.4,1.4-1.4c0.1,0,0.2,0,0.4,0.1V36.9z"/>
		</g>
		<polygon id="XMLID_683_" class="st0" points="92.5,37 91.1,37 89.8,40.8 89.7,40.8 88.4,37 87,37 89.1,42.2 90.4,42.2 		"/>
		<g id="XMLID_675_">
			<path id="XMLID_680_" class="st0" d="M94.4,41.3c-0.4,0-0.9-0.1-0.9-0.6c0-0.8,1.2-0.9,2-0.9h0.3V40
				C95.8,40.8,95.3,41.3,94.4,41.3 M95.8,41.5v0.7H97v-3.1c0-1-0.5-2.2-2.3-2.2c-0.8,0-1.6,0.3-2.2,0.8l0.7,0.8
				c0.3-0.3,0.9-0.6,1.4-0.6c0.6,0,1.2,0.3,1.2,0.9V39c-1.6,0-3.5,0.2-3.5,1.8c0,1.2,1.1,1.6,1.9,1.6C94.9,42.3,95.5,42,95.8,41.5
				L95.8,41.5z"/>
			<path id="XMLID_679_" class="st0" d="M99.4,35.5h-1.3V37h-0.9v1h0.9v2.4c0,1,0.3,1.8,1.7,1.8c0.3,0,0.6-0.1,0.9-0.1l0-1
				c-0.1,0.1-0.4,0.1-0.5,0.1c-0.6,0-0.7-0.3-0.7-0.8v-2.4h1.3v-1h-1.3V35.5z"/>
			<path id="XMLID_676_" class="st0" d="M103.7,37.9c1,0,1.5,0.8,1.5,1.7c0,0.8-0.5,1.7-1.5,1.7c-1,0-1.5-0.9-1.5-1.7
				C102.2,38.8,102.7,37.9,103.7,37.9 M103.7,42.3c1.6,0,2.8-1.1,2.8-2.7c0-1.6-1.2-2.7-2.8-2.7c-1.6,0-2.8,1.1-2.8,2.7
				C100.9,41.2,102.2,42.3,103.7,42.3"/>
		</g>
		<polygon id="XMLID_674_" class="st0" points="105.4,35.4 103.9,35.4 103.2,36.6 104.2,36.6 		"/>
		<g id="XMLID_671_">
			<path id="XMLID_673_" class="st0" d="M108.2,37.9L108.2,37.9l0-0.9h-1.2v5.2h1.3v-2.8c0-0.4,0.2-1.4,1.4-1.4c0.1,0,0.2,0,0.4,0.1
				v-1.2c-0.1,0-0.2,0-0.3,0C109,36.9,108.4,37.3,108.2,37.9"/>
			<path id="XMLID_672_" class="st0" d="M111.3,35.3c-0.4,0-0.7,0.3-0.7,0.7c0,0.3,0.3,0.6,0.7,0.6c0.4,0,0.7-0.3,0.7-0.6
				C112,35.6,111.7,35.3,111.3,35.3"/>
		</g>
		<rect id="XMLID_670_" x="110.6" y="37" class="st0" width="1.3" height="5.2"/>
		<g id="XMLID_666_">
			<path id="XMLID_667_" class="st0" d="M115.1,41.3c-1,0-1.5-0.9-1.5-1.7c0-0.8,0.5-1.7,1.5-1.7c1,0,1.5,0.8,1.5,1.7
				C116.6,40.4,116.1,41.3,115.1,41.3 M115.1,36.9c-1.6,0-2.8,1.1-2.8,2.7c0,1.6,1.2,2.7,2.8,2.7c1.6,0,2.8-1.1,2.8-2.7
				C117.9,38,116.7,36.9,115.1,36.9"/>
		</g>
		<path id="XMLID_663_" class="st1" d="M63.4,47.3l0.7-1.7l0.7,1.7H63.4z M63.9,45.1l-1.4,3.3h0.4l0.4-0.9H65l0.4,0.9h0.4l-1.4-3.3
			H63.9z"/>
		<g id="XMLID_657_">
			<path id="XMLID_660_" class="st1" d="M66.9,48.2c-0.5,0-0.8-0.4-0.8-0.8c0-0.5,0.3-0.8,0.8-0.8c0.5,0,0.8,0.4,0.8,0.8
				C67.7,47.8,67.4,48.2,66.9,48.2 M67.7,46.6L67.7,46.6c-0.2-0.3-0.5-0.4-0.8-0.4c-0.7,0-1.1,0.5-1.1,1.1c0,0.6,0.4,1.1,1.1,1.1
				c0.3,0,0.7-0.2,0.8-0.4h0v0.4c0,0.5-0.2,0.9-0.8,0.9c-0.3,0-0.7-0.2-0.8-0.4l-0.2,0.2c0.3,0.3,0.6,0.4,1,0.4c1,0,1.2-0.7,1.2-1.1
				v-2.2h-0.3V46.6z"/>
			<path id="XMLID_659_" class="st1" d="M68.8,46.6L68.8,46.6c0-0.1,0-0.3,0-0.4h-0.3c0,0.1,0,0.4,0,0.5v1.7h0.3v-1.1
				c0-0.6,0.3-0.8,0.6-0.8c0.1,0,0.2,0,0.2,0l0-0.3c-0.1,0-0.1,0-0.2,0C69.2,46.2,69,46.4,68.8,46.6"/>
			<path id="XMLID_658_" class="st1" d="M70.1,45.2c-0.1,0-0.2,0.1-0.2,0.2c0,0.1,0.1,0.2,0.2,0.2c0.1,0,0.2-0.1,0.2-0.2
				C70.3,45.3,70.2,45.2,70.1,45.2"/>
		</g>
		<rect id="XMLID_656_" x="69.9" y="46.3" class="st1" width="0.3" height="2.2"/>
		<g id="XMLID_653_">
			<path id="XMLID_655_" class="st1" d="M71.8,48.2c-0.5,0-0.8-0.4-0.8-0.9c0-0.5,0.3-0.9,0.8-0.9c0.2,0,0.5,0.1,0.6,0.3l0.2-0.2
				c-0.2-0.3-0.5-0.4-0.8-0.4c-0.7,0-1.2,0.5-1.2,1.1c0,0.7,0.5,1.1,1.2,1.1c0.4,0,0.6-0.1,0.8-0.4l-0.2-0.2
				C72.3,48.1,72.1,48.2,71.8,48.2"/>
			<path id="XMLID_654_" class="st1" d="M74.7,46.3h-0.3v1.1c0,0.6-0.3,0.8-0.7,0.8c-0.5,0-0.6-0.3-0.6-0.8v-1.2h-0.3v1.3
				c0,0.5,0.3,0.9,0.8,0.9c0.3,0,0.6-0.2,0.7-0.4h0c0,0.1,0,0.3,0,0.4h0.3c0-0.1,0-0.4,0-0.5V46.3z"/>
		</g>
		<rect id="XMLID_652_" x="75.3" y="44.9" class="st1" width="0.3" height="3.5"/>
		<g id="XMLID_631_">
			<path id="XMLID_651_" class="st1" d="M76.5,45.6h-0.3v0.6h-0.5v0.3h0.5v1.4c0,0.5,0.3,0.6,0.6,0.6c0.1,0,0.3,0,0.4-0.1l0-0.3
				c-0.1,0-0.2,0.1-0.3,0.1c-0.2,0-0.3-0.1-0.3-0.4v-1.3h0.6v-0.3h-0.6V45.6z"/>
			<path id="XMLID_650_" class="st1" d="M79.2,46.3h-0.3v1.1c0,0.6-0.3,0.8-0.7,0.8c-0.5,0-0.6-0.3-0.6-0.8v-1.2h-0.3v1.3
				c0,0.5,0.3,0.9,0.8,0.9c0.3,0,0.6-0.2,0.7-0.4h0c0,0.1,0,0.3,0,0.4h0.3c0-0.1,0-0.4,0-0.5V46.3z"/>
			<path id="XMLID_649_" class="st1" d="M81,46.2c-0.1,0-0.1,0-0.2,0c-0.3,0-0.6,0.2-0.7,0.4h0c0-0.1,0-0.3,0-0.4h-0.3
				c0,0.1,0,0.4,0,0.5v1.7h0.3v-1.1c0-0.6,0.3-0.8,0.6-0.8c0.1,0,0.2,0,0.2,0L81,46.2z"/>
			<path id="XMLID_646_" class="st1" d="M82.5,47.5c0,0.4-0.3,0.7-0.7,0.7c-0.2,0-0.5-0.1-0.5-0.4c0-0.4,0.6-0.5,1.1-0.5h0.1V47.5z
				 M82.8,47c0-0.5-0.4-0.8-0.8-0.8c-0.4,0-0.7,0.1-0.9,0.3l0.2,0.2c0.2-0.2,0.4-0.3,0.6-0.3c0.4,0,0.6,0.2,0.6,0.6v0.1
				c-0.8,0-1.5,0.1-1.5,0.7c0,0.5,0.4,0.7,0.8,0.7c0.3,0,0.6-0.1,0.8-0.4h0c0,0.1,0,0.2,0,0.4h0.3c0-0.1,0-0.3,0-0.5V47z"/>
			<path id="XMLID_643_" class="st1" d="M85.2,48.2c-0.5,0-0.8-0.4-0.8-0.9c0-0.5,0.3-0.9,0.8-0.9c0.5,0,0.8,0.4,0.8,0.9
				C86,47.8,85.7,48.2,85.2,48.2 M86,46.6L86,46.6c-0.2-0.3-0.5-0.4-0.8-0.4c-0.7,0-1.1,0.5-1.1,1.1c0,0.6,0.4,1.1,1.1,1.1
				c0.3,0,0.6-0.1,0.8-0.4h0v0.4h0.3v-3.5H86V46.6z"/>
			<path id="XMLID_640_" class="st1" d="M87,47.2c0-0.4,0.3-0.7,0.8-0.7c0.4,0,0.7,0.3,0.7,0.7H87z M87.8,46.2
				c-0.6,0-1.1,0.5-1.1,1.1c0,0.7,0.5,1.1,1.1,1.1c0.4,0,0.7-0.1,0.9-0.5l-0.2-0.2c-0.1,0.2-0.4,0.4-0.7,0.4c-0.4,0-0.8-0.4-0.8-0.8
				h1.8c0-0.1,0-0.1,0-0.1C88.8,46.7,88.5,46.2,87.8,46.2"/>
			<path id="XMLID_636_" class="st1" d="M91.1,48.1h-0.6v-1.3h0.7c0.5,0,0.8,0.2,0.8,0.6C92,48,91.6,48.1,91.1,48.1 M90.5,45.4h0.6
				c0.4,0,0.8,0.2,0.8,0.6c0,0.4-0.4,0.6-0.7,0.6h-0.7V45.4z M91.6,46.7L91.6,46.7c0.3-0.1,0.6-0.4,0.6-0.7c0-0.7-0.6-0.8-1.1-0.8
				h-1v3.3h1c0.8,0,1.2-0.4,1.2-0.9C92.3,47,92,46.7,91.6,46.7"/>
			<path id="XMLID_633_" class="st1" d="M94.2,47.5c0,0.4-0.3,0.7-0.7,0.7c-0.2,0-0.5-0.1-0.5-0.4c0-0.4,0.6-0.5,1.1-0.5h0.1V47.5z
				 M94.5,47c0-0.5-0.4-0.8-0.8-0.8c-0.4,0-0.7,0.1-0.9,0.3l0.2,0.2c0.2-0.2,0.4-0.3,0.6-0.3c0.4,0,0.6,0.2,0.6,0.6v0.1
				c-0.8,0-1.5,0.1-1.5,0.7c0,0.5,0.4,0.7,0.8,0.7c0.3,0,0.6-0.1,0.8-0.4h0c0,0.1,0,0.2,0,0.4h0.3c0-0.1,0-0.3,0-0.5V47z"/>
			<path id="XMLID_632_" class="st1" d="M95.2,45.2c-0.1,0-0.2,0.1-0.2,0.2c0,0.1,0.1,0.2,0.2,0.2c0.1,0,0.2-0.1,0.2-0.2
				C95.4,45.3,95.3,45.2,95.2,45.2"/>
		</g>
		<rect id="XMLID_630_" x="95" y="46.3" class="st1" width="0.3" height="2.2"/>
		<polygon id="XMLID_629_" class="st1" points="97.6,46.3 97.2,46.3 96.6,47.1 96,46.3 95.6,46.3 96.4,47.3 95.5,48.4 95.9,48.4 
			96.6,47.5 97.2,48.4 97.6,48.4 96.8,47.3 		"/>
		<path id="XMLID_626_" class="st1" d="M98.8,48.2c-0.5,0-0.8-0.4-0.8-0.9c0-0.5,0.3-0.9,0.8-0.9c0.5,0,0.8,0.4,0.8,0.9
			C99.6,47.8,99.3,48.2,98.8,48.2 M98.8,46.2c-0.7,0-1.2,0.5-1.2,1.1s0.5,1.1,1.2,1.1c0.7,0,1.2-0.5,1.2-1.1S99.5,46.2,98.8,46.2"/>
		<path id="XMLID_625_" class="st1" d="M102.6,48.2c-0.8,0-1.4-0.7-1.4-1.4c0-0.8,0.5-1.4,1.4-1.4c0.4,0,0.7,0.2,0.9,0.4l0.3-0.2
			c-0.2-0.3-0.7-0.5-1.2-0.5c-1,0-1.7,0.7-1.7,1.7c0,1,0.7,1.7,1.7,1.7c0.6,0,1-0.3,1.2-0.6l-0.3-0.2
			C103.4,48.1,103,48.2,102.6,48.2"/>
		<path id="XMLID_622_" class="st1" d="M105.4,47.5c0,0.4-0.3,0.7-0.7,0.7c-0.2,0-0.5-0.1-0.5-0.4c0-0.4,0.6-0.5,1.1-0.5h0.1V47.5z
			 M105.7,47c0-0.5-0.4-0.8-0.8-0.8c-0.4,0-0.7,0.1-0.9,0.3l0.2,0.2c0.2-0.2,0.4-0.3,0.6-0.3c0.4,0,0.6,0.2,0.6,0.6v0.1
			c-0.8,0-1.5,0.1-1.5,0.7c0,0.5,0.4,0.7,0.8,0.7c0.3,0,0.6-0.1,0.8-0.4h0c0,0.1,0,0.2,0,0.4h0.3c0-0.1,0-0.3,0-0.5V47z"/>
		<path id="XMLID_621_" class="st1" d="M106.6,46.6L106.6,46.6c0-0.1,0-0.3,0-0.4h-0.3c0,0.1,0,0.4,0,0.5v1.7h0.3v-1.1
			c0-0.6,0.3-0.8,0.6-0.8c0.1,0,0.2,0,0.2,0l0-0.3c-0.1,0-0.1,0-0.2,0C107,46.2,106.7,46.4,106.6,46.6"/>
		<path id="XMLID_618_" class="st1" d="M108.8,48.2c-0.5,0-0.8-0.4-0.8-0.9c0-0.5,0.3-0.9,0.8-0.9c0.5,0,0.8,0.4,0.8,0.9
			S109.3,48.2,108.8,48.2 M108.8,46.2c-0.3,0-0.6,0.1-0.8,0.4h0v-1.7h-0.3v3.5h0.3v-0.4h0c0.2,0.3,0.5,0.4,0.8,0.4
			c0.7,0,1.1-0.5,1.1-1.1C109.9,46.7,109.5,46.2,108.8,46.2"/>
		<path id="XMLID_615_" class="st1" d="M111.3,48.2c-0.5,0-0.8-0.4-0.8-0.9c0-0.5,0.3-0.9,0.8-0.9c0.5,0,0.8,0.4,0.8,0.9
			C112.2,47.8,111.8,48.2,111.3,48.2 M111.3,46.2c-0.7,0-1.2,0.5-1.2,1.1s0.5,1.1,1.2,1.1c0.7,0,1.2-0.5,1.2-1.1
			S112,46.2,111.3,46.2"/>
		<path id="XMLID_614_" class="st1" d="M113.9,46.2c-0.3,0-0.6,0.2-0.7,0.4h0c0-0.1,0-0.3,0-0.4h-0.3c0,0.1,0,0.4,0,0.5v1.7h0.3
			v-1.1c0-0.6,0.3-0.8,0.7-0.8c0.5,0,0.6,0.3,0.6,0.8v1.2h0.3v-1.3C114.8,46.6,114.5,46.2,113.9,46.2"/>
		<path id="XMLID_611_" class="st1" d="M116.3,48.2c-0.5,0-0.8-0.4-0.8-0.9c0-0.5,0.3-0.9,0.8-0.9c0.5,0,0.8,0.4,0.8,0.9
			C117.1,47.8,116.8,48.2,116.3,48.2 M116.3,46.2c-0.7,0-1.2,0.5-1.2,1.1s0.5,1.1,1.2,1.1c0.7,0,1.2-0.5,1.2-1.1
			S117,46.2,116.3,46.2"/>
	</g>
	<g id="XMLID_550_">
		<path id="XMLID_609_" class="st0" d="M49.5,21.8c0.1-0.1,0.1-0.2,0-0.3l-1.9-1.7c-0.1-0.1-0.2-0.1-0.3,0l-2,2.1l-2.7-1.8
			c-0.1,0-0.1,0-0.2,0L41,22.4c0,0,0,0.1,0,0.1c0,0,0,0.1,0,0.1l3.1,2.1v2.2c0.4,0.1,0.8,0.1,1.3,0.1c0.6,0,1.2-0.1,1.7-0.2v-2.3
			L49.5,21.8z"/>
		<path id="XMLID_608_" class="st0" d="M44.1,29.8v4.1h3v-4.1c-0.5,0.1-1.1,0.2-1.7,0.2C44.9,29.9,44.5,29.8,44.1,29.8"/>
		<path id="XMLID_607_" class="st0" d="M38.4,15C38.4,15,38.4,15.1,38.4,15C38.4,15.1,38.4,15,38.4,15"/>
		<path id="XMLID_606_" class="st0" d="M45.4,11.7c-0.9,0-1.8,0.1-2.6,0.4C42.5,13.4,42,15,41,16.5c1.1-1.1,2.7-1.8,4.4-1.8
			c3.4,0,6.1,2.8,6.1,6.1c0,2.8-1.9,5.2-4.4,5.9v3c4.2-0.8,7.4-4.5,7.4-8.9C54.4,15.8,50.4,11.7,45.4,11.7"/>
		<path id="XMLID_605_" class="st0" d="M39.2,20.8c0-1.3,0.4-2.5,1.1-3.4c0,0,0,0,0,0c-1.1,1.1-2.4,1.9-3.9,2.4c0,0.3-0.1,0.7-0.1,1
			c0,4.6,3.4,8.4,7.8,9v-3C41.3,26.2,39.2,23.8,39.2,20.8"/>
		<path id="XMLID_604_" class="st0" d="M45.4,26.9c-0.4,0-0.9,0-1.3-0.1v3c0.4,0.1,0.8,0.1,1.3,0.1c0.6,0,1.1-0.1,1.7-0.2v-3
			C46.5,26.9,46,26.9,45.4,26.9"/>
		<path id="XMLID_603_" class="st2" d="M24.1,22.3c0,0-0.1,0-0.1,0.1l-1.7,1c-0.1,0-0.1,0.1-0.1,0.2c0,0.1,0,0.1,0.1,0.2l1.6,1.1
			c0,0,0.1,0.1,0.1,0.1l0,0v0c0,0,0,0,0,0c0.3,0,0.5-0.6,0.5-1.3C24.7,22.9,24.5,22.3,24.1,22.3C24.2,22.3,24.2,22.3,24.1,22.3
			L24.1,22.3L24.1,22.3z"/>
		<path id="XMLID_602_" class="st2" d="M24.4,34.4c-0.5,0-0.9,0.4-0.9,0.9s0.4,0.9,0.9,0.9c0.5,0,0.9-0.4,0.9-0.9
			S24.9,34.4,24.4,34.4"/>
		<path id="XMLID_601_" class="st2" d="M41,16.5c-0.3,0.3-0.5,0.5-0.7,0.9C40.5,17.1,40.8,16.8,41,16.5"/>
		<path id="XMLID_598_" class="st2" d="M16.5,24.4c-1.5,1.1-2.8,1.3-4.1,1.3c0,0-0.1,0-0.1,0c0,0,0-0.1,0-0.1
			c1.2-3.7,4.1-4.9,6.6-5.2C18.5,22.2,17.7,23.6,16.5,24.4 M38.1,15.3c-1.2,1.3-2.9,1.9-5.2,1.9c-6.4,0.1-9.6,0-10.7,0V14
			c0,0,0.1,0,0.1,0c1,0,1.6,0,2.5,0c8,0,11.8,0,14.8-1.2c-0.2,0.8-0.6,1.6-1.2,2.3c1.1-1.3,2.6-2.4,4.4-2.9c0.2-1.3,0.2-2.2,0.2-2.3
			c0-0.2-0.1-2-0.1-2.6c0,0,0-0.1-0.1-0.1c0,0-0.1,0-0.1,0c-0.5,0.4-1.8,1.4-2.1,1.6c-3,2.2-5.6,2.3-15.8,2.3c-0.9,0-1.8,0-2.8,0
			c-4.1,0-7.2,0.2-9.7,0.8c-2.2,2.2-4.1,4.7-5.3,7.6c1.1-1.9,2.7-4,5.6-4.6c1.5-0.3,4.2-0.6,6.6-0.7v3.3c-1,0.1-2.2,0.3-3.5,0.7
			c-4.3,1.4-6.2,4.4-6.7,8.7L8.9,28c0,0.1,0,0.1,0.1,0.1l1.2,0.3c0.1,0,1.1,0.3,2.6,0.3c1.7,0,3.5-0.3,5.5-1.8
			c2-1.4,3.3-3.7,3.8-6.6c0.7,0,2.7,0,6.7,0v7.8c-5.6,0.8-9.3,4.4-10.7,7.3l2.5,1.3c1.1-2.2,4-5.3,8.1-5.8v4.9H32V20.3
			c0.4,0,0.5,0,1,0c1.2,0,2.4-0.2,3.4-0.5c0.2-1.8,0.9-3.4,2-4.7C38.3,15.2,38.2,15.3,38.1,15.3"/>
		<path id="XMLID_597_" class="st2" d="M40.3,17.4C40.3,17.4,40.3,17.4,40.3,17.4c0.2-0.3,0.5-0.6,0.7-0.9c1.1-1.5,1.5-3.1,1.8-4.4
			c-1.7,0.5-3.2,1.5-4.4,2.9c0,0,0,0.1-0.1,0.1c-1.1,1.3-1.8,2.9-2,4.7C37.9,19.3,39.2,18.5,40.3,17.4"/>
		<path id="XMLID_596_" class="st3" d="M2.9,20.9c0.5-1.7,2.8-7.4,9-9c0.2,0,0.3-0.1,0.5-0.1c4.4-4.3,10.4-6.9,17-6.9
			c3.2,0,5.3,0.3,8,1.4c0,0,0.1,0,0.1,0c1-0.5,2.5-1.5,3.3-2.5c0,0,0-0.1,0-0.1c0,0,0-0.1-0.1-0.1c-3.6-1.7-7.2-2.5-11.4-2.5
			C13.7,1.1,1,13.8,1,29.4c0,0.7,0,1,0,1.7c0,0,0,0.1,0.1,0.1c0,0,0.1,0,0.1,0c1.1-0.5,2.2-0.8,3.4-1.1c0.1,0,0.2-0.1,0.2-0.2
			c0-0.2,0-0.1,0-0.4c0-3.6,0.8-7,2.1-10c-0.5,0.9-0.9,1.8-1.3,2.4L2.9,20.9z"/>
		<path id="XMLID_595_" class="st3" d="M12.3,11.8c-0.2,0-0.3,0.1-0.5,0.1c-6.1,1.6-8.4,7.3-9,9l2.8,0.9C6,21.2,6.4,20.3,7,19.4
			C8.2,16.5,10.1,13.9,12.3,11.8"/>
		<path id="XMLID_594_" class="st2" d="M10.4,37.8c3.7,0,7.2,1,10.3,2.9c0.6-0.5,1.3-1,2-1.5c0.4-0.3,0.9-0.6,1.4-0.9
			c-4-2.8-8.7-4.3-13.7-4.3h0c-2.9,0-5.7,0.5-8.4,1.5c0.3,1.3,0.7,2.5,1.1,3.7C5.4,38.3,7.8,37.8,10.4,37.8"/>
		<path id="XMLID_593_" class="st4" d="M17.2,54.6c1.1,0.6,2.3,1,3.5,1.4c4.7-8.2,13.6-13.5,23.4-13.5c3.2,0,6.3,0.6,9.3,1.7
			c0.7-1.1,1.3-2.2,1.8-3.4c-3.5-1.4-7.3-2.1-11.1-2.1C32.8,38.7,22.5,44.9,17.2,54.6"/>
		<path id="XMLID_592_" class="st4" d="M23.8,56.8c1.4,0.3,2.8,0.5,4.3,0.5c3.7-4.9,9.6-8,16-8c1.5,0,3,0.2,4.5,0.5
			c1.1-1,2-2,2.9-3.2c-2.4-0.8-4.9-1.2-7.5-1.2C35.8,45.6,28.1,49.9,23.8,56.8"/>
		<path id="XMLID_591_" class="st4" d="M32.1,57.3C37.2,56.8,42,55,46,52.1c-0.5,0-1-0.1-1.6-0.1C39.7,52,35.2,54,32.1,57.3"/>
		<path id="XMLID_590_" class="st4" d="M24,38.3c0.3,0.2,0.5,0.4,0.8,0.6l-2.3,3c-0.6-0.4-1.2-0.9-1.8-1.2c-0.8,0.6-1.5,1.3-2.3,2
			c0,0,0.1,0,0.1,0L16.6,46c-0.3-0.2-0.6-0.3-0.9-0.5c-0.7,0.8-1.4,1.7-2.1,2.6c0.2,0.1,0.4,0.2,0.6,0.3l-1.7,3.4
			c-0.1,0-0.1-0.1-0.2-0.1c0.8,0.6,1.6,1.2,2.4,1.7c5.9-10.4,17.1-17.1,29.3-17.1c4.2,0,8.2,0.8,12.1,2.2c0.4-1.2,0.7-2.4,1-3.7
			c-4.2-1.6-8.5-2.3-13.1-2.3C36.9,32.4,30,34.4,24,38.3"/>
		<path id="XMLID_585_" class="st4" d="M24.8,38.9c-0.3-0.2-0.5-0.4-0.8-0.6c-0.5,0.3-0.9,0.6-1.4,0.9c-0.7,0.5-1.3,1-2,1.5
			c0.6,0.4,1.2,0.8,1.8,1.2L24.8,38.9z"/>
		<path id="XMLID_554_" class="st4" d="M15.7,45.5c0.9-1,1.8-1.9,2.7-2.8c-2.5-1.4-5.2-2.1-8.1-2.1c-2.1,0-4.2,0.4-6.2,1.2
			C4.8,42.9,5.4,44,6.1,45c1.3-0.5,2.8-0.7,4.2-0.7C12.2,44.3,14,44.7,15.7,45.5"/>
		<path id="XMLID_553_" class="st4" d="M15.7,45.5c0.3,0.1,0.6,0.3,0.9,0.5l1.9-3.3c0,0-0.1,0-0.1,0C17.5,43.5,16.6,44.5,15.7,45.5"
			/>
		<path id="XMLID_552_" class="st4" d="M10.4,47.4c-0.7,0-1.5,0.1-2.2,0.3c1.1,1.2,2.3,2.4,3.5,3.4c0.6-1,1.2-2,1.9-3
			C12.6,47.7,11.5,47.4,10.4,47.4"/>
		<path id="XMLID_551_" class="st4" d="M14.3,48.4c-0.2-0.1-0.4-0.2-0.6-0.3c-0.7,1-1.3,2-1.9,3c0.2,0.2,0.4,0.4,0.7,0.5
			c0.1,0,0.1,0.1,0.2,0.1L14.3,48.4z"/>
	</g>
</g>
</svg>
