<?xml version="1.0" encoding="utf-8"?>
<!-- Generator: Adobe Illustrator 16.0.0, SVG Export Plug-In . SVG Version: 6.00 Build 0)  -->
<!DOCTYPE svg PUBLIC "-//W3C//DTD SVG 1.1//EN" "http://www.w3.org/Graphics/SVG/1.1/DTD/svg11.dtd">
<svg version="1.1" id="Layer_1" xmlns="http://www.w3.org/2000/svg" xmlns:xlink="http://www.w3.org/1999/xlink" x="0px" y="0px"
	 width="116px" height="143.926px" viewBox="69.14 546.445 116 143.926" enable-background="new 69.14 546.445 116 143.926"
	 xml:space="preserve">
<g>
	<g>
		<path fill="#FB963B" d="M121.902,614.087v2.06h-15.93v14.847h15.93v2.059h-15.93v14.846h15.93v2.06h-17.88v-35.761h17.88V614.087z
			"/>
		<path fill="#FB963B" d="M145.527,614.087v2.06h-15.931v14.847h15.931v2.059h-15.931v14.846h15.931v2.06h-17.881v-35.761h17.881
			V614.087z"/>
		<path fill="#FB963B" d="M180.854,645.514c-3.36,3.251-7.478,4.876-12.138,4.876c-5.093,0-9.428-1.733-13.003-5.31
			s-5.31-7.911-5.31-13.004c0-5.094,1.734-9.428,5.31-13.004c3.576-3.575,7.911-5.418,13.003-5.418
			c4.768,0,8.886,1.626,12.354,4.769l-1.517,1.408c-3.035-2.709-6.719-4.117-10.837-4.117c-4.443,0-8.344,1.625-11.486,4.768
			s-4.768,7.043-4.768,11.486c0,4.552,1.625,8.344,4.768,11.596c3.143,3.143,7.043,4.768,11.486,4.768
			c3.901,0,7.261-1.191,10.187-3.576v-10.944h2.059L180.854,645.514L180.854,645.514z"/>
	</g>
	<path fill="#FB963B" d="M96.112,632.51c0-0.108,0-0.217-0.108-0.217c-0.326-0.758-0.759-1.3-1.192-1.95
		c-0.433-0.651-0.867-1.192-1.409-1.626l-0.108,0.109c-1.842-1.734-4.227-3.035-6.827-4.01c-1.843-0.867-3.143-1.734-4.227-2.71
		c-1.084-1.083-1.625-2.384-1.625-4.009c0-1.518,0.542-2.817,1.625-4.011c1.083-1.082,2.384-1.624,3.901-1.624
		c1.518,0,2.818,0.542,3.901,1.624c0.65,0.651,1.083,1.302,1.3,2.06l1.843-0.758c-0.326-0.977-0.867-1.843-1.734-2.602
		c-1.518-1.517-3.251-2.275-5.419-2.275c-2.167,0-3.901,0.759-5.418,2.275c-1.517,1.518-2.276,3.251-2.276,5.311
		c0,2.167,0.759,3.9,2.276,5.418c1.517,1.517,3.468,2.709,6.069,3.467c2.167,0.867,4.009,2.06,5.418,3.577
		c0.542,0.542,0.975,0.975,1.3,1.517c0.108,0.108,0.217,0.217,0.217,0.434c0,0.108,0.108,0.108,0.108,0.217
		c0.758,1.518,1.192,3.143,1.192,4.876c0,2.817-1.084,5.526-3.143,7.478c-4.118,4.118-10.836,4.118-14.955,0
		c-0.867-0.866-1.517-1.734-2.059-2.817l-1.734,0.866c0.65,1.193,1.409,2.385,2.384,3.36c2.493,2.492,5.635,3.684,8.886,3.684
		c3.251,0,6.394-1.191,8.886-3.684c2.384-2.384,3.684-5.527,3.684-8.887C97.195,635.652,96.761,634.027,96.112,632.51z"/>
</g>
<g>
	<path fill="#808284" d="M82.566,657.976v11.27h-1.409v-9.21l-3.684,4.876l-3.684-4.876v9.21H72.38v-11.27h1.517l3.576,4.769
		l3.576-4.769H82.566z"/>
	<path fill="#808284" d="M101.313,659.492c1.083,1.085,1.734,2.493,1.734,4.118c0,1.626-0.542,2.926-1.734,4.118
		c-1.083,1.083-2.492,1.733-4.226,1.733c-1.626,0-3.035-0.542-4.118-1.733c-1.083-1.084-1.734-2.492-1.734-4.118
		c0-1.517,0.542-2.926,1.734-4.118c1.083-1.083,2.492-1.733,4.118-1.733C98.821,657.867,100.229,658.409,101.313,659.492z
		 M97.195,659.059c-1.192,0-2.276,0.434-3.143,1.301c-0.866,0.866-1.3,1.951-1.3,3.251c0,1.301,0.434,2.385,1.3,3.251
		c0.867,0.867,1.951,1.301,3.143,1.301s2.275-0.434,3.143-1.301c0.867-0.866,1.3-1.95,1.3-3.251c0-1.3-0.434-2.385-1.3-3.251
		C99.362,659.492,98.387,659.059,97.195,659.059z"/>
	<path fill="#808284" d="M113.233,657.976l6.394,8.994v-8.994h1.409v11.27h-1.518l-6.285-8.776v8.776h-1.409v-11.27H113.233z"/>
	<path fill="#808284" d="M131.763,657.976v11.27h-1.409v-11.27H131.763z"/>
	<path fill="#808284" d="M144.552,659.167v10.078h-1.41v-10.078h-2.709v-1.191h6.828v1.191H144.552z"/>
	<path fill="#808284" d="M164.924,659.492c1.083,1.085,1.734,2.493,1.734,4.118c0,1.626-0.542,2.926-1.734,4.118
		c-1.084,1.083-2.492,1.733-4.226,1.733c-1.626,0-3.035-0.542-4.118-1.733c-1.083-1.084-1.733-2.492-1.733-4.118
		c0-1.517,0.542-2.926,1.733-4.118c1.083-1.083,2.492-1.733,4.118-1.733C162.323,657.867,163.732,658.409,164.924,659.492z
		 M160.698,659.059c-1.192,0-2.276,0.434-3.143,1.301c-0.867,0.866-1.301,1.951-1.301,3.251c0,1.301,0.434,2.385,1.301,3.251
		c0.867,0.867,1.95,1.301,3.143,1.301c1.191,0,2.275-0.434,3.142-1.301c0.867-0.866,1.301-1.95,1.301-3.251
		c0-1.3-0.434-2.385-1.301-3.251C162.973,659.492,161.998,659.059,160.698,659.059z"/>
	<path fill="#808284" d="M178.145,665.562h-1.3v3.684h-1.409v-11.27h3.251c0.976,0.108,1.734,0.541,2.384,1.083
		c0.758,0.76,1.083,1.626,1.083,2.71c0,0.976-0.434,1.95-1.083,2.709c-0.542,0.542-0.976,0.867-1.3,0.867l2.601,3.9h-1.734
		L178.145,665.562z M176.844,659.167v5.094h1.408c0.65,0,1.192-0.217,1.734-0.759c0.542-0.541,0.758-1.083,0.758-1.842
		s-0.217-1.301-0.758-1.842c-0.542-0.543-1.084-0.76-1.734-0.76L176.844,659.167L176.844,659.167z"/>
	<path fill="#808284" d="M74.547,681.274c0.217,0.217,0.325,0.434,0.325,0.649c0,0.217-0.108,0.542-0.325,0.65
		c-0.217,0.217-0.434,0.325-0.758,0.325c-0.326,0-0.542-0.108-0.759-0.325s-0.325-0.434-0.325-0.65c0-0.216,0.108-0.433,0.325-0.649
		s0.434-0.325,0.759-0.325C74.113,681.058,74.33,681.058,74.547,681.274z"/>
	<path fill="#DB7777" d="M87.117,677.59v0.866h-3.359v2.71h3.359v0.866h-3.359v2.709h3.359v0.867h-4.443v-8.127L87.117,677.59
		L87.117,677.59z"/>
	<path fill="#DB7777" d="M94.594,685.825v-8.127h0.976v7.26h2.926v0.867H94.594L94.594,685.825z"/>
	<path fill="#DB7777" d="M110.09,677.59v0.866h-3.359v2.71h3.359v0.866h-3.359v2.709h3.359v0.867h-4.443v-8.127L110.09,677.59
		L110.09,677.59L110.09,677.59z M109.765,675.53l-1.733,1.301h-1.084l1.192-1.301H109.765z"/>
	<path fill="#DB7777" d="M119.952,678.456v7.261h-0.976v-7.261h-1.95v-0.866h4.876v0.866H119.952L119.952,678.456z"/>
	<path fill="#DB7777" d="M130.896,683.116h-0.975v2.709h-0.975v-8.127h2.384c0.65,0.108,1.192,0.325,1.734,0.866
		c0.542,0.542,0.867,1.191,0.867,1.951c0,0.759-0.325,1.408-0.867,1.95c-0.325,0.325-0.65,0.542-0.976,0.65l1.842,2.817h-1.192
		L130.896,683.116z M129.921,678.456v3.685h0.975c0.434,0,0.867-0.217,1.192-0.541c0.325-0.325,0.542-0.759,0.542-1.302
		c0-0.542-0.217-0.975-0.542-1.299c-0.325-0.325-0.758-0.543-1.192-0.543H129.921L129.921,678.456z"/>
	<path fill="#DB7777" d="M142.058,677.59v8.127h-0.976v-8.127C140.974,677.59,142.058,677.59,142.058,677.59z"/>
	<path fill="#DB7777" d="M155.822,683.983l0.758,0.649c-0.867,0.867-1.95,1.192-3.034,1.192c-1.192,0-2.167-0.434-3.034-1.192
		c-0.867-0.866-1.192-1.842-1.192-2.925c0-1.084,0.433-2.168,1.192-2.926c0.867-0.868,1.842-1.192,3.034-1.192
		c1.084,0,2.167,0.434,3.034,1.192l-0.758,0.649c-0.759-0.649-1.518-0.976-2.276-0.976c-0.867,0-1.625,0.326-2.275,0.976
		c-0.65,0.65-0.976,1.409-0.976,2.276c0,0.975,0.326,1.733,0.976,2.384c0.65,0.649,1.408,0.975,2.275,0.975
		C154.304,684.958,155.063,684.633,155.822,683.983z"/>
	<path fill="#DB7777" d="M170.668,678.674c0.867,0.866,1.192,1.842,1.192,2.926c0,1.083-0.434,2.167-1.192,2.926
		c-0.867,0.866-1.842,1.191-3.035,1.191c-1.192,0-2.167-0.434-3.034-1.191c-0.867-0.867-1.192-1.843-1.192-2.926
		c0-1.084,0.433-2.168,1.192-2.926c0.867-0.867,1.842-1.192,3.034-1.192C168.825,677.481,169.801,677.914,170.668,678.674z
		 M167.633,678.456c-0.867,0-1.625,0.326-2.275,0.976c-0.65,0.65-0.976,1.409-0.976,2.384c0,0.976,0.325,1.734,0.976,2.385
		c0.65,0.649,1.409,0.975,2.275,0.975c0.867,0,1.626-0.325,2.276-0.975c0.65-0.65,0.975-1.409,0.975-2.385
		c0-0.866-0.325-1.733-0.975-2.384C169.259,678.674,168.5,678.456,167.633,678.456z"/>
	<path fill="#808284" d="M181.287,681.274c0.217,0.217,0.325,0.434,0.325,0.649c0,0.217-0.108,0.542-0.325,0.65
		c-0.217,0.217-0.433,0.325-0.759,0.325c-0.325,0-0.542-0.108-0.758-0.325s-0.325-0.434-0.325-0.65c0-0.216,0.108-0.433,0.325-0.649
		s0.433-0.325,0.758-0.325C180.854,680.949,181.071,681.058,181.287,681.274z"/>
</g>
<path fill="#DB7777" d="M134.762,590.513c3.098,3.719,2.479,9.296-1.395,12.238c-3.718,3.099-9.294,2.479-12.238-1.394
	c-3.098-3.718-16.73-34.7-16.73-34.7S131.818,586.796,134.762,590.513z"/>
<g>
	<path fill="#FFFFFF" d="M126.086,601.512c-0.155,0,1.859-4.337,1.859-4.492s-2.169-0.93-2.324-1.239s4.183-5.268,4.337-5.112
		s-1.858,4.338-1.858,4.493c0,0.154,2.323,0.929,2.323,1.238C130.579,596.71,126.241,601.512,126.086,601.512z"/>
</g>
<path fill="#FB963B" d="M168.843,571.925l2.479-1.859c-6.352-8.365-15.027-14.872-25.096-18.435l-0.929,2.943
	C154.745,557.982,162.801,564.023,168.843,571.925z"/>
<path fill="#74E2A8" d="M127.635,551.477c5.112,0,10.07,0.773,14.717,2.168l0.929-2.943c-4.957-1.394-10.224-2.323-15.646-2.323
	c-5.422,0-10.689,0.774-15.646,2.323l0.929,2.943C117.721,552.25,122.524,551.477,127.635,551.477z"/>
<path fill="#DB7777" d="M109.976,554.574l-0.929-2.943c-10.07,3.718-18.745,10.069-25.096,18.435l2.479,1.859
	C92.47,564.023,100.681,557.982,109.976,554.574z"/>
<path fill="#DBDB77" d="M75.895,602.131c0.155-10.224,3.408-19.828,8.831-27.728l-2.479-1.859c-5.732,8.52-9.14,18.589-9.45,29.587
	c0,0.311,0,0.776,0,1.086c0,0.619,0,1.394,0,2.013h3.098c0-0.619,0-1.394,0-2.013C75.895,602.907,75.895,602.441,75.895,602.131z"/>
<path fill="#75C7E0" d="M182.63,602.131c-0.155-10.998-3.718-21.067-9.45-29.587l-2.479,1.859
	c5.422,7.899,8.521,17.504,8.831,27.728c0,0.311,0,0.776,0,1.086c0,0.619,0,1.394,0,2.013h3.098c0-0.619,0-1.394,0-2.013
	C182.63,602.907,182.63,602.441,182.63,602.131z"/>
</svg>
