<?xml version="1.0" encoding="utf-8"?>
<!-- Generator: Adobe Illustrator 16.0.0, SVG Export Plug-In . SVG Version: 6.00 Build 0)  -->
<!DOCTYPE svg PUBLIC "-//W3C//DTD SVG 1.1//EN" "http://www.w3.org/Graphics/SVG/1.1/DTD/svg11.dtd">
<svg version="1.1" id="Layer_1" xmlns="http://www.w3.org/2000/svg" xmlns:xlink="http://www.w3.org/1999/xlink" x="0px" y="0px"
	 width="207.5px" height="90px" viewBox="0 0 207.5 90" enable-background="new 0 0 207.5 90" xml:space="preserve">
<g>
	<path fill="#74C6DF" d="M31.651,85.694c-5.388,0-10.827-1.291-15.87-3.936l1.307-2.469c12.166,6.395,26.891,4.156,36.63-5.572
		l1.97,1.971C49.115,82.259,40.451,85.694,31.651,85.694"/>
	<path fill="#73E1A7" d="M31.616,80.231c-7.33,0-14.664-2.787-20.246-8.365c-6.454-6.439-9.398-15.312-8.094-24.34l2.761,0.396
		c-1.172,8.152,1.489,16.16,7.305,21.969c10.077,10.064,26.472,10.07,36.55,0l1.971,1.973
		C46.281,77.444,38.947,80.231,31.616,80.231"/>
	<path fill="#DADA76" d="M31.616,74.829c-5.949,0-11.896-2.264-16.422-6.785c-9.059-9.041-9.059-23.767,0-32.818
		c3.479-3.479,7.895-5.728,12.737-6.502l0.444,2.752c-4.269,0.684-8.142,2.66-11.21,5.723c-7.965,7.962-7.965,20.914,0,28.878
		c7.969,7.955,20.932,7.955,28.903,0l1.972,1.967C43.516,72.567,37.564,74.829,31.616,74.829"/>
	<path fill="#FA953A" d="M31.616,69.604c-4.803,0-9.324-1.865-12.717-5.264c-3.402-3.395-5.269-7.906-5.269-12.705
		c0-4.791,1.867-9.31,5.269-12.699c7.006-7.012,18.42-7.017,25.436-0.01c1.416,1.418,2.566,3.032,3.441,4.801l-2.508,1.226
		c-0.735-1.495-1.715-2.855-2.905-4.053c-5.929-5.919-15.562-5.919-21.491,0.002c-2.874,2.866-4.447,6.676-4.447,10.731
		c0,4.059,1.572,7.871,4.447,10.734c2.872,2.875,6.684,4.443,10.744,4.443c4.057,0,7.873-1.568,10.741-4.443l1.979,1.971
		C40.941,67.737,36.421,69.604,31.616,69.604"/>
	<path fill="#DA7676" d="M31.616,41.829c-2.619,0-5.089,1.019-6.948,2.868c-1.853,1.854-2.877,4.322-2.877,6.939
		c0,2.621,1.024,5.088,2.877,6.943c1.858,1.852,4.329,2.869,6.948,2.869c2.621,0,5.09-1.02,6.948-2.869
		c3.833-3.834,3.833-10.059,0-13.883C36.706,42.845,34.244,41.829,31.616,41.829 M31.616,64.239c-3.368,0-6.537-1.311-8.918-3.689
		c-2.383-2.385-3.701-5.545-3.701-8.914c0-3.365,1.317-6.529,3.701-8.91c2.381-2.381,5.551-3.692,8.918-3.692
		c3.371,0,6.536,1.312,8.92,3.692c4.923,4.91,4.923,12.908,0,17.824C38.153,62.931,34.988,64.239,31.616,64.239"/>
	<polygon fill="#FA953A" points="116.831,6.28 116.831,9.186 94.032,9.186 94.032,30.511 116.831,30.511 116.831,33.417 
		94.032,33.417 94.032,54.741 116.831,54.741 116.831,57.647 91.129,57.647 91.129,6.28 	"/>
	<polygon fill="#FA953A" points="150.674,6.28 150.674,9.186 127.878,9.186 127.878,30.511 150.674,30.511 150.674,33.417 
		127.878,33.417 127.878,54.741 150.674,54.741 150.674,57.647 124.966,57.647 124.966,6.28 	"/>
	<path fill="#FA953A" d="M201.246,51.253c-4.865,4.674-10.695,7.008-17.484,7.008c-7.299,0-13.506-2.561-18.637-7.686
		c-5.125-5.118-7.687-11.323-7.687-18.614c0-7.239,2.562-13.434,7.687-18.581c5.131-5.149,11.338-7.714,18.637-7.714
		c6.789,0,12.688,2.282,17.703,6.859l-2.217,1.965c-4.416-3.903-9.574-5.849-15.486-5.849c-6.456,0-11.956,2.277-16.525,6.829
		c-4.572,4.551-6.854,10.05-6.854,16.49c0,6.471,2.281,11.971,6.854,16.529c4.568,4.557,10.069,6.834,16.525,6.834
		c5.521,0,10.4-1.703,14.615-5.094V34.581h2.869V51.253L201.246,51.253z"/>
	<path fill="#FA953A" d="M79.8,32.595c-0.018-0.117-0.061-0.246-0.119-0.377c-0.434-0.986-0.998-1.918-1.667-2.812
		c-0.602-0.854-1.263-1.661-2.011-2.417l-0.093,0.095c-2.705-2.53-5.973-4.425-9.819-5.669c-2.573-1.186-4.585-2.489-6.042-3.919
		c-1.547-1.574-2.322-3.466-2.322-5.67c0-2.23,0.781-4.116,2.343-5.664c1.563-1.555,3.449-2.33,5.66-2.33
		c2.201,0,4.081,0.775,5.629,2.33c0.875,0.867,1.503,1.827,1.892,2.866l2.619-1.018c-0.462-1.403-1.276-2.673-2.434-3.814
		C71.272,2.065,68.705,1,65.73,1C62.698,1,60.117,2.065,58,4.197c-2.122,2.133-3.184,4.679-3.184,7.629
		c0,3.031,1.062,5.598,3.184,7.721c2.117,2.118,5.01,3.788,8.667,4.998c3.083,1.256,5.685,2.95,7.823,5.08
		c0.708,0.709,1.301,1.463,1.805,2.257c0.113,0.192,0.24,0.37,0.34,0.567l0.129,0.249c1.12,2.135,1.716,4.522,1.716,7.004
		c0,4.058-1.583,7.868-4.449,10.731c-5.926,5.928-15.565,5.928-21.489,0c-1.192-1.188-2.172-2.553-2.904-4.047l-2.509,1.219
		c0.866,1.773,2.025,3.393,3.434,4.803c3.508,3.506,8.111,5.252,12.716,5.252c4.614,0,9.218-1.746,12.726-5.252
		c3.393-3.396,5.266-7.908,5.266-12.706C81.269,37.212,80.762,34.812,79.8,32.595"/>
</g>
<g>
	<g>
		<g>
			<path fill="#8994A1" d="M121.229,87.116V70.021c0-0.293,0.148-0.439,0.441-0.439h3.683c1.619,0,2.865,0.287,3.731,0.857
				c0.867,0.574,1.3,1.656,1.3,3.242c0,1.033-0.188,1.908-0.564,2.629c-0.376,0.721-0.884,1.221-1.522,1.498
				c1.686,0.703,2.528,2.146,2.528,4.322v0.418c0,1.736-0.436,3-1.314,3.795c-0.875,0.793-2.04,1.189-3.498,1.189h-4.344
				C121.378,87.532,121.229,87.394,121.229,87.116z M122.113,77.364h3.413c1.408,0,2.421-0.271,3.042-0.811
				c0.623-0.541,0.934-1.498,0.934-2.873c0-1.262-0.348-2.111-1.044-2.555c-0.695-0.443-1.715-0.664-3.055-0.664h-3.291V77.364
				L122.113,77.364z M122.113,86.651h3.903c2.616,0,3.927-1.367,3.927-4.104V82.13c0-1.375-0.335-2.365-1.005-2.971
				c-0.669-0.605-1.645-0.908-2.92-0.908h-3.903L122.113,86.651L122.113,86.651z"/>
			<path fill="#8994A1" d="M133.799,87.091V76.358c0-0.277,0.139-0.418,0.418-0.418c0.293,0,0.44,0.141,0.44,0.418v1.303
				c0.737-1.244,1.875-1.867,3.414-1.867h0.908c0.114,0,0.212,0.045,0.294,0.135c0.082,0.092,0.123,0.193,0.123,0.309
				s-0.041,0.213-0.123,0.295s-0.18,0.123-0.294,0.123h-0.908c-0.917,0-1.715,0.326-2.396,0.98c-0.678,0.656-1.02,1.516-1.02,2.58
				v6.877c0,0.113-0.044,0.217-0.136,0.307c-0.089,0.092-0.19,0.135-0.306,0.135s-0.213-0.043-0.295-0.135
				S133.799,87.204,133.799,87.091z"/>
			<path fill="#8994A1" d="M139.84,84.438c0-1.229,0.486-2.074,1.461-2.541c0.973-0.467,2.393-0.701,4.258-0.701h1.375v-0.688
				c0-1.049-0.27-1.953-0.811-2.713c-0.539-0.762-1.352-1.145-2.431-1.145c-0.442,0-0.854,0.055-1.239,0.16
				c-0.386,0.105-0.685,0.217-0.896,0.33c-0.214,0.115-0.353,0.172-0.417,0.172c-0.133,0-0.237-0.057-0.319-0.172
				c-0.082-0.113-0.123-0.221-0.123-0.316c0-0.246,0.322-0.48,0.97-0.701c0.646-0.221,1.338-0.332,2.074-0.332
				c1.408,0,2.436,0.447,3.082,1.34s0.971,2.018,0.971,3.375v6.584c0,0.293-0.139,0.441-0.418,0.441
				c-0.131,0-0.236-0.041-0.317-0.123c-0.083-0.082-0.125-0.189-0.125-0.318v-1.279c-1.08,1.246-2.308,1.867-3.683,1.867
				c-1.016,0-1.838-0.273-2.467-0.822C140.154,86.308,139.84,85.503,139.84,84.438z M140.698,84.438
				c0,0.787,0.233,1.381,0.701,1.781c0.466,0.4,1.075,0.602,1.829,0.602c0.883,0,1.721-0.312,2.518-0.934
				c0.793-0.623,1.189-1.211,1.189-1.77v-2.062h-1.352c-0.735,0-1.354,0.023-1.854,0.074c-0.5,0.049-1.003,0.152-1.51,0.307
				c-0.508,0.156-0.887,0.4-1.143,0.736C140.826,83.509,140.698,83.933,140.698,84.438z"/>
			<path fill="#8994A1" d="M150.299,86.085c0-0.115,0.037-0.213,0.111-0.295c0.072-0.082,0.15-0.123,0.232-0.123
				s0.206,0.064,0.369,0.195l0.516,0.395c0.196,0.131,0.504,0.258,0.922,0.379c0.416,0.125,0.887,0.186,1.412,0.186
				c0.967,0,1.686-0.189,2.16-0.564c0.477-0.379,0.713-0.869,0.713-1.475c0-0.703-0.212-1.256-0.639-1.658
				c-0.428-0.4-0.942-0.691-1.547-0.871l-1.817-0.564c-0.606-0.195-1.122-0.512-1.549-0.945c-0.425-0.436-0.64-1.02-0.64-1.756
				c0-0.836,0.312-1.576,0.935-2.225c0.623-0.645,1.524-0.969,2.703-0.969c0.72,0,1.397,0.115,2.038,0.344
				c0.639,0.229,0.957,0.459,0.957,0.688c0,0.098-0.045,0.205-0.135,0.318c-0.09,0.115-0.185,0.172-0.283,0.172
				c-0.017,0-0.299-0.109-0.848-0.33c-0.549-0.223-1.115-0.332-1.705-0.332c-0.951,0-1.654,0.238-2.113,0.721
				c-0.459,0.479-0.688,1.004-0.688,1.574c0,0.586,0.214,1.051,0.644,1.391c0.429,0.344,0.943,0.604,1.547,0.781
				c0.601,0.18,1.205,0.359,1.816,0.539c0.609,0.182,1.125,0.527,1.549,1.041c0.424,0.512,0.635,1.189,0.635,2.033
				c0,0.916-0.327,1.637-0.982,2.16c-0.654,0.523-1.562,0.787-2.727,0.787c-1.016,0-1.866-0.18-2.553-0.541
				C150.643,86.78,150.299,86.427,150.299,86.085z"/>
			<path fill="#8994A1" d="M160.062,71.876c-0.155-0.154-0.233-0.34-0.233-0.553c0-0.211,0.077-0.395,0.233-0.539
				c0.157-0.148,0.341-0.223,0.552-0.223c0.215,0,0.395,0.072,0.541,0.223c0.146,0.145,0.223,0.328,0.223,0.539
				c0,0.213-0.074,0.396-0.223,0.553c-0.146,0.156-0.326,0.234-0.541,0.234C160.402,72.11,160.217,72.032,160.062,71.876z
				 M160.197,87.091V76.358c0-0.113,0.04-0.213,0.123-0.295c0.082-0.082,0.18-0.123,0.293-0.123c0.295,0,0.443,0.141,0.443,0.418
				v10.732c0,0.115-0.045,0.217-0.137,0.307c-0.09,0.094-0.19,0.137-0.308,0.137c-0.112,0-0.211-0.043-0.293-0.137
				C160.237,87.308,160.197,87.204,160.197,87.091z"/>
			<path fill="#8994A1" d="M164.617,87.091V69.089c0-0.279,0.141-0.418,0.418-0.418c0.295,0,0.441,0.139,0.441,0.418v18.002
				c0,0.115-0.045,0.217-0.135,0.307c-0.09,0.094-0.192,0.137-0.308,0.137c-0.114,0-0.213-0.043-0.295-0.137
				C164.658,87.308,164.617,87.204,164.617,87.091z"/>
		</g>
	</g>
	<g>
		<path fill="#231F20" d="M174.754,87.532V69.688h26.711v17.789v0.055H174.754L174.754,87.532z M201.41,87.478v-0.057V87.478z
			 M174.865,87.421h26.49l-0.002-17.623h-26.488V87.421L174.865,87.421z"/>
		<rect x="174.812" y="69.743" fill="#00923E" width="26.599" height="17.732"/>
		<polygon fill="#F8C100" points="177.475,78.61 188.11,85.401 198.746,78.61 188.11,71.819 		"/>
		<path fill="#28166F" d="M188.11,74.054c2.517,0,4.554,2.039,4.554,4.559c0,2.516-2.037,4.555-4.554,4.555
			c-2.519,0-4.558-2.039-4.558-4.555C183.553,76.093,185.592,74.054,188.11,74.054z"/>
		<path fill="#FFFFFF" d="M192.641,79.069c-1.99-1.592-4.537-2.506-7.284-2.406c-0.485,0.014-0.965,0.066-1.431,0.143
			c-0.098,0.229-0.178,0.463-0.237,0.705c0.549-0.109,1.11-0.18,1.692-0.201c2.707-0.096,5.217,0.857,7.127,2.488
			C192.571,79.563,192.616,79.317,192.641,79.069z"/>
		<path fill="#00923E" d="M184.057,77.112l0.004-0.119l0.029-0.064l0.054-0.049l0.094-0.031l0.163,0.037l0.085,0.16l-0.035,0.176
			l-0.146,0.084l-0.164-0.039L184.057,77.112z M184.146,77.095l0.051,0.109l0.096,0.021l0.08-0.047l0.019-0.121l-0.05-0.109
			l-0.096-0.021l-0.082,0.047L184.146,77.095z"/>
		<path fill="#00923E" d="M184.685,77.249l-0.04-0.445l0.188-0.018l0.106,0.006l0.056,0.037l0.023,0.066l-0.021,0.086l-0.084,0.049
			l0.049,0.031l0.058,0.07l0.063,0.08l-0.105,0.01l-0.075-0.09l-0.051-0.062l-0.028-0.016l-0.047-0.002l-0.02,0.002l0.02,0.186
			L184.685,77.249z M184.752,76.983l0.065-0.006l0.078-0.014l0.024-0.02l0.008-0.033l-0.014-0.037l-0.037-0.014l-0.068,0.004
			l-0.067,0.006L184.752,76.983z"/>
		<path fill="#00923E" d="M185.223,76.759l0.164-0.006l0.084,0.006l0.068,0.039l0.045,0.072l0.018,0.104l-0.012,0.096l-0.045,0.078
			l-0.062,0.039l-0.079,0.014l-0.169,0.004L185.223,76.759z M185.315,76.831l0.009,0.295l0.065-0.002l0.055-0.006l0.037-0.02
			l0.021-0.045l0.008-0.082l-0.012-0.078l-0.027-0.043l-0.041-0.018l-0.076-0.004L185.315,76.831z"/>
		<polygon fill="#00923E" points="185.785,77.19 185.789,76.745 186.119,76.751 186.117,76.827 185.879,76.823 185.877,76.919 
			186.099,76.925 186.099,77.001 185.875,76.995 185.873,77.118 186.121,77.12 186.119,77.194 		"/>
		<polygon fill="#00923E" points="186.299,77.204 186.33,76.759 186.465,76.769 186.524,77.075 186.625,76.78 186.76,76.786 
			186.727,77.231 186.645,77.228 186.67,76.878 186.557,77.22 186.471,77.216 186.407,76.86 186.381,77.206 		"/>
		<polygon fill="#00923E" points="187.188,77.286 187.256,76.847 187.582,76.894 187.571,76.97 187.334,76.935 187.318,77.03 
			187.541,77.062 187.527,77.14 187.308,77.104 187.287,77.226 187.537,77.261 187.523,77.335 		"/>
		<path fill="#00923E" d="M187.963,77.419l0.101-0.434l0.142,0.031l0.102,0.031l0.053,0.057l0.006,0.092l-0.031,0.066l-0.045,0.033
			l-0.052,0.01l-0.093-0.016l-0.057-0.014l-0.039,0.164L187.963,77.419z M188.135,77.081l-0.029,0.123l0.046,0.012l0.074,0.01
			l0.03-0.016l0.019-0.031l-0.006-0.043l-0.032-0.025l-0.062-0.02L188.135,77.081z"/>
		<path fill="#00923E" d="M188.469,77.542l0.121-0.43l0.182,0.053l0.098,0.041l0.039,0.057v0.07l-0.054,0.07l-0.095,0.016
			l0.037,0.049l0.024,0.086l0.032,0.102l-0.104-0.031l-0.037-0.113l-0.026-0.074l-0.021-0.027l-0.043-0.016l-0.019-0.006
			l-0.05,0.182L188.469,77.542z M188.627,77.319l0.062,0.02l0.079,0.018l0.03-0.012l0.018-0.031l-0.001-0.037l-0.026-0.027
			l-0.065-0.021l-0.063-0.018L188.627,77.319z"/>
		<path fill="#00923E" d="M189.047,77.481l0.057-0.102l0.059-0.043l0.068-0.018l0.098,0.014l0.127,0.111v0.18l-0.109,0.139
			l-0.168,0.006l-0.129-0.107v-0.18H189.047z M189.135,77.511l-0.006,0.121l0.072,0.066l0.096-0.012l0.068-0.098l0.008-0.117
			l-0.072-0.068l-0.094,0.01L189.135,77.511z"/>
		<polygon fill="#00923E" points="189.797,77.821 189.828,77.751 190.008,77.825 189.941,77.989 189.846,78.003 189.737,77.981 
			189.635,77.909 189.596,77.802 189.617,77.681 189.691,77.577 189.801,77.532 189.906,77.554 190.014,77.636 190.032,77.745 
			189.944,77.729 189.933,77.665 189.879,77.626 189.776,77.624 189.705,77.714 189.691,77.833 189.762,77.909 189.818,77.919 
			189.873,77.913 189.895,77.86 		"/>
		<path fill="#00923E" d="M190.086,78.124l0.19-0.402l0.171,0.082l0.09,0.057l0.028,0.059l-0.015,0.074l-0.061,0.061l-0.098-0.002
			l0.025,0.055l0.018,0.088l0.011,0.102l-0.098-0.045l-0.015-0.115l-0.016-0.08l-0.016-0.027l-0.041-0.023l-0.014-0.008
			l-0.082,0.166L190.086,78.124z M190.277,77.929l0.062,0.029l0.072,0.029l0.032-0.008l0.022-0.023l0.004-0.039l-0.022-0.031
			l-0.058-0.027l-0.066-0.031L190.277,77.929z"/>
		<polygon fill="#00923E" points="190.578,78.364 190.793,77.97 191.08,78.128 191.045,78.194 190.834,78.079 190.785,78.169 
			190.983,78.272 190.946,78.339 190.752,78.233 190.695,78.339 190.914,78.458 190.875,78.522 		"/>
		<polygon fill="#00923E" points="191.086,78.476 191.164,78.513 191.156,78.587 191.203,78.638 191.267,78.655 191.31,78.63 
			191.314,78.603 191.297,78.569 191.246,78.515 191.18,78.425 191.196,78.327 191.244,78.282 191.312,78.272 191.396,78.306 
			191.485,78.403 191.475,78.511 191.394,78.466 191.398,78.411 191.356,78.368 191.297,78.351 191.271,78.368 191.267,78.397 
			191.322,78.464 191.387,78.542 191.406,78.606 191.385,78.677 191.33,78.729 191.254,78.737 191.164,78.702 191.072,78.601 		"/>
		<polygon fill="#00923E" points="191.53,78.751 191.607,78.794 191.599,78.864 191.642,78.919 191.705,78.94 191.748,78.917 
			191.754,78.89 191.739,78.854 191.691,78.8 191.631,78.706 191.647,78.608 191.698,78.567 191.772,78.562 191.851,78.597 
			191.934,78.696 191.918,78.804 191.838,78.757 191.846,78.702 191.809,78.655 191.75,78.638 191.721,78.651 191.717,78.681 
			191.77,78.753 191.832,78.831 191.846,78.899 191.823,78.966 191.764,79.015 191.687,79.022 191.599,78.981 191.51,78.876 		"/>
		<path fill="#00923E" d="M192.012,78.991l0.084-0.08l0.068-0.023l0.069,0.002l0.088,0.043l0.091,0.146l-0.058,0.172l-0.149,0.098
			l-0.16-0.045l-0.09-0.145L192.012,78.991z M192.086,79.042l-0.041,0.115l0.045,0.082l0.096,0.023l0.098-0.07l0.043-0.111
			l-0.05-0.084l-0.094-0.025L192.086,79.042z"/>
		<polygon fill="#FFFFFF" points="189.557,76.88 189.598,77.009 189.734,77.009 189.625,77.091 189.668,77.22 189.557,77.14 
			189.447,77.22 189.491,77.091 189.381,77.009 189.516,77.009 		"/>
		<polygon fill="#FFFFFF" points="188.129,80.56 188.17,80.688 188.307,80.688 188.195,80.769 188.236,80.899 188.129,80.819 
			188.02,80.899 188.061,80.769 187.951,80.688 188.086,80.688 		"/>
		<polygon fill="#FFFFFF" points="191.361,80.108 191.404,80.239 191.543,80.239 191.43,80.319 191.475,80.452 191.361,80.37 
			191.252,80.452 191.293,80.319 191.18,80.239 191.319,80.239 		"/>
		<polygon fill="#FFFFFF" points="192.002,80.218 192.026,80.302 192.114,80.302 192.045,80.353 192.069,80.437 192.002,80.386 
			191.928,80.437 191.957,80.353 191.883,80.302 191.974,80.302 		"/>
		<polygon fill="#FFFFFF" points="191.547,80.544 191.584,80.655 191.705,80.655 191.606,80.726 191.644,80.841 191.547,80.769 
			191.45,80.841 191.487,80.726 191.387,80.655 191.508,80.655 		"/>
		<polygon fill="#FFFFFF" points="191.262,80.919 191.297,81.03 191.416,81.03 191.321,81.101 191.356,81.212 191.262,81.142 
			191.168,81.212 191.203,81.101 191.108,81.03 191.225,81.03 		"/>
		<polygon fill="#FFFFFF" points="190.896,81.19 190.926,81.276 191.014,81.276 190.942,81.331 190.971,81.417 190.896,81.362 
			190.823,81.417 190.852,81.331 190.778,81.276 190.869,81.276 		"/>
		<polygon fill="#FFFFFF" points="190.416,81.101 190.447,81.183 190.532,81.183 190.463,81.237 190.488,81.321 190.416,81.269 
			190.346,81.321 190.375,81.237 190.301,81.183 190.391,81.183 		"/>
		<polygon fill="#FFFFFF" points="189.901,81.257 189.933,81.349 190.029,81.349 189.95,81.403 189.979,81.495 189.901,81.44 
			189.822,81.495 189.854,81.403 189.774,81.349 189.871,81.349 		"/>
		<polygon fill="#FFFFFF" points="190.426,82.007 190.453,82.095 190.545,82.095 190.471,82.151 190.5,82.235 190.426,82.181 
			190.352,82.235 190.379,82.151 190.307,82.095 190.397,82.095 		"/>
		<polygon fill="#FFFFFF" points="189.496,81.61 189.535,81.728 189.66,81.728 189.559,81.802 189.596,81.919 189.496,81.845 
			189.396,81.919 189.437,81.802 189.336,81.728 189.459,81.728 		"/>
		<polygon fill="#FFFFFF" points="189.137,81.138 189.168,81.226 189.265,81.226 189.187,81.282 189.217,81.37 189.137,81.315 
			189.064,81.37 189.092,81.282 189.016,81.226 189.109,81.226 		"/>
		<polygon fill="#FFFFFF" points="190.44,81.509 190.478,81.622 190.596,81.622 190.5,81.694 190.537,81.808 190.44,81.735 
			190.344,81.808 190.379,81.694 190.285,81.622 190.404,81.622 		"/>
		<polygon fill="#FFFFFF" points="188.123,82.241 188.137,82.284 188.18,82.284 188.144,82.308 188.156,82.349 188.123,82.323 
			188.088,82.349 188.101,82.308 188.068,82.284 188.11,82.284 		"/>
		<polygon fill="#FFFFFF" points="189.332,78.267 189.361,78.36 189.459,78.36 189.381,78.417 189.41,78.511 189.332,78.454 
			189.254,78.511 189.283,78.417 189.205,78.36 189.301,78.36 		"/>
		<polygon fill="#FFFFFF" points="188.127,79.271 188.16,79.368 188.26,79.368 188.178,79.429 188.211,79.53 188.127,79.468 
			188.043,79.53 188.076,79.429 187.991,79.368 188.096,79.368 		"/>
		<polygon fill="#FFFFFF" points="188.662,79.685 188.694,79.79 188.805,79.79 188.717,79.856 188.754,79.96 188.662,79.896 
			188.571,79.96 188.605,79.856 188.516,79.79 188.627,79.79 		"/>
		<polygon fill="#FFFFFF" points="187.662,79.7 187.69,79.782 187.778,79.782 187.707,79.833 187.733,79.919 187.662,79.866 
			187.592,79.919 187.621,79.833 187.547,79.782 187.635,79.782 		"/>
		<polygon fill="#FFFFFF" points="187.885,80.075 187.902,80.132 187.961,80.132 187.912,80.165 187.93,80.22 187.885,80.187 
			187.836,80.22 187.855,80.165 187.809,80.132 187.865,80.132 		"/>
		<polygon fill="#FFFFFF" points="184.346,77.675 184.387,77.806 184.522,77.806 184.416,77.882 184.457,78.013 184.346,77.931 
			184.237,78.013 184.279,77.882 184.17,77.806 184.303,77.806 		"/>
		<polygon fill="#FFFFFF" points="186.336,78.71 186.373,78.815 186.482,78.815 186.394,78.878 186.432,78.987 186.336,78.921 
			186.248,78.987 186.282,78.878 186.193,78.815 186.305,78.815 		"/>
		<polygon fill="#FFFFFF" points="184.76,79.612 184.799,79.737 184.937,79.737 184.828,79.819 184.869,79.948 184.76,79.866 
			184.649,79.948 184.69,79.819 184.58,79.737 184.717,79.737 		"/>
		<polygon fill="#FFFFFF" points="185.207,79.417 185.227,79.483 185.295,79.483 185.238,79.522 185.258,79.587 185.207,79.546 
			185.151,79.587 185.172,79.522 185.119,79.483 185.186,79.483 		"/>
		<polygon fill="#FFFFFF" points="185.727,80.095 185.76,80.204 185.877,80.204 185.785,80.272 185.817,80.382 185.727,80.312 
			185.631,80.382 185.666,80.272 185.575,80.204 185.688,80.204 		"/>
		<polygon fill="#FFFFFF" points="186.267,80.942 186.311,81.071 186.443,81.071 186.336,81.151 186.379,81.276 186.267,81.198 
			186.157,81.276 186.2,81.151 186.092,81.071 186.225,81.071 		"/>
		<polygon fill="#FFFFFF" points="185.575,80.554 185.612,80.663 185.727,80.663 185.635,80.729 185.67,80.841 185.575,80.772 
			185.481,80.841 185.519,80.729 185.422,80.663 185.541,80.663 		"/>
		<polygon fill="#FFFFFF" points="184.189,80.079 184.215,80.163 184.303,80.163 184.232,80.216 184.26,80.302 184.189,80.249 
			184.115,80.302 184.144,80.216 184.07,80.163 184.158,80.163 		"/>
	</g>
</g>
</svg>
