<?xml version="1.0" encoding="utf-8"?>
<!-- Generator: Adobe Illustrator 16.0.0, SVG Export Plug-In . SVG Version: 6.00 Build 0)  -->
<!DOCTYPE svg PUBLIC "-//W3C//DTD SVG 1.1//EN" "http://www.w3.org/Graphics/SVG/1.1/DTD/svg11.dtd">
<svg version="1.1" id="Layer_1" xmlns="http://www.w3.org/2000/svg" xmlns:xlink="http://www.w3.org/1999/xlink" x="0px" y="0px"
	 width="260px" height="90px" viewBox="19.982 24.781 260 90" enable-background="new 19.982 24.781 260 90" xml:space="preserve">
<g>
	<path fill="#74C6DF" d="M49.66,110.698c-5.388,0-10.827-1.29-15.87-3.935l1.307-2.468c12.166,6.394,26.891,4.155,36.63-5.572
		l1.97,1.97C67.124,107.264,58.46,110.698,49.66,110.698"/>
	<path fill="#73E1A7" d="M49.625,105.237c-7.33,0-14.664-2.789-20.246-8.367c-6.454-6.439-9.398-15.312-8.094-24.339l2.761,0.397
		c-1.172,8.151,1.489,16.159,7.305,21.969c10.077,10.063,26.472,10.07,36.55,0l1.971,1.972
		C64.29,102.448,56.956,105.237,49.625,105.237"/>
	<path fill="#DADA76" d="M49.625,99.833c-5.949,0-11.896-2.262-16.422-6.785c-9.059-9.04-9.059-23.766,0-32.817
		c3.479-3.479,7.895-5.728,12.737-6.503l0.444,2.752c-4.269,0.684-8.142,2.661-11.21,5.723c-7.965,7.963-7.965,20.914,0,28.879
		c7.969,7.955,20.932,7.955,28.903,0l1.972,1.966C61.525,97.572,55.573,99.833,49.625,99.833"/>
	<path fill="#FA953A" d="M49.625,94.61c-4.803,0-9.324-1.867-12.717-5.264c-3.402-3.396-5.269-7.907-5.269-12.706
		c0-4.791,1.867-9.31,5.269-12.698c7.006-7.012,18.42-7.017,25.436-0.01c1.416,1.417,2.566,3.032,3.441,4.801l-2.508,1.226
		c-0.735-1.495-1.715-2.856-2.905-4.054c-5.929-5.918-15.562-5.918-21.491,0.002c-2.874,2.867-4.447,6.677-4.447,10.732
		c0,4.058,1.572,7.871,4.447,10.733c2.872,2.875,6.684,4.445,10.744,4.445c4.057,0,7.873-1.57,10.741-4.445l1.979,1.972
		C58.95,92.742,54.43,94.61,49.625,94.61"/>
	<path fill="#DA7676" d="M49.625,66.833c-2.619,0-5.089,1.018-6.948,2.868c-1.853,1.854-2.877,4.322-2.877,6.939
		c0,2.622,1.024,5.089,2.877,6.944c1.858,1.851,4.329,2.868,6.948,2.868c2.621,0,5.09-1.018,6.948-2.868
		c3.833-3.834,3.833-10.059,0-13.883C54.715,67.85,52.253,66.833,49.625,66.833 M49.625,89.244c-3.368,0-6.537-1.31-8.918-3.689
		c-2.383-2.385-3.701-5.546-3.701-8.915c0-3.364,1.317-6.528,3.701-8.91c2.381-2.381,5.551-3.692,8.918-3.692
		c3.371,0,6.536,1.311,8.92,3.692c4.923,4.91,4.923,12.909,0,17.825C56.162,87.935,52.997,89.244,49.625,89.244"/>
	<polygon fill="#FA953A" points="134.842,31.284 134.842,34.19 112.041,34.19 112.041,55.516 134.842,55.516 134.842,58.421 
		112.041,58.421 112.041,79.745 134.842,79.745 134.842,82.652 109.138,82.652 109.138,31.284 	"/>
	<polygon fill="#FA953A" points="168.692,31.284 168.692,34.19 145.894,34.19 145.894,55.516 168.692,55.516 168.692,58.421 
		145.894,58.421 145.894,79.745 168.692,79.745 168.692,82.652 142.981,82.652 142.981,31.284 	"/>
	<path fill="#FA953A" d="M219.263,76.258c-4.865,4.674-10.695,7.008-17.484,7.008c-7.299,0-13.506-2.562-18.637-7.687
		c-5.125-5.117-7.686-11.322-7.686-18.613c0-7.24,2.561-13.434,7.686-18.581c5.131-5.149,11.338-7.714,18.637-7.714
		c6.789,0,12.688,2.282,17.704,6.859l-2.217,1.965c-4.416-3.903-9.574-5.849-15.487-5.849c-6.456,0-11.956,2.277-16.525,6.829
		c-4.572,4.551-6.854,10.051-6.854,16.49c0,6.47,2.282,11.971,6.854,16.528c4.568,4.558,10.069,6.834,16.525,6.834
		c5.522,0,10.401-1.703,14.615-5.092V59.585h2.869V76.258z"/>
	<path fill="#FA953A" d="M97.809,57.6c-0.018-0.118-0.061-0.246-0.119-0.377c-0.434-0.986-0.998-1.919-1.667-2.812
		c-0.602-0.854-1.263-1.661-2.011-2.417l-0.093,0.095c-2.705-2.53-5.973-4.425-9.819-5.669c-2.573-1.186-4.585-2.489-6.042-3.919
		c-1.547-1.574-2.322-3.466-2.322-5.67c0-2.23,0.781-4.116,2.343-5.664c1.563-1.555,3.449-2.33,5.66-2.33
		c2.201,0,4.081,0.775,5.629,2.33c0.875,0.867,1.503,1.827,1.892,2.866l2.619-1.018c-0.462-1.403-1.276-2.673-2.434-3.814
		c-2.164-2.131-4.731-3.196-7.706-3.196c-3.032,0-5.613,1.065-7.73,3.196c-2.122,2.133-3.184,4.679-3.184,7.629
		c0,3.031,1.062,5.598,3.184,7.721c2.117,2.118,5.01,3.788,8.667,4.998c3.083,1.255,5.685,2.95,7.823,5.08
		c0.708,0.709,1.301,1.463,1.805,2.257c0.113,0.192,0.24,0.37,0.34,0.567l0.129,0.249c1.12,2.135,1.716,4.523,1.716,7.004
		c0,4.057-1.583,7.868-4.449,10.732c-5.926,5.926-15.565,5.926-21.489,0c-1.192-1.189-2.172-2.553-2.904-4.048l-2.509,1.22
		c0.866,1.773,2.025,3.391,3.434,4.802c3.508,3.505,8.111,5.251,12.716,5.251c4.614,0,9.218-1.746,12.726-5.251
		c3.393-3.397,5.266-7.908,5.266-12.706C99.278,62.217,98.771,59.817,97.809,57.6"/>
</g>
<g>
	<g>
		<g>
			<path fill="#8994A1" d="M139.242,112.12V95.026c0-0.294,0.148-0.441,0.442-0.441h3.684c1.621,0,2.866,0.287,3.733,0.859
				c0.868,0.574,1.302,1.655,1.302,3.242c0,1.032-0.188,1.907-0.565,2.628c-0.377,0.721-0.885,1.221-1.524,1.499
				c1.687,0.703,2.53,2.145,2.53,4.322v0.417c0,1.736-0.437,3-1.314,3.795c-0.875,0.794-2.042,1.19-3.5,1.19h-4.347
				C139.39,112.537,139.242,112.399,139.242,112.12z M140.126,102.369h3.415c1.408,0,2.422-0.271,3.044-0.811
				c0.623-0.541,0.934-1.498,0.934-2.873c0-1.262-0.348-2.112-1.044-2.554c-0.696-0.443-1.716-0.664-3.057-0.664h-3.292V102.369z
				 M140.126,111.655h3.905c2.618,0,3.929-1.367,3.929-4.103v-0.417c0-1.376-0.335-2.366-1.006-2.971
				c-0.67-0.605-1.646-0.909-2.922-0.909h-3.905V111.655z"/>
			<path fill="#8994A1" d="M151.816,112.096v-10.733c0-0.277,0.139-0.418,0.418-0.418c0.294,0,0.441,0.141,0.441,0.418v1.303
				c0.737-1.244,1.875-1.867,3.414-1.867h0.908c0.114,0,0.212,0.045,0.294,0.135c0.082,0.092,0.123,0.193,0.123,0.307
				c0,0.116-0.041,0.214-0.123,0.295c-0.082,0.082-0.18,0.124-0.294,0.124h-0.908c-0.917,0-1.715,0.327-2.395,0.981
				c-0.679,0.655-1.02,1.515-1.02,2.579v6.877c0,0.114-0.044,0.217-0.136,0.307c-0.089,0.092-0.191,0.135-0.306,0.135
				c-0.115,0-0.213-0.043-0.294-0.135C151.856,112.313,151.816,112.209,151.816,112.096z"/>
			<path fill="#8994A1" d="M157.857,109.444c0-1.229,0.487-2.076,1.461-2.542c0.973-0.467,2.393-0.701,4.258-0.701h1.375v-0.687
				c0-1.049-0.27-1.953-0.81-2.714c-0.54-0.762-1.352-1.144-2.431-1.144c-0.442,0-0.855,0.054-1.239,0.16
				c-0.386,0.105-0.685,0.216-0.896,0.331c-0.213,0.115-0.353,0.172-0.417,0.172c-0.132,0-0.237-0.057-0.319-0.172
				s-0.123-0.221-0.123-0.318c0-0.246,0.322-0.48,0.97-0.701c0.646-0.221,1.338-0.331,2.074-0.331c1.408,0,2.436,0.447,3.082,1.339
				c0.647,0.893,0.97,2.018,0.97,3.376v6.583c0,0.294-0.138,0.441-0.418,0.441c-0.13,0-0.236-0.041-0.317-0.122
				c-0.083-0.082-0.125-0.189-0.125-0.319v-1.278c-1.08,1.245-2.307,1.867-3.682,1.867c-1.016,0-1.838-0.274-2.467-0.823
				C158.172,111.313,157.857,110.507,157.857,109.444z M158.716,109.444c0,0.786,0.233,1.379,0.701,1.781
				c0.466,0.399,1.075,0.6,1.829,0.6c0.883,0,1.721-0.311,2.517-0.933c0.793-0.622,1.19-1.211,1.19-1.769v-2.062h-1.351
				c-0.736,0-1.354,0.023-1.854,0.073c-0.5,0.049-1.003,0.152-1.51,0.307c-0.508,0.156-0.887,0.401-1.142,0.737
				C158.844,108.514,158.716,108.937,158.716,109.444z"/>
			<path fill="#8994A1" d="M168.317,111.089c0-0.114,0.036-0.213,0.11-0.295c0.073-0.082,0.151-0.123,0.233-0.123
				s0.206,0.065,0.369,0.196l0.516,0.394c0.196,0.131,0.504,0.258,0.922,0.38c0.416,0.124,0.887,0.184,1.412,0.184
				c0.966,0,1.686-0.188,2.16-0.564c0.476-0.378,0.713-0.868,0.713-1.474c0-0.703-0.212-1.256-0.639-1.659
				c-0.427-0.399-0.942-0.691-1.547-0.87l-1.817-0.565c-0.606-0.196-1.122-0.511-1.549-0.945c-0.425-0.435-0.639-1.02-0.639-1.757
				c0-0.835,0.312-1.575,0.934-2.223c0.623-0.646,1.524-0.97,2.703-0.97c0.72,0,1.398,0.115,2.038,0.344
				c0.639,0.229,0.957,0.459,0.957,0.688c0,0.098-0.045,0.204-0.135,0.318c-0.09,0.115-0.184,0.172-0.283,0.172
				c-0.016,0-0.298-0.11-0.847-0.331c-0.549-0.222-1.116-0.332-1.706-0.332c-0.95,0-1.654,0.24-2.113,0.722
				c-0.458,0.479-0.688,1.004-0.688,1.574c0,0.586,0.214,1.05,0.643,1.391c0.429,0.343,0.944,0.603,1.547,0.781
				c0.601,0.179,1.206,0.359,1.816,0.539c0.61,0.181,1.126,0.527,1.549,1.04c0.424,0.513,0.635,1.191,0.635,2.034
				c0,0.917-0.327,1.637-0.982,2.161c-0.654,0.523-1.562,0.786-2.726,0.786c-1.016,0-1.867-0.18-2.554-0.54
				C168.66,111.784,168.317,111.432,168.317,111.089z"/>
			<path fill="#8994A1" d="M178.079,96.88c-0.155-0.154-0.233-0.34-0.233-0.552s0.077-0.394,0.233-0.54
				c0.157-0.148,0.341-0.222,0.552-0.222c0.214,0,0.395,0.073,0.541,0.222c0.147,0.146,0.222,0.328,0.222,0.54
				s-0.074,0.397-0.222,0.552c-0.147,0.156-0.327,0.234-0.541,0.234C178.42,97.115,178.234,97.036,178.079,96.88z M178.215,112.096
				v-10.733c0-0.114,0.04-0.212,0.123-0.294c0.082-0.082,0.18-0.124,0.293-0.124c0.295,0,0.443,0.141,0.443,0.418v10.733
				c0,0.114-0.045,0.217-0.136,0.307c-0.09,0.092-0.191,0.135-0.308,0.135c-0.113,0-0.211-0.043-0.293-0.135
				C178.255,112.313,178.215,112.209,178.215,112.096z"/>
			<path fill="#8994A1" d="M182.635,112.096V94.094c0-0.279,0.14-0.418,0.418-0.418c0.294,0,0.441,0.139,0.441,0.418v18.002
				c0,0.114-0.045,0.217-0.135,0.307c-0.09,0.092-0.192,0.135-0.307,0.135s-0.213-0.043-0.295-0.135
				C182.676,112.313,182.635,112.209,182.635,112.096z"/>
		</g>
	</g>
	<g>
		<path fill="#231F20" d="M192.771,112.536V94.693h26.711v17.789v0.055H192.771z M219.428,112.482v-0.056V112.482z M192.883,112.426
			h26.49l-0.002-17.624h-26.488V112.426L192.883,112.426z"/>
		<rect x="192.829" y="94.747" fill="#00923E" width="26.599" height="17.734"/>
		<polygon fill="#F8C100" points="195.492,103.615 206.128,110.406 216.763,103.615 206.128,96.823 		"/>
		<path fill="#28166F" d="M206.128,99.059c2.516,0,4.554,2.039,4.554,4.557c0,2.517-2.038,4.555-4.554,4.555
			c-2.519,0-4.557-2.038-4.557-4.555C201.571,101.098,203.609,99.059,206.128,99.059z"/>
		<path fill="#FFFFFF" d="M210.658,104.074c-1.99-1.591-4.537-2.506-7.284-2.407c-0.485,0.014-0.965,0.067-1.431,0.143
			c-0.098,0.228-0.178,0.464-0.237,0.705c0.549-0.109,1.111-0.179,1.692-0.2c2.708-0.096,5.217,0.857,7.128,2.488
			C210.589,104.568,210.634,104.322,210.658,104.074z"/>
		<path fill="#00923E" d="M202.074,102.116l0.004-0.118l0.03-0.065l0.053-0.049l0.094-0.03l0.163,0.037l0.085,0.16l-0.035,0.176
			l-0.146,0.083l-0.164-0.038L202.074,102.116z M202.164,102.099l0.051,0.109l0.095,0.023l0.081-0.048l0.018-0.121l-0.05-0.109
			l-0.095-0.022l-0.082,0.048L202.164,102.099z"/>
		<path fill="#00923E" d="M202.702,102.253l-0.04-0.445l0.187-0.017l0.107,0.005l0.055,0.037l0.024,0.067l-0.021,0.086l-0.085,0.048
			l0.05,0.032l0.057,0.07l0.063,0.081l-0.105,0.009l-0.075-0.09l-0.051-0.062l-0.028-0.016l-0.047-0.001l-0.02,0.001l0.02,0.185
			L202.702,102.253z M202.769,101.988l0.066-0.006l0.078-0.013l0.024-0.02l0.009-0.033l-0.015-0.037l-0.037-0.014l-0.068,0.004
			l-0.067,0.006L202.769,101.988z"/>
		<path fill="#00923E" d="M203.24,101.763l0.165-0.005l0.084,0.005l0.068,0.039l0.045,0.072l0.017,0.104l-0.011,0.096l-0.045,0.078
			l-0.063,0.039l-0.079,0.013l-0.169,0.004L203.24,101.763z M203.333,101.836l0.009,0.294l0.065-0.001l0.055-0.006l0.037-0.02
			l0.021-0.045l0.008-0.081l-0.012-0.078l-0.028-0.044l-0.041-0.018l-0.076-0.003L203.333,101.836z"/>
		<polygon fill="#00923E" points="203.802,102.195 203.806,101.75 204.137,101.755 204.135,101.831 203.896,101.827 
			203.894,101.924 204.116,101.929 204.116,102.005 203.892,102 203.89,102.123 204.139,102.125 204.137,102.199 		"/>
		<polygon fill="#00923E" points="204.317,102.208 204.348,101.763 204.482,101.773 204.542,102.08 204.642,101.784 204.777,101.79 
			204.744,102.237 204.662,102.232 204.687,101.883 204.574,102.225 204.489,102.22 204.425,101.864 204.398,102.211 		"/>
		<polygon fill="#00923E" points="205.206,102.291 205.274,101.851 205.6,101.899 205.589,101.975 205.352,101.939 205.336,102.034 
			205.558,102.067 205.545,102.144 205.325,102.11 205.305,102.23 205.554,102.266 205.541,102.339 		"/>
		<path fill="#00923E" d="M205.98,102.424l0.101-0.434l0.142,0.032l0.101,0.031l0.053,0.056l0.006,0.092l-0.031,0.066l-0.046,0.033
			l-0.051,0.011l-0.093-0.016l-0.056-0.014l-0.039,0.164L205.98,102.424z M206.152,102.086l-0.029,0.122l0.046,0.012l0.074,0.01
			l0.03-0.015l0.019-0.032l-0.006-0.042l-0.032-0.027l-0.062-0.018L206.152,102.086z"/>
		<path fill="#00923E" d="M206.486,102.547l0.122-0.43l0.181,0.053l0.098,0.04l0.039,0.058v0.07l-0.054,0.07l-0.095,0.016
			l0.037,0.049l0.025,0.085l0.032,0.101l-0.104-0.031l-0.037-0.112l-0.026-0.075l-0.021-0.027l-0.043-0.015l-0.018-0.006l-0.05,0.18
			L206.486,102.547z M206.644,102.324l0.063,0.019l0.079,0.018l0.03-0.012l0.018-0.03l-0.001-0.038l-0.027-0.027l-0.065-0.021
			l-0.064-0.018L206.644,102.324z"/>
		<path fill="#00923E" d="M207.065,102.487l0.056-0.102l0.059-0.043l0.068-0.018l0.097,0.014l0.128,0.11v0.18l-0.109,0.14
			l-0.168,0.006l-0.13-0.108V102.487L207.065,102.487z M207.152,102.515l-0.005,0.121l0.072,0.066l0.096-0.01l0.068-0.098
			l0.008-0.118l-0.073-0.068l-0.094,0.009L207.152,102.515z"/>
		<polygon fill="#00923E" points="207.814,102.826 207.846,102.756 208.025,102.83 207.959,102.994 207.863,103.007 
			207.755,102.986 207.652,102.913 207.614,102.807 207.635,102.686 207.709,102.581 207.818,102.537 207.924,102.559 
			208.031,102.64 208.05,102.75 207.962,102.735 207.95,102.669 207.896,102.631 207.794,102.628 207.722,102.719 207.709,102.838 
			207.779,102.913 207.836,102.924 207.891,102.918 207.912,102.865 		"/>
		<path fill="#00923E" d="M208.104,103.128l0.19-0.402l0.171,0.082l0.089,0.056l0.029,0.059l-0.014,0.074l-0.061,0.062l-0.098-0.002
			l0.025,0.055l0.018,0.087l0.011,0.102l-0.098-0.046l-0.015-0.115l-0.015-0.08l-0.016-0.027l-0.041-0.024l-0.014-0.007
			l-0.082,0.166L208.104,103.128z M208.295,102.934l0.062,0.029l0.073,0.029l0.032-0.007l0.023-0.024l0.003-0.039l-0.022-0.032
			l-0.058-0.027l-0.066-0.031L208.295,102.934z"/>
		<polygon fill="#00923E" points="208.595,103.368 208.81,102.975 209.097,103.133 209.062,103.199 208.852,103.084 
			208.803,103.173 209.001,103.278 208.964,103.344 208.77,103.238 208.713,103.344 208.931,103.463 208.893,103.528 		"/>
		<polygon fill="#00923E" points="209.104,103.481 209.181,103.518 209.174,103.592 209.22,103.643 209.284,103.66 209.327,103.635 
			209.332,103.607 209.314,103.574 209.264,103.52 209.198,103.43 209.214,103.331 209.262,103.287 209.33,103.278 209.414,103.311 
			209.503,103.407 209.492,103.515 209.411,103.471 209.416,103.416 209.374,103.372 209.314,103.356 209.288,103.372 
			209.284,103.402 209.34,103.469 209.405,103.547 209.424,103.611 209.403,103.682 209.348,103.734 209.271,103.742 
			209.181,103.706 209.09,103.605 		"/>
		<polygon fill="#00923E" points="209.548,103.756 209.625,103.798 209.616,103.869 209.659,103.924 209.723,103.945 
			209.766,103.922 209.771,103.895 209.757,103.859 209.709,103.804 209.648,103.711 209.665,103.613 209.716,103.572 
			209.79,103.567 209.868,103.601 209.951,103.701 209.935,103.809 209.856,103.761 209.864,103.706 209.826,103.66 
			209.767,103.643 209.738,103.656 209.734,103.686 209.787,103.758 209.85,103.836 209.864,103.904 209.841,103.97 209.781,104.02 
			209.704,104.027 209.616,103.987 209.528,103.88 		"/>
		<path fill="#00923E" d="M210.029,103.995l0.084-0.079l0.069-0.024l0.069,0.003l0.088,0.043l0.09,0.146l-0.057,0.172l-0.149,0.098
			l-0.16-0.046l-0.09-0.145L210.029,103.995z M210.104,104.047l-0.041,0.115l0.045,0.081l0.095,0.024l0.098-0.07l0.042-0.111
			l-0.049-0.085l-0.094-0.024L210.104,104.047z"/>
		<polygon fill="#FFFFFF" points="207.574,101.885 207.615,102.013 207.752,102.013 207.642,102.095 207.685,102.224 
			207.574,102.144 207.465,102.224 207.509,102.095 207.399,102.013 207.533,102.013 		"/>
		<polygon fill="#FFFFFF" points="206.147,105.565 206.188,105.694 206.324,105.694 206.213,105.773 206.254,105.904 
			206.147,105.823 206.037,105.904 206.078,105.773 205.969,105.694 206.104,105.694 		"/>
		<polygon fill="#FFFFFF" points="209.379,105.113 209.422,105.243 209.56,105.243 209.448,105.324 209.492,105.456 
			209.379,105.375 209.27,105.456 209.31,105.324 209.198,105.243 209.337,105.243 		"/>
		<polygon fill="#FFFFFF" points="210.019,105.223 210.044,105.306 210.132,105.306 210.062,105.357 210.087,105.442 
			210.019,105.39 209.945,105.442 209.974,105.357 209.901,105.306 209.991,105.306 		"/>
		<polygon fill="#FFFFFF" points="209.565,105.548 209.601,105.66 209.722,105.66 209.624,105.731 209.661,105.845 209.565,105.773 
			209.468,105.845 209.505,105.731 209.405,105.66 209.526,105.66 		"/>
		<polygon fill="#FFFFFF" points="209.279,105.924 209.314,106.034 209.434,106.034 209.339,106.105 209.374,106.216 
			209.279,106.146 209.185,106.216 209.221,106.105 209.126,106.034 209.242,106.034 		"/>
		<polygon fill="#FFFFFF" points="208.914,106.195 208.943,106.281 209.031,106.281 208.96,106.336 208.988,106.421 
			208.914,106.366 208.841,106.421 208.869,106.336 208.796,106.281 208.886,106.281 		"/>
		<polygon fill="#FFFFFF" points="208.434,106.105 208.465,106.188 208.55,106.188 208.48,106.241 208.506,106.325 208.434,106.274 
			208.363,106.325 208.392,106.241 208.318,106.188 208.408,106.188 		"/>
		<polygon fill="#FFFFFF" points="207.919,106.262 207.95,106.353 208.047,106.353 207.968,106.408 207.997,106.5 207.919,106.445 
			207.84,106.5 207.871,106.408 207.792,106.353 207.888,106.353 		"/>
		<polygon fill="#FFFFFF" points="208.444,107.012 208.471,107.099 208.562,107.099 208.488,107.155 208.517,107.24 
			208.444,107.185 208.369,107.24 208.396,107.155 208.324,107.099 208.415,107.099 		"/>
		<polygon fill="#FFFFFF" points="207.514,106.615 207.552,106.733 207.677,106.733 207.576,106.806 207.614,106.923 
			207.514,106.85 207.414,106.923 207.454,106.806 207.354,106.733 207.477,106.733 		"/>
		<polygon fill="#FFFFFF" points="207.155,106.142 207.185,106.23 207.282,106.23 207.204,106.286 207.234,106.374 207.155,106.321 
			207.082,106.374 207.109,106.286 207.033,106.23 207.127,106.23 		"/>
		<polygon fill="#FFFFFF" points="208.458,106.514 208.495,106.627 208.614,106.627 208.517,106.698 208.555,106.813 
			208.458,106.74 208.362,106.813 208.396,106.698 208.302,106.627 208.422,106.627 		"/>
		<polygon fill="#FFFFFF" points="206.141,107.245 206.155,107.288 206.198,107.288 206.161,107.312 206.174,107.354 
			206.141,107.328 206.105,107.354 206.118,107.312 206.086,107.288 206.128,107.288 		"/>
		<polygon fill="#FFFFFF" points="207.349,103.272 207.379,103.365 207.477,103.365 207.399,103.421 207.428,103.516 
			207.349,103.458 207.271,103.516 207.301,103.421 207.222,103.365 207.318,103.365 		"/>
		<polygon fill="#FFFFFF" points="206.144,104.276 206.178,104.373 206.278,104.373 206.195,104.434 206.228,104.535 
			206.144,104.473 206.061,104.535 206.094,104.434 206.009,104.373 206.114,104.373 		"/>
		<polygon fill="#FFFFFF" points="206.679,104.69 206.712,104.795 206.823,104.795 206.735,104.861 206.771,104.965 
			206.679,104.901 206.589,104.965 206.623,104.861 206.533,104.795 206.644,104.795 		"/>
		<polygon fill="#FFFFFF" points="205.68,104.705 205.708,104.787 205.796,104.787 205.725,104.838 205.751,104.923 205.68,104.87 
			205.609,104.923 205.638,104.838 205.565,104.787 205.652,104.787 		"/>
		<polygon fill="#FFFFFF" points="205.902,105.079 205.92,105.136 205.979,105.136 205.93,105.169 205.948,105.224 205.902,105.191 
			205.854,105.224 205.873,105.169 205.826,105.136 205.883,105.136 		"/>
		<polygon fill="#FFFFFF" points="202.363,102.68 202.405,102.81 202.54,102.81 202.433,102.887 202.474,103.018 202.363,102.936 
			202.255,103.018 202.297,102.887 202.188,102.81 202.321,102.81 		"/>
		<polygon fill="#FFFFFF" points="204.354,103.714 204.39,103.821 204.5,103.821 204.411,103.883 204.449,103.991 204.354,103.925 
			204.266,103.991 204.3,103.883 204.211,103.821 204.323,103.821 		"/>
		<polygon fill="#FFFFFF" points="202.777,104.616 202.817,104.742 202.954,104.742 202.846,104.823 202.887,104.953 
			202.777,104.871 202.667,104.953 202.708,104.823 202.598,104.742 202.734,104.742 		"/>
		<polygon fill="#FFFFFF" points="203.224,104.421 203.244,104.488 203.312,104.488 203.256,104.527 203.276,104.592 
			203.224,104.551 203.169,104.592 203.189,104.527 203.136,104.488 203.203,104.488 		"/>
		<polygon fill="#FFFFFF" points="203.744,105.1 203.777,105.209 203.894,105.209 203.802,105.278 203.835,105.386 203.744,105.317 
			203.649,105.386 203.684,105.278 203.593,105.209 203.706,105.209 		"/>
		<polygon fill="#FFFFFF" points="204.284,105.947 204.328,106.075 204.461,106.075 204.353,106.155 204.396,106.281 
			204.284,106.202 204.175,106.281 204.218,106.155 204.109,106.075 204.242,106.075 		"/>
		<polygon fill="#FFFFFF" points="203.593,105.559 203.63,105.668 203.744,105.668 203.652,105.735 203.687,105.845 
			203.593,105.778 203.499,105.845 203.536,105.735 203.44,105.668 203.558,105.668 		"/>
		<polygon fill="#FFFFFF" points="202.207,105.083 202.232,105.168 202.321,105.168 202.25,105.221 202.277,105.306 
			202.207,105.253 202.133,105.306 202.161,105.221 202.088,105.168 202.176,105.168 		"/>
	</g>
</g>
</svg>
