<?xml version="1.0" encoding="utf-8"?>
<!-- Generator: Adobe Illustrator 19.0.0, SVG Export Plug-In . SVG Version: 6.00 Build 0)  -->
<svg version="1.1" id="Layer_1" xmlns="http://www.w3.org/2000/svg" xmlns:xlink="http://www.w3.org/1999/xlink" x="0px" y="0px"
	 viewBox="0 0 120 68" style="enable-background:new 0 0 120 68;" xml:space="preserve">
<style type="text/css">
	.st0{fill:#3C4E81;}
	.st1{fill:#51B748;}
	.st2{fill:#F6E700;}
</style>
<g>
	<g>
		<path class="st0" d="M9.4,8.2v5.1H7.2V1.5h4.2c1.9,0,3.4,0.7,3.4,2.8c0,1.3-0.3,2.7-1.8,2.9v0c1.3,0.2,1.7,1,1.7,2.2
			c0,0.5-0.1,3.4,0.5,3.7v0.2h-2.4c-0.3-0.8-0.2-2.2-0.2-3c0-0.7,0-1.7-0.8-1.9C11,8.2,10.4,8.2,9.8,8.2L9.4,8.2L9.4,8.2z M9.4,6.5
			h1.7c0.7,0,1.3-0.5,1.3-1.7c0-1.3-0.6-1.5-1.4-1.6H9.4V6.5z"/>
		<path class="st0" d="M16.6,7.5c-0.1-2.1,1-3.3,3-3.3c2.9,0,3.2,1.5,3.2,3.9v1.2h-4.1v1.3c0,1.2,0.5,1.4,1.1,1.4
			c0.8,0,1-0.6,0.9-1.7h2.1c0.1,2-0.7,3.3-2.8,3.3c-2.4,0-3.3-1.1-3.3-3.7L16.6,7.5L16.6,7.5z M20.7,7.7V6.9c0-0.9-0.3-1.2-1.1-1.2
			c-1,0-1,0.8-1,1.6v0.4L20.7,7.7L20.7,7.7z"/>
		<path class="st0" d="M26.6,14.3c0,0.2,0.1,0.3,0.2,0.4c0.2,0.1,0.4,0.1,0.6,0.1c0.9,0,1-0.7,1-1.4v-1l0,0c-0.4,0.9-1,1.1-1.9,1.2
			c-1.7,0-2.1-1.6-2.1-3V7.3c0-2.4,0.8-3.1,2.1-3.2c0.9,0,1.5,0.4,1.8,1.1h0V4.4h2.1V13c0,1.8-0.5,3.3-3.3,3.3c-1.4,0-2.5-0.5-2.6-2
			H26.6L26.6,14.3z M27.5,5.7c-1,0-0.9,0.8-0.9,1.7v3c0,0.9,0.3,1.5,0.9,1.5c0.7,0,1-0.6,1-1.6V7.7C28.5,7,28.4,5.7,27.5,5.7"/>
		<path class="st0" d="M32.7,1.5h2.1v1.9h-2.1V1.5z M32.7,4.4h2.1v8.9h-2.1V4.4z"/>
		<path id="XMLID_81_" class="st0" d="M38.5,10.4C38.3,12,38.9,12,39.4,12c0.6,0,1-0.4,0.9-1c0-0.5-0.6-0.8-1-1.1l-1.1-0.8
			c-1-0.7-1.7-1.5-1.7-2.8c0-1.4,1.1-2.2,3.1-2.2c2,0,2.9,1,2.9,3h-2.1c0-1-0.2-1.4-0.9-1.4c-0.5,0-0.9,0.2-0.9,0.7
			c0,0.5,0.4,0.8,0.8,1l1.7,1.1c0.5,0.3,1.3,1.1,1.4,1.8c0.2,1.5-0.2,3.2-3,3.2c-1.1,0-3.1-0.5-2.9-3.2L38.5,10.4L38.5,10.4z"/>
		<path id="XMLID_80_" class="st0" d="M47,13.3c-1.2,0.1-2.9,0.3-2.9-1.4v-6h-0.8V4.4H44V2h2.1v2.4H47v1.5h-0.9v5.5
			c0,0.4,0.6,0.3,0.9,0.3V13.3L47,13.3z"/>
		<path id="XMLID_79_" class="st0" d="M50.3,6L50.3,6c0.3-0.6,0.5-1,0.8-1.3c0.6-0.5,1-0.5,1.3-0.5v2.4c-1.1-0.1-2,0.2-2,1.5v5.2
			h-2.1V4.4h2V6L50.3,6z"/>
		<path class="st0" d="M53.5,9.2c0-3,0-5,3.1-5c3,0,3.1,2,3.1,5c0,3.1-0.4,4.4-3.1,4.4C53.9,13.6,53.4,12.3,53.5,9.2 M55.5,10.4
			c0,1.1,0.1,1.6,1.1,1.6c1,0,1-0.5,1-1.6v-3c0-0.8,0-1.7-1-1.7c-1.1,0-1.1,0.9-1.1,1.7V10.4z"/>
		<path class="st0" d="M65.5,13.3V1.5h4.5c2.1,0,2.8,1.7,2.8,3.4c0,1-0.3,2.1-1.1,2.8c-0.7,0.6-1.6,0.7-2.5,0.7h-1.5v5L65.5,13.3
			L65.5,13.3z M67.8,6.6h1.2c1,0,1.6-0.4,1.6-1.9c0-1.4-0.5-1.6-1.8-1.6h-1C67.8,3.2,67.8,6.6,67.8,6.6z"/>
		<path class="st0" d="M78.1,12L78.1,12c-0.3,1.1-0.9,1.5-1.9,1.6c-1.6,0-2-0.8-2-2.3V4.4h2.1v6.2c0,0.4,0,0.7,0.2,1
			c0.2,0.2,0.4,0.3,0.6,0.3c0.9,0,0.9-1,0.9-1.7V4.4h2.1v8.9h-2L78.1,12L78.1,12z M77.4,1.1h2.4l-2.3,2.3h-1.6L77.4,1.1z"/>
		<path class="st0" d="M82.2,1.5h2.1v2.8c0,0.3,0,0.6,0,1h0c0.4-0.9,1-1.1,1.8-1.1c1.3,0,2.1,0.7,2.1,3.2v3.2c0,1.4-0.4,3-2.1,3
			c-0.9,0-1.4-0.3-1.9-1.2h0v0.9h-2V1.5z M84.2,10.4c0,1,0.3,1.6,1,1.6c0.6,0,0.9-0.7,0.9-1.5v-3c-0.1-0.9,0-1.7-0.9-1.7
			c-1,0-1,1.3-1,2L84.2,10.4L84.2,10.4z"/>
		<rect id="XMLID_70_" x="90.2" y="1.5" class="st0" width="2.1" height="11.9"/>
		<path class="st0" d="M94.6,1.5h2.1v1.9h-2.1V1.5z M94.6,4.4h2.1v8.9h-2.1V4.4z"/>
		<path id="XMLID_67_" class="st0" d="M102.1,7.5v-1c0-0.5-0.3-0.8-0.7-0.8c-0.8,0-0.8,0.9-0.8,2v2.1c0,1.7,0.2,2.1,0.8,2.1
			c0.6,0,0.6-0.6,0.7-1.3V9.8h2.1v0.8c0,1.9-0.8,2.9-2.8,2.9c-1.8,0-2.9-1-2.8-3.3V7.3c0-2.5,1.2-3.2,2.8-3.2c2.1,0,2.8,1.3,2.8,2.6
			v0.7L102.1,7.5L102.1,7.5z"/>
		<path class="st0" d="M105.7,9.2c0-3,0-5,3.1-5c3,0,3.1,2,3.1,5c0,3.1-0.4,4.4-3.1,4.4C106.1,13.6,105.7,12.3,105.7,9.2
			 M107.7,10.4c0,1.1,0.1,1.6,1.1,1.6c0.9,0,1-0.5,1-1.6v-3c0-0.8,0-1.7-1-1.7c-1.1,0-1.1,0.9-1.1,1.7V10.4z"/>
		<path class="st0" d="M11.4,33.3L11.4,33.3c-0.6,1.2-1.3,1.5-2.4,1.6c-2.3,0-2.8-2.1-2.8-4v-4.3c0.1-3.2,1.1-4.1,2.8-4.2
			c1.1,0,1.9,0.4,2.4,1.5h0c-0.1-0.4-0.1-0.7-0.1-1v-4h2.7v15.6h-2.7V33.3z M11.4,27.2c0-0.9,0-2.6-1.3-2.6s-1.1,1.1-1.2,2.3v3.9
			c0.1,1.1,0.4,2,1.2,2c0.9,0,1.3-0.7,1.3-2.1L11.4,27.2L11.4,27.2z"/>
		<path class="st0" d="M16.6,26.9c-0.1-2.8,1.3-4.4,4-4.4c3.8,0,4.2,2,4.2,5.2v1.6h-5.4V31c0,1.5,0.6,1.8,1.4,1.8
			c1,0,1.3-0.7,1.3-2.2h2.7c0.1,2.6-1,4.3-3.8,4.3c-3.1,0-4.4-1.5-4.3-4.9L16.6,26.9C16.6,26.9,16.6,26.9,16.6,26.9z M22,27.2v-1
			c0-1.2-0.3-1.6-1.4-1.6c-1.4,0-1.3,1-1.3,2.1v0.5L22,27.2C22,27.2,22,27.2,22,27.2z"/>
		<polygon id="XMLID_60_" class="st0" points="32.5,34.6 32.5,18.9 40.7,18.9 40.7,21.2 35.4,21.2 35.4,25.2 40.3,25.2 40.3,27.5 
			35.4,27.5 35.4,32.3 40.7,32.3 40.7,34.6 		"/>
		<path id="XMLID_59_" class="st0" d="M45.6,24L45.6,24c0.6-1.3,1.8-1.5,2.6-1.5c1,0,2.3,0.4,2.5,1.5h0c0.5-1,1.4-1.5,2.7-1.5
			c2,0,2.9,1.3,2.9,2.5v9.6h-2.7v-7.9c0-1.1-0.1-2.1-1.3-2c-1.2,0.1-1.4,0.9-1.4,2.3v7.7h-2.7v-8.1c0-1-0.1-1.9-1.3-1.9
			c-1.3,0-1.3,1-1.3,2.3v7.7h-2.7V22.8h2.7V24z"/>
		<path class="st0" d="M59.3,18.9H62v2.5h-2.7V18.9z M59.3,22.8H62v11.8h-2.7V22.8z"/>
		<path id="XMLID_56_" class="st0" d="M66.9,30.7c-0.2,2.2,0.6,2.1,1.2,2.1c0.8,0,1.3-0.6,1.1-1.3c0-0.7-0.8-1-1.3-1.4l-1.5-1
			c-1.4-0.9-2.2-2-2.2-3.7c0-1.8,1.4-2.9,4.1-2.9c2.6,0,3.8,1.4,3.8,3.9h-2.7c0.1-1.3-0.3-1.8-1.3-1.8c-0.6,0-1.1,0.3-1.1,1
			c0,0.7,0.5,1,1,1.4l2.2,1.5c0.7,0.4,1.8,1.5,1.9,2.3c0.2,2-0.3,4.2-4,4.2c-1.4,0-4.1-0.6-3.8-4.2L66.9,30.7L66.9,30.7z"/>
		<path id="XMLID_55_" class="st0" d="M76.2,30.7c-0.2,2.2,0.6,2.1,1.3,2.1c0.8,0,1.3-0.6,1.1-1.3c0-0.7-0.8-1-1.3-1.4l-1.5-1
			c-1.4-0.9-2.2-2-2.2-3.7c0-1.8,1.4-2.9,4.1-2.9c2.6,0,3.8,1.4,3.8,3.9h-2.7c0.1-1.3-0.3-1.8-1.3-1.8c-0.6,0-1.1,0.3-1.1,1
			c0,0.7,0.5,1,1,1.4l2.2,1.5c0.7,0.4,1.8,1.5,1.9,2.3c0.2,2-0.3,4.2-4,4.2c-1.4,0-4.1-0.6-3.8-4.2L76.2,30.7L76.2,30.7z"/>
		<path class="st0" d="M87.2,34.9c-3.3,0-4-1.7-4-5.6v-0.2c0-4,0.1-6.6,4.1-6.6c4,0,4.1,2.6,4.1,6.6v0.2c0,3.9-0.6,5.6-3.9,5.6h-0.2
			L87.2,34.9L87.2,34.9z M91.2,19.1c-0.4,2.1-1.5,2.5-2.4,2.5c-0.4,0-1.4-0.3-1.8-0.5c-0.3-0.1-0.7-0.3-1.1-0.3
			c-0.1,0-0.3,0-0.4,0.1c-0.3,0.2-0.5,0.7-0.5,0.8h-1.3c0.1-1.7,1.5-2.6,2.4-2.6c0.7,0,1,0.1,1.6,0.4c0.3,0.1,1,0.4,1.3,0.4
			c0.6,0,0.9-0.3,1-0.9L91.2,19.1L91.2,19.1L91.2,19.1z M85.9,30.7c0,1.4,0.1,2.1,1.4,2.1c1.2,0,1.4-0.6,1.4-2.1v-3.9
			c0-1.1,0-2.2-1.4-2.2c-1.4,0-1.4,1.1-1.4,2.2V30.7z"/>
		<path class="st0" d="M93.7,26.9c-0.1-2.8,1.3-4.4,4-4.4c3.8,0,4.2,2,4.2,5.2v1.6h-5.4V31c0,1.5,0.6,1.8,1.4,1.8
			c1,0,1.3-0.7,1.2-2.2h2.7c0.1,2.6-1,4.3-3.8,4.3c-3.1,0-4.4-1.5-4.3-4.9L93.7,26.9L93.7,26.9z M99.1,27.2v-1
			c0-1.2-0.3-1.6-1.4-1.6c-1.4,0-1.3,1-1.3,2.1v0.5L99.1,27.2L99.1,27.2z"/>
		<path id="XMLID_49_" class="st0" d="M106.3,30.7c-0.2,2.2,0.6,2.1,1.3,2.1c0.8,0,1.3-0.6,1.1-1.3c0-0.7-0.8-1-1.3-1.4l-1.5-1
			c-1.4-0.9-2.2-2-2.2-3.7c0-1.8,1.4-2.9,4.1-2.9c2.6,0,3.8,1.4,3.8,3.9h-2.7c0.1-1.3-0.3-1.8-1.2-1.8c-0.7,0-1.1,0.3-1.1,1
			c0,0.7,0.5,1,1,1.4l2.2,1.5c0.7,0.4,1.8,1.5,1.9,2.3c0.2,2-0.3,4.2-4,4.2c-1.4,0-4.1-0.6-3.8-4.2L106.3,30.7L106.3,30.7z"/>
		<path class="st0" d="M6.3,45.8v-5.9h1.6c0.5,0,1,0.1,1.4,0.4c0.4,0.3,0.5,0.8,0.5,1.3c0,0.7-0.2,1.3-0.8,1.6
			c-0.4,0.2-1.1,0.2-1.5,0.2H6.9v2.5L6.3,45.8L6.3,45.8z M6.9,42.7h0.6c0.9,0,1.5-0.1,1.4-1.1c0-1-0.6-1.1-1.4-1.1H6.9L6.9,42.7
			L6.9,42.7z"/>
		<path id="XMLID_46_" class="st0" d="M11.2,42.2L11.2,42.2c0.3-0.6,0.7-0.8,1.3-0.8V42c-0.8-0.1-1.3,0.4-1.3,1.2v2.7h-0.6v-4.4h0.6
			L11.2,42.2L11.2,42.2z"/>
		<path class="st0" d="M14.6,45.9c-1,0-1.6-0.6-1.6-2.5c0-1.3,0.5-2.2,1.6-2.2c1.1,0,1.6,0.8,1.6,2.2C16.1,45.4,15.5,45.9,14.6,45.9
			 M14.6,41.8c-0.6,0-0.9,0.5-0.9,1.8c0,1,0.2,1.7,0.9,1.7c0.7,0,0.9-0.7,0.9-1.7C15.5,42.3,15.2,41.8,14.6,41.8"/>
		<path class="st0" d="M19.3,41.4h0.6v3.9c0,0.5,0,0.9-0.3,1.4c-0.3,0.4-0.7,0.6-1.2,0.6c-0.7,0-1.2-0.3-1.3-1.1h0.6
			c0.1,0.4,0.3,0.5,0.7,0.5c1,0,0.9-1,0.9-1.5h0c-0.3,0.4-0.5,0.6-0.9,0.6c-0.8,0-1.4-0.6-1.4-2.3c0-0.9,0.2-2.3,1.4-2.3
			c0.4,0,0.8,0.2,1,0.6h0V41.4L19.3,41.4L19.3,41.4z M17.5,43.6c0,1.1,0.2,1.8,0.8,1.8c0.9,0,0.9-1.2,0.9-1.9c0-0.9-0.2-1.7-0.9-1.7
			C17.6,41.8,17.5,43,17.5,43.6"/>
		<path id="XMLID_41_" class="st0" d="M21.7,42.2L21.7,42.2c0.3-0.6,0.7-0.8,1.3-0.8V42c-0.8-0.1-1.3,0.4-1.3,1.2v2.7h-0.6v-4.4h0.6
			L21.7,42.2L21.7,42.2z"/>
		<path class="st0" d="M26.4,45.8c0,0-0.1,0-0.1,0c-0.5,0-0.7,0-0.8-0.6h0c-0.1,0.4-0.6,0.7-1,0.7c-0.9,0-1.1-0.5-1.1-1.3
			c0-0.2,0-0.8,0.6-1.1c0.4-0.2,1.2-0.5,1.3-0.6c0.1-0.1,0.1-0.3,0.1-0.5c0-0.5-0.2-0.7-0.7-0.7c-0.6,0-0.6,0.3-0.6,0.8h-0.6
			c0-0.9,0.4-1.3,1.3-1.3c1.3,0,1.2,1.1,1.2,1.2V45c0,0.1,0,0.3,0.1,0.3c0.1,0,0.2,0,0.3,0L26.4,45.8L26.4,45.8L26.4,45.8z
			 M25.4,43.4c-0.3,0.2-0.7,0.3-1,0.5c-0.3,0.1-0.4,0.5-0.4,0.8c0,0.4,0.1,0.7,0.6,0.7c0.2,0,0.8-0.2,0.8-0.9V43.4L25.4,43.4z"/>
		<path id="XMLID_38_" class="st0" d="M27.8,45.8h-0.6v-4.4h0.6V42h0c0.2-0.4,0.6-0.7,1-0.7c0.5,0,0.8,0.3,1,0.7
			c0.3-0.4,0.6-0.7,1.2-0.7c0.3,0,0.6,0.1,0.8,0.3c0.3,0.3,0.3,0.8,0.3,1v3.2h-0.6v-3.2c0-0.5-0.1-0.8-0.7-0.8
			c-0.2,0-0.4,0.1-0.6,0.2C30,42.3,30,42.6,30,42.9v2.9h-0.6v-3.2c0-0.5-0.2-0.8-0.7-0.8c-0.2,0-0.4,0.1-0.6,0.2
			c-0.3,0.2-0.3,0.5-0.3,0.8L27.8,45.8L27.8,45.8L27.8,45.8z"/>
		<path class="st0" d="M36,45.8c0,0-0.1,0-0.1,0c-0.5,0-0.7,0-0.8-0.6h0c-0.1,0.4-0.6,0.7-1,0.7c-0.9,0-1.1-0.5-1.1-1.3
			c0-0.2,0-0.8,0.6-1.1c0.4-0.2,1.2-0.5,1.3-0.6c0.1-0.1,0.1-0.3,0.1-0.5c0-0.5-0.2-0.7-0.7-0.7c-0.6,0-0.6,0.3-0.6,0.8h-0.6
			c0-0.9,0.4-1.3,1.3-1.3c1.3,0,1.2,1.1,1.2,1.2V45c0,0.1,0,0.3,0.1,0.3c0.1,0,0.2,0,0.3,0L36,45.8L36,45.8L36,45.8z M35,43.4
			c-0.3,0.2-0.7,0.3-1,0.5c-0.3,0.1-0.4,0.5-0.4,0.8c0,0.4,0.1,0.7,0.6,0.7c0.2,0,0.8-0.2,0.8-0.9L35,43.4L35,43.4z"/>
		<path class="st0" d="M38.9,45.8v-5.9h1.7c1.1,0,1.5,0.6,1.5,1.5c0,0.7-0.2,1.1-0.9,1.3v0c0.8,0.1,1,0.7,1,1.4
			c0,1.2-0.6,1.8-1.8,1.7L38.9,45.8L38.9,45.8z M39.5,42.4h0.6c0.8,0,1.3-0.1,1.3-1c0-0.7-0.3-0.9-1.3-0.9h-0.6V42.4L39.5,42.4z
			 M40.5,45.2c0.7,0,1-0.3,1-1.1c0-1.2-0.7-1.1-1.4-1.1h-0.6v2.2H40.5z"/>
		<path id="XMLID_32_" class="st0" d="M43.9,42.2L43.9,42.2c0.3-0.6,0.7-0.8,1.3-0.8V42c-0.8-0.1-1.3,0.4-1.3,1.2v2.7h-0.6v-4.4h0.6
			L43.9,42.2L43.9,42.2z"/>
		<path class="st0" d="M48.5,45.8c0,0-0.1,0-0.1,0c-0.5,0-0.7,0-0.8-0.6h0c-0.2,0.4-0.6,0.7-1,0.7c-0.9,0-1.1-0.5-1.1-1.3
			c0-0.2,0-0.8,0.6-1.1c0.4-0.2,1.2-0.5,1.3-0.6c0.1-0.1,0.1-0.3,0.1-0.5c0-0.5-0.2-0.7-0.7-0.7c-0.6,0-0.6,0.3-0.6,0.8h-0.6
			c0-0.9,0.4-1.3,1.3-1.3c1.3,0,1.2,1.1,1.2,1.2V45c0,0.1,0,0.3,0.1,0.3c0.1,0,0.2,0,0.3,0L48.5,45.8L48.5,45.8z M47.5,43.4
			c-0.3,0.2-0.7,0.3-1,0.5c-0.3,0.1-0.4,0.5-0.4,0.8c0,0.4,0.1,0.7,0.6,0.7c0.2,0,0.8-0.2,0.8-0.9V43.4L47.5,43.4z"/>
		<path id="XMLID_29_" class="st0" d="M51.1,42.6c0-0.5-0.2-0.8-0.7-0.8c-0.4,0-0.7,0.2-0.7,0.7c0,0.6,0.5,0.6,0.9,0.8
			c0.6,0.3,1.3,0.4,1.3,1.3c0,0.8-0.6,1.4-1.5,1.3c-0.4,0-0.9-0.1-1.1-0.5c-0.3-0.4-0.2-0.6-0.2-0.9h0.6c0,0.5,0.2,0.9,0.7,0.9
			c0.5,0,0.8-0.2,0.8-0.7c0-0.6-0.6-0.7-1.1-0.9c-0.7-0.3-1.1-0.5-1.1-1.2c0-0.8,0.5-1.2,1.3-1.2c0.9,0,1.4,0.4,1.4,1.3H51.1
			L51.1,42.6z"/>
		<path class="st0" d="M52.8,39.9h0.6v0.8h-0.6V39.9z M52.8,41.4h0.6v4.4h-0.6V41.4z"/>
		<rect id="XMLID_26_" x="54.6" y="39.9" class="st0" width="0.6" height="5.9"/>
		<path class="st0" d="M58.8,44.4c0,0.9-0.4,1.6-1.3,1.6c-0.8,0-1.4-0.6-1.4-2.3c0-0.9,0.2-2.3,1.4-2.3c1.4,0,1.3,1.3,1.4,2.4h-2.1
			c0,0.6-0.1,1.7,0.8,1.7c0.6,0,0.8-0.6,0.7-1.1L58.8,44.4L58.8,44.4L58.8,44.4z M58.2,43.2c0-0.5,0-1.3-0.7-1.3
			c-0.7,0-0.7,0.8-0.8,1.3H58.2z"/>
		<path class="st0" d="M59.8,39.9h0.6v0.8h-0.6C59.8,40.7,59.8,39.9,59.8,39.9z M59.8,41.4h0.6v4.4h-0.6
			C59.8,45.8,59.8,41.4,59.8,41.4z"/>
		<path id="XMLID_21_" class="st0" d="M62.2,42.2L62.2,42.2c0.3-0.6,0.7-0.8,1.3-0.8V42c-0.8-0.1-1.3,0.4-1.3,1.2v2.7h-0.6v-4.4h0.6
			L62.2,42.2L62.2,42.2z"/>
		<path class="st0" d="M65.6,45.9c-0.9,0-1.6-0.6-1.6-2.5c0-1.3,0.5-2.2,1.6-2.2c1.1,0,1.6,0.8,1.6,2.2
			C67.2,45.4,66.6,45.9,65.6,45.9 M65.6,41.8c-0.6,0-0.9,0.5-0.9,1.8c0,1,0.2,1.7,0.9,1.7c0.7,0,0.9-0.7,0.9-1.7
			C66.5,42.3,66.3,41.8,65.6,41.8"/>
		<path id="XMLID_18_" class="st0" d="M73.4,45.9h-0.5V45h0c-0.2,0.7-0.7,1-1.4,1c-1.8,0-1.9-1.8-1.9-3.1c0-1.4,0.2-3,2-3
			c1.1,0,1.8,0.7,1.8,1.8h-0.7c0-0.7-0.3-1.2-1.1-1.2c-1.3,0-1.3,1.5-1.3,2.5c0,0.9,0,2.5,1.1,2.5c1.2,0.1,1.3-1.1,1.3-2h-1.3v-0.6
			h2L73.4,45.9C73.4,45.9,73.4,45.9,73.4,45.9z"/>
		<polygon id="XMLID_17_" class="st0" points="74.7,45.9 74.7,39.9 75.3,39.9 75.3,42.4 77.6,42.4 77.6,39.9 78.2,39.9 78.2,45.9 
			77.6,45.9 77.6,43 75.3,43 75.3,45.9 		"/>
		<path id="XMLID_16_" class="st0" d="M83.1,45.9h-0.5V45h0c-0.2,0.7-0.7,1-1.4,1c-1.8,0-1.9-1.8-1.9-3.1c0-1.4,0.2-3,2-3
			c1.1,0,1.8,0.7,1.8,1.8h-0.7c0-0.7-0.3-1.2-1.1-1.2c-1.3,0-1.3,1.5-1.3,2.5c0,0.9,0,2.5,1.1,2.5c1.2,0.1,1.3-1.1,1.3-2h-1.3v-0.6
			h2L83.1,45.9L83.1,45.9z"/>
		<path class="st0" d="M86.3,45.9v-5.9h1.6c0.5,0,1,0.1,1.4,0.4c0.4,0.3,0.5,0.8,0.5,1.3c0,0.7-0.2,1.3-0.8,1.6
			c-0.4,0.2-1.1,0.2-1.5,0.2H87v2.5L86.3,45.9C86.3,45.9,86.3,45.9,86.3,45.9z M87,42.8h0.6c0.9,0,1.5-0.1,1.4-1.1
			c0-1-0.6-1.1-1.4-1.1H87L87,42.8L87,42.8z"/>
		<path id="XMLID_13_" class="st0" d="M91.3,42.2L91.3,42.2c0.3-0.6,0.7-0.8,1.3-0.8V42c-0.8-0.1-1.3,0.4-1.3,1.2v2.7h-0.6v-4.4h0.6
			L91.3,42.2L91.3,42.2z"/>
		<path class="st0" d="M94.6,46c-0.9,0-1.6-0.6-1.6-2.5c0-1.3,0.5-2.2,1.6-2.2c1.1,0,1.6,0.8,1.6,2.2C96.2,45.4,95.6,46,94.6,46
			 M94.6,41.9c-0.6,0-0.9,0.5-0.9,1.8c0,1,0.2,1.7,0.9,1.7c0.7,0,0.9-0.7,0.9-1.7C95.6,42.4,95.3,41.9,94.6,41.9"/>
		<path id="XMLID_10_" class="st0" d="M97.9,41.5h0.7V42h-0.7v3c0,0.2-0.1,0.3,0.3,0.3h0.4v0.5H98c-0.4,0-0.6-0.1-0.6-0.7V42h-0.6
			v-0.5h0.6v-1.2h0.6L97.9,41.5L97.9,41.5z"/>
		<path class="st0" d="M100.8,46c-0.9,0-1.6-0.6-1.6-2.5c0-1.3,0.5-2.2,1.6-2.2c1.1,0,1.6,0.8,1.6,2.2C102.4,45.4,101.7,46,100.8,46
			 M100.8,41.9c-0.6,0-0.9,0.5-0.9,1.8c0,1,0.2,1.7,0.9,1.7c0.7,0,0.9-0.7,0.9-1.7C101.7,42.4,101.4,41.9,100.8,41.9"/>
		<path id="XMLID_7_" class="st0" d="M103.7,43.9c0,0.6,0,1.6,0.8,1.6c0.7,0,0.7-0.6,0.8-1.1h0.6c0,0.8-0.3,1.6-1.3,1.6
			c-1.3,0-1.5-1.1-1.5-2.3c0-1.1,0.2-2.4,1.5-2.4c0.9,0,1.3,0.7,1.3,1.5h-0.6c0-0.5-0.1-1-0.7-1C103.7,41.9,103.7,43.2,103.7,43.9"
			/>
		<path class="st0" d="M108.2,46c-0.9,0-1.6-0.6-1.6-2.5c0-1.3,0.5-2.2,1.6-2.2c1.1,0,1.6,0.8,1.6,2.2C109.8,45.4,109.2,46,108.2,46
			 M108.2,41.9c-0.6,0-0.9,0.5-0.9,1.8c0,1,0.2,1.7,0.9,1.7c0.7,0,0.9-0.7,0.9-1.7C109.2,42.4,108.9,41.9,108.2,41.9"/>
		<rect id="XMLID_4_" x="110.8" y="39.9" class="st0" width="0.6" height="5.9"/>
	</g>
	<g>
		<g>
			<path id="XMLID_3_" class="st0" d="M117.4,61.4c0,0-16.3-4.3-23.9-7.5c-11.2-4.8-22.9-5-30,0c-7.1,5-48.7,5.4-52.5,2.4
				C20.3,61.6,36.6,67,44.4,67c7.1,0,15.2-3.4,26.7-9.5c9.1,0,32.3,2.8,41.9,3.8C115.5,61.6,117.4,61.4,117.4,61.4z"/>
			<path id="XMLID_2_" class="st1" d="M0.7,51.2c0,0,7.4,4.2,14,6.6c6.4,2.4,17.4,5.8,30.2,5.6c12.7-0.2,20.1-5.2,25.2-5.2
				c5.1,0,29.4,0.4,29.4,0.4s-77.1-3.5-80.6-4.1C15.2,54,3.9,52.8,0.7,51.2z"/>
			<path id="XMLID_1_" class="st2" d="M0.7,51.2c0,0,17,5.9,33.1,7.9c13.9,1.7,19.5,5,36.1,1.4c22.7-5,32.6,3,47.6,0.9
				c-11-0.6-11.3-1.3-27.1-6.3c-15.8-5-27.9-4.1-35-4C48.4,51.2,34.9,57.3,0.7,51.2z"/>
		</g>
	</g>
</g>
</svg>
