<?xml version="1.0" encoding="utf-8"?>
<!-- Generator: Adobe Illustrator 19.0.0, SVG Export Plug-In . SVG Version: 6.00 Build 0)  -->
<svg version="1.1" id="Layer_1" xmlns="http://www.w3.org/2000/svg" xmlns:xlink="http://www.w3.org/1999/xlink" x="0px" y="0px"
	 viewBox="-28.5 361.6 291 55.5" style="enable-background:new -28.5 361.6 291 55.5;" xml:space="preserve">
<style type="text/css">
	.st0{fill:#808283;}
	.st1{fill:#84CAA0;}
	.st2{fill:#77B893;}
	.st3{fill:#75C7E0;}
	.st4{fill:#62A5BB;}
	.st5{fill:#DCDB77;}
	.st6{fill:#C5C56C;}
	.st7{fill:#F7963F;}
	.st8{fill:#E18837;}
	.st9{enable-background:new    ;}
</style>
<g>
	<g>
		<g>
			<path class="st0" d="M79.4,380v19.5h-1.1v-18.4l-7.5,9.9l-7.6-9.9v18.4h-1.1V380h1.6l7.1,9.3l7.1-9.3L79.4,380L79.4,380z"/>
			<path class="st0" d="M91,380l7.1,19.5h-1.2l-3.1-8.6H87l-3.2,8.6h-1.2l7.2-19.5H91L91,380z M93.3,389.8l-3-8.2l-3,8.2H93.3z"/>
			<path class="st0" d="M102.8,392.8v6.8h-1.1V380h5.2c1.5,0.2,2.8,0.8,3.8,1.9c1.2,1.2,1.8,2.8,1.8,4.5c0,1.8-0.6,3.3-1.8,4.5
				c-1.2,1.2-2.7,1.9-4.5,1.9L102.8,392.8L102.8,392.8z M102.8,381.1v10.5h3.3c1.4,0,2.7-0.5,3.7-1.6c1-1,1.6-2.2,1.6-3.7
				c0-1.4-0.5-2.7-1.6-3.7c-1-1-2.2-1.6-3.7-1.6L102.8,381.1L102.8,381.1z"/>
			<path class="st1" d="M127.9,388.2c1.3,1.3,2,2.8,2,4.7c0,1.8-0.7,3.4-2,4.7c-1.1,1.1-2.4,1.8-4.1,2h-6.9v-19.9h6.3
				c1.3,0,2.4,0.4,3.3,1.3c0.9,0.9,1.3,1.9,1.3,3.1c0,1.2-0.4,2.2-1.3,3.1C126.8,387.2,127.3,387.5,127.9,388.2z M119.4,381.8v4.3h4
				c0.5-0.1,0.9-0.2,1.3-0.5c0.4-0.4,0.6-0.9,0.6-1.6c0-0.7-0.2-1.2-0.6-1.6c-0.4-0.4-0.9-0.6-1.4-0.6L119.4,381.8L119.4,381.8z
				 M123.1,397.4c1.2,0,2.2-0.4,3.1-1.3c0.9-0.9,1.3-2,1.3-3.2c0-1.3-0.4-2.4-1.3-3.2c-0.9-0.9-1.9-1.3-3.1-1.3h-3.6v9L123.1,397.4
				L123.1,397.4z"/>
			<path class="st1" d="M136.8,379.7v19.9h-2.5v-19.9H136.8z"/>
			<path class="st1" d="M159,382.4c2,2,3,4.4,3,7.2s-1,5.2-3,7.2c-2,2-4.5,3-7.3,3c-2.9,0-5.4-1-7.3-3c-2-2-3-4.4-3-7.2s1-5.2,3-7.2
				c2-2,4.5-3,7.3-3C154.5,379.4,157,380.3,159,382.4z M151.6,381.6c-2.1,0-3.9,0.7-5.5,2.3c-1.6,1.6-2.3,3.5-2.3,5.7
				s0.7,4.1,2.3,5.7c1.6,1.6,3.4,2.3,5.5,2.3s3.9-0.7,5.5-2.3c1.6-1.6,2.3-3.5,2.3-5.7s-0.7-4.1-2.3-5.7
				C155.6,382.3,153.9,381.6,151.6,381.6z"/>
			<path class="st1" d="M184.3,379.7v19.9h-2.5v-16.1l-6.4,8.5l-6.6-8.5v16.1h-2.5v-19.9h2.6l6.4,8.3l6.4-8.3H184.3z"/>
			<path class="st1" d="M197,379.7l7.2,19.9h-2.6l-3-8.3h-5.4l-3.1,8.3h-2.6l7.3-19.9C194.9,379.7,197,379.7,197,379.7z
				 M197.8,389.1l-1.9-5.3l-1.9,5.3H197.8z"/>
			<path class="st1" d="M214,389.1c-1.4-0.5-2.6-1.2-3.5-2c-0.9-0.9-1.3-1.9-1.3-3.1c0-1.2,0.5-2.2,1.4-3.2c0.9-0.9,2-1.4,3.3-1.4
				c1.3,0,2.4,0.5,3.4,1.4c0.5,0.5,0.9,1.2,1.2,2l-2.2,0.9c-0.3-0.7-0.5-1.2-0.7-1.4c-0.5-0.5-0.9-0.7-1.6-0.7
				c-0.5,0-1.1,0.2-1.6,0.7c-0.5,0.5-0.7,1-0.7,1.7s0.2,1.3,0.7,1.8c0.5,0.5,1.2,0.9,2,1.3c1.6,0.5,2.9,1.3,4,2.4
				c1.2,1.2,1.8,2.6,1.8,4.3c0,1.6-0.6,3.1-1.8,4.3c-1.2,1.2-2.7,1.8-4.5,1.8s-3.3-0.6-4.5-1.8c-0.9-0.9-1.6-2.2-1.8-3.7l2.4-0.9
				c0.1,1.4,0.5,2.5,1.2,3.2c0.7,0.7,1.6,1.1,2.6,1.1c1,0,1.9-0.4,2.6-1.2c0.7-0.7,1.2-1.7,1.2-2.8s-0.3-2-1.1-2.8
				C215.9,390.1,215.1,389.5,214,389.1z"/>
		</g>
	</g>
	<g>
		<polygon class="st1" points="-2.2,388.5 -10.3,380.4 -2.2,372.3 		"/>
		<polygon class="st2" points="-2.2,388.5 5.9,380.4 -2.2,372.3 		"/>
		<polygon class="st3" points="-1.7,371.8 6.4,363.6 14.5,371.8 		"/>
		<polygon class="st4" points="-1.7,371.8 6.4,379.9 14.5,371.8 		"/>
		<polygon class="st3" points="-10.8,379.9 -18.9,371.8 -10.8,363.6 		"/>
		<polygon class="st4" points="-10.8,379.9 -2.7,371.8 -10.8,363.6 		"/>
		<polygon class="st5" points="15,405.7 7,397.6 15,389.6 		"/>
		<polygon class="st6" points="15,405.7 23.1,397.6 15,389.6 		"/>
		<polygon class="st1" points="6.4,397.1 -1.7,389 6.4,381 		"/>
		<polygon class="st2" points="6.4,397.1 14.5,389 6.4,381 		"/>
		<polygon class="st1" points="23.7,379.9 15.6,371.8 23.7,363.6 		"/>
		<polygon class="st2" points="23.7,379.9 31.8,371.8 23.7,363.6 		"/>
		<polygon class="st5" points="7,380.4 15,372.3 23.1,380.4 		"/>
		<polygon class="st6" points="7,380.4 15,388.5 23.1,380.4 		"/>
		<polygon class="st3" points="-18.9,389 -10.8,380.9 -2.7,389 		"/>
		<polygon class="st4" points="-18.9,389 -10.8,397.1 -2.7,389 		"/>
		<polygon class="st3" points="-10.3,397.6 -2.1,389.5 5.9,397.6 		"/>
		<polygon class="st4" points="-10.3,397.6 -2.1,405.7 5.9,397.6 		"/>
		<polygon class="st1" points="-1.7,406.3 6.5,398.1 14.6,406.3 		"/>
		<polygon class="st2" points="-1.7,406.3 6.5,414.3 14.6,406.3 		"/>
		<polygon class="st1" points="23.7,414.3 15.6,406.3 23.7,398.1 		"/>
		<polygon class="st2" points="23.7,414.3 31.8,406.3 23.7,398.1 		"/>
		<polygon class="st3" points="-19.4,405.7 -27.5,397.6 -19.4,389.5 		"/>
		<polygon class="st4" points="-19.4,405.7 -11.3,397.6 -19.4,389.5 		"/>
		<polygon class="st3" points="-27.5,380.4 -19.4,372.3 -11.3,380.4 		"/>
		<polygon class="st4" points="-27.5,380.4 -19.4,388.5 -11.3,380.4 		"/>
		<polygon class="st3" points="-10.7,414.3 -18.9,406.3 -10.7,398.1 		"/>
		<polygon class="st4" points="-10.8,414.3 -2.7,406.3 -10.8,398.1 		"/>
		<polygon class="st7" points="15.6,389 23.7,381 31.8,389 		"/>
		<polygon class="st8" points="15.6,389 23.7,397.1 31.8,389 		"/>
		<polygon class="st5" points="24.2,397.6 32.3,389.6 40.4,397.6 		"/>
		<polygon class="st6" points="24.2,397.6 32.3,405.7 40.4,397.6 		"/>
		<polygon class="st5" points="32.3,388.5 24.2,380.4 32.3,372.3 		"/>
		<polygon class="st6" points="32.3,388.5 40.4,380.4 32.3,372.3 		"/>
	</g>
</g>
<g>
	<path class="st0" d="M229.4,398.6h1.2v1h-2.4v-10.9h2.4v1h-1.2V398.6z"/>
	<path class="st0" d="M256.8,389.7h-1.2v-0.9h2.4v10.9h-2.4v-1h1.2V389.7z"/>
</g>
<g class="st9">
	<path class="st0" d="M232.1,397.6v-7.1h2.3c0.4,0,0.8,0,1.1,0.1c0.3,0.1,0.6,0.2,0.8,0.4c0.2,0.2,0.4,0.4,0.4,0.6
		c0.1,0.2,0.1,0.5,0.1,0.8c0,0.2,0,0.3-0.1,0.5c-0.1,0.2-0.1,0.3-0.2,0.4s-0.2,0.3-0.4,0.4c-0.2,0.1-0.4,0.2-0.6,0.3
		c0.5,0.1,0.9,0.3,1.2,0.6c0.3,0.3,0.4,0.6,0.4,1.1c0,0.3-0.1,0.6-0.2,0.8c-0.1,0.2-0.3,0.5-0.5,0.6c-0.2,0.2-0.5,0.3-0.8,0.4
		c-0.3,0.1-0.7,0.1-1.1,0.1H232.1z M233.1,393.7h1.3c0.3,0,0.5,0,0.7-0.1c0.2-0.1,0.4-0.1,0.5-0.2c0.1-0.1,0.2-0.2,0.3-0.4
		c0.1-0.1,0.1-0.3,0.1-0.5c0-0.4-0.1-0.7-0.4-0.9c-0.2-0.2-0.6-0.3-1.2-0.3h-1.3V393.7z M233.1,394.3v2.5h1.5c0.3,0,0.5,0,0.7-0.1
		c0.2-0.1,0.4-0.2,0.5-0.3c0.1-0.1,0.2-0.2,0.3-0.4c0.1-0.2,0.1-0.3,0.1-0.5c0-0.4-0.1-0.7-0.4-0.9c-0.3-0.2-0.6-0.3-1.2-0.3H233.1z
		"/>
	<path class="st0" d="M242.8,390.5v0.8h-3.4v2.3h2.7v0.7h-2.7v2.4h3.4v0.8h-4.3v-7.1H242.8z"/>
	<path class="st0" d="M249,390.5v0.8h-2.3v6.3h-1v-6.3h-2.3v-0.8H249z"/>
	<path class="st0" d="M255.2,397.6h-0.7c-0.1,0-0.2,0-0.2-0.1c-0.1,0-0.1-0.1-0.1-0.2l-0.7-1.7h-3.2l-0.7,1.7c0,0.1-0.1,0.1-0.1,0.2
		c-0.1,0-0.1,0.1-0.2,0.1h-0.7l2.8-7.1h1L255.2,397.6z M250.6,394.9h2.6l-1.1-2.9c-0.1-0.2-0.1-0.4-0.2-0.7c0,0.1-0.1,0.3-0.1,0.4
		c0,0.1-0.1,0.2-0.1,0.3L250.6,394.9z"/>
</g>
</svg>
