<?xml version="1.0" encoding="utf-8"?>
<!-- Generator: Adobe Illustrator 16.0.0, SVG Export Plug-In . SVG Version: 6.00 Build 0)  -->
<!DOCTYPE svg PUBLIC "-//W3C//DTD SVG 1.1//EN" "http://www.w3.org/Graphics/SVG/1.1/DTD/svg11.dtd">
<svg version="1.1" id="Layer_1" xmlns="http://www.w3.org/2000/svg" xmlns:xlink="http://www.w3.org/1999/xlink" x="0px" y="0px"
	 width="301.25px" height="55.75px" viewBox="0 0 301.25 55.75" enable-background="new 0 0 301.25 55.75" xml:space="preserve">
<path fill="#0056A2" d="M56.648,10.237c0,0.684,0.538,1.228,1.214,1.228s1.213-0.543,1.213-1.228s-0.538-1.228-1.213-1.228
	S56.648,9.553,56.648,10.237 M56.804,20.886c0,0.876,0.416,1.283,1.058,1.283c0.641,0,1.057-0.406,1.057-1.283V13.5
	c0-0.877-0.416-1.28-1.057-1.28c-0.642,0-1.058,0.403-1.058,1.28V20.886z"/>
<path fill="#0056A2" d="M60.878,20.886c0,0.876,0.417,1.283,1.058,1.283s1.058-0.406,1.058-1.283v-5.105
	c0-1.193,0.433-1.702,1.109-1.702c0.451,0,0.815,0.298,0.815,1v5.808c0,0.876,0.417,1.283,1.058,1.283
	c0.641,0,1.058-0.406,1.058-1.283V14.57c0-1.614-0.85-2.351-2.028-2.351c-0.814,0-1.63,0.403-1.976,1.228h-0.035
	c0-0.825-0.417-1.228-1.058-1.228s-1.058,0.403-1.058,1.28V20.886z"/>
<path fill="#0056A2" d="M71.626,18.5c0.589,0.456,0.745,0.719,0.745,1.192c0,0.562-0.277,0.877-0.832,0.877
	c-0.659,0-0.884-0.368-0.919-0.771c-0.069-0.895-0.329-1.316-1.109-1.316c-0.503,0-1.005,0.264-1.005,1.07
	c0,1.105,0.641,2.617,2.913,2.617c1.733,0,3.068-0.932,3.068-2.792c0-1.281-0.694-1.913-2.011-2.912l-1.3-1
	c-0.347-0.263-0.468-0.597-0.468-0.912c0-0.457,0.294-0.737,0.728-0.737c0.537,0,0.884,0.316,0.919,0.965
	c0.034,0.526,0.294,0.824,0.867,0.824c0.849,0,1.108-0.42,1.108-1.052c0-0.772-0.589-2.333-2.842-2.333
	c-1.699,0-2.895,0.842-2.895,2.562c0,1,0.208,1.596,1.421,2.508L71.626,18.5z"/>
<path fill="#0056A2" d="M76.185,20.29c0,0.894,0.502,1.757,2.132,1.757c0.901,0,1.334-0.284,1.334-1.003
	c0-0.562-0.294-0.737-0.78-0.754c-0.485-0.036-0.572-0.263-0.572-0.667v-5.578h0.486c0.624,0,0.936-0.211,0.936-0.79
	c0-0.597-0.312-0.807-0.936-0.807H78.3v-1.631c0-0.877-0.417-1.281-1.058-1.281c-0.642,0-1.057,0.404-1.057,1.281v1.631h-0.226
	c-0.624,0-0.936,0.21-0.936,0.807c0,0.579,0.312,0.79,0.936,0.79h0.226V20.29z"/>
<path fill="#0056A2" d="M80.38,10.237c0,0.684,0.537,1.228,1.213,1.228c0.676,0,1.214-0.543,1.214-1.228s-0.538-1.228-1.214-1.228
	C80.917,9.009,80.38,9.553,80.38,10.237 M80.535,20.886c0,0.876,0.416,1.283,1.057,1.283c0.642,0,1.058-0.406,1.058-1.283V13.5
	c0-0.877-0.416-1.28-1.058-1.28c-0.641,0-1.057,0.403-1.057,1.28V20.886z"/>
<path fill="#0056A2" d="M84.834,20.29c0,0.894,0.503,1.757,2.133,1.757c0.901,0,1.334-0.284,1.334-1.003
	c0-0.562-0.294-0.737-0.78-0.754c-0.486-0.036-0.572-0.263-0.572-0.667v-5.578h0.485c0.625,0,0.936-0.211,0.936-0.79
	c0-0.597-0.312-0.807-0.936-0.807h-0.485v-1.631c0-0.877-0.416-1.281-1.058-1.281c-0.641,0-1.058,0.404-1.058,1.281v1.631H84.61
	c-0.625,0-0.937,0.21-0.937,0.807c0,0.579,0.312,0.79,0.937,0.79h0.225V20.29z"/>
<path fill="#0056A2" d="M89.099,19.815c0,1.614,0.849,2.354,2.027,2.354c0.815,0,1.63-0.406,1.977-1.23h0.034
	c0,0.824,0.416,1.23,1.058,1.23c0.641,0,1.057-0.406,1.057-1.283V13.5c0-0.877-0.416-1.28-1.057-1.28
	c-0.642,0-1.058,0.403-1.058,1.28v5.105c0,1.193-0.364,1.702-1.109,1.702c-0.52,0-0.814-0.298-0.814-1V13.5
	c0-0.877-0.417-1.28-1.058-1.28c-0.642,0-1.057,0.403-1.057,1.28V19.815z"/>
<path fill="#0056A2" d="M97.35,20.29c0,0.894,0.502,1.757,2.132,1.757c0.902,0,1.335-0.284,1.335-1.003
	c0-0.562-0.294-0.737-0.779-0.754c-0.486-0.036-0.573-0.263-0.573-0.667v-5.578h0.486c0.624,0,0.936-0.211,0.936-0.79
	c0-0.597-0.312-0.807-0.936-0.807h-0.486v-1.631c0-0.877-0.416-1.281-1.057-1.281s-1.058,0.404-1.058,1.281v1.631h-0.225
	c-0.625,0-0.936,0.21-0.936,0.807c0,0.579,0.312,0.79,0.936,0.79h0.225V20.29z"/>
<path fill="#0056A2" d="M101.338,18.482c0,2.035,0.658,3.687,3.189,3.687c2.532,0,3.19-1.652,3.19-3.687v-2.579
	c0-2.035-0.658-3.684-3.19-3.684c-2.531,0-3.189,1.649-3.189,3.684V18.482z M103.556,16.043c0-1.719,0.347-2.141,0.971-2.141
	c0.624,0,0.971,0.422,0.971,2.141v2.263c0,1.754-0.277,2.175-0.971,2.175c-0.694,0-0.971-0.421-0.971-2.175V16.043z"/>
<path fill="#0056A2" d="M112.223,18.464c0,1.947,0.347,3.705,2.254,3.705c0.797,0,1.491-0.353,1.873-1.107h0.034
	c0,0.631,0.433,1.107,1.058,1.107c0.642,0,1.058-0.406,1.058-1.283V10.36c0-0.878-0.416-1.281-1.058-1.281s-1.058,0.403-1.058,1.281
	v2.964h-0.034c-0.382-0.719-1.092-1.105-1.873-1.105c-1.907,0-2.254,1.754-2.254,3.701V18.464z M114.443,16.658
	c0-2.088,0.19-2.667,0.901-2.667c0.502,0,1.04,0.386,1.04,2.298v1.79c0,1.352-0.226,2.316-1.057,2.316
	c-0.78,0-0.884-0.913-0.884-2.491V16.658z"/>
<path fill="#0056A2" d="M120.18,18.184c0,2.421,0.347,3.985,3.224,3.985c1.716,0,2.878-1.038,2.878-2.757
	c0-0.842-0.451-1.053-1.075-1.053c-0.59,0-1.006,0.211-1.04,1.141c-0.018,0.508-0.364,0.982-0.815,0.982
	c-0.866,0-0.953-0.895-0.953-2.035v-0.965h2.773c1.075,0,1.179-0.667,1.179-1.526c0-2.491-0.745-3.737-2.947-3.737
	c-2.877,0-3.224,1.561-3.224,3.982V18.184z M122.399,15.974v-0.789c0-0.72,0.225-1.282,0.919-1.282c0.693,0,0.918,0.562,0.918,1.282
	v0.789H122.399z"/>
<path fill="#0056A2" d="M130.685,18.184c0,2.421,0.347,3.985,3.225,3.985c1.716,0,2.877-1.038,2.877-2.757
	c0-0.842-0.451-1.053-1.075-1.053c-0.59,0-1.005,0.211-1.04,1.141c-0.017,0.508-0.364,0.982-0.814,0.982
	c-0.868,0-0.954-0.895-0.954-2.035v-0.965h2.773c1.076,0,1.179-0.667,1.179-1.526c0-2.491-0.745-3.737-2.946-3.737
	c-2.878,0-3.225,1.561-3.225,3.982V18.184z M132.904,15.974v-0.789c0-0.72,0.226-1.282,0.919-1.282s0.919,0.562,0.919,1.282v0.789
	H132.904z"/>
<path fill="#0056A2" d="M138.347,20.886c0,0.876,0.417,1.283,1.058,1.283c0.641,0,1.057-0.406,1.057-1.283v-5.105
	c0-1.193,0.434-1.702,1.11-1.702c0.45,0,0.814,0.298,0.814,1v5.808c0,0.876,0.416,1.283,1.057,1.283s1.058-0.406,1.058-1.283V14.57
	c0-1.614-0.85-2.351-2.028-2.351c-0.815,0-1.63,0.403-1.977,1.228h-0.035c0-0.825-0.416-1.228-1.057-1.228
	c-0.642,0-1.058,0.403-1.058,1.28V20.886z"/>
<path fill="#0056A2" d="M146.096,18.184c0,2.421,0.346,3.985,3.223,3.985c1.717,0,2.879-1.038,2.879-2.757
	c0-0.842-0.452-1.053-1.076-1.053c-0.589,0-1.006,0.211-1.04,1.141c-0.018,0.508-0.364,0.982-0.815,0.982
	c-0.866,0-0.953-0.895-0.953-2.035v-0.965h2.774c1.074,0,1.179-0.667,1.179-1.526c0-2.491-0.746-3.737-2.948-3.737
	c-2.877,0-3.223,1.561-3.223,3.982V18.184z M148.315,15.974v-0.789c0-0.72,0.225-1.282,0.919-1.282c0.693,0,0.917,0.562,0.917,1.282
	v0.789H148.315z"/>
<path fill="#0056A2" d="M153.757,20.886c0,0.876,0.417,1.283,1.058,1.283c0.641,0,1.057-0.406,1.057-1.283v-4.702
	c0-0.842,0.538-1.298,1.197-1.298c0.988,0,1.317-0.631,1.317-1.281c0-0.964-0.468-1.385-1.04-1.385c-0.728,0-1.266,0.86-1.578,2.052
	h-0.035v-0.894c0-0.702-0.295-1.158-0.988-1.158c-0.694,0-0.989,0.456-0.989,1.158V20.886z"/>
<path fill="#0056A2" d="M159.148,18.237c0,1.947,0.347,3.701,2.254,3.701c0.901,0,1.386-0.193,1.871-1.07h0.035v1.319
	c0,1.281-0.191,1.877-1.108,1.877c-0.261,0-0.555-0.158-0.729-0.58c-0.139-0.333-0.451-0.632-0.936-0.632
	c-0.606,0-1.057,0.352-1.057,0.948c0,1.246,1.195,1.771,2.773,1.771c2.115,0,3.172-0.946,3.172-3.104V13.5
	c0-0.877-0.416-1.28-1.004-1.28c-0.659,0-1.041,0.403-1.041,1.28h-0.035c-0.33-0.824-1.127-1.28-1.941-1.28
	c-1.786,0-2.254,1.754-2.254,3.562V18.237z M161.368,16.079c0-1.544,0.346-2.088,0.936-2.088c0.399,0,1.005,0.386,1.005,2.298v1.667
	c0,1.913-0.537,2.298-1.041,2.298c-0.71,0-0.9-0.579-0.9-2.667V16.079z"/>
<path fill="#0056A2" d="M167.313,10.237c0,0.684,0.538,1.228,1.214,1.228c0.675,0,1.212-0.543,1.212-1.228s-0.538-1.228-1.212-1.228
	C167.85,9.009,167.313,9.553,167.313,10.237 M167.469,20.886c0,0.876,0.416,1.283,1.058,1.283c0.641,0,1.057-0.406,1.057-1.283V13.5
	c0-0.877-0.417-1.28-1.057-1.28c-0.642,0-1.058,0.403-1.058,1.28V20.886z"/>
<path fill="#0056A2" d="M175.339,18.71c0,1-0.416,1.772-1.109,1.772c-0.45,0-0.745-0.403-0.745-1.122
	c0-0.808,0.173-1.141,1.109-1.807l0.745-0.526V18.71z M177.454,15.026c0-1.543-0.312-2.807-3.138-2.807
	c-1.629,0-2.947,0.877-2.947,2.526c0,0.65,0.642,0.877,1.11,0.877c0.555,0,0.953-0.264,1.005-0.684
	c0.087-0.755,0.312-1.123,1.04-1.123c0.538,0,0.814,0.439,0.814,0.947c0,0.404-0.208,0.755-0.675,1l-1.889,1
	c-1.11,0.596-1.509,1.42-1.509,2.859c0,1.79,0.937,2.547,2.184,2.547c0.764,0,1.543-0.336,1.925-1.196l0.035-0.017
	c0,0.93,0.538,1.212,1.109,1.212c0.677,0,1.059-0.283,1.059-0.844c0-0.298-0.122-0.808-0.122-1.421V15.026z"/>
<path fill="#0056A2" d="M292.862,17.577c-0.314,0-0.441,0.167-0.441,0.384c0,0.217,0.127,0.384,0.441,0.384h0.672v3.481
	c0,0.269,0.195,0.443,0.424,0.443c0.227,0,0.422-0.174,0.422-0.443v-3.481h0.672c0.316,0,0.441-0.167,0.441-0.384
	c0-0.218-0.125-0.384-0.441-0.384H292.862z"/>
<path fill="#0056A2" d="M295.969,21.827c0,0.269,0.195,0.443,0.422,0.443c0.229,0,0.424-0.174,0.424-0.443v-3.308h0.014l0.695,3.468
	c0.031,0.147,0.082,0.283,0.303,0.283c0.223,0,0.273-0.136,0.305-0.283l0.695-3.468h0.014v3.308c0,0.269,0.195,0.443,0.424,0.443
	c0.227,0,0.422-0.174,0.422-0.443v-3.699c0-0.416-0.131-0.633-0.682-0.633c-0.432,0-0.652,0.16-0.754,0.685l-0.416,2.214h-0.014
	l-0.416-2.214c-0.102-0.525-0.322-0.685-0.754-0.685c-0.551,0-0.682,0.217-0.682,0.633V21.827z"/>
<path fill="#0056A2" d="M184.307,18.229c0,2.421,0.346,3.986,3.223,3.986c1.717,0,2.877-1.039,2.877-2.758
	c0-0.842-0.449-1.052-1.072-1.052c-0.592,0-1.008,0.21-1.043,1.14c-0.016,0.509-0.361,0.982-0.814,0.982
	c-0.865,0-0.953-0.895-0.953-2.035v-0.965h2.773c1.076,0,1.18-0.667,1.18-1.526c0-2.492-0.746-3.737-2.947-3.737
	c-2.877,0-3.223,1.562-3.223,3.983V18.229z M186.524,16.019v-0.79c0-0.719,0.227-1.28,0.92-1.28s0.918,0.561,0.918,1.28v0.79
	H186.524z"/>
<path fill="#0056A2" d="M206.737,14.616c0-1.614-0.85-2.352-2.027-2.352c-0.902,0-1.492,0.281-2.115,1.07
	c-0.416-0.79-0.953-1.07-1.891-1.07c-0.812,0-1.629,0.404-1.975,1.229h-0.035c0-0.825-0.416-1.229-1.057-1.229
	c-0.643,0-1.059,0.404-1.059,1.281v7.386c0,0.877,0.416,1.284,1.059,1.284c0.641,0,1.057-0.407,1.057-1.284v-5.105
	c0-1.193,0.434-1.702,1.092-1.702c0.451,0,0.814,0.298,0.814,1v5.807c0,0.877,0.416,1.284,1.059,1.284
	c0.641,0,1.057-0.407,1.057-1.284v-5.105c0-1.193,0.434-1.702,1.092-1.702c0.451,0,0.816,0.298,0.816,1v5.807
	c0,0.877,0.414,1.284,1.057,1.284s1.057-0.407,1.057-1.284V14.616z"/>
<path fill="#0056A2" d="M208.262,18.229c0,2.421,0.348,3.986,3.225,3.986c1.717,0,2.879-1.039,2.879-2.758
	c0-0.842-0.451-1.052-1.076-1.052c-0.588,0-1.004,0.21-1.039,1.14c-0.018,0.509-0.365,0.982-0.814,0.982
	c-0.867,0-0.955-0.895-0.955-2.035v-0.965h2.775c1.074,0,1.178-0.667,1.178-1.526c0-2.492-0.744-3.737-2.947-3.737
	c-2.877,0-3.225,1.562-3.225,3.983V18.229z M210.481,16.019v-0.79c0-0.719,0.227-1.28,0.92-1.28s0.918,0.561,0.918,1.28v0.79
	H210.481z"/>
<path fill="#0056A2" d="M215.856,10.282c0,0.685,0.537,1.229,1.213,1.229c0.678,0,1.215-0.544,1.215-1.229
	c0-0.684-0.537-1.228-1.215-1.228C216.393,9.054,215.856,9.598,215.856,10.282 M216.012,20.931c0,0.877,0.416,1.284,1.057,1.284
	s1.059-0.407,1.059-1.284v-7.386c0-0.877-0.418-1.281-1.059-1.281s-1.057,0.404-1.057,1.281V20.931z"/>
<path fill="#0056A2" d="M219.809,18.528c0,2.036,0.658,3.688,3.189,3.688c2.529,0,3.189-1.652,3.189-3.688v-2.58
	c0-2.035-0.66-3.684-3.189-3.684c-2.531,0-3.189,1.649-3.189,3.684V18.528z M222.028,16.089c0-1.72,0.346-2.14,0.971-2.14
	c0.623,0,0.971,0.42,0.971,2.14v2.263c0,1.754-0.279,2.175-0.971,2.175c-0.693,0-0.971-0.421-0.971-2.175V16.089z"/>
<path fill="#0056A2" d="M236.086,18.756c0,1-0.418,1.772-1.109,1.772c-0.451,0-0.746-0.404-0.746-1.123
	c0-0.808,0.174-1.141,1.109-1.808l0.746-0.526V18.756z M238.201,15.071c0-1.544-0.312-2.807-3.139-2.807
	c-1.629,0-2.947,0.877-2.947,2.527c0,0.649,0.643,0.877,1.109,0.877c0.555,0,0.953-0.263,1.006-0.684
	c0.086-0.754,0.312-1.123,1.041-1.123c0.537,0,0.814,0.438,0.814,0.947c0,0.404-0.209,0.754-0.676,1l-1.891,1
	c-1.109,0.597-1.508,1.421-1.508,2.86c0,1.789,0.936,2.547,2.184,2.547c0.764,0,1.543-0.337,1.924-1.196l0.035-0.018
	c0,0.93,0.537,1.214,1.109,1.214c0.676,0,1.059-0.284,1.059-0.846c0-0.298-0.121-0.806-0.121-1.421V15.071z"/>
<path fill="#0056A2" d="M250.074,14.616c0-1.614-0.85-2.352-2.027-2.352c-0.9,0-1.492,0.281-2.115,1.07
	c-0.416-0.79-0.953-1.07-1.889-1.07c-0.814,0-1.631,0.404-1.977,1.229h-0.035c0-0.825-0.416-1.229-1.057-1.229
	s-1.057,0.404-1.057,1.281v7.386c0,0.877,0.416,1.284,1.057,1.284s1.057-0.407,1.057-1.284v-5.105c0-1.193,0.434-1.702,1.092-1.702
	c0.451,0,0.814,0.298,0.814,1v5.807c0,0.877,0.416,1.284,1.057,1.284c0.643,0,1.059-0.407,1.059-1.284v-5.105
	c0-1.193,0.434-1.702,1.094-1.702c0.449,0,0.812,0.298,0.812,1v5.807c0,0.877,0.416,1.284,1.059,1.284
	c0.641,0,1.057-0.407,1.057-1.284V14.616z"/>
<path fill="#0056A2" d="M251.965,20.931c0,0.877,0.416,1.284,1.057,1.284c0.625,0,1.059-0.477,1.059-1.109h0.033
	c0.383,0.755,1.074,1.109,1.871,1.109c1.908,0,2.254-1.758,2.254-3.705v-2.544c0-1.948-0.346-3.702-2.254-3.702
	c-0.779,0-1.488,0.386-1.871,1.106h-0.033v-2.965c0-0.877-0.416-1.281-1.059-1.281c-0.641,0-1.057,0.404-1.057,1.281V20.931z
	 M254.08,16.334c0-1.912,0.537-2.298,1.039-2.298c0.711,0,0.902,0.579,0.902,2.667v1.246c0,1.579-0.105,2.492-0.885,2.492
	c-0.832,0-1.057-0.965-1.057-2.316V16.334z"/>
<path fill="#0056A2" d="M259.834,10.282c0,0.685,0.539,1.229,1.213,1.229c0.678,0,1.215-0.544,1.215-1.229
	c0-0.684-0.537-1.228-1.215-1.228C260.373,9.054,259.834,9.598,259.834,10.282 M259.99,20.931c0,0.877,0.416,1.284,1.057,1.284
	c0.643,0,1.059-0.407,1.059-1.284v-7.386c0-0.877-0.416-1.281-1.059-1.281c-0.641,0-1.057,0.404-1.057,1.281V20.931z"/>
<path fill="#0056A2" d="M263.787,18.229c0,2.421,0.348,3.986,3.225,3.986c1.715,0,2.877-1.039,2.877-2.758
	c0-0.842-0.451-1.052-1.074-1.052c-0.59,0-1.006,0.21-1.041,1.14c-0.018,0.509-0.363,0.982-0.814,0.982
	c-0.867,0-0.953-0.895-0.953-2.035v-0.965h2.773c1.074,0,1.18-0.667,1.18-1.526c0-2.492-0.746-3.737-2.947-3.737
	c-2.877,0-3.225,1.562-3.225,3.983V18.229z M266.006,16.019v-0.79c0-0.719,0.225-1.28,0.918-1.28c0.695,0,0.92,0.561,0.92,1.28v0.79
	H266.006z"/>
<path fill="#0056A2" d="M271.449,20.931c0,0.877,0.416,1.284,1.057,1.284c0.643,0,1.059-0.407,1.059-1.284v-5.105
	c0-1.193,0.434-1.702,1.107-1.702c0.453,0,0.816,0.298,0.816,1v5.807c0,0.877,0.416,1.284,1.059,1.284
	c0.639,0,1.057-0.407,1.057-1.284v-6.315c0-1.614-0.85-2.352-2.029-2.352c-0.812,0-1.629,0.404-1.975,1.229h-0.035
	c0-0.825-0.416-1.229-1.059-1.229c-0.641,0-1.057,0.404-1.057,1.281V20.931z"/>
<path fill="#0056A2" d="M279.701,20.335c0,0.895,0.502,1.757,2.131,1.757c0.902,0,1.336-0.283,1.336-1.002
	c0-0.562-0.295-0.737-0.781-0.754c-0.484-0.035-0.572-0.263-0.572-0.667v-5.58h0.486c0.625,0,0.936-0.21,0.936-0.79
	c0-0.596-0.311-0.807-0.936-0.807h-0.486v-1.632c0-0.877-0.416-1.28-1.057-1.28s-1.057,0.403-1.057,1.28v1.632h-0.225
	c-0.625,0-0.938,0.21-0.938,0.807c0,0.58,0.312,0.79,0.938,0.79h0.225V20.335z"/>
<path fill="#0056A2" d="M283.688,18.229c0,2.421,0.348,3.986,3.225,3.986c1.715,0,2.877-1.039,2.877-2.758
	c0-0.842-0.449-1.052-1.074-1.052c-0.59,0-1.006,0.21-1.039,1.14c-0.018,0.509-0.365,0.982-0.816,0.982
	c-0.867,0-0.953-0.895-0.953-2.035v-0.965h2.773c1.076,0,1.18-0.667,1.18-1.526c0-2.492-0.746-3.737-2.947-3.737
	c-2.877,0-3.225,1.562-3.225,3.983V18.229z M285.906,16.019v-0.79c0-0.719,0.225-1.28,0.92-1.28c0.691,0,0.918,0.561,0.918,1.28
	v0.79H285.906z"/>
<g>
	<path fill-rule="evenodd" clip-rule="evenodd" fill="#0056A2" d="M25.731,24.405c1.522-0.639,3.269,0.093,3.899,1.634
		c0.63,1.542-0.093,3.308-1.615,3.945c-1.523,0.639-3.268-0.094-3.899-1.634C23.485,26.81,24.209,25.043,25.731,24.405"/>
	<path fill-rule="evenodd" clip-rule="evenodd" fill="#0056A2" d="M33.089,35.188c-0.572-0.778-0.41-1.88,0.361-2.458
		c0.77-0.579,1.859-0.415,2.431,0.364c0.572,0.78,0.41,1.882-0.361,2.46C34.749,36.133,33.66,35.97,33.089,35.188"/>
	<path fill-rule="evenodd" clip-rule="evenodd" fill="#0056A2" d="M37.598,35.371c-0.441-0.601-0.317-1.452,0.279-1.897
		c0.595-0.446,1.435-0.32,1.876,0.281c0.442,0.601,0.317,1.453-0.278,1.899C38.879,36.1,38.039,35.975,37.598,35.371"/>
	<path fill-rule="evenodd" clip-rule="evenodd" fill="#0056A2" d="M40.87,34.858c-0.378-0.517-0.271-1.244,0.238-1.626
		c0.51-0.383,1.229-0.275,1.606,0.241c0.378,0.515,0.271,1.243-0.239,1.626C41.969,35.48,41.248,35.373,40.87,34.858"/>
	<path fill-rule="evenodd" clip-rule="evenodd" fill="#0056A2" d="M43.803,33.696c-0.31-0.424-0.222-1.02,0.196-1.334
		c0.417-0.313,1.007-0.225,1.317,0.198c0.31,0.422,0.222,1.019-0.195,1.333C44.703,34.206,44.114,34.118,43.803,33.696"/>
	<path fill-rule="evenodd" clip-rule="evenodd" fill="#0056A2" d="M46.095,32.142c-0.262-0.358-0.188-0.862,0.165-1.128
		c0.354-0.266,0.853-0.19,1.115,0.167c0.262,0.359,0.188,0.864-0.166,1.129C46.856,32.575,46.356,32.5,46.095,32.142"/>
	<path fill-rule="evenodd" clip-rule="evenodd" fill="#0056A2" d="M47.573,30.531c-0.246-0.338-0.177-0.814,0.157-1.064
		c0.333-0.251,0.804-0.18,1.052,0.157c0.247,0.338,0.177,0.814-0.156,1.065C48.293,30.939,47.821,30.868,47.573,30.531"/>
	<path fill-rule="evenodd" clip-rule="evenodd" fill="#0056A2" d="M48.79,28.734c-0.211-0.288-0.152-0.695,0.133-0.909
		c0.286-0.215,0.688-0.154,0.9,0.135c0.211,0.289,0.152,0.696-0.134,0.91C49.405,29.084,49.002,29.024,48.79,28.734"/>
	<path fill-rule="evenodd" clip-rule="evenodd" fill="#0056A2" d="M49.71,27.027c-0.178-0.243-0.127-0.588,0.113-0.769
		c0.241-0.18,0.581-0.129,0.759,0.114c0.179,0.244,0.129,0.588-0.113,0.769C50.229,27.322,49.888,27.271,49.71,27.027"/>
	<path fill-rule="evenodd" clip-rule="evenodd" fill="#0056A2" d="M50.263,25.425c-0.147-0.203-0.106-0.487,0.094-0.637
		c0.2-0.149,0.481-0.107,0.629,0.095c0.148,0.201,0.106,0.487-0.094,0.637C50.694,25.669,50.412,25.626,50.263,25.425"/>
	<path fill-rule="evenodd" clip-rule="evenodd" fill="#0056A2" d="M50.408,24.125c-0.133-0.182-0.096-0.439,0.083-0.574
		c0.181-0.135,0.435-0.096,0.568,0.085c0.133,0.182,0.096,0.439-0.084,0.574C50.796,24.345,50.541,24.307,50.408,24.125"/>
	<path fill-rule="evenodd" clip-rule="evenodd" fill="#0056A2" d="M50.549,22.964c-0.108-0.148-0.078-0.357,0.068-0.467
		c0.145-0.109,0.351-0.079,0.459,0.07c0.108,0.147,0.077,0.356-0.068,0.464C50.863,23.141,50.656,23.11,50.549,22.964"/>
	<path fill-rule="evenodd" clip-rule="evenodd" fill="#0056A2" d="M50.687,21.795c-0.085-0.117-0.062-0.281,0.054-0.367
		c0.116-0.086,0.278-0.062,0.363,0.054c0.085,0.116,0.062,0.281-0.054,0.368C50.935,21.936,50.772,21.912,50.687,21.795"/>
	<path fill-rule="evenodd" clip-rule="evenodd" fill="#0056A2" d="M50.677,20.912c-0.065-0.088-0.047-0.214,0.042-0.281
		c0.088-0.065,0.213-0.047,0.277,0.042c0.066,0.089,0.048,0.215-0.041,0.281C50.867,21.02,50.743,21.001,50.677,20.912"/>
	<path fill-rule="evenodd" clip-rule="evenodd" fill="#0056A2" d="M50.593,20.134c-0.047-0.066-0.034-0.158,0.03-0.207
		c0.064-0.048,0.156-0.034,0.204,0.031c0.048,0.065,0.035,0.158-0.03,0.206C50.732,20.212,50.641,20.2,50.593,20.134"/>
	<path fill-rule="evenodd" clip-rule="evenodd" fill="#0056A2" d="M35.638,32.173c-0.822-0.499-1.09-1.58-0.598-2.413
		c0.495-0.833,1.562-1.104,2.385-0.605c0.823,0.5,1.09,1.581,0.597,2.415C37.53,32.402,36.462,32.673,35.638,32.173"/>
	<path fill-rule="evenodd" clip-rule="evenodd" fill="#0056A2" d="M39.874,30.595c-0.635-0.384-0.842-1.218-0.461-1.862
		c0.381-0.642,1.205-0.85,1.841-0.466c0.635,0.385,0.841,1.219,0.46,1.862C41.333,30.772,40.51,30.981,39.874,30.595"/>
	<path fill-rule="evenodd" clip-rule="evenodd" fill="#0056A2" d="M42.703,28.853c-0.544-0.331-0.721-1.043-0.395-1.594
		c0.326-0.55,1.032-0.73,1.576-0.399c0.544,0.33,0.721,1.043,0.395,1.595C43.952,29.004,43.246,29.184,42.703,28.853"/>
	<path fill-rule="evenodd" clip-rule="evenodd" fill="#0056A2" d="M44.973,26.644c-0.446-0.271-0.591-0.856-0.324-1.308
		c0.268-0.451,0.846-0.597,1.292-0.327c0.446,0.27,0.591,0.855,0.323,1.307C45.998,26.768,45.419,26.915,44.973,26.644"/>
	<path fill-rule="evenodd" clip-rule="evenodd" fill="#0056A2" d="M46.502,24.321c-0.377-0.229-0.5-0.725-0.273-1.106
		s0.715-0.506,1.093-0.277c0.377,0.228,0.5,0.724,0.274,1.106C47.369,24.426,46.88,24.551,46.502,24.321"/>
	<path fill-rule="evenodd" clip-rule="evenodd" fill="#0056A2" d="M47.26,22.26c-0.355-0.216-0.471-0.684-0.258-1.043
		c0.214-0.361,0.675-0.478,1.032-0.262c0.356,0.216,0.472,0.684,0.259,1.044C48.078,22.359,47.616,22.476,47.26,22.26"/>
	<path fill-rule="evenodd" clip-rule="evenodd" fill="#0056A2" d="M47.705,20.13c-0.305-0.185-0.404-0.584-0.221-0.893
		c0.182-0.309,0.578-0.408,0.883-0.224c0.304,0.185,0.403,0.586,0.22,0.894C48.404,20.214,48.009,20.315,47.705,20.13"/>
	<path fill-rule="evenodd" clip-rule="evenodd" fill="#0056A2" d="M47.909,18.195c-0.257-0.155-0.341-0.494-0.187-0.753
		c0.154-0.261,0.487-0.344,0.744-0.189c0.257,0.157,0.34,0.493,0.187,0.753C48.498,18.266,48.165,18.351,47.909,18.195"/>
	<path fill-rule="evenodd" clip-rule="evenodd" fill="#0056A2" d="M47.814,16.5c-0.213-0.129-0.283-0.409-0.155-0.625
		c0.128-0.216,0.404-0.286,0.617-0.157c0.214,0.13,0.282,0.409,0.154,0.625C48.303,16.56,48.027,16.63,47.814,16.5"/>
	<path fill-rule="evenodd" clip-rule="evenodd" fill="#0056A2" d="M47.456,15.243c-0.192-0.116-0.254-0.368-0.139-0.563
		c0.115-0.193,0.364-0.257,0.556-0.141s0.255,0.368,0.139,0.563C47.897,15.296,47.648,15.359,47.456,15.243"/>
	<path fill-rule="evenodd" clip-rule="evenodd" fill="#0056A2" d="M47.146,14.116c-0.156-0.094-0.207-0.299-0.113-0.457
		c0.093-0.158,0.294-0.208,0.451-0.113c0.155,0.094,0.206,0.297,0.112,0.455C47.504,14.158,47.302,14.21,47.146,14.116"/>
	<path fill-rule="evenodd" clip-rule="evenodd" fill="#0056A2" d="M46.833,12.983c-0.123-0.075-0.163-0.236-0.089-0.36
		c0.074-0.124,0.233-0.165,0.357-0.09c0.122,0.074,0.162,0.236,0.088,0.36C47.115,13.017,46.956,13.058,46.833,12.983"/>
	<path fill-rule="evenodd" clip-rule="evenodd" fill="#0056A2" d="M46.49,12.171c-0.093-0.057-0.124-0.181-0.068-0.275
		c0.057-0.095,0.179-0.126,0.273-0.069c0.093,0.058,0.124,0.181,0.067,0.276S46.584,12.228,46.49,12.171"/>
	<path fill-rule="evenodd" clip-rule="evenodd" fill="#0056A2" d="M46.117,11.484c-0.068-0.042-0.091-0.132-0.05-0.201
		c0.041-0.07,0.131-0.092,0.2-0.051c0.068,0.042,0.091,0.132,0.049,0.202C46.276,11.504,46.186,11.526,46.117,11.484"/>
	<path fill-rule="evenodd" clip-rule="evenodd" fill="#0056A2" d="M36.55,24.442c-0.931,0.236-1.875-0.337-2.107-1.279
		c-0.234-0.942,0.333-1.897,1.263-2.133c0.931-0.237,1.875,0.336,2.107,1.279C38.047,23.25,37.48,24.207,36.55,24.442"/>
	<path fill-rule="evenodd" clip-rule="evenodd" fill="#0056A2" d="M38.442,20.297c-0.718,0.182-1.446-0.26-1.626-0.988
		c-0.18-0.727,0.257-1.464,0.975-1.646c0.718-0.182,1.448,0.26,1.627,0.987C39.597,19.377,39.161,20.113,38.442,20.297"/>
	<path fill-rule="evenodd" clip-rule="evenodd" fill="#0056A2" d="M39.225,17.041c-0.616,0.155-1.239-0.223-1.394-0.845
		c-0.154-0.624,0.22-1.255,0.835-1.411c0.616-0.156,1.239,0.223,1.394,0.846C40.215,16.252,39.841,16.884,39.225,17.041"/>
	<path fill-rule="evenodd" clip-rule="evenodd" fill="#0056A2" d="M39.286,13.852c-0.504,0.129-1.016-0.182-1.142-0.692
		c-0.126-0.511,0.181-1.028,0.685-1.157c0.504-0.128,1.016,0.183,1.142,0.693C40.098,13.207,39.791,13.724,39.286,13.852"/>
	<path fill-rule="evenodd" clip-rule="evenodd" fill="#0056A2" d="M38.745,11.116c-0.427,0.107-0.859-0.155-0.966-0.586
		c-0.107-0.432,0.153-0.87,0.579-0.979c0.427-0.108,0.86,0.155,0.967,0.586S39.172,11.007,38.745,11.116"/>
	<path fill-rule="evenodd" clip-rule="evenodd" fill="#0056A2" d="M37.842,9.115c-0.403,0.103-0.812-0.145-0.913-0.553
		c-0.101-0.407,0.145-0.821,0.546-0.923c0.404-0.103,0.812,0.146,0.913,0.553S38.244,9.014,37.842,9.115"/>
	<path fill-rule="evenodd" clip-rule="evenodd" fill="#0056A2" d="M36.666,7.292c-0.344,0.087-0.694-0.124-0.779-0.473
		c-0.087-0.349,0.123-0.703,0.467-0.79c0.344-0.087,0.694,0.125,0.78,0.473S37.011,7.204,36.666,7.292"/>
	<path fill-rule="evenodd" clip-rule="evenodd" fill="#0056A2" d="M35.46,5.778c-0.292,0.074-0.586-0.105-0.659-0.399
		c-0.073-0.294,0.104-0.593,0.394-0.666c0.291-0.073,0.586,0.104,0.659,0.398C35.927,5.406,35.75,5.704,35.46,5.778"/>
	<path fill-rule="evenodd" clip-rule="evenodd" fill="#0056A2" d="M34.209,4.647c-0.241,0.062-0.486-0.087-0.545-0.331
		c-0.061-0.244,0.086-0.492,0.327-0.553c0.241-0.061,0.485,0.087,0.546,0.331C34.595,4.339,34.449,4.585,34.209,4.647"/>
	<path fill-rule="evenodd" clip-rule="evenodd" fill="#0056A2" d="M33.076,4.015c-0.217,0.055-0.438-0.078-0.492-0.298
		c-0.055-0.22,0.078-0.443,0.295-0.498c0.217-0.056,0.437,0.079,0.492,0.299C33.426,3.736,33.294,3.959,33.076,4.015"/>
	<path fill-rule="evenodd" clip-rule="evenodd" fill="#0056A2" d="M32.07,3.438c-0.176,0.044-0.354-0.064-0.398-0.242
		c-0.044-0.178,0.063-0.359,0.239-0.404c0.176-0.044,0.355,0.064,0.398,0.242C32.352,3.213,32.245,3.394,32.07,3.438"/>
	<path fill-rule="evenodd" clip-rule="evenodd" fill="#0056A2" d="M31.056,2.861c-0.14,0.036-0.279-0.05-0.315-0.19
		c-0.034-0.141,0.05-0.284,0.189-0.318c0.139-0.036,0.28,0.05,0.315,0.191C31.28,2.684,31.196,2.826,31.056,2.861"/>
	<path fill-rule="evenodd" clip-rule="evenodd" fill="#0056A2" d="M30.247,2.533c-0.106,0.028-0.214-0.038-0.241-0.146
		C29.98,2.28,30.044,2.17,30.15,2.143c0.107-0.027,0.215,0.039,0.241,0.146C30.418,2.397,30.353,2.506,30.247,2.533"/>
	<path fill-rule="evenodd" clip-rule="evenodd" fill="#0056A2" d="M29.504,2.314c-0.077,0.02-0.157-0.029-0.177-0.107
		c-0.02-0.08,0.028-0.16,0.106-0.18c0.079-0.019,0.157,0.029,0.177,0.108C29.629,2.214,29.581,2.294,29.504,2.314"/>
	<path fill-rule="evenodd" clip-rule="evenodd" fill="#0056A2" d="M34.772,20.905c-0.771,0.578-1.859,0.415-2.431-0.366
		c-0.572-0.78-0.41-1.881,0.36-2.46c0.771-0.578,1.86-0.416,2.431,0.365C35.705,19.224,35.543,20.326,34.772,20.905"/>
	<path fill-rule="evenodd" clip-rule="evenodd" fill="#0056A2" d="M34.953,16.341c-0.595,0.446-1.435,0.32-1.877-0.282
		c-0.441-0.602-0.316-1.453,0.279-1.899c0.595-0.447,1.436-0.32,1.877,0.282C35.673,15.043,35.548,15.895,34.953,16.341"/>
	<path fill-rule="evenodd" clip-rule="evenodd" fill="#0056A2" d="M34.446,13.029c-0.509,0.382-1.229,0.274-1.607-0.241
		c-0.377-0.516-0.271-1.244,0.239-1.627c0.509-0.382,1.229-0.273,1.606,0.241C35.061,11.919,34.955,12.647,34.446,13.029"/>
	<path fill-rule="evenodd" clip-rule="evenodd" fill="#0056A2" d="M33.296,10.06c-0.417,0.313-1.008,0.226-1.317-0.198
		c-0.309-0.422-0.222-1.019,0.196-1.333c0.418-0.313,1.007-0.224,1.317,0.198C33.802,9.15,33.715,9.747,33.296,10.06"/>
	<path fill-rule="evenodd" clip-rule="evenodd" fill="#0056A2" d="M31.76,7.742c-0.353,0.264-0.852,0.19-1.114-0.168
		c-0.262-0.357-0.188-0.863,0.166-1.128c0.354-0.266,0.853-0.19,1.115,0.167C32.189,6.971,32.115,7.476,31.76,7.742"/>
	<path fill-rule="evenodd" clip-rule="evenodd" fill="#0056A2" d="M30.17,6.245c-0.334,0.25-0.805,0.179-1.052-0.159
		c-0.248-0.337-0.178-0.814,0.156-1.063c0.333-0.251,0.804-0.18,1.051,0.157C30.573,5.517,30.503,5.994,30.17,6.245"/>
	<path fill-rule="evenodd" clip-rule="evenodd" fill="#0056A2" d="M28.395,5.014c-0.286,0.214-0.688,0.154-0.9-0.135
		c-0.211-0.289-0.152-0.697,0.133-0.911c0.286-0.214,0.689-0.154,0.9,0.135C28.74,4.392,28.681,4.799,28.395,5.014"/>
	<path fill-rule="evenodd" clip-rule="evenodd" fill="#0056A2" d="M26.707,4.083c-0.241,0.181-0.58,0.129-0.758-0.114
		c-0.179-0.244-0.128-0.587,0.112-0.768c0.241-0.181,0.581-0.129,0.759,0.113C26.998,3.558,26.948,3.902,26.707,4.083"/>
	<path fill-rule="evenodd" clip-rule="evenodd" fill="#0056A2" d="M25.124,3.522c-0.2,0.15-0.481,0.108-0.629-0.095
		c-0.149-0.202-0.107-0.486,0.092-0.637c0.201-0.149,0.482-0.107,0.63,0.095C25.365,3.087,25.323,3.373,25.124,3.522"/>
	<path fill-rule="evenodd" clip-rule="evenodd" fill="#0056A2" d="M23.839,3.376c-0.18,0.136-0.434,0.097-0.566-0.085
		c-0.134-0.182-0.097-0.438,0.083-0.574s0.435-0.098,0.568,0.085C24.057,2.984,24.019,3.241,23.839,3.376"/>
	<path fill-rule="evenodd" clip-rule="evenodd" fill="#0056A2" d="M22.691,3.234c-0.146,0.109-0.352,0.078-0.459-0.069
		c-0.108-0.148-0.078-0.356,0.068-0.466c0.146-0.108,0.351-0.078,0.459,0.07C22.867,2.917,22.837,3.125,22.691,3.234"/>
	<path fill-rule="evenodd" clip-rule="evenodd" fill="#0056A2" d="M21.537,3.094c-0.115,0.086-0.277,0.062-0.363-0.055
		c-0.085-0.116-0.061-0.28,0.054-0.368c0.114-0.086,0.278-0.062,0.363,0.055C21.677,2.843,21.653,3.007,21.537,3.094"/>
	<path fill-rule="evenodd" clip-rule="evenodd" fill="#0056A2" d="M20.665,3.104c-0.088,0.066-0.212,0.048-0.278-0.042
		c-0.065-0.09-0.047-0.216,0.041-0.281c0.088-0.066,0.212-0.047,0.278,0.042C20.771,2.912,20.753,3.038,20.665,3.104"/>
	<path fill-rule="evenodd" clip-rule="evenodd" fill="#0056A2" d="M19.896,3.189c-0.064,0.048-0.156,0.036-0.204-0.03
		s-0.034-0.157,0.03-0.207c0.064-0.047,0.155-0.034,0.203,0.03C19.973,3.049,19.96,3.141,19.896,3.189"/>
	<path fill-rule="evenodd" clip-rule="evenodd" fill="#0056A2" d="M31.792,18.324c-0.493,0.833-1.561,1.103-2.384,0.604
		c-0.823-0.5-1.09-1.58-0.597-2.412c0.494-0.833,1.561-1.104,2.384-0.604C32.018,16.411,32.285,17.491,31.792,18.324"/>
	<path fill-rule="evenodd" clip-rule="evenodd" fill="#0056A2" d="M30.234,14.038c-0.38,0.643-1.205,0.852-1.84,0.466
		s-0.842-1.22-0.461-1.862c0.38-0.643,1.205-0.852,1.84-0.466C30.408,12.56,30.615,13.394,30.234,14.038"/>
	<path fill-rule="evenodd" clip-rule="evenodd" fill="#0056A2" d="M28.512,11.175c-0.326,0.551-1.032,0.729-1.575,0.399
		c-0.545-0.33-0.721-1.044-0.395-1.594c0.327-0.551,1.032-0.73,1.576-0.399C28.662,9.911,28.839,10.624,28.512,11.175"/>
	<path fill-rule="evenodd" clip-rule="evenodd" fill="#0056A2" d="M26.328,8.876c-0.267,0.452-0.845,0.599-1.292,0.328
		c-0.446-0.271-0.591-0.856-0.323-1.308c0.267-0.452,0.845-0.598,1.291-0.327C26.45,7.839,26.596,8.425,26.328,8.876"/>
	<path fill-rule="evenodd" clip-rule="evenodd" fill="#0056A2" d="M24.033,7.33c-0.227,0.382-0.716,0.506-1.093,0.276
		c-0.377-0.229-0.5-0.724-0.273-1.106c0.226-0.382,0.715-0.506,1.093-0.277C24.137,6.452,24.26,6.947,24.033,7.33"/>
	<path fill-rule="evenodd" clip-rule="evenodd" fill="#0056A2" d="M21.997,6.562c-0.214,0.361-0.676,0.478-1.032,0.262
		c-0.357-0.216-0.472-0.684-0.258-1.043c0.213-0.361,0.675-0.478,1.031-0.262S22.211,6.202,21.997,6.562"/>
	<path fill-rule="evenodd" clip-rule="evenodd" fill="#0056A2" d="M19.892,6.113c-0.182,0.309-0.577,0.408-0.883,0.223
		c-0.304-0.184-0.403-0.584-0.22-0.893c0.183-0.309,0.578-0.409,0.882-0.224C19.975,5.404,20.075,5.804,19.892,6.113"/>
	<path fill-rule="evenodd" clip-rule="evenodd" fill="#0056A2" d="M17.98,5.906c-0.154,0.26-0.487,0.344-0.745,0.188
		c-0.256-0.156-0.339-0.493-0.186-0.753c0.154-0.261,0.487-0.345,0.744-0.189C18.051,5.308,18.133,5.646,17.98,5.906"/>
	<path fill-rule="evenodd" clip-rule="evenodd" fill="#0056A2" d="M16.306,6.001c-0.128,0.216-0.405,0.286-0.618,0.156
		c-0.212-0.129-0.283-0.408-0.155-0.625c0.127-0.215,0.404-0.286,0.617-0.156C16.364,5.506,16.433,5.786,16.306,6.001"/>
	<path fill-rule="evenodd" clip-rule="evenodd" fill="#0056A2" d="M15.064,6.364c-0.115,0.195-0.364,0.258-0.556,0.142
		s-0.254-0.369-0.139-0.564c0.115-0.194,0.364-0.257,0.557-0.141C15.116,5.917,15.179,6.169,15.064,6.364"/>
	<path fill-rule="evenodd" clip-rule="evenodd" fill="#0056A2" d="M13.949,6.677c-0.094,0.158-0.295,0.209-0.452,0.115
		c-0.155-0.095-0.206-0.298-0.112-0.457c0.093-0.157,0.294-0.208,0.451-0.114C13.992,6.316,14.043,6.52,13.949,6.677"/>
	<path fill-rule="evenodd" clip-rule="evenodd" fill="#0056A2" d="M12.83,6.995c-0.074,0.125-0.233,0.165-0.356,0.091
		c-0.123-0.075-0.163-0.236-0.089-0.36c0.073-0.124,0.233-0.165,0.356-0.091C12.863,6.709,12.903,6.871,12.83,6.995"/>
	<path fill-rule="evenodd" clip-rule="evenodd" fill="#0056A2" d="M12.028,7.342c-0.057,0.095-0.178,0.126-0.272,0.069
		c-0.094-0.057-0.125-0.18-0.068-0.275s0.178-0.126,0.272-0.069C12.053,7.123,12.084,7.246,12.028,7.342"/>
	<path fill-rule="evenodd" clip-rule="evenodd" fill="#0056A2" d="M11.349,7.718c-0.042,0.07-0.131,0.092-0.199,0.05
		c-0.069-0.042-0.092-0.132-0.051-0.202c0.042-0.069,0.131-0.092,0.201-0.051C11.369,7.558,11.39,7.649,11.349,7.718"/>
	<path fill-rule="evenodd" clip-rule="evenodd" fill="#0056A2" d="M28.063,17.093c-0.141,0.961-1.024,1.625-1.974,1.482
		c-0.949-0.143-1.604-1.037-1.463-1.998c0.141-0.961,1.025-1.625,1.974-1.482C27.549,15.238,28.204,16.133,28.063,17.093"/>
	<path fill-rule="evenodd" clip-rule="evenodd" fill="#0056A2" d="M25.003,13.738c-0.109,0.741-0.791,1.253-1.523,1.143
		c-0.733-0.109-1.239-0.8-1.13-1.542c0.108-0.741,0.791-1.253,1.523-1.143C24.605,12.305,25.111,12.996,25.003,13.738"/>
	<path fill-rule="evenodd" clip-rule="evenodd" fill="#0056A2" d="M22.33,11.759c-0.093,0.635-0.677,1.073-1.305,0.979
		c-0.627-0.094-1.06-0.685-0.967-1.32c0.093-0.635,0.677-1.073,1.305-0.98C21.99,10.533,22.423,11.125,22.33,11.759"/>
	<path fill-rule="evenodd" clip-rule="evenodd" fill="#0056A2" d="M19.443,10.482c-0.076,0.521-0.555,0.88-1.069,0.803
		c-0.515-0.079-0.87-0.562-0.793-1.083c0.076-0.52,0.555-0.88,1.069-0.803C19.164,9.476,19.519,9.96,19.443,10.482"/>
	<path fill-rule="evenodd" clip-rule="evenodd" fill="#0056A2" d="M16.738,9.941c-0.065,0.44-0.471,0.744-0.906,0.679
		c-0.435-0.064-0.735-0.475-0.67-0.916c0.064-0.441,0.47-0.745,0.905-0.68S16.802,9.5,16.738,9.941"/>
	<path fill-rule="evenodd" clip-rule="evenodd" fill="#0056A2" d="M14.566,10.021c-0.061,0.416-0.443,0.703-0.854,0.641
		c-0.412-0.061-0.695-0.448-0.634-0.864c0.061-0.415,0.444-0.703,0.854-0.641C14.344,9.218,14.627,9.605,14.566,10.021"/>
	<path fill-rule="evenodd" clip-rule="evenodd" fill="#0056A2" d="M12.451,10.421c-0.052,0.355-0.379,0.601-0.73,0.549
		c-0.352-0.054-0.593-0.385-0.542-0.741c0.052-0.355,0.379-0.6,0.73-0.547C12.261,9.734,12.504,10.065,12.451,10.421"/>
	<path fill-rule="evenodd" clip-rule="evenodd" fill="#0056A2" d="M10.607,10.971c-0.044,0.3-0.321,0.507-0.616,0.462
		c-0.296-0.044-0.502-0.324-0.457-0.624c0.044-0.3,0.319-0.507,0.616-0.462C10.446,10.392,10.652,10.67,10.607,10.971"/>
	<path fill-rule="evenodd" clip-rule="evenodd" fill="#0056A2" d="M9.096,11.708c-0.036,0.248-0.265,0.42-0.511,0.383
		c-0.246-0.037-0.416-0.268-0.378-0.517c0.036-0.249,0.265-0.421,0.51-0.383C8.964,11.227,9.133,11.459,9.096,11.708"/>
	<path fill-rule="evenodd" clip-rule="evenodd" fill="#0056A2" d="M8.086,12.524c-0.032,0.224-0.238,0.378-0.46,0.345
		c-0.223-0.034-0.375-0.242-0.342-0.466c0.033-0.224,0.24-0.379,0.46-0.346C7.966,12.091,8.119,12.299,8.086,12.524"/>
	<path fill-rule="evenodd" clip-rule="evenodd" fill="#0056A2" d="M7.174,13.245c-0.026,0.182-0.193,0.306-0.373,0.28
		c-0.18-0.027-0.303-0.196-0.277-0.378c0.027-0.181,0.194-0.306,0.374-0.28C7.077,12.894,7.201,13.062,7.174,13.245"/>
	<path fill-rule="evenodd" clip-rule="evenodd" fill="#0056A2" d="M6.26,13.971c-0.021,0.144-0.152,0.243-0.294,0.221
		c-0.142-0.021-0.239-0.154-0.219-0.298c0.021-0.144,0.153-0.242,0.294-0.221C6.183,13.694,6.281,13.828,6.26,13.971"/>
	<path fill-rule="evenodd" clip-rule="evenodd" fill="#0056A2" d="M5.65,14.603c-0.015,0.109-0.117,0.185-0.225,0.168
		c-0.108-0.017-0.183-0.119-0.167-0.228c0.016-0.111,0.117-0.186,0.225-0.17C5.592,14.391,5.666,14.493,5.65,14.603"/>
	<path fill-rule="evenodd" clip-rule="evenodd" fill="#0056A2" d="M5.167,15.213c-0.012,0.081-0.085,0.136-0.166,0.124
		c-0.08-0.011-0.134-0.087-0.123-0.167c0.012-0.081,0.085-0.136,0.165-0.125C5.124,15.058,5.178,15.133,5.167,15.213"/>
	<path fill-rule="evenodd" clip-rule="evenodd" fill="#0056A2" d="M24.153,17.401c0.233,0.942-0.333,1.898-1.264,2.134
		c-0.931,0.236-1.875-0.338-2.108-1.279s0.333-1.897,1.264-2.133C22.976,15.887,23.92,16.46,24.153,17.401"/>
	<path fill-rule="evenodd" clip-rule="evenodd" fill="#0056A2" d="M20.056,15.486c0.181,0.727-0.256,1.464-0.976,1.646
		c-0.717,0.182-1.446-0.26-1.626-0.987c-0.18-0.728,0.257-1.464,0.975-1.646C19.147,14.317,19.877,14.759,20.056,15.486"/>
	<path fill-rule="evenodd" clip-rule="evenodd" fill="#0056A2" d="M16.839,14.693c0.154,0.624-0.22,1.255-0.835,1.411
		c-0.616,0.156-1.239-0.222-1.394-0.845c-0.153-0.622,0.22-1.254,0.836-1.41C16.061,13.692,16.684,14.07,16.839,14.693"/>
	<path fill-rule="evenodd" clip-rule="evenodd" fill="#0056A2" d="M13.689,14.631c0.126,0.512-0.18,1.029-0.685,1.157
		c-0.504,0.127-1.016-0.183-1.142-0.693c-0.126-0.51,0.18-1.028,0.685-1.155C13.051,13.811,13.563,14.121,13.689,14.631"/>
	<path fill-rule="evenodd" clip-rule="evenodd" fill="#0056A2" d="M10.985,15.18c0.107,0.432-0.152,0.87-0.58,0.978
		c-0.427,0.109-0.859-0.154-0.967-0.586c-0.106-0.432,0.153-0.87,0.58-0.979C10.446,14.485,10.878,14.747,10.985,15.18"/>
	<path fill-rule="evenodd" clip-rule="evenodd" fill="#0056A2" d="M9.01,16.095c0.101,0.408-0.144,0.821-0.547,0.923
		C8.06,17.12,7.651,16.872,7.55,16.464c-0.1-0.407,0.144-0.821,0.547-0.923C8.5,15.439,8.908,15.687,9.01,16.095"/>
	<path fill-rule="evenodd" clip-rule="evenodd" fill="#0056A2" d="M7.206,17.283c0.087,0.348-0.122,0.703-0.467,0.79
		c-0.344,0.087-0.694-0.125-0.78-0.474c-0.086-0.349,0.123-0.702,0.467-0.79C6.771,16.722,7.12,16.934,7.206,17.283"/>
	<path fill-rule="evenodd" clip-rule="evenodd" fill="#0056A2" d="M5.71,18.505c0.073,0.294-0.104,0.592-0.395,0.666
		c-0.291,0.073-0.585-0.105-0.658-0.399c-0.072-0.294,0.104-0.593,0.395-0.666C5.343,18.032,5.637,18.211,5.71,18.505"/>
	<path fill-rule="evenodd" clip-rule="evenodd" fill="#0056A2" d="M4.594,19.771c0.061,0.244-0.087,0.491-0.328,0.553
		c-0.241,0.06-0.486-0.088-0.545-0.331c-0.061-0.245,0.086-0.492,0.327-0.554C4.288,19.379,4.533,19.527,4.594,19.771"/>
	<path fill-rule="evenodd" clip-rule="evenodd" fill="#0056A2" d="M3.969,20.916c0.054,0.22-0.078,0.443-0.295,0.499
		c-0.218,0.055-0.438-0.079-0.492-0.299c-0.055-0.22,0.078-0.443,0.295-0.498C3.694,20.563,3.914,20.697,3.969,20.916"/>
	<path fill-rule="evenodd" clip-rule="evenodd" fill="#0056A2" d="M3.4,21.936c0.043,0.178-0.063,0.358-0.239,0.403
		c-0.176,0.044-0.355-0.064-0.399-0.242C2.718,21.919,2.824,21.738,3,21.693C3.177,21.649,3.355,21.757,3.4,21.936"/>
	<path fill-rule="evenodd" clip-rule="evenodd" fill="#0056A2" d="M2.829,22.961c0.035,0.14-0.05,0.283-0.188,0.318
		c-0.139,0.036-0.28-0.05-0.315-0.191c-0.034-0.141,0.05-0.283,0.189-0.318C2.654,22.735,2.795,22.82,2.829,22.961"/>
	<path fill-rule="evenodd" clip-rule="evenodd" fill="#0056A2" d="M2.505,23.781c0.026,0.107-0.038,0.216-0.145,0.243
		c-0.107,0.026-0.215-0.039-0.242-0.146c-0.026-0.107,0.038-0.217,0.145-0.244C2.37,23.607,2.478,23.672,2.505,23.781"/>
	<path fill-rule="evenodd" clip-rule="evenodd" fill="#0056A2" d="M2.289,24.532c0.02,0.078-0.029,0.158-0.106,0.178
		c-0.078,0.02-0.157-0.028-0.177-0.106c-0.019-0.079,0.028-0.159,0.107-0.179C2.19,24.405,2.269,24.453,2.289,24.532"/>
	<path fill-rule="evenodd" clip-rule="evenodd" fill="#0056A2" d="M20.657,19.2c0.571,0.781,0.41,1.882-0.361,2.46
		c-0.771,0.579-1.859,0.416-2.431-0.365c-0.571-0.78-0.411-1.882,0.361-2.461C18.997,18.256,20.086,18.42,20.657,19.2"/>
	<path fill-rule="evenodd" clip-rule="evenodd" fill="#0056A2" d="M16.148,19.018c0.441,0.602,0.316,1.452-0.279,1.898
		c-0.594,0.447-1.436,0.321-1.876-0.282c-0.441-0.602-0.316-1.452,0.278-1.898C14.866,18.29,15.707,18.415,16.148,19.018"/>
	<path fill-rule="evenodd" clip-rule="evenodd" fill="#0056A2" d="M12.876,19.531c0.377,0.516,0.271,1.244-0.239,1.626
		c-0.509,0.382-1.229,0.274-1.606-0.242c-0.378-0.515-0.271-1.244,0.239-1.626C11.778,18.908,12.498,19.016,12.876,19.531"/>
	<path fill-rule="evenodd" clip-rule="evenodd" fill="#0056A2" d="M9.942,20.694c0.311,0.423,0.222,1.02-0.195,1.334
		c-0.417,0.313-1.008,0.224-1.317-0.198c-0.31-0.423-0.222-1.021,0.196-1.333C9.042,20.183,9.633,20.271,9.942,20.694"/>
	<path fill-rule="evenodd" clip-rule="evenodd" fill="#0056A2" d="M7.651,22.248c0.262,0.358,0.188,0.863-0.166,1.128
		c-0.354,0.266-0.853,0.19-1.115-0.167c-0.262-0.357-0.188-0.863,0.166-1.127C6.89,21.814,7.389,21.889,7.651,22.248"/>
	<path fill-rule="evenodd" clip-rule="evenodd" fill="#0056A2" d="M6.172,23.858c0.248,0.338,0.178,0.814-0.156,1.065
		c-0.333,0.25-0.805,0.179-1.052-0.159c-0.248-0.337-0.177-0.814,0.156-1.064C5.454,23.45,5.924,23.52,6.172,23.858"/>
	<path fill-rule="evenodd" clip-rule="evenodd" fill="#0056A2" d="M4.956,25.654c0.211,0.289,0.151,0.697-0.133,0.912
		c-0.286,0.213-0.689,0.153-0.9-0.136c-0.211-0.288-0.152-0.695,0.134-0.91C4.341,25.305,4.744,25.366,4.956,25.654"/>
	<path fill-rule="evenodd" clip-rule="evenodd" fill="#0056A2" d="M4.035,27.363c0.179,0.244,0.128,0.586-0.112,0.769
		c-0.241,0.179-0.581,0.129-0.759-0.114c-0.178-0.245-0.128-0.589,0.113-0.769C3.517,27.068,3.857,27.12,4.035,27.363"/>
	<path fill-rule="evenodd" clip-rule="evenodd" fill="#0056A2" d="M3.482,28.963c0.148,0.203,0.105,0.487-0.093,0.638
		c-0.2,0.149-0.482,0.107-0.63-0.095c-0.147-0.202-0.105-0.487,0.094-0.637C3.052,28.719,3.334,28.762,3.482,28.963"/>
	<path fill-rule="evenodd" clip-rule="evenodd" fill="#0056A2" d="M3.338,30.264c0.134,0.183,0.095,0.44-0.085,0.574
		c-0.18,0.135-0.433,0.097-0.567-0.084c-0.133-0.183-0.096-0.439,0.084-0.575C2.95,30.044,3.204,30.083,3.338,30.264"/>
	<path fill-rule="evenodd" clip-rule="evenodd" fill="#0056A2" d="M3.197,31.427c0.109,0.147,0.078,0.355-0.067,0.465
		c-0.146,0.11-0.352,0.079-0.46-0.068c-0.108-0.147-0.078-0.355,0.068-0.465C2.883,31.248,3.09,31.279,3.197,31.427"/>
	<path fill-rule="evenodd" clip-rule="evenodd" fill="#0056A2" d="M3.058,32.594c0.085,0.117,0.062,0.282-0.054,0.368
		c-0.115,0.086-0.278,0.062-0.363-0.054c-0.086-0.117-0.061-0.28,0.054-0.368C2.81,32.454,2.973,32.479,3.058,32.594"/>
	<path fill-rule="evenodd" clip-rule="evenodd" fill="#0056A2" d="M3.068,33.477c0.065,0.091,0.046,0.217-0.041,0.28
		c-0.088,0.067-0.212,0.049-0.278-0.04c-0.065-0.09-0.047-0.216,0.042-0.282C2.879,33.37,3.002,33.388,3.068,33.477"/>
	<path fill-rule="evenodd" clip-rule="evenodd" fill="#0056A2" d="M3.153,34.255c0.048,0.065,0.035,0.158-0.03,0.206
		c-0.064,0.048-0.155,0.036-0.204-0.029c-0.047-0.065-0.034-0.158,0.03-0.206C3.014,34.176,3.105,34.189,3.153,34.255"/>
	<path fill-rule="evenodd" clip-rule="evenodd" fill="#0056A2" d="M18.107,22.216c0.823,0.499,1.09,1.58,0.597,2.413
		c-0.494,0.832-1.562,1.104-2.384,0.604c-0.823-0.5-1.09-1.58-0.597-2.413C16.216,21.988,17.284,21.717,18.107,22.216"/>
	<path fill-rule="evenodd" clip-rule="evenodd" fill="#0056A2" d="M13.872,23.794c0.635,0.385,0.841,1.219,0.461,1.861
		c-0.381,0.644-1.206,0.853-1.841,0.466c-0.634-0.384-0.841-1.219-0.46-1.861C12.413,23.617,13.237,23.409,13.872,23.794"/>
	<path fill-rule="evenodd" clip-rule="evenodd" fill="#0056A2" d="M11.043,25.536c0.545,0.33,0.721,1.044,0.395,1.595
		c-0.325,0.55-1.031,0.729-1.575,0.4c-0.544-0.331-0.721-1.045-0.395-1.595S10.499,25.206,11.043,25.536"/>
	<path fill-rule="evenodd" clip-rule="evenodd" fill="#0056A2" d="M8.772,27.745c0.446,0.271,0.591,0.857,0.323,1.309
		C8.829,29.504,8.25,29.65,7.804,29.38c-0.446-0.271-0.591-0.857-0.323-1.308C7.748,27.622,8.326,27.476,8.772,27.745"/>
	<path fill-rule="evenodd" clip-rule="evenodd" fill="#0056A2" d="M7.244,30.067c0.377,0.23,0.5,0.725,0.273,1.108
		c-0.226,0.381-0.716,0.505-1.093,0.276c-0.377-0.229-0.5-0.724-0.273-1.106C6.376,29.962,6.866,29.838,7.244,30.067"/>
	<path fill-rule="evenodd" clip-rule="evenodd" fill="#0056A2" d="M6.486,32.13c0.355,0.216,0.471,0.684,0.258,1.044
		c-0.213,0.359-0.675,0.478-1.032,0.261c-0.356-0.216-0.472-0.685-0.258-1.043C5.667,32.03,6.129,31.913,6.486,32.13"/>
	<path fill-rule="evenodd" clip-rule="evenodd" fill="#0056A2" d="M6.041,34.258c0.304,0.187,0.403,0.585,0.221,0.895
		c-0.182,0.308-0.578,0.408-0.881,0.223c-0.305-0.185-0.404-0.584-0.222-0.893C5.342,34.174,5.737,34.073,6.041,34.258"/>
	<path fill-rule="evenodd" clip-rule="evenodd" fill="#0056A2" d="M5.838,36.195c0.256,0.154,0.34,0.491,0.187,0.752
		c-0.155,0.26-0.487,0.345-0.745,0.188c-0.257-0.157-0.341-0.493-0.187-0.753C5.247,36.123,5.58,36.038,5.838,36.195"/>
	<path fill-rule="evenodd" clip-rule="evenodd" fill="#0056A2" d="M5.932,37.889c0.212,0.129,0.282,0.408,0.153,0.623
		C5.958,38.729,5.682,38.8,5.469,38.67c-0.212-0.129-0.282-0.409-0.155-0.626C5.442,37.829,5.719,37.759,5.932,37.889"/>
	<path fill-rule="evenodd" clip-rule="evenodd" fill="#0056A2" d="M6.29,39.146c0.192,0.115,0.254,0.368,0.139,0.563
		c-0.115,0.194-0.365,0.257-0.557,0.14c-0.191-0.116-0.254-0.367-0.139-0.562C5.849,39.093,6.098,39.029,6.29,39.146"/>
	<path fill-rule="evenodd" clip-rule="evenodd" fill="#0056A2" d="M6.6,40.274c0.156,0.095,0.206,0.298,0.113,0.455
		c-0.093,0.158-0.295,0.209-0.451,0.116c-0.156-0.096-0.206-0.3-0.113-0.457C6.242,40.23,6.444,40.179,6.6,40.274"/>
	<path fill-rule="evenodd" clip-rule="evenodd" fill="#0056A2" d="M6.913,41.406c0.123,0.076,0.163,0.237,0.089,0.361
		c-0.073,0.124-0.233,0.166-0.356,0.09c-0.123-0.073-0.162-0.235-0.089-0.361C6.631,41.372,6.79,41.332,6.913,41.406"/>
	<path fill-rule="evenodd" clip-rule="evenodd" fill="#0056A2" d="M7.256,42.221c0.094,0.055,0.125,0.178,0.068,0.274
		c-0.056,0.096-0.179,0.124-0.272,0.067c-0.094-0.056-0.124-0.178-0.068-0.274C7.04,42.192,7.162,42.161,7.256,42.221"/>
	<path fill-rule="evenodd" clip-rule="evenodd" fill="#0056A2" d="M7.629,42.906c0.068,0.042,0.091,0.133,0.049,0.2
		c-0.041,0.072-0.131,0.094-0.199,0.052c-0.068-0.041-0.091-0.131-0.05-0.203C7.469,42.887,7.559,42.864,7.629,42.906"/>
	<path fill-rule="evenodd" clip-rule="evenodd" fill="#0056A2" d="M16.892,25.99c0.949,0.143,1.604,1.037,1.463,1.998
		c-0.141,0.96-1.024,1.624-1.974,1.481c-0.949-0.143-1.604-1.036-1.463-1.998C15.059,26.511,15.943,25.848,16.892,25.99"/>
	<path fill-rule="evenodd" clip-rule="evenodd" fill="#0056A2" d="M13.575,29.087c0.732,0.109,1.239,0.8,1.13,1.542
		c-0.108,0.742-0.792,1.255-1.524,1.144c-0.732-0.109-1.238-0.8-1.129-1.542C12.159,29.489,12.843,28.977,13.575,29.087"/>
	<path fill-rule="evenodd" clip-rule="evenodd" fill="#0056A2" d="M11.621,31.792c0.627,0.095,1.061,0.687,0.967,1.322
		c-0.093,0.634-0.678,1.072-1.305,0.978c-0.627-0.094-1.061-0.685-0.967-1.32C10.409,32.137,10.993,31.698,11.621,31.792"/>
	<path fill-rule="evenodd" clip-rule="evenodd" fill="#0056A2" d="M10.359,34.714c0.515,0.077,0.87,0.561,0.793,1.082
		c-0.076,0.521-0.555,0.88-1.069,0.803c-0.514-0.078-0.87-0.562-0.793-1.082C9.365,34.996,9.844,34.638,10.359,34.714"/>
	<path fill-rule="evenodd" clip-rule="evenodd" fill="#0056A2" d="M9.824,37.451c0.435,0.065,0.735,0.477,0.671,0.916
		c-0.064,0.441-0.47,0.745-0.905,0.68c-0.436-0.063-0.736-0.475-0.671-0.916C8.984,37.69,9.389,37.386,9.824,37.451"/>
	<path fill-rule="evenodd" clip-rule="evenodd" fill="#0056A2" d="M9.903,39.648c0.411,0.062,0.695,0.448,0.633,0.866
		c-0.061,0.416-0.443,0.703-0.854,0.64c-0.411-0.06-0.694-0.447-0.633-0.862C9.111,39.875,9.493,39.588,9.903,39.648"/>
	<path fill-rule="evenodd" clip-rule="evenodd" fill="#0056A2" d="M10.299,41.791c0.352,0.052,0.594,0.382,0.542,0.738
		c-0.052,0.355-0.379,0.603-0.73,0.549c-0.351-0.051-0.594-0.385-0.542-0.74C9.62,41.981,9.947,41.736,10.299,41.791"/>
	<path fill-rule="evenodd" clip-rule="evenodd" fill="#0056A2" d="M10.842,43.657c0.296,0.046,0.501,0.325,0.458,0.624
		c-0.045,0.299-0.32,0.507-0.617,0.463c-0.296-0.047-0.501-0.325-0.457-0.625C10.269,43.821,10.546,43.612,10.842,43.657"/>
	<path fill-rule="evenodd" clip-rule="evenodd" fill="#0056A2" d="M11.57,45.186c0.245,0.036,0.415,0.271,0.378,0.517
		c-0.036,0.249-0.265,0.422-0.511,0.386c-0.246-0.038-0.415-0.271-0.379-0.518C11.094,45.319,11.324,45.149,11.57,45.186"/>
	<path fill-rule="evenodd" clip-rule="evenodd" fill="#0056A2" d="M12.376,46.207c0.221,0.034,0.375,0.242,0.341,0.468
		c-0.033,0.224-0.239,0.379-0.46,0.347c-0.221-0.036-0.375-0.243-0.342-0.469C11.948,46.33,12.155,46.175,12.376,46.207"/>
	<path fill-rule="evenodd" clip-rule="evenodd" fill="#0056A2" d="M13.089,47.13c0.179,0.029,0.303,0.197,0.277,0.378
		c-0.027,0.183-0.194,0.307-0.374,0.281c-0.179-0.028-0.303-0.197-0.277-0.378C12.741,47.229,12.909,47.104,13.089,47.13"/>
	<path fill-rule="evenodd" clip-rule="evenodd" fill="#0056A2" d="M13.806,48.055c0.142,0.022,0.239,0.154,0.219,0.3
		c-0.021,0.144-0.153,0.242-0.294,0.221c-0.143-0.02-0.24-0.154-0.219-0.298S13.664,48.033,13.806,48.055"/>
	<path fill-rule="evenodd" clip-rule="evenodd" fill="#0056A2" d="M14.43,48.672c0.108,0.017,0.183,0.12,0.167,0.229
		s-0.117,0.184-0.226,0.169c-0.108-0.016-0.183-0.118-0.167-0.229C14.221,48.73,14.322,48.658,14.43,48.672"/>
	<path fill-rule="evenodd" clip-rule="evenodd" fill="#0056A2" d="M15.033,49.162c0.08,0.013,0.135,0.088,0.123,0.167
		c-0.012,0.081-0.086,0.137-0.166,0.125c-0.079-0.012-0.135-0.088-0.122-0.166C14.881,49.207,14.954,49.151,15.033,49.162"/>
	<path fill-rule="evenodd" clip-rule="evenodd" fill="#0056A2" d="M17.197,29.946c0.93-0.234,1.875,0.338,2.107,1.28
		c0.233,0.941-0.332,1.897-1.264,2.135c-0.931,0.235-1.875-0.338-2.108-1.28C15.699,31.137,16.265,30.182,17.197,29.946"/>
	<path fill-rule="evenodd" clip-rule="evenodd" fill="#0056A2" d="M15.303,34.092c0.718-0.181,1.447,0.261,1.627,0.988
		s-0.257,1.464-0.976,1.646c-0.718,0.184-1.447-0.259-1.627-0.985C14.148,35.013,14.585,34.275,15.303,34.092"/>
	<path fill-rule="evenodd" clip-rule="evenodd" fill="#0056A2" d="M14.52,37.349c0.616-0.154,1.239,0.223,1.393,0.845
		c0.154,0.624-0.22,1.255-0.835,1.412c-0.615,0.155-1.24-0.224-1.394-0.847S13.906,37.505,14.52,37.349"/>
	<path fill-rule="evenodd" clip-rule="evenodd" fill="#0056A2" d="M14.459,40.538c0.505-0.129,1.016,0.181,1.142,0.692
		c0.126,0.512-0.18,1.029-0.685,1.156c-0.505,0.127-1.016-0.182-1.142-0.694C13.648,41.184,13.955,40.665,14.459,40.538"/>
	<path fill-rule="evenodd" clip-rule="evenodd" fill="#0056A2" d="M15,43.274c0.427-0.108,0.86,0.154,0.967,0.588
		c0.106,0.432-0.152,0.87-0.579,0.978c-0.427,0.107-0.859-0.153-0.967-0.588C14.314,43.821,14.574,43.382,15,43.274"/>
	<path fill-rule="evenodd" clip-rule="evenodd" fill="#0056A2" d="M15.905,45.273c0.402-0.101,0.811,0.147,0.912,0.554
		c0.101,0.407-0.144,0.82-0.547,0.924c-0.402,0.102-0.811-0.146-0.913-0.554C15.258,45.791,15.501,45.377,15.905,45.273"/>
	<path fill-rule="evenodd" clip-rule="evenodd" fill="#0056A2" d="M17.079,47.1c0.344-0.087,0.693,0.123,0.78,0.474
		c0.086,0.347-0.123,0.7-0.467,0.787c-0.345,0.089-0.694-0.125-0.781-0.472C16.525,47.538,16.734,47.186,17.079,47.1"/>
	<path fill-rule="evenodd" clip-rule="evenodd" fill="#0056A2" d="M18.287,48.614c0.291-0.074,0.585,0.105,0.658,0.396
		c0.072,0.294-0.104,0.593-0.395,0.667c-0.291,0.072-0.585-0.106-0.658-0.399C17.819,48.983,17.996,48.687,18.287,48.614"/>
	<path fill-rule="evenodd" clip-rule="evenodd" fill="#0056A2" d="M19.537,49.744c0.24-0.062,0.485,0.086,0.545,0.33
		c0.06,0.245-0.086,0.49-0.327,0.552c-0.241,0.061-0.486-0.086-0.546-0.331C19.15,50.053,19.296,49.805,19.537,49.744"/>
	<path fill-rule="evenodd" clip-rule="evenodd" fill="#0056A2" d="M20.669,50.377c0.217-0.058,0.437,0.077,0.492,0.298
		c0.055,0.218-0.078,0.44-0.294,0.498c-0.217,0.053-0.438-0.079-0.492-0.301C20.32,50.653,20.452,50.43,20.669,50.377"/>
	<path fill-rule="evenodd" clip-rule="evenodd" fill="#0056A2" d="M21.676,50.951c0.176-0.044,0.354,0.063,0.398,0.243
		c0.044,0.176-0.062,0.357-0.239,0.401c-0.176,0.045-0.354-0.063-0.398-0.24C21.393,51.177,21.501,50.996,21.676,50.951"/>
	<path fill-rule="evenodd" clip-rule="evenodd" fill="#0056A2" d="M22.689,51.528c0.139-0.035,0.28,0.051,0.314,0.191
		c0.035,0.142-0.05,0.283-0.188,0.316c-0.14,0.038-0.28-0.049-0.315-0.19C22.466,51.707,22.55,51.564,22.689,51.528"/>
	<path fill-rule="evenodd" clip-rule="evenodd" fill="#0056A2" d="M23.499,51.858c0.106-0.03,0.213,0.036,0.24,0.145
		c0.026,0.107-0.038,0.216-0.145,0.243c-0.105,0.026-0.214-0.037-0.24-0.145C23.328,51.992,23.392,51.883,23.499,51.858"/>
	<path fill-rule="evenodd" clip-rule="evenodd" fill="#0056A2" d="M24.241,52.076c0.079-0.019,0.157,0.028,0.176,0.106
		c0.02,0.08-0.028,0.158-0.105,0.178c-0.079,0.02-0.157-0.026-0.177-0.104C24.116,52.175,24.163,52.096,24.241,52.076"/>
	<path fill-rule="evenodd" clip-rule="evenodd" fill="#0056A2" d="M18.974,33.485c0.77-0.578,1.858-0.414,2.43,0.365
		c0.571,0.779,0.41,1.882-0.361,2.459c-0.771,0.579-1.859,0.416-2.431-0.364S18.203,34.063,18.974,33.485"/>
	<path fill-rule="evenodd" clip-rule="evenodd" fill="#0056A2" d="M18.792,38.049c0.596-0.447,1.436-0.32,1.877,0.281
		c0.441,0.603,0.317,1.453-0.279,1.9c-0.595,0.445-1.435,0.319-1.876-0.283C18.073,39.345,18.198,38.494,18.792,38.049"/>
	<path fill-rule="evenodd" clip-rule="evenodd" fill="#0056A2" d="M19.3,41.359c0.51-0.382,1.23-0.272,1.607,0.243
		c0.378,0.515,0.272,1.245-0.238,1.627c-0.51,0.383-1.229,0.275-1.607-0.242C18.684,42.473,18.791,41.742,19.3,41.359"/>
	<path fill-rule="evenodd" clip-rule="evenodd" fill="#0056A2" d="M20.449,44.33c0.417-0.313,1.007-0.227,1.318,0.199
		c0.31,0.42,0.222,1.019-0.196,1.332c-0.418,0.313-1.008,0.227-1.318-0.197C19.944,45.241,20.032,44.644,20.449,44.33"/>
	<path fill-rule="evenodd" clip-rule="evenodd" fill="#0056A2" d="M21.985,46.647c0.353-0.264,0.853-0.19,1.115,0.168
		c0.262,0.357,0.188,0.862-0.166,1.129c-0.353,0.265-0.852,0.189-1.114-0.169C21.557,47.418,21.631,46.914,21.985,46.647"/>
	<path fill-rule="evenodd" clip-rule="evenodd" fill="#0056A2" d="M23.576,48.146c0.333-0.25,0.805-0.178,1.052,0.157
		c0.247,0.338,0.177,0.815-0.156,1.065c-0.334,0.25-0.805,0.18-1.052-0.159C23.173,48.874,23.242,48.396,23.576,48.146"/>
	<path fill-rule="evenodd" clip-rule="evenodd" fill="#0056A2" d="M25.35,49.375c0.286-0.213,0.689-0.151,0.9,0.136
		c0.211,0.289,0.152,0.699-0.134,0.912c-0.285,0.212-0.688,0.153-0.899-0.136S25.065,49.592,25.35,49.375"/>
	<path fill-rule="evenodd" clip-rule="evenodd" fill="#0056A2" d="M27.039,50.308c0.24-0.179,0.581-0.131,0.759,0.115
		c0.178,0.241,0.127,0.586-0.113,0.767c-0.241,0.181-0.581,0.13-0.759-0.113C26.748,50.831,26.798,50.488,27.039,50.308"/>
	<path fill-rule="evenodd" clip-rule="evenodd" fill="#0056A2" d="M28.622,50.867c0.199-0.148,0.481-0.106,0.629,0.095
		c0.147,0.203,0.106,0.487-0.094,0.636c-0.2,0.15-0.482,0.109-0.629-0.093C28.38,51.303,28.423,51.017,28.622,50.867"/>
	<path fill-rule="evenodd" clip-rule="evenodd" fill="#0056A2" d="M29.906,51.013c0.179-0.135,0.434-0.096,0.567,0.085
		c0.133,0.183,0.096,0.439-0.084,0.575c-0.18,0.137-0.434,0.099-0.568-0.084C29.689,51.405,29.726,51.148,29.906,51.013"/>
	<path fill-rule="evenodd" clip-rule="evenodd" fill="#0056A2" d="M31.054,51.155c0.146-0.108,0.351-0.079,0.46,0.07
		c0.107,0.148,0.078,0.355-0.068,0.464c-0.146,0.109-0.352,0.079-0.46-0.067C30.878,51.474,30.909,51.265,31.054,51.155"/>
	<path fill-rule="evenodd" clip-rule="evenodd" fill="#0056A2" d="M32.209,51.298c0.115-0.089,0.278-0.063,0.363,0.053
		c0.085,0.116,0.061,0.282-0.054,0.369c-0.115,0.084-0.277,0.061-0.363-0.055C32.069,51.547,32.094,51.384,32.209,51.298"/>
	<path fill-rule="evenodd" clip-rule="evenodd" fill="#0056A2" d="M33.081,51.287c0.088-0.066,0.212-0.048,0.278,0.042
		c0.066,0.088,0.047,0.214-0.042,0.279c-0.087,0.066-0.211,0.049-0.277-0.042C32.974,51.479,32.993,51.354,33.081,51.287"/>
	<path fill-rule="evenodd" clip-rule="evenodd" fill="#0056A2" d="M33.85,51.201c0.064-0.048,0.156-0.033,0.204,0.03
		c0.047,0.066,0.035,0.158-0.031,0.206c-0.064,0.048-0.155,0.034-0.203-0.031C33.772,51.341,33.785,51.252,33.85,51.201"/>
	<path fill-rule="evenodd" clip-rule="evenodd" fill="#0056A2" d="M21.953,36.064c0.494-0.832,1.562-1.103,2.384-0.604
		c0.823,0.498,1.09,1.58,0.597,2.413c-0.494,0.834-1.562,1.104-2.384,0.605C21.728,37.978,21.46,36.899,21.953,36.064"/>
	<path fill-rule="evenodd" clip-rule="evenodd" fill="#0056A2" d="M23.512,40.354c0.381-0.644,1.205-0.854,1.84-0.469
		c0.635,0.387,0.842,1.22,0.46,1.864c-0.38,0.643-1.205,0.851-1.839,0.467C23.337,41.83,23.131,40.995,23.512,40.354"/>
	<path fill-rule="evenodd" clip-rule="evenodd" fill="#0056A2" d="M25.234,43.215c0.326-0.55,1.031-0.727,1.576-0.4
		c0.544,0.331,0.721,1.045,0.394,1.596c-0.326,0.553-1.031,0.73-1.575,0.399C25.084,44.48,24.907,43.766,25.234,43.215"/>
	<path fill-rule="evenodd" clip-rule="evenodd" fill="#0056A2" d="M27.417,45.514c0.268-0.45,0.846-0.597,1.292-0.328
		c0.446,0.272,0.591,0.857,0.324,1.309c-0.268,0.45-0.847,0.598-1.292,0.325C27.295,46.55,27.15,45.964,27.417,45.514"/>
	<path fill-rule="evenodd" clip-rule="evenodd" fill="#0056A2" d="M29.713,47.061c0.226-0.384,0.715-0.505,1.093-0.276
		c0.377,0.229,0.5,0.724,0.274,1.107c-0.227,0.382-0.716,0.504-1.093,0.276C29.609,47.938,29.486,47.442,29.713,47.061"/>
	<path fill-rule="evenodd" clip-rule="evenodd" fill="#0056A2" d="M31.749,47.827c0.213-0.36,0.675-0.478,1.031-0.26
		c0.356,0.216,0.472,0.684,0.258,1.045c-0.213,0.359-0.675,0.478-1.031,0.259C31.651,48.656,31.535,48.188,31.749,47.827"/>
	<path fill-rule="evenodd" clip-rule="evenodd" fill="#0056A2" d="M33.854,48.277c0.183-0.309,0.577-0.408,0.882-0.226
		c0.304,0.188,0.403,0.586,0.22,0.896c-0.183,0.309-0.577,0.409-0.882,0.222C33.77,48.986,33.671,48.586,33.854,48.277"/>
	<path fill-rule="evenodd" clip-rule="evenodd" fill="#0056A2" d="M35.766,48.483c0.154-0.259,0.487-0.343,0.744-0.189
		c0.257,0.158,0.341,0.493,0.186,0.755c-0.153,0.261-0.487,0.345-0.744,0.188C35.695,49.081,35.612,48.744,35.766,48.483"/>
	<path fill-rule="evenodd" clip-rule="evenodd" fill="#0056A2" d="M37.44,48.389c0.127-0.216,0.404-0.285,0.617-0.157
		c0.213,0.129,0.282,0.409,0.155,0.625c-0.128,0.215-0.404,0.286-0.618,0.157C37.382,48.884,37.312,48.604,37.44,48.389"/>
	<path fill-rule="evenodd" clip-rule="evenodd" fill="#0056A2" d="M38.681,48.025c0.115-0.193,0.365-0.257,0.558-0.139
		c0.191,0.113,0.254,0.366,0.139,0.561c-0.115,0.195-0.365,0.257-0.556,0.142C38.629,48.472,38.568,48.22,38.681,48.025"/>
	<path fill-rule="evenodd" clip-rule="evenodd" fill="#0056A2" d="M39.797,47.711c0.093-0.155,0.294-0.208,0.451-0.112
		c0.155,0.094,0.206,0.297,0.112,0.456c-0.093,0.156-0.295,0.209-0.45,0.113C39.754,48.075,39.702,47.871,39.797,47.711"/>
	<path fill-rule="evenodd" clip-rule="evenodd" fill="#0056A2" d="M40.916,47.396c0.073-0.126,0.233-0.165,0.356-0.091
		c0.123,0.072,0.162,0.235,0.089,0.359c-0.073,0.125-0.233,0.165-0.356,0.091C40.882,47.681,40.842,47.521,40.916,47.396"/>
	<path fill-rule="evenodd" clip-rule="evenodd" fill="#0056A2" d="M41.718,47.047c0.057-0.094,0.179-0.124,0.272-0.067
		c0.094,0.056,0.125,0.182,0.068,0.276c-0.056,0.094-0.178,0.125-0.272,0.069C41.693,47.267,41.662,47.143,41.718,47.047"/>
	<path fill-rule="evenodd" clip-rule="evenodd" fill="#0056A2" d="M42.396,46.671c0.042-0.069,0.13-0.091,0.2-0.049
		c0.069,0.041,0.092,0.132,0.05,0.199c-0.041,0.072-0.131,0.095-0.199,0.053C42.377,46.832,42.355,46.74,42.396,46.671"/>
	<path fill-rule="evenodd" clip-rule="evenodd" fill="#0056A2" d="M25.682,37.297c0.141-0.962,1.025-1.626,1.974-1.483
		c0.95,0.143,1.605,1.038,1.465,1.998c-0.142,0.962-1.025,1.625-1.975,1.482S25.541,38.256,25.682,37.297"/>
	<path fill-rule="evenodd" clip-rule="evenodd" fill="#0056A2" d="M28.743,40.651c0.108-0.739,0.792-1.252,1.524-1.142
		c0.732,0.108,1.238,0.8,1.129,1.541c-0.108,0.743-0.791,1.255-1.523,1.146C29.14,42.085,28.634,41.395,28.743,40.651"/>
	<path fill-rule="evenodd" clip-rule="evenodd" fill="#0056A2" d="M31.415,42.633c0.093-0.638,0.678-1.074,1.306-0.982
		c0.627,0.097,1.061,0.688,0.968,1.322s-0.678,1.074-1.306,0.978C31.756,43.857,31.322,43.267,31.415,42.633"/>
	<path fill-rule="evenodd" clip-rule="evenodd" fill="#0056A2" d="M34.302,43.908c0.078-0.522,0.556-0.879,1.07-0.804
		c0.515,0.079,0.87,0.564,0.794,1.084c-0.077,0.518-0.556,0.88-1.07,0.803C34.582,44.913,34.227,44.429,34.302,43.908"/>
	<path fill-rule="evenodd" clip-rule="evenodd" fill="#0056A2" d="M37.008,44.448c0.065-0.439,0.47-0.743,0.906-0.68
		c0.435,0.066,0.735,0.475,0.67,0.918c-0.064,0.44-0.47,0.743-0.905,0.678C37.243,45.301,36.944,44.889,37.008,44.448"/>
	<path fill-rule="evenodd" clip-rule="evenodd" fill="#0056A2" d="M39.179,44.369c0.061-0.416,0.443-0.703,0.854-0.643
		c0.411,0.062,0.694,0.449,0.633,0.866c-0.062,0.416-0.443,0.703-0.854,0.642C39.402,45.173,39.118,44.785,39.179,44.369"/>
	<path fill-rule="evenodd" clip-rule="evenodd" fill="#0056A2" d="M41.295,43.97c0.052-0.355,0.378-0.603,0.73-0.549
		c0.351,0.054,0.593,0.385,0.542,0.74c-0.052,0.354-0.379,0.601-0.731,0.545C41.485,44.655,41.242,44.325,41.295,43.97"/>
	<path fill-rule="evenodd" clip-rule="evenodd" fill="#0056A2" d="M43.139,43.418c0.043-0.298,0.319-0.505,0.617-0.461
		c0.295,0.044,0.5,0.324,0.457,0.623c-0.044,0.302-0.32,0.508-0.616,0.464C43.299,43.999,43.095,43.72,43.139,43.418"/>
	<path fill-rule="evenodd" clip-rule="evenodd" fill="#0056A2" d="M44.649,42.684c0.036-0.251,0.265-0.421,0.511-0.385
		c0.247,0.036,0.416,0.269,0.38,0.516c-0.036,0.25-0.266,0.423-0.512,0.386C44.783,43.163,44.613,42.932,44.649,42.684"/>
	<path fill-rule="evenodd" clip-rule="evenodd" fill="#0056A2" d="M45.66,41.867c0.032-0.227,0.238-0.381,0.459-0.346
		c0.222,0.032,0.375,0.241,0.341,0.466c-0.032,0.223-0.238,0.379-0.46,0.346C45.78,42.299,45.627,42.091,45.66,41.867"/>
	<path fill-rule="evenodd" clip-rule="evenodd" fill="#0056A2" d="M46.571,41.145c0.027-0.183,0.193-0.307,0.373-0.281
		c0.18,0.029,0.303,0.197,0.277,0.38c-0.026,0.181-0.194,0.309-0.373,0.281C46.669,41.496,46.545,41.328,46.571,41.145"/>
	<path fill-rule="evenodd" clip-rule="evenodd" fill="#0056A2" d="M47.485,40.419c0.021-0.144,0.153-0.243,0.295-0.223
		c0.142,0.021,0.239,0.157,0.219,0.301c-0.022,0.143-0.153,0.24-0.295,0.219C47.562,40.696,47.465,40.562,47.485,40.419"/>
	<path fill-rule="evenodd" clip-rule="evenodd" fill="#0056A2" d="M48.096,39.787c0.015-0.109,0.116-0.186,0.225-0.17
		c0.109,0.017,0.184,0.119,0.167,0.229c-0.016,0.11-0.117,0.186-0.225,0.171C48.154,39.999,48.079,39.896,48.096,39.787"/>
	<path fill-rule="evenodd" clip-rule="evenodd" fill="#0056A2" d="M48.579,39.176c0.011-0.08,0.086-0.135,0.165-0.124
		c0.08,0.012,0.134,0.088,0.123,0.168c-0.012,0.08-0.086,0.136-0.166,0.123C48.622,39.333,48.568,39.257,48.579,39.176"/>
	<path fill-rule="evenodd" clip-rule="evenodd" fill="#0056A2" d="M29.593,36.987c-0.233-0.941,0.333-1.897,1.263-2.134
		c0.931-0.235,1.875,0.337,2.108,1.28c0.233,0.941-0.333,1.896-1.263,2.133C30.77,38.502,29.826,37.93,29.593,36.987"/>
	<path fill-rule="evenodd" clip-rule="evenodd" fill="#0056A2" d="M33.689,38.904c-0.18-0.729,0.257-1.466,0.976-1.647
		c0.718-0.183,1.446,0.26,1.627,0.986c0.179,0.728-0.257,1.465-0.976,1.647S33.87,39.631,33.689,38.904"/>
	<path fill-rule="evenodd" clip-rule="evenodd" fill="#0056A2" d="M36.907,39.695c-0.154-0.623,0.22-1.255,0.835-1.41
		c0.616-0.155,1.24,0.223,1.394,0.848c0.154,0.622-0.22,1.252-0.835,1.409C37.685,40.698,37.061,40.317,36.907,39.695"/>
	<path fill-rule="evenodd" clip-rule="evenodd" fill="#0056A2" d="M40.057,39.758c-0.126-0.51,0.181-1.027,0.685-1.157
		c0.505-0.127,1.016,0.184,1.143,0.694c0.126,0.511-0.18,1.027-0.685,1.157C40.695,40.578,40.183,40.27,40.057,39.758"/>
	<path fill-rule="evenodd" clip-rule="evenodd" fill="#0056A2" d="M42.761,39.211c-0.107-0.433,0.152-0.872,0.579-0.979
		c0.427-0.108,0.859,0.153,0.967,0.588c0.106,0.431-0.153,0.869-0.581,0.977C43.301,39.904,42.867,39.643,42.761,39.211"/>
	<path fill-rule="evenodd" clip-rule="evenodd" fill="#0056A2" d="M44.737,38.295c-0.101-0.408,0.144-0.822,0.547-0.924
		c0.402-0.103,0.811,0.146,0.912,0.554c0.101,0.408-0.145,0.821-0.547,0.923C45.246,38.95,44.838,38.702,44.737,38.295"/>
	<path fill-rule="evenodd" clip-rule="evenodd" fill="#0056A2" d="M46.54,37.105c-0.087-0.348,0.123-0.701,0.467-0.789
		c0.345-0.087,0.694,0.123,0.781,0.473c0.086,0.35-0.123,0.704-0.468,0.79C46.975,37.666,46.625,37.455,46.54,37.105"/>
	<path fill-rule="evenodd" clip-rule="evenodd" fill="#0056A2" d="M48.035,35.885c-0.072-0.296,0.104-0.594,0.395-0.666
		c0.291-0.074,0.585,0.104,0.658,0.397c0.073,0.294-0.104,0.593-0.395,0.667C48.403,36.355,48.108,36.179,48.035,35.885"/>
	<path fill-rule="evenodd" clip-rule="evenodd" fill="#0056A2" d="M49.152,34.618c-0.059-0.243,0.087-0.49,0.328-0.552
		c0.241-0.062,0.486,0.087,0.545,0.33c0.061,0.245-0.086,0.492-0.327,0.554S49.213,34.862,49.152,34.618"/>
	<path fill-rule="evenodd" clip-rule="evenodd" fill="#0056A2" d="M49.777,33.474c-0.054-0.221,0.078-0.443,0.295-0.498
		c0.217-0.056,0.437,0.078,0.491,0.298c0.056,0.22-0.077,0.443-0.295,0.498C50.052,33.825,49.831,33.693,49.777,33.474"/>
	<path fill-rule="evenodd" clip-rule="evenodd" fill="#0056A2" d="M50.346,32.454c-0.043-0.178,0.063-0.358,0.239-0.402
		c0.176-0.045,0.354,0.063,0.398,0.242c0.044,0.177-0.062,0.357-0.239,0.402C50.569,32.741,50.391,32.633,50.346,32.454"/>
	<path fill-rule="evenodd" clip-rule="evenodd" fill="#0056A2" d="M50.916,31.429c-0.035-0.141,0.05-0.284,0.189-0.319
		c0.138-0.035,0.279,0.05,0.314,0.191c0.034,0.141-0.05,0.283-0.189,0.317C51.092,31.656,50.951,31.569,50.916,31.429"/>
	<path fill-rule="evenodd" clip-rule="evenodd" fill="#0056A2" d="M51.241,30.609c-0.027-0.108,0.038-0.217,0.143-0.244
		c0.108-0.027,0.215,0.038,0.242,0.146c0.026,0.106-0.039,0.216-0.145,0.242C51.376,30.782,51.267,30.716,51.241,30.609"/>
	<path fill-rule="evenodd" clip-rule="evenodd" fill="#0056A2" d="M51.458,29.857c-0.02-0.08,0.027-0.159,0.105-0.179
		c0.079-0.019,0.157,0.028,0.177,0.106c0.02,0.081-0.028,0.159-0.106,0.179C51.556,29.984,51.477,29.936,51.458,29.857"/>
	<path fill-rule="evenodd" clip-rule="evenodd" fill="#0056A2" d="M30.769,31.97c-0.891-0.597-1.137-1.812-0.548-2.713
		c0.589-0.902,1.788-1.149,2.679-0.555c0.891,0.597,1.137,1.811,0.548,2.713C32.86,32.316,31.66,32.565,30.769,31.97"/>
	<path fill-rule="evenodd" clip-rule="evenodd" fill="#0056A2" d="M31.591,23.252c-0.589,0.901-1.789,1.149-2.68,0.554
		c-0.891-0.595-1.136-1.809-0.548-2.711s1.789-1.15,2.679-0.555C31.934,21.136,32.179,22.35,31.591,23.252"/>
	<path fill-rule="evenodd" clip-rule="evenodd" fill="#0056A2" d="M27.454,21.031c0.214,1.059-0.461,2.093-1.508,2.31
		c-1.045,0.217-2.067-0.466-2.281-1.526c-0.214-1.058,0.46-2.092,1.507-2.309C26.219,19.289,27.24,19.972,27.454,21.031"/>
	<path fill-rule="evenodd" clip-rule="evenodd" fill="#0056A2" d="M22.977,22.42c0.891,0.595,1.137,1.81,0.548,2.712
		c-0.589,0.901-1.788,1.15-2.68,0.555c-0.891-0.595-1.136-1.81-0.548-2.712C20.886,22.073,22.086,21.825,22.977,22.42"/>
	<path fill-rule="evenodd" clip-rule="evenodd" fill="#0056A2" d="M20.782,26.607c1.046-0.216,2.068,0.467,2.282,1.525
		s-0.461,2.091-1.507,2.309c-1.046,0.216-2.069-0.466-2.282-1.525C19.06,27.857,19.736,26.823,20.782,26.607"/>
	<path fill-rule="evenodd" clip-rule="evenodd" fill="#0056A2" d="M22.156,31.137c0.588-0.902,1.788-1.15,2.679-0.554
		c0.892,0.595,1.137,1.811,0.548,2.712c-0.589,0.9-1.788,1.149-2.68,0.555C21.812,33.253,21.566,32.039,22.156,31.137"/>
	<path fill-rule="evenodd" clip-rule="evenodd" fill="#0056A2" d="M26.292,33.358c-0.214-1.059,0.46-2.092,1.507-2.31
		c1.046-0.215,2.068,0.467,2.282,1.526c0.213,1.059-0.461,2.093-1.507,2.309C27.528,35.101,26.506,34.417,26.292,33.358"/>
	<path fill-rule="evenodd" clip-rule="evenodd" fill="#0056A2" d="M32.964,27.783c-1.047,0.216-2.068-0.466-2.282-1.525
		s0.461-2.093,1.507-2.31c1.046-0.217,2.068,0.466,2.282,1.525C34.685,26.532,34.01,27.566,32.964,27.783"/>
	<path fill-rule="evenodd" clip-rule="evenodd" fill="#0056A2" d="M36.854,28.399c-0.949-0.143-1.605-1.037-1.464-1.998
		c0.14-0.961,1.024-1.624,1.973-1.481c0.95,0.143,1.605,1.038,1.464,1.998C38.687,27.879,37.803,28.542,36.854,28.399"/>
	<path fill-rule="evenodd" clip-rule="evenodd" fill="#0056A2" d="M40.171,25.302c-0.733-0.11-1.239-0.8-1.131-1.542
		c0.109-0.741,0.792-1.253,1.524-1.144c0.733,0.11,1.239,0.801,1.13,1.542C41.585,24.9,40.904,25.413,40.171,25.302"/>
	<path fill-rule="evenodd" clip-rule="evenodd" fill="#0056A2" d="M42.125,22.597c-0.627-0.094-1.061-0.686-0.968-1.321
		s0.678-1.073,1.305-0.979c0.628,0.094,1.061,0.686,0.968,1.32C43.337,22.252,42.753,22.691,42.125,22.597"/>
	<path fill-rule="evenodd" clip-rule="evenodd" fill="#0056A2" d="M43.387,19.676c-0.514-0.077-0.87-0.562-0.793-1.083
		c0.077-0.521,0.556-0.88,1.07-0.802c0.515,0.077,0.87,0.562,0.793,1.083C44.381,19.393,43.902,19.753,43.387,19.676"/>
	<path fill-rule="evenodd" clip-rule="evenodd" fill="#0056A2" d="M43.922,16.938c-0.435-0.065-0.736-0.476-0.671-0.917
		c0.064-0.44,0.47-0.745,0.905-0.679c0.436,0.065,0.736,0.476,0.672,0.916C44.762,16.7,44.357,17.003,43.922,16.938"/>
	<path fill-rule="evenodd" clip-rule="evenodd" fill="#0056A2" d="M43.843,14.74c-0.41-0.061-0.694-0.449-0.634-0.864
		c0.062-0.416,0.444-0.703,0.854-0.641c0.411,0.062,0.694,0.449,0.633,0.864C44.635,14.515,44.253,14.802,43.843,14.74"/>
	<path fill-rule="evenodd" clip-rule="evenodd" fill="#0056A2" d="M43.447,12.6c-0.351-0.053-0.593-0.384-0.542-0.74
		c0.052-0.354,0.379-0.6,0.73-0.547c0.352,0.052,0.594,0.384,0.542,0.739C44.126,12.407,43.799,12.653,43.447,12.6"/>
	<path fill-rule="evenodd" clip-rule="evenodd" fill="#0056A2" d="M42.905,10.733c-0.296-0.044-0.501-0.324-0.458-0.624
		c0.044-0.299,0.319-0.507,0.617-0.463c0.296,0.045,0.5,0.324,0.456,0.624C43.476,10.57,43.2,10.778,42.905,10.733"/>
	<path fill-rule="evenodd" clip-rule="evenodd" fill="#0056A2" d="M42.177,9.205c-0.247-0.037-0.416-0.269-0.38-0.517
		c0.037-0.249,0.266-0.421,0.511-0.384c0.247,0.037,0.416,0.269,0.38,0.517C42.65,9.07,42.422,9.241,42.177,9.205"/>
	<path fill-rule="evenodd" clip-rule="evenodd" fill="#0056A2" d="M41.369,8.182c-0.221-0.034-0.374-0.242-0.341-0.466
		c0.032-0.224,0.239-0.379,0.46-0.346c0.221,0.033,0.374,0.242,0.341,0.467C41.798,8.06,41.591,8.215,41.369,8.182"/>
	<path fill-rule="evenodd" clip-rule="evenodd" fill="#0056A2" d="M40.656,7.259c-0.179-0.027-0.303-0.196-0.275-0.377
		c0.026-0.182,0.193-0.307,0.373-0.28c0.179,0.026,0.303,0.196,0.275,0.377C41.004,7.161,40.837,7.286,40.656,7.259"/>
	<path fill-rule="evenodd" clip-rule="evenodd" fill="#0056A2" d="M39.939,6.334C39.797,6.313,39.7,6.18,39.72,6.036
		c0.021-0.143,0.154-0.242,0.295-0.222c0.142,0.021,0.24,0.156,0.219,0.299C40.212,6.257,40.081,6.355,39.939,6.334"/>
	<path fill-rule="evenodd" clip-rule="evenodd" fill="#0056A2" d="M39.315,5.717c-0.108-0.016-0.183-0.118-0.167-0.228
		c0.016-0.11,0.117-0.185,0.226-0.169c0.108,0.017,0.183,0.119,0.167,0.229C39.525,5.658,39.425,5.734,39.315,5.717"/>
	<path fill-rule="evenodd" clip-rule="evenodd" fill="#0056A2" d="M38.712,5.227c-0.08-0.012-0.134-0.086-0.123-0.167
		c0.012-0.08,0.086-0.136,0.166-0.124c0.081,0.012,0.134,0.087,0.123,0.168C38.866,5.184,38.792,5.24,38.712,5.227"/>
</g>
<g>
	<path fill="#004C99" d="M56.372,30.777c0-1.033,0.517-1.55,1.55-1.55h3.596c1.249,0,2.214,0.352,2.896,1.056
		c0.682,0.703,1.023,1.809,1.023,3.315c0,1.306-0.312,2.391-0.937,3.251c-0.625,0.861-1.54,1.291-2.745,1.291h-2.498v5.384
		c0,0.431-0.14,0.786-0.42,1.065c-0.28,0.28-0.622,0.42-1.023,0.42c-0.402,0-0.743-0.14-1.022-0.42
		c-0.28-0.279-0.42-0.635-0.42-1.065V30.777z M59.257,35.967h1.292c0.632,0,1.102-0.197,1.41-0.592s0.463-0.943,0.463-1.647
		c0-0.788-0.148-1.373-0.441-1.754c-0.294-0.381-0.721-0.571-1.281-0.571h-1.442V35.967z"/>
	<path fill="#004C99" d="M67.201,30.52c0-0.518,0.115-0.908,0.344-1.173c0.229-0.266,0.553-0.399,0.969-0.399
		s0.739,0.133,0.969,0.399c0.229,0.265,0.344,0.656,0.344,1.173v12.917c0,0.518-0.115,0.908-0.344,1.174
		c-0.23,0.266-0.553,0.398-0.969,0.398s-0.74-0.133-0.969-0.398c-0.229-0.266-0.344-0.656-0.344-1.174V30.52z"/>
	<path fill="#004C99" d="M79.603,42.231c0,0.303,0.029,0.69,0.086,1.163c0.043,0.288,0.064,0.482,0.064,0.581
		c0,0.69-0.438,1.034-1.313,1.034c-0.402,0-0.732-0.114-0.99-0.344c-0.258-0.23-0.388-0.61-0.388-1.142l-0.042,0.021
		c-0.23,0.502-0.557,0.873-0.98,1.109c-0.424,0.236-0.894,0.354-1.411,0.354c-0.818,0-1.475-0.258-1.97-0.774
		c-0.496-0.517-0.743-1.299-0.743-2.348c0-0.89,0.14-1.607,0.419-2.152c0.28-0.546,0.765-0.998,1.454-1.357l2.347-1.227
		c0.56-0.287,0.84-0.696,0.84-1.229c0-0.328-0.09-0.605-0.269-0.827c-0.18-0.223-0.428-0.335-0.743-0.335
		c-0.431,0-0.739,0.108-0.925,0.323c-0.187,0.215-0.309,0.566-0.367,1.056c-0.029,0.257-0.158,0.463-0.387,0.612
		c-0.23,0.151-0.517,0.227-0.861,0.227s-0.66-0.089-0.947-0.269c-0.288-0.179-0.431-0.448-0.431-0.807
		c0-0.977,0.348-1.737,1.044-2.283c0.696-0.545,1.568-0.817,2.616-0.817c0.847,0,1.532,0.086,2.056,0.258
		c0.524,0.172,0.918,0.413,1.185,0.721c0.266,0.309,0.441,0.66,0.527,1.056c0.086,0.395,0.129,0.865,0.129,1.41V42.231z
		 M76.977,38.701l-0.926,0.646c-0.574,0.403-0.947,0.747-1.12,1.034s-0.259,0.683-0.259,1.184c0,0.431,0.083,0.769,0.248,1.012
		c0.165,0.245,0.391,0.367,0.679,0.367c0.416,0,0.75-0.205,1.001-0.614s0.377-0.93,0.377-1.561V38.701z"/>
	<path fill="#004C99" d="M82.101,35.041h-0.28c-0.775,0-1.163-0.323-1.163-0.97c0-0.658,0.387-0.989,1.163-0.989h0.28V31.08
		c0-0.517,0.115-0.908,0.344-1.174c0.229-0.266,0.552-0.398,0.969-0.398c0.417,0,0.74,0.132,0.97,0.398
		c0.229,0.266,0.344,0.657,0.344,1.174v2.002h0.603c0.775,0,1.163,0.331,1.163,0.989c0,0.646-0.388,0.97-1.163,0.97h-0.603v6.847
		c0,0.272,0.046,0.474,0.14,0.604c0.093,0.129,0.283,0.2,0.571,0.215c0.315,0.015,0.556,0.09,0.721,0.226
		c0.165,0.138,0.248,0.37,0.248,0.7c0,0.817-0.553,1.228-1.658,1.228c-0.934,0-1.608-0.204-2.024-0.614
		c-0.417-0.408-0.625-0.922-0.625-1.539V35.041z"/>
	<path fill="#004C99" d="M94.739,42.231c0,0.303,0.029,0.69,0.087,1.163c0.043,0.288,0.064,0.482,0.064,0.581
		c0,0.69-0.438,1.034-1.314,1.034c-0.401,0-0.731-0.114-0.99-0.344c-0.258-0.23-0.388-0.61-0.388-1.142l-0.042,0.021
		c-0.23,0.502-0.557,0.873-0.98,1.109c-0.424,0.236-0.893,0.354-1.41,0.354c-0.818,0-1.475-0.258-1.97-0.774
		s-0.743-1.299-0.743-2.348c0-0.89,0.14-1.607,0.419-2.152c0.28-0.546,0.765-0.998,1.454-1.357l2.347-1.227
		c0.56-0.287,0.84-0.696,0.84-1.229c0-0.328-0.089-0.605-0.269-0.827c-0.18-0.223-0.427-0.335-0.743-0.335
		c-0.431,0-0.739,0.108-0.925,0.323c-0.187,0.215-0.309,0.566-0.367,1.056c-0.029,0.257-0.158,0.463-0.387,0.612
		c-0.23,0.151-0.517,0.227-0.862,0.227c-0.344,0-0.66-0.089-0.947-0.269c-0.288-0.179-0.431-0.448-0.431-0.807
		c0-0.977,0.348-1.737,1.044-2.283c0.696-0.545,1.568-0.817,2.616-0.817c0.846,0,1.532,0.086,2.056,0.258
		c0.523,0.172,0.918,0.413,1.185,0.721c0.265,0.309,0.441,0.66,0.527,1.056c0.086,0.395,0.128,0.865,0.128,1.41V42.231z
		 M92.112,38.701l-0.926,0.646c-0.574,0.403-0.947,0.747-1.12,1.034s-0.258,0.683-0.258,1.184c0,0.431,0.083,0.769,0.248,1.012
		c0.165,0.245,0.391,0.367,0.678,0.367c0.417,0,0.75-0.205,1.001-0.614c0.25-0.409,0.376-0.93,0.376-1.561V38.701z"/>
	<path fill="#004C99" d="M97.237,35.041h-0.28c-0.775,0-1.163-0.323-1.163-0.97c0-0.658,0.388-0.989,1.163-0.989h0.28v-1.551
		c0-0.961,0.226-1.632,0.678-2.013c0.452-0.379,1.187-0.57,2.207-0.57c0.875,0,1.313,0.388,1.313,1.163
		c0,0.574-0.266,0.875-0.797,0.904c-0.315,0.015-0.524,0.094-0.624,0.238c-0.101,0.144-0.15,0.395-0.15,0.754v1.076h0.409
		c0.775,0,1.163,0.331,1.163,0.989c0,0.646-0.388,0.97-1.163,0.97h-0.409v8.396c0,0.518-0.115,0.908-0.345,1.174
		c-0.23,0.266-0.553,0.398-0.969,0.398c-0.417,0-0.739-0.133-0.969-0.398s-0.344-0.656-0.344-1.174V35.041z"/>
	<path fill="#004C99" d="M102.189,37.323c0-0.66,0.061-1.26,0.183-1.798c0.122-0.539,0.333-1.011,0.636-1.421
		c0.301-0.408,0.71-0.728,1.227-0.958c0.517-0.229,1.155-0.344,1.916-0.344s1.399,0.114,1.917,0.344
		c0.517,0.23,0.925,0.55,1.227,0.958c0.301,0.41,0.513,0.882,0.635,1.421c0.122,0.538,0.184,1.138,0.184,1.798v3.164
		c0,0.661-0.062,1.261-0.184,1.799s-0.333,1.013-0.635,1.421c-0.302,0.409-0.71,0.729-1.227,0.959
		c-0.517,0.229-1.156,0.344-1.917,0.344s-1.399-0.114-1.916-0.344c-0.517-0.23-0.926-0.55-1.227-0.959
		c-0.302-0.408-0.514-0.883-0.636-1.421c-0.122-0.538-0.183-1.138-0.183-1.799V37.323z M104.944,40.273
		c0,1.047,0.09,1.755,0.27,2.12c0.179,0.367,0.491,0.55,0.937,0.55c0.445,0,0.757-0.183,0.937-0.55
		c0.179-0.365,0.269-1.073,0.269-2.12v-2.778c0-1.004-0.097-1.692-0.291-2.065c-0.193-0.374-0.499-0.561-0.915-0.561
		c-0.417,0-0.721,0.187-0.915,0.561c-0.193,0.373-0.291,1.062-0.291,2.065V40.273z"/>
	<path fill="#004C99" d="M112.092,34.224c0-0.445,0.1-0.793,0.302-1.044c0.201-0.251,0.509-0.377,0.925-0.377
		s0.725,0.126,0.926,0.377s0.302,0.599,0.302,1.044v1.099h0.042c0.202-0.776,0.47-1.39,0.808-1.843
		c0.336-0.451,0.721-0.677,1.152-0.677c0.373,0,0.682,0.144,0.926,0.43c0.244,0.288,0.366,0.71,0.366,1.271
		c0,0.445-0.129,0.819-0.388,1.119c-0.258,0.301-0.674,0.452-1.248,0.452c-0.431,0-0.786,0.141-1.066,0.42
		c-0.28,0.279-0.419,0.671-0.419,1.173v5.771c0,0.518-0.115,0.908-0.345,1.174s-0.553,0.398-0.969,0.398
		c-0.417,0-0.74-0.133-0.969-0.398c-0.229-0.266-0.344-0.656-0.344-1.174V34.224z"/>
	<path fill="#004C99" d="M131.793,43.438c0,0.518-0.115,0.908-0.345,1.174c-0.229,0.266-0.552,0.398-0.968,0.398
		c-0.417,0-0.74-0.133-0.969-0.398c-0.23-0.266-0.345-0.656-0.345-1.174v-7.126c0-0.401-0.093-0.707-0.28-0.915
		c-0.187-0.209-0.43-0.312-0.731-0.312c-0.431,0-0.765,0.172-1.002,0.517c-0.237,0.345-0.355,0.869-0.355,1.572v6.265
		c0,0.518-0.115,0.908-0.344,1.174c-0.23,0.266-0.553,0.398-0.969,0.398s-0.74-0.133-0.969-0.398
		c-0.23-0.266-0.345-0.656-0.345-1.174v-7.126c0-0.401-0.094-0.707-0.28-0.915c-0.187-0.209-0.431-0.312-0.732-0.312
		c-0.431,0-0.764,0.172-1.001,0.517c-0.237,0.345-0.355,0.869-0.355,1.572v6.265c0,0.518-0.115,0.908-0.344,1.174
		c-0.23,0.266-0.553,0.398-0.97,0.398c-0.416,0-0.739-0.133-0.968-0.398c-0.23-0.266-0.344-0.656-0.344-1.174v-9.063
		c0-0.518,0.114-0.907,0.344-1.173c0.229-0.267,0.552-0.398,0.968-0.398c0.876,0,1.314,0.503,1.314,1.506h0.043
		c0.201-0.487,0.528-0.859,0.979-1.119c0.452-0.258,0.943-0.387,1.475-0.387c0.588,0,1.062,0.096,1.421,0.291
		c0.359,0.193,0.668,0.534,0.926,1.021c0.388-0.487,0.783-0.828,1.185-1.021c0.401-0.195,0.883-0.291,1.443-0.291
		c0.76,0,1.371,0.24,1.83,0.721c0.459,0.48,0.689,1.202,0.689,2.163V43.438z"/>
	<path fill="#004C99" d="M141.374,42.231c0,0.303,0.029,0.69,0.086,1.163c0.043,0.288,0.065,0.482,0.065,0.581
		c0,0.69-0.438,1.034-1.314,1.034c-0.402,0-0.732-0.114-0.991-0.344c-0.258-0.23-0.387-0.61-0.387-1.142l-0.043,0.021
		c-0.229,0.502-0.556,0.873-0.979,1.109c-0.424,0.236-0.894,0.354-1.411,0.354c-0.818,0-1.475-0.258-1.97-0.774
		c-0.495-0.517-0.742-1.299-0.742-2.348c0-0.89,0.14-1.607,0.419-2.152c0.28-0.546,0.765-0.998,1.454-1.357l2.347-1.227
		c0.56-0.287,0.84-0.696,0.84-1.229c0-0.328-0.09-0.605-0.269-0.827c-0.18-0.223-0.427-0.335-0.743-0.335
		c-0.43,0-0.739,0.108-0.926,0.323s-0.309,0.566-0.366,1.056c-0.029,0.257-0.158,0.463-0.388,0.612
		c-0.229,0.151-0.517,0.227-0.861,0.227s-0.66-0.089-0.948-0.269c-0.287-0.179-0.43-0.448-0.43-0.807
		c0-0.977,0.348-1.737,1.044-2.283c0.696-0.545,1.568-0.817,2.616-0.817c0.846,0,1.531,0.086,2.056,0.258
		c0.523,0.172,0.918,0.413,1.184,0.721c0.265,0.309,0.441,0.66,0.527,1.056c0.086,0.395,0.129,0.865,0.129,1.41V42.231z
		 M138.747,38.701l-0.926,0.646c-0.575,0.403-0.948,0.747-1.12,1.034c-0.173,0.287-0.258,0.683-0.258,1.184
		c0,0.431,0.083,0.769,0.247,1.012c0.165,0.245,0.391,0.367,0.679,0.367c0.416,0,0.75-0.205,1.001-0.614
		c0.25-0.409,0.376-0.93,0.376-1.561V38.701z"/>
	<path fill="#004C99" d="M148.5,37.345c0-0.674,0.04-1.273,0.119-1.798c0.079-0.524,0.218-0.993,0.419-1.409
		c0.201-0.416,0.485-0.743,0.851-0.98s0.835-0.354,1.41-0.354c0.488,0,0.94,0.117,1.357,0.354c0.417,0.237,0.739,0.57,0.968,1.002
		h0.043V30.52c0-0.518,0.114-0.908,0.345-1.173c0.229-0.266,0.552-0.399,0.97-0.399c0.415,0,0.738,0.133,0.969,0.399
		c0.229,0.265,0.344,0.656,0.344,1.173v12.917c0,0.518-0.115,0.908-0.344,1.174c-0.23,0.266-0.554,0.398-0.969,0.398
		c-0.388,0-0.704-0.129-0.949-0.388c-0.243-0.258-0.366-0.581-0.366-0.969h-0.043c-0.229,0.445-0.545,0.782-0.947,1.013
		c-0.402,0.229-0.861,0.344-1.378,0.344c-0.575,0-1.044-0.118-1.41-0.354s-0.65-0.563-0.851-0.98
		c-0.201-0.416-0.341-0.89-0.419-1.421c-0.079-0.531-0.119-1.127-0.119-1.787V37.345z M151.256,39.777
		c0,1.077,0.072,1.856,0.215,2.337c0.143,0.481,0.438,0.721,0.883,0.721c0.487,0,0.829-0.248,1.022-0.742
		c0.195-0.495,0.291-1.195,0.291-2.099v-2.197c0-1.062-0.122-1.798-0.366-2.207c-0.245-0.408-0.552-0.613-0.925-0.613
		c-0.445,0-0.744,0.223-0.894,0.668c-0.15,0.443-0.226,1.312-0.226,2.605V39.777z"/>
	<path fill="#004C99" d="M166.069,42.231c0,0.303,0.029,0.69,0.086,1.163c0.043,0.288,0.065,0.482,0.065,0.581
		c0,0.69-0.438,1.034-1.313,1.034c-0.403,0-0.733-0.114-0.991-0.344c-0.259-0.23-0.388-0.61-0.388-1.142l-0.042,0.021
		c-0.23,0.502-0.557,0.873-0.98,1.109c-0.423,0.236-0.893,0.354-1.41,0.354c-0.817,0-1.475-0.258-1.969-0.774
		c-0.496-0.517-0.744-1.299-0.744-2.348c0-0.89,0.14-1.607,0.42-2.152c0.28-0.546,0.764-0.998,1.453-1.357l2.347-1.227
		c0.56-0.287,0.839-0.696,0.839-1.229c0-0.328-0.089-0.605-0.269-0.827c-0.18-0.223-0.428-0.335-0.743-0.335
		c-0.43,0-0.739,0.108-0.925,0.323c-0.187,0.215-0.31,0.566-0.366,1.056c-0.028,0.257-0.159,0.463-0.388,0.612
		c-0.23,0.151-0.517,0.227-0.861,0.227s-0.66-0.089-0.947-0.269c-0.288-0.179-0.431-0.448-0.431-0.807
		c0-0.977,0.348-1.737,1.044-2.283c0.696-0.545,1.568-0.817,2.616-0.817c0.847,0,1.532,0.086,2.056,0.258
		c0.524,0.172,0.919,0.413,1.185,0.721c0.265,0.309,0.441,0.66,0.527,1.056c0.086,0.395,0.129,0.865,0.129,1.41V42.231z
		 M163.442,38.701l-0.925,0.646c-0.574,0.403-0.948,0.747-1.12,1.034c-0.172,0.287-0.258,0.683-0.258,1.184
		c0,0.431,0.083,0.769,0.248,1.012c0.165,0.245,0.391,0.367,0.678,0.367c0.417,0,0.75-0.205,1.001-0.614
		c0.251-0.409,0.376-0.93,0.376-1.561V38.701z"/>
	<path fill="#004C99" d="M173.153,35.213c0-1.362,0.128-2.472,0.387-3.325c0.259-0.854,0.604-1.5,1.034-1.939
		c0.431-0.438,0.917-0.729,1.464-0.872c0.545-0.144,1.164-0.215,1.852-0.215c0.69,0,1.306,0.072,1.853,0.215
		c0.545,0.143,1.037,0.434,1.475,0.872c0.438,0.438,0.781,1.084,1.033,1.939c0.252,0.854,0.377,1.963,0.377,3.325v3.273
		c0,1.09-0.072,2.021-0.215,2.788c-0.145,0.768-0.352,1.41-0.625,1.927l0.818,0.774c0.23,0.217,0.391,0.413,0.484,0.593
		c0.094,0.179,0.141,0.355,0.141,0.527c0,0.244-0.102,0.459-0.303,0.646s-0.416,0.281-0.645,0.281c-0.359,0-0.797-0.26-1.314-0.775
		l-0.604-0.625c-0.33,0.187-0.699,0.312-1.107,0.378c-0.41,0.064-0.865,0.096-1.368,0.096c-0.746,0-1.396-0.079-1.949-0.236
		c-0.553-0.158-1.041-0.467-1.465-0.926c-0.423-0.46-0.75-1.131-0.979-2.014c-0.23-0.882-0.344-2.026-0.344-3.434V35.213z
		 M176.167,38.486c0,0.918,0.036,1.668,0.108,2.249c0.072,0.582,0.177,1.02,0.312,1.314c0.137,0.295,0.31,0.495,0.517,0.604
		c0.208,0.107,0.47,0.16,0.786,0.16c0.216,0,0.409-0.028,0.581-0.086l-0.129-0.129c-0.144-0.144-0.244-0.276-0.302-0.397
		c-0.057-0.123-0.086-0.263-0.086-0.421c0-0.273,0.101-0.503,0.302-0.689s0.438-0.279,0.711-0.279c0.172,0,0.338,0.079,0.494,0.236
		c0.102-0.588,0.15-1.442,0.15-2.562v-3.273c0-1.593-0.135-2.669-0.408-3.229c-0.273-0.561-0.711-0.84-1.313-0.84
		c-0.604,0-1.041,0.279-1.313,0.84c-0.272,0.56-0.41,1.636-0.41,3.229V38.486z"/>
	<path fill="#004C99" d="M184.651,34.374c0-0.518,0.115-0.907,0.344-1.173c0.229-0.267,0.553-0.398,0.969-0.398
		s0.738,0.132,0.969,0.398c0.23,0.266,0.344,0.655,0.344,1.173v7.127c0,0.818,0.338,1.227,1.014,1.227
		c0.916,0,1.377-0.696,1.377-2.088v-6.266c0-0.518,0.115-0.907,0.344-1.173c0.23-0.267,0.553-0.398,0.971-0.398
		c0.416,0,0.738,0.132,0.969,0.398c0.229,0.266,0.344,0.655,0.344,1.173v9.063c0,0.518-0.115,0.908-0.344,1.174
		c-0.23,0.266-0.553,0.398-0.969,0.398c-0.877,0-1.314-0.502-1.314-1.507h-0.043c-0.201,0.488-0.527,0.861-0.98,1.119
		c-0.451,0.259-0.943,0.388-1.475,0.388c-0.76,0-1.371-0.241-1.83-0.722s-0.688-1.202-0.688-2.164V34.374z"/>
	<path fill="#004C99" d="M201.961,42.231c0,0.303,0.029,0.69,0.086,1.163c0.043,0.288,0.064,0.482,0.064,0.581
		c0,0.69-0.438,1.034-1.312,1.034c-0.404,0-0.732-0.114-0.99-0.344c-0.26-0.23-0.389-0.61-0.389-1.142l-0.043,0.021
		c-0.23,0.502-0.555,0.873-0.98,1.109c-0.422,0.236-0.893,0.354-1.41,0.354c-0.816,0-1.475-0.258-1.969-0.774
		c-0.496-0.517-0.744-1.299-0.744-2.348c0-0.89,0.141-1.607,0.422-2.152c0.277-0.546,0.764-0.998,1.451-1.357l2.348-1.227
		c0.561-0.287,0.84-0.696,0.84-1.229c0-0.328-0.09-0.605-0.27-0.827c-0.18-0.223-0.428-0.335-0.742-0.335
		c-0.432,0-0.74,0.108-0.926,0.323c-0.188,0.215-0.309,0.566-0.367,1.056c-0.027,0.257-0.158,0.463-0.387,0.612
		c-0.229,0.151-0.518,0.227-0.861,0.227s-0.66-0.089-0.947-0.269c-0.287-0.179-0.43-0.448-0.43-0.807
		c0-0.977,0.348-1.737,1.043-2.283c0.697-0.545,1.568-0.817,2.617-0.817c0.846,0,1.531,0.086,2.055,0.258s0.92,0.413,1.186,0.721
		c0.264,0.309,0.439,0.66,0.525,1.056c0.088,0.395,0.131,0.865,0.131,1.41V42.231z M199.334,38.701l-0.926,0.646
		c-0.574,0.403-0.947,0.747-1.119,1.034c-0.174,0.287-0.26,0.683-0.26,1.184c0,0.431,0.084,0.769,0.248,1.012
		c0.164,0.245,0.391,0.367,0.68,0.367c0.416,0,0.748-0.205,1-0.614c0.25-0.409,0.377-0.93,0.377-1.561V38.701z"/>
	<path fill="#004C99" d="M204.285,30.52c0-0.518,0.115-0.908,0.346-1.173c0.229-0.266,0.551-0.399,0.967-0.399
		s0.74,0.133,0.971,0.399c0.229,0.265,0.344,0.656,0.344,1.173v12.917c0,0.518-0.115,0.908-0.344,1.174
		c-0.23,0.266-0.555,0.398-0.971,0.398s-0.738-0.133-0.967-0.398c-0.23-0.266-0.346-0.656-0.346-1.174V30.52z"/>
	<path fill="#004C99" d="M209.699,29.303c0.295-0.294,0.65-0.441,1.066-0.441s0.771,0.147,1.066,0.441
		c0.295,0.295,0.441,0.65,0.441,1.066s-0.146,0.771-0.441,1.066c-0.295,0.294-0.65,0.44-1.066,0.44s-0.771-0.146-1.066-0.44
		c-0.293-0.295-0.439-0.65-0.439-1.066S209.406,29.598,209.699,29.303z M209.453,34.374c0-0.518,0.115-0.907,0.344-1.173
		c0.23-0.267,0.553-0.398,0.969-0.398s0.738,0.132,0.969,0.398c0.23,0.266,0.346,0.655,0.346,1.173v9.063
		c0,0.518-0.115,0.908-0.346,1.174s-0.553,0.398-0.969,0.398s-0.738-0.133-0.969-0.398c-0.229-0.266-0.344-0.656-0.344-1.174V34.374
		z"/>
	<path fill="#004C99" d="M214.254,37.345c0-0.674,0.039-1.273,0.119-1.798c0.078-0.524,0.219-0.993,0.42-1.409
		c0.199-0.416,0.484-0.743,0.85-0.98c0.367-0.237,0.838-0.354,1.412-0.354c0.486,0,0.939,0.117,1.355,0.354s0.738,0.57,0.969,1.002
		h0.043V30.52c0-0.518,0.113-0.908,0.344-1.173c0.23-0.266,0.553-0.399,0.969-0.399c0.418,0,0.74,0.133,0.971,0.399
		c0.229,0.265,0.344,0.656,0.344,1.173v12.917c0,0.518-0.115,0.908-0.344,1.174c-0.23,0.266-0.553,0.398-0.971,0.398
		c-0.387,0-0.703-0.129-0.947-0.388c-0.244-0.258-0.365-0.581-0.365-0.969h-0.043c-0.23,0.445-0.547,0.782-0.947,1.013
		c-0.402,0.229-0.861,0.344-1.377,0.344c-0.574,0-1.045-0.118-1.412-0.354c-0.365-0.236-0.65-0.563-0.85-0.98
		c-0.201-0.416-0.342-0.89-0.42-1.421c-0.08-0.531-0.119-1.127-0.119-1.787V37.345z M217.01,39.777c0,1.077,0.072,1.856,0.217,2.337
		c0.143,0.481,0.438,0.721,0.881,0.721c0.488,0,0.83-0.248,1.023-0.742c0.195-0.495,0.291-1.195,0.291-2.099v-2.197
		c0-1.062-0.123-1.798-0.365-2.207c-0.246-0.408-0.555-0.613-0.928-0.613c-0.443,0-0.742,0.223-0.893,0.668
		c-0.15,0.443-0.227,1.312-0.227,2.605V39.777z"/>
	<path fill="#004C99" d="M231.824,42.231c0,0.303,0.027,0.69,0.086,1.163c0.041,0.288,0.064,0.482,0.064,0.581
		c0,0.69-0.439,1.034-1.314,1.034c-0.4,0-0.73-0.114-0.99-0.344c-0.258-0.23-0.389-0.61-0.389-1.142l-0.041,0.021
		c-0.23,0.502-0.557,0.873-0.98,1.109s-0.893,0.354-1.41,0.354c-0.818,0-1.475-0.258-1.971-0.774
		c-0.494-0.517-0.742-1.299-0.742-2.348c0-0.89,0.139-1.607,0.42-2.152c0.279-0.546,0.764-0.998,1.453-1.357l2.348-1.227
		c0.559-0.287,0.838-0.696,0.838-1.229c0-0.328-0.09-0.605-0.27-0.827c-0.178-0.223-0.426-0.335-0.74-0.335
		c-0.432,0-0.74,0.108-0.926,0.323c-0.188,0.215-0.311,0.566-0.367,1.056c-0.029,0.257-0.158,0.463-0.387,0.612
		c-0.23,0.151-0.518,0.227-0.863,0.227c-0.344,0-0.66-0.089-0.945-0.269c-0.289-0.179-0.432-0.448-0.432-0.807
		c0-0.977,0.35-1.737,1.045-2.283c0.695-0.545,1.568-0.817,2.615-0.817c0.848,0,1.533,0.086,2.057,0.258s0.918,0.413,1.184,0.721
		c0.266,0.309,0.441,0.66,0.529,1.056c0.086,0.395,0.129,0.865,0.129,1.41V42.231z M229.196,38.701l-0.924,0.646
		c-0.574,0.403-0.949,0.747-1.121,1.034s-0.258,0.683-0.258,1.184c0,0.431,0.082,0.769,0.248,1.012
		c0.164,0.245,0.391,0.367,0.678,0.367c0.416,0,0.75-0.205,1-0.614c0.252-0.409,0.377-0.93,0.377-1.561V38.701z"/>
	<path fill="#004C99" d="M233.781,37.345c0-0.674,0.039-1.273,0.119-1.798c0.078-0.524,0.219-0.993,0.42-1.409
		s0.484-0.743,0.85-0.98c0.367-0.237,0.836-0.354,1.412-0.354c0.486,0,0.939,0.117,1.355,0.354s0.74,0.57,0.969,1.002h0.043V30.52
		c0-0.518,0.115-0.908,0.346-1.173c0.229-0.266,0.551-0.399,0.967-0.399s0.74,0.133,0.971,0.399
		c0.229,0.265,0.344,0.656,0.344,1.173v12.917c0,0.518-0.115,0.908-0.344,1.174c-0.23,0.266-0.555,0.398-0.971,0.398
		c-0.387,0-0.703-0.129-0.947-0.388c-0.242-0.258-0.365-0.581-0.365-0.969h-0.043c-0.229,0.445-0.545,0.782-0.947,1.013
		c-0.402,0.229-0.861,0.344-1.377,0.344c-0.576,0-1.045-0.118-1.412-0.354c-0.365-0.236-0.648-0.563-0.85-0.98
		c-0.201-0.416-0.342-0.89-0.42-1.421c-0.08-0.531-0.119-1.127-0.119-1.787V37.345z M236.537,39.777
		c0,1.077,0.072,1.856,0.215,2.337c0.145,0.481,0.438,0.721,0.885,0.721c0.486,0,0.828-0.248,1.021-0.742
		c0.193-0.495,0.291-1.195,0.291-2.099v-2.197c0-1.062-0.123-1.798-0.365-2.207c-0.244-0.408-0.553-0.613-0.926-0.613
		c-0.445,0-0.744,0.223-0.895,0.668c-0.15,0.443-0.227,1.312-0.227,2.605V39.777z"/>
	<path fill="#004C99" d="M243.664,37.689c0-0.847,0.047-1.554,0.141-2.121c0.094-0.566,0.275-1.059,0.549-1.476
		c0.273-0.415,0.678-0.734,1.217-0.957c0.539-0.222,1.238-0.333,2.1-0.333c1.334,0,2.279,0.368,2.83,1.108
		c0.553,0.739,0.83,1.898,0.83,3.477c0,0.632-0.094,1.103-0.279,1.411c-0.188,0.309-0.582,0.462-1.184,0.462h-3.447v1.185
		c0,0.832,0.078,1.457,0.227,1.874c0.15,0.416,0.471,0.624,0.959,0.624c0.271,0,0.506-0.122,0.699-0.367
		c0.193-0.243,0.297-0.523,0.312-0.838c0.014-0.531,0.133-0.898,0.355-1.099c0.221-0.201,0.535-0.302,0.936-0.302
		c0.432,0,0.762,0.094,0.992,0.28c0.229,0.187,0.344,0.523,0.344,1.012c0,1.048-0.328,1.873-0.98,2.476
		c-0.654,0.604-1.518,0.904-2.594,0.904c-0.861,0-1.561-0.111-2.1-0.334c-0.539-0.222-0.943-0.541-1.217-0.957
		c-0.273-0.417-0.455-0.908-0.549-1.476c-0.094-0.566-0.141-1.273-0.141-2.121V37.689z M248.703,37.41v-0.97
		c0-0.487-0.09-0.872-0.27-1.151c-0.18-0.281-0.471-0.42-0.871-0.42c-0.402,0-0.693,0.139-0.873,0.42
		c-0.18,0.279-0.27,0.664-0.27,1.151v0.97H248.703z"/>
	<path fill="#004C99" d="M258.09,37.345c0-0.674,0.041-1.273,0.119-1.798s0.219-0.993,0.42-1.409s0.484-0.743,0.85-0.98
		c0.367-0.237,0.838-0.354,1.412-0.354c0.486,0,0.939,0.117,1.355,0.354s0.74,0.57,0.969,1.002h0.043V30.52
		c0-0.518,0.115-0.908,0.344-1.173c0.23-0.266,0.555-0.399,0.971-0.399s0.738,0.133,0.969,0.399
		c0.229,0.265,0.344,0.656,0.344,1.173v12.917c0,0.518-0.115,0.908-0.344,1.174c-0.23,0.266-0.553,0.398-0.969,0.398
		c-0.389,0-0.705-0.129-0.949-0.388c-0.242-0.258-0.365-0.581-0.365-0.969h-0.043c-0.229,0.445-0.547,0.782-0.947,1.013
		c-0.4,0.229-0.861,0.344-1.377,0.344c-0.574,0-1.045-0.118-1.412-0.354c-0.365-0.236-0.648-0.563-0.85-0.98
		c-0.201-0.416-0.342-0.89-0.42-1.421s-0.119-1.127-0.119-1.787V37.345z M260.848,39.777c0,1.077,0.07,1.856,0.215,2.337
		c0.143,0.481,0.438,0.721,0.881,0.721c0.488,0,0.83-0.248,1.025-0.742c0.193-0.495,0.289-1.195,0.289-2.099v-2.197
		c0-1.062-0.121-1.798-0.365-2.207c-0.244-0.408-0.553-0.613-0.928-0.613c-0.443,0-0.742,0.223-0.893,0.668
		c-0.15,0.443-0.225,1.312-0.225,2.605V39.777z"/>
	<path fill="#004C99" d="M267.973,37.323c0-0.66,0.062-1.26,0.184-1.798c0.121-0.539,0.334-1.011,0.635-1.421
		c0.303-0.408,0.711-0.728,1.227-0.958c0.518-0.229,1.156-0.344,1.918-0.344c0.76,0,1.398,0.114,1.916,0.344
		c0.516,0.23,0.924,0.55,1.227,0.958c0.301,0.41,0.514,0.882,0.635,1.421c0.123,0.538,0.184,1.138,0.184,1.798v3.164
		c0,0.661-0.061,1.261-0.184,1.799c-0.121,0.538-0.334,1.013-0.635,1.421c-0.303,0.409-0.711,0.729-1.227,0.959
		c-0.518,0.229-1.156,0.344-1.916,0.344c-0.762,0-1.4-0.114-1.918-0.344c-0.516-0.23-0.924-0.55-1.227-0.959
		c-0.301-0.408-0.514-0.883-0.635-1.421s-0.184-1.138-0.184-1.799V37.323z M270.729,40.273c0,1.047,0.09,1.755,0.27,2.12
		c0.18,0.367,0.492,0.55,0.938,0.55c0.443,0,0.756-0.183,0.936-0.55c0.18-0.365,0.27-1.073,0.27-2.12v-2.778
		c0-1.004-0.098-1.692-0.291-2.065c-0.193-0.374-0.498-0.561-0.914-0.561s-0.723,0.187-0.916,0.561
		c-0.193,0.373-0.291,1.062-0.291,2.065V40.273z"/>
	<path fill="#004C99" d="M284.811,40.854l-0.582,2.799c-0.1,0.487-0.262,0.837-0.484,1.044c-0.223,0.209-0.564,0.312-1.023,0.312
		c-0.43,0-0.764-0.114-1-0.344c-0.238-0.23-0.355-0.531-0.355-0.905c0-0.144,0.018-0.326,0.053-0.548
		c0.037-0.224,0.076-0.435,0.119-0.637l2.756-11.604c0.188-0.803,0.43-1.342,0.732-1.615c0.301-0.272,0.848-0.409,1.637-0.409
		c0.73,0,1.264,0.14,1.592,0.42c0.33,0.28,0.59,0.815,0.775,1.604l2.736,11.52c0.07,0.315,0.125,0.563,0.16,0.743
		c0.035,0.179,0.055,0.325,0.055,0.44c0,0.445-0.139,0.779-0.41,1.001c-0.273,0.223-0.609,0.334-1.012,0.334
		c-0.531,0-0.918-0.133-1.164-0.398c-0.242-0.266-0.438-0.757-0.58-1.474l-0.451-2.283H284.811z M287.91,38.572l-1.27-6.437h-0.043
		l-1.314,6.437H287.91z"/>
	<path fill="#004C99" d="M293.422,34.224c0-0.445,0.102-0.793,0.303-1.044s0.508-0.377,0.926-0.377c0.416,0,0.725,0.126,0.926,0.377
		s0.301,0.599,0.301,1.044v1.099h0.043c0.201-0.776,0.471-1.39,0.809-1.843c0.338-0.451,0.721-0.677,1.15-0.677
		c0.375,0,0.684,0.144,0.926,0.43c0.244,0.288,0.367,0.71,0.367,1.271c0,0.445-0.129,0.819-0.389,1.119
		c-0.258,0.301-0.674,0.452-1.248,0.452c-0.43,0-0.785,0.141-1.066,0.42c-0.279,0.279-0.42,0.671-0.42,1.173v5.771
		c0,0.518-0.115,0.908-0.344,1.174c-0.23,0.266-0.553,0.398-0.969,0.398s-0.74-0.133-0.969-0.398
		c-0.23-0.266-0.346-0.656-0.346-1.174V34.224z"/>
</g>
</svg>
