<?xml version="1.0" encoding="utf-8"?>
<!-- Generator: Adobe Illustrator 16.0.0, SVG Export Plug-In . SVG Version: 6.00 Build 0)  -->
<!DOCTYPE svg PUBLIC "-//W3C//DTD SVG 1.1//EN" "http://www.w3.org/Graphics/SVG/1.1/DTD/svg11.dtd">
<svg version="1.1" id="Layer_1" xmlns="http://www.w3.org/2000/svg" xmlns:xlink="http://www.w3.org/1999/xlink" x="0px" y="0px"
	 width="260px" height="90px" viewBox="167.64 375.945 260 90" enable-background="new 167.64 375.945 260 90" xml:space="preserve"
	>
<g>
	<g>
		<g>
			<path fill="#FB963B" d="M200.962,418.173v1.287h-10.138v9.483h10.138v1.287h-10.138v9.482h10.138V441h-11.425v-22.827H200.962
				L200.962,418.173z"/>
			<path fill="#FB963B" d="M215.999,418.173v1.287h-10.138v9.483h10.138v1.287h-10.138v9.482h10.138V441h-11.424v-22.827H215.999
				L215.999,418.173z"/>
			<path fill="#FB963B" d="M238.486,438.2c-2.167,2.077-4.764,3.115-7.767,3.115c-3.251,0-6.006-1.129-8.286-3.409
				s-3.409-5.034-3.409-8.285c0-3.229,1.129-5.983,3.409-8.264c2.28-2.28,5.035-3.433,8.286-3.433c3.025,0,5.644,1.017,7.879,3.048
				l-0.993,0.881c-1.964-1.739-4.268-2.596-6.886-2.596c-2.868,0-5.306,1.016-7.338,3.048c-2.032,2.031-3.048,4.47-3.048,7.338
				c0,2.867,1.016,5.328,3.048,7.36c2.032,2.031,4.47,3.048,7.338,3.048c2.461,0,4.628-0.745,6.502-2.258v-6.977h1.287
				L238.486,438.2L238.486,438.2z"/>
		</g>
		<path fill="#FB963B" d="M184.503,429.892c0-0.045-0.022-0.113-0.045-0.158c-0.203-0.451-0.452-0.857-0.745-1.265
			c-0.271-0.384-0.564-0.745-0.903-1.061l-0.045,0.045c-1.197-1.129-2.664-1.964-4.357-2.528c-1.152-0.52-2.032-1.106-2.687-1.739
			c-0.7-0.699-1.039-1.535-1.039-2.529c0-0.993,0.339-1.829,1.039-2.528c0.7-0.7,1.535-1.039,2.506-1.039
			c0.971,0,1.806,0.339,2.506,1.039c0.384,0.384,0.677,0.812,0.835,1.286l1.174-0.451c-0.203-0.632-0.564-1.196-1.083-1.693
			c-0.971-0.948-2.1-1.422-3.432-1.422c-1.355,0-2.484,0.474-3.432,1.422s-1.422,2.077-1.422,3.386c0,1.355,0.474,2.484,1.422,3.433
			s2.235,1.693,3.861,2.213c1.377,0.564,2.529,1.31,3.477,2.258c0.316,0.316,0.587,0.654,0.813,0.993
			c0.045,0.091,0.113,0.158,0.158,0.248c0.023,0.046,0.045,0.068,0.068,0.113c0.497,0.948,0.768,2.01,0.768,3.116
			c0,1.806-0.7,3.499-1.987,4.786c-2.642,2.642-6.909,2.642-9.55,0c-0.542-0.542-0.971-1.129-1.287-1.807l-1.106,0.542
			c0.384,0.79,0.903,1.513,1.536,2.146c1.558,1.558,3.612,2.348,5.645,2.348c2.054,0,4.086-0.79,5.644-2.348
			c1.513-1.514,2.348-3.522,2.348-5.645C185.157,431.946,184.909,430.885,184.503,429.892z"/>
	</g>
	<g>
		<path fill="#808284" d="M175.652,446.87v7.202h-0.903v-5.848l-2.371,3.093l-2.371-3.093v5.848h-0.903v-7.202h0.971l2.303,3.025
			l2.303-3.025H175.652z"/>
		<path fill="#808284" d="M187.573,447.863c0.722,0.723,1.083,1.58,1.083,2.597c0,1.016-0.361,1.874-1.083,2.597
			c-0.723,0.722-1.603,1.083-2.665,1.083c-1.039,0-1.919-0.361-2.642-1.083c-0.722-0.723-1.083-1.604-1.083-2.597
			s0.361-1.874,1.083-2.597c0.723-0.723,1.603-1.084,2.642-1.084C185.97,446.779,186.851,447.141,187.573,447.863z M184.932,447.57
			c-0.768,0-1.422,0.271-1.987,0.835s-0.835,1.242-0.835,2.055s0.271,1.49,0.835,2.055s1.219,0.835,1.987,0.835
			c0.768,0,1.445-0.271,1.987-0.835c0.564-0.564,0.835-1.242,0.835-2.055s-0.271-1.49-0.835-2.055S185.699,447.57,184.932,447.57z"
			/>
		<path fill="#808284" d="M195.182,446.87l4.109,5.757v-5.757h0.903v7.202h-0.993l-3.997-5.6v5.6h-0.903v-7.202H195.182z"/>
		<path fill="#808284" d="M206.99,446.87v7.202h-0.903v-7.202H206.99z"/>
		<path fill="#808284" d="M215.141,447.66v6.412h-0.903v-6.412h-1.716v-0.79h4.335v0.79H215.141z"/>
		<path fill="#808284" d="M228.1,447.863c0.723,0.723,1.084,1.58,1.084,2.597c0,1.016-0.361,1.874-1.084,2.597
			c-0.723,0.722-1.603,1.083-2.664,1.083c-1.039,0-1.919-0.361-2.642-1.083c-0.723-0.723-1.084-1.581-1.084-2.597
			c0-0.993,0.361-1.874,1.084-2.597c0.722-0.723,1.603-1.084,2.642-1.084C226.497,446.779,227.378,447.141,228.1,447.863z
			 M225.459,447.57c-0.768,0-1.422,0.271-1.987,0.835s-0.835,1.242-0.835,2.055s0.271,1.49,0.835,2.055s1.219,0.835,1.987,0.835
			s1.445-0.271,1.987-0.835c0.564-0.564,0.835-1.242,0.835-2.055s-0.271-1.49-0.835-2.055S226.226,447.57,225.459,447.57z"/>
		<path fill="#808284" d="M236.567,451.725h-0.835v2.348h-0.903v-7.202h2.055c0.609,0.09,1.106,0.316,1.513,0.723
			c0.474,0.474,0.7,1.038,0.7,1.693c0,0.654-0.248,1.219-0.722,1.716c-0.316,0.315-0.61,0.519-0.858,0.564l1.625,2.483h-1.039
			L236.567,451.725z M235.732,447.66v3.251h0.88c0.429,0,0.79-0.158,1.106-0.474c0.316-0.316,0.474-0.7,0.474-1.174
			c0-0.475-0.158-0.858-0.474-1.152c-0.316-0.315-0.677-0.474-1.106-0.474L235.732,447.66L235.732,447.66z"/>
		<path fill="#808284" d="M170.482,461.749c0.135,0.112,0.181,0.271,0.181,0.429s-0.068,0.316-0.181,0.429
			c-0.136,0.113-0.271,0.181-0.452,0.181s-0.339-0.067-0.474-0.181c-0.136-0.112-0.181-0.271-0.181-0.429s0.068-0.294,0.181-0.429
			c0.135-0.113,0.293-0.181,0.474-0.181S170.369,461.613,170.482,461.749z"/>
		<path fill="#DB7777" d="M178.542,459.4v0.564h-2.167v1.738h2.167v0.564h-2.167v1.739h2.167v0.564h-2.822v-5.193h2.822V459.4z"/>
		<path fill="#DB7777" d="M183.283,464.594V459.4h0.655v4.629h1.874v0.564H183.283L183.283,464.594z"/>
		<path fill="#DB7777" d="M193.15,459.4v0.564h-2.167v1.738h2.167v0.564h-2.167v1.739h2.167v0.564h-2.822v-5.193h2.822V459.4z
			 M192.947,458.091l-1.129,0.858h-0.677l0.745-0.858H192.947z"/>
		<path fill="#DB7777" d="M199.472,459.965v4.629h-0.655v-4.629h-1.242V459.4h3.138v0.564H199.472z"/>
		<path fill="#DB7777" d="M206.426,462.9h-0.609v1.693h-0.655V459.4h1.49c0.429,0.068,0.79,0.226,1.083,0.52
			c0.339,0.339,0.52,0.745,0.52,1.22c0,0.474-0.181,0.88-0.52,1.241c-0.226,0.226-0.429,0.361-0.609,0.406l1.174,1.807h-0.745
			L206.426,462.9z M205.816,459.965v2.349h0.632c0.293,0,0.564-0.113,0.79-0.339s0.339-0.497,0.339-0.835
			c0-0.339-0.113-0.61-0.339-0.836s-0.497-0.339-0.79-0.339H205.816L205.816,459.965z"/>
		<path fill="#DB7777" d="M213.538,459.4v5.193h-0.655V459.4H213.538z"/>
		<path fill="#DB7777" d="M222.343,463.442l0.452,0.406c-0.587,0.542-1.219,0.79-1.942,0.79c-0.745,0-1.4-0.271-1.919-0.79
			c-0.52-0.52-0.79-1.151-0.79-1.874s0.271-1.354,0.79-1.874c0.519-0.52,1.151-0.79,1.919-0.79c0.7,0,1.354,0.271,1.942,0.79
			l-0.452,0.406c-0.474-0.429-0.971-0.632-1.468-0.632c-0.564,0-1.038,0.203-1.445,0.609c-0.406,0.406-0.609,0.903-0.609,1.468
			c0,0.587,0.203,1.084,0.609,1.49c0.407,0.406,0.881,0.609,1.445,0.609C221.372,464.074,221.846,463.871,222.343,463.442z"/>
		<path fill="#DB7777" d="M231.781,460.101c0.52,0.52,0.79,1.151,0.79,1.874s-0.271,1.354-0.79,1.874s-1.174,0.79-1.919,0.79
			s-1.4-0.271-1.919-0.79c-0.519-0.52-0.79-1.151-0.79-1.874s0.271-1.354,0.79-1.874c0.52-0.52,1.151-0.79,1.919-0.79
			C230.607,459.333,231.261,459.581,231.781,460.101z M229.862,459.897c-0.565,0-1.039,0.203-1.445,0.609
			c-0.406,0.406-0.609,0.903-0.609,1.49s0.203,1.084,0.609,1.49c0.407,0.406,0.88,0.609,1.445,0.609
			c0.564,0,1.039-0.203,1.445-0.609s0.609-0.903,0.609-1.49s-0.203-1.084-0.609-1.49S230.426,459.897,229.862,459.897z"/>
		<path fill="#808284" d="M238.554,461.749c0.135,0.112,0.181,0.271,0.181,0.429s-0.068,0.316-0.181,0.429
			c-0.136,0.113-0.271,0.181-0.452,0.181s-0.339-0.067-0.474-0.181c-0.136-0.112-0.181-0.271-0.181-0.429s0.068-0.294,0.181-0.429
			c0.135-0.113,0.293-0.181,0.474-0.181S238.441,461.613,238.554,461.749z"/>
	</g>
	<path fill="#DB7777" d="M208.706,403.678c1.919,2.371,1.535,5.848-0.835,7.767s-5.848,1.535-7.767-0.835
		c-1.919-2.371-10.566-21.945-10.566-21.945S206.787,401.308,208.706,403.678z"/>
	<g>
		<path fill="#FFFFFF" d="M203.219,410.565c-0.067-0.046,1.219-2.732,1.174-2.845c-0.045-0.113-1.4-0.565-1.468-0.769
			c-0.067-0.203,2.687-3.296,2.755-3.251c0.067,0.067-1.197,2.755-1.174,2.845c0.045,0.091,1.422,0.542,1.468,0.768
			C206.019,407.539,203.287,410.61,203.219,410.565z"/>
	</g>
	<path fill="#FB963B" d="M230.2,391.847l1.603-1.174c-4.019-5.283-9.528-9.369-15.872-11.673l-0.609,1.896
		C221.282,383.065,226.429,386.903,230.2,391.847z"/>
	<path fill="#74E2A8" d="M204.168,378.933c3.207,0,6.322,0.475,9.257,1.332l0.609-1.896c-3.138-0.926-6.435-1.423-9.867-1.423
		c-3.432,0-6.75,0.497-9.866,1.423l0.609,1.896C197.846,379.408,200.962,378.933,204.168,378.933z"/>
	<path fill="#DB7777" d="M193.014,380.897L192.405,379c-6.367,2.304-11.854,6.39-15.872,11.673l1.603,1.174
		C181.906,386.903,187.076,383.065,193.014,380.897z"/>
	<path fill="#DBDB77" d="M171.43,410.994c0.135-6.48,2.167-12.508,5.554-17.543l-1.603-1.174c-3.635,5.373-5.78,11.785-5.938,18.717
		c0,0.226,0,0.474,0,0.7c0,0.429,0,0.857,0.022,1.286h1.987c-0.022-0.429-0.022-0.857-0.022-1.286
		C171.407,411.467,171.407,411.219,171.43,410.994z"/>
	<path fill="#75C7E0" d="M238.915,410.994c-0.135-6.909-2.303-13.344-5.938-18.717l-1.603,1.174
		c3.386,5.035,5.418,11.062,5.554,17.543c0,0.226,0,0.474,0,0.7c0,0.429,0,0.857-0.023,1.286h1.987
		c0.022-0.429,0.022-0.857,0.022-1.286C238.915,411.467,238.915,411.219,238.915,410.994z"/>
</g>
</svg>
