<?xml version="1.0" encoding="utf-8"?>
<!-- Generator: Adobe Illustrator 16.0.0, SVG Export Plug-In . SVG Version: 6.00 Build 0)  -->
<!DOCTYPE svg PUBLIC "-//W3C//DTD SVG 1.1//EN" "http://www.w3.org/Graphics/SVG/1.1/DTD/svg11.dtd">
<svg version="1.1" id="Camada_1" xmlns="http://www.w3.org/2000/svg" xmlns:xlink="http://www.w3.org/1999/xlink" x="0px" y="0px"
	 width="197.25px" height="47.75px" viewBox="197.64 390.945 197.25 47.75" enable-background="new 197.64 390.945 197.25 47.75"
	 xml:space="preserve">
<g>
	<g>
		<g>
			<path fill="#9AC332" d="M250.044,403.215h12.611c0.177,0,0.354,0.071,0.495,0.212c0.141,0.141,0.212,0.318,0.212,0.495v0.318
				c0,0.211-0.071,0.388-0.212,0.53c-0.142,0.141-0.318,0.212-0.495,0.212h-12.258v21.763h12.258c0.177,0,0.354,0.07,0.495,0.213
				c0.141,0.141,0.212,0.318,0.212,0.529v0.318c0,0.176-0.071,0.354-0.212,0.494c-0.142,0.143-0.318,0.213-0.495,0.213h-12.647
				c-0.565,0-0.954-0.143-1.131-0.391c-0.177-0.246-0.283-0.6-0.283-1.059v-22.435c0-0.495,0.106-0.848,0.318-1.06
				C249.125,403.357,249.513,403.215,250.044,403.215z M252.587,414.521h7.737c0.212,0,0.389,0.071,0.53,0.212
				c0.141,0.142,0.212,0.318,0.212,0.494v0.318c0,0.495-0.248,0.707-0.707,0.707h-7.737c-0.495,0-0.707-0.248-0.707-0.707v-0.318
				c0-0.176,0.071-0.353,0.212-0.494C252.163,414.593,252.34,414.521,252.587,414.521z"/>
			<path fill="#9AC332" d="M262.655,428.937h-12.647c-0.707,0-1.201-0.178-1.449-0.531c-0.212-0.316-0.353-0.74-0.353-1.307v-22.47
				c0-0.565,0.141-1.024,0.424-1.342c0.283-0.318,0.742-0.459,1.414-0.459h12.611c0.283,0,0.565,0.106,0.778,0.318
				c0.212,0.212,0.318,0.495,0.318,0.777v0.318c0,0.317-0.106,0.601-0.354,0.812c-0.212,0.212-0.495,0.317-0.777,0.317H250.75
				v20.986h11.871c0.282,0,0.565,0.105,0.777,0.318c0.212,0.211,0.354,0.494,0.354,0.812v0.318c0,0.283-0.106,0.564-0.318,0.777
				C263.22,428.829,262.938,428.937,262.655,428.937z M250.044,403.64c-0.424,0-0.707,0.071-0.848,0.212
				c-0.142,0.142-0.212,0.424-0.212,0.812v22.47c0,0.389,0.071,0.672,0.212,0.848c0.106,0.141,0.389,0.213,0.812,0.213h12.647
				c0.071,0,0.177-0.035,0.248-0.105c0.071-0.072,0.106-0.143,0.106-0.248v-0.318c0-0.141-0.035-0.211-0.106-0.246
				c-0.071-0.07-0.141-0.107-0.248-0.107h-12.647v-22.541h12.647c0.106,0,0.177-0.035,0.248-0.106
				c0.035-0.035,0.106-0.106,0.106-0.247v-0.318c0-0.106-0.035-0.177-0.106-0.247c-0.071-0.071-0.141-0.106-0.248-0.106h-12.611
				V403.64L250.044,403.64z M260.324,416.676h-7.737c-0.707,0-1.095-0.423-1.095-1.13v-0.318c0-0.281,0.106-0.564,0.318-0.776
				c0.211-0.212,0.494-0.354,0.812-0.354h7.737c0.318,0,0.601,0.105,0.813,0.354c0.212,0.212,0.318,0.495,0.318,0.776v0.318
				C261.42,416.253,260.995,416.676,260.324,416.676z M252.587,414.91c-0.141,0-0.212,0.036-0.247,0.105
				c-0.071,0.07-0.106,0.142-0.106,0.248v0.317c0,0.282,0.07,0.318,0.318,0.318h7.737c0.283,0,0.318-0.07,0.318-0.318v-0.317
				c0-0.106-0.035-0.178-0.106-0.248c-0.036-0.035-0.106-0.105-0.248-0.105H252.587z"/>
		</g>
		<g>
			<path fill="#9AC332" d="M268.697,411.942c1.165-1.025,2.649-1.556,4.522-1.556s3.356,0.53,4.486,1.591
				c1.131,1.06,1.696,2.509,1.696,4.381c0,0.459-0.248,0.671-0.707,0.671h-0.282c-0.459,0-0.672-0.212-0.672-0.671
				c0-1.378-0.424-2.438-1.271-3.145c-0.848-0.706-1.908-1.095-3.215-1.095s-2.367,0.353-3.25,1.095
				c-0.848,0.742-1.271,1.802-1.271,3.181v6.218c0,1.377,0.423,2.438,1.271,3.18c0.848,0.742,1.943,1.094,3.25,1.094
				s2.367-0.352,3.215-1.059s1.271-1.732,1.271-3.039c0-0.176,0.071-0.354,0.212-0.495c0.141-0.14,0.283-0.211,0.495-0.211h0.283
				c0.212,0,0.389,0.071,0.53,0.211c0.142,0.142,0.212,0.319,0.212,0.495c-0.036,1.838-0.636,3.25-1.767,4.311
				c-1.13,1.023-2.614,1.555-4.416,1.555c-1.837,0-3.321-0.531-4.487-1.59c-1.166-1.061-1.767-2.508-1.767-4.381v-6.324
				C266.966,414.451,267.531,412.967,268.697,411.942z"/>
			<path fill="#9AC332" d="M273.183,429.007c-1.908,0-3.497-0.564-4.733-1.66c-1.237-1.131-1.873-2.686-1.873-4.699v-6.289
				c0-2.014,0.636-3.604,1.873-4.699c1.236-1.096,2.826-1.661,4.769-1.661c1.943,0,3.533,0.565,4.734,1.661
				c1.201,1.132,1.837,2.686,1.837,4.664c0,0.671-0.423,1.06-1.095,1.06h-0.282c-0.672,0-1.061-0.389-1.061-1.06
				c0-1.271-0.353-2.19-1.13-2.861s-1.731-0.99-2.968-0.99c-1.201,0-2.19,0.354-2.968,1.024c-0.777,0.672-1.13,1.59-1.13,2.862
				v6.219c0,1.271,0.389,2.189,1.13,2.861c0.777,0.67,1.767,1.023,2.968,1.023c1.201,0,2.19-0.316,2.932-0.988
				c0.742-0.635,1.13-1.555,1.13-2.756c0-0.283,0.106-0.564,0.318-0.777c0.212-0.212,0.459-0.353,0.778-0.353h0.282
				c0.318,0,0.601,0.105,0.813,0.353c0.211,0.213,0.318,0.494,0.318,0.777c-0.036,1.943-0.707,3.498-1.908,4.594
				C276.681,428.442,275.127,429.007,273.183,429.007z M273.219,410.776c-1.731,0-3.18,0.494-4.275,1.449
				c-1.095,0.953-1.59,2.331-1.59,4.133v6.289c0,1.766,0.53,3.109,1.625,4.098c1.095,0.99,2.509,1.484,4.24,1.484
				c1.696,0,3.109-0.494,4.168-1.449c1.06-0.953,1.59-2.295,1.661-4.027c0-0.07-0.035-0.176-0.106-0.248
				c-0.035-0.033-0.106-0.105-0.248-0.105h-0.282c-0.071,0-0.142,0.035-0.212,0.105c-0.07,0.072-0.106,0.143-0.106,0.248
				c-0.035,1.449-0.495,2.58-1.413,3.355c-0.883,0.777-2.049,1.168-3.462,1.168c-1.378,0-2.579-0.391-3.498-1.201
				c-0.954-0.812-1.413-1.98-1.413-3.463v-6.218c0-1.484,0.495-2.65,1.413-3.464c0.918-0.776,2.084-1.201,3.498-1.201
				c1.377,0,2.544,0.39,3.462,1.167c0.918,0.812,1.413,1.942,1.413,3.427c0,0.247,0.071,0.283,0.283,0.283h0.283
				c0.318,0,0.318-0.106,0.318-0.283c0-1.767-0.53-3.145-1.59-4.098C276.398,411.271,274.95,410.776,273.219,410.776z"/>
		</g>
		<g>
			<path fill="#9AC332" d="M286.962,411.942c1.166-1.025,2.648-1.556,4.521-1.556s3.357,0.53,4.488,1.591
				c1.13,1.06,1.695,2.509,1.695,4.381v6.289c0,1.871-0.565,3.355-1.695,4.381c-1.131,1.061-2.615,1.59-4.452,1.59
				c-1.838,0-3.357-0.529-4.522-1.59s-1.767-2.51-1.767-4.381v-6.289C285.23,414.451,285.796,412.967,286.962,411.942z
				 M294.698,413.179c-0.848-0.741-1.907-1.095-3.215-1.095c-1.307,0-2.402,0.354-3.25,1.095c-0.883,0.742-1.307,1.802-1.307,3.18
				v6.289c0,1.377,0.424,2.438,1.307,3.18c0.884,0.742,1.943,1.096,3.25,1.096c1.308,0,2.367-0.354,3.215-1.096
				s1.272-1.803,1.272-3.18v-6.289C295.971,414.98,295.547,413.921,294.698,413.179z"/>
			<path fill="#9AC332" d="M291.483,429.007c-1.943,0-3.533-0.564-4.769-1.66c-1.237-1.131-1.873-2.686-1.873-4.699v-6.289
				c0-2.014,0.636-3.604,1.873-4.699c1.236-1.096,2.826-1.661,4.769-1.661c1.943,0,3.533,0.565,4.734,1.661
				c1.202,1.132,1.836,2.686,1.836,4.664v6.289c0,1.979-0.6,3.568-1.836,4.664C295.016,428.442,293.427,429.007,291.483,429.007z
				 M291.483,410.776c-1.731,0-3.179,0.494-4.274,1.449c-1.095,0.953-1.589,2.331-1.589,4.133v6.289c0,1.766,0.53,3.109,1.625,4.098
				c1.095,0.99,2.508,1.484,4.275,1.484c1.731,0,3.144-0.494,4.204-1.484c1.06-0.953,1.59-2.332,1.59-4.098v-6.289
				c0-1.766-0.53-3.145-1.59-4.099C294.628,411.271,293.214,410.776,291.483,410.776z M291.483,427.312
				c-1.377,0-2.579-0.389-3.497-1.203c-0.954-0.811-1.448-1.977-1.448-3.461v-6.289c0-1.483,0.495-2.65,1.448-3.462
				c0.918-0.777,2.12-1.202,3.497-1.202c1.378,0,2.544,0.39,3.462,1.202c0.918,0.812,1.414,1.979,1.414,3.462v6.289
				c0,1.484-0.459,2.65-1.414,3.461C294.028,426.886,292.861,427.312,291.483,427.312z M291.483,412.472
				c-1.2,0-2.226,0.354-3.002,1.024c-0.777,0.672-1.166,1.59-1.166,2.862v6.289c0,1.271,0.389,2.191,1.166,2.861
				c0.777,0.672,1.802,1.025,3.002,1.025c1.202,0,2.191-0.318,2.967-0.99c0.778-0.672,1.131-1.59,1.131-2.861v-6.324
				c0-1.272-0.353-2.19-1.131-2.862C293.674,412.825,292.685,412.472,291.483,412.472z"/>
		</g>
		<g>
			<path fill="#EFEFEF" d="M303.99,408.973c0-1.554,0.637-2.896,1.908-4.062c1.271-1.166,3.002-1.731,5.229-1.731
				c2.189,0,4.062,0.601,5.58,1.767c1.521,1.166,2.297,2.896,2.404,5.228c0,0.177-0.07,0.354-0.213,0.53
				c-0.141,0.142-0.318,0.248-0.494,0.248h-0.354c-0.176,0-0.318-0.07-0.459-0.213c-0.141-0.142-0.211-0.283-0.248-0.495
				c-0.07-1.837-0.67-3.179-1.836-3.992c-1.166-0.848-2.545-1.236-4.17-1.236c-1.73,0-3.072,0.388-4.062,1.202
				c-0.953,0.812-1.449,1.765-1.449,2.931c0,1.167,0.354,2.121,1.025,2.793c0.955,0.954,2.686,1.907,5.229,2.896
				c3.039,1.202,5.053,2.402,6.078,3.604c0.775,0.919,1.164,2.227,1.164,3.957c0,1.695-0.705,3.18-2.084,4.381
				s-3.355,1.838-5.9,1.838c-1.908,0-3.709-0.529-5.369-1.555c-0.883-0.564-1.625-1.342-2.191-2.332
				c-0.564-0.988-0.883-2.154-0.918-3.463c0-0.494,0.248-0.741,0.707-0.741h0.318c0.424,0,0.672,0.212,0.705,0.671
				c0.037,1.061,0.318,1.979,0.812,2.758c0.496,0.775,1.096,1.377,1.803,1.766c1.412,0.74,2.932,1.131,4.592,1.131
				s3.039-0.424,4.133-1.309c1.061-0.883,1.627-1.979,1.627-3.32c0-1.343-0.424-2.403-1.307-3.11
				c-0.707-0.563-1.449-1.059-2.262-1.482c-1.061-0.495-2.721-1.202-4.982-2.12c-1.73-0.777-3.002-1.661-3.779-2.65
				C304.379,411.8,303.99,410.528,303.99,408.973z"/>
		</g>
		<g>
			<path fill="#EFEFEF" d="M322.362,410.457h0.883c0.213,0,0.389,0.071,0.529,0.212c0.141,0.143,0.213,0.319,0.213,0.496v0.212
				c0,0.177-0.072,0.353-0.213,0.494c-0.141,0.143-0.316,0.213-0.529,0.213h-0.883c-0.213,0-0.389-0.07-0.529-0.213
				c-0.143-0.142-0.213-0.317-0.213-0.494v-0.212c0-0.177,0.07-0.354,0.213-0.496C321.973,410.528,322.149,410.457,322.362,410.457z
				 M325.153,402.155h0.283c0.459,0,0.67,0.248,0.67,0.671L326,422.966c0.035,1.236,0.354,2.189,1.025,2.861
				c0.67,0.672,1.518,1.025,2.613,1.025h0.92c0.176,0,0.352,0.07,0.492,0.211c0.143,0.143,0.213,0.318,0.213,0.459v0.283
				c0,0.494-0.529,0.707-1.625,0.707c-1.59,0-2.861-0.496-3.814-1.449c-0.955-0.988-1.449-2.332-1.484-4.062l0.105-20.174
				C324.481,402.367,324.694,402.155,325.153,402.155z M327.201,410.457h2.684c0.178,0,0.354,0.071,0.496,0.212
				c0.141,0.143,0.211,0.319,0.211,0.496v0.212c0,0.177-0.07,0.353-0.211,0.494c-0.143,0.143-0.283,0.213-0.496,0.213h-2.684
				c-0.176,0-0.354-0.07-0.494-0.213c-0.143-0.142-0.213-0.317-0.213-0.494v-0.212c0-0.177,0.07-0.354,0.213-0.496
				C326.848,410.528,327.026,410.457,327.201,410.457z"/>
		</g>
		<g>
			<path fill="#EFEFEF" d="M337.588,411.942c1.166-1.025,2.648-1.556,4.521-1.556s3.355,0.53,4.486,1.591
				c1.131,1.06,1.697,2.509,1.697,4.381v7.949c0,0.955,0.07,1.59,0.246,1.943c0.141,0.354,0.461,0.602,0.92,0.707l0.387,0.105
				c0.354,0.07,0.531,0.248,0.531,0.459v0.389c0,0.424-0.248,0.602-0.707,0.602c-1.166,0-1.979-0.354-2.438-1.061
				c-0.424-0.707-0.637-1.766-0.637-3.215v-7.879c0-1.378-0.424-2.438-1.271-3.18c-0.848-0.741-1.908-1.095-3.215-1.095
				s-2.402,0.354-3.25,1.095c-0.883,0.742-1.307,1.802-1.307,3.18v6.184c0,1.412,0.354,2.508,1.059,3.215
				c0.707,0.705,1.73,1.096,3.074,1.096s2.438-0.531,3.32-1.627c0.178-0.211,0.391-0.316,0.707-0.316
				c0.318,0,0.494,0.176,0.637,0.529c0.07,0.283,0.035,0.529-0.107,0.742c-1.023,1.555-2.508,2.367-4.449,2.367
				c-1.943,0-3.428-0.531-4.418-1.555c-0.988-1.025-1.482-2.508-1.482-4.416v-6.219
				C335.856,414.451,336.422,412.967,337.588,411.942z"/>
		</g>
		<g>
			<path fill="#EFEFEF" d="M355.711,411.978c1.166-1.024,2.686-1.555,4.521-1.555c1.873,0,3.357,0.53,4.488,1.555
				c1.129,1.024,1.695,2.509,1.695,4.417v14.909c0,2.049-0.529,3.602-1.625,4.697c-1.096,1.061-2.545,1.625-4.346,1.625
				c-1.838,0-3.285-0.494-4.381-1.52c-1.096-1.023-1.66-2.438-1.695-4.273c0-0.424,0.211-0.637,0.67-0.637h0.283
				c0.494,0,0.707,0.213,0.707,0.637c0.035,1.342,0.459,2.332,1.271,3.037c0.812,0.707,1.838,1.061,3.145,1.061
				c1.271,0,2.297-0.389,3.109-1.166c0.775-0.777,1.166-1.941,1.166-3.461v-4.027c-1.307,0.953-2.828,1.412-4.594,1.412
				s-3.25-0.529-4.381-1.555c-1.166-1.025-1.73-2.508-1.73-4.416v-6.323C353.946,414.486,354.545,413.037,355.711,411.978z
				 M363.448,413.214c-0.848-0.742-1.906-1.095-3.25-1.095c-1.307,0-2.4,0.353-3.25,1.095c-0.848,0.742-1.271,1.802-1.271,3.215
				v6.219c0,1.377,0.424,2.438,1.307,3.18c0.885,0.742,1.943,1.096,3.145,1.096s2.227-0.213,3.004-0.602s1.307-0.848,1.52-1.307
				v-8.62C364.684,415.016,364.26,413.956,363.448,413.214z"/>
		</g>
		<g>
			<path fill="#EFEFEF" d="M374.436,411.942c1.166-1.025,2.648-1.556,4.521-1.556s3.357,0.53,4.488,1.591
				c1.129,1.06,1.695,2.509,1.695,4.381v2.155c0,1.024-0.496,1.554-1.484,1.554h-7.809c-0.211,0-0.387-0.07-0.529-0.211
				c-0.141-0.142-0.211-0.318-0.211-0.495v-0.282c0-0.178,0.07-0.354,0.211-0.495c0.143-0.142,0.318-0.212,0.529-0.212h7.598v-1.943
				c0-1.377-0.426-2.438-1.273-3.179c-0.848-0.742-1.908-1.096-3.215-1.096s-2.367,0.354-3.25,1.096
				c-0.848,0.741-1.271,1.802-1.271,3.179v6.219c0,1.377,0.424,2.438,1.271,3.18s1.943,1.096,3.215,1.096s2.367-0.354,3.215-1.061
				s1.271-1.73,1.271-3.037c0-0.178,0.07-0.354,0.213-0.496c0.141-0.142,0.283-0.212,0.494-0.212h0.283
				c0.211,0,0.389,0.07,0.529,0.212c0.141,0.143,0.213,0.318,0.213,0.496c-0.035,1.871-0.602,3.283-1.732,4.309
				s-2.613,1.52-4.451,1.52c-1.836,0-3.32-0.531-4.486-1.59c-1.166-1.061-1.768-2.508-1.768-4.381v-6.324
				C372.703,414.451,373.27,412.967,374.436,411.942z"/>
		</g>
	</g>
	<path fill="#EFEFEF" d="M394.432,426.108c0,1.098-0.883,1.98-1.979,1.98s-1.979-0.883-1.979-1.98c0-1.094,0.883-1.977,1.979-1.977
		C393.512,424.132,394.432,425.015,394.432,426.108z"/>
	<g>
		<g>
			<circle fill="#9AC332" cx="217.188" cy="400.99" r="1.484"/>
		</g>
		<g>
			<circle fill="#9AC332" cx="211.147" cy="408.196" r="1.484"/>
		</g>
		<g>
			<path fill="#9AC332" d="M221.639,404.558c0,0.812,0.671,1.484,1.484,1.484c0.813,0,1.484-0.671,1.484-1.484
				c0-0.812-0.671-1.483-1.484-1.483C222.31,403.039,221.639,403.71,221.639,404.558z"/>
		</g>
		<g>
			<path fill="#9AC332" d="M221.639,420.669c0,0.812,0.671,1.484,1.484,1.484c0.813,0,1.484-0.673,1.484-1.484
				c0-0.812-0.671-1.484-1.484-1.484C222.31,419.185,221.639,419.856,221.639,420.669z"/>
		</g>
		<g>
			<circle fill="#EFEFEF" cx="217.188" cy="395.443" r="1.484"/>
		</g>
		<g>
			<circle fill="#9AC332" cx="211.147" cy="402.65" r="1.484"/>
		</g>
		<g>
			<circle fill="#EFEFEF" cx="205.6" cy="408.196" r="1.484"/>
		</g>
		<g>
			<circle fill="#9AC332" cx="205.6" cy="413.744" r="1.484"/>
		</g>
		<g>
			<circle fill="#9AC332" cx="200.124" cy="408.196" r="1.484"/>
		</g>
		<g>
			<circle fill="#9AC332" cx="200.124" cy="413.744" r="1.484"/>
		</g>
		<g>
			<circle fill="#EFEFEF" cx="205.6" cy="419.291" r="1.484"/>
		</g>
		<g>
			<circle fill="#9AC332" cx="205.6" cy="402.65" r="1.484"/>
		</g>
		<g>
			<path fill="#9AC332" d="M221.639,398.976c0,0.812,0.671,1.484,1.484,1.484c0.813,0,1.484-0.671,1.484-1.484
				c0-0.813-0.671-1.484-1.484-1.484C222.31,397.492,221.639,398.163,221.639,398.976z"/>
		</g>
		<g>
			<path fill="#9AC332" d="M209.663,397.104c0,0.813,0.671,1.484,1.484,1.484c0.812,0,1.483-0.671,1.483-1.484
				c0-0.812-0.671-1.484-1.483-1.484C210.299,395.62,209.663,396.291,209.663,397.104z"/>
		</g>
		<g>
			<path fill="#9AC332" d="M221.639,393.43c0,0.812,0.671,1.483,1.484,1.483c0.813,0,1.484-0.671,1.484-1.483
				s-0.671-1.484-1.484-1.484C222.31,391.946,221.639,392.617,221.639,393.43z"/>
		</g>
		<g>
			<circle fill="#9AC332" cx="228.669" cy="404.558" r="1.484"/>
		</g>
		<g>
			<circle fill="#EFEFEF" cx="228.669" cy="410.104" r="1.484"/>
		</g>
		<g>
			<path fill="#EFEFEF" d="M231.955,404.558c0,0.812,0.671,1.484,1.484,1.484c0.812,0,1.483-0.671,1.483-1.484
				c0-0.812-0.671-1.483-1.483-1.483C232.626,403.039,231.955,403.71,231.955,404.558z"/>
		</g>
		<g>
			<path fill="#9AC332" d="M231.955,410.104c0,0.813,0.671,1.484,1.484,1.484c0.812,0,1.483-0.671,1.483-1.484
				c0-0.813-0.671-1.484-1.483-1.484C232.626,408.585,231.955,409.256,231.955,410.104z"/>
		</g>
		<g>
			<circle fill="#9AC332" cx="228.669" cy="415.652" r="1.484"/>
		</g>
		<g>
			<circle fill="#EFEFEF" cx="228.669" cy="398.976" r="1.484"/>
		</g>
		<g>
			<path fill="#EFEFEF" d="M217.188,431.938c-0.353,0-0.636-0.283-0.636-0.635v-23.25c0-0.353,0.283-0.635,0.636-0.635
				s0.636,0.282,0.636,0.635v23.25C217.823,431.655,217.541,431.938,217.188,431.938z"/>
		</g>
		<g>
			<path fill="#EFEFEF" d="M217.188,408.408c-0.848,0-1.555-0.707-1.555-1.554s0.707-1.554,1.555-1.554
				c0.848,0,1.555,0.706,1.555,1.554C218.707,407.737,218.035,408.408,217.188,408.408z M217.188,406.466
				c-0.247,0-0.424,0.177-0.424,0.423c0,0.247,0.177,0.424,0.424,0.424s0.424-0.177,0.424-0.424
				C217.612,406.643,217.4,406.466,217.188,406.466z"/>
		</g>
		<g>
			<path fill="#EFEFEF" d="M217.153,420.138c-0.354,0-0.636-0.281-0.636-0.635c0-2.332,1.802-3.108,4.169-3.922
				c1.802-0.601,1.802-1.448,1.767-3.462c0-0.212,0-0.39,0-0.601c0-0.354,0.282-0.636,0.636-0.636c0.353,0,0.636,0.282,0.636,0.636
				c0,0.211,0,0.424,0,0.601c0.036,2.12,0.036,3.78-2.65,4.698c-2.614,0.884-3.321,1.449-3.321,2.686
				C217.788,419.856,217.506,420.138,217.153,420.138z"/>
		</g>
		<g>
			<path fill="#EFEFEF" d="M217.153,423.071c-0.354,0-0.636-0.283-0.636-0.637c0-1.271-0.671-1.837-3.321-2.685
				c-2.685-0.883-2.685-2.579-2.65-4.698c0-0.177,0-0.389,0-0.601c0-0.354,0.283-0.248,0.636-0.248s0.636-0.105,0.636,0.248
				c0,0.212,0,0.424,0,0.601c-0.036,2.014-0.036,2.861,1.766,3.462c2.367,0.777,4.169,1.59,4.169,3.921
				C217.788,422.788,217.506,423.071,217.153,423.071z"/>
		</g>
		<g>
			<path fill="#EFEFEF" d="M217.188,433.812c-0.848,0-1.555-0.707-1.555-1.555s0.707-1.555,1.555-1.555
				c0.848,0,1.555,0.707,1.555,1.555C218.707,433.14,218.035,433.812,217.188,433.812z M217.188,431.868
				c-0.247,0-0.424,0.178-0.424,0.424c0,0.248,0.177,0.424,0.424,0.424s0.424-0.176,0.424-0.424
				C217.612,432.046,217.4,431.868,217.188,431.868z"/>
		</g>
		<g>
			<path fill="#EFEFEF" d="M211.182,415.298c-0.848,0-1.554-0.705-1.554-1.554c0-0.848,0.706-1.555,1.554-1.555
				c0.848,0,1.555,0.707,1.555,1.555C212.737,414.627,212.03,415.298,211.182,415.298z M211.182,413.355
				c-0.247,0-0.424,0.177-0.424,0.424c0,0.248,0.177,0.424,0.424,0.424c0.248,0,0.424-0.176,0.424-0.424
				C211.606,413.532,211.429,413.355,211.182,413.355z"/>
		</g>
		<g>
			<path fill="#EFEFEF" d="M223.088,411.659c-0.848,0-1.555-0.706-1.555-1.555c0-0.848,0.707-1.555,1.555-1.555
				c0.848,0,1.555,0.707,1.555,1.555C224.642,410.953,223.936,411.659,223.088,411.659z M223.088,409.68
				c-0.248,0-0.424,0.177-0.424,0.424c0,0.248,0.176,0.424,0.424,0.424c0.247,0,0.424-0.177,0.424-0.424
				C223.511,409.857,223.335,409.68,223.088,409.68z"/>
		</g>
	</g>
</g>
</svg>
