<?xml version="1.0" encoding="utf-8"?>
<!-- Generator: Adobe Illustrator 19.0.0, SVG Export Plug-In . SVG Version: 6.00 Build 0)  -->
<svg version="1.1" id="Layer_1" xmlns="http://www.w3.org/2000/svg" xmlns:xlink="http://www.w3.org/1999/xlink" x="0px" y="0px"
	 viewBox="-159 374.7 151.3 77.1" style="enable-background:new -159 374.7 151.3 77.1;" xml:space="preserve">
<style type="text/css">
	.st0{fill:#FB963B;}
	.st1{fill:#808284;}
	.st2{fill:#DB7777;}
	.st3{fill:#FFFFFF;}
	.st4{fill:#74E2A8;}
	.st5{fill:#DBDB77;}
	.st6{fill:#75C7E0;}
</style>
<g>
	<g>
		<path class="st0" d="M-69.2,381.6v1.9h-14.7v13.7h14.7v1.9h-14.7v13.7h14.7v1.9h-16.5v-33H-69.2L-69.2,381.6z"/>
		<path class="st0" d="M-47.4,381.6v1.9h-14.7v13.7h14.7v1.9h-14.7v13.7h14.7v1.9h-16.5v-33H-47.4L-47.4,381.6z"/>
		<path class="st0" d="M-14.8,410.6c-3.1,3-6.9,4.5-11.2,4.5c-4.7,0-8.7-1.6-12-4.9c-3.3-3.3-4.9-7.3-4.9-12c0-4.7,1.6-8.7,4.9-12
			c3.3-3.3,7.3-5,12-5c4.4,0,8.2,1.5,11.4,4.4l-1.4,1.3c-2.8-2.5-6.2-3.8-10-3.8c-4.1,0-7.7,1.5-10.6,4.4c-2.9,2.9-4.4,6.5-4.4,10.6
			c0,4.2,1.5,7.7,4.4,10.7c2.9,2.9,6.5,4.4,10.6,4.4c3.6,0,6.7-1.1,9.4-3.3v-10.1h1.9L-14.8,410.6L-14.8,410.6z"/>
	</g>
	<path class="st0" d="M-93,398.6c0-0.1,0-0.2-0.1-0.2c-0.3-0.7-0.7-1.2-1.1-1.8c-0.4-0.6-0.8-1.1-1.3-1.5l-0.1,0.1
		c-1.7-1.6-3.9-2.8-6.3-3.7c-1.7-0.8-2.9-1.6-3.9-2.5c-1-1-1.5-2.2-1.5-3.7c0-1.4,0.5-2.6,1.5-3.7c1-1,2.2-1.5,3.6-1.5
		c1.4,0,2.6,0.5,3.6,1.5c0.6,0.6,1,1.2,1.2,1.9l1.7-0.7c-0.3-0.9-0.8-1.7-1.6-2.4c-1.4-1.4-3-2.1-5-2.1c-2,0-3.6,0.7-5,2.1
		c-1.4,1.4-2.1,3-2.1,4.9c0,2,0.7,3.6,2.1,5c1.4,1.4,3.2,2.5,5.6,3.2c2,0.8,3.7,1.9,5,3.3c0.5,0.5,0.9,0.9,1.2,1.4
		c0.1,0.1,0.2,0.2,0.2,0.4c0,0.1,0.1,0.1,0.1,0.2c0.7,1.4,1.1,2.9,1.1,4.5c0,2.6-1,5.1-2.9,6.9c-3.8,3.8-10,3.8-13.8,0
		c-0.8-0.8-1.4-1.6-1.9-2.6l-1.6,0.8c0.6,1.1,1.3,2.2,2.2,3.1c2.3,2.3,5.2,3.4,8.2,3.4c3,0,5.9-1.1,8.2-3.4c2.2-2.2,3.4-5.1,3.4-8.2
		C-92,401.5-92.4,400-93,398.6z"/>
</g>
<g>
	<path class="st1" d="M-105.5,422.1v10.4h-1.3v-8.5l-3.4,4.5l-3.4-4.5v8.5h-1.3v-10.4h1.4l3.3,4.4l3.3-4.4H-105.5z"/>
	<path class="st1" d="M-88.2,423.5c1,1,1.6,2.3,1.6,3.8c0,1.5-0.5,2.7-1.6,3.8c-1,1-2.3,1.6-3.9,1.6c-1.5,0-2.8-0.5-3.8-1.6
		c-1-1-1.6-2.3-1.6-3.8c0-1.4,0.5-2.7,1.6-3.8c1-1,2.3-1.6,3.8-1.6C-90.5,422-89.2,422.5-88.2,423.5z M-92,423.1
		c-1.1,0-2.1,0.4-2.9,1.2c-0.8,0.8-1.2,1.8-1.2,3s0.4,2.2,1.2,3c0.8,0.8,1.8,1.2,2.9,1.2c1.1,0,2.1-0.4,2.9-1.2
		c0.8-0.8,1.2-1.8,1.2-3s-0.4-2.2-1.2-3C-90,423.5-90.9,423.1-92,423.1z"/>
	<path class="st1" d="M-77.2,422.1l5.9,8.3v-8.3h1.3v10.4h-1.4l-5.8-8.1v8.1h-1.3v-10.4H-77.2z"/>
	<path class="st1" d="M-60.1,422.1v10.4h-1.3v-10.4H-60.1z"/>
	<path class="st1" d="M-48.3,423.2v9.3h-1.3v-9.3h-2.5v-1.1h6.3v1.1C-45.8,423.2-48.3,423.2-48.3,423.2z"/>
	<path class="st1" d="M-29.5,423.5c1,1,1.6,2.3,1.6,3.8c0,1.5-0.5,2.7-1.6,3.8c-1,1-2.3,1.6-3.9,1.6c-1.5,0-2.8-0.5-3.8-1.6
		c-1-1-1.6-2.3-1.6-3.8c0-1.4,0.5-2.7,1.6-3.8c1-1,2.3-1.6,3.8-1.6C-31.9,422-30.6,422.5-29.5,423.5z M-33.4,423.1
		c-1.1,0-2.1,0.4-2.9,1.2c-0.8,0.8-1.2,1.8-1.2,3s0.4,2.2,1.2,3c0.8,0.8,1.8,1.2,2.9,1.2c1.1,0,2.1-0.4,2.9-1.2
		c0.8-0.8,1.2-1.8,1.2-3s-0.4-2.2-1.2-3C-31.3,423.5-32.2,423.1-33.4,423.1z"/>
	<path class="st1" d="M-17.3,429.1h-1.2v3.4h-1.3v-10.4h3c0.9,0.1,1.6,0.5,2.2,1c0.7,0.7,1,1.5,1,2.5c0,0.9-0.4,1.8-1,2.5
		c-0.5,0.5-0.9,0.8-1.2,0.8l2.4,3.6H-15L-17.3,429.1z M-18.5,423.2v4.7h1.3c0.6,0,1.1-0.2,1.6-0.7c0.5-0.5,0.7-1,0.7-1.7
		c0-0.7-0.2-1.2-0.7-1.7c-0.5-0.5-1-0.7-1.6-0.7L-18.5,423.2L-18.5,423.2z"/>
	<path class="st1" d="M-112.9,443.6c0.2,0.2,0.3,0.4,0.3,0.6s-0.1,0.5-0.3,0.6c-0.2,0.2-0.4,0.3-0.7,0.3c-0.3,0-0.5-0.1-0.7-0.3
		c-0.2-0.2-0.3-0.4-0.3-0.6s0.1-0.4,0.3-0.6c0.2-0.2,0.4-0.3,0.7-0.3C-113.3,443.4-113.1,443.4-112.9,443.6z"/>
	<path class="st2" d="M-101.3,440.2v0.8h-3.1v2.5h3.1v0.8h-3.1v2.5h3.1v0.8h-4.1v-7.5L-101.3,440.2L-101.3,440.2z"/>
	<path class="st2" d="M-94.4,447.8v-7.5h0.9v6.7h2.7v0.8L-94.4,447.8L-94.4,447.8z"/>
	<path class="st2" d="M-80.1,440.2v0.8h-3.1v2.5h3.1v0.8h-3.1v2.5h3.1v0.8h-4.1v-7.5L-80.1,440.2L-80.1,440.2L-80.1,440.2z
		 M-80.4,438.3l-1.6,1.2h-1l1.1-1.2H-80.4z"/>
	<path class="st2" d="M-71,441v6.7h-0.9V441h-1.8v-0.8h4.5v0.8L-71,441L-71,441z"/>
	<path class="st2" d="M-60.9,445.3h-0.9v2.5h-0.9v-7.5h2.2c0.6,0.1,1.1,0.3,1.6,0.8c0.5,0.5,0.8,1.1,0.8,1.8c0,0.7-0.3,1.3-0.8,1.8
		c-0.3,0.3-0.6,0.5-0.9,0.6l1.7,2.6h-1.1L-60.9,445.3z M-61.8,441v3.4h0.9c0.4,0,0.8-0.2,1.1-0.5c0.3-0.3,0.5-0.7,0.5-1.2
		c0-0.5-0.2-0.9-0.5-1.2c-0.3-0.3-0.7-0.5-1.1-0.5L-61.8,441L-61.8,441z"/>
	<path class="st2" d="M-50.6,440.2v7.5h-0.9v-7.5C-51.6,440.2-50.6,440.2-50.6,440.2z"/>
	<path class="st2" d="M-37.9,446.1l0.7,0.6c-0.8,0.8-1.8,1.1-2.8,1.1c-1.1,0-2-0.4-2.8-1.1c-0.8-0.8-1.1-1.7-1.1-2.7
		c0-1,0.4-2,1.1-2.7c0.8-0.8,1.7-1.1,2.8-1.1c1,0,2,0.4,2.8,1.1l-0.7,0.6c-0.7-0.6-1.4-0.9-2.1-0.9c-0.8,0-1.5,0.3-2.1,0.9
		c-0.6,0.6-0.9,1.3-0.9,2.1c0,0.9,0.3,1.6,0.9,2.2c0.6,0.6,1.3,0.9,2.1,0.9C-39.3,447-38.6,446.7-37.9,446.1z"/>
	<path class="st2" d="M-24.2,441.2c0.8,0.8,1.1,1.7,1.1,2.7c0,1-0.4,2-1.1,2.7c-0.8,0.8-1.7,1.1-2.8,1.1c-1.1,0-2-0.4-2.8-1.1
		c-0.8-0.8-1.1-1.7-1.1-2.7c0-1,0.4-2,1.1-2.7c0.8-0.8,1.7-1.1,2.8-1.1C-25.9,440.1-25,440.5-24.2,441.2z M-27,441
		c-0.8,0-1.5,0.3-2.1,0.9c-0.6,0.6-0.9,1.3-0.9,2.2c0,0.9,0.3,1.6,0.9,2.2c0.6,0.6,1.3,0.9,2.1,0.9c0.8,0,1.5-0.3,2.1-0.9
		c0.6-0.6,0.9-1.3,0.9-2.2c0-0.8-0.3-1.6-0.9-2.2C-25.5,441.2-26.2,441-27,441z"/>
	<path class="st1" d="M-14.4,443.6c0.2,0.2,0.3,0.4,0.3,0.6s-0.1,0.5-0.3,0.6c-0.2,0.2-0.4,0.3-0.7,0.3s-0.5-0.1-0.7-0.3
		c-0.2-0.2-0.3-0.4-0.3-0.6s0.1-0.4,0.3-0.6c0.2-0.2,0.4-0.3,0.7-0.3S-14.6,443.4-14.4,443.6z"/>
</g>
<path class="st2" d="M-128.4,408.6c2.4-2,6-1.6,7.9,0.9c2,2.4,1.6,6-0.9,7.9c-2.4,2-22.4,10.8-22.4,10.8S-130.8,410.5-128.4,408.6z"
	/>
<g>
	<path class="st3" d="M-121.3,414.2c0,0.1-2.8-1.2-2.9-1.2c-0.1,0-0.6,1.4-0.8,1.5c-0.2,0.1-3.4-2.7-3.3-2.8
		c0.1-0.1,2.8,1.2,2.9,1.2c0.1,0,0.6-1.5,0.8-1.5C-124.4,411.3-121.3,414.1-121.3,414.2z"/>
</g>
<path class="st0" d="M-140.4,386.6l-1.2-1.6c-5.4,4.1-9.6,9.7-11.9,16.2l1.9,0.6C-149.4,395.7-145.5,390.5-140.4,386.6z"/>
<path class="st4" d="M-153.6,413.2c0-3.3,0.5-6.5,1.4-9.5l-1.9-0.6c-0.9,3.2-1.5,6.6-1.5,10.1s0.5,6.9,1.5,10.1l1.9-0.6
	C-153.1,419.6-153.6,416.5-153.6,413.2z"/>
<path class="st2" d="M-151.6,424.6l-1.9,0.6c2.4,6.5,6.5,12.1,11.9,16.2l1.2-1.6C-145.5,435.9-149.4,430.6-151.6,424.6z"/>
<path class="st5" d="M-120.9,446.6c-6.6-0.1-12.8-2.2-17.9-5.7l-1.2,1.6c5.5,3.7,12,5.9,19.1,6.1c0.2,0,0.5,0,0.7,0
	c0.4,0,0.9,0,1.3,0v-2c-0.4,0-0.9,0-1.3,0C-120.4,446.6-120.7,446.6-120.9,446.6z"/>
<path class="st6" d="M-120.9,377.7c-7.1,0.1-13.6,2.4-19.1,6.1l1.2,1.6c5.1-3.5,11.3-5.5,17.9-5.7c0.2,0,0.5,0,0.7,0
	c0.4,0,0.9,0,1.3,0v-2c-0.4,0-0.9,0-1.3,0C-120.4,377.7-120.7,377.7-120.9,377.7z"/>
</svg>
