<?xml version="1.0" encoding="utf-8"?>
<!-- Generator: Adobe Illustrator 16.0.0, SVG Export Plug-In . SVG Version: 6.00 Build 0)  -->
<!DOCTYPE svg PUBLIC "-//W3C//DTD SVG 1.1//EN" "http://www.w3.org/Graphics/SVG/1.1/DTD/svg11.dtd">
<svg version="1.1" id="Layer_1" xmlns="http://www.w3.org/2000/svg" xmlns:xlink="http://www.w3.org/1999/xlink" x="0px" y="0px"
	 width="351.5px" height="61.5px" viewBox="0 0 351.5 61.5" enable-background="new 0 0 351.5 61.5" xml:space="preserve">
<g>
	<path fill="#004C99" d="M30.027,27.875c1.747-0.75,3.622,0.125,4.371,1.873c0.752,1.75-0.122,3.747-1.87,4.374
		c-1.751,0.75-3.625-0.124-4.374-1.875C27.529,30.626,28.403,28.627,30.027,27.875"/>
	<path fill="#004C99" d="M38.273,39.994c-0.626-0.875-0.378-2.123,0.375-2.748c0.872-0.626,2.122-0.375,2.745,0.371
		c0.623,0.875,0.375,2.125-0.375,2.748C40.144,40.994,38.896,40.87,38.273,39.994"/>
	<path fill="#004C99" d="M43.392,40.245c-0.5-0.625-0.375-1.623,0.375-2.124c0.626-0.501,1.625-0.375,2.125,0.375
		c0.498,0.623,0.375,1.623-0.375,2.124C44.765,40.994,43.767,40.87,43.392,40.245"/>
	<path fill="#004C99" d="M47.018,39.621c-0.375-0.501-0.375-1.374,0.371-1.875c0.5-0.375,1.376-0.375,1.877,0.375
		c0.374,0.501,0.374,1.372-0.375,1.872C48.136,40.245,47.388,40.245,47.018,39.621"/>
	<path fill="#004C99" d="M50.264,38.247c-0.375-0.375-0.251-1.125,0.249-1.501c0.375-0.375,1.127-0.249,1.498,0.251
		c0.375,0.375,0.251,1.125-0.249,1.5C51.26,38.871,50.637,38.745,50.264,38.247"/>
	<path fill="#004C99" d="M52.889,36.623c-0.375-0.375-0.253-1,0.249-1.25c0.375-0.375,0.997-0.251,1.247,0.25
		c0.379,0.372,0.252,1-0.249,1.247C53.761,37.121,53.138,36.997,52.889,36.623"/>
	<path fill="#004C99" d="M54.511,34.747c-0.375-0.375-0.249-1.001,0.249-1.127c0.375-0.371,0.875-0.249,1.124,0.251
		c0.375,0.374,0.249,1-0.249,1.125C55.259,35.122,54.759,35.122,54.511,34.747"/>
	<path fill="#004C99" d="M55.883,32.748c-0.249-0.375-0.249-0.751,0.126-1.126c0.375-0.25,0.748-0.25,0.997,0.125
		c0.251,0.375,0.251,0.749-0.122,1.125C56.632,33.124,56.009,32.998,55.883,32.748"/>
	<path fill="#004C99" d="M56.884,30.875C56.632,30.5,56.757,30.25,57.01,30c0.375-0.25,0.623-0.125,0.872,0.125
		c0.251,0.375,0.126,0.625-0.122,0.874C57.507,31.123,57.132,31.123,56.884,30.875"/>
	<path fill="#004C99" d="M57.507,29c-0.249-0.251-0.126-0.5,0.126-0.75c0.249-0.251,0.497-0.125,0.746,0.123
		c0.251,0.251,0.126,0.5-0.122,0.75C58.008,29.374,57.633,29.374,57.507,29"/>
	<path fill="#004C99" d="M57.633,27.626c-0.126-0.251-0.126-0.501,0.123-0.625c0.248-0.124,0.5-0.124,0.623,0.125
		c0.126,0.25,0.126,0.5-0.122,0.625C58.008,27.875,57.882,27.875,57.633,27.626"/>
	<path fill="#004C99" d="M57.882,26.378c-0.126-0.25-0.126-0.375,0.122-0.501c0.252-0.125,0.375-0.125,0.5,0.125
		c0.125,0.25,0.126,0.375-0.126,0.5C58.13,26.503,58.008,26.503,57.882,26.378"/>
	<path fill="#004C99" d="M58.008,25.003c-0.126-0.124-0.126-0.373,0.126-0.373c0.126-0.125,0.375-0.125,0.375,0.124
		c0.126,0.124,0.126,0.376-0.126,0.376C58.257,25.129,58.13,25.129,58.008,25.003"/>
	<path fill="#004C99" d="M58.008,24.003c-0.126-0.124,0-0.249,0-0.374c0.126-0.125,0.251,0,0.375,0c0.126,0.125,0,0.25,0,0.374
		C58.13,24.13,58.13,24.13,58.008,24.003"/>
	<path fill="#004C99" d="M57.882,23.13c-0.126-0.125,0-0.249,0-0.249c0.122-0.126,0.249,0,0.249,0c0.126,0.123,0,0.249,0,0.249
		C58.13,23.255,58.008,23.255,57.882,23.13"/>
	<path fill="#004C99" d="M41.145,36.623c-0.997-0.501-1.125-1.876-0.624-2.626c0.5-1,1.75-1.249,2.623-0.625
		c0.999,0.5,1.125,1.874,0.624,2.624C43.266,36.872,42.143,37.247,41.145,36.623"/>
	<path fill="#004C99" d="M45.889,34.874c-0.749-0.376-0.998-1.375-0.497-2.125c0.375-0.751,1.374-1,1.995-0.499
		c0.749,0.375,1.001,1.371,0.5,2.124C47.515,35.122,46.517,35.247,45.889,34.874"/>
	<path fill="#004C99" d="M49.013,32.875c-0.624-0.377-0.876-1.126-0.375-1.876c0.375-0.623,1.128-0.874,1.874-0.375
		c0.628,0.375,0.876,1.125,0.375,1.873C50.385,32.998,49.64,33.249,49.013,32.875"/>
	<path fill="#004C99" d="M51.64,30.375c-0.501-0.375-0.628-1-0.379-1.499c0.252-0.5,1.001-0.625,1.499-0.376
		c0.501,0.376,0.627,1,0.375,1.5C52.763,30.626,52.137,30.749,51.64,30.375"/>
	<path fill="#004C99" d="M53.26,27.875c-0.375-0.25-0.501-0.873-0.375-1.248c0.25-0.377,0.875-0.5,1.124-0.377
		c0.375,0.25,0.501,0.874,0.375,1.25C54.262,27.875,53.761,28.001,53.26,27.875"/>
	<path fill="#004C99" d="M54.136,25.505c-0.375-0.25-0.5-0.75-0.375-1.125c0.249-0.376,0.75-0.499,1.125-0.376
		c0.375,0.126,0.5,0.75,0.375,1.126C55.137,25.627,54.511,25.753,54.136,25.505"/>
	<path fill="#004C99" d="M54.637,23.13c-0.375-0.249-0.375-0.624-0.252-0.999c0.252-0.375,0.627-0.375,0.999-0.25
		c0.375,0.123,0.375,0.624,0.251,1C55.385,23.255,55.01,23.38,54.637,23.13"/>
	<path fill="#004C99" d="M54.886,20.88c-0.375-0.249-0.375-0.5-0.249-0.874c0.123-0.374,0.5-0.374,0.872-0.249
		c0.375,0.125,0.375,0.5,0.249,0.876C55.508,21.006,55.259,21.132,54.886,20.88"/>
	<path fill="#004C99" d="M54.759,19.133c-0.249-0.125-0.375-0.375-0.249-0.75c0.126-0.249,0.375-0.374,0.624-0.249
		c0.251,0.124,0.375,0.373,0.251,0.75C55.259,19.133,55.01,19.258,54.759,19.133"/>
	<path fill="#004C99" d="M54.384,17.633c-0.249-0.123-0.375-0.373-0.123-0.624c0.123-0.251,0.375-0.375,0.624-0.124
		c0.249,0.124,0.375,0.375,0.126,0.625C54.759,17.76,54.511,17.76,54.384,17.633"/>
	<path fill="#004C99" d="M54.009,16.385c-0.249-0.125-0.249-0.376-0.122-0.5c0.122-0.125,0.375-0.25,0.497-0.125
		c0.252,0.125,0.252,0.374,0.126,0.5C54.511,16.385,54.262,16.51,54.009,16.385"/>
	<path fill="#004C99" d="M53.761,15.135c-0.126-0.125-0.252-0.249-0.126-0.375c0.126-0.124,0.249-0.25,0.375-0.124
		c0.126,0.124,0.252,0.251,0.126,0.375C54.009,15.135,53.883,15.135,53.761,15.135"/>
	<path fill="#004C99" d="M53.26,14.136c-0.125-0.125-0.125-0.249-0.125-0.373c0.125-0.126,0.251-0.126,0.374-0.126
		c0.125,0.126,0.125,0.249,0.125,0.375C53.508,14.136,53.386,14.26,53.26,14.136"/>
	<path fill="#004C99" d="M52.889,13.386c-0.126,0-0.126-0.124-0.126-0.251c0-0.124,0.126-0.124,0.249-0.124
		c0.126,0,0.126,0.124,0.126,0.252C53.138,13.386,53.011,13.386,52.889,13.386"/>
	<path fill="#004C99" d="M42.269,27.875c-1.124,0.25-2.125-0.375-2.374-1.375c-0.25-1.125,0.375-2.124,1.376-2.373
		c1.125-0.25,2.122,0.374,2.375,1.375C43.767,26.628,43.144,27.752,42.269,27.875"/>
	<path fill="#004C99" d="M44.269,23.38c-0.876,0.25-1.625-0.375-1.877-1.126c-0.249-0.873,0.375-1.623,1.127-1.874
		c0.872-0.249,1.622,0.375,1.873,1.125C45.64,22.254,45.143,23.13,44.269,23.38"/>
	<path fill="#004C99" d="M45.143,19.632c-0.623,0.25-1.376-0.252-1.625-0.999c-0.249-0.749,0.249-1.375,1.001-1.625
		c0.623-0.251,1.373,0.251,1.621,1C46.268,18.757,45.889,19.507,45.143,19.632"/>
	<path fill="#004C99" d="M45.143,16.135c-0.501,0.125-1.125-0.25-1.25-0.75c-0.126-0.499,0.249-1.125,0.749-1.25
		c0.501-0.123,1.127,0.25,1.249,0.75C46.141,15.384,45.889,15.884,45.143,16.135"/>
	<path fill="#004C99" d="M44.642,13.011c-0.374,0.125-1-0.248-1.124-0.623c-0.126-0.499,0.249-1,0.624-1.126
		c0.375-0.124,0.998,0.252,1.125,0.627C45.392,12.388,45.143,12.886,44.642,13.011"/>
	<path fill="#004C99" d="M43.642,10.762c-0.376,0.127-0.999-0.25-1.125-0.623c-0.126-0.376,0.249-1.001,0.626-1.126
		c0.375-0.124,0.999,0.251,1.125,0.625C44.391,10.262,44.02,10.638,43.642,10.762"/>
	<path fill="#004C99" d="M42.269,8.763c-0.375,0.126-0.75-0.125-0.875-0.499c-0.123-0.375,0.126-0.75,0.501-0.875
		c0.375-0.125,0.75,0.125,0.872,0.5C42.893,8.264,42.644,8.641,42.269,8.763"/>
	<path fill="#004C99" d="M40.896,7.016c-0.379,0.125-0.628-0.124-0.752-0.375c-0.123-0.25,0.126-0.625,0.378-0.75
		c0.249-0.123,0.624,0.125,0.749,0.375C41.393,6.516,41.271,6.892,40.896,7.016"/>
	<path fill="#004C99" d="M39.52,5.768c-0.374,0.125-0.5-0.127-0.623-0.377c-0.126-0.375,0.122-0.498,0.375-0.623
		c0.375-0.125,0.5,0.125,0.624,0.375C40.02,5.391,39.771,5.64,39.52,5.768"/>
	<path fill="#004C99" d="M38.273,5.018c-0.251,0.125-0.5-0.125-0.5-0.375c-0.126-0.25,0.122-0.5,0.374-0.5
		c0.249-0.126,0.501,0.124,0.501,0.375C38.648,4.767,38.521,5.018,38.273,5.018"/>
	<path fill="#004C99" d="M37.146,4.393c-0.249,0-0.375-0.125-0.375-0.376c0-0.249,0.126-0.375,0.375-0.375
		c0.252,0,0.375,0.126,0.375,0.375C37.398,4.143,37.272,4.393,37.146,4.393"/>
	<path fill="#004C99" d="M36.022,3.77c-0.123,0-0.375-0.125-0.375-0.25c0-0.126,0.127-0.376,0.253-0.376
		c0.123,0,0.375,0.124,0.375,0.251C36.273,3.519,36.147,3.77,36.022,3.77"/>
	<path fill="#004C99" d="M35.024,3.394c-0.126,0-0.251,0-0.375-0.251c0-0.125,0-0.249,0.249-0.375c0.126,0,0.251,0,0.375,0.25
		C35.273,3.269,35.149,3.394,35.024,3.394"/>
	<path fill="#004C99" d="M34.274,3.269c-0.126,0-0.252,0-0.252-0.124c0-0.125,0-0.249,0.126-0.249c0.126,0,0.249,0,0.249,0.124
		C34.397,3.144,34.274,3.142,34.274,3.269"/>
	<path fill="#004C99" d="M40.144,24.003c-0.873,0.627-2.122,0.376-2.746-0.374c-0.627-0.874-0.378-2.123,0.375-2.748
		c0.872-0.625,2.122-0.376,2.749,0.375C41.271,22.13,41.018,23.38,40.144,24.003"/>
	<path fill="#004C99" d="M40.396,18.881c-0.627,0.5-1.626,0.375-2.123-0.374c-0.5-0.625-0.378-1.625,0.375-2.125
		c0.623-0.499,1.62-0.376,2.122,0.375C41.145,17.383,41.018,18.383,40.396,18.881"/>
	<path fill="#004C99" d="M39.771,15.135c-0.5,0.377-1.376,0.377-1.876-0.375c-0.374-0.499-0.374-1.375,0.378-1.873
		c0.497-0.375,1.373-0.375,1.871,0.375C40.521,14.011,40.396,14.76,39.771,15.135"/>
	<path fill="#004C99" d="M38.521,11.887c-0.375,0.375-1.124,0.25-1.502-0.25c-0.371-0.375-0.249-1.125,0.252-1.5
		c0.5-0.376,1.123-0.25,1.498,0.25C39.146,10.762,39.02,11.514,38.521,11.887"/>
	<path fill="#004C99" d="M36.771,9.265c-0.375,0.374-0.997,0.25-1.247-0.251c-0.375-0.374-0.252-1,0.249-1.248
		c0.375-0.376,1.001-0.25,1.25,0.249C37.272,8.514,37.146,9.014,36.771,9.265"/>
	<path fill="#004C99" d="M35.024,7.641c-0.375,0.372-0.875,0.25-1.125-0.251c-0.375-0.375-0.251-0.998,0.25-1.124
		c0.375-0.375,0.875-0.251,1.124,0.25C35.525,6.765,35.397,7.265,35.024,7.641"/>
	<path fill="#004C99" d="M33.025,6.142c-0.375,0.25-0.75,0.25-0.999-0.125c-0.251-0.375-0.251-0.749,0.123-1.125
		c0.379-0.25,0.752-0.25,1,0.124C33.398,5.39,33.398,6.017,33.025,6.142"/>
	<path fill="#004C99" d="M31.152,5.14c-0.377,0.25-0.625,0.128-0.874-0.122c-0.251-0.375-0.125-0.624,0.123-0.874
		c0.374-0.25,0.623-0.126,0.872,0.125C31.4,4.643,31.4,4.892,31.152,5.14"/>
	<path fill="#004C99" d="M29.277,4.517c-0.252,0.25-0.501,0.124-0.75-0.125c-0.249-0.25-0.126-0.499,0.122-0.749
		c0.251-0.251,0.5-0.125,0.749,0.124C29.652,4.016,29.652,4.393,29.277,4.517"/>
	<path fill="#004C99" d="M27.906,4.393c-0.253,0.125-0.501,0.125-0.628-0.125c-0.122-0.251-0.122-0.5,0.126-0.626
		c0.249-0.123,0.501-0.123,0.624,0.126C28.154,4.019,28.154,4.143,27.906,4.393"/>
	<path fill="#004C99" d="M26.655,4.143c-0.252,0.125-0.375,0.125-0.501-0.126c-0.126-0.249-0.126-0.374,0.126-0.5
		c0.249-0.125,0.375-0.125,0.497,0.125C26.903,3.895,26.778,4.019,26.655,4.143"/>
	<path fill="#004C99" d="M25.405,4.019c-0.122,0.126-0.375,0.126-0.375-0.124C24.908,3.77,24.908,3.52,25.156,3.52
		c0.126-0.125,0.375-0.125,0.375,0.125C25.531,3.77,25.531,4.019,25.405,4.019"/>
	<path fill="#004C99" d="M24.406,4.019c-0.126,0.126-0.251,0-0.375,0c-0.126-0.124,0-0.249,0-0.374c0.122-0.125,0.249,0,0.375,0
		C24.529,3.895,24.529,4.019,24.406,4.019"/>
	<path fill="#004C99" d="M23.532,4.143c-0.127,0.125-0.249,0-0.249,0c-0.126-0.126,0-0.25,0-0.25c0.122-0.125,0.249,0,0.249,0
		S23.532,4.019,23.532,4.143"/>
	<path fill="#004C99" d="M36.897,21.132c-0.5,0.998-1.747,1.249-2.623,0.625c-0.998-0.5-1.125-1.874-0.624-2.624
		c0.499-0.999,1.747-1.249,2.623-0.624C37.146,19.006,37.398,20.133,36.897,21.132"/>
	<path fill="#004C99" d="M35.024,16.259c-0.375,0.75-1.376,1-2,0.499c-0.75-0.375-0.999-1.375-0.502-2.123
		c0.379-0.75,1.376-0.999,2-0.5C35.273,14.635,35.525,15.634,35.024,16.259"/>
	<path fill="#004C99" d="M33.149,13.135c-0.374,0.625-1.125,0.873-1.873,0.376c-0.622-0.376-0.875-1.125-0.373-1.873
		c0.375-0.626,1.123-0.874,1.873-0.375C33.398,11.638,33.525,12.511,33.149,13.135"/>
	<path fill="#004C99" d="M30.655,10.512c-0.375,0.499-1.001,0.624-1.502,0.375c-0.501-0.375-0.625-0.999-0.376-1.5
		c0.375-0.501,1-0.625,1.501-0.375C30.775,9.388,31.025,10.014,30.655,10.512"/>
	<path fill="#004C99" d="M28.154,8.763c-0.249,0.375-0.876,0.501-1.125,0.375c-0.375-0.251-0.5-0.874-0.375-1.248
		c0.248-0.375,0.875-0.5,1.125-0.375C28.279,7.766,28.403,8.391,28.154,8.763"/>
	<path fill="#004C99" d="M25.905,7.892c-0.251,0.375-0.749,0.499-1.123,0.375c-0.375-0.251-0.501-0.748-0.375-1.124
		c0.249-0.375,0.75-0.5,1.125-0.375C26.028,7.016,26.153,7.517,25.905,7.892"/>
	<path fill="#004C99" d="M23.405,7.39c-0.249,0.375-0.623,0.375-0.998,0.251c-0.375-0.251-0.375-0.626-0.251-1.002
		c0.251-0.373,0.624-0.373,1-0.248C23.532,6.641,23.654,7.016,23.405,7.39"/>
	<path fill="#004C99" d="M21.283,7.141c-0.252,0.376-0.501,0.376-0.875,0.25c-0.375-0.125-0.375-0.5-0.249-0.874
		c0.249-0.375,0.497-0.375,0.872-0.25C21.406,6.516,21.532,6.892,21.283,7.141"/>
	<path fill="#004C99" d="M19.536,7.265c-0.125,0.251-0.375,0.376-0.625,0.251c-0.249-0.126-0.375-0.377-0.249-0.75
		c0.122-0.25,0.374-0.375,0.623-0.25C19.536,6.765,19.659,7.016,19.536,7.265"/>
	<path fill="#004C99" d="M18.16,7.641c-0.126,0.25-0.375,0.372-0.624,0.124c-0.249-0.124-0.374-0.375-0.125-0.625
		c0.125-0.248,0.375-0.375,0.623-0.125C18.16,7.141,18.287,7.517,18.16,7.641"/>
	<path fill="#004C99" d="M16.787,8.014c-0.126,0.251-0.375,0.377-0.501,0.251c-0.249-0.125-0.249-0.375-0.126-0.5
		c0.126-0.25,0.375-0.25,0.5-0.125C16.787,7.641,16.914,7.892,16.787,8.014"/>
	<path fill="#004C99" d="M15.538,8.391c-0.126,0.125-0.249,0.25-0.375,0.125c-0.126-0.125-0.126-0.375,0-0.375
		c0.126-0.126,0.249-0.25,0.375-0.126C15.66,8.141,15.66,8.264,15.538,8.391"/>
	<path fill="#004C99" d="M14.661,8.763c-0.122,0.125-0.249,0.125-0.371,0.125c-0.126-0.125-0.126-0.25-0.126-0.375
		c0.126-0.125,0.248-0.125,0.375-0.125C14.661,8.514,14.661,8.641,14.661,8.763"/>
	<path fill="#004C99" d="M13.913,9.141c-0.122,0.125-0.249,0.125-0.249,0.125c-0.126,0-0.126-0.125-0.126-0.251
		c0-0.126,0.126-0.126,0.252-0.126C13.913,9.014,13.913,9.141,13.913,9.141"/>
	<path fill="#004C99" d="M32.65,19.758c-0.122,1.125-1.125,1.873-2.248,1.749c-1.125-0.125-1.873-1.124-1.622-2.248
		c0.126-1.124,1.125-1.875,2.248-1.748C32.026,17.633,32.776,18.633,32.65,19.758"/>
	<path fill="#004C99" d="M29.151,16.009c-0.126,0.873-0.873,1.374-1.747,1.25c-0.875-0.126-1.376-0.875-1.251-1.748
		c0.126-0.874,0.876-1.375,1.751-1.25C28.776,14.386,29.277,15.135,29.151,16.009"/>
	<path fill="#004C99" d="M26.28,13.763c-0.126,0.748-0.75,1.124-1.498,1.124c-0.75-0.126-1.125-0.75-1.125-1.5
		c0.126-0.749,0.749-1.125,1.498-1.125C25.905,12.262,26.28,13.011,26.28,13.763"/>
	<path fill="#004C99" d="M23.031,12.262c-0.127,0.501-0.624,1-1.124,0.873c-0.501-0.125-0.999-0.624-0.876-1.125
		c0.126-0.5,0.628-0.999,1.127-0.873C22.656,11.265,23.157,11.764,23.031,12.262"/>
	<path fill="#004C99" d="M19.911,11.764c-0.127,0.5-0.501,0.873-1.127,0.748c-0.497-0.123-0.872-0.5-0.75-1.123
		c0.126-0.5,0.501-0.874,1.127-0.748C19.784,10.762,20.033,11.265,19.911,11.764"/>
	<path fill="#004C99" d="M17.536,11.887c-0.125,0.375-0.5,0.749-1,0.749c-0.497-0.124-0.875-0.499-0.749-1.124
		c0.126-0.375,0.5-0.75,1.001-0.75C17.288,10.889,17.536,11.265,17.536,11.887"/>
	<path fill="#004C99" d="M15.163,12.262c-0.126,0.374-0.375,0.625-0.872,0.625c-0.378-0.123-0.626-0.375-0.626-0.874
		c0.126-0.373,0.375-0.625,0.875-0.625C14.914,11.514,15.289,11.887,15.163,12.262"/>
	<path fill="#004C99" d="M13.163,12.886c0,0.376-0.375,0.5-0.624,0.5c-0.249,0-0.501-0.375-0.501-0.749s0.375-0.498,0.624-0.498
		C12.915,12.138,13.163,12.511,13.163,12.886"/>
	<path fill="#004C99" d="M11.415,13.636c0,0.375-0.375,0.375-0.5,0.375c-0.375,0-0.375-0.375-0.375-0.499
		c0-0.375,0.375-0.375,0.5-0.375C11.29,13.135,11.415,13.386,11.415,13.636"/>
	<path fill="#004C99" d="M10.288,14.635c0,0.251-0.371,0.375-0.498,0.375c-0.249,0-0.375-0.375-0.375-0.5
		c0-0.25,0.375-0.375,0.5-0.375C10.166,14.136,10.288,14.386,10.288,14.635"/>
	<path fill="#004C99" d="M9.293,15.384c0,0.251-0.251,0.377-0.375,0.377c-0.126,0-0.379-0.25-0.379-0.377
		c0-0.125,0.251-0.375,0.379-0.375C9.167,15.011,9.293,15.262,9.293,15.384"/>
	<path fill="#004C99" d="M8.166,16.259c0,0.25-0.249,0.374-0.375,0.25c-0.125,0-0.375-0.25-0.249-0.375
		c0-0.25,0.249-0.375,0.375-0.25C8.166,15.884,8.166,16.135,8.166,16.259"/>
	<path fill="#004C99" d="M7.542,17.009c0,0.123-0.126,0.251-0.249,0.251c-0.126,0-0.252-0.126-0.252-0.251
		c0-0.126,0.126-0.251,0.252-0.251C7.417,16.634,7.542,16.882,7.542,17.009"/>
	<path fill="#004C99" d="M7.042,17.633c0,0.127-0.122,0.127-0.249,0.127s-0.126-0.127-0.126-0.25c0-0.126,0.126-0.126,0.251-0.126
		C6.919,17.51,7.042,17.51,7.042,17.633"/>
	<path fill="#004C99" d="M28.279,20.006c0.249,1.126-0.375,2.124-1.376,2.375c-1.124,0.25-2.121-0.375-2.374-1.375
		c-0.249-1.124,0.379-2.121,1.376-2.373C27.029,18.383,28.028,19.006,28.279,20.006"/>
	<path fill="#004C99" d="M23.654,17.882c0.251,0.874-0.371,1.625-1.12,1.873c-0.875,0.249-1.625-0.375-1.877-1.125
		c-0.249-0.875,0.375-1.623,1.127-1.875C22.656,16.634,23.405,17.009,23.654,17.882"/>
	<path fill="#004C99" d="M20.033,17.009c0.251,0.75-0.25,1.374-0.998,1.625c-0.627,0.25-1.375-0.252-1.624-1
		c-0.249-0.748,0.249-1.374,0.997-1.624C19.161,15.884,19.911,16.259,20.033,17.009"/>
	<path fill="#004C99" d="M16.535,17.009c0.126,0.501-0.249,1.125-0.749,1.248c-0.498,0.125-1.125-0.251-1.247-0.748
		c-0.127-0.5,0.249-1.125,0.75-1.25C15.913,16.009,16.412,16.385,16.535,17.009"/>
	<path fill="#004C99" d="M13.538,17.633c0.126,0.5-0.249,1-0.624,1.125c-0.375,0.126-0.997-0.25-1.125-0.625
		c-0.126-0.5,0.249-1,0.623-1.125C12.915,16.758,13.412,17.009,13.538,17.633"/>
	<path fill="#004C99" d="M11.29,18.507c0.126,0.374-0.249,1-0.624,1.125c-0.375,0.123-0.998-0.252-1.125-0.625
		c-0.126-0.374,0.249-0.998,0.624-1.125C10.79,17.882,11.167,18.133,11.29,18.507"/>
	<path fill="#004C99" d="M9.293,19.882c0.122,0.374-0.126,0.749-0.501,0.873c-0.375,0.124-0.748-0.124-0.875-0.5
		c-0.126-0.375,0.127-0.75,0.5-0.874C8.918,19.258,9.167,19.507,9.293,19.882"/>
	<path fill="#004C99" d="M7.542,21.381c0.126,0.375-0.126,0.624-0.375,0.749c-0.375,0.125-0.624-0.125-0.748-0.375
		c-0.127-0.376,0.125-0.625,0.374-0.75C7.294,20.756,7.542,21.006,7.542,21.381"/>
	<path fill="#004C99" d="M6.42,22.755c0.125,0.375-0.127,0.5-0.375,0.625c-0.375,0-0.627-0.124-0.627-0.375
		c-0.123-0.375,0.125-0.5,0.378-0.623C5.918,22.254,6.293,22.381,6.42,22.755"/>
	<path fill="#004C99" d="M5.67,24.003c0.126,0.251-0.127,0.5-0.375,0.5c-0.251,0.126-0.5-0.125-0.5-0.375
		c-0.126-0.25,0.126-0.499,0.375-0.499C5.294,23.504,5.67,23.755,5.67,24.003"/>
	<path fill="#004C99" d="M5.042,25.129c0,0.249-0.122,0.375-0.374,0.375c-0.249,0-0.375-0.126-0.375-0.375
		c0-0.25,0.126-0.376,0.375-0.376C4.793,24.877,5.042,25.003,5.042,25.129"/>
	<path fill="#004C99" d="M4.42,26.378c0,0.125-0.123,0.375-0.249,0.375c-0.126,0-0.375-0.125-0.375-0.25
		c0-0.125,0.126-0.375,0.249-0.375C4.172,26.003,4.42,26.128,4.42,26.378"/>
	<path fill="#004C99" d="M4.044,27.252c0,0.124,0,0.25-0.249,0.375c-0.125,0-0.25,0-0.374-0.25c0-0.123,0-0.25,0.249-0.374
		C3.795,27.001,3.922,27.126,4.044,27.252"/>
	<path fill="#004C99" d="M3.795,28.001c0,0.125,0,0.25-0.125,0.25c-0.123,0-0.249,0-0.249-0.125c0-0.125,0-0.25,0.125-0.25
		C3.671,27.875,3.795,27.875,3.795,28.001"/>
	<path fill="#004C99" d="M24.406,22.13c0.624,0.874,0.375,2.125-0.375,2.749c-0.875,0.625-2.125,0.375-2.749-0.376
		c-0.626-0.874-0.375-2.123,0.374-2.748C22.534,21.006,23.781,21.257,24.406,22.13"/>
	<path fill="#004C99" d="M19.283,21.879c0.5,0.625,0.375,1.624-0.375,2.121c-0.75,0.501-1.622,0.376-2.122-0.372
		c-0.501-0.625-0.375-1.625,0.375-2.125C17.912,21.006,18.784,21.257,19.283,21.879"/>
	<path fill="#004C99" d="M15.66,22.504c0.377,0.5,0.377,1.375-0.371,1.876c-0.501,0.375-1.376,0.375-1.877-0.376
		c-0.375-0.499-0.375-1.373,0.379-1.873C14.412,21.755,15.289,21.879,15.66,22.504"/>
	<path fill="#004C99" d="M12.413,23.755c0.375,0.375,0.249,1.125-0.249,1.5c-0.375,0.374-1.124,0.25-1.498-0.251
		c-0.378-0.373-0.252-1.125,0.249-1.497C11.29,23.13,12.039,23.255,12.413,23.755"/>
	<path fill="#004C99" d="M9.791,25.505c0.375,0.375,0.249,0.998-0.249,1.248c-0.5,0.25-1.001,0.25-1.25-0.25
		c-0.375-0.375-0.248-0.998,0.249-1.249C8.918,25.003,9.542,25.003,9.791,25.505"/>
	<path fill="#004C99" d="M8.166,27.252c0.375,0.375,0.251,0.999-0.249,1.125c-0.375,0.375-0.876,0.251-1.125-0.25
		c-0.249-0.375-0.126-0.873,0.249-1.124C7.417,26.877,7.917,26.877,8.166,27.252"/>
	<path fill="#004C99" d="M6.793,29.374c0.249,0.377,0.249,0.75-0.126,1.126c-0.375,0.25-0.748,0.25-0.998-0.125
		C5.417,30,5.417,29.626,5.794,29.25C6.044,28.876,6.544,29,6.793,29.374"/>
	<path fill="#004C99" d="M5.796,31.25c0.249,0.375,0.123,0.625-0.126,0.874c-0.375,0.25-0.626,0.125-0.875-0.127
		c-0.249-0.375-0.126-0.623,0.126-0.874C5.169,30.875,5.543,30.875,5.796,31.25"/>
	<path fill="#004C99" d="M5.169,32.998c0.249,0.249,0.125,0.501-0.127,0.749c-0.249,0.25-0.497,0.125-0.746-0.126
		c-0.252-0.25-0.126-0.499,0.123-0.749C4.545,32.748,4.92,32.875,5.169,32.998"/>
	<path fill="#004C99" d="M4.92,34.497c0.122,0.25,0.122,0.501-0.127,0.625c-0.249,0.126-0.497,0.126-0.623-0.124
		c-0.126-0.125,0-0.375,0.249-0.625C4.545,34.246,4.793,34.246,4.92,34.497"/>
	<path fill="#004C99" d="M4.793,35.873c0.127,0.25,0.127,0.375-0.125,0.497c-0.249,0.128-0.375,0.128-0.501-0.122
		c-0.126-0.251-0.126-0.375,0.126-0.501C4.545,35.624,4.669,35.624,4.793,35.873"/>
	<path fill="#004C99" d="M4.669,37.121c0.126,0.125,0.126,0.375-0.123,0.375C4.42,37.62,4.172,37.62,4.172,37.37
		c-0.126-0.125-0.126-0.375,0.126-0.375C4.42,36.872,4.545,36.997,4.669,37.121"/>
	<path fill="#004C99" d="M4.669,38.121c0.126,0.125,0,0.25,0,0.375c-0.123,0.126-0.249,0-0.371,0c-0.126-0.127,0-0.25,0-0.375
		C4.545,37.998,4.545,37.998,4.669,38.121"/>
	<path fill="#004C99" d="M4.793,38.871c0.127,0.125,0,0.25,0,0.25c-0.125,0.126-0.249,0-0.249,0c-0.126-0.126,0-0.25,0-0.25
		C4.545,38.745,4.669,38.871,4.793,38.871"/>
	<path fill="#004C99" d="M21.532,25.505c1,0.498,1.124,1.872,0.627,2.622c-0.5,1-1.75,1.249-2.623,0.625
		c-1-0.5-1.127-1.873-0.625-2.623C19.41,25.129,20.535,24.877,21.532,25.505"/>
	<path fill="#004C99" d="M16.787,27.252c0.748,0.375,0.997,1.375,0.5,2.121c-0.375,0.75-1.375,1-1.999,0.502
		c-0.75-0.375-0.999-1.375-0.501-2.125C15.163,27.001,16.161,26.753,16.787,27.252"/>
	<path fill="#004C99" d="M13.538,29.252c0.627,0.374,0.876,1.125,0.375,1.873c-0.375,0.625-1.124,0.874-1.874,0.376
		c-0.624-0.376-0.872-1.124-0.375-1.874C12.165,29,13.037,28.751,13.538,29.252"/>
	<path fill="#004C99" d="M11.042,31.623c0.5,0.375,0.624,1,0.375,1.5c-0.249,0.498-1.001,0.625-1.498,0.373
		c-0.5-0.25-0.623-1-0.374-1.498C9.917,31.5,10.541,31.374,11.042,31.623"/>
	<path fill="#004C99" d="M9.416,34.246c0.375,0.25,0.5,0.874,0.375,1.249c-0.249,0.375-0.872,0.501-1.125,0.375
		c-0.375-0.25-0.5-0.872-0.375-1.247C8.292,34.123,8.918,33.999,9.416,34.246"/>
	<path fill="#004C99" d="M8.541,36.623c0.379,0.249,0.502,0.749,0.379,1.123c-0.379,0.375-0.875,0.501-1.25,0.375
		c-0.375-0.249-0.498-0.749-0.375-1.125C7.542,36.499,8.166,36.37,8.541,36.623"/>
	<path fill="#004C99" d="M8.044,38.871c0.374,0.25,0.374,0.624,0.248,0.998c-0.248,0.376-0.623,0.501-0.997,0.376
		c-0.374-0.251-0.374-0.625-0.252-0.999C7.294,38.745,7.667,38.745,8.044,38.871"/>
	<path fill="#004C99" d="M7.791,41.118c0.375,0.25,0.375,0.502,0.251,0.875c-0.251,0.373-0.5,0.373-0.876,0.25
		c-0.375-0.126-0.375-0.501-0.249-0.875C7.168,40.994,7.417,40.994,7.791,41.118"/>
	<path fill="#004C99" d="M7.917,42.993c0.249,0.125,0.375,0.375,0.249,0.748c-0.122,0.251-0.375,0.375-0.624,0.251
		s-0.375-0.376-0.249-0.748C7.417,42.993,7.667,42.869,7.917,42.993"/>
	<path fill="#004C99" d="M8.292,44.492c0.249,0.125,0.375,0.374,0.126,0.624c-0.126,0.25-0.374,0.375-0.626,0.125
		c-0.249-0.125-0.374-0.374-0.125-0.624C7.791,44.37,8.166,44.242,8.292,44.492"/>
	<path fill="#004C99" d="M8.666,45.742c0.252,0.124,0.252,0.374,0.126,0.498c-0.126,0.251-0.375,0.251-0.5,0.126
		c-0.248-0.126-0.248-0.374-0.126-0.5C8.292,45.742,8.417,45.615,8.666,45.742"/>
	<path fill="#004C99" d="M8.918,46.866c0.123,0.124,0.249,0.249,0.123,0.374c-0.123,0.123-0.25,0.251-0.375,0.123
		c-0.122-0.123-0.249-0.251-0.122-0.373C8.666,46.866,8.918,46.866,8.918,46.866"/>
	<path fill="#004C99" d="M9.416,47.864c0.126,0.126,0.126,0.249,0.126,0.375c-0.126,0.126-0.249,0.126-0.375,0.126
		c-0.126-0.126-0.126-0.25-0.126-0.375C9.042,47.864,9.293,47.738,9.416,47.864"/>
	<path fill="#004C99" d="M9.791,48.614c0.126,0,0.126,0.124,0.126,0.251c0,0.123-0.126,0.123-0.251,0.123
		c-0.122,0-0.122-0.123-0.122-0.25C9.542,48.614,9.664,48.614,9.791,48.614"/>
	<path fill="#004C99" d="M20.16,29.624c1.124,0.126,1.873,1.125,1.624,2.25c-0.126,1.124-1.127,1.873-2.248,1.747
		c-1.127-0.123-1.876-1.123-1.624-2.246C18.16,30.25,19.035,29.502,20.16,29.624"/>
	<path fill="#004C99" d="M16.412,33.124c0.875,0.126,1.373,0.875,1.247,1.75c-0.123,0.874-0.872,1.375-1.747,1.248
		c-0.873-0.126-1.374-0.875-1.25-1.749C14.788,33.621,15.538,32.998,16.412,33.124"/>
	<path fill="#004C99" d="M14.291,36.122c0.75,0.126,1.125,0.749,1.125,1.499c-0.126,0.749-0.75,1.125-1.498,1.125
		c-0.75-0.123-1.125-0.748-1.125-1.499C12.915,36.623,13.538,35.997,14.291,36.122"/>
	<path fill="#004C99" d="M12.789,39.494c0.5,0.125,1.001,0.626,0.875,1.128c-0.126,0.499-0.627,1-1.126,0.873
		c-0.499-0.127-0.999-0.625-0.873-1.125C11.79,39.744,12.291,39.368,12.789,39.494"/>
	<path fill="#004C99" d="M12.291,42.492c0.498,0.126,0.872,0.501,0.749,1.127c-0.127,0.499-0.5,0.874-1.124,0.751
		c-0.501-0.128-0.875-0.501-0.75-1.127C11.29,42.742,11.79,42.368,12.291,42.492"/>
	<path fill="#004C99" d="M12.413,44.992c0.375,0.125,0.749,0.5,0.749,1c-0.126,0.375-0.5,0.746-0.997,0.746
		c-0.375-0.122-0.75-0.498-0.75-0.996C11.415,45.241,11.79,44.867,12.413,44.992"/>
	<path fill="#004C99" d="M12.789,47.363c0.375,0.128,0.623,0.375,0.623,0.875c-0.122,0.374-0.375,0.624-0.872,0.624
		c-0.375-0.127-0.75-0.375-0.624-0.874C12.039,47.489,12.413,47.363,12.789,47.363"/>
	<path fill="#004C99" d="M13.29,49.488c0.375,0,0.501,0.374,0.501,0.749c0,0.374-0.379,0.499-0.627,0.499s-0.5-0.374-0.5-0.748
		S13.037,49.488,13.29,49.488"/>
	<path fill="#004C99" d="M14.165,51.111c0.375,0,0.375,0.377,0.375,0.501c0,0.377-0.375,0.377-0.5,0.377
		c-0.375,0-0.375-0.377-0.375-0.501C13.664,51.362,13.913,51.111,14.165,51.111"/>
	<path fill="#004C99" d="M15.036,52.36c0.252,0,0.375,0.373,0.375,0.499c0,0.25-0.375,0.375-0.498,0.375
		c-0.126,0-0.375-0.375-0.375-0.501C14.661,52.486,14.788,52.36,15.036,52.36"/>
	<path fill="#004C99" d="M15.913,53.36c0.249,0,0.375,0.249,0.375,0.376c0,0.249-0.249,0.372-0.375,0.372
		c-0.251,0-0.375-0.249-0.375-0.372C15.538,53.609,15.66,53.36,15.913,53.36"/>
	<path fill="#004C99" d="M16.787,54.359c0.126,0,0.375,0.252,0.249,0.374c0,0.251-0.249,0.373-0.375,0.251
		c-0.126,0-0.375-0.251-0.249-0.373C16.412,54.485,16.535,54.359,16.787,54.359"/>
	<path fill="#004C99" d="M17.411,55.109c0.125,0,0.249,0.126,0.249,0.25s-0.123,0.251-0.249,0.251c-0.123,0-0.249-0.127-0.249-0.251
		C17.162,55.109,17.288,55.109,17.411,55.109"/>
	<path fill="#004C99" d="M18.034,55.61c0.126,0,0.126,0.124,0.126,0.248c0,0.126-0.126,0.126-0.249,0.126
		c-0.126,0-0.126-0.126-0.126-0.249C17.912,55.61,18.034,55.61,18.034,55.61"/>
	<path fill="#004C99" d="M20.408,34.123c1.124-0.25,2.126,0.375,2.375,1.377c0.252,1.125-0.375,2.121-1.376,2.372
		c-1.124,0.25-2.122-0.373-2.371-1.373C18.784,35.5,19.41,34.373,20.408,34.123"/>
	<path fill="#004C99" d="M18.287,38.745c0.875-0.249,1.625,0.374,1.873,1.124c0.249,0.875-0.375,1.626-1.125,1.874
		c-0.875,0.251-1.624-0.374-1.873-1.125C17.036,39.744,17.536,38.871,18.287,38.745"/>
	<path fill="#004C99" d="M17.536,42.368c0.624-0.249,1.374,0.25,1.625,1c0.249,0.748-0.251,1.371-1.001,1.625
		c-0.624,0.249-1.372-0.252-1.625-1.001C16.412,43.243,16.787,42.492,17.536,42.368"/>
	<path fill="#004C99" d="M17.411,45.991c0.5-0.126,1.125,0.249,1.25,0.749c0.122,0.5-0.252,1.127-0.75,1.248
		c-0.5,0.125-1.124-0.25-1.25-0.748C16.535,46.739,16.787,46.116,17.411,45.991"/>
	<path fill="#004C99" d="M18.034,48.988c0.375-0.123,1.001,0.251,1.127,0.626c0.122,0.497-0.251,0.998-0.626,1.126
		c-0.375,0.123-0.999-0.251-1.125-0.626C17.288,49.614,17.536,49.113,18.034,48.988"/>
	<path fill="#004C99" d="M19.035,51.238c0.375-0.127,0.998,0.25,1.125,0.625c0.126,0.375-0.249,0.998-0.624,1.124
		c-0.375,0.125-1-0.251-1.127-0.626C18.287,51.861,18.535,51.362,19.035,51.238"/>
	<path fill="#004C99" d="M20.408,53.36c0.374-0.126,0.748,0.125,0.875,0.499c0.122,0.375-0.127,0.752-0.501,0.874
		c-0.374,0.125-0.748-0.122-0.871-0.499C19.784,53.859,19.911,53.36,20.408,53.36"/>
	<path fill="#004C99" d="M21.784,54.984c0.375-0.126,0.624,0.125,0.749,0.375c0.122,0.251-0.126,0.624-0.375,0.749
		c-0.375,0.125-0.627-0.126-0.752-0.376C21.156,55.483,21.406,55.109,21.784,54.984"/>
	<path fill="#004C99" d="M23.157,56.233c0.375-0.125,0.497,0.125,0.624,0.375c0.126,0.372-0.127,0.498-0.375,0.624
		c-0.374,0.124-0.498-0.126-0.623-0.373C22.656,56.61,22.783,56.358,23.157,56.233"/>
	<path fill="#004C99" d="M24.406,56.982c0.249-0.123,0.501,0.126,0.501,0.374c0.123,0.251-0.126,0.499-0.379,0.499
		c-0.249,0.126-0.497-0.126-0.497-0.374C24.032,57.356,24.032,56.982,24.406,56.982"/>
	<path fill="#004C99" d="M25.531,57.609c0.249,0,0.375,0.122,0.375,0.372c0,0.251-0.126,0.374-0.375,0.374s-0.375-0.125-0.375-0.374
		C25.156,57.855,25.283,57.609,25.531,57.609"/>
	<path fill="#004C99" d="M26.655,58.355c0.122,0,0.375,0.123,0.375,0.25c0,0.123-0.126,0.372-0.251,0.372
		c-0.122,0-0.375-0.124-0.375-0.249C26.403,58.479,26.403,58.355,26.655,58.355"/>
	<path fill="#004C99" d="M27.529,58.606c0.123,0,0.25,0,0.375,0.251c0,0.122,0,0.25-0.252,0.374c-0.123,0-0.249,0-0.375-0.25
		C27.404,58.854,27.404,58.729,27.529,58.606"/>
	<path fill="#004C99" d="M28.403,58.979c0.126,0,0.249,0,0.249,0.128c0,0.124,0,0.249-0.126,0.249c-0.122,0-0.249,0-0.249-0.127
		C28.276,59.107,28.279,58.979,28.403,58.979"/>
	<path fill="#004C99" d="M22.534,38.121c0.871-0.625,2.121-0.375,2.749,0.375c0.623,0.871,0.371,2.124-0.375,2.748
		c-0.876,0.623-2.125,0.375-2.749-0.375C21.406,39.994,21.657,38.745,22.534,38.121"/>
	<path fill="#004C99" d="M22.285,43.117c0.623-0.5,1.622-0.375,2.121,0.376c0.501,0.623,0.375,1.623-0.375,2.122
		c-0.626,0.501-1.625,0.376-2.125-0.375C21.406,44.617,21.657,43.741,22.285,43.117"/>
	<path fill="#004C99" d="M22.783,46.866c0.5-0.374,1.373-0.374,1.873,0.374c0.375,0.498,0.375,1.374-0.375,1.873
		c-0.5,0.375-1.373,0.375-1.873-0.375C22.159,48.239,22.285,47.363,22.783,46.866"/>
	<path fill="#004C99" d="M24.032,50.239c0.375-0.376,1.125-0.251,1.498,0.247c0.375,0.377,0.249,1.127-0.249,1.5
		c-0.5,0.375-1.127,0.252-1.502-0.249C23.532,51.238,23.654,50.485,24.032,50.239"/>
	<path fill="#004C99" d="M25.78,52.859c0.375-0.373,0.998-0.249,1.25,0.25c0.375,0.375,0.249,0.999-0.251,1.248
		c-0.497,0.251-0.998,0.251-1.247-0.25C25.405,53.736,25.531,53.11,25.78,52.859"/>
	<path fill="#004C99" d="M27.653,54.485c0.375-0.375,0.872-0.249,1.125,0.249c0.375,0.375,0.249,1-0.249,1.124
		c-0.375,0.377-0.876,0.251-1.125-0.248C27.156,55.359,27.278,54.733,27.653,54.485"/>
	<path fill="#004C99" d="M29.652,55.857c0.375-0.248,0.749-0.248,1.001,0.126c0.249,0.375,0.249,0.749-0.127,1.125
		c-0.374,0.249-0.748,0.249-1-0.126C29.151,56.61,29.277,56.109,29.652,55.857"/>
	<path fill="#004C99" d="M31.525,56.982c0.375-0.249,0.624-0.123,0.876,0.126c0.249,0.373,0.122,0.623-0.127,0.872
		c-0.374,0.25-0.623,0.126-0.874-0.126C31.276,57.481,31.276,57.108,31.525,56.982"/>
	<path fill="#004C99" d="M33.276,57.609c0.249-0.252,0.501-0.128,0.75,0.122c0.251,0.25,0.126,0.501-0.126,0.747
		c-0.249,0.25-0.498,0.128-0.749-0.123C33.025,57.981,33.025,57.609,33.276,57.609"/>
	<path fill="#004C99" d="M34.772,57.609c0.251-0.128,0.5-0.128,0.625,0.122c0.126,0.25,0.126,0.501-0.126,0.625
		c-0.249,0.123-0.5,0.123-0.624-0.124C34.397,58.23,34.523,57.855,34.772,57.609"/>
	<path fill="#004C99" d="M36.022,57.855c0.251-0.126,0.375-0.126,0.5,0.126c0.126,0.253,0.126,0.374-0.127,0.501
		c-0.251,0.127-0.374,0.127-0.5-0.126C35.774,58.23,35.774,57.981,36.022,57.855"/>
	<path fill="#004C99" d="M37.272,57.981c0.126-0.126,0.375-0.126,0.375,0.125c0.126,0.126,0.126,0.372-0.125,0.372
		c-0.123,0.128-0.375,0.128-0.375-0.123C37.146,58.355,37.146,58.106,37.272,57.981"/>
	<path fill="#004C99" d="M38.273,57.981c0.122-0.126,0.249-0.126,0.375,0c0.122,0.125,0,0.253,0,0.374c-0.126,0.123-0.253,0-0.375,0
		C38.146,58.23,38.146,58.106,38.273,57.981"/>
	<path fill="#004C99" d="M39.146,57.855c0.125-0.126,0.248,0,0.248,0c0.126,0.126,0,0.251,0,0.251c-0.122,0.126-0.248,0-0.248,0
		C39.02,58.106,39.02,57.981,39.146,57.855"/>
	<path fill="#004C99" d="M25.78,40.994c0.501-1,1.751-1.248,2.623-0.624c1.001,0.5,1.124,1.874,0.623,2.624
		c-0.5,0.998-1.747,1.249-2.623,0.625C25.531,43.117,25.283,41.868,25.78,40.994"/>
	<path fill="#004C99" d="M27.653,45.742c0.375-0.749,1.373-1.003,2-0.501c0.749,0.375,1.001,1.376,0.5,2.123
		c-0.375,0.75-1.376,1.002-2,0.501C27.404,47.489,27.156,46.491,27.653,45.742"/>
	<path fill="#004C99" d="M29.526,48.988c0.375-0.624,1.127-0.875,1.873-0.374c0.626,0.374,0.875,1.127,0.375,1.871
		c-0.375,0.626-1.125,0.877-1.873,0.376C29.277,50.362,29.151,49.614,29.526,48.988"/>
	<path fill="#004C99" d="M32.026,51.612c0.375-0.501,0.999-0.625,1.499-0.374c0.501,0.374,0.623,1,0.375,1.497
		c-0.249,0.501-0.997,0.625-1.498,0.375C31.778,52.611,31.649,51.985,32.026,51.612"/>
	<path fill="#004C99" d="M34.523,53.36c0.249-0.376,0.874-0.501,1.123-0.376c0.375,0.25,0.501,0.874,0.375,1.249
		c-0.249,0.372-0.873,0.498-1.125,0.372C34.397,54.234,34.274,53.736,34.523,53.36"/>
	<path fill="#004C99" d="M36.771,54.11c0.249-0.373,0.75-0.501,1.124-0.373c0.378,0.248,0.5,0.748,0.378,1.123
		c-0.251,0.375-0.752,0.501-1.127,0.375C36.648,55.109,36.522,54.612,36.771,54.11"/>
	<path fill="#004C99" d="M39.146,54.733c0.248-0.374,0.623-0.374,0.997-0.25c0.379,0.25,0.379,0.623,0.252,0.998
		c-0.252,0.375-0.627,0.375-1.001,0.251C39.02,55.483,38.896,54.984,39.146,54.733"/>
	<path fill="#004C99" d="M41.271,54.858c0.249-0.373,0.501-0.373,0.872-0.247c0.375,0.122,0.375,0.495,0.249,0.87
		c-0.249,0.376-0.501,0.376-0.872,0.251C41.271,55.483,41.145,55.234,41.271,54.858"/>
	<path fill="#004C99" d="M43.144,54.733c0.122-0.25,0.375-0.374,0.624-0.25c0.251,0.128,0.375,0.374,0.251,0.749
		c-0.126,0.249-0.375,0.375-0.627,0.249C43.017,55.359,43.017,54.984,43.144,54.733"/>
	<path fill="#004C99" d="M44.517,54.359c0.125-0.249,0.374-0.374,0.624-0.125c0.252,0.125,0.375,0.377,0.126,0.624
		c-0.126,0.255-0.376,0.376-0.627,0.126C44.391,54.858,44.391,54.612,44.517,54.359"/>
	<path fill="#004C99" d="M45.889,53.985c0.126-0.249,0.378-0.249,0.5-0.126c0.252,0.126,0.252,0.375,0.127,0.5
		c-0.127,0.252-0.375,0.252-0.501,0.126C45.767,54.359,45.767,54.11,45.889,53.985"/>
	<path fill="#004C99" d="M47.018,53.609c0.126-0.124,0.249-0.249,0.371-0.124c0.126,0.124,0.251,0.251,0.126,0.374
		c-0.126,0.126-0.251,0.249-0.375,0.126C47.018,53.985,47.018,53.859,47.018,53.609"/>
	<path fill="#004C99" d="M48.015,53.36c0.125-0.126,0.252-0.126,0.374-0.126c0.127,0.126,0.127,0.25,0.127,0.373
		c-0.127,0.129-0.249,0.129-0.375,0.129C48.015,53.485,47.888,53.36,48.015,53.36"/>
	<path fill="#004C99" d="M48.764,52.859c0-0.122,0.126-0.122,0.249-0.122c0.126,0,0.126,0.122,0.126,0.248
		c0,0.125-0.126,0.125-0.249,0.125C48.764,52.985,48.764,52.859,48.764,52.859"/>
	<path fill="#004C99" d="M29.901,42.368c0.126-1.127,1.127-1.873,2.248-1.746c1.127,0.123,1.873,1.125,1.625,2.247
		c-0.126,1.125-1.124,1.87-2.249,1.748C30.655,44.492,29.901,43.369,29.901,42.368"/>
	<path fill="#004C99" d="M33.525,45.991c0.125-0.875,0.872-1.374,1.747-1.252c0.875,0.128,1.375,0.876,1.25,1.752
		c-0.126,0.87-0.876,1.371-1.75,1.246C33.899,47.738,33.276,46.866,33.525,45.991"/>
	<path fill="#004C99" d="M36.396,48.239c0.127-0.748,0.749-1.125,1.499-1.125c0.749,0.126,1.125,0.748,1.125,1.5
		c-0.122,0.749-0.747,1.127-1.498,1.127C36.771,49.614,36.396,48.988,36.396,48.239"/>
	<path fill="#004C99" d="M39.646,49.738c0.123-0.497,0.624-1,1.125-0.872c0.5,0.124,0.997,0.624,0.873,1.123
		c-0.127,0.497-0.624,0.998-1.125,0.872C40.02,50.861,39.52,50.362,39.646,49.738"/>
	<path fill="#004C99" d="M42.644,50.362c0.123-0.5,0.5-0.874,1.125-0.748c0.5,0.124,0.875,0.497,0.753,1.126
		c-0.126,0.5-0.5,0.872-1.127,0.748C42.893,51.238,42.644,50.861,42.644,50.362"/>
	<path fill="#004C99" d="M45.143,50.362c0.123-0.374,0.5-0.748,0.997-0.748c0.375,0.124,0.75,0.497,0.75,0.998
		c-0.126,0.375-0.501,0.75-0.999,0.75C45.392,51.111,45.143,50.737,45.143,50.362"/>
	<path fill="#004C99" d="M47.388,49.738c0.126-0.375,0.375-0.625,0.876-0.625c0.375,0.128,0.626,0.375,0.626,0.874
		c-0.126,0.372-0.377,0.625-0.875,0.625C47.515,50.612,47.388,50.239,47.388,49.738"/>
	<path fill="#004C99" d="M49.514,49.241c0-0.375,0.374-0.503,0.623-0.503s0.5,0.375,0.5,0.75c0,0.374-0.375,0.5-0.623,0.5
		C49.64,49.862,49.514,49.614,49.514,49.241"/>
	<path fill="#004C99" d="M51.26,48.364c0-0.375,0.379-0.375,0.501-0.375c0.375,0,0.375,0.375,0.375,0.5
		c0,0.376-0.375,0.376-0.497,0.376C51.387,48.988,51.139,48.614,51.26,48.364"/>
	<path fill="#004C99" d="M52.386,47.489c0-0.251,0.374-0.375,0.5-0.375c0.126,0,0.375,0.375,0.375,0.501
		c0,0.249-0.375,0.374-0.501,0.374C52.51,47.989,52.386,47.738,52.386,47.489"/>
	<path fill="#004C99" d="M53.386,46.739c0-0.248,0.251-0.373,0.375-0.373c0.249,0,0.375,0.251,0.375,0.373
		c0,0.127-0.249,0.375-0.375,0.375C53.508,46.988,53.386,46.866,53.386,46.739"/>
	<path fill="#004C99" d="M54.384,45.866c0-0.251,0.252-0.374,0.375-0.251c0.126,0,0.375,0.251,0.251,0.377
		c0,0.25-0.251,0.374-0.375,0.25C54.511,46.116,54.384,45.991,54.384,45.866"/>
	<path fill="#004C99" d="M55.137,45.116c0-0.125,0.122-0.249,0.249-0.249s0.253,0.126,0.253,0.249c0,0.124-0.126,0.25-0.253,0.25
		S55.137,45.367,55.137,45.116"/>
	<path fill="#004C99" d="M55.634,44.492c0-0.124,0.122-0.124,0.249-0.124c0.126,0,0.126,0.124,0.126,0.249
		c0,0.122-0.126,0.122-0.252,0.122C55.634,44.739,55.634,44.617,55.634,44.492"/>
	<path fill="#004C99" d="M34.274,41.994c-0.252-1.125,0.375-2.126,1.372-2.373c1.125-0.253,2.126,0.374,2.375,1.373
		c0.251,1.126-0.375,2.124-1.376,2.374C35.646,43.741,34.649,43.117,34.274,41.994"/>
	<path fill="#004C99" d="M38.896,44.116c-0.249-0.873,0.375-1.625,1.123-1.873c0.876-0.25,1.625,0.374,1.875,1.125
		c0.251,0.874-0.375,1.625-1.125,1.872C40.02,45.491,39.146,44.992,38.896,44.116"/>
	<path fill="#004C99" d="M42.518,44.992c-0.249-0.75,0.249-1.374,1.001-1.624c0.624-0.25,1.372,0.25,1.622,1.002
		c0.252,0.746-0.249,1.372-0.997,1.622C43.392,46.116,42.766,45.742,42.518,44.992"/>
	<path fill="#004C99" d="M46.015,45.116c-0.123-0.499,0.251-1.125,0.75-1.247c0.5-0.128,1.126,0.249,1.25,0.748
		c0.125,0.499-0.249,1.125-0.749,1.248C46.765,45.99,46.268,45.615,46.015,45.116"/>
	<path fill="#004C99" d="M49.139,44.492c-0.126-0.501,0.251-0.999,0.628-1.125c0.375-0.126,0.997,0.249,1.124,0.624
		c0.122,0.501-0.249,1-0.624,1.125C49.64,45.367,49.266,44.992,49.139,44.492"/>
	<path fill="#004C99" d="M51.387,43.493c-0.127-0.376,0.251-1.001,0.625-1.127c0.375-0.125,0.999,0.25,1.125,0.626
		c0.126,0.375-0.249,0.999-0.624,1.124C51.888,44.242,51.513,43.869,51.387,43.493"/>
	<path fill="#004C99" d="M53.386,42.117c-0.123-0.375,0.126-0.749,0.5-0.872c0.375-0.127,0.75,0.123,0.872,0.501
		c0.126,0.374-0.122,0.75-0.497,0.871C53.883,42.742,53.386,42.492,53.386,42.117"/>
	<path fill="#004C99" d="M55.01,40.744c-0.126-0.375,0.123-0.625,0.371-0.75c0.375-0.125,0.627,0.126,0.749,0.375
		c0.126,0.25-0.123,0.624-0.375,0.749C55.385,41.245,55.137,40.994,55.01,40.744"/>
	<path fill="#004C99" d="M56.257,39.368c-0.126-0.373,0.126-0.497,0.375-0.623c0.375-0.123,0.5,0.125,0.626,0.374
		c0.122,0.374-0.126,0.501-0.375,0.625C56.632,39.744,56.384,39.621,56.257,39.368"/>
	<path fill="#004C99" d="M57.007,38.121c-0.122-0.25,0.126-0.501,0.375-0.501c0.253-0.124,0.501,0.126,0.501,0.376
		c0.123,0.25-0.126,0.5-0.375,0.5C57.259,38.498,57.007,38.247,57.007,38.121"/>
	<path fill="#004C99" d="M57.633,36.872c0-0.249,0.123-0.373,0.371-0.373c0.252,0,0.375,0.123,0.375,0.373
		c0,0.25-0.122,0.375-0.373,0.375C57.882,37.247,57.633,37.121,57.633,36.872"/>
	<path fill="#004C99" d="M58.257,35.873c0-0.126,0.122-0.374,0.249-0.374s0.375,0.125,0.375,0.249c0,0.126-0.126,0.375-0.249,0.375
		C58.383,35.997,58.257,35.873,58.257,35.873"/>
	<path fill="#004C99" d="M58.632,34.874c0-0.126,0-0.25,0.249-0.376c0.126,0,0.252,0,0.375,0.25c0,0.126,0,0.25-0.249,0.374
		C58.758,35.122,58.632,34.998,58.632,34.874"/>
	<path fill="#004C99" d="M58.883,33.999c0-0.126,0-0.251,0.126-0.251c0.122,0,0.249,0,0.249,0.126c0,0.126,0,0.25-0.126,0.25
		C58.883,34.123,58.883,34.123,58.883,33.999"/>
	<path fill="#004C99" d="M35.646,36.37c-0.997-0.623-1.249-1.998-0.623-3.125c0.623-0.999,1.995-1.249,2.998-0.623
		c0.998,0.623,1.247,2,0.623,3.125C38.022,36.746,36.648,36.997,35.646,36.37"/>
	<path fill="#004C99" d="M36.522,26.628c-0.624,0.999-1.999,1.249-2.998,0.624c-0.997-0.624-1.25-1.998-0.624-2.998
		c0.624-0.999,1.996-1.249,2.998-0.625C37.02,24.253,37.272,25.627,36.522,26.628"/>
	<path fill="#004C99" d="M32.026,24.13c0.249,1.125-0.5,2.374-1.746,2.499c-1.127,0.25-2.374-0.5-2.5-1.749
		c-0.25-1.125,0.5-2.375,1.747-2.499C30.655,22.13,31.778,22.882,32.026,24.13"/>
	<path fill="#004C99" d="M27.029,25.753c0.999,0.625,1.25,1.998,0.624,2.998c-0.624,1-2,1.25-2.998,0.623
		c-1.001-0.623-1.25-1.998-0.624-2.996C24.655,25.254,26.028,25.003,27.029,25.753"/>
	<path fill="#004C99" d="M24.529,30.375c1.125-0.25,2.374,0.5,2.5,1.748c0.249,1.125-0.5,2.374-1.747,2.499
		c-1.25,0.125-2.375-0.501-2.5-1.748C22.656,31.748,23.405,30.626,24.529,30.375"/>
	<path fill="#004C99" d="M26.028,35.373c0.628-1,2-1.25,2.998-0.626c1.001,0.626,1.254,1.999,0.627,3.124
		c-0.627,1-1.999,1.248-2.997,0.626C25.653,37.871,25.405,36.499,26.028,35.373"/>
	<path fill="#004C99" d="M30.655,37.998c-0.253-1.126,0.497-2.373,1.747-2.498c1.124-0.251,2.371,0.5,2.497,1.747
		c0.251,1.126-0.5,2.374-1.747,2.501C32.026,39.869,30.903,39.119,30.655,37.998"/>
	<path fill="#004C99" d="M38.146,31.623c-1.127,0.251-2.374-0.5-2.5-1.749c-0.249-1.125,0.501-2.373,1.75-2.499
		c1.25-0.124,2.371,0.5,2.497,1.749C40.02,30.375,39.271,31.5,38.146,31.623"/>
	<path fill="#004C99" d="M42.518,32.373c-1.125-0.124-1.873-1.125-1.622-2.248c0.122-1.125,1.124-1.873,2.248-1.748
		c1.125,0.125,1.875,1.125,1.626,2.249C44.52,31.751,43.642,32.498,42.518,32.373"/>
	<path fill="#004C99" d="M46.268,28.876c-0.875-0.125-1.376-0.874-1.254-1.749c0.126-0.874,0.875-1.374,1.751-1.25
		c0.874,0.125,1.371,0.874,1.25,1.748C47.766,28.5,47.018,29,46.268,28.876"/>
	<path fill="#004C99" d="M48.389,25.876c-0.75-0.125-1.126-0.75-1.126-1.497c0.126-0.75,0.752-1.125,1.498-1.125
		c0.749,0.124,1.123,0.747,1.123,1.497C49.763,25.505,49.139,26.003,48.389,25.876"/>
	<path fill="#004C99" d="M49.763,22.63c-0.497-0.126-0.997-0.625-0.873-1.125c0.123-0.501,0.624-1.001,1.121-0.875
		c0.5,0.124,1,0.625,0.874,1.124C50.885,22.254,50.385,22.755,49.763,22.63"/>
	<path fill="#004C99" d="M50.385,19.507c-0.497-0.125-0.871-0.501-0.746-1.125c0.123-0.499,0.497-0.873,1.121-0.75
		c0.5,0.127,0.876,0.5,0.752,1.125C51.387,19.258,50.885,19.632,50.385,19.507"/>
	<path fill="#004C99" d="M50.264,17.009c-0.375-0.124-0.75-0.5-0.75-1c0.125-0.374,0.498-0.749,0.998-0.749
		c0.375,0.125,0.748,0.5,0.748,1C51.26,16.882,50.885,17.134,50.264,17.009"/>
	<path fill="#004C99" d="M49.888,14.76c-0.374-0.125-0.623-0.375-0.623-0.875c0.122-0.375,0.374-0.624,0.871-0.624
		c0.375,0.124,0.624,0.373,0.624,0.874C50.637,14.51,50.264,14.76,49.888,14.76"/>
	<path fill="#004C99" d="M49.266,12.638c-0.375,0-0.5-0.373-0.5-0.749c0-0.375,0.375-0.501,0.623-0.501
		c0.253,0,0.501,0.376,0.501,0.75C49.888,12.388,49.514,12.638,49.266,12.638"/>
	<path fill="#004C99" d="M48.516,10.889c-0.379,0-0.379-0.375-0.379-0.5c0-0.376,0.379-0.376,0.501-0.376
		c0.375,0,0.375,0.376,0.375,0.501C49.013,10.762,48.764,10.889,48.516,10.889"/>
	<path fill="#004C99" d="M47.515,9.765c-0.251,0-0.375-0.376-0.375-0.499c0-0.125,0.375-0.374,0.5-0.374
		c0.249,0,0.375,0.374,0.375,0.5C48.015,9.638,47.888,9.765,47.515,9.765"/>
	<path fill="#004C99" d="M46.765,8.763c-0.249,0-0.375-0.25-0.375-0.375c0-0.125,0.252-0.376,0.375-0.376
		c0.251,0,0.375,0.251,0.375,0.376C47.142,8.641,47.018,8.763,46.765,8.763"/>
	<path fill="#004C99" d="M45.889,7.641c-0.122,0-0.375-0.251-0.249-0.376c0-0.25,0.249-0.373,0.375-0.25
		c0.126,0,0.375,0.25,0.251,0.375C46.268,7.641,46.141,7.641,45.889,7.641"/>
	<path fill="#004C99" d="M45.267,6.892c-0.123,0-0.253-0.127-0.253-0.252c0-0.123,0.126-0.248,0.253-0.248
		c0.126,0,0.251,0.125,0.251,0.248C45.515,6.892,45.392,7.016,45.267,6.892"/>
	<path fill="#004C99" d="M44.517,6.392c-0.126,0-0.126-0.124-0.126-0.25c0-0.126,0.126-0.126,0.251-0.126
		c0.126,0,0.126,0.126,0.126,0.251C44.765,6.392,44.642,6.392,44.517,6.392"/>
</g>
<path fill="#004C99" d="M70.263,16.349c0-0.812,0.491-1.301,0.977-1.301c0.487,0,0.978,0.327,0.978,1.138l0,0
	c0.322-0.812,1.136-1.138,2.111-1.138c1.138,0,2.115,0.652,2.115,2.438v6.504c0,0.812-0.49,1.301-0.977,1.301
	s-0.974-0.327-0.974-1.301v-6.014c0-0.65-0.328-0.975-0.814-0.975c-0.649,0-1.138,0.488-1.138,1.625v5.203
	c0,0.812-0.486,1.299-0.974,1.299c-0.486,0-0.977-0.325-0.977-1.299C70.263,23.828,70.263,16.349,70.263,16.349z"/>
<path fill="#004C99" d="M79.856,20.251c-1.139-0.977-1.461-1.464-1.461-2.601c0-1.626,1.137-2.603,3.085-2.603
	c2.438,0,2.926,1.464,2.926,2.438c0,0.652-0.325,0.977-1.135,0.977c-0.491,0-0.814-0.325-0.814-0.812
	c0-0.65-0.326-0.975-0.977-0.975c-0.483,0-0.649,0.325-0.649,0.649c0,0.325,0.164,0.65,0.486,0.978l1.302,0.975
	c1.301,0.975,2.115,1.627,2.115,3.087c0,1.952-1.301,2.928-3.253,2.928c-2.438,0-3.089-1.464-3.089-2.766
	c0-0.812,0.487-0.976,0.977-0.976c0.811,0,0.975,0.486,1.138,1.302c0,0.327,0.325,0.812,0.974,0.812
	c0.491,0,0.814-0.324,0.814-0.812c0-0.487-0.163-0.65-0.814-1.137L79.856,20.251z"/>
<path fill="#004C99" d="M86.198,17h-0.164c-0.65,0-0.977-0.165-0.977-0.813c0-0.649,0.327-0.812,0.977-0.812h0.164v-1.627
	c0-0.812,0.486-1.302,0.977-1.302c0.483,0,0.975,0.326,0.975,1.302v1.627h0.486c0.65,0,0.977,0.163,0.977,0.812
	c0,0.651-0.327,0.813-0.977,0.813h-0.323v5.853c0,0.325,0.16,0.65,0.65,0.65c0.487,0,0.812,0.163,0.812,0.812
	s-0.488,0.976-1.302,0.976c-1.625,0-2.274-0.812-2.274-1.95v-6.503l0,0V17L86.198,17z"/>
<path fill="#004C99" d="M91.726,11.634c0.65,0,1.136,0.489,1.136,1.138c0,0.651-0.486,1.139-1.136,1.139
	c-0.651,0-1.138-0.489-1.138-1.139C90.587,12.123,91.076,11.634,91.726,11.634z M90.749,16.349c0-0.812,0.491-1.301,0.977-1.301
	c0.487,0,0.973,0.327,0.973,1.301v7.642c0,0.812-0.486,1.302-0.973,1.302c-0.491,0-0.977-0.326-0.977-1.302V16.349z"/>
<path fill="#004C99" d="M95.139,17h-0.163c-0.65,0-0.977-0.165-0.977-0.813c0-0.649,0.327-0.812,0.977-0.812h0.163v-1.627
	c0-0.812,0.487-1.302,0.978-1.302c0.486,0,0.974,0.326,0.974,1.302v1.627h0.486c0.654,0,0.977,0.163,0.977,0.812
	c0,0.651-0.323,0.813-0.977,0.813h-0.486v5.853c0,0.325,0.164,0.65,0.649,0.65c0.491,0,0.814,0.163,0.814,0.812
	s-0.487,0.976-1.301,0.976c-1.626,0-2.275-0.812-2.275-1.95C95.139,23.503,95.139,17,95.139,17z"/>
<path fill="#004C99" d="M99.53,16.349c0-0.812,0.486-1.301,0.975-1.301c0.491,0,0.974,0.327,0.974,1.301v6.015
	c0,0.652,0.327,0.978,0.814,0.978c0.813,0,1.137-0.488,1.137-1.627v-5.203c0-0.812,0.488-1.302,0.977-1.302
	c0.488,0,0.974,0.325,0.974,1.302v7.641c0,0.813-0.486,1.3-0.974,1.3c-0.487,0-0.977-0.323-0.977-1.137l0,0
	c-0.323,0.813-1.137,1.137-2.112,1.137c-1.138,0-2.114-0.65-2.114-2.438v-6.666H99.53L99.53,16.349z"/>
<path fill="#004C99" d="M108.308,17h-0.164c-0.65,0-0.974-0.165-0.974-0.813c0-0.649,0.324-0.812,0.974-0.812h0.164v-1.627
	c0-0.812,0.486-1.302,0.977-1.302c0.487,0,0.974,0.326,0.974,1.302v1.627h0.487c0.65,0,0.977,0.163,0.977,0.812
	c0,0.651-0.327,0.813-0.977,0.813h-0.323v5.853c0,0.325,0.164,0.65,0.65,0.65c0.486,0,0.813,0.163,0.813,0.812
	s-0.491,0.976-1.302,0.976c-1.629,0-2.278-0.812-2.278-1.95v-6.503l0,0V17H108.308z"/>
<path fill="#004C99" d="M112.37,18.787c0-2.113,0.654-3.739,3.417-3.739c2.603,0,3.412,1.626,3.412,3.739v2.764
	c0,2.114-0.651,3.739-3.412,3.739c-2.603,0-3.417-1.625-3.417-3.739V18.787z M114.81,21.226c0,1.95,0.327,2.275,0.977,2.275
	c0.649,0,0.977-0.489,0.977-2.275v-2.438c0-1.626-0.328-2.275-0.977-2.275c-0.652,0-0.977,0.489-0.977,2.275V21.226z"/>
<path fill="#004C99" d="M124.728,18.787c0-2.113,0.324-3.739,2.439-3.739c0.811,0,1.461,0.327,1.951,1.138l0,0v-3.089
	c0-0.812,0.487-1.301,0.975-1.301c0.487,0,0.978,0.326,0.978,1.301v10.895c0,0.812-0.488,1.302-0.978,1.302
	c-0.651,0-0.975-0.489-0.975-1.138l0,0c-0.326,0.814-1.14,1.138-1.951,1.138c-2.115,0-2.439-1.95-2.439-3.741V18.787z
	 M127.167,20.901c0,1.625,0.16,2.603,0.811,2.603c0.814,0,0.977-0.977,0.977-2.439v-1.951c0-2.114-0.488-2.438-0.977-2.438
	c-0.651,0-0.975,0.649-0.975,2.762v1.303h0.16v0.163h0.004V20.901z"/>
<path fill="#004C99" d="M133.183,19.113c0-2.602,0.324-4.064,3.415-4.064c2.277,0,3.087,1.302,3.087,3.902
	c0,0.813-0.16,1.464-1.134,1.464h-2.931v0.975c0,1.137,0.164,2.114,0.977,2.114c0.488,0,0.814-0.489,0.814-0.977
	c0-0.976,0.487-1.137,0.975-1.137c0.65,0,1.138,0.163,1.138,0.975c0,1.626-1.138,2.928-3.086,2.928
	c-3.094,0-3.416-1.464-3.416-4.065v-2.113H133.183z M137.409,18.787v-0.812c0-0.65-0.163-1.3-0.978-1.3
	c-0.649,0-0.974,0.487-0.974,1.3v0.813L137.409,18.787L137.409,18.787z"/>
<path fill="#004C99" d="M146.479,19.113c0-2.602,0.322-4.064,3.412-4.064c2.275,0,3.09,1.302,3.09,3.902
	c0,0.813-0.163,1.464-1.138,1.464h-2.926v0.975c0,1.137,0.163,2.114,0.977,2.114c0.486,0,0.811-0.489,0.811-0.977
	c0-0.976,0.486-1.137,0.978-1.137c0.65,0,1.138,0.163,1.138,0.975c0,1.626-1.138,2.928-3.089,2.928
	c-3.091,0-3.413-1.464-3.413-4.065v-2.113H146.479z M150.704,18.787v-0.812c0-0.65-0.161-1.3-0.979-1.3
	c-0.65,0-0.973,0.487-0.973,1.3v0.813L150.704,18.787L150.704,18.787z"/>
<path fill="#004C99" d="M154.48,16.349c0-0.812,0.488-1.301,0.975-1.301c0.487,0,0.977,0.327,0.977,1.138l0,0
	c0.327-0.812,1.139-1.138,2.112-1.138c1.138,0,2.114,0.652,2.114,2.438v6.504c0,0.812-0.491,1.301-0.977,1.301
	c-0.487,0-0.978-0.327-0.978-1.301v-6.014c0-0.65-0.323-0.975-0.812-0.975c-0.649,0-1.137,0.488-1.137,1.625v5.203
	c0,0.812-0.489,1.299-0.977,1.299c-0.488,0-0.977-0.325-0.977-1.299v-7.479H154.48z"/>
<path fill="#004C99" d="M162.611,19.113c0-2.602,0.323-4.064,3.412-4.064c2.275,0,3.085,1.302,3.085,3.902
	c0,0.813-0.159,1.464-1.134,1.464h-2.929v0.975c0,1.137,0.163,2.114,0.978,2.114c0.487,0,0.811-0.489,0.811-0.977
	c0-0.976,0.491-1.137,0.977-1.137c0.652,0,1.139,0.163,1.139,0.975c0,1.626-1.139,2.928-3.09,2.928c-3.09,0-3.416-1.464-3.416-4.065
	v-2.113H162.611z M166.834,18.787v-0.812c0-0.65-0.161-1.3-0.977-1.3c-0.651,0-0.975,0.487-0.975,1.3v0.813L166.834,18.787
	L166.834,18.787z"/>
<path fill="#004C99" d="M170.57,16.349c0-0.649,0.327-1.138,0.978-1.138s0.975,0.488,0.975,1.138v0.813l0,0
	c0.327-1.138,0.812-2.114,1.624-2.114c0.654,0,0.978,0.49,0.978,1.302c0,0.652-0.327,1.302-1.301,1.302
	c-0.651,0-1.14,0.487-1.14,1.301v4.713c0,0.814-0.485,1.301-0.973,1.301c-0.489,0-0.977-0.327-0.977-1.301v-7.642h-0.164V16.349
	L170.57,16.349z"/>
<path fill="#004C99" d="M176.265,18.625c0-1.95,0.485-3.738,2.437-3.738c0.814,0,1.626,0.487,2.114,1.299l0,0
	c0-0.812,0.324-1.299,0.977-1.299c0.649,0,0.978,0.323,0.978,1.299v9.267c0,2.276-0.978,3.251-3.254,3.251
	c-1.627,0-2.93-0.488-2.93-1.951c0-0.65,0.491-0.974,0.979-0.974c0.485,0,0.815,0.325,0.977,0.649c0.164,0.486,0.486,0.65,0.65,0.65
	c0.978,0,1.136-0.65,1.136-1.951v-1.302l0,0c-0.485,0.812-0.976,0.976-1.947,0.976c-2.115,0-2.438-1.951-2.438-3.738
	C176.265,21.226,176.265,18.625,176.265,18.625z M178.377,20.576c0,2.278,0.161,2.766,0.975,2.766c0.49,0,0.976-0.326,0.976-2.438
	v-1.627c0-2.113-0.649-2.438-0.976-2.438c-0.65,0-0.975,0.488-0.975,2.276V20.576z"/>
<path fill="#004C99" d="M185.857,11.634c0.646,0,1.135,0.489,1.135,1.138c0,0.651-0.486,1.139-1.135,1.139
	c-0.654,0-1.14-0.489-1.14-1.139C184.718,12.123,185.203,11.634,185.857,11.634z M184.88,16.349c0-0.812,0.487-1.301,0.978-1.301
	c0.483,0,0.974,0.327,0.974,1.301v7.642c0,0.812-0.485,1.302-0.974,1.302s-0.978-0.326-0.978-1.302V16.349z"/>
<path fill="#004C99" d="M66.851,11.634c0.65,0,1.137,0.489,1.137,1.138c0,0.651-0.487,1.139-1.137,1.139
	c-0.652,0-1.138-0.489-1.138-1.139C65.713,12.123,66.199,11.634,66.851,11.634z M65.874,16.349c0-0.812,0.486-1.301,0.977-1.301
	s0.973,0.327,0.973,1.301v7.642c0,0.812-0.483,1.302-0.973,1.302c-0.488,0-0.977-0.326-0.977-1.302V16.349L65.874,16.349z"/>
<path fill="#004C99" d="M195.282,22.854c0,0.653,0.163,1.138,0.163,1.464c0,0.487-0.325,0.813-0.974,0.813
	c-0.49,0-1.14-0.326-1.14-1.138l0,0c-0.323,0.812-1.136,1.138-2.112,1.138c-1.298,0-2.279-0.813-2.279-2.603
	c0-1.464,0.327-2.438,1.466-2.927l2.116-0.977c0.486-0.162,0.65-0.649,0.65-0.976c0-0.487-0.327-0.977-0.814-0.977
	c-0.649,0-0.976,0.326-0.976,1.138c0,0.486-0.488,0.651-0.978,0.651c-0.488,0-1.137-0.165-1.137-0.812c0-1.626,1.3-2.6,3.086-2.6
	c2.926,0,3.254,1.299,3.254,2.925v4.715h-0.328v0.166H195.282z M193.008,20.089l-0.812,0.487c-0.977,0.652-1.136,0.977-1.136,1.951
	c0,0.653,0.327,1.138,0.812,1.138c0.648,0,1.136-0.812,1.136-1.95L193.008,20.089L193.008,20.089z"/>
<path fill="#004C99" d="M258.249,22.854c0,0.653,0.164,1.138,0.164,1.464c0,0.487-0.327,0.813-0.978,0.813
	c-0.487,0-1.137-0.326-1.137-1.138l0,0c-0.326,0.812-1.137,1.138-2.113,1.138c-1.301,0-2.278-0.813-2.278-2.603
	c0-1.464,0.327-2.438,1.466-2.927l2.113-0.977c0.486-0.162,0.649-0.649,0.649-0.976c0-0.487-0.327-0.977-0.812-0.977
	c-0.649,0-0.977,0.326-0.977,1.138c0,0.486-0.49,0.651-0.976,0.651c-0.488,0-1.138-0.165-1.138-0.812c0-1.626,1.301-2.6,3.09-2.6
	c2.926,0,3.251,1.299,3.251,2.925v4.715h-0.325V22.854L258.249,22.854z M255.969,20.089l-0.81,0.487
	c-0.978,0.652-1.138,0.977-1.138,1.951c0,0.653,0.324,1.138,0.814,1.138c0.65,0,1.137-0.812,1.137-1.95v-1.625H255.969z"/>
<path fill="#004C99" d="M201.14,19.113c0-2.602,0.327-4.064,3.414-4.064c2.275,0,3.087,1.302,3.087,3.902
	c0,0.813-0.161,1.464-1.137,1.464h-2.926v0.975c0,1.137,0.163,2.114,0.976,2.114c0.488,0,0.812-0.489,0.812-0.977
	c0-0.976,0.49-1.137,0.981-1.137c0.646,0,1.133,0.163,1.133,0.975c0,1.626-1.133,2.928-3.085,2.928
	c-3.089,0-3.414-1.464-3.414-4.065L201.14,19.113L201.14,19.113z M205.365,18.787v-0.812c0-0.65-0.164-1.3-0.975-1.3
	c-0.649,0-0.976,0.487-0.976,1.3v0.813L205.365,18.787L205.365,18.787z"/>
<path fill="#004C99" d="M225.849,19.113c0-2.602,0.328-4.064,3.415-4.064c2.272,0,3.09,1.302,3.09,3.902
	c0,0.813-0.164,1.464-1.138,1.464h-2.929v0.975c0,1.137,0.163,2.114,0.977,2.114c0.488,0,0.813-0.489,0.813-0.977
	c0-0.976,0.487-1.137,0.978-1.137c0.651,0,1.138,0.163,1.138,0.975c0,1.626-1.138,2.928-3.09,2.928
	c-3.087,0-3.412-1.464-3.412-4.065L225.849,19.113L225.849,19.113z M230.234,18.787v-0.812c0-0.65-0.162-1.3-0.972-1.3
	c-0.651,0-0.978,0.487-0.978,1.3v0.813L230.234,18.787L230.234,18.787z"/>
<path fill="#004C99" d="M235.116,11.634c0.648,0,1.137,0.489,1.137,1.138c0,0.651-0.488,1.139-1.137,1.139
	c-0.65,0-1.135-0.489-1.135-1.139C233.981,12.123,234.466,11.634,235.116,11.634z M233.981,16.349c0-0.812,0.484-1.301,0.972-1.301
	c0.486,0,0.978,0.327,0.978,1.301v7.642c0,0.812-0.486,1.302-0.978,1.302c-0.487,0-0.972-0.326-0.972-1.302V16.349z"/>
<path fill="#004C99" d="M237.878,18.787c0-2.113,0.652-3.739,3.414-3.739c2.602,0,3.415,1.626,3.415,3.739v2.764
	c0,2.114-0.649,3.739-3.415,3.739c-2.599,0-3.414-1.625-3.414-3.739V18.787z M240.158,21.226c0,1.95,0.324,2.275,0.974,2.275
	s0.978-0.489,0.978-2.275v-2.438c0-1.626-0.328-2.275-0.978-2.275s-0.974,0.489-0.974,2.275V21.226z"/>
<path fill="#004C99" d="M269.904,23.99c0,0.812-0.484,1.302-0.975,1.302c-0.487,0-0.979-0.327-0.979-1.302v-6.015
	c0-0.65-0.321-0.975-0.812-0.975c-0.649,0-1.137,0.488-1.137,1.625v5.203c0,0.812-0.483,1.299-0.973,1.299
	c-0.49,0-0.975-0.325-0.975-1.299v-6.017c0-0.65-0.33-0.978-0.818-0.978c-0.648,0-1.133,0.489-1.133,1.627v5.203
	c0,0.812-0.491,1.301-0.98,1.301c-0.646,0-0.974-0.326-0.974-1.301v-7.64c0-0.813,0.485-1.301,0.974-1.301
	c0.653,0,0.98,0.328,0.98,1.138l0,0c0.323-0.812,1.133-1.138,2.112-1.138c0.978,0,1.461,0.328,2.11,0.977
	c0.654-0.812,1.139-0.977,2.277-0.977c1.14,0,2.113,0.652,2.113,2.439v6.667h-0.812V23.99L269.904,23.99z"/>
<path fill="#004C99" d="M223.329,23.99c0,0.812-0.487,1.302-0.977,1.302c-0.491,0-0.974-0.327-0.974-1.302v-6.015
	c0-0.65-0.326-0.975-0.814-0.975c-0.65,0-1.137,0.488-1.137,1.625v5.203c0,0.812-0.486,1.299-0.977,1.299
	c-0.487,0-0.976-0.325-0.976-1.299v-6.017c0-0.65-0.324-0.978-0.812-0.978c-0.65,0-1.137,0.489-1.137,1.627v5.203
	c0,0.812-0.485,1.301-0.977,1.301c-0.646,0-0.978-0.326-0.978-1.301v-7.64c0-0.813,0.491-1.301,0.978-1.301
	c0.648,0,0.977,0.328,0.977,1.138l0,0c0.323-0.812,1.137-1.138,2.116-1.138c0.974,0,1.461,0.328,2.11,0.977
	c0.651-0.812,1.139-0.977,2.277-0.977c1.137,0,2.114,0.652,2.114,2.439v6.667h-0.813L223.329,23.99L223.329,23.99z"/>
<path fill="#004C99" d="M271.695,13.097c0-0.812,0.487-1.301,0.979-1.301c0.485,0,0.972,0.326,0.972,1.301v3.089l0,0
	c0.327-0.651,1.141-1.137,1.952-1.137c2.116,0,2.44,1.952,2.44,3.739v2.602c0,2.114-0.326,3.74-2.44,3.74
	c-0.81,0-1.461-0.327-1.952-1.139l0,0c0,0.652-0.486,1.139-0.972,1.139c-0.655,0-0.979-0.327-0.979-1.301V13.097z M273.973,21.063
	c0,1.301,0.164,2.439,0.977,2.439c0.81,0,0.81-0.977,0.81-2.603v-1.3c0-2.274-0.161-2.763-0.974-2.763
	c-0.485,0-0.977,0.325-0.977,2.438v1.952h0.164V21.063z"/>
<path fill="#004C99" d="M281.289,11.634c0.648,0,1.14,0.489,1.14,1.138c0,0.651-0.491,1.139-1.14,1.139
	c-0.651,0-1.139-0.489-1.139-1.139C279.985,12.123,280.477,11.634,281.289,11.634z M279.985,16.349c0-0.812,0.491-1.301,0.977-1.301
	c0.488,0,0.978,0.327,0.978,1.301v7.642c0,0.812-0.489,1.302-0.978,1.302c-0.485,0-0.977-0.326-0.977-1.302V16.349L279.985,16.349z"
	/>
<path fill="#004C99" d="M283.891,19.113c0-2.602,0.322-4.064,3.412-4.064c2.275,0,3.089,1.302,3.089,3.902
	c0,0.813-0.163,1.464-1.137,1.464h-2.929v0.975c0,1.137,0.166,2.114,0.979,2.114c0.483,0,0.809-0.489,0.809-0.977
	c0-0.976,0.489-1.137,0.979-1.137c0.646,0,1.137,0.163,1.137,0.975c0,1.626-1.137,2.928-3.09,2.928
	c-3.089,0-3.416-1.464-3.416-4.065L283.891,19.113L283.891,19.113z M288.278,18.787v-0.812c0-0.65-0.164-1.3-0.976-1.3
	c-0.649,0-0.977,0.487-0.977,1.3v0.813L288.278,18.787L288.278,18.787z"/>
<path fill="#004C99" d="M292.02,16.349c0-0.812,0.484-1.301,0.976-1.301c0.486,0,0.978,0.327,0.978,1.138l0,0
	c0.322-0.812,1.136-1.138,2.11-1.138c1.138,0,2.116,0.652,2.116,2.438v6.504c0,0.812-0.488,1.301-0.978,1.301
	c-0.486,0-0.975-0.327-0.975-1.301v-6.014c0-0.65-0.33-0.975-0.813-0.975c-0.654,0-1.137,0.488-1.137,1.625v5.203
	c0,0.812-0.491,1.299-0.981,1.299c-0.481,0-0.973-0.325-0.973-1.299L292.02,16.349L292.02,16.349z"/>
<path fill="#004C99" d="M300.635,17h-0.163c-0.651,0-0.976-0.165-0.976-0.813c0-0.649,0.324-0.812,0.976-0.812h0.163v-1.627
	c0-0.812,0.49-1.302,0.976-1.302c0.487,0,0.978,0.326,0.978,1.302v1.627h0.487c0.648,0,0.974,0.163,0.974,0.812
	c0,0.651-0.325,0.813-0.974,0.813h-0.163v5.853c0,0.325,0.163,0.65,0.646,0.65c0.49,0,0.817,0.163,0.817,0.812
	s-0.491,0.976-1.303,0.976c-1.628,0-2.277-0.812-2.277-1.95v-6.503h-0.161V17L300.635,17z"/>
<path fill="#004C99" d="M304.697,19.113c0-2.602,0.328-4.064,3.418-4.064c2.273,0,3.087,1.302,3.087,3.902
	c0,0.813-0.167,1.464-1.137,1.464h-2.928v0.975c0,1.137,0.161,2.114,0.978,2.114c0.485,0,0.812-0.489,0.812-0.977
	c0-0.976,0.488-1.137,0.974-1.137c0.651,0,1.138,0.163,1.138,0.975c0,1.626-1.138,2.928-3.088,2.928c-3.09,0-3.41-1.464-3.41-4.065
	L304.697,19.113L304.697,19.113z M308.925,18.787v-0.812c0-0.65-0.164-1.3-0.977-1.3c-0.65,0-0.978,0.487-0.978,1.3v0.813
	L308.925,18.787L308.925,18.787z"/>
<g>
	<path fill="#004C99" d="M314.942,12.772c-0.49,0-0.654,0.164-0.654,0.488c0,0.325,0.164,0.488,0.654,0.488h0.974v5.201
		c0,0.325,0.328,0.65,0.652,0.65c0.321,0,0.649-0.325,0.649-0.65v-5.201h0.978c0.486,0,0.65-0.163,0.65-0.488
		c0-0.324-0.164-0.488-0.65-0.488C318.354,12.772,314.942,12.772,314.942,12.772z"/>
	<path fill="#004C99" d="M319.658,18.949c0,0.325,0.323,0.65,0.646,0.65c0.321,0,0.654-0.325,0.654-0.65v-4.877l0,0l0.973,5.203
		c0,0.162,0.163,0.325,0.487,0.325c0.326,0,0.326-0.164,0.487-0.325l0.976-5.203l0,0v4.877c0,0.325,0.327,0.65,0.651,0.65
		c0.322,0,0.65-0.325,0.65-0.65V13.26c0-0.65-0.164-0.975-0.977-0.975c-0.649,0-0.974,0.162-1.138,0.975l-0.65,3.415l0,0
		l-0.65-3.415c-0.161-0.814-0.488-0.975-1.135-0.975c-0.813,0-0.978,0.326-0.978,0.975v5.689H319.658z"/>
</g>
<g>
	<path fill="#004C99" d="M66.105,38.187c0-1.224,0.521-1.745,1.744-1.745h4.193c2.793,0,4.541,1.396,4.541,5.063
		c0,2.795-1.396,5.241-4.192,5.241h-2.793v6.113c0,1.048-0.698,1.744-1.57,1.744c-0.876,0-1.574-0.696-1.574-1.744V38.187H66.105
		L66.105,38.187z M69.423,44.126h1.396c1.397,0,2.095-1.048,2.095-2.621c0-1.922-0.698-2.62-1.92-2.62h-1.57V44.126L69.423,44.126z"
		/>
	<path fill="#004C99" d="M78.504,37.84c0-1.223,0.525-1.748,1.57-1.748c1.049,0,1.574,0.525,1.574,1.748v14.846
		c0,1.224-0.525,1.745-1.574,1.745c-1.045,0-1.57-0.524-1.57-1.745V37.84z"/>
	<path fill="#004C99" d="M92.649,51.287c0,0.872,0.177,1.574,0.177,1.921c0,0.872-0.525,1.223-1.57,1.223
		c-0.875,0-1.574-0.351-1.574-1.745l0,0c-0.525,1.224-1.574,1.745-2.793,1.745c-1.747,0-3.147-1.049-3.147-3.669
		c0-2.095,0.525-3.144,2.099-4.016l2.618-1.397c0.698-0.351,1.047-0.871,1.047-1.397c0-0.699-0.348-1.396-1.223-1.396
		c-1.046,0-1.396,0.524-1.396,1.571c0,0.525-0.698,1.045-1.397,1.045c-0.697,0-1.57-0.347-1.57-1.22c0-2.271,1.921-3.494,4.19-3.494
		c4.019,0,4.541,1.747,4.541,4.018v6.812H92.649z M89.682,47.271l-1.049,0.695c-1.396,0.873-1.569,1.396-1.569,2.619
		c0,1.049,0.347,1.573,1.046,1.573c1.048,0,1.573-1.048,1.573-2.445L89.682,47.271L89.682,47.271z"/>
	<path fill="#004C99" d="M95.619,43.079h-0.348c-0.875,0-1.4-0.351-1.4-1.05c0-0.872,0.525-1.224,1.4-1.224h0.348v-2.269
		c0-1.223,0.525-1.747,1.57-1.747c1.053,0,1.574,0.525,1.574,1.747v2.272h0.702c0.872,0,1.397,0.348,1.397,1.223
		c0,0.872-0.525,1.049-1.397,1.049h-0.702v7.858c0,0.524,0.175,0.872,0.872,0.872c0.702,0,1.049,0.351,1.049,1.049
		c0,1.048-0.699,1.397-1.921,1.397c-2.271,0-2.969-1.224-2.969-2.446v-8.731H95.619z"/>
	<path fill="#004C99" d="M110.116,51.287c0,0.872,0.174,1.574,0.174,1.921c0,0.872-0.525,1.223-1.569,1.223
		c-0.873,0-1.575-0.351-1.575-1.745l0,0c-0.525,1.224-1.57,1.745-2.792,1.745c-1.747,0-3.144-1.049-3.144-3.669
		c0-2.095,0.524-3.144,2.094-4.016l2.62-1.397c0.698-0.351,1.05-0.871,1.05-1.397c0-0.699-0.352-1.396-1.223-1.396
		c-1.049,0-1.397,0.524-1.397,1.571c0,0.525-0.698,1.045-1.396,1.045c-0.703,0-1.575-0.347-1.575-1.22
		c0-2.271,1.921-3.494,4.188-3.494c4.019,0,4.541,1.747,4.541,4.018v6.81h0.003V51.287z M106.972,47.271l-1.046,0.695
		c-1.4,0.873-1.575,1.396-1.575,2.619c0,1.049,0.352,1.573,1.05,1.573c1.049,0,1.574-1.048,1.574-2.445v-2.442H106.972z"/>
	<path fill="#004C99" d="M112.908,43.079h-0.347c-0.875,0-1.396-0.351-1.396-1.05c0-0.872,0.521-1.224,1.396-1.224h0.347v-1.743
		c0-2.272,1.051-2.97,3.318-2.97c1.049,0,1.574,0.353,1.574,1.397c0,0.525-0.352,1.049-0.873,1.049c-0.702,0-0.872,0.35-0.872,1.224
		v1.223h0.526c0.871,0,1.396,0.348,1.396,1.223c0,0.873-0.525,1.047-1.396,1.047h-0.526v9.608c0,1.222-0.525,1.743-1.574,1.743
		c-1.046,0-1.57-0.523-1.57-1.743L112.908,43.079L112.908,43.079z"/>
	<path fill="#004C99" d="M118.675,45.698c0-2.794,0.872-5.239,4.541-5.239c3.668,0,4.541,2.271,4.541,5.239v3.668
		c0,2.797-0.873,5.238-4.541,5.238c-3.669,0-4.541-2.271-4.541-5.238V45.698z M121.817,49.015c0,2.447,0.35,3.145,1.399,3.145
		c1.046,0,1.396-0.524,1.396-3.145v-3.143c0-2.442-0.525-2.967-1.396-2.967c-0.873,0-1.399,0.522-1.399,2.967V49.015z"/>
	<path fill="#004C99" d="M130.023,42.029c0-1.048,0.351-1.571,1.4-1.571c1.046,0,1.396,0.696,1.396,1.571v1.223l0,0
		c0.525-1.744,1.223-2.969,2.27-2.969c0.871,0,1.396,0.525,1.396,1.919c0,0.876-0.525,1.749-1.921,1.749
		c-0.872,0-1.744,0.7-1.744,1.745v6.636c0,1.224-0.525,1.748-1.573,1.748c-0.873,0-1.571-0.525-1.571-1.748V42.028h0.348V42.029z"/>
	<path fill="#004C99" d="M152.557,52.685c0,1.223-0.526,1.745-1.571,1.745c-1.048,0-1.574-0.525-1.574-1.745v-8.208
		c0-1.047-0.524-1.398-1.223-1.398c-0.872,0-1.569,0.697-1.569,2.444v7.162c0,1.223-0.525,1.745-1.57,1.745
		c-1.05,0-1.574-0.525-1.574-1.745v-8.208c0-1.047-0.524-1.398-1.219-1.398c-0.872,0-1.573,0.697-1.573,2.444v7.16
		c0,1.224-0.526,1.744-1.574,1.744c-0.872,0-1.57-0.526-1.57-1.744V42.201c0-1.22,0.525-1.744,1.57-1.744
		c0.875,0,1.574,0.523,1.574,1.744l0,0c0.524-1.22,1.573-1.744,2.792-1.744c1.4,0,2.1,0.348,2.62,1.571
		c0.872-1.047,1.747-1.571,2.971-1.571c1.744,0,2.967,1.046,2.967,3.318v8.906L152.557,52.685L152.557,52.685z"/>
	<path fill="#004C99" d="M163.559,51.287c0,0.872,0.177,1.574,0.177,1.921c0,0.872-0.525,1.223-1.569,1.223
		c-0.873,0-1.574-0.351-1.574-1.745l0,0c-0.521,1.224-1.57,1.745-2.793,1.745c-1.747,0-3.145-1.049-3.145-3.669
		c0-2.095,0.525-3.144,2.096-4.016l2.619-1.397c0.701-0.351,1.05-0.871,1.05-1.397c0-0.699-0.348-1.396-1.219-1.396
		c-1.049,0-1.396,0.524-1.396,1.571c0,0.525-0.702,1.045-1.399,1.045c-0.695,0-1.57-0.347-1.57-1.22
		c0-2.271,1.921-3.494,4.192-3.494c4.017,0,4.541,1.747,4.541,4.018v6.81h-0.009V51.287z M160.592,47.271l-1.049,0.695
		c-1.396,0.873-1.57,1.396-1.57,2.619c0,1.049,0.352,1.573,1.047,1.573c1.048,0,1.573-1.048,1.573-2.445L160.592,47.271
		L160.592,47.271z"/>
	<path fill="#004C99" d="M171.767,45.698c0-2.794,0.525-5.239,3.145-5.239c1.049,0,2.098,0.523,2.618,1.571l0,0v-4.19
		c0-1.223,0.523-1.747,1.573-1.747c1.048,0,1.568,0.525,1.568,1.747v14.846c0,1.224-0.525,1.745-1.568,1.745
		c-0.873,0-1.573-0.696-1.573-1.57l0,0c-0.525,1.048-1.572,1.57-2.618,1.57c-2.797,0-3.145-2.445-3.145-5.237V45.698z
		 M174.911,48.491c0,2.271,0.173,3.494,1.223,3.494c1.223,0,1.565-1.397,1.565-3.318v-2.446c0-2.618-0.692-3.317-1.396-3.317
		c-1.046,0-1.223,0.873-1.223,3.668v1.919H174.911L174.911,48.491z"/>
	<path fill="#004C99" d="M191.853,51.287c0,0.872,0.174,1.574,0.174,1.921c0,0.872-0.524,1.223-1.569,1.223
		c-0.877,0-1.576-0.351-1.576-1.745l0,0c-0.524,1.224-1.569,1.745-2.792,1.745c-1.748,0-3.145-1.049-3.145-3.669
		c0-2.095,0.524-3.144,2.095-4.016l2.619-1.397c0.698-0.351,1.05-0.871,1.05-1.397c0-0.699-0.352-1.396-1.223-1.396
		c-1.047,0-1.396,0.524-1.396,1.571c0,0.525-0.699,1.045-1.396,1.045c-0.702,0-1.575-0.347-1.575-1.22
		c0-2.271,1.924-3.494,4.191-3.494c4.018,0,4.541,1.747,4.541,4.018v6.812H191.853z M188.88,47.271l-1.046,0.695
		c-1.397,0.873-1.57,1.396-1.57,2.619c0,1.049,0.347,1.573,1.045,1.573c1.049,0,1.571-1.048,1.571-2.445V47.271L188.88,47.271z"/>
	<path fill="#004C99" d="M200.062,43.252c0-6.463,2.616-7.336,5.413-7.336c2.795,0,5.412,0.698,5.412,7.336v3.843
		c0,2.619-0.35,4.188-1.045,5.412l0.869,0.871c0.526,0.526,0.698,0.875,0.698,1.227c0,0.526-0.524,1.046-1.049,1.046
		c-0.522,0-0.872-0.351-1.571-0.872l-0.696-0.696c-0.872,0.523-1.746,0.523-2.796,0.523c-3.144,0-5.412-0.87-5.412-7.51v-3.842
		h0.177V43.252z M203.553,46.921c0,4.361,0.699,4.89,1.926,4.89c0.173,0,0.52,0,0.694-0.175l-0.175-0.176
		c-0.351-0.351-0.525-0.523-0.525-0.872c0-0.699,0.525-1.047,1.22-1.047c0.178,0,0.351,0,0.526,0.35
		c0.175-0.698,0.175-1.573,0.175-2.969v-3.843c0-3.844-0.697-4.716-1.921-4.716c-1.223,0-1.925,0.873-1.925,4.716v3.843
		L203.553,46.921L203.553,46.921z"/>
	<path fill="#004C99" d="M213.332,42.202c0-1.221,0.525-1.744,1.57-1.744c1.05,0,1.573,0.522,1.573,1.744v8.211
		c0,1.05,0.349,1.397,1.221,1.397c1.049,0,1.574-0.699,1.574-2.444v-7.16c0-1.223,0.523-1.747,1.57-1.747
		c0.871,0,1.573,0.525,1.573,1.747v10.479c0,1.224-0.524,1.746-1.573,1.746c-0.872,0-1.57-0.524-1.57-1.746l0,0
		c-0.525,1.224-1.574,1.746-2.795,1.746c-1.75,0-2.973-1.05-2.973-3.319v-8.905L213.332,42.202L213.332,42.202z"/>
	<path fill="#004C99" d="M233.066,51.287c0,0.872,0.177,1.574,0.177,1.921c0,0.872-0.526,1.223-1.572,1.223
		c-0.873,0-1.571-0.351-1.571-1.745l0,0c-0.526,1.224-1.571,1.745-2.797,1.745c-1.745,0-3.144-1.049-3.144-3.669
		c0-2.095,0.526-3.144,2.099-4.016l2.617-1.397c0.697-0.351,1.046-0.871,1.046-1.397c0-0.699-0.348-1.396-1.223-1.396
		c-1.045,0-1.396,0.524-1.396,1.571c0,0.525-0.698,1.045-1.396,1.045c-0.697,0-1.572-0.347-1.572-1.22
		c0-2.271,1.923-3.494,4.189-3.494c4.017,0,4.541,1.747,4.541,4.018v6.812H233.066z M230.1,47.271l-1.049,0.695
		c-1.396,0.873-1.572,1.396-1.572,2.619c0,1.049,0.352,1.573,1.047,1.573c1.05,0,1.574-1.048,1.574-2.445V47.271L230.1,47.271z"/>
	<path fill="#004C99" d="M235.863,37.84c0-1.223,0.525-1.748,1.571-1.748c1.049,0,1.57,0.525,1.57,1.748v14.846
		c0,1.224-0.521,1.745-1.57,1.745c-1.05,0-1.571-0.524-1.571-1.745V37.84z"/>
	<path fill="#004C99" d="M243.195,35.916c1.049,0,1.748,0.698,1.748,1.745c0,1.048-0.699,1.747-1.748,1.747
		c-1.047,0-1.742-0.699-1.742-1.747C241.453,36.617,242.324,35.916,243.195,35.916z M241.798,42.202
		c0-1.221,0.526-1.744,1.571-1.744c1.051,0,1.576,0.522,1.576,1.744v10.482c0,1.223-0.525,1.743-1.576,1.743
		c-1.049,0-1.571-0.525-1.571-1.743V42.202z"/>
	<path fill="#004C99" d="M247.217,45.698c0-2.794,0.524-5.239,3.144-5.239c1.049,0,2.094,0.523,2.618,1.571l0,0v-4.19
		c0-1.223,0.528-1.747,1.57-1.747c1.049,0,1.575,0.525,1.575,1.747v14.846c0,1.224-0.526,1.745-1.575,1.745
		c-0.87,0-1.57-0.696-1.57-1.57l0,0c-0.524,1.048-1.569,1.57-2.618,1.57c-2.798,0-3.144-2.445-3.144-5.237V45.698z M250.356,48.491
		c0,2.271,0.177,3.494,1.223,3.494c1.223,0,1.57-1.397,1.57-3.318v-2.446c0-2.618-0.696-3.317-1.396-3.317
		c-1.046,0-1.223,0.873-1.223,3.668v1.919H250.356L250.356,48.491z"/>
	<path fill="#004C99" d="M267.475,51.287c0,0.872,0.174,1.574,0.174,1.921c0,0.872-0.525,1.223-1.57,1.223
		c-0.871,0-1.569-0.351-1.569-1.745l0,0c-0.525,1.224-1.574,1.745-2.798,1.745c-1.745,0-3.145-1.049-3.145-3.669
		c0-2.095,0.526-3.144,2.096-4.016l2.618-1.397c0.699-0.351,1.055-0.871,1.055-1.397c0-0.699-0.352-1.396-1.224-1.396
		c-1.054,0-1.4,0.524-1.4,1.571c0,0.525-0.696,1.045-1.396,1.045c-0.699,0-1.575-0.347-1.575-1.22c0-2.271,1.924-3.494,4.189-3.494
		c4.019,0,4.544,1.747,4.544,4.018v6.812H267.475z M264.332,47.271l-1.049,0.695c-1.398,0.873-1.571,1.396-1.571,2.619
		c0,1.049,0.349,1.573,1.046,1.573c1.049,0,1.574-1.048,1.574-2.445V47.271z"/>
	<path fill="#004C99" d="M269.57,45.698c0-2.794,0.526-5.239,3.143-5.239c1.049,0,2.096,0.523,2.62,1.571l0,0v-4.19
		c0-1.223,0.524-1.747,1.574-1.747c1.046,0,1.57,0.525,1.57,1.747v14.846c0,1.224-0.527,1.745-1.57,1.745
		c-0.876,0-1.574-0.696-1.574-1.57l0,0c-0.524,1.048-1.571,1.57-2.62,1.57c-2.797,0-3.143-2.445-3.143-5.237V45.698z
		 M272.888,48.491c0,2.271,0.178,3.494,1.223,3.494c1.22,0,1.57-1.397,1.57-3.318v-2.446c0-2.618-0.698-3.317-1.396-3.317
		c-1.05,0-1.223,0.873-1.223,3.668v1.919H272.888L272.888,48.491z"/>
	<path fill="#004C99" d="M280.923,46.049c0-3.496,0.524-5.59,4.54-5.59c3.148,0,4.191,1.744,4.191,5.238
		c0,1.223-0.176,2.095-1.746,2.095h-4.015v1.399c0,1.571,0.174,2.795,1.396,2.795c0.695,0,1.223-0.698,1.223-1.397
		c0-1.397,0.693-1.574,1.396-1.574c0.872,0,1.572,0.352,1.572,1.397c0,2.446-1.572,3.842-4.017,3.842
		c-4.02,0-4.539-2.27-4.539-5.589v-2.615H280.923z M286.859,45.698v-1.049c0-1.048-0.347-1.745-1.396-1.745
		c-1.049,0-1.4,0.873-1.4,1.745v1.049H286.859z"/>
	<path fill="#004C99" d="M297.514,45.698c0-2.794,0.525-5.239,3.144-5.239c1.05,0,2.096,0.523,2.62,1.571l0,0v-4.19
		c0-1.223,0.525-1.747,1.57-1.747c1.051,0,1.577,0.525,1.577,1.747v14.846c0,1.224-0.526,1.745-1.577,1.745
		c-0.87,0-1.57-0.696-1.57-1.57l0,0c-0.524,1.048-1.57,1.57-2.62,1.57c-2.796,0-3.144-2.445-3.144-5.237V45.698z M300.657,48.491
		c0,2.271,0.175,3.494,1.224,3.494c1.223,0,1.571-1.397,1.571-3.318v-2.446c0-2.618-0.698-3.317-1.397-3.317
		c-1.049,0-1.223,0.873-1.223,3.668v1.919H300.657L300.657,48.491z"/>
	<path fill="#004C99" d="M308.865,45.698c0-2.794,0.878-5.239,4.543-5.239c3.669,0,4.539,2.271,4.539,5.239v3.668
		c0,2.797-0.876,5.238-4.539,5.238c-3.665,0-4.543-2.271-4.543-5.238V45.698z M312.011,49.015c0,2.447,0.349,3.145,1.397,3.145
		s1.397-0.524,1.397-3.145v-3.143c0-2.442-0.523-2.967-1.397-2.967c-0.872,0-1.397,0.522-1.397,2.967V49.015z"/>
	<path fill="#004C99" d="M328.252,49.714l-0.695,3.146c-0.18,1.048-0.7,1.571-1.745,1.571c-1.05,0-1.575-0.524-1.575-1.397
		c0-0.349,0-0.872,0.175-1.396l3.146-13.274c0.349-1.746,0.872-2.271,2.798-2.271c1.743,0,2.27,0.526,2.794,2.271l3.145,13.274
		c0.171,0.522,0.171,1.048,0.171,1.396c0,1.049-0.87,1.571-1.565,1.571c-1.227,0-1.747-0.524-1.924-2.094l-0.526-2.621h-4.191
		v-0.176H328.252z M331.747,47.095l-1.397-7.336l0,0l-1.573,7.336H331.747z"/>
	<path fill="#004C99" d="M338.034,42.029c0-1.048,0.348-1.571,1.396-1.571c1.05,0,1.396,0.696,1.396,1.571v1.223l0,0
		c0.528-1.744,1.223-2.969,2.276-2.969c0.872,0,1.397,0.525,1.397,1.919c0,0.876-0.525,1.749-1.921,1.749
		c-0.876,0-1.75,0.7-1.75,1.745v6.636c0,1.224-0.522,1.748-1.571,1.748s-1.57-0.525-1.57-1.748V42.028h0.347V42.029z"/>
</g>
</svg>
