<?xml version="1.0" encoding="utf-8"?>
<!-- Generator: Adobe Illustrator 16.0.0, SVG Export Plug-In . SVG Version: 6.00 Build 0)  -->
<!DOCTYPE svg PUBLIC "-//W3C//DTD SVG 1.1//EN" "http://www.w3.org/Graphics/SVG/1.1/DTD/svg11.dtd">
<svg version="1.1" id="Camada_1" xmlns="http://www.w3.org/2000/svg" xmlns:xlink="http://www.w3.org/1999/xlink" x="0px" y="0px"
	 width="255.5px" height="57.5px" viewBox="0 0 255.5 57.5" enable-background="new 0 0 255.5 57.5" xml:space="preserve">
<g>
	<path fill="#247678" d="M1.193,39.793l2.317-2.257h1.223l-2.646,2.257H1.193z M1.43,51.113V40.672h1.3v10.441H1.43z"/>
	<path fill="#247678" d="M5.124,51.113v-7.561h1.168v1.092c0.296-0.351,0.687-0.652,1.173-0.905c0.487-0.25,0.992-0.378,1.517-0.378
		c1.606,0,2.409,0.816,2.409,2.449v5.306h-1.168V46.17c0-0.632-0.147-1.083-0.437-1.354c-0.29-0.27-0.708-0.402-1.253-0.402
		c-0.438,0-0.863,0.112-1.272,0.344c-0.411,0.229-0.734,0.508-0.968,0.834v5.527L5.124,51.113L5.124,51.113z"/>
	<path fill="#247678" d="M13.306,47.343c0-1.2,0.313-2.164,0.938-2.892c0.624-0.726,1.435-1.09,2.435-1.09
		c0.505,0,0.979,0.117,1.419,0.353c0.44,0.233,0.817,0.56,1.129,0.979v-4.021h1.169v10.441h-1.167v-1.116
		c-0.296,0.396-0.667,0.713-1.109,0.949c-0.443,0.24-0.923,0.355-1.438,0.355c-0.999,0-1.811-0.355-2.435-1.071
		C13.619,49.517,13.306,48.553,13.306,47.343z M15.184,45.232c-0.435,0.548-0.653,1.251-0.653,2.108
		c0,0.856,0.219,1.557,0.653,2.103c0.436,0.543,1.025,0.813,1.771,0.813c0.458,0,0.899-0.113,1.319-0.34
		c0.421-0.228,0.738-0.51,0.952-0.846v-3.438c-0.22-0.341-0.54-0.629-0.959-0.868c-0.421-0.239-0.858-0.355-1.312-0.355
		C16.208,44.409,15.62,44.684,15.184,45.232z"/>
	<path fill="#247678" d="M22.775,42.246c-0.155-0.153-0.233-0.342-0.233-0.56c0-0.219,0.078-0.405,0.233-0.562
		c0.157-0.154,0.338-0.233,0.547-0.233c0.219,0,0.408,0.077,0.567,0.233c0.157,0.156,0.238,0.344,0.238,0.562
		c0,0.217-0.081,0.406-0.238,0.56c-0.159,0.151-0.348,0.229-0.567,0.229C23.114,42.475,22.933,42.398,22.775,42.246z M22.75,51.113
		v-7.561h1.169v7.561H22.75z"/>
	<path fill="#247678" d="M25.825,47.324c0-0.742,0.157-1.417,0.471-2.018c0.314-0.599,0.758-1.074,1.334-1.423
		c0.577-0.351,1.234-0.525,1.973-0.525c1.168,0,2.091,0.44,2.769,1.316l-0.781,0.721c-0.484-0.657-1.127-0.986-1.927-0.986
		c-0.796,0-1.429,0.273-1.904,0.816c-0.474,0.549-0.712,1.247-0.712,2.099c0,0.854,0.238,1.556,0.712,2.105
		c0.474,0.55,1.108,0.825,1.904,0.825c0.791,0,1.432-0.328,1.927-0.986l0.781,0.729c-0.678,0.871-1.601,1.308-2.769,1.308
		c-0.739,0-1.396-0.175-1.973-0.521c-0.576-0.351-1.02-0.827-1.334-1.43C25.981,48.748,25.825,48.073,25.825,47.324z"/>
	<path fill="#247678" d="M33.572,47.322c0-0.725,0.159-1.389,0.475-1.991c0.317-0.604,0.761-1.083,1.331-1.439
		c0.569-0.352,1.206-0.529,1.913-0.529c0.747,0,1.399,0.185,1.957,0.543c0.558,0.36,0.979,0.847,1.262,1.456
		c0.283,0.61,0.426,1.296,0.426,2.062v0.297h-6.142c0.046,0.741,0.316,1.361,0.809,1.861c0.493,0.501,1.133,0.753,1.918,0.753
		c0.438,0,0.865-0.082,1.28-0.252c0.414-0.166,0.768-0.403,1.064-0.704l0.562,0.766c-0.775,0.776-1.781,1.161-3.013,1.161
		c-1.125,0-2.045-0.367-2.764-1.108C33.932,49.456,33.572,48.5,33.572,47.322z M34.794,46.855h4.971
		c-0.005-0.296-0.057-0.584-0.158-0.87c-0.099-0.287-0.246-0.554-0.44-0.807c-0.194-0.253-0.456-0.457-0.782-0.614
		c-0.326-0.153-0.697-0.231-1.109-0.231c-0.388,0-0.741,0.078-1.058,0.229c-0.317,0.153-0.574,0.353-0.77,0.601
		c-0.196,0.247-0.352,0.518-0.463,0.807C34.874,46.261,34.81,46.555,34.794,46.855z"/>
	<path fill="#247678" d="M46.426,47.343c0-1.2,0.312-2.164,0.938-2.892c0.623-0.726,1.436-1.09,2.435-1.09
		c0.504,0,0.978,0.117,1.419,0.353c0.44,0.233,0.815,0.56,1.127,0.979v-4.021h1.169v10.441h-1.169v-1.116
		c-0.296,0.396-0.666,0.713-1.108,0.949c-0.444,0.24-0.923,0.355-1.438,0.355c-1,0-1.811-0.355-2.435-1.071
		C46.74,49.517,46.426,48.553,46.426,47.343z M48.305,45.232c-0.436,0.548-0.653,1.251-0.653,2.108c0,0.856,0.217,1.557,0.653,2.103
		c0.435,0.543,1.025,0.813,1.77,0.813c0.458,0,0.899-0.113,1.319-0.34c0.422-0.228,0.738-0.51,0.952-0.846v-3.438
		c-0.219-0.341-0.539-0.629-0.961-0.868c-0.421-0.239-0.858-0.355-1.312-0.355C49.33,44.409,48.74,44.684,48.305,45.232z"/>
	<path fill="#247678" d="M55.429,47.322c0-0.725,0.161-1.389,0.477-1.991c0.317-0.604,0.761-1.083,1.329-1.439
		c0.57-0.352,1.207-0.529,1.914-0.529c0.747,0,1.398,0.185,1.956,0.543c0.558,0.36,0.979,0.847,1.263,1.456
		c0.284,0.61,0.427,1.296,0.427,2.062v0.297h-6.142c0.047,0.741,0.316,1.361,0.809,1.861c0.494,0.501,1.133,0.753,1.917,0.753
		c0.441,0,0.867-0.082,1.281-0.252c0.414-0.166,0.769-0.403,1.065-0.704l0.562,0.766c-0.777,0.776-1.78,1.161-3.012,1.161
		c-1.125,0-2.046-0.367-2.764-1.108C55.788,49.456,55.429,48.5,55.429,47.322z M56.649,46.855h4.972
		c-0.006-0.296-0.057-0.584-0.158-0.87c-0.099-0.287-0.246-0.554-0.44-0.807c-0.194-0.253-0.454-0.457-0.782-0.614
		c-0.326-0.153-0.696-0.231-1.111-0.231c-0.388,0-0.74,0.078-1.058,0.229c-0.317,0.153-0.573,0.353-0.769,0.601
		c-0.196,0.247-0.351,0.518-0.464,0.807C56.73,46.261,56.666,46.555,56.649,46.855z"/>
	<path fill="#247678" d="M68.772,51.113V40.672h4.198c1.01,0,1.808,0.301,2.395,0.905c0.586,0.604,0.878,1.352,0.878,2.241
		c0,0.891-0.294,1.64-0.886,2.243c-0.594,0.605-1.388,0.907-2.388,0.907h-2.898v4.144h-1.298L68.772,51.113L68.772,51.113z
		 M70.073,45.809h2.737c0.618,0,1.119-0.184,1.506-0.552c0.387-0.367,0.582-0.848,0.582-1.438c0-0.588-0.195-1.067-0.582-1.435
		c-0.388-0.365-0.89-0.552-1.506-0.552h-2.737V45.809z"/>
	<path fill="#247678" d="M77.918,51.113v-7.561h1.168v1.222c0.326-0.421,0.706-0.759,1.135-1.006
		c0.432-0.251,0.894-0.377,1.391-0.377v1.208c-0.138-0.03-0.297-0.045-0.476-0.045c-0.356,0-0.744,0.126-1.163,0.374
		c-0.417,0.25-0.713,0.528-0.888,0.834v5.352H77.918L77.918,51.113z"/>
	<path fill="#247678" d="M83.089,49.33c-0.301-0.603-0.453-1.269-0.453-2.002c0-0.735,0.15-1.4,0.453-2
		c0.301-0.598,0.738-1.074,1.312-1.431c0.574-0.355,1.234-0.536,1.984-0.536c0.748,0,1.408,0.181,1.981,0.536
		c0.569,0.355,1.002,0.835,1.299,1.431c0.296,0.6,0.444,1.265,0.444,2c0,0.733-0.148,1.401-0.444,2.002
		c-0.297,0.599-0.73,1.078-1.299,1.438c-0.571,0.358-1.231,0.537-1.981,0.537s-1.412-0.181-1.984-0.537
		C83.828,50.408,83.39,49.929,83.089,49.33z M83.86,47.324c0,0.817,0.228,1.51,0.68,2.078c0.455,0.568,1.07,0.853,1.845,0.853
		c0.52,0,0.971-0.138,1.355-0.41c0.386-0.275,0.674-0.631,0.861-1.068c0.19-0.436,0.283-0.92,0.283-1.451
		c0-0.524-0.093-1.004-0.283-1.438c-0.187-0.435-0.475-0.789-0.861-1.064c-0.384-0.274-0.835-0.411-1.355-0.411
		s-0.975,0.137-1.367,0.411c-0.389,0.275-0.679,0.631-0.87,1.067C83.958,46.324,83.86,46.805,83.86,47.324z"/>
	<path fill="#247678" d="M91.595,47.293c0-1.199,0.31-2.153,0.932-2.865c0.623-0.709,1.435-1.066,2.441-1.066
		c0.503,0,0.974,0.116,1.41,0.35c0.436,0.232,0.811,0.558,1.121,0.982v-1.14h1.171v7.338c0,0.484-0.066,0.917-0.2,1.299
		c-0.131,0.385-0.31,0.698-0.531,0.941c-0.22,0.244-0.488,0.447-0.801,0.608s-0.637,0.275-0.978,0.341
		c-0.336,0.065-0.7,0.1-1.086,0.1c-0.672,0-1.243-0.081-1.707-0.244c-0.462-0.163-0.913-0.456-1.348-0.879l0.589-0.881
		c0.306,0.367,0.655,0.631,1.049,0.791c0.391,0.16,0.862,0.242,1.415,0.242c0.325,0,0.628-0.041,0.909-0.127
		c0.279-0.086,0.537-0.213,0.769-0.386c0.232-0.176,0.412-0.411,0.545-0.715c0.132-0.298,0.201-0.647,0.201-1.046V49.86
		c-0.293,0.402-0.66,0.727-1.1,0.975c-0.445,0.248-0.923,0.369-1.431,0.369c-1.004,0-1.815-0.35-2.438-1.054
		C91.906,49.447,91.595,48.492,91.595,47.293z M92.816,47.299c0,0.849,0.219,1.541,0.656,2.082c0.435,0.536,1.024,0.808,1.767,0.808
		c0.455,0,0.89-0.122,1.31-0.363c0.417-0.241,0.732-0.535,0.947-0.877v-3.312c-0.208-0.343-0.523-0.634-0.944-0.871
		c-0.422-0.238-0.86-0.356-1.312-0.356c-0.75,0-1.341,0.269-1.773,0.806C93.034,45.75,92.816,46.444,92.816,47.299z"/>
	<path fill="#247678" d="M101.022,51.113v-7.561h1.169v1.222c0.326-0.421,0.704-0.759,1.135-1.006
		c0.431-0.251,0.894-0.377,1.389-0.377v1.208c-0.138-0.03-0.296-0.045-0.476-0.045c-0.356,0-0.744,0.126-1.163,0.374
		c-0.419,0.25-0.714,0.528-0.886,0.834v5.352H101.022L101.022,51.113z"/>
	<path fill="#247678" d="M105.744,47.322c0-0.725,0.157-1.389,0.476-1.991c0.318-0.604,0.761-1.083,1.33-1.439
		c0.569-0.352,1.206-0.529,1.914-0.529c0.746,0,1.398,0.185,1.956,0.543c0.557,0.36,0.979,0.847,1.263,1.456
		c0.283,0.61,0.425,1.296,0.425,2.062v0.297h-6.139c0.045,0.741,0.313,1.361,0.809,1.861c0.493,0.501,1.132,0.753,1.917,0.753
		c0.44,0,0.865-0.082,1.282-0.252c0.412-0.166,0.766-0.403,1.064-0.704l0.562,0.766c-0.776,0.776-1.781,1.161-3.013,1.161
		c-1.124,0-2.045-0.367-2.764-1.108C106.1,49.456,105.744,48.5,105.744,47.322z M106.965,46.855h4.974
		c-0.008-0.296-0.058-0.584-0.159-0.87c-0.099-0.287-0.244-0.554-0.44-0.807c-0.195-0.253-0.455-0.457-0.781-0.614
		c-0.325-0.153-0.695-0.231-1.11-0.231c-0.387,0-0.741,0.078-1.057,0.229c-0.317,0.153-0.574,0.353-0.769,0.601
		c-0.197,0.247-0.352,0.518-0.464,0.807C107.045,46.261,106.979,46.555,106.965,46.855z"/>
	<path fill="#247678" d="M114.342,50.098l0.605-0.844c0.271,0.304,0.628,0.562,1.077,0.771c0.45,0.205,0.921,0.311,1.416,0.311
		c0.566,0,1.007-0.119,1.321-0.357c0.315-0.238,0.472-0.551,0.472-0.937c0-0.244-0.086-0.448-0.259-0.617
		c-0.172-0.167-0.4-0.291-0.679-0.369c-0.278-0.081-0.582-0.167-0.908-0.259c-0.326-0.093-0.657-0.188-0.994-0.283
		c-0.335-0.095-0.642-0.219-0.916-0.364c-0.277-0.147-0.502-0.354-0.674-0.629c-0.176-0.271-0.262-0.594-0.262-0.968
		c0-0.621,0.253-1.141,0.756-1.562c0.505-0.418,1.191-0.628,2.062-0.628c1.134,0,2.067,0.371,2.804,1.114l-0.542,0.807
		c-0.237-0.282-0.554-0.512-0.955-0.688c-0.399-0.174-0.836-0.262-1.307-0.262c-0.505,0-0.911,0.115-1.217,0.351
		s-0.459,0.525-0.459,0.877c0,0.232,0.083,0.425,0.249,0.576c0.169,0.151,0.392,0.266,0.665,0.345
		c0.274,0.077,0.577,0.161,0.906,0.255c0.326,0.092,0.66,0.188,1,0.28c0.339,0.097,0.646,0.221,0.923,0.369
		c0.278,0.148,0.502,0.362,0.679,0.641c0.177,0.275,0.265,0.604,0.265,0.985c0,0.666-0.261,1.213-0.781,1.645
		c-0.521,0.433-1.251,0.648-2.197,0.648C116.107,51.305,115.093,50.901,114.342,50.098z"/>
	<path fill="#247678" d="M121.622,50.098l0.606-0.844c0.269,0.304,0.628,0.562,1.077,0.771c0.447,0.205,0.92,0.311,1.413,0.311
		c0.569,0,1.009-0.119,1.324-0.357c0.312-0.238,0.472-0.551,0.472-0.937c0-0.244-0.086-0.448-0.259-0.617
		c-0.174-0.167-0.401-0.291-0.679-0.369c-0.278-0.081-0.582-0.167-0.908-0.259c-0.326-0.093-0.658-0.188-0.994-0.283
		c-0.336-0.097-0.642-0.219-0.916-0.364c-0.277-0.147-0.501-0.354-0.675-0.629c-0.172-0.271-0.259-0.594-0.259-0.968
		c0-0.621,0.251-1.141,0.756-1.562c0.504-0.417,1.19-0.628,2.062-0.628c1.133,0,2.068,0.371,2.804,1.114l-0.543,0.807
		c-0.233-0.282-0.553-0.512-0.953-0.688c-0.4-0.174-0.837-0.262-1.308-0.262c-0.505,0-0.91,0.115-1.219,0.351
		c-0.307,0.235-0.46,0.525-0.46,0.877c0,0.232,0.086,0.425,0.253,0.576c0.168,0.151,0.389,0.266,0.665,0.345
		c0.273,0.077,0.574,0.161,0.905,0.255c0.328,0.092,0.66,0.188,0.999,0.28c0.339,0.097,0.646,0.221,0.923,0.369
		c0.278,0.148,0.503,0.362,0.68,0.641c0.174,0.275,0.265,0.604,0.265,0.985c0,0.666-0.261,1.213-0.782,1.645
		c-0.52,0.433-1.252,0.648-2.196,0.648C123.39,51.305,122.371,50.901,121.622,50.098z"/>
	<path fill="#247678" d="M129.571,49.33c-0.301-0.603-0.453-1.269-0.453-2.002c0-0.735,0.149-1.4,0.453-2
		c0.299-0.598,0.735-1.074,1.311-1.431c0.574-0.355,1.236-0.536,1.982-0.536c0.751,0,1.411,0.181,1.979,0.536
		c0.569,0.355,1.003,0.835,1.302,1.431c0.297,0.6,0.442,1.265,0.442,2c0,0.733-0.146,1.401-0.442,2.002
		c-0.297,0.599-0.729,1.078-1.302,1.438c-0.568,0.358-1.229,0.537-1.979,0.537c-0.748,0-1.408-0.181-1.982-0.537
		C130.308,50.408,129.871,49.929,129.571,49.33z M130.34,47.324c0,0.817,0.228,1.51,0.68,2.078c0.454,0.568,1.069,0.853,1.844,0.853
		c0.521,0,0.974-0.138,1.357-0.41c0.385-0.275,0.672-0.631,0.861-1.068c0.188-0.436,0.282-0.92,0.282-1.451
		c0-0.524-0.096-1.004-0.282-1.438c-0.189-0.435-0.478-0.789-0.861-1.064c-0.384-0.274-0.837-0.411-1.357-0.411
		s-0.977,0.137-1.365,0.411c-0.389,0.275-0.68,0.631-0.869,1.067C130.437,46.324,130.34,46.805,130.34,47.324z"/>
	<path fill="#247678" d="M141.974,49.641l0.765-0.985c0.388,0.433,0.858,0.788,1.423,1.067c0.562,0.28,1.183,0.421,1.866,0.421
		c0.442,0,0.832-0.057,1.166-0.167c0.33-0.108,0.591-0.254,0.772-0.438c0.181-0.185,0.312-0.374,0.396-0.574
		c0.085-0.197,0.128-0.403,0.128-0.618c0-0.285-0.069-0.536-0.208-0.754c-0.143-0.215-0.331-0.394-0.569-0.525
		c-0.242-0.137-0.518-0.251-0.831-0.346c-0.312-0.092-0.637-0.19-0.979-0.292c-0.342-0.104-0.684-0.204-1.021-0.307
		c-0.344-0.103-0.669-0.229-0.976-0.379c-0.31-0.148-0.582-0.323-0.823-0.519s-0.43-0.447-0.57-0.756
		c-0.139-0.31-0.21-0.66-0.21-1.055c0-0.854,0.341-1.55,1.018-2.089c0.678-0.538,1.535-0.807,2.569-0.807
		c1.55,0,2.786,0.486,3.709,1.46l-0.779,0.955c-0.757-0.835-1.762-1.252-3.021-1.252c-0.632,0-1.147,0.154-1.547,0.462
		c-0.402,0.309-0.603,0.708-0.603,1.198c0,0.249,0.07,0.468,0.211,0.657c0.138,0.188,0.327,0.344,0.566,0.466
		c0.239,0.118,0.512,0.225,0.825,0.313c0.31,0.092,0.639,0.188,0.98,0.289c0.346,0.103,0.686,0.2,1.023,0.3
		c0.342,0.101,0.667,0.231,0.977,0.392c0.31,0.159,0.581,0.347,0.822,0.559c0.242,0.21,0.43,0.479,0.57,0.806
		c0.14,0.322,0.21,0.694,0.21,1.111c0,0.315-0.043,0.619-0.126,0.905c-0.084,0.29-0.224,0.568-0.421,0.833
		c-0.196,0.268-0.44,0.5-0.729,0.692c-0.292,0.191-0.656,0.348-1.099,0.463c-0.44,0.119-0.935,0.178-1.479,0.178
		C144.297,51.305,142.962,50.749,141.974,49.641z"/>
	<path fill="#247678" d="M151.739,49.33c-0.302-0.603-0.451-1.269-0.451-2.002c0-0.735,0.147-1.4,0.451-2
		c0.299-0.598,0.737-1.074,1.312-1.431c0.574-0.355,1.235-0.536,1.982-0.536c0.751,0,1.412,0.181,1.981,0.536
		c0.569,0.355,1.001,0.835,1.3,1.431c0.297,0.6,0.445,1.265,0.445,2c0,0.733-0.148,1.401-0.445,2.002
		c-0.297,0.599-0.729,1.078-1.3,1.438c-0.57,0.358-1.23,0.537-1.981,0.537c-0.747,0-1.408-0.181-1.982-0.537
		C152.479,50.408,152.039,49.929,151.739,49.33z M152.512,47.324c0,0.817,0.228,1.51,0.681,2.078
		c0.452,0.568,1.066,0.853,1.841,0.853c0.521,0,0.974-0.138,1.358-0.41c0.384-0.275,0.671-0.631,0.86-1.068
		c0.189-0.436,0.281-0.92,0.281-1.451c0-0.524-0.092-1.004-0.281-1.438c-0.189-0.435-0.475-0.789-0.86-1.064
		c-0.386-0.274-0.836-0.411-1.358-0.411c-0.52,0-0.975,0.137-1.362,0.411c-0.391,0.275-0.683,0.631-0.872,1.067
		C152.608,46.324,152.512,46.805,152.512,47.324z"/>
	<path fill="#247678" d="M160.242,47.324c0-0.742,0.158-1.417,0.473-2.018c0.312-0.599,0.759-1.074,1.332-1.423
		c0.576-0.351,1.234-0.525,1.976-0.525c1.166,0,2.089,0.44,2.769,1.316l-0.781,0.721c-0.484-0.657-1.129-0.986-1.926-0.986
		s-1.43,0.273-1.905,0.816c-0.476,0.549-0.713,1.247-0.713,2.099c0,0.854,0.237,1.556,0.713,2.105
		c0.474,0.551,1.104,0.825,1.905,0.825c0.789,0,1.431-0.328,1.926-0.986l0.781,0.729c-0.68,0.871-1.604,1.308-2.769,1.308
		c-0.741,0-1.397-0.175-1.976-0.521c-0.573-0.351-1.02-0.827-1.332-1.43C160.4,48.748,160.242,48.073,160.242,47.324z"/>
	<path fill="#247678" d="M168.461,42.246c-0.157-0.153-0.236-0.342-0.236-0.56c0-0.219,0.079-0.405,0.236-0.562
		c0.154-0.154,0.338-0.233,0.546-0.233c0.219,0,0.405,0.077,0.565,0.233c0.158,0.156,0.237,0.344,0.237,0.562
		c0,0.217-0.079,0.406-0.237,0.56c-0.158,0.151-0.348,0.229-0.565,0.229C168.799,42.475,168.615,42.398,168.461,42.246z
		 M168.433,51.113v-7.561h1.169v7.561H168.433z"/>
	<path fill="#247678" d="M171.522,48.789c0-0.406,0.077-0.777,0.232-1.104c0.153-0.326,0.356-0.588,0.612-0.784
		c0.258-0.196,0.539-0.349,0.851-0.455c0.31-0.104,0.631-0.155,0.962-0.155c1.075,0,1.91,0.347,2.506,1.035V45.97
		c0-0.491-0.178-0.881-0.533-1.164s-0.815-0.428-1.375-0.428c-0.89,0-1.658,0.352-2.318,1.049l-0.557-0.812
		c0.801-0.835,1.812-1.252,3.033-1.252c0.413,0,0.789,0.048,1.131,0.146c0.344,0.096,0.652,0.242,0.926,0.438
		c0.271,0.195,0.482,0.463,0.635,0.801c0.152,0.336,0.229,0.727,0.229,1.168v5.198h-1.17v-0.866
		c-0.643,0.704-1.477,1.058-2.506,1.058c-0.443,0-0.863-0.093-1.256-0.275c-0.396-0.187-0.729-0.472-0.998-0.864
		C171.658,49.773,171.522,49.316,171.522,48.789z M172.746,48.806c0,0.477,0.175,0.869,0.522,1.174
		c0.351,0.309,0.797,0.461,1.338,0.461c0.429,0,0.828-0.08,1.196-0.241c0.369-0.159,0.663-0.392,0.881-0.693V48.09
		c-0.218-0.306-0.512-0.538-0.881-0.697c-0.368-0.159-0.768-0.24-1.196-0.24c-0.541,0-0.989,0.155-1.338,0.463
		C172.921,47.928,172.746,48.323,172.746,48.806z"/>
	<path fill="#247678" d="M180.203,51.113V40.672h1.168v10.441H180.203z"/>
	<path fill="#247678" d="M186.719,51.113l4.197-10.441h1.613l4.213,10.441h-1.482l-0.926-2.317h-5.202l-0.925,2.317H186.719z
		 M189.509,47.636h4.437l-2.211-5.619L189.509,47.636z"/>
	<path fill="#247678" d="M198.061,51.113v-7.561h1.168v1.092c0.189-0.288,0.518-0.575,0.986-0.859
		c0.469-0.282,0.955-0.424,1.462-0.424c0.551,0,0.997,0.13,1.342,0.395c0.345,0.262,0.574,0.603,0.692,1.02
		c0.229-0.372,0.58-0.701,1.055-0.986c0.475-0.285,0.969-0.429,1.482-0.429c0.695,0,1.219,0.19,1.576,0.572
		c0.356,0.385,0.537,0.953,0.537,1.715v5.465h-1.172v-5.137c0-0.495-0.115-0.88-0.348-1.155c-0.232-0.273-0.58-0.412-1.051-0.412
		c-0.373,0-0.748,0.114-1.127,0.345c-0.383,0.23-0.674,0.503-0.879,0.818v5.544h-1.166v-5.14c0-1.045-0.467-1.567-1.398-1.567
		c-0.369,0-0.736,0.116-1.109,0.352c-0.373,0.23-0.666,0.509-0.881,0.829v5.526h-1.171L198.061,51.113L198.061,51.113z"/>
	<path fill="#247678" d="M210.281,48.789c0-0.406,0.078-0.777,0.229-1.104c0.153-0.326,0.356-0.588,0.614-0.784
		s0.541-0.349,0.85-0.455c0.309-0.104,0.631-0.155,0.965-0.155c1.072,0,1.91,0.347,2.502,1.035V45.97
		c0-0.491-0.178-0.881-0.533-1.164c-0.354-0.283-0.813-0.428-1.375-0.428c-0.886,0-1.66,0.352-2.316,1.049l-0.559-0.812
		c0.801-0.835,1.812-1.252,3.037-1.252c0.408,0,0.786,0.048,1.131,0.146c0.342,0.096,0.647,0.242,0.922,0.438
		c0.271,0.195,0.481,0.463,0.636,0.801c0.153,0.336,0.229,0.727,0.229,1.168v5.198h-1.17v-0.866
		c-0.641,0.704-1.477,1.058-2.502,1.058c-0.445,0-0.867-0.093-1.262-0.275c-0.395-0.187-0.729-0.472-0.996-0.864
		C210.414,49.773,210.281,49.316,210.281,48.789z M211.504,48.806c0,0.477,0.175,0.869,0.521,1.174
		c0.348,0.309,0.795,0.461,1.34,0.461c0.428,0,0.826-0.08,1.195-0.241c0.366-0.159,0.662-0.392,0.881-0.693V48.09
		c-0.219-0.306-0.514-0.538-0.881-0.697c-0.369-0.159-0.77-0.24-1.195-0.24c-0.545,0-0.992,0.155-1.34,0.463
		C211.679,47.928,211.504,48.323,211.504,48.806z"/>
	<path fill="#247678" d="M218.593,51.113v-0.909l4.171-5.636h-4.171v-1.016h5.704v0.882l-4.198,5.664h4.259v1.015H218.593
		L218.593,51.113z"/>
	<path fill="#247678" d="M226.354,49.33c-0.299-0.603-0.45-1.269-0.45-2.002c0-0.735,0.148-1.4,0.45-2
		c0.3-0.598,0.737-1.074,1.312-1.431c0.576-0.355,1.236-0.536,1.984-0.536c0.75,0,1.408,0.181,1.979,0.536
		c0.57,0.355,1.006,0.835,1.302,1.431c0.296,0.6,0.444,1.265,0.444,2c0,0.733-0.146,1.401-0.444,2.002
		c-0.296,0.599-0.729,1.078-1.302,1.438c-0.569,0.358-1.229,0.537-1.979,0.537s-1.41-0.181-1.984-0.537
		C227.092,50.408,226.658,49.929,226.354,49.33z M227.127,47.324c0,0.817,0.228,1.51,0.682,2.078s1.064,0.853,1.842,0.853
		c0.521,0,0.973-0.138,1.356-0.41c0.386-0.275,0.672-0.631,0.86-1.068c0.188-0.436,0.283-0.92,0.283-1.451
		c0-0.524-0.097-1.004-0.283-1.438c-0.188-0.435-0.476-0.789-0.86-1.064c-0.384-0.274-0.839-0.411-1.356-0.411
		c-0.52,0-0.976,0.137-1.365,0.411c-0.392,0.275-0.68,0.631-0.871,1.067C227.225,46.324,227.127,46.805,227.127,47.324z
		 M227.576,42.405l1.492-2.255h1.123l1.539,2.255h-0.796l-1.303-1.656l-1.252,1.656H227.576z"/>
	<path fill="#247678" d="M235.303,51.113v-7.561h1.167v1.092c0.297-0.351,0.688-0.652,1.175-0.905
		c0.486-0.25,0.994-0.378,1.518-0.378c1.605,0,2.408,0.816,2.408,2.449v5.306h-1.168V46.17c0-0.632-0.146-1.083-0.436-1.354
		c-0.291-0.27-0.71-0.402-1.254-0.402c-0.44,0-0.864,0.112-1.274,0.344c-0.409,0.229-0.731,0.508-0.969,0.834v5.527L235.303,51.113
		L235.303,51.113z"/>
	<path fill="#247678" d="M243.955,42.246c-0.155-0.153-0.234-0.342-0.234-0.56c0-0.219,0.079-0.405,0.234-0.562
		c0.154-0.156,0.338-0.233,0.547-0.233c0.221,0,0.406,0.077,0.566,0.233c0.153,0.156,0.237,0.344,0.237,0.562
		c0,0.217-0.081,0.406-0.237,0.56c-0.16,0.151-0.35,0.229-0.566,0.229C244.293,42.475,244.109,42.398,243.955,42.246z
		 M243.926,51.113v-7.561h1.171v7.561H243.926z"/>
	<path fill="#247678" d="M247.017,48.789c0-0.406,0.08-0.777,0.231-1.104c0.152-0.326,0.357-0.588,0.613-0.784
		s0.539-0.349,0.851-0.455c0.31-0.104,0.63-0.155,0.964-0.155c1.074,0,1.908,0.347,2.503,1.035V45.97
		c0-0.491-0.177-0.881-0.532-1.164c-0.357-0.283-0.814-0.428-1.373-0.428c-0.889,0-1.66,0.352-2.318,1.049l-0.557-0.812
		c0.801-0.835,1.811-1.252,3.033-1.252c0.412,0,0.789,0.048,1.133,0.146c0.344,0.096,0.649,0.242,0.92,0.438
		c0.271,0.195,0.483,0.463,0.637,0.801c0.152,0.336,0.23,0.727,0.23,1.168v5.198h-1.17v-0.866c-0.643,0.704-1.477,1.058-2.504,1.058
		c-0.445,0-0.867-0.093-1.262-0.275c-0.396-0.187-0.727-0.472-0.996-0.864C247.152,49.775,247.017,49.316,247.017,48.789z
		 M248.24,48.806c0,0.477,0.176,0.869,0.522,1.174c0.349,0.309,0.795,0.461,1.339,0.461c0.428,0,0.825-0.08,1.194-0.241
		c0.37-0.159,0.665-0.392,0.883-0.693V48.09c-0.218-0.306-0.513-0.538-0.883-0.697c-0.369-0.159-0.765-0.24-1.194-0.24
		c-0.544,0-0.99,0.155-1.339,0.463C248.414,47.928,248.24,48.323,248.24,48.806z"/>
</g>
<g>
	<path fill="#247678" d="M1.438,32.226V1.528h6.541v30.697H1.438z"/>
	<path fill="#247678" d="M11.285,32.226V1.528H25.62c1.614,0,3.083,0.263,4.408,0.786c1.323,0.524,2.407,1.236,3.252,2.134
		c0.844,0.898,1.495,1.943,1.95,3.134c0.457,1.191,0.685,2.468,0.685,3.832c0,1.349-0.228,2.617-0.685,3.81
		c-0.456,1.191-1.108,2.24-1.961,3.148c-0.853,0.908-1.936,1.626-3.25,2.158c-1.315,0.532-2.779,0.799-4.395,0.799h-7.802v10.896
		L11.285,32.226L11.285,32.226z M17.826,15.573h6.944c1.318,0,2.401-0.382,3.248-1.146c0.845-0.764,1.27-1.769,1.27-3.013
		c0-1.272-0.425-2.28-1.27-3.021c-0.847-0.741-1.93-1.111-3.248-1.111h-6.944V15.573z"/>
	<path fill="#247678" d="M35.14,27.853l3.55-4.949c1.181,1.222,2.603,2.216,4.263,2.983c1.66,0.769,3.485,1.151,5.475,1.151
		c1.711,0,3.028-0.332,3.951-0.995c0.923-0.662,1.386-1.465,1.386-2.403c0-0.567-0.201-1.062-0.603-1.487
		c-0.401-0.425-0.94-0.772-1.616-1.04c-0.674-0.268-1.457-0.519-2.341-0.752c-0.884-0.231-1.807-0.474-2.771-0.728
		c-0.965-0.254-1.939-0.51-2.923-0.768c-0.985-0.259-1.92-0.623-2.804-1.093c-0.884-0.471-1.667-1.019-2.348-1.644
		c-0.682-0.625-1.225-1.423-1.628-2.392c-0.405-0.967-0.607-2.063-0.607-3.285c0-2.649,1.056-4.875,3.171-6.674
		c2.113-1.799,4.925-2.699,8.437-2.699c4.92,0,8.917,1.439,11.991,4.32l-3.64,4.785c-1.217-1.101-2.605-1.935-4.167-2.502
		c-1.561-0.567-3.151-0.849-4.771-0.849c-1.381,0-2.458,0.276-3.232,0.83c-0.773,0.555-1.16,1.296-1.16,2.225
		c0,0.562,0.259,1.051,0.777,1.473c0.518,0.421,1.195,0.739,2.028,0.954c0.835,0.215,1.781,0.459,2.839,0.732
		c1.06,0.274,2.132,0.552,3.223,0.833c1.088,0.28,2.158,0.666,3.21,1.151c1.052,0.487,1.994,1.048,2.822,1.685
		c0.829,0.638,1.494,1.485,1.994,2.551c0.5,1.063,0.75,2.274,0.75,3.638c0,2.942-1.047,5.325-3.138,7.151
		c-2.092,1.822-5.14,2.733-9.143,2.733C42.683,32.788,38.358,31.143,35.14,27.853z"/>
	<path fill="#247678" d="M67.816,32.226L79.683,1.528h8.202l11.823,30.697h-7.461l-1.889-5.19H77.208l-1.933,5.19H67.816z
		 M78.986,21.284h9.578l-4.79-13.216L78.986,21.284z"/>
	<path fill="#247678" d="M99.642,32.226V10.001h5.845v2.898c0.555-0.809,1.521-1.587,2.9-2.338c1.379-0.749,2.838-1.124,4.383-1.124
		c1.585,0,2.896,0.354,3.927,1.057c1.029,0.706,1.753,1.7,2.169,2.988c0.689-1.093,1.737-2.041,3.142-2.842
		c1.403-0.801,2.909-1.203,4.516-1.203c2.067,0,3.667,0.562,4.8,1.686c1.133,1.124,1.696,2.803,1.696,5.035v16.07h-5.841V18.183
		c0-1.095-0.271-1.957-0.809-2.586c-0.542-0.629-1.383-0.944-2.523-0.944c-0.948,0-1.831,0.254-2.65,0.762
		c-0.818,0.512-1.47,1.109-1.948,1.801v15.009h-5.843V18.182c0-2.354-1.1-3.53-3.302-3.53c-0.93,0-1.808,0.259-2.631,0.776
		c-0.823,0.515-1.482,1.127-1.977,1.833v14.965L99.642,32.226L99.642,32.226z"/>
	<path fill="#247678" d="M134.659,25.431c0-1.003,0.151-1.915,0.458-2.738c0.306-0.822,0.718-1.503,1.229-2.042
		c0.518-0.538,1.107-0.989,1.779-1.356c0.671-0.366,1.361-0.632,2.065-0.798c0.712-0.165,1.43-0.246,2.159-0.246
		c1.487,0,2.851,0.235,4.093,0.708c1.235,0.471,2.225,1.14,2.96,2.008v-2.998c0-1.127-0.446-2.033-1.341-2.717
		c-0.893-0.684-2.074-1.025-3.547-1.025c-2.439,0-4.602,0.882-6.487,2.646l-2.187-3.926c2.662-2.337,5.89-3.505,9.688-3.505
		c1.332,0,2.558,0.142,3.666,0.427c1.106,0.284,2.132,0.742,3.068,1.372c0.938,0.629,1.669,1.504,2.193,2.628
		c0.524,1.123,0.788,2.458,0.788,4.001v14.359h-5.844v-2.287c-0.767,0.896-1.768,1.597-3.01,2.096
		c-1.237,0.501-2.586,0.751-4.043,0.751c-0.91,0-1.808-0.155-2.694-0.47c-0.887-0.313-1.709-0.761-2.47-1.345
		c-0.76-0.582-1.371-1.357-1.833-2.322C134.89,27.685,134.659,26.612,134.659,25.431z M140.504,25.565
		c0,1.007,0.402,1.803,1.206,2.391c0.802,0.586,1.8,0.879,2.985,0.879c0.977,0,1.89-0.164,2.735-0.496
		c0.851-0.331,1.508-0.811,1.974-1.443v-2.751c-0.466-0.631-1.123-1.112-1.974-1.442c-0.847-0.331-1.762-0.497-2.735-0.497
		c-1.202,0-2.201,0.297-2.998,0.891C140.902,23.691,140.504,24.514,140.504,25.565z"/>
	<path fill="#247678" d="M157.341,32.226v-4.379l10.021-12.742h-10.021v-5.102h17.957v4.225l-10.183,12.901h10.361v5.1
		L157.341,32.226L157.341,32.226z"/>
	<path fill="#247678" d="M176.152,21.082c0-2.127,0.461-4.064,1.383-5.812c0.92-1.746,2.283-3.154,4.092-4.226
		c1.806-1.071,3.892-1.606,6.258-1.606c2.383,0,4.479,0.536,6.293,1.606c1.812,1.072,3.179,2.48,4.102,4.226
		c0.92,1.746,1.381,3.685,1.381,5.812c0,1.59-0.273,3.09-0.82,4.505c-0.547,1.416-1.311,2.659-2.292,3.729
		c-0.979,1.071-2.222,1.918-3.72,2.536c-1.498,0.622-3.146,0.934-4.944,0.934c-2.365,0-4.454-0.535-6.259-1.604
		c-1.809-1.071-3.17-2.486-4.09-4.247C176.613,25.174,176.152,23.225,176.152,21.082z M180.981,6.628L185.211,0h5.236l4.338,6.628
		h-3.598l-3.348-4.089l-3.282,4.089H180.981z M182.221,21.082c0,1.828,0.504,3.368,1.518,4.618c1.012,1.25,2.394,1.875,4.146,1.875
		s3.142-0.625,4.168-1.875c1.026-1.251,1.539-2.792,1.539-4.618c0-1.812-0.515-3.34-1.539-4.575
		c-1.024-1.236-2.414-1.854-4.168-1.854c-1.755,0-3.136,0.618-4.146,1.854C182.725,17.742,182.221,19.27,182.221,21.082z"/>
	<path fill="#247678" d="M201.215,32.226V10.001h5.844v2.898c0.809-0.973,1.887-1.794,3.236-2.46
		c1.348-0.667,2.861-1.001,4.539-1.001c2.382,0,4.183,0.626,5.406,1.877c1.219,1.249,1.832,2.992,1.832,5.225v15.687h-5.847V18.789
		c0-1.468-0.354-2.525-1.065-3.169c-0.713-0.646-1.728-0.967-3.045-0.967c-1.064,0-2.039,0.25-2.926,0.752
		c-0.882,0.502-1.594,1.12-2.132,1.856v14.967L201.215,32.226L201.215,32.226z"/>
	<path fill="#247678" d="M225.521,6.572c-0.695-0.682-1.044-1.502-1.044-2.46s0.345-1.776,1.034-2.451
		c0.688-0.673,1.516-1.011,2.473-1.011c0.975,0,1.801,0.336,2.481,1.011c0.682,0.676,1.022,1.492,1.022,2.451
		s-0.342,1.78-1.022,2.46c-0.683,0.682-1.509,1.023-2.481,1.023C227.039,7.595,226.22,7.255,225.521,6.572z M225.084,32.226V10.001
		h5.844v22.224H225.084z"/>
	<path fill="#247678" d="M232.548,25.431c0-1.003,0.151-1.915,0.46-2.738c0.305-0.822,0.716-1.503,1.229-2.042
		c0.514-0.538,1.105-0.989,1.778-1.356c0.67-0.366,1.358-0.632,2.067-0.798c0.705-0.165,1.428-0.246,2.156-0.246
		c1.485,0,2.852,0.235,4.09,0.708c1.24,0.471,2.228,1.14,2.963,2.008v-2.998c0-1.127-0.446-2.033-1.34-2.717
		s-2.076-1.025-3.551-1.025c-2.438,0-4.601,0.882-6.484,2.646l-2.186-3.926c2.661-2.337,5.891-3.505,9.686-3.505
		c1.336,0,2.558,0.142,3.666,0.427c1.109,0.284,2.134,0.742,3.07,1.372c0.94,0.629,1.67,1.504,2.194,2.628
		c0.522,1.123,0.787,2.458,0.787,4.001v14.359h-5.845v-2.287c-0.766,0.896-1.77,1.597-3.008,2.096
		c-1.238,0.501-2.586,0.751-4.045,0.751c-0.908,0-1.807-0.155-2.693-0.47c-0.889-0.313-1.709-0.761-2.471-1.345
		c-0.759-0.582-1.371-1.357-1.832-2.322C232.779,27.685,232.548,26.612,232.548,25.431z M238.393,25.565
		c0,1.007,0.403,1.803,1.205,2.391c0.805,0.586,1.8,0.879,2.984,0.879c0.979,0,1.892-0.164,2.738-0.496
		c0.848-0.331,1.506-0.811,1.971-1.443v-2.751c-0.465-0.631-1.123-1.112-1.971-1.442c-0.848-0.331-1.762-0.497-2.738-0.497
		c-1.199,0-2.199,0.297-2.996,0.891C238.787,23.691,238.393,24.514,238.393,25.565z"/>
</g>
</svg>
