<?xml version="1.0" encoding="utf-8"?>
<!-- Generator: Adobe Illustrator 16.0.0, SVG Export Plug-In . SVG Version: 6.00 Build 0)  -->
<!DOCTYPE svg PUBLIC "-//W3C//DTD SVG 1.1//EN" "http://www.w3.org/Graphics/SVG/1.1/DTD/svg11.dtd">
<svg version="1.1" id="Layer_1" xmlns="http://www.w3.org/2000/svg" xmlns:xlink="http://www.w3.org/1999/xlink" x="0px" y="0px"
	 width="260px" height="67.757px" viewBox="0 0 260 67.757" enable-background="new 0 0 260 67.757" xml:space="preserve">
<path fill="#F48020" d="M64.896,61.545c-18.575-5.844-25.99-15.966-25.99-23.836c0-10.407,8.34-18.198,19.593-18.198
	c7.29,0,17.314,1.711,23.472,5.892c-7.596-6.013-18.998-9.35-27.921-9.35c-11.889,0-22.193,9.25-22.193,20.664
	c0,11.409,14.088,25.184,30.646,28.192L86.5,65.654C78.047,64.881,70.894,63.436,64.896,61.545L64.896,61.545z"/>
<path fill="#788C39" d="M70.073,57.974c18.467,1.05,32.694-3.317,34.798-11.812c2.811-11.328-16.992-25.705-44.22-32.114
	c-0.138-0.033-0.273-0.058-0.407-0.092c1.124,0.204,2.251,0.42,3.388,0.658c27.381,5.771,47.449,20.043,44.822,31.873
	c-2.095,9.426-17.959,14.457-38.167,13.195L70.073,57.974L70.073,57.974z"/>
<path fill="#D0E7C5" d="M76.874,44.071c0,3.941,3.831,6.684,8.515,6.684c4.684,0,13.602-2.915,13.602-9.259
	c0-6.34-14.232-17.313-32.748-17.313c-18.513,0-18.684,11.828-18.684,15.256c0,3.43,7.714,26.401,40.63,26.401
	c19.887,0,32.357-9.3,32.357-19.457c0-19.287-39.343-44.103-78.688-44.103c-26.873,0-39.86,12.215-39.86,12.215
	S15.86,4.218,41.596,4.218c30.087,0,69.051,17.351,69.051,40.623c0,12.086-17.727,14.143-25.256,14.143
	c-7.53,0-26.559-7.33-26.559-18.131c0-8.486,8.101-9.258,12.728-9.258c5.529,0,15.174,4.373,16.843,7.46
	C83.004,38.022,76.874,39.054,76.874,44.071L76.874,44.071z"/>
<path fill="#788C39" d="M23.072,23.06c5.687-13.187,27.528-16.683,50.476-8.792c-1.506-0.791-3.061-1.542-4.67-2.235
	C47.037,2.618,24.46,6.277,18.459,20.205c-5.467,12.69,4.708,29.525,23.081,39.536C26.254,48.671,18.321,34.087,23.072,23.06
	L23.072,23.06z"/>
<g>
	<path fill="#34421B" d="M144.755,22.38c0,2.351-0.596,4.199-1.783,5.542c-1.188,1.349-2.851,2.023-4.987,2.023
		c-2.163,0-3.834-0.664-5.015-1.985s-1.772-3.189-1.772-5.599c0-2.391,0.59-4.244,1.764-5.561s2.858-1.972,5.048-1.972
		c2.127,0,3.786,0.666,4.971,2.001C144.165,18.167,144.757,20.016,144.755,22.38L144.755,22.38z M133.145,22.38
		c0,1.942,0.412,3.422,1.236,4.44c0.823,1.018,2.025,1.526,3.605,1.526c1.572,0,2.771-0.502,3.586-1.507
		c0.816-1.005,1.226-2.49,1.226-4.459c0-1.964-0.404-3.441-1.216-4.435c-0.811-0.994-2.002-1.491-3.576-1.491
		c-1.595,0-2.802,0.505-3.628,1.513C133.558,18.974,133.146,20.446,133.145,22.38L133.145,22.38z M152.972,18.53
		c1.452,0,2.574,0.502,3.364,1.504c0.789,1,1.186,2.399,1.186,4.193c0,1.821-0.403,3.229-1.206,4.223
		c-0.804,0.994-1.919,1.494-3.344,1.494c-0.744,0-1.406-0.137-1.989-0.403c-0.581-0.269-1.058-0.666-1.425-1.195h-0.142
		c-0.207,0.803-0.331,1.271-0.371,1.397h-1.296V14.111h1.808v3.801c0,0.755-0.033,1.51-0.102,2.265h0.102
		C150.299,19.081,151.438,18.533,152.972,18.53L152.972,18.53z M152.671,20.029c-1.112,0-1.91,0.314-2.392,0.946
		c-0.481,0.628-0.723,1.692-0.723,3.194v0.081c0,1.507,0.246,2.582,0.738,3.229s1.297,0.973,2.415,0.973
		c0.992,0,1.729-0.366,2.215-1.091c0.486-0.728,0.73-1.776,0.73-3.151c0-1.392-0.245-2.437-0.735-3.132
		C154.43,20.378,153.682,20.032,152.671,20.029L152.671,20.029z M167.585,26.7c0,1.031-0.386,1.829-1.155,2.394
		c-0.771,0.566-1.852,0.852-3.244,0.852c-1.451,0-2.607-0.231-3.466-0.696v-1.647c1.213,0.588,2.382,0.884,3.506,0.884
		c0.91,0,1.573-0.147,1.99-0.44c0.414-0.295,0.62-0.69,0.62-1.185c0-0.436-0.198-0.806-0.596-1.104
		c-0.398-0.307-1.107-0.65-2.125-1.037c-1.037-0.403-1.766-0.747-2.188-1.032c-0.422-0.282-0.733-0.602-0.931-0.959
		c-0.198-0.352-0.296-0.784-0.296-1.295c0-0.902,0.367-1.617,1.106-2.141c0.735-0.521,1.748-0.782,3.034-0.782
		c1.251,0,2.423,0.248,3.514,0.742l-0.612,1.437c-1.116-0.47-2.125-0.701-3.023-0.701c-0.751,0-1.317,0.118-1.706,0.357
		c-0.39,0.236-0.582,0.562-0.582,0.975c0,0.406,0.167,0.736,0.503,1c0.335,0.266,1.114,0.634,2.34,1.104
		c0.918,0.338,1.596,0.655,2.034,0.951c0.437,0.298,0.761,0.628,0.969,0.997c0.208,0.371,0.312,0.811,0.312,1.327H167.585z
		 M174.946,29.945c-1.654,0-2.952-0.502-3.893-1.504c-0.938-1-1.411-2.377-1.411-4.134c0-1.765,0.439-3.175,1.318-4.221
		c0.876-1.05,2.061-1.574,3.556-1.574c1.383,0,2.49,0.446,3.311,1.343c0.826,0.892,1.236,2.101,1.236,3.629v1.096h-7.553
		c0.033,1.254,0.353,2.203,0.956,2.853c0.602,0.65,1.455,0.972,2.56,0.972c0.59,0,1.147-0.051,1.677-0.153
		c0.528-0.105,1.148-0.307,1.857-0.61v1.59c-0.607,0.258-1.181,0.443-1.715,0.551C176.309,29.891,175.678,29.945,174.946,29.945
		L174.946,29.945z M174.495,19.989c-0.863,0-1.547,0.28-2.049,0.833c-0.504,0.556-0.801,1.33-0.894,2.324h5.614
		c-0.017-1.034-0.253-1.816-0.713-2.351c-0.464-0.537-1.116-0.803-1.959-0.803V19.989z M186.998,18.514
		c0.488,0,0.92,0.04,1.296,0.121l-0.221,1.666c-0.409-0.091-0.807-0.143-1.196-0.143c-0.582,0-1.124,0.161-1.623,0.483
		c-0.498,0.323-0.889,0.766-1.171,1.333c-0.282,0.564-0.422,1.193-0.422,1.883v5.883h-1.808V18.713h1.488l0.201,2.018h0.079
		c0.422-0.728,0.92-1.279,1.496-1.655c0.577-0.376,1.202-0.564,1.88-0.564V18.514z M192.783,29.743l-4.178-11.027h1.938l2.34,6.498
		c0.462,1.306,0.757,2.278,0.884,2.92h0.082c0.02-0.086,0.045-0.183,0.075-0.298c0.03-0.11,0.065-0.229,0.105-0.36
		c0.041-0.132,0.288-0.887,0.744-2.265l2.351-6.501h1.929l-4.19,11.03h-2.08V29.743z M207.609,29.743l-0.353-1.566h-0.082
		c-0.548,0.688-1.097,1.155-1.64,1.399c-0.548,0.245-1.236,0.368-2.064,0.368c-1.084,0-1.936-0.285-2.552-0.854
		c-0.617-0.569-0.923-1.375-0.923-2.412c0-2.235,1.765-3.409,5.292-3.517l1.869-0.07v-0.653c0-0.835-0.181-1.456-0.544-1.854
		c-0.359-0.397-0.939-0.599-1.735-0.599c-0.583,0-1.134,0.086-1.653,0.261c-0.519,0.172-1.005,0.368-1.46,0.585l-0.552-1.356
		c0.556-0.296,1.16-0.527,1.818-0.693c0.654-0.167,1.306-0.252,1.947-0.252c1.333,0,2.321,0.298,2.975,0.887
		c0.647,0.588,0.974,1.528,0.974,2.812v7.511h-1.317V29.743z M203.88,28.489c1.012,0,1.806-0.274,2.386-0.819
		c0.578-0.545,0.87-1.322,0.87-2.327v-0.991l-1.628,0.067c-1.265,0.045-2.187,0.25-2.767,0.604
		c-0.579,0.354-0.866,0.913-0.866,1.676c0,0.575,0.176,1.018,0.525,1.324C202.752,28.333,203.245,28.489,203.88,28.489
		L203.88,28.489z M216.025,28.467c0.233,0,0.511-0.024,0.822-0.073c0.316-0.043,0.553-0.097,0.717-0.158v1.386
		c-0.169,0.076-0.429,0.148-0.781,0.218s-0.71,0.105-1.071,0.105c-2.154,0-3.231-1.137-3.231-3.406v-6.421h-1.558v-0.865
		l1.576-0.723l0.723-2.348h1.072v2.531h3.185v1.405h-3.182v6.367c0,0.64,0.153,1.126,0.456,1.467
		C215.059,28.295,215.48,28.467,216.025,28.467L216.025,28.467z M229.343,24.209c0,1.8-0.455,3.205-1.367,4.215
		c-0.909,1.013-2.169,1.521-3.775,1.521c-0.997,0-1.881-0.236-2.65-0.701c-0.772-0.465-1.364-1.131-1.778-2.004
		c-0.415-0.87-0.623-1.88-0.623-3.033c0-1.794,0.45-3.191,1.347-4.193c0.897-1,2.155-1.502,3.777-1.502
		c1.553,0,2.786,0.511,3.699,1.531C228.887,21.066,229.343,22.452,229.343,24.209z M221.017,24.209c0,1.386,0.274,2.437,0.818,3.159
		c0.546,0.717,1.35,1.08,2.416,1.08c1.051,0,1.85-0.363,2.401-1.08c0.546-0.723,0.822-1.773,0.822-3.159
		c0-1.389-0.276-2.431-0.83-3.13c-0.551-0.698-1.36-1.05-2.426-1.05C222.082,20.029,221.017,21.423,221.017,24.209L221.017,24.209z
		 M222.803,17.026c0.257-0.32,0.58-0.776,0.97-1.37c0.393-0.594,0.722-1.15,0.99-1.673h2.18v0.209
		c-0.295,0.43-0.753,0.97-1.375,1.62c-0.623,0.65-1.146,1.136-1.566,1.467h-1.198V17.026L222.803,17.026z M237.347,18.514
		c0.49,0,0.922,0.04,1.295,0.121l-0.22,1.666c-0.408-0.091-0.807-0.143-1.193-0.143c-0.584,0-1.125,0.161-1.625,0.483
		c-0.5,0.323-0.889,0.766-1.171,1.333c-0.282,0.564-0.422,1.193-0.422,1.883v5.883h-1.808V18.713h1.488l0.199,2.018h0.08
		c0.423-0.728,0.921-1.279,1.496-1.655c0.579-0.376,1.203-0.564,1.88-0.564V18.514z M240.562,15.731c0-0.4,0.1-0.693,0.307-0.875
		c0.204-0.18,0.456-0.269,0.759-0.269c0.28,0,0.527,0.089,0.737,0.269c0.21,0.183,0.314,0.475,0.314,0.875
		c0,0.395-0.104,0.688-0.314,0.873c-0.21,0.188-0.457,0.282-0.737,0.282c-0.303,0-0.552-0.091-0.759-0.282
		C240.665,16.419,240.562,16.126,240.562,15.731z M242.511,29.743h-1.807V18.716h1.807V29.743L242.511,29.743z M255.588,24.209
		c0,1.8-0.454,3.205-1.365,4.215c-0.912,1.013-2.169,1.521-3.776,1.521c-1,0-1.881-0.236-2.65-0.701
		c-0.772-0.465-1.365-1.131-1.778-2.004c-0.415-0.87-0.623-1.88-0.623-3.033c0-1.794,0.447-3.191,1.344-4.193
		c0.9-1,2.157-1.502,3.78-1.502c1.553,0,2.785,0.511,3.7,1.531c0.915,1.021,1.371,2.407,1.371,4.162h-0.002V24.209z M247.26,24.209
		c0,1.386,0.272,2.437,0.822,3.159c0.545,0.717,1.349,1.08,2.413,1.08c1.055,0,1.855-0.363,2.403-1.08
		c0.548-0.723,0.822-1.773,0.822-3.159c0-1.389-0.274-2.431-0.83-3.13c-0.55-0.698-1.359-1.05-2.426-1.05
		C248.327,20.029,247.263,21.423,247.26,24.209L247.26,24.209z"/>
</g>
<g>
	<path fill="#34421B" d="M138.402,60.525c-1.493,0-2.652-0.515-3.476-1.547c-0.823-1.033-1.236-2.495-1.236-4.387
		c0-1.877,0.413-3.342,1.243-4.395c0.825-1.056,1.989-1.582,3.49-1.582c1.543,0,2.729,0.563,3.56,1.695h0.138
		c-0.021-0.141-0.051-0.422-0.084-0.844c-0.036-0.422-0.054-0.707-0.054-0.852v-4.588h1.885v16.29h-1.52l-0.282-1.535h-0.083
		C141.181,59.943,139.986,60.525,138.402,60.525L138.402,60.525z M138.705,58.966c1.145,0,1.98-0.312,2.508-0.935
		c0.525-0.627,0.79-1.65,0.79-3.074v-0.346c0-1.596-0.269-2.738-0.802-3.417c-0.532-0.68-1.373-1.019-2.519-1.019
		c-0.97,0-1.72,0.382-2.251,1.155c-0.53,0.773-0.795,1.869-0.795,3.302c0,1.424,0.264,2.501,0.791,3.237
		C136.956,58.599,137.716,58.966,138.705,58.966L138.705,58.966z M157.508,54.549c0,1.878-0.475,3.346-1.424,4.398
		c-0.948,1.053-2.261,1.578-3.936,1.578c-1.041,0-1.964-0.241-2.766-0.725c-0.803-0.488-1.419-1.181-1.854-2.092
		c-0.433-0.908-0.647-1.959-0.647-3.162c0-1.87,0.467-3.329,1.402-4.371c0.937-1.045,2.247-1.563,3.937-1.563
		c1.622,0,2.906,0.532,3.859,1.596C157.032,51.274,157.508,52.72,157.508,54.549L157.508,54.549z M148.829,54.549
		c0,1.445,0.285,2.542,0.855,3.295c0.571,0.752,1.408,1.125,2.516,1.125c1.097,0,1.931-0.373,2.503-1.125
		c0.572-0.753,0.858-1.85,0.858-3.295c0-1.442-0.287-2.53-0.863-3.261c-0.577-0.729-1.417-1.094-2.528-1.094
		C149.941,50.194,148.829,51.646,148.829,54.549z"/>
</g>
<g>
	<path fill="#34421B" d="M176.314,41.464c-1.875,0-3.327,0.707-4.356,2.114c-1.03,1.408-1.543,3.371-1.543,5.889
		c0,5.243,1.966,7.86,5.899,7.86c1.646,0,3.645-0.414,5.993-1.236v4.178c-1.928,0.803-4.083,1.205-6.459,1.205
		c-3.419,0-6.033-1.036-7.845-3.109c-1.812-2.077-2.718-5.051-2.718-8.93c0-2.442,0.444-4.583,1.333-6.421
		c0.89-1.837,2.168-3.245,3.835-4.228c1.668-0.983,3.619-1.47,5.86-1.47c2.282,0,4.574,0.551,6.878,1.655l-1.607,4.051
		c-0.88-0.419-1.766-0.785-2.654-1.096c-0.888-0.309-1.761-0.467-2.618-0.467v0.005H176.314z M191.822,61.154h-4.902V36.145h4.902
		V61.154z M196.76,38.541c0-1.598,0.888-2.399,2.668-2.399c1.779,0,2.669,0.801,2.669,2.396c0,0.76-0.224,1.351-0.668,1.775
		c-0.444,0.422-1.11,0.634-2.001,0.634C197.649,40.948,196.76,40.145,196.76,38.541L196.76,38.541z M201.871,61.154h-4.903V43.186
		h4.903V61.154z M223.104,61.154h-4.902V50.659c0-1.298-0.218-2.268-0.651-2.92c-0.434-0.645-1.116-0.97-2.048-0.97
		c-1.255,0-2.167,0.459-2.733,1.381c-0.568,0.921-0.853,2.437-0.853,4.551v8.453h-4.902V43.186h3.745l0.659,2.296h0.272
		c0.481-0.827,1.179-1.469,2.092-1.937c0.909-0.468,1.954-0.699,3.132-0.699c2.689,0,4.514,0.878,5.467,2.635h0.436
		c0.483-0.835,1.19-1.482,2.128-1.945c0.94-0.459,1.997-0.69,3.178-0.69c2.035,0,3.577,0.521,4.62,1.566
		c1.043,1.047,1.569,2.724,1.569,5.023v11.718h-4.919V50.659c0-1.295-0.219-2.268-0.65-2.917c-0.435-0.647-1.118-0.973-2.052-0.973
		c-1.198,0-2.096,0.43-2.692,1.287c-0.596,0.856-0.892,2.216-0.892,4.083v9.018h-0.003V61.154z M250.752,61.154l-0.947-2.44h-0.127
		c-0.827,1.039-1.677,1.758-2.551,2.161c-0.873,0.4-2.011,0.604-3.413,0.604c-1.728,0-3.087-0.494-4.075-1.479
		c-0.993-0.986-1.488-2.391-1.488-4.21c0-1.91,0.667-3.312,2.004-4.22c1.332-0.905,3.346-1.405,6.035-1.502l3.121-0.097v-0.787
		c0-1.821-0.934-2.732-2.798-2.732c-1.437,0-3.125,0.436-5.066,1.303l-1.622-3.309c2.068-1.083,4.359-1.628,6.88-1.628
		c2.41,0,4.26,0.526,5.544,1.577c1.287,1.05,1.929,2.644,1.929,4.787v11.976h-3.422L250.752,61.154z M249.306,52.827l-1.896,0.064
		c-1.427,0.043-2.489,0.298-3.183,0.773c-0.698,0.473-1.048,1.19-1.048,2.152c0,1.386,0.794,2.077,2.381,2.077
		c1.136,0,2.044-0.328,2.724-0.981c0.68-0.658,1.021-1.521,1.021-2.605v-1.48H249.306z"/>
</g>
</svg>
