<?xml version="1.0" encoding="utf-8"?>
<!-- Generator: Adobe Illustrator 19.0.0, SVG Export Plug-In . SVG Version: 6.00 Build 0)  -->
<svg version="1.1" id="Layer_1" xmlns="http://www.w3.org/2000/svg" xmlns:xlink="http://www.w3.org/1999/xlink" x="0px" y="0px"
	 viewBox="0 0 260 68" style="enable-background:new 0 0 260 68;" xml:space="preserve">
<style type="text/css">
	.st0{fill:#45276D;}
	.st1{fill:#4DB04D;}
	.st2{fill:#FFFFFF;}
</style>
<g>
	<path class="st0" d="M87.9,18.1l0.6-3.8h-4.3l-0.7,3.8H87.9z M78.2,23.2h-2.5v-5.2h3.4l0.6-3.6h-3V9.2h3.9L81.3,5H86l-0.8,4.2h4.1
		L90,5h4.7L94,9.1h2.5v5.2h-3.4l-0.6,3.6h3v5.2h-3.8l-0.8,4.3h-4.7l0.8-4.3h-4.1l-0.8,4.3h-4.7L78.2,23.2z"/>
	<g>
		<path class="st0" d="M111.8,24.3c0.8,0,1.4-0.1,2.1-0.3c0.6-0.2,1.2-0.5,1.8-0.8l-3.9-3.3l2.5-2.9l3.9,3.5
			c0.8-1.2,1.2-2.6,1.2-4.2v-0.1c0-1.1-0.2-2.1-0.6-3.1c-0.4-1-0.9-1.8-1.6-2.5s-1.5-1.3-2.4-1.7c-0.9-0.4-2-0.6-3.1-0.6
			s-2.1,0.2-3.1,0.6c-0.9,0.4-1.7,1-2.4,1.7c-0.7,0.7-1.2,1.6-1.6,2.5s-0.6,2-0.6,3.1v0.1c0,1.1,0.2,2.1,0.6,3.1
			c0.4,1,0.9,1.8,1.6,2.5c0.7,0.7,1.5,1.3,2.4,1.7C109.6,24,110.7,24.3,111.8,24.3 M118.6,25.8c-1,0.7-2,1.2-3.2,1.6
			c-1.1,0.4-2.4,0.5-3.7,0.5c-1.7,0-3.3-0.3-4.7-0.9c-1.4-0.6-2.7-1.4-3.7-2.5c-1-1-1.8-2.3-2.4-3.7c-0.6-1.4-0.9-2.9-0.9-4.5v-0.1
			c0-1.6,0.3-3.1,0.9-4.5c0.6-1.4,1.4-2.6,2.4-3.7c1-1.1,2.3-1.9,3.7-2.5c1.4-0.6,3-0.9,4.7-0.9s3.3,0.3,4.7,0.9
			c1.4,0.6,2.7,1.4,3.7,2.5c1,1,1.8,2.3,2.4,3.7c0.6,1.4,0.9,2.9,0.9,4.5v0.1c0,1.3-0.2,2.5-0.6,3.7c-0.4,1.2-1,2.3-1.7,3.2l2.6,2.2
			l-2.5,2.8L118.6,25.8z"/>
		<path class="st0" d="M134.3,27.8c-1.9,0-3.4-0.6-4.5-1.8c-1-1.2-1.6-2.8-1.6-4.7V10.5h3.9v9.6c0,1.3,0.3,2.3,0.9,3.1
			c0.6,0.7,1.5,1.1,2.7,1.1c1.1,0,2-0.4,2.8-1.1c0.7-0.7,1-1.8,1-3.1v-9.6h3.9v17h-3.9v-2.7c-0.5,0.8-1.2,1.5-2.1,2.1
			C136.7,27.6,135.6,27.8,134.3,27.8"/>
		<path class="st0" d="M159.6,20.4c-0.5-0.2-1.1-0.3-1.8-0.5c-0.7-0.1-1.4-0.2-2.1-0.2c-1.2,0-2.2,0.2-2.9,0.7c-0.7,0.5-1,1.1-1,1.9
			v0.1c0,0.8,0.3,1.4,1,1.9c0.6,0.4,1.4,0.6,2.3,0.6c0.6,0,1.2-0.1,1.8-0.3c0.6-0.2,1-0.4,1.4-0.7c0.4-0.3,0.7-0.7,1-1.1
			c0.2-0.4,0.3-0.9,0.3-1.5V20.4z M159.5,27.5v-2.1c-0.6,0.7-1.3,1.3-2.2,1.7c-0.9,0.5-2,0.7-3.3,0.7c-0.8,0-1.6-0.1-2.3-0.3
			c-0.7-0.2-1.4-0.5-1.9-1c-0.6-0.4-1-1-1.3-1.7c-0.3-0.7-0.5-1.4-0.5-2.3v-0.1c0-1,0.2-1.8,0.5-2.5c0.3-0.7,0.8-1.3,1.4-1.7
			c0.6-0.5,1.3-0.8,2.2-1c0.8-0.2,1.8-0.3,2.8-0.3c1,0,1.9,0.1,2.6,0.2c0.7,0.1,1.4,0.3,2.1,0.5v-0.3c0-1.2-0.3-2.1-1.1-2.7
			c-0.7-0.6-1.8-0.9-3.1-0.9c-1,0-1.8,0.1-2.6,0.3c-0.8,0.2-1.5,0.5-2.3,0.8l-1.1-3.1c1-0.4,1.9-0.8,2.9-1c1-0.3,2.2-0.4,3.6-0.4
			c2.5,0,4.4,0.6,5.6,1.9c1.2,1.2,1.8,3,1.8,5.3v10.1L159.5,27.5L159.5,27.5z"/>
		<path class="st0" d="M168.6,10.5h3.9v2.7c0.3-0.4,0.6-0.8,0.9-1.2c0.3-0.3,0.7-0.7,1.2-1c0.4-0.3,0.9-0.5,1.4-0.7
			c0.5-0.2,1.1-0.2,1.8-0.2c1.9,0,3.4,0.6,4.5,1.8c1,1.2,1.6,2.8,1.6,4.7v10.8h-3.9v-9.6c0-1.3-0.3-2.3-0.9-3.1
			c-0.6-0.7-1.5-1.1-2.7-1.1c-1.1,0-2,0.4-2.8,1.1c-0.7,0.8-1,1.8-1,3.1v9.6h-3.9V10.5z"/>
		<path class="st0" d="M194.9,27.8c-0.7,0-1.4-0.1-2-0.3c-0.6-0.2-1.1-0.5-1.6-0.8s-0.8-0.9-1-1.5c-0.2-0.6-0.3-1.4-0.3-2.4v-8.9
			h-2.1v-3.4h2.1V5.8h3.9v4.7h4.6v3.4H194v8.3c0,0.8,0.2,1.3,0.5,1.6c0.4,0.3,0.9,0.5,1.5,0.5c0.8,0,1.6-0.2,2.4-0.6v3.2
			c-0.5,0.3-1,0.5-1.6,0.6C196.3,27.7,195.6,27.8,194.9,27.8"/>
		<path class="st0" d="M211.2,24.5c0.8,0,1.5-0.1,2.1-0.4c0.6-0.3,1.2-0.7,1.6-1.2c0.4-0.5,0.8-1.1,1-1.7c0.2-0.7,0.3-1.3,0.3-2.1
			V19c0-0.8-0.1-1.4-0.4-2.1s-0.6-1.2-1.1-1.7c-0.5-0.5-1-0.9-1.6-1.2c-0.6-0.3-1.3-0.4-2.1-0.4c-0.8,0-1.5,0.1-2.1,0.4
			c-0.6,0.3-1.2,0.7-1.6,1.2c-0.5,0.5-0.8,1-1,1.7S206,18.2,206,19V19c0,0.8,0.1,1.4,0.4,2.1c0.3,0.7,0.6,1.2,1.1,1.7
			c0.5,0.5,1,0.9,1.6,1.2C209.7,24.3,210.4,24.5,211.2,24.5 M211.1,27.9c-1.3,0-2.5-0.2-3.6-0.7c-1.1-0.5-2.1-1.1-2.9-1.9
			c-0.8-0.8-1.4-1.7-1.9-2.8c-0.5-1.1-0.7-2.2-0.7-3.4V19c0-1.2,0.2-2.4,0.7-3.4c0.5-1.1,1.1-2,1.9-2.8c0.8-0.8,1.8-1.4,2.9-1.9
			c1.1-0.5,2.3-0.7,3.6-0.7c1.3,0,2.5,0.2,3.6,0.7c1.1,0.5,2.1,1.1,2.9,1.9c0.8,0.8,1.4,1.7,1.9,2.8c0.5,1.1,0.7,2.2,0.7,3.4V19
			c0,1.2-0.2,2.3-0.7,3.4c-0.5,1.1-1.1,2-1.9,2.8c-0.8,0.8-1.8,1.4-2.9,1.9C213.6,27.6,212.4,27.9,211.1,27.9"/>
		<path class="st0" d="M230.6,8.4l2.8-4.3l2,1L232,8.3L230.6,8.4L230.6,8.4z M237.9,18.5c-0.2-3.3-2.1-6.4-5.9-6.4
			c-3.2,0-5.8,2.7-6.1,6.4H237.9z M232.4,26.4c2.5,0,4.3-1.1,5.6-2.6l1.1,1c-1.7,1.8-3.6,3.1-6.8,3.1c-4.3,0-8-3.4-8-8.6v-0.1
			c0-4.7,3.4-8.6,7.8-8.6c4.6,0,7.5,3.7,7.5,8.6v0.1c0,0.2,0,0.3,0,0.6h-13.6C226.2,24,229.1,26.4,232.4,26.4"/>
		<path class="st0" d="M246.6,22h6.4v5.5h-6.4V22z M247.1,14.8l0.3-0.3c1.9-0.1,3.2-0.4,3.9-0.9c0.8-0.4,1.1-1,1.1-1.7v0
			c0-0.5-0.2-1-0.6-1.3c-0.4-0.3-1-0.5-1.8-0.5c-0.8,0-1.5,0.2-2.3,0.6c-0.8,0.4-1.6,0.9-2.3,1.6L242.1,8c1-1,2.1-1.8,3.5-2.4
			s3-1,4.8-1c1.2,0,2.3,0.1,3.2,0.5c1,0.3,1.8,0.8,2.5,1.3c0.7,0.6,1.3,1.3,1.7,2.1c0.4,0.8,0.6,1.8,0.6,2.8v0.1
			c0,1-0.2,1.9-0.5,2.6c-0.3,0.8-0.8,1.4-1.3,1.9c-0.5,0.5-1.2,1-2,1.3c-0.8,0.3-1.6,0.6-2.5,0.8l-0.4,2.1H248L247.1,14.8z"/>
	</g>
	<rect x="75.8" y="37.1" class="st1" width="182.9" height="28.7"/>
	<path class="st2" d="M92.1,57c0.6,0,1.2-0.1,1.7-0.4c0.5-0.3,1-0.6,1.4-1.1c0.4-0.4,0.7-1,0.9-1.5c0.2-0.6,0.3-1.2,0.3-1.8
		c0-0.6-0.1-1.2-0.3-1.8c-0.2-0.6-0.5-1.1-0.9-1.5c-0.4-0.4-0.9-0.8-1.4-1c-0.5-0.3-1.1-0.4-1.7-0.4c-0.4,0-0.8,0.1-1.2,0.2
		c-0.4,0.2-0.8,0.4-1.2,0.6c-0.4,0.3-0.7,0.6-1,0.9c-0.3,0.3-0.4,0.7-0.5,1.1V54c0.2,0.4,0.4,0.8,0.7,1.2s0.6,0.7,1,1
		c0.3,0.3,0.8,0.5,1.2,0.6C91.3,56.9,91.7,57,92.1,57 M92.6,58.3c-1,0-1.9-0.3-2.7-0.8c-0.8-0.5-1.4-1.2-1.9-1.9V63h-1.6V46.2h1.4
		v2.3c0.5-0.8,1.1-1.4,1.9-1.8c0.8-0.5,1.6-0.7,2.5-0.7c0.8,0,1.6,0.2,2.3,0.5c0.7,0.3,1.3,0.8,1.8,1.4c0.5,0.6,0.9,1.2,1.2,2
		c0.3,0.8,0.4,1.5,0.4,2.3c0,0.8-0.1,1.6-0.4,2.4c-0.3,0.8-0.6,1.4-1.1,2c-0.5,0.5-1,1-1.7,1.3C94.1,58.2,93.3,58.3,92.6,58.3"/>
	<path class="st2" d="M101.1,41.5h1.6v14c0,0.4,0.1,0.8,0.4,1c0.2,0.3,0.6,0.4,1,0.4c0.2,0,0.4,0,0.6-0.1c0.2-0.1,0.4-0.1,0.6-0.2
		l0.3,1.2c-0.3,0.1-0.6,0.2-1.1,0.3c-0.4,0.1-0.8,0.1-1.1,0.1c-0.7,0-1.3-0.2-1.7-0.6c-0.4-0.4-0.6-1-0.6-1.7V41.5z"/>
	<path class="st2" d="M111,57.1c0.8,0,1.5-0.1,2.2-0.5c0.7-0.3,1.2-0.7,1.5-1.2c0.1-0.1,0.2-0.3,0.3-0.4c0.1-0.1,0.1-0.3,0.1-0.4
		v-1.9c-0.5-0.2-1-0.3-1.6-0.5c-0.6-0.1-1.1-0.2-1.7-0.2c-1.1,0-2,0.2-2.7,0.7c-0.7,0.5-1,1.1-1,1.8c0,0.4,0.1,0.7,0.2,1
		c0.1,0.3,0.3,0.6,0.6,0.8c0.3,0.2,0.5,0.4,0.9,0.6C110.3,57.1,110.6,57.1,111,57.1 M110.7,58.3c-0.5,0-1.1-0.1-1.6-0.3
		c-0.5-0.2-0.9-0.5-1.2-0.8c-0.3-0.3-0.6-0.7-0.8-1.2c-0.2-0.4-0.3-0.9-0.3-1.4c0-0.5,0.1-1,0.4-1.4c0.2-0.4,0.6-0.8,1-1.1
		c0.4-0.3,1-0.6,1.6-0.8c0.6-0.2,1.3-0.3,2-0.3c0.6,0,1.2,0.1,1.9,0.2c0.6,0.1,1.2,0.3,1.7,0.5v-1.1c0-1-0.3-1.9-0.9-2.5
		c-0.6-0.6-1.4-0.9-2.5-0.9c-0.6,0-1.2,0.1-1.9,0.4c-0.6,0.2-1.3,0.6-1.9,1l-0.5-1c1.5-1,3-1.6,4.5-1.6c1.5,0,2.7,0.4,3.5,1.2
		c0.8,0.8,1.3,2,1.3,3.5v5.4c0,0.4,0.2,0.6,0.6,0.6v1.4c-0.3,0.1-0.5,0.1-0.6,0.1c-0.4,0-0.7-0.1-0.9-0.3c-0.2-0.2-0.3-0.5-0.3-0.8
		l-0.1-0.9c-0.6,0.7-1.2,1.3-2.1,1.7C112.5,58.2,111.6,58.3,110.7,58.3"/>
	<path class="st2" d="M130.6,58.1H129v-6.6c0-1.4-0.2-2.4-0.6-3.1c-0.4-0.6-1.1-1-1.9-1c-0.5,0-0.9,0.1-1.4,0.3s-0.9,0.4-1.3,0.7
		c-0.4,0.3-0.7,0.7-1,1.1c-0.3,0.4-0.5,0.9-0.7,1.4v7.3h-1.6V46.2h1.4v2.7c0.5-0.9,1.2-1.6,2.1-2.1c0.9-0.5,1.9-0.8,3-0.8
		c0.7,0,1.2,0.1,1.7,0.4c0.5,0.2,0.8,0.6,1.1,1c0.3,0.4,0.5,1,0.6,1.6c0.1,0.6,0.2,1.4,0.2,2.1L130.6,58.1L130.6,58.1z"/>
	<path class="st2" d="M139.9,57.5c-0.1,0.1-0.2,0.1-0.4,0.2c-0.2,0.1-0.4,0.1-0.6,0.2c-0.2,0.1-0.5,0.1-0.8,0.2
		c-0.3,0.1-0.6,0.1-0.9,0.1c-0.3,0-0.7-0.1-1-0.1c-0.3-0.1-0.6-0.2-0.8-0.4c-0.2-0.2-0.4-0.4-0.5-0.7c-0.1-0.3-0.2-0.6-0.2-1v-8.5
		H133v-1.2h1.7v-4h1.6v4h2.8v1.2h-2.8v8.1c0,0.4,0.2,0.8,0.5,1c0.3,0.2,0.6,0.3,1,0.3c0.4,0,0.8-0.1,1.2-0.2
		c0.3-0.1,0.6-0.3,0.6-0.3L139.9,57.5z"/>
	<path class="st2" d="M145.7,57.1c0.8,0,1.5-0.1,2.2-0.5c0.7-0.3,1.2-0.7,1.5-1.2c0.1-0.1,0.2-0.3,0.3-0.4c0.1-0.1,0.1-0.3,0.1-0.4
		v-1.9c-0.5-0.2-1-0.3-1.6-0.5c-0.5-0.1-1.1-0.2-1.7-0.2c-1.1,0-2,0.2-2.7,0.7c-0.7,0.5-1,1.1-1,1.8c0,0.4,0.1,0.7,0.2,1
		c0.1,0.3,0.3,0.6,0.6,0.8c0.3,0.2,0.5,0.4,0.9,0.6C144.9,57.1,145.3,57.1,145.7,57.1 M145.3,58.3c-0.5,0-1.1-0.1-1.6-0.3
		c-0.5-0.2-0.9-0.5-1.2-0.8c-0.3-0.3-0.6-0.7-0.8-1.2c-0.2-0.4-0.3-0.9-0.3-1.4c0-0.5,0.1-1,0.4-1.4c0.2-0.4,0.6-0.8,1-1.1
		c0.4-0.3,1-0.6,1.6-0.8c0.6-0.2,1.3-0.3,2-0.3c0.6,0,1.2,0.1,1.9,0.2c0.6,0.1,1.2,0.3,1.7,0.5v-1.1c0-1-0.3-1.9-0.9-2.5
		c-0.6-0.6-1.4-0.9-2.5-0.9c-0.6,0-1.2,0.1-1.9,0.4c-0.6,0.2-1.3,0.6-1.9,1l-0.5-1c1.5-1,3-1.6,4.5-1.6c1.5,0,2.7,0.4,3.5,1.2
		c0.8,0.8,1.3,2,1.3,3.5v5.4c0,0.4,0.2,0.6,0.6,0.6v1.4c-0.3,0.1-0.5,0.1-0.6,0.1c-0.4,0-0.7-0.1-0.9-0.3c-0.2-0.2-0.3-0.5-0.3-0.8
		l-0.1-0.9c-0.6,0.7-1.2,1.3-2.1,1.7C147.2,58.2,146.3,58.3,145.3,58.3"/>
	<path class="st2" d="M161.1,47.6c-1,0-2,0.3-2.8,0.9c-0.8,0.5-1.3,1.3-1.6,2.3v7.4h-1.6V46.2h1.4v2.9c0.4-0.9,1-1.6,1.8-2.1
		c0.8-0.5,1.5-0.8,2.4-0.8c0.1,0,0.2,0,0.3,0L161.1,47.6L161.1,47.6z"/>
	<path class="st2" d="M181,57.9c0,0-0.1,0-0.2,0.1c-0.1,0-0.3,0.1-0.5,0.1c-0.2,0.1-0.4,0.1-0.7,0.1c-0.3,0-0.5,0.1-0.8,0.1
		c-0.7,0-1.3-0.2-1.7-0.6c-0.4-0.4-0.6-0.9-0.6-1.5v-11c0-0.3,0-0.6-0.1-0.9c-0.1-0.3-0.2-0.6-0.4-0.8c-0.2-0.2-0.5-0.4-0.8-0.6
		c-0.3-0.1-0.7-0.2-1.2-0.2c-0.5,0-0.8,0.1-1.2,0.3c-0.3,0.2-0.6,0.4-0.8,0.7c-0.2,0.3-0.3,0.7-0.5,1.1c-0.1,0.4-0.1,0.8-0.2,1.3
		v0.3h2.5v1.2h-2.5v10.7h-1.6V47.5h-1.6v-1.2h1.6v-0.4c0-0.7,0.1-1.3,0.3-1.8c0.2-0.6,0.4-1,0.8-1.4c0.3-0.4,0.8-0.7,1.3-1
		c0.5-0.2,1.1-0.3,1.8-0.3c0.7,0,1.2,0.1,1.8,0.3c0.5,0.2,0.9,0.4,1.3,0.8c0.3,0.3,0.6,0.7,0.8,1.1c0.2,0.4,0.3,0.9,0.3,1.4v10.7
		c0,0.3,0.1,0.6,0.3,1c0.2,0.3,0.5,0.5,1,0.5c0.3,0,0.6,0,0.9-0.1c0.3-0.1,0.5-0.1,0.5-0.1L181,57.9z"/>
	<path class="st2" d="M183.9,52.2c0,0.7,0.1,1.3,0.3,1.9c0.2,0.6,0.6,1.1,0.9,1.5c0.4,0.4,0.8,0.8,1.4,1c0.5,0.2,1.1,0.4,1.7,0.4
		c0.6,0,1.2-0.1,1.7-0.4c0.5-0.3,1-0.6,1.4-1c0.4-0.4,0.7-0.9,0.9-1.5c0.2-0.6,0.3-1.2,0.3-1.9s-0.1-1.3-0.3-1.9
		c-0.2-0.6-0.6-1.1-0.9-1.5c-0.4-0.4-0.9-0.8-1.4-1c-0.5-0.2-1.1-0.4-1.7-0.4c-0.6,0-1.2,0.1-1.7,0.4c-0.5,0.3-1,0.6-1.4,1
		c-0.4,0.4-0.7,1-0.9,1.5C184,50.9,183.9,51.6,183.9,52.2 M188.2,58.3c-0.9,0-1.6-0.2-2.4-0.5c-0.7-0.3-1.3-0.8-1.9-1.3
		c-0.5-0.6-0.9-1.2-1.2-2c-0.3-0.8-0.4-1.5-0.4-2.3c0-0.8,0.1-1.6,0.4-2.4c0.3-0.8,0.7-1.4,1.2-2c0.5-0.6,1.2-1,1.9-1.3
		c0.7-0.3,1.5-0.5,2.3-0.5c0.8,0,1.6,0.2,2.4,0.5c0.7,0.3,1.4,0.8,1.9,1.3c0.5,0.5,0.9,1.2,1.2,2c0.3,0.8,0.4,1.5,0.4,2.4
		c0,0.8-0.1,1.6-0.4,2.3c-0.3,0.8-0.7,1.4-1.2,2c-0.5,0.5-1.2,1-1.9,1.3C189.9,58.2,189.1,58.3,188.2,58.3"/>
	<path class="st2" d="M203.1,47.6c-1,0-2,0.3-2.8,0.9c-0.8,0.5-1.3,1.3-1.6,2.3v7.4h-1.6V46.2h1.4v2.9c0.4-0.9,1-1.6,1.8-2.1
		c0.8-0.5,1.5-0.8,2.4-0.8c0.1,0,0.2,0,0.3,0L203.1,47.6L203.1,47.6z"/>
	<path class="st2" d="M214.6,51.5c-0.1-0.6-0.2-1.2-0.4-1.7c-0.2-0.5-0.6-1-1-1.4c-0.4-0.4-0.8-0.7-1.3-0.9c-0.5-0.2-1-0.3-1.6-0.3
		c-0.6,0-1.1,0.1-1.6,0.3c-0.5,0.2-1,0.5-1.4,0.9c-0.4,0.4-0.7,0.8-0.9,1.4c-0.2,0.5-0.4,1.1-0.4,1.7H214.6z M210.2,58.3
		c-0.9,0-1.6-0.2-2.4-0.5c-0.7-0.3-1.4-0.8-1.9-1.4c-0.5-0.6-1-1.2-1.2-2c-0.3-0.8-0.4-1.5-0.4-2.4c0-0.8,0.1-1.6,0.4-2.4
		c0.3-0.7,0.7-1.4,1.2-1.9c0.5-0.5,1.2-1,1.9-1.3c0.7-0.3,1.5-0.5,2.4-0.5c0.9,0,1.6,0.2,2.4,0.5c0.7,0.3,1.3,0.8,1.9,1.3
		c0.5,0.6,0.9,1.2,1.2,1.9c0.3,0.7,0.4,1.5,0.4,2.3v0.4c0,0.1,0,0.2,0,0.3h-10.2c0.1,0.6,0.2,1.2,0.4,1.8c0.3,0.5,0.6,1,1,1.4
		c0.4,0.4,0.8,0.7,1.4,0.9c0.5,0.2,1,0.3,1.6,0.3c0.4,0,0.8-0.1,1.1-0.2c0.4-0.1,0.7-0.3,1-0.4c0.3-0.2,0.6-0.4,0.9-0.7
		c0.3-0.3,0.5-0.6,0.6-0.9l1.4,0.4c-0.2,0.4-0.4,0.8-0.8,1.2c-0.3,0.3-0.7,0.7-1.2,0.9c-0.4,0.3-0.9,0.5-1.4,0.6
		C211.3,58.3,210.8,58.3,210.2,58.3"/>
	<path class="st2" d="M222.9,58.3c-0.9,0-1.8-0.1-2.7-0.5c-0.9-0.3-1.6-0.8-2.3-1.3l0.7-1c0.7,0.6,1.4,1,2.1,1.2
		c0.7,0.3,1.4,0.4,2.2,0.4c1,0,1.7-0.2,2.3-0.6c0.6-0.4,0.9-0.9,0.9-1.6c0-0.3-0.1-0.6-0.2-0.8c-0.1-0.2-0.4-0.4-0.7-0.6
		c-0.3-0.2-0.7-0.3-1.1-0.4c-0.5-0.1-1-0.3-1.6-0.4c-0.7-0.2-1.3-0.3-1.8-0.5c-0.5-0.2-0.9-0.3-1.2-0.6c-0.3-0.2-0.6-0.5-0.7-0.8
		c-0.2-0.3-0.2-0.7-0.2-1.2c0-0.6,0.1-1.1,0.3-1.6c0.2-0.4,0.5-0.8,1-1.1c0.4-0.3,0.9-0.5,1.4-0.7c0.6-0.1,1.1-0.2,1.7-0.2
		c0.9,0,1.7,0.1,2.5,0.4c0.8,0.3,1.3,0.7,1.8,1.2l-0.8,0.9c-0.4-0.5-1-0.8-1.6-1c-0.6-0.2-1.3-0.3-2-0.3c-0.4,0-0.8,0-1.1,0.1
		c-0.3,0.1-0.7,0.2-0.9,0.4c-0.3,0.2-0.5,0.4-0.6,0.7c-0.1,0.3-0.2,0.6-0.2,1c0,0.3,0.1,0.6,0.2,0.8c0.1,0.2,0.3,0.4,0.5,0.5
		c0.2,0.1,0.5,0.3,0.9,0.4c0.4,0.1,0.8,0.2,1.4,0.3c0.8,0.2,1.4,0.4,2,0.6c0.6,0.2,1.1,0.4,1.4,0.6c0.4,0.2,0.7,0.5,0.9,0.9
		c0.2,0.3,0.3,0.8,0.3,1.3c0,1.1-0.4,2-1.2,2.6C225.4,58,224.3,58.3,222.9,58.3"/>
	<path class="st2" d="M236.2,57.5c-0.1,0.1-0.2,0.1-0.4,0.2c-0.2,0.1-0.4,0.1-0.6,0.2c-0.2,0.1-0.5,0.1-0.8,0.2
		c-0.3,0.1-0.6,0.1-0.9,0.1c-0.3,0-0.7-0.1-1-0.1c-0.3-0.1-0.6-0.2-0.8-0.4c-0.2-0.2-0.4-0.4-0.5-0.7c-0.1-0.3-0.2-0.6-0.2-1v-8.5
		h-1.7v-1.2h1.7v-4h1.6v4h2.8v1.2h-2.8v8.1c0,0.4,0.2,0.8,0.5,1c0.3,0.2,0.6,0.3,1,0.3c0.4,0,0.8-0.1,1.2-0.2
		c0.3-0.1,0.6-0.3,0.6-0.3L236.2,57.5z"/>
	<path class="st2" d="M241.9,57.1c0.8,0,1.5-0.1,2.2-0.5c0.7-0.3,1.2-0.7,1.5-1.2c0.1-0.1,0.2-0.3,0.3-0.4c0.1-0.1,0.1-0.3,0.1-0.4
		v-1.9c-0.5-0.2-1-0.3-1.6-0.5c-0.5-0.1-1.1-0.2-1.7-0.2c-1.1,0-2,0.2-2.7,0.7c-0.7,0.5-1,1.1-1,1.8c0,0.4,0.1,0.7,0.2,1
		c0.1,0.3,0.3,0.6,0.6,0.8c0.3,0.2,0.5,0.4,0.9,0.6C241.2,57.1,241.5,57.1,241.9,57.1 M241.6,58.3c-0.5,0-1.1-0.1-1.6-0.3
		c-0.5-0.2-0.9-0.5-1.2-0.8c-0.3-0.3-0.6-0.7-0.8-1.2c-0.2-0.4-0.3-0.9-0.3-1.4c0-0.5,0.1-1,0.4-1.4c0.2-0.4,0.6-0.8,1-1.1
		c0.4-0.3,1-0.6,1.6-0.8c0.6-0.2,1.3-0.3,2-0.3c0.6,0,1.2,0.1,1.9,0.2c0.6,0.1,1.2,0.3,1.7,0.5v-1.1c0-1-0.3-1.9-0.9-2.5
		c-0.6-0.6-1.4-0.9-2.5-0.9c-0.6,0-1.2,0.1-1.9,0.4c-0.6,0.2-1.3,0.6-1.9,1l-0.5-1c1.5-1,3-1.6,4.5-1.6c1.5,0,2.7,0.4,3.5,1.2
		c0.8,0.8,1.3,2,1.3,3.5v5.4c0,0.4,0.2,0.6,0.6,0.6v1.4c-0.3,0.1-0.5,0.1-0.6,0.1c-0.4,0-0.7-0.1-0.9-0.3s-0.3-0.5-0.3-0.8l-0.1-0.9
		c-0.6,0.7-1.2,1.3-2.1,1.7C243.4,58.2,242.5,58.3,241.6,58.3"/>
	<g>
		<path class="st0" d="M26.5,44.1c0.1,1.5,0.4,2.7,1,3.7c1.1,1.8,3.2,2.6,6.1,2.6c1.3,0,2.5-0.2,3.5-0.6c2.1-0.7,3.1-2.1,3.1-4
			c0-1.4-0.4-2.5-1.3-3.1c-0.9-0.6-2.3-1.1-4.2-1.6l-3.5-0.8c-2.3-0.5-3.9-1.1-4.8-1.8c-1.6-1.1-2.4-2.8-2.4-5
			c0-2.4,0.8-4.3,2.4-5.9c1.6-1.5,3.9-2.3,6.8-2.3c2.7,0,5,0.7,6.9,2C42,28.9,43,31,43,34h-3.4c-0.2-1.4-0.5-2.5-1.1-3.3
			c-1.1-1.4-2.8-2.1-5.3-2.1c-2,0-3.5,0.4-4.4,1.3c-0.9,0.9-1.3,1.9-1.3,3.1c0,1.3,0.5,2.3,1.6,2.9c0.7,0.4,2.2,0.9,4.7,1.4l3.6,0.8
			c1.7,0.4,3.1,1,4,1.7c1.6,1.2,2.4,3,2.4,5.4c0,2.9-1,5-3.1,6.3c-2.1,1.3-4.5,1.9-7.3,1.9c-3.2,0-5.7-0.8-7.6-2.5
			c-1.8-1.7-2.7-3.9-2.7-6.8H26.5z"/>
		<rect x="31.3" y="20.8" class="st0" width="3.6" height="6"/>
		<polygon class="st0" points="27.3,66.7 30.7,52.8 35.5,52.8 38.9,66.7 		"/>
		<g>
			<path class="st1" d="M22.8,50.6c0,0-1.7-4.9-4.2-6.1c-2.5-1.2-7.8-0.5-8.8-0.1c1.8,1.3,4.3,6.3,6.5,7.7c1.2,0.8,3.9,0.7,5.8-0.7
				c-1.8-0.1-3.5,0.3-6.5-4.3C18.3,49.3,19.7,50.6,22.8,50.6"/>
			<path class="st1" d="M33.4,47.3c0,0-0.2-3.4-1.6-4.7c-1.4-1.3-4.9-1.7-5.6-1.7c0.9,1.2,1.6,4.8,2.8,6.1c0.6,0.7,2.4,1.2,3.9,0.6
				c-1.1-0.4-2.3-0.5-3.3-4C30.8,45.6,31.4,46.7,33.4,47.3"/>
			<path class="st1" d="M29,22.8c0,0-0.6-4.6-2.6-6.1s-6.7-1.8-7.6-1.7c1.3,1.5,2.6,6.3,4.3,7.9c0.9,0.9,3.3,1.3,5.2,0.5
				c-1.6-0.4-3.1-0.4-4.9-5C25.3,20.8,26.3,22.2,29,22.8"/>
			<path class="st1" d="M12,19.2c0,0-2.4-1.9-4.1-1.8c-1.7,0.2-4.1,2.3-4.5,2.7C4.7,20.2,7.6,22,9.2,22c0.9,0,2.2-0.9,2.8-2.2
				c-1,0.5-1.7,1.3-4.7-0.1C9.3,19.9,10.4,20.2,12,19.2"/>
			<path class="st1" d="M34.9,19.2c0,0-0.7-3.4,0.3-5s4-3,4.6-3.1c-0.5,1.4-0.3,5.1-1,6.7c-0.4,0.9-1.9,1.8-3.3,1.6
				c0.9-0.7,1.9-1,2.1-4.7C36.9,16.9,36.6,18.1,34.9,19.2"/>
			<path class="st1" d="M32.8,18c0,0,1.6-4.9,0.3-7.4c-1.3-2.5-5.9-5-6.9-5.4c0.6,2.1-0.3,7.6,0.6,10c0.5,1.3,2.7,2.9,5.1,3
				c-1.4-1.2-2.9-1.8-2.6-7.3C29.9,14.3,30.3,16.1,32.8,18"/>
			<path class="st1" d="M22.9,37.9c0,0,1.1-4.6-0.3-6.8s-6-4.1-6.9-4.3c0.7,1.9,0.3,6.9,1.4,9.1c0.6,1.2,2.8,2.4,5,2.3
				c-1.4-1-2.9-1.5-3-6.5C19.9,34.7,20.4,36.4,22.9,37.9"/>
			<path class="st1" d="M54.6,25.5c0,0,0.4-2.8,1.6-3.8c1.2-1,4.1-1.1,4.7-1.1c-0.8,0.9-1.6,3.9-2.6,4.8c-0.6,0.5-2,0.8-3.2,0.3
				c1-0.3,1.9-0.2,3-3.1C56.9,24.3,56.3,25.1,54.6,25.5"/>
			<path class="st1" d="M47.3,36.4c0,0,4.5-2.3,5.4-4.8c0.9-2.6-0.4-7.5-0.8-8.3c-1.1,1.8-5.6,4.9-6.7,7.2c-0.6,1.3-0.2,3.8,1.3,5.5
				c-0.1-1.7-0.6-3.3,3.5-6.7C48.1,31.9,46.9,33.5,47.3,36.4"/>
			<path class="st1" d="M48.4,45.2c0,0,0.8-2.9,0-4.3c-0.8-1.4-3.6-2.8-4.1-2.9c0.4,1.2,0,4.4,0.6,5.8c0.3,0.8,1.6,1.6,3,1.6
				c-0.8-0.6-1.7-1-1.7-4.2C46.6,43.1,46.9,44.1,48.4,45.2"/>
			<path class="st1" d="M8,37.7c0,0,1.4-3,0.9-4.7c-0.6-1.7-3.4-3.8-4-4.1c0.2,1.4-0.9,4.9-0.5,6.5c0.2,0.9,1.5,2.1,3,2.4
				c-0.8-0.9-1.7-1.5-1-5C6.5,35,6.5,36.3,8,37.7"/>
			<path class="st1" d="M45.1,21.4c0,0,3-1.5,3.6-3.2c0.6-1.7-0.3-5.1-0.6-5.7c-0.7,1.2-3.7,3.3-4.4,4.8c-0.4,0.8-0.1,2.6,0.9,3.7
				c-0.1-1.2-0.5-2.2,2.3-4.5C45.6,18.4,44.8,19.4,45.1,21.4"/>
			<path class="st1" d="M32.8,35.8c0,0,0.8-2.1,0.3-3.2c-0.5-1.1-2.5-2.3-2.9-2.4c0.2,0.9-0.3,3.3,0.1,4.3c0.2,0.6,1.1,1.3,2.1,1.4
				c-0.6-0.5-1.2-0.9-1-3.2C31.7,34.1,31.8,34.9,32.8,35.8"/>
			<path class="st1" d="M24.5,13.4c0,0-2.9,1-5.6-1c-2.7-2-2.6-5.5-2.6-5.5s2.7-0.9,5.6,1C24.8,9.8,24.5,13.4,24.5,13.4"/>
			<path class="st1" d="M38.2,25.1c0,0-1.1-1.8,0-3.9c1-2.1,3.4-2.5,3.4-2.5s1,1.8,0,3.9C40.7,24.8,38.2,25.1,38.2,25.1"/>
			<path class="st1" d="M40.5,38.3c0,0-1.1-0.3-1.5-1.6c-0.4-1.2,0.4-2.3,0.4-2.3s1.1,0.3,1.5,1.6C41.4,37.2,40.5,38.3,40.5,38.3"/>
			<path class="st1" d="M24.5,27.3c0,0-1,1-2.5,0.8c-1.6-0.2-2.3-1.7-2.3-1.7s0.9-1,2.5-0.8C23.9,25.8,24.5,27.3,24.5,27.3"/>
			<path class="st1" d="M22.3,24.9c0,0-1,0.1-1.7-0.7c-0.7-0.8-0.4-1.9-0.4-1.9s0.9-0.1,1.7,0.7C22.6,23.8,22.3,24.9,22.3,24.9"/>
			<path class="st1" d="M25.7,41.9c0,0-0.5,0.5-1.2,0.4c-0.8-0.1-1.1-0.8-1.1-0.8s0.5-0.5,1.2-0.4C25.4,41.1,25.7,41.9,25.7,41.9"/>
			<path class="st1" d="M24.6,40.7c0,0-0.5,0.1-0.9-0.4c-0.4-0.4-0.2-1-0.2-1s0.5,0,0.9,0.4S24.6,40.7,24.6,40.7"/>
			<path class="st1" d="M7.7,42.3c0,0-1.2,0.7-2.6,0C3.7,41.6,3.4,40,3.4,40s1.2-0.7,2.6,0C7.5,40.6,7.7,42.3,7.7,42.3"/>
			<path class="st1" d="M4.5,38.6c0,0-1,0.6-2.2,0C1.2,38,1,36.7,1,36.7s1-0.5,2.2,0C4.4,37.2,4.5,38.6,4.5,38.6"/>
			<path class="st1" d="M5.7,27.4c0,0-1.3,0.5-2.6-0.4s-1.3-2.5-1.3-2.5S3,24,4.4,24.9C5.8,25.7,5.7,27.4,5.7,27.4"/>
			<path class="st1" d="M3.3,35.1c0,0-1.4-0.2-2-1.7c-0.7-1.4,0.2-2.8,0.2-2.8s1.3,0.2,2,1.7C4.2,33.7,3.3,35.1,3.3,35.1"/>
			<path class="st1" d="M8.4,44.8c0,0-0.5,1.3-2,1.7c-1.5,0.4-2.7-0.7-2.7-0.7s0.5-1.3,2-1.7C7.2,43.6,8.4,44.8,8.4,44.8"/>
			<path class="st1" d="M8.3,47.6c0,0,0.8,0.8,0.5,2.1c-0.3,1.2-1.5,1.7-1.5,1.7s-0.7-0.8-0.5-2.1C7,48,8.3,47.6,8.3,47.6"/>
			<path class="st1" d="M52.9,7.9c0,0,2,1.7,1.6,4.6c-0.4,2.9-3,4.3-3,4.3s-1.9-1.7-1.6-4.6S52.9,7.9,52.9,7.9"/>
			<path class="st1" d="M56.6,41.3c0,0,1,0.9,2.4,0.6s2-1.8,2-1.8s-1-0.8-2.4-0.6C57.1,39.8,56.6,41.3,56.6,41.3"/>
			<path class="st1" d="M56.6,43.7c0,0,0.5,1.3,1.9,1.6c1.4,0.4,2.6-0.7,2.6-0.7s-0.5-1.2-1.9-1.6C57.7,42.6,56.6,43.7,56.6,43.7"/>
			<path class="st1" d="M56.7,46.4c0,0-0.7,0.8-0.5,2c0.3,1.2,1.4,1.6,1.4,1.6s0.7-0.8,0.5-2C57.9,46.8,56.7,46.4,56.7,46.4"/>
			<path class="st1" d="M59.9,38.2c0,0,1.4,0.6,2.8-0.4s1.4-2.7,1.4-2.7s-1.3-0.5-2.8,0.4S59.9,38.2,59.9,38.2"/>
			<path class="st1" d="M51.4,36c0,0,0.4,1.4-0.6,2.6c-1,1.2-2.6,1.1-2.6,1.1s-0.4-1.3,0.6-2.6C49.8,35.8,51.4,36,51.4,36"/>
			<path class="st1" d="M54.2,40.5c0,0-0.7,1.2-2.3,1.3c-1.6,0.1-2.5-1.2-2.5-1.2s0.7-1.1,2.3-1.3C53.2,39.2,54.2,40.5,54.2,40.5"/>
			<path class="st1" d="M34.3,42c0,0,1,0.3,1.3,1.5c0.3,1.1-0.5,2.1-0.5,2.1s-0.9-0.3-1.3-1.5C33.4,42.9,34.3,42,34.3,42"/>
			<path class="st1" d="M37.7,43.2c0,0,0.3,0.7-0.2,1.5c-0.5,0.8-1.4,0.8-1.4,0.8s-0.3-0.7,0.2-1.5C36.7,43.2,37.7,43.2,37.7,43.2"
				/>
			<path class="st1" d="M50.8,18.4c0,0,1,1,0.6,2.6c-0.4,1.5-1.9,2.1-1.9,2.1s-0.9-1-0.6-2.6C49.2,19,50.8,18.4,50.8,18.4"/>
			<path class="st1" d="M59.6,27.8c0,0,0.2,2-1.5,3.4c-1.7,1.4-3.9,0.8-3.9,0.8s-0.2-1.9,1.5-3.4S59.6,27.8,59.6,27.8"/>
			<path class="st1" d="M21.8,44.7c0,0-1.9-0.3-2.8-2.3c-0.9-2,0.3-3.9,0.3-3.9s1.8,0.4,2.8,2.3C23,42.8,21.8,44.7,21.8,44.7"/>
			<path class="st1" d="M9.1,29.9c0,0-1.4-0.1-2.2-1.4c-0.8-1.3-0.1-2.8-0.1-2.8s1.3,0.1,2.2,1.4C9.8,28.4,9.1,29.9,9.1,29.9"/>
			<path class="st1" d="M10,26.9c0,0-1-1-0.6-2.6c0.4-1.5,1.9-2.1,1.9-2.1s0.9,1,0.6,2.6C11.6,26.4,10,26.9,10,26.9"/>
			<path class="st1" d="M5.1,23.2c0,0,0.5-0.9,1.5-1c1.1-0.1,1.8,0.7,1.8,0.7s-0.4,0.8-1.5,1C5.8,24.1,5.1,23.2,5.1,23.2"/>
			<path class="st1" d="M59,32.4c0,0,0.5-0.9,1.5-1c1.1-0.1,1.8,0.7,1.8,0.7s-0.4,0.8-1.5,1C59.7,33.3,59,32.4,59,32.4"/>
			<path class="st1" d="M51.7,22c0,0,0.2-0.9,1.2-1.4c1-0.4,1.9,0.2,1.9,0.2s-0.2,0.9-1.2,1.4S51.7,22,51.7,22"/>
			<path class="st1" d="M43.4,51.6c0,0,0.6-1.1,1.9-1.2c1.3-0.1,2.2,0.9,2.2,0.9s-0.5,1-1.9,1.2S43.4,51.6,43.4,51.6"/>
			<path class="st1" d="M44.8,49.9c0,0-0.5-1.1,0.1-2.2c0.6-1.2,2-1.3,2-1.3s0.5,1-0.1,2.2C46.2,49.8,44.8,49.9,44.8,49.9"/>
			<path class="st1" d="M41.2,38.1c0,0,0.3-0.6,1.1-0.7c0.7-0.1,1.2,0.5,1.2,0.5s-0.3,0.6-1.1,0.7C41.7,38.7,41.2,38.1,41.2,38.1"/>
			<path class="st1" d="M42,37.1c0,0-0.3-0.6,0-1.3c0.4-0.7,1.1-0.7,1.1-0.7s0.3,0.6,0,1.3C42.8,37.1,42,37.1,42,37.1"/>
			<path class="st1" d="M59.8,30.5c0,0-0.1-1,0.8-1.6c0.8-0.7,1.9-0.3,1.9-0.3s0.1,0.9-0.8,1.6C60.9,30.9,59.8,30.5,59.8,30.5"/>
			<path class="st1" d="M60.3,26.6c0,0-0.4-0.7,0-1.5c0.4-0.8,1.3-0.9,1.3-0.9s0.4,0.7,0,1.5C61.3,26.5,60.3,26.6,60.3,26.6"/>
			<path class="st1" d="M8.8,14.1c0,0,0.9-0.2,1.7,0.5c0.8,0.7,0.6,1.8,0.6,1.8s-0.9,0.2-1.7-0.5C8.6,15.2,8.8,14.1,8.8,14.1"/>
			<path class="st1" d="M23.9,4.4c0,0,0.8,0.5,0.8,1.6c0,1.1-0.9,1.7-0.9,1.7S23,7.2,23,6.1C22.9,5,23.9,4.4,23.9,4.4"/>
			<path class="st1" d="M34.2,1.3c0,0,0.5,0.8,0.1,1.8c-0.4,1-1.5,1.2-1.5,1.2s-0.5-0.8-0.1-1.8C33.1,1.5,34.2,1.3,34.2,1.3"/>
			<path class="st1" d="M48.1,4.5c0,0,0.5,0.8,0.1,1.8c-0.4,1-1.5,1.2-1.5,1.2s-0.5-0.8-0.1-1.8C46.9,4.7,48.1,4.5,48.1,4.5"/>
			<path class="st1" d="M26.9,1.1c0,0,2.1-0.6,3.9,1c1.8,1.6,1.5,4,1.5,4s-2,0.5-3.9-1C26.5,3.6,26.9,1.1,26.9,1.1"/>
			<path class="st1" d="M19.7,2.6c0,0,1.2,0.2,1.9,1.4c0.6,1.2-0.1,2.5-0.1,2.5s-1.2-0.2-1.9-1.4C18.9,3.9,19.7,2.6,19.7,2.6"/>
			<path class="st1" d="M9.1,10.6c0,0,1,0,1.6,0.9c0.6,0.9,0.2,1.9,0.2,1.9s-0.9,0-1.6-0.9C8.7,11.6,9.1,10.6,9.1,10.6"/>
			<path class="st1" d="M5.2,15.8c0,0,0.7-0.7,1.7-0.5c1.1,0.2,1.5,1.2,1.5,1.2S7.8,17.1,6.7,17C5.6,16.9,5.2,15.8,5.2,15.8"/>
			<path class="st1" d="M7.2,13.1c0,0,0.5,0.2,0.7,0.8S7.7,15,7.7,15S7.2,14.8,7,14.2C6.8,13.6,7.2,13.1,7.2,13.1"/>
			<path class="st1" d="M10.4,8.5c0,0,1.5-1,3.3-0.3c1.9,0.7,2.3,2.7,2.3,2.7s-1.4,1-3.3,0.3C10.8,10.6,10.4,8.5,10.4,8.5"/>
			<path class="st1" d="M16.8,18.1c0,0-2,0.4-3.5-1.2S12.2,13,12.2,13s1.9-0.3,3.5,1.2C17.4,15.8,16.8,18.1,16.8,18.1"/>
			<path class="st1" d="M12.7,41.4c0,0-0.4,1.1-1.6,1.4C10,43.1,9,42.3,9,42.3s0.4-1,1.6-1.4C11.8,40.5,12.7,41.4,12.7,41.4"/>
			<path class="st1" d="M18,43.5c0,0-0.9,0.1-1.6-0.6c-0.7-0.8-0.4-1.8-0.4-1.8s0.9-0.1,1.6,0.6C18.3,42.5,18,43.5,18,43.5"/>
			<path class="st1" d="M41.3,17.2c0,0-1-1-0.6-2.6c0.4-1.5,1.9-2.1,1.9-2.1s0.9,1,0.6,2.6C42.9,16.7,41.3,17.2,41.3,17.2"/>
			<path class="st1" d="M43.9,11.8c0,0-1.1,0.2-2-0.6C41,10.3,41.2,9,41.2,9s1.1-0.2,2,0.6C44.2,10.5,43.9,11.8,43.9,11.8"/>
			<path class="st1" d="M45.5,13.5c0,0-1-1-0.6-2.6c0.4-1.5,1.9-2.1,1.9-2.1s0.9,1,0.6,2.6C47.1,13,45.5,13.5,45.5,13.5"/>
			<path class="st1" d="M48.2,9.6c0,0-0.4-1.1,0.3-2.1s2.1-1,2.1-1s0.4,1-0.3,2.1C49.6,9.7,48.2,9.6,48.2,9.6"/>
			<path class="st1" d="M44.5,8.7c0,0-1.5-0.8-1.8-2.6c-0.2-1.9,1.2-3.2,1.2-3.2s1.4,0.7,1.8,2.6C46,7.4,44.5,8.7,44.5,8.7"/>
			<path class="st1" d="M35.5,10c0,0-2.4-2.8-0.4-5.3c2-2.6,3.8-1.7,4.7-2.3c0.9-0.5,0.9-0.7,0.9-0.7s0.3,0.6,0.6,1.8
				c0.3,1.2,0.7,3.2-1,5.1C38.7,10.4,35.5,10,35.5,10"/>
			<path class="st1" d="M54.4,19.5c0,0-1.7-1.9-0.3-3.7s2.6-1.2,3.2-1.6c0.6-0.3,0.6-0.5,0.6-0.5s0.2,0.4,0.4,1.3
				c0.2,0.9,0.5,2.2-0.7,3.5C56.7,19.8,54.4,19.5,54.4,19.5"/>
			<path class="st1" d="M18.7,23.6c0,0-2.1,1.5-3.7,0c-1.6-1.5-1-2.7-1.3-3.4c-0.3-0.7-0.4-0.6-0.4-0.6s0.4-0.2,1.3-0.3
				c0.9-0.1,2.2-0.3,3.5,1C19.2,21.4,18.7,23.6,18.7,23.6"/>
			<path class="st1" d="M34.1,48.4c0,0-0.4-1.4,0.7-2c1.1-0.6,1.7,0,2.1-0.1c0.4,0,0.4-0.1,0.4-0.1s0,0.3-0.1,0.8s-0.2,1.3-1.2,1.7
				C35.2,49.1,34.1,48.4,34.1,48.4"/>
			<path class="st1" d="M34.2,33.1c0,0-0.8-0.9-0.1-1.8c0.7-0.8,1.2-0.6,1.5-0.7c0.3-0.2,0.3-0.2,0.3-0.2S36,30.6,36,31
				c0.1,0.4,0.2,1-0.3,1.7C35.2,33.2,34.2,33.1,34.2,33.1"/>
			<path class="st1" d="M16.2,39.3c0,0-1.8,1.8-3.7,0.6c-1.9-1.2-1.4-2.5-1.8-3.1c-0.4-0.6-0.5-0.6-0.5-0.6s0.4-0.2,1.2-0.5
				c0.8-0.2,2.2-0.6,3.6,0.4C16.3,37.1,16.2,39.3,16.2,39.3"/>
			<path class="st1" d="M13.2,33.7c0,0-2.5-0.2-2.8-2.5c-0.2-2.2,1.1-2.7,1.3-3.4c0.2-0.7,0.1-0.8,0.1-0.8s0.4,0.2,1.1,0.7
				c0.7,0.5,1.9,1.3,1.9,3C14.9,32.3,13.2,33.7,13.2,33.7"/>
			<path class="st1" d="M53.6,36.8c0,0-0.2-2.5,2-3.1c2.2-0.6,2.8,0.6,3.5,0.7c0.7,0.1,0.8,0,0.8,0s-0.1,0.5-0.4,1.2
				c-0.4,0.8-0.9,2-2.7,2.4C55.2,38.3,53.6,36.8,53.6,36.8"/>
			<path class="st1" d="M49.4,50.1c0,0-1.8-2.7,0.3-4.7c2-2,3.5-1.1,4.3-1.4c0.8-0.3,0.8-0.5,0.8-0.5s0.2,0.6,0.3,1.7
				c0.1,1.1,0.2,2.9-1.5,4.3C52.2,50.8,49.4,50.1,49.4,50.1"/>
			<path class="st1" d="M41.3,25.4c0,0,0.3-2.5,2.5-2.7c2.2-0.2,2.7,1.1,3.4,1.3c0.7,0.2,0.8,0.1,0.8,0.1s-0.2,0.4-0.7,1.1
				c-0.5,0.7-1.3,1.9-3,1.9C42.6,27.2,41.3,25.4,41.3,25.4"/>
			<path class="st1" d="M34.1,35.9c0,0-0.4-1.7,0.9-2.3c1.4-0.7,2,0.1,2.5,0c0.5,0,0.5-0.1,0.5-0.1s0,0.3-0.1,0.9
				c-0.2,0.6-0.4,1.5-1.5,2C35.4,36.7,34.1,35.9,34.1,35.9"/>
		</g>
	</g>
</g>
</svg>
