<?xml version="1.0" encoding="utf-8"?>
<!-- Generator: Adobe Illustrator 16.0.0, SVG Export Plug-In . SVG Version: 6.00 Build 0)  -->
<!DOCTYPE svg PUBLIC "-//W3C//DTD SVG 1.1//EN" "http://www.w3.org/Graphics/SVG/1.1/DTD/svg11.dtd">
<svg version="1.1" id="Layer_1" xmlns="http://www.w3.org/2000/svg" xmlns:xlink="http://www.w3.org/1999/xlink" x="0px" y="0px"
	 width="291.771px" height="45.298px" viewBox="0 0 291.771 45.298" enable-background="new 0 0 291.771 45.298"
	 xml:space="preserve">
<g>
	<g>
		<g>
			<path fill="#FB963B" d="M123.849,6.904v1.863h-14.675v13.728h14.675v1.863h-14.675v13.725h14.675v1.865h-16.538V6.904H123.849
				L123.849,6.904z"/>
			<path fill="#FB963B" d="M145.616,6.904v1.863H130.94v13.728h14.676v1.863H130.94v13.725h14.676v1.865H129.08V6.904H145.616
				L145.616,6.904z"/>
			<path fill="#FB963B" d="M178.168,35.895c-3.139,3.007-6.896,4.509-11.244,4.509c-4.706,0-8.694-1.635-11.993-4.935
				c-3.302-3.301-4.937-7.288-4.937-11.993c0-4.675,1.635-8.662,4.937-11.963c3.299-3.3,7.287-4.97,11.993-4.97
				c4.38,0,8.171,1.473,11.406,4.412l-1.438,1.275c-2.844-2.516-6.179-3.757-9.969-3.757c-4.15,0-7.68,1.472-10.622,4.412
				c-2.94,2.94-4.412,6.472-4.412,10.622s1.472,7.713,4.412,10.655c2.942,2.94,6.472,4.412,10.622,4.412
				c3.562,0,6.701-1.078,9.412-3.268V25.207h1.863L178.168,35.895L178.168,35.895z"/>
		</g>
		<path fill="#FB963B" d="M100.023,23.868c0-0.065-0.032-0.163-0.065-0.228c-0.294-0.653-0.655-1.241-1.079-1.832
			c-0.393-0.556-0.817-1.079-1.306-1.535l-0.065,0.065c-1.733-1.634-3.856-2.843-6.308-3.66c-1.668-0.752-2.942-1.601-3.891-2.518
			c-1.012-1.011-1.504-2.221-1.504-3.66c0-1.438,0.492-2.648,1.504-3.66c1.014-1.014,2.222-1.504,3.627-1.504
			c1.407,0,2.616,0.49,3.627,1.504c0.557,0.555,0.981,1.176,1.21,1.861l1.699-0.653c-0.293-0.914-0.816-1.731-1.567-2.449
			c-1.407-1.373-3.041-2.06-4.969-2.06c-1.96,0-3.595,0.687-4.968,2.06c-1.371,1.371-2.058,3.005-2.058,4.901
			c0,1.96,0.687,3.595,2.058,4.969c1.373,1.374,3.235,2.451,5.59,3.203c1.994,0.817,3.662,1.897,5.033,3.269
			c0.458,0.458,0.851,0.947,1.176,1.438c0.066,0.131,0.165,0.229,0.229,0.359c0.034,0.066,0.065,0.099,0.1,0.164
			c0.72,1.373,1.111,2.91,1.111,4.511c0,2.614-1.012,5.065-2.875,6.928c-3.826,3.824-10.002,3.824-13.826,0
			c-0.783-0.785-1.405-1.634-1.862-2.616l-1.602,0.784c0.557,1.144,1.307,2.191,2.224,3.107c2.255,2.255,5.229,3.398,8.172,3.398
			c2.973,0,5.915-1.144,8.17-3.398c2.189-2.193,3.399-5.099,3.399-8.173C100.971,26.842,100.611,25.306,100.023,23.868z"/>
	</g>
	<g>
		<path fill="#808284" d="M197.548,11.393v10.426h-1.308v-8.467l-3.433,4.479l-3.432-4.479v8.467h-1.308V11.393h1.406l3.333,4.377
			l3.335-4.377H197.548z"/>
		<path fill="#808284" d="M214.803,12.83c1.047,1.046,1.569,2.287,1.569,3.759c0,1.47-0.522,2.712-1.569,3.758
			c-1.046,1.046-2.318,1.568-3.856,1.568c-1.504,0-2.779-0.521-3.825-1.568c-1.044-1.046-1.566-2.321-1.566-3.758
			c0-1.438,0.522-2.713,1.566-3.759c1.046-1.048,2.321-1.569,3.825-1.569C212.484,11.261,213.76,11.784,214.803,12.83z
			 M210.98,12.406c-1.111,0-2.059,0.392-2.876,1.209c-0.818,0.816-1.209,1.798-1.209,2.975s0.393,2.157,1.209,2.974
			c0.816,0.818,1.765,1.208,2.876,1.208c1.112,0,2.092-0.392,2.876-1.208c0.816-0.815,1.21-1.797,1.21-2.974
			s-0.394-2.158-1.21-2.975C213.042,12.796,212.092,12.406,210.98,12.406z"/>
		<path fill="#808284" d="M225.817,11.393l5.949,8.333v-8.333h1.306v10.426h-1.436l-5.786-8.107v8.107h-1.308V11.393H225.817z"/>
		<path fill="#808284" d="M242.912,11.393v10.426h-1.308V11.393H242.912z"/>
		<path fill="#808284" d="M254.71,12.536v9.282h-1.306v-9.282h-2.486v-1.144h6.277v1.144H254.71z"/>
		<path fill="#808284" d="M273.469,12.83c1.049,1.046,1.57,2.287,1.57,3.759c0,1.47-0.521,2.712-1.57,3.758
			c-1.046,1.046-2.319,1.568-3.855,1.568c-1.505,0-2.777-0.521-3.824-1.568c-1.048-1.046-1.569-2.289-1.569-3.758
			c0-1.438,0.521-2.713,1.569-3.759c1.045-1.048,2.319-1.569,3.824-1.569C271.149,11.261,272.425,11.784,273.469,12.83z
			 M269.647,12.406c-1.112,0-2.059,0.392-2.876,1.209c-0.818,0.816-1.21,1.798-1.21,2.975s0.393,2.157,1.21,2.974
			c0.816,0.818,1.764,1.208,2.876,1.208c1.11,0,2.092-0.392,2.875-1.208c0.817-0.815,1.21-1.797,1.21-2.974s-0.393-2.158-1.21-2.975
			C271.706,12.796,270.758,12.406,269.647,12.406z"/>
		<path fill="#808284" d="M285.726,18.42h-1.207v3.399h-1.308V11.394h2.974c0.882,0.13,1.602,0.458,2.19,1.046
			c0.687,0.687,1.016,1.503,1.016,2.452c0,0.947-0.359,1.764-1.047,2.483c-0.458,0.457-0.883,0.752-1.242,0.817l2.354,3.593h-1.505
			L285.726,18.42z M284.519,12.536v4.706h1.271c0.622,0,1.146-0.229,1.602-0.686c0.459-0.458,0.686-1.013,0.686-1.701
			c0-0.687-0.227-1.241-0.686-1.667c-0.455-0.456-0.979-0.687-1.602-0.687L284.519,12.536L284.519,12.536z"/>
		<path fill="#808284" d="M190.064,32.931c0.194,0.163,0.262,0.392,0.262,0.621s-0.098,0.458-0.262,0.622
			c-0.199,0.163-0.394,0.262-0.656,0.262c-0.26,0-0.489-0.098-0.684-0.262c-0.198-0.163-0.264-0.393-0.264-0.622
			s0.099-0.426,0.264-0.621c0.194-0.164,0.424-0.262,0.684-0.262C189.671,32.669,189.899,32.734,190.064,32.931z"/>
		<path fill="#DB7777" d="M201.731,29.531v0.815h-3.138v2.516h3.138v0.816h-3.138v2.518h3.138v0.817h-4.085v-7.518h4.085V29.531z"/>
		<path fill="#DB7777" d="M208.595,37.048v-7.517h0.947v6.7h2.713v0.816L208.595,37.048L208.595,37.048z"/>
		<path fill="#DB7777" d="M222.878,29.531v0.815h-3.139v2.516h3.139v0.816h-3.139v2.518h3.139v0.817h-4.086v-7.518h4.086V29.531z
			 M222.584,27.635l-1.634,1.243h-0.982l1.081-1.243H222.584z"/>
		<path fill="#DB7777" d="M232.03,30.348v6.701h-0.95v-6.701h-1.798v-0.816h4.543v0.815L232.03,30.348L232.03,30.348z"/>
		<path fill="#DB7777" d="M242.095,34.598h-0.882v2.45h-0.947v-7.516h2.157c0.621,0.097,1.142,0.326,1.565,0.752
			c0.492,0.49,0.754,1.079,0.754,1.765c0,0.687-0.262,1.274-0.754,1.797c-0.326,0.328-0.618,0.523-0.88,0.588l1.698,2.615h-1.077
			L242.095,34.598z M241.213,30.348v3.401h0.912c0.427,0,0.817-0.164,1.146-0.492c0.326-0.327,0.489-0.72,0.489-1.209
			c0-0.49-0.163-0.882-0.489-1.21c-0.329-0.326-0.72-0.491-1.146-0.491H241.213L241.213,30.348z"/>
		<path fill="#DB7777" d="M252.391,29.531v7.516h-0.948v-7.516H252.391z"/>
		<path fill="#DB7777" d="M265.136,35.382l0.654,0.587c-0.849,0.785-1.764,1.144-2.81,1.144c-1.08,0-2.028-0.392-2.779-1.144
			c-0.753-0.752-1.143-1.666-1.143-2.713c0-1.046,0.392-1.959,1.143-2.713c0.751-0.752,1.666-1.144,2.779-1.144
			c1.012,0,1.958,0.393,2.81,1.144l-0.654,0.588c-0.686-0.621-1.405-0.914-2.125-0.914c-0.817,0-1.503,0.293-2.092,0.882
			c-0.589,0.587-0.882,1.306-0.882,2.125c0,0.85,0.293,1.569,0.882,2.157c0.589,0.587,1.274,0.881,2.092,0.881
			C263.73,36.296,264.416,36.002,265.136,35.382z"/>
		<path fill="#DB7777" d="M278.799,30.544c0.752,0.753,1.142,1.667,1.142,2.713c0,1.047-0.391,1.961-1.142,2.713
			c-0.752,0.753-1.699,1.144-2.779,1.144c-1.077,0-2.025-0.392-2.776-1.144c-0.752-0.752-1.146-1.666-1.146-2.713
			c0-1.046,0.394-1.959,1.146-2.713c0.752-0.752,1.665-1.144,2.776-1.144C277.1,29.433,278.047,29.792,278.799,30.544z
			 M276.02,30.25c-0.817,0-1.505,0.292-2.091,0.88c-0.587,0.588-0.88,1.308-0.88,2.157c0,0.85,0.293,1.569,0.88,2.158
			c0.59,0.586,1.273,0.88,2.091,0.88c0.816,0,1.504-0.294,2.092-0.88c0.588-0.588,0.883-1.308,0.883-2.158
			c0-0.849-0.295-1.569-0.883-2.157C277.523,30.543,276.836,30.25,276.02,30.25z"/>
		<path fill="#808284" d="M288.604,32.931c0.195,0.163,0.261,0.392,0.261,0.621s-0.098,0.458-0.261,0.622
			c-0.197,0.163-0.393,0.262-0.655,0.262c-0.262,0-0.489-0.098-0.686-0.262c-0.197-0.163-0.262-0.393-0.262-0.622
			s0.099-0.426,0.262-0.621c0.196-0.164,0.424-0.262,0.686-0.262C288.211,32.669,288.44,32.734,288.604,32.931z"/>
	</g>
	<path fill="#DB7777" d="M41.367,31.146c1.959,2.422,1.568,5.975-0.853,7.934c-2.42,1.959-5.973,1.568-7.934-0.853
		c-1.958-2.421-10.792-22.412-10.792-22.412S39.408,28.727,41.367,31.146z"/>
	<g>
		<path fill="#FFFFFF" d="M35.763,38.181c-0.068-0.048,1.244-2.791,1.199-2.907c-0.047-0.114-1.43-0.575-1.5-0.785
			c-0.068-0.208,2.744-3.366,2.815-3.319c0.067,0.068-1.223,2.813-1.199,2.905c0.045,0.092,1.452,0.553,1.5,0.783
			C38.623,35.091,35.833,38.228,35.763,38.181z"/>
	</g>
	<path fill="#FB963B" d="M63.318,19.066l1.637-1.2c-4.104-5.395-9.729-9.568-16.209-11.921l-0.622,1.937
		C54.21,10.096,59.467,14.015,63.318,19.066z"/>
	<path fill="#74E2A8" d="M36.732,5.876c3.274,0,6.457,0.485,9.454,1.362l0.622-1.937c-3.205-0.946-6.571-1.455-10.077-1.455
		c-3.506,0-6.895,0.509-10.076,1.455l0.622,1.937C30.275,6.361,33.458,5.876,36.732,5.876z"/>
	<path fill="#DB7777" d="M25.34,7.881l-0.624-1.937c-6.502,2.354-12.106,6.526-16.21,11.921l1.638,1.2
		C13.995,14.015,19.275,10.096,25.34,7.881z"/>
	<path fill="#DBDB77" d="M3.294,38.619C3.433,32,5.509,25.846,8.967,20.703L7.33,19.504C3.618,24.992,1.428,31.54,1.266,38.619
		c0,0.23,0,0.483,0,0.715c0,0.438,0,0.875,0.023,1.313h2.03c-0.024-0.438-0.024-0.875-0.024-1.313
		C3.271,39.101,3.271,38.849,3.294,38.619z"/>
	<path fill="#75C7E0" d="M72.218,38.619c-0.138-7.055-2.353-13.627-6.064-19.115l-1.637,1.199C67.975,25.846,70.05,32,70.188,38.619
		c0,0.23,0,0.483,0,0.715c0,0.438,0,0.875-0.024,1.313h2.032c0.021-0.438,0.021-0.875,0.021-1.313
		C72.218,39.101,72.218,38.849,72.218,38.619z"/>
</g>
</svg>
