<?xml version="1.0" encoding="utf-8"?>
<!-- Generator: Adobe Illustrator 16.0.0, SVG Export Plug-In . SVG Version: 6.00 Build 0)  -->
<!DOCTYPE svg PUBLIC "-//W3C//DTD SVG 1.1//EN" "http://www.w3.org/Graphics/SVG/1.1/DTD/svg11.dtd">
<svg version="1.1" id="Layer_1" xmlns="http://www.w3.org/2000/svg" xmlns:xlink="http://www.w3.org/1999/xlink" x="0px" y="0px"
	 width="826px" height="410px" viewBox="0 0 826 410" enable-background="new 0 0 826 410" xml:space="preserve">
<g>
	<g>
		<g>
			<path fill="#EDEDED" d="M797.656,108.905c0.002,4.482,3.637,8.117,8.115,8.117c4.484,0,8.113-3.635,8.115-8.117
				c0-4.486-3.631-8.118-8.115-8.118C801.293,100.787,797.658,104.423,797.656,108.905z"/>
		</g>
		<g>
			<path fill="#EDEDED" d="M797.656,139.11c0.002,4.483,3.637,8.116,8.115,8.116c4.484,0,8.113-3.633,8.115-8.116
				c0-4.477-3.631-8.112-8.115-8.112C801.293,130.998,797.658,134.634,797.656,139.11z"/>
		</g>
		<g>
			<path fill="#EDEDED" d="M797.656,78.694c0.002,4.487,3.636,8.119,8.115,8.119c4.484,0,8.11-3.632,8.115-8.119
				c0-4.482-3.631-8.115-8.115-8.115C801.292,70.579,797.658,74.215,797.656,78.694z"/>
		</g>
		<g>
			<path fill="#EDEDED" d="M797.658,48.486c0,4.484,3.633,8.114,8.112,8.114c4.483,0.002,8.114-3.63,8.114-8.117
				c0-4.482-3.631-8.116-8.114-8.112C801.291,40.367,797.658,44.006,797.658,48.486z"/>
		</g>
		<g>
			<path fill="#EDEDED" d="M797.656,169.321c0.002,4.482,3.636,8.118,8.115,8.118c4.484,0.002,8.11-3.636,8.115-8.12
				c0-4.477-3.631-8.117-8.115-8.112C801.292,161.202,797.658,164.843,797.656,169.321z"/>
		</g>
	</g>
	<g>
		<g>
			<path fill="#EDEDED" d="M767.559,108.905c0.002,4.482,3.637,8.117,8.115,8.117c4.484,0,8.113-3.635,8.115-8.117
				c0-4.486-3.631-8.118-8.115-8.118C771.195,100.787,767.561,104.423,767.559,108.905z"/>
		</g>
		<g>
			<path fill="#EDEDED" d="M767.559,139.11c0.002,4.483,3.637,8.116,8.115,8.116c4.484,0,8.113-3.633,8.115-8.116
				c0-4.477-3.631-8.112-8.115-8.112C771.195,130.998,767.561,134.634,767.559,139.11z"/>
		</g>
		<g>
			<path fill="#EDEDED" d="M767.559,78.694c0.002,4.487,3.636,8.119,8.115,8.119c4.484,0,8.11-3.632,8.115-8.119
				c0-4.482-3.631-8.115-8.115-8.115C771.194,70.579,767.561,74.215,767.559,78.694z"/>
		</g>
		<g>
			<path fill="#EDEDED" d="M767.561,48.486c0,4.484,3.633,8.114,8.112,8.114c4.483,0.002,8.114-3.63,8.114-8.117
				c0-4.482-3.631-8.116-8.114-8.112C771.193,40.367,767.561,44.006,767.561,48.486z"/>
		</g>
		<g>
			<path fill="#EDEDED" d="M767.559,169.321c0.002,4.482,3.636,8.118,8.115,8.118c4.484,0.002,8.11-3.636,8.115-8.12
				c0-4.477-3.631-8.117-8.115-8.112C771.194,161.202,767.561,164.843,767.559,169.321z"/>
		</g>
	</g>
	<g>
		<g>
			<path fill="#EDEDED" d="M737.461,108.905c0.002,4.482,3.637,8.117,8.115,8.117c4.484,0,8.113-3.635,8.115-8.117
				c0-4.486-3.631-8.118-8.115-8.118C741.098,100.787,737.463,104.423,737.461,108.905z"/>
		</g>
		<g>
			<path fill="#EDEDED" d="M737.461,139.11c0.002,4.483,3.637,8.116,8.115,8.116c4.484,0,8.113-3.633,8.115-8.116
				c0-4.477-3.631-8.112-8.115-8.112C741.098,130.998,737.463,134.634,737.461,139.11z"/>
		</g>
		<g>
			<path fill="#EDEDED" d="M737.461,78.694c0.002,4.487,3.636,8.119,8.115,8.119c4.484,0,8.11-3.632,8.115-8.119
				c0-4.482-3.631-8.115-8.115-8.115C741.097,70.579,737.463,74.215,737.461,78.694z"/>
		</g>
		<g>
			<path fill="#EDEDED" d="M737.463,48.486c0,4.484,3.633,8.114,8.112,8.114c4.483,0.002,8.114-3.63,8.114-8.117
				c0-4.482-3.631-8.116-8.114-8.112C741.096,40.367,737.463,44.006,737.463,48.486z"/>
		</g>
		<g>
			<path fill="#EDEDED" d="M737.461,169.321c0.002,4.482,3.636,8.118,8.115,8.118c4.484,0.002,8.11-3.636,8.115-8.12
				c0-4.477-3.631-8.117-8.115-8.112C741.097,161.202,737.463,164.843,737.461,169.321z"/>
		</g>
	</g>
	<g>
		<g>
			<path fill="#EDEDED" d="M707.363,108.905c0.002,4.482,3.637,8.117,8.115,8.117c4.484,0,8.113-3.635,8.115-8.117
				c0-4.486-3.631-8.118-8.115-8.118C711,100.787,707.365,104.423,707.363,108.905z"/>
		</g>
		<g>
			<path fill="#EDEDED" d="M707.363,139.11c0.002,4.483,3.637,8.116,8.115,8.116c4.484,0,8.113-3.633,8.115-8.116
				c0-4.477-3.631-8.112-8.115-8.112C711,130.998,707.365,134.634,707.363,139.11z"/>
		</g>
		<g>
			<path fill="#EDEDED" d="M707.363,78.694c0.002,4.487,3.636,8.119,8.115,8.119c4.484,0,8.11-3.632,8.115-8.119
				c0-4.482-3.631-8.115-8.115-8.115C710.999,70.579,707.365,74.215,707.363,78.694z"/>
		</g>
		<g>
			<path fill="#EDEDED" d="M707.365,48.486c0,4.484,3.633,8.114,8.112,8.114c4.483,0.002,8.114-3.63,8.114-8.117
				c0-4.482-3.631-8.116-8.114-8.112C710.998,40.367,707.365,44.006,707.365,48.486z"/>
		</g>
		<g>
			<path fill="#EDEDED" d="M707.363,169.321c0.002,4.482,3.636,8.118,8.115,8.118c4.484,0.002,8.11-3.636,8.115-8.12
				c0-4.477-3.631-8.117-8.115-8.112C710.999,161.202,707.365,164.843,707.363,169.321z"/>
		</g>
	</g>
	<g>
		<g>
			<path fill="#EDEDED" d="M677.266,108.905c0.002,4.482,3.637,8.117,8.115,8.117c4.484,0,8.113-3.635,8.115-8.117
				c0-4.486-3.631-8.118-8.115-8.118C680.902,100.787,677.268,104.423,677.266,108.905z"/>
		</g>
		<g>
			<path fill="#EDEDED" d="M677.266,139.11c0.002,4.483,3.637,8.116,8.115,8.116c4.484,0,8.113-3.633,8.115-8.116
				c0-4.477-3.631-8.112-8.115-8.112C680.902,130.998,677.268,134.634,677.266,139.11z"/>
		</g>
		<g>
			<path fill="#EDEDED" d="M677.266,78.694c0.002,4.487,3.636,8.119,8.115,8.119c4.484,0,8.11-3.632,8.115-8.119
				c0-4.482-3.631-8.115-8.115-8.115C680.901,70.579,677.268,74.215,677.266,78.694z"/>
		</g>
		<g>
			<path fill="#EDEDED" d="M677.268,48.486c0,4.484,3.633,8.114,8.112,8.114c4.483,0.002,8.114-3.63,8.114-8.117
				c0-4.482-3.631-8.116-8.114-8.112C680.9,40.367,677.268,44.006,677.268,48.486z"/>
		</g>
		<g>
			<path fill="#EDEDED" d="M677.266,169.321c0.002,4.482,3.636,8.118,8.115,8.118c4.484,0.002,8.11-3.636,8.115-8.12
				c0-4.477-3.631-8.117-8.115-8.112C680.901,161.202,677.268,164.843,677.266,169.321z"/>
		</g>
	</g>
	<g>
		<g>
			<path fill="#EDEDED" d="M647.168,108.905c0.002,4.482,3.637,8.117,8.115,8.117c4.484,0,8.113-3.635,8.115-8.117
				c0-4.486-3.631-8.118-8.115-8.118C650.805,100.787,647.17,104.423,647.168,108.905z"/>
		</g>
		<g>
			<path fill="#EDEDED" d="M647.168,139.11c0.002,4.483,3.637,8.116,8.115,8.116c4.484,0,8.113-3.633,8.115-8.116
				c0-4.477-3.631-8.112-8.115-8.112C650.805,130.998,647.17,134.634,647.168,139.11z"/>
		</g>
		<g>
			<path fill="#EDEDED" d="M647.168,78.694c0.002,4.487,3.636,8.119,8.115,8.119c4.484,0,8.11-3.632,8.115-8.119
				c0-4.482-3.631-8.115-8.115-8.115C650.804,70.579,647.17,74.215,647.168,78.694z"/>
		</g>
		<g>
			<path fill="#EDEDED" d="M647.17,48.486c0,4.484,3.633,8.114,8.112,8.114c4.483,0.002,8.114-3.63,8.114-8.117
				c0-4.482-3.631-8.116-8.114-8.112C650.803,40.367,647.17,44.006,647.17,48.486z"/>
		</g>
		<g>
			<path fill="#EDEDED" d="M647.168,169.321c0.002,4.482,3.636,8.118,8.115,8.118c4.484,0.002,8.11-3.636,8.115-8.12
				c0-4.477-3.631-8.117-8.115-8.112C650.804,161.202,647.17,164.843,647.168,169.321z"/>
		</g>
	</g>
	<g>
		<g>
			<path fill="#EDEDED" d="M617.07,108.905c0.002,4.482,3.637,8.117,8.115,8.117c4.484,0,8.113-3.635,8.115-8.117
				c0-4.486-3.631-8.118-8.115-8.118C620.707,100.787,617.072,104.423,617.07,108.905z"/>
		</g>
		<g>
			<path fill="#EDEDED" d="M617.07,139.11c0.002,4.483,3.637,8.116,8.115,8.116c4.484,0,8.113-3.633,8.115-8.116
				c0-4.477-3.631-8.112-8.115-8.112C620.707,130.998,617.072,134.634,617.07,139.11z"/>
		</g>
		<g>
			<path fill="#EDEDED" d="M617.07,78.694c0.002,4.487,3.636,8.119,8.115,8.119c4.484,0,8.11-3.632,8.115-8.119
				c0-4.482-3.631-8.115-8.115-8.115C620.706,70.579,617.072,74.215,617.07,78.694z"/>
		</g>
		<g>
			<path fill="#EDEDED" d="M617.072,48.486c0,4.484,3.633,8.114,8.112,8.114c4.483,0.002,8.114-3.63,8.114-8.117
				c0-4.482-3.631-8.116-8.114-8.112C620.705,40.367,617.072,44.006,617.072,48.486z"/>
		</g>
		<g>
			<path fill="#EDEDED" d="M617.07,169.321c0.002,4.482,3.636,8.118,8.115,8.118c4.484,0.002,8.11-3.636,8.115-8.12
				c0-4.477-3.631-8.117-8.115-8.112C620.706,161.202,617.072,164.843,617.07,169.321z"/>
		</g>
	</g>
	<g>
		<g>
			<path fill="#EDEDED" d="M586.973,108.905c0.002,4.482,3.637,8.117,8.115,8.117c4.484,0,8.113-3.635,8.115-8.117
				c0-4.486-3.631-8.118-8.115-8.118C590.609,100.787,586.975,104.423,586.973,108.905z"/>
		</g>
		<g>
			<path fill="#EDEDED" d="M586.973,139.11c0.002,4.483,3.637,8.116,8.115,8.116c4.484,0,8.113-3.633,8.115-8.116
				c0-4.477-3.631-8.112-8.115-8.112C590.609,130.998,586.975,134.634,586.973,139.11z"/>
		</g>
		<g>
			<path fill="#EDEDED" d="M586.973,78.694c0.002,4.487,3.636,8.119,8.115,8.119c4.484,0,8.11-3.632,8.115-8.119
				c0-4.482-3.631-8.115-8.115-8.115C590.608,70.579,586.975,74.215,586.973,78.694z"/>
		</g>
		<g>
			<path fill="#EDEDED" d="M586.975,48.486c0,4.484,3.633,8.114,8.112,8.114c4.483,0.002,8.114-3.63,8.114-8.117
				c0-4.482-3.631-8.116-8.114-8.112C590.607,40.367,586.975,44.006,586.975,48.486z"/>
		</g>
		<g>
			<path fill="#EDEDED" d="M586.973,169.321c0.002,4.482,3.636,8.118,8.115,8.118c4.484,0.002,8.11-3.636,8.115-8.12
				c0-4.477-3.631-8.117-8.115-8.112C590.608,161.202,586.975,164.843,586.973,169.321z"/>
		</g>
	</g>
	<g>
		<g>
			<path fill="#EDEDED" d="M556.875,108.905c0.002,4.482,3.637,8.117,8.115,8.117c4.484,0,8.113-3.635,8.115-8.117
				c0-4.486-3.631-8.118-8.115-8.118C560.512,100.787,556.877,104.423,556.875,108.905z"/>
		</g>
		<g>
			<path fill="#EDEDED" d="M556.875,139.11c0.002,4.483,3.637,8.116,8.115,8.116c4.484,0,8.113-3.633,8.115-8.116
				c0-4.477-3.631-8.112-8.115-8.112C560.512,130.998,556.877,134.634,556.875,139.11z"/>
		</g>
		<g>
			<path fill="#EDEDED" d="M556.875,78.694c0.002,4.487,3.636,8.119,8.115,8.119c4.484,0,8.11-3.632,8.115-8.119
				c0-4.482-3.631-8.115-8.115-8.115C560.511,70.579,556.877,74.215,556.875,78.694z"/>
		</g>
		<g>
			<path fill="#EDEDED" d="M556.877,48.486c0,4.484,3.633,8.114,8.112,8.114c4.483,0.002,8.114-3.63,8.114-8.117
				c0-4.482-3.631-8.116-8.114-8.112C560.51,40.367,556.877,44.006,556.877,48.486z"/>
		</g>
		<g>
			<path fill="#EDEDED" d="M556.875,169.321c0.002,4.482,3.636,8.118,8.115,8.118c4.484,0.002,8.11-3.636,8.115-8.12
				c0-4.477-3.631-8.117-8.115-8.112C560.511,161.202,556.877,164.843,556.875,169.321z"/>
		</g>
	</g>
	<g>
		<g>
			<path fill="#EDEDED" d="M526.777,108.905c0.002,4.482,3.637,8.117,8.115,8.117c4.484,0,8.113-3.635,8.115-8.117
				c0-4.486-3.631-8.118-8.115-8.118C530.414,100.787,526.779,104.423,526.777,108.905z"/>
		</g>
		<g>
			<path fill="#EDEDED" d="M526.777,139.11c0.002,4.483,3.637,8.116,8.115,8.116c4.484,0,8.113-3.633,8.115-8.116
				c0-4.477-3.631-8.112-8.115-8.112C530.414,130.998,526.779,134.634,526.777,139.11z"/>
		</g>
		<g>
			<path fill="#EDEDED" d="M526.777,78.694c0.002,4.487,3.636,8.119,8.115,8.119c4.484,0,8.11-3.632,8.115-8.119
				c0-4.482-3.631-8.115-8.115-8.115C530.413,70.579,526.779,74.215,526.777,78.694z"/>
		</g>
		<g>
			<path fill="#EDEDED" d="M526.779,48.486c0,4.484,3.633,8.114,8.112,8.114c4.483,0.002,8.114-3.63,8.114-8.117
				c0-4.482-3.631-8.116-8.114-8.112C530.412,40.367,526.779,44.006,526.779,48.486z"/>
		</g>
		<g>
			<path fill="#EDEDED" d="M526.777,169.321c0.002,4.482,3.636,8.118,8.115,8.118c4.484,0.002,8.11-3.636,8.115-8.12
				c0-4.477-3.631-8.117-8.115-8.112C530.413,161.202,526.779,164.843,526.777,169.321z"/>
		</g>
	</g>
	<g>
		<g>
			<path fill="#EDEDED" d="M496.68,139.11c0.002,4.483,3.637,8.116,8.115,8.116c4.484,0,8.113-3.633,8.115-8.116
				c0-4.477-3.631-8.112-8.115-8.112C500.316,130.998,496.682,134.634,496.68,139.11z"/>
		</g>
		<g>
			<path fill="#EDEDED" d="M496.682,48.486c0,4.484,3.633,8.114,8.112,8.114c4.483,0.002,8.114-3.63,8.114-8.117
				c0-4.482-3.631-8.116-8.114-8.112C500.314,40.367,496.682,44.006,496.682,48.486z"/>
		</g>
		<g>
			<path fill="#EDEDED" d="M496.68,169.321c0.002,4.482,3.636,8.118,8.115,8.118c4.484,0.002,8.11-3.636,8.115-8.12
				c0-4.477-3.631-8.117-8.115-8.112C500.315,161.202,496.682,164.843,496.68,169.321z"/>
		</g>
	</g>
	<g>
		<g>
			<path fill="#EDEDED" d="M466.68,169.321c0.002,4.482,3.636,8.118,8.115,8.118c4.484,0.002,8.11-3.636,8.115-8.12
				c0-4.477-3.631-8.117-8.115-8.112C470.315,161.202,466.682,164.843,466.68,169.321z"/>
		</g>
	</g>
</g>
<g>
	<g>
		<g>
			<path fill="#EDEDED" d="M340.985,38.259c0,4.484,3.633,8.114,8.112,8.114c4.483,0.002,8.114-3.63,8.114-8.117
				c0-4.482-3.631-8.116-8.114-8.112C344.618,30.14,340.985,33.778,340.985,38.259z"/>
		</g>
	</g>
	<g>
		<g>
			<path fill="#EDEDED" d="M310.886,68.467c0.002,4.487,3.635,8.119,8.115,8.119c4.485,0,8.11-3.632,8.115-8.119
				c0-4.482-3.63-8.115-8.115-8.115C314.521,60.352,310.888,63.987,310.886,68.467z"/>
		</g>
		<g>
			<path fill="#EDEDED" d="M310.887,38.259c0,4.484,3.633,8.114,8.112,8.114c4.483,0.002,8.114-3.63,8.114-8.117
				c0-4.482-3.631-8.116-8.114-8.112C314.52,30.14,310.887,33.778,310.887,38.259z"/>
		</g>
		<g>
			<path fill="#EDEDED" d="M310.886,159.094c0.002,4.482,3.635,8.118,8.115,8.118c4.485,0.002,8.11-3.636,8.115-8.12
				c0-4.477-3.63-8.117-8.115-8.112C314.521,150.975,310.888,154.615,310.886,159.094z"/>
		</g>
	</g>
	<g>
		<g>
			<path fill="#EDEDED" d="M280.788,98.678c0.002,4.482,3.636,8.117,8.115,8.117c4.484,0,8.113-3.635,8.115-8.117
				c0-4.486-3.63-8.118-8.115-8.118C284.424,90.56,280.79,94.195,280.788,98.678z"/>
		</g>
		<g>
			<path fill="#EDEDED" d="M280.788,128.883c0.002,4.483,3.636,8.116,8.115,8.116c4.484,0,8.113-3.633,8.115-8.116
				c0-4.477-3.63-8.112-8.115-8.112C284.424,120.771,280.79,124.406,280.788,128.883z"/>
		</g>
		<g>
			<path fill="#EDEDED" d="M280.788,68.467c0.002,4.487,3.635,8.119,8.115,8.119c4.485,0,8.11-3.632,8.115-8.119
				c0-4.482-3.63-8.115-8.115-8.115C284.423,60.352,280.79,63.987,280.788,68.467z"/>
		</g>
		<g>
			<path fill="#EDEDED" d="M280.79,38.259c0,4.484,3.633,8.114,8.112,8.114c4.483,0.002,8.114-3.63,8.114-8.117
				c0-4.482-3.631-8.116-8.114-8.112C284.422,30.14,280.79,33.778,280.79,38.259z"/>
		</g>
		<g>
			<path fill="#EDEDED" d="M280.788,159.094c0.002,4.482,3.635,8.118,8.115,8.118c4.485,0.002,8.11-3.636,8.115-8.12
				c0-4.477-3.63-8.117-8.115-8.112C284.423,150.975,280.79,154.615,280.788,159.094z"/>
		</g>
	</g>
	<g>
		<g>
			<path fill="#EDEDED" d="M250.69,98.678c0.002,4.482,3.636,8.117,8.115,8.117c4.484,0,8.113-3.635,8.115-8.117
				c0-4.486-3.63-8.118-8.115-8.118C254.327,90.56,250.692,94.195,250.69,98.678z"/>
		</g>
		<g>
			<path fill="#EDEDED" d="M250.69,128.883c0.002,4.483,3.636,8.116,8.115,8.116c4.484,0,8.113-3.633,8.115-8.116
				c0-4.477-3.63-8.112-8.115-8.112C254.327,120.771,250.692,124.406,250.69,128.883z"/>
		</g>
		<g>
			<path fill="#EDEDED" d="M250.69,68.467c0.002,4.487,3.635,8.119,8.115,8.119c4.485,0,8.11-3.632,8.115-8.119
				c0-4.482-3.63-8.115-8.115-8.115C254.326,60.352,250.692,63.987,250.69,68.467z"/>
		</g>
		<g>
			<path fill="#EDEDED" d="M250.692,38.259c0,4.484,3.633,8.114,8.112,8.114c4.483,0.002,8.114-3.63,8.114-8.117
				c0-4.482-3.631-8.116-8.114-8.112C254.325,30.14,250.692,33.778,250.692,38.259z"/>
		</g>
		<g>
			<path fill="#EDEDED" d="M250.69,159.094c0.002,4.482,3.635,8.118,8.115,8.118c4.485,0.002,8.11-3.636,8.115-8.12
				c0-4.477-3.63-8.117-8.115-8.112C254.326,150.975,250.692,154.615,250.69,159.094z"/>
		</g>
	</g>
	<g>
		<g>
			<path fill="#EDEDED" d="M220.593,98.678c0.002,4.482,3.636,8.117,8.115,8.117c4.484,0,8.113-3.635,8.115-8.117
				c0-4.486-3.63-8.118-8.115-8.118C224.229,90.56,220.595,94.195,220.593,98.678z"/>
		</g>
		<g>
			<path fill="#EDEDED" d="M220.593,128.883c0.002,4.483,3.636,8.116,8.115,8.116c4.484,0,8.113-3.633,8.115-8.116
				c0-4.477-3.63-8.112-8.115-8.112C224.229,120.771,220.595,124.406,220.593,128.883z"/>
		</g>
		<g>
			<path fill="#EDEDED" d="M220.593,68.467c0.002,4.487,3.635,8.119,8.115,8.119c4.485,0,8.11-3.632,8.115-8.119
				c0-4.482-3.63-8.115-8.115-8.115C224.228,60.352,220.595,63.987,220.593,68.467z"/>
		</g>
		<g>
			<path fill="#EDEDED" d="M220.594,38.259c0,4.484,3.633,8.114,8.112,8.114c4.483,0.002,8.114-3.63,8.114-8.117
				c0-4.482-3.631-8.116-8.114-8.112C224.227,30.14,220.594,33.778,220.594,38.259z"/>
		</g>
		<g>
			<path fill="#EDEDED" d="M220.593,159.094c0.002,4.482,3.635,8.118,8.115,8.118c4.485,0.002,8.11-3.636,8.115-8.12
				c0-4.477-3.63-8.117-8.115-8.112C224.228,150.975,220.595,154.615,220.593,159.094z"/>
		</g>
	</g>
	<g>
		<g>
			<path fill="#EDEDED" d="M190.495,98.678c0.002,4.482,3.636,8.117,8.115,8.117c4.484,0,8.113-3.635,8.115-8.117
				c0-4.486-3.63-8.118-8.115-8.118C194.131,90.56,190.497,94.195,190.495,98.678z"/>
		</g>
		<g>
			<path fill="#EDEDED" d="M190.495,128.883c0.002,4.483,3.636,8.116,8.115,8.116c4.484,0,8.113-3.633,8.115-8.116
				c0-4.477-3.63-8.112-8.115-8.112C194.131,120.771,190.497,124.406,190.495,128.883z"/>
		</g>
		<g>
			<path fill="#EDEDED" d="M190.495,68.467c0.002,4.487,3.635,8.119,8.115,8.119c4.485,0,8.11-3.632,8.115-8.119
				c0-4.482-3.63-8.115-8.115-8.115C194.13,60.352,190.497,63.987,190.495,68.467z"/>
		</g>
		<g>
			<path fill="#EDEDED" d="M190.497,38.259c0,4.484,3.633,8.114,8.112,8.114c4.483,0.002,8.114-3.63,8.114-8.117
				c0-4.482-3.631-8.116-8.114-8.112C194.129,30.14,190.497,33.778,190.497,38.259z"/>
		</g>
		<g>
			<path fill="#EDEDED" d="M190.495,159.094c0.002,4.482,3.635,8.118,8.115,8.118c4.485,0.002,8.11-3.636,8.115-8.12
				c0-4.477-3.63-8.117-8.115-8.112C194.13,150.975,190.497,154.615,190.495,159.094z"/>
		</g>
	</g>
	<g>
		<g>
			<path fill="#EDEDED" d="M160.397,98.678c0.002,4.482,3.636,8.117,8.115,8.117c4.484,0,8.113-3.635,8.115-8.117
				c0-4.486-3.63-8.118-8.115-8.118C164.034,90.56,160.399,94.195,160.397,98.678z"/>
		</g>
		<g>
			<path fill="#EDEDED" d="M160.397,128.883c0.002,4.483,3.636,8.116,8.115,8.116c4.484,0,8.113-3.633,8.115-8.116
				c0-4.477-3.63-8.112-8.115-8.112C164.034,120.771,160.399,124.406,160.397,128.883z"/>
		</g>
		<g>
			<path fill="#EDEDED" d="M160.397,68.467c0.002,4.487,3.635,8.119,8.115,8.119c4.485,0,8.11-3.632,8.115-8.119
				c0-4.482-3.63-8.115-8.115-8.115C164.033,60.352,160.399,63.987,160.397,68.467z"/>
		</g>
		<g>
			<path fill="#EDEDED" d="M160.399,38.259c0,4.484,3.633,8.114,8.112,8.114c4.483,0.002,8.114-3.63,8.114-8.117
				c0-4.482-3.631-8.116-8.114-8.112C164.032,30.14,160.399,33.778,160.399,38.259z"/>
		</g>
		<g>
			<path fill="#EDEDED" d="M160.397,159.094c0.002,4.482,3.635,8.118,8.115,8.118c4.485,0.002,8.11-3.636,8.115-8.12
				c0-4.477-3.63-8.117-8.115-8.112C164.033,150.975,160.399,154.615,160.397,159.094z"/>
		</g>
	</g>
	<g>
		<g>
			<path fill="#EDEDED" d="M130.3,98.678c0.002,4.482,3.636,8.117,8.115,8.117c4.484,0,8.113-3.635,8.115-8.117
				c0-4.486-3.63-8.118-8.115-8.118C133.936,90.56,130.302,94.195,130.3,98.678z"/>
		</g>
		<g>
			<path fill="#EDEDED" d="M130.3,128.883c0.002,4.483,3.636,8.116,8.115,8.116c4.484,0,8.113-3.633,8.115-8.116
				c0-4.477-3.63-8.112-8.115-8.112C133.936,120.771,130.302,124.406,130.3,128.883z"/>
		</g>
		<g>
			<path fill="#EDEDED" d="M130.3,68.467c0.002,4.487,3.635,8.119,8.115,8.119c4.485,0,8.11-3.632,8.115-8.119
				c0-4.482-3.63-8.115-8.115-8.115C133.935,60.352,130.302,63.987,130.3,68.467z"/>
		</g>
		<g>
			<path fill="#EDEDED" d="M130.301,38.259c0,4.484,3.633,8.114,8.112,8.114c4.483,0.002,8.114-3.63,8.114-8.117
				c0-4.482-3.631-8.116-8.114-8.112C133.934,30.14,130.301,33.778,130.301,38.259z"/>
		</g>
		<g>
			<path fill="#EDEDED" d="M130.3,159.094c0.002,4.482,3.635,8.118,8.115,8.118c4.485,0.002,8.11-3.636,8.115-8.12
				c0-4.477-3.63-8.117-8.115-8.112C133.935,150.975,130.302,154.615,130.3,159.094z"/>
		</g>
	</g>
	<g>
		<g>
			<path fill="#EDEDED" d="M100.202,98.678c0.002,4.482,3.636,8.117,8.115,8.117c4.484,0,8.113-3.635,8.115-8.117
				c0-4.486-3.63-8.118-8.115-8.118C103.838,90.56,100.204,94.195,100.202,98.678z"/>
		</g>
		<g>
			<path fill="#EDEDED" d="M100.202,128.883c0.002,4.483,3.636,8.116,8.115,8.116c4.484,0,8.113-3.633,8.115-8.116
				c0-4.477-3.63-8.112-8.115-8.112C103.838,120.771,100.204,124.406,100.202,128.883z"/>
		</g>
		<g>
			<path fill="#EDEDED" d="M100.202,68.467c0.002,4.487,3.635,8.119,8.115,8.119c4.485,0,8.11-3.632,8.115-8.119
				c0-4.482-3.63-8.115-8.115-8.115C103.837,60.352,100.204,63.987,100.202,68.467z"/>
		</g>
		<g>
			<path fill="#EDEDED" d="M100.204,38.259c0,4.484,3.633,8.114,8.112,8.114c4.483,0.002,8.114-3.63,8.114-8.117
				c0-4.482-3.631-8.116-8.114-8.112C103.836,30.14,100.204,33.778,100.204,38.259z"/>
		</g>
		<g>
			<path fill="#EDEDED" d="M100.202,159.094c0.002,4.482,3.635,8.118,8.115,8.118c4.485,0.002,8.11-3.636,8.115-8.12
				c0-4.477-3.63-8.117-8.115-8.112C103.837,150.975,100.204,154.615,100.202,159.094z"/>
		</g>
	</g>
	<g>
		<g>
			<path fill="#EDEDED" d="M70.104,98.678c0.002,4.482,3.636,8.117,8.115,8.117c4.484,0,8.113-3.635,8.115-8.117
				c0-4.486-3.63-8.118-8.115-8.118C73.741,90.56,70.106,94.195,70.104,98.678z"/>
		</g>
		<g>
			<path fill="#EDEDED" d="M70.104,128.883c0.002,4.483,3.636,8.116,8.115,8.116c4.484,0,8.113-3.633,8.115-8.116
				c0-4.477-3.63-8.112-8.115-8.112C73.741,120.771,70.106,124.406,70.104,128.883z"/>
		</g>
		<g>
			<path fill="#EDEDED" d="M70.104,68.467c0.002,4.487,3.635,8.119,8.115,8.119c4.485,0,8.11-3.632,8.115-8.119
				c0-4.482-3.63-8.115-8.115-8.115C73.74,60.352,70.106,63.987,70.104,68.467z"/>
		</g>
		<g>
			<path fill="#EDEDED" d="M70.106,38.259c0,4.484,3.633,8.114,8.112,8.114c4.483,0.002,8.114-3.63,8.114-8.117
				c0-4.482-3.631-8.116-8.114-8.112C73.739,30.14,70.106,33.778,70.106,38.259z"/>
		</g>
		<g>
			<path fill="#EDEDED" d="M70.104,159.094c0.002,4.482,3.635,8.118,8.115,8.118c4.485,0.002,8.11-3.636,8.115-8.12
				c0-4.477-3.63-8.117-8.115-8.112C73.74,150.975,70.106,154.615,70.104,159.094z"/>
		</g>
	</g>
	<g>
		<g>
			<path fill="#EDEDED" d="M40.007,98.678c0.002,4.482,3.636,8.117,8.115,8.117c4.484,0,8.113-3.635,8.115-8.117
				c0-4.486-3.63-8.118-8.115-8.118C43.643,90.56,40.009,94.195,40.007,98.678z"/>
		</g>
		<g>
			<path fill="#EDEDED" d="M40.007,128.883c0.002,4.483,3.636,8.116,8.115,8.116c4.484,0,8.113-3.633,8.115-8.116
				c0-4.477-3.63-8.112-8.115-8.112C43.643,120.771,40.009,124.406,40.007,128.883z"/>
		</g>
		<g>
			<path fill="#EDEDED" d="M40.007,68.467c0.002,4.487,3.635,8.119,8.115,8.119c4.485,0,8.11-3.632,8.115-8.119
				c0-4.482-3.63-8.115-8.115-8.115C43.642,60.352,40.009,63.987,40.007,68.467z"/>
		</g>
		<g>
			<path fill="#EDEDED" d="M40.008,38.259c0,4.484,3.633,8.114,8.112,8.114c4.483,0.002,8.114-3.63,8.114-8.117
				c0-4.482-3.631-8.116-8.114-8.112C43.641,30.14,40.008,33.778,40.008,38.259z"/>
		</g>
		<g>
			<path fill="#EDEDED" d="M40.007,159.094c0.002,4.482,3.635,8.118,8.115,8.118c4.485,0.002,8.11-3.636,8.115-8.12
				c0-4.477-3.63-8.117-8.115-8.112C43.642,150.975,40.009,154.615,40.007,159.094z"/>
		</g>
	</g>
	<g>
		<g>
			<path fill="#EDEDED" d="M10.007,98.678c0.002,4.482,3.636,8.117,8.115,8.117c4.484,0,8.113-3.635,8.115-8.117
				c0-4.486-3.63-8.118-8.115-8.118C13.643,90.56,10.009,94.195,10.007,98.678z"/>
		</g>
		<g>
			<path fill="#EDEDED" d="M10.007,128.883c0.002,4.483,3.636,8.116,8.115,8.116c4.484,0,8.113-3.633,8.115-8.116
				c0-4.477-3.63-8.112-8.115-8.112C13.643,120.771,10.009,124.406,10.007,128.883z"/>
		</g>
		<g>
			<path fill="#EDEDED" d="M10.007,68.467c0.002,4.487,3.635,8.119,8.115,8.119c4.485,0,8.11-3.632,8.115-8.119
				c0-4.482-3.63-8.115-8.115-8.115C13.642,60.352,10.009,63.987,10.007,68.467z"/>
		</g>
		<g>
			<path fill="#EDEDED" d="M10.008,38.259c0,4.484,3.633,8.114,8.112,8.114c4.483,0.002,8.114-3.63,8.114-8.117
				c0-4.482-3.631-8.116-8.114-8.112C13.641,30.14,10.008,33.778,10.008,38.259z"/>
		</g>
		<g>
			<path fill="#EDEDED" d="M10.007,159.094c0.002,4.482,3.635,8.118,8.115,8.118c4.485,0.002,8.11-3.636,8.115-8.12
				c0-4.477-3.63-8.117-8.115-8.112C13.642,150.975,10.009,154.615,10.007,159.094z"/>
		</g>
	</g>
</g>
<g>
	<g>
		<path fill="#99CC29" d="M213.748,298.281h35.721c0.545,0,1.023,0.205,1.433,0.615c0.409,0.408,0.614,0.887,0.614,1.432v0.922
			c0,0.613-0.205,1.109-0.614,1.484s-0.888,0.562-1.433,0.562h-34.697v61.615h34.697c0.545,0,1.023,0.188,1.433,0.562
			s0.614,0.869,0.614,1.484v0.922c0,0.547-0.205,1.023-0.614,1.432c-0.409,0.41-0.888,0.615-1.433,0.615h-35.823
			c-1.638,0-2.712-0.359-3.224-1.074c-0.512-0.717-0.768-1.723-0.768-3.021v-63.559c0-1.363,0.307-2.369,0.921-3.02
			C211.189,298.607,212.246,298.281,213.748,298.281z M220.912,330.215h21.903c0.614,0,1.108,0.203,1.484,0.613
			c0.374,0.408,0.563,0.887,0.563,1.434v0.92c0,1.365-0.684,2.047-2.048,2.047h-21.903c-1.365,0-2.047-0.682-2.047-2.047v-0.92
			c0-0.547,0.188-1.025,0.563-1.434C219.803,330.418,220.299,330.215,220.912,330.215z"/>
		<path fill="#99CC29" d="M249.469,371.029h-35.823c-2.034,0-3.383-0.502-4.121-1.535c-0.646-0.904-0.974-2.137-0.974-3.662v-63.559
			c0-1.648,0.412-2.92,1.223-3.777c0.842-0.887,2.142-1.316,3.975-1.316h35.721c0.834,0,1.6,0.322,2.212,0.936
			c0.613,0.613,0.938,1.379,0.938,2.213v0.922c0,0.922-0.337,1.717-0.974,2.299c-0.605,0.557-1.359,0.852-2.176,0.852h-33.595
			v59.408h33.595c0.814,0,1.567,0.295,2.177,0.852c0.637,0.586,0.973,1.379,0.973,2.299v0.922c0,0.834-0.324,1.598-0.937,2.211
			C251.068,370.705,250.303,371.029,249.469,371.029z M213.748,299.385c-1.162,0-1.982,0.217-2.373,0.629
			c-0.41,0.434-0.618,1.193-0.618,2.26v63.559c0,1.057,0.188,1.857,0.562,2.379c0.278,0.391,1.126,0.613,2.326,0.613h35.823
			c0.25,0,0.451-0.09,0.652-0.291c0.204-0.205,0.291-0.398,0.291-0.652v-0.922c0-0.385-0.13-0.555-0.257-0.672
			c-0.206-0.188-0.418-0.271-0.687-0.271h-35.801v-63.822h35.801c0.27,0,0.48-0.084,0.687-0.271
			c0.128-0.117,0.257-0.287,0.257-0.672v-0.922c0-0.25-0.09-0.451-0.291-0.652s-0.402-0.291-0.652-0.291H213.748z M242.815,336.332
			h-21.903c-1.973,0-3.149-1.178-3.149-3.15v-0.92c0-0.818,0.295-1.572,0.854-2.18c0.579-0.635,1.374-0.971,2.296-0.971h21.903
			c0.919,0,1.714,0.336,2.297,0.971c0.559,0.611,0.854,1.363,0.854,2.18v0.92C245.966,335.154,244.788,336.332,242.815,336.332z
			 M220.912,331.316c-0.385,0-0.555,0.129-0.67,0.256c-0.189,0.207-0.273,0.418-0.273,0.689v0.92c0,0.76,0.186,0.943,0.943,0.943
			h21.903c0.759,0,0.944-0.184,0.944-0.943v-0.92c0-0.27-0.084-0.482-0.273-0.689c-0.116-0.125-0.287-0.256-0.671-0.256H220.912z"/>
	</g>
	<g>
		<path fill="#99CC29" d="M266.561,322.947c3.275-2.932,7.539-4.4,12.794-4.4c5.253,0,9.483,1.484,12.692,4.453
			c3.205,2.967,4.81,7.111,4.81,12.434c0,1.297-0.683,1.945-2.047,1.945h-0.819c-1.297,0-1.943-0.648-1.943-1.945
			c0-3.889-1.195-6.857-3.583-8.904c-2.39-2.045-5.425-3.07-9.109-3.07s-6.739,1.043-9.16,3.121
			c-2.423,2.082-3.634,5.066-3.634,8.955v17.605c0,3.891,1.211,6.877,3.634,8.957c2.421,2.082,5.476,3.121,9.16,3.121
			s6.704-1.006,9.058-3.02c2.354-2.012,3.565-4.895,3.635-8.648c0-0.545,0.187-1.023,0.562-1.432
			c0.374-0.41,0.834-0.615,1.381-0.615h0.819c0.614,0,1.108,0.205,1.484,0.615c0.374,0.408,0.562,0.887,0.562,1.432
			c-0.138,5.186-1.809,9.246-5.015,12.18c-3.209,2.936-7.387,4.4-12.538,4.4c-5.153,0-9.383-1.482-12.691-4.451
			c-3.311-2.969-4.964-7.113-4.964-12.436v-17.811C261.648,330.045,263.285,325.881,266.561,322.947z"/>
		<path fill="#99CC29" d="M279.304,371.234c-5.408,0-9.926-1.592-13.428-4.734c-3.537-3.17-5.331-7.631-5.331-13.256v-17.811
			c0-5.691,1.777-10.168,5.28-13.307c3.47-3.107,8.021-4.684,13.529-4.684c5.515,0,10.037,1.598,13.44,4.746
			c3.427,3.174,5.164,7.627,5.164,13.244c0,1.908-1.177,3.047-3.149,3.047h-0.819c-1.908,0-3.047-1.139-3.047-3.047
			c0-3.584-1.046-6.223-3.197-8.066c-2.203-1.889-4.948-2.805-8.392-2.805c-3.396,0-6.236,0.959-8.441,2.854
			c-2.187,1.879-3.249,4.535-3.249,8.119v17.605c0,3.586,1.062,6.242,3.249,8.119c2.203,1.895,5.044,2.855,8.441,2.855
			s6.204-0.926,8.341-2.754c2.123-1.812,3.185-4.375,3.248-7.83c0-0.797,0.295-1.551,0.854-2.158
			c0.58-0.635,1.339-0.973,2.193-0.973h0.819c0.919,0,1.714,0.336,2.297,0.973c0.559,0.611,0.853,1.363,0.853,2.178
			c-0.145,5.504-1.953,9.865-5.373,12.994C289.184,369.656,284.715,371.234,279.304,371.234z M279.354,319.65
			c-4.948,0-9.005,1.385-12.058,4.119c-3.059,2.74-4.546,6.555-4.546,11.664v17.811c0,5.041,1.504,8.84,4.598,11.613
			c3.085,2.768,7.107,4.172,11.955,4.172c4.843,0,8.811-1.385,11.793-4.113c2.962-2.709,4.528-6.543,4.657-11.395
			c0-0.24-0.085-0.451-0.274-0.66c-0.115-0.125-0.286-0.254-0.67-0.254h-0.819c-0.236,0-0.401,0.074-0.566,0.254
			c-0.19,0.207-0.274,0.42-0.274,0.689c-0.075,4.086-1.428,7.271-4.021,9.486c-2.547,2.18-5.836,3.285-9.774,3.285
			c-3.94,0-7.265-1.141-9.88-3.389c-2.665-2.289-4.017-5.584-4.017-9.793v-17.605c0-4.205,1.352-7.5,4.017-9.791
			c2.617-2.248,5.941-3.387,9.88-3.387c3.937,0,7.243,1.121,9.827,3.334c2.633,2.258,3.968,5.535,3.968,9.742
			c0,0.684,0.157,0.842,0.841,0.842h0.819c0.854,0,0.944-0.256,0.944-0.842c0-4.977-1.5-8.889-4.457-11.625
			C288.314,321.049,284.296,319.65,279.354,319.65z"/>
	</g>
	<g>
		<path fill="#99CC29" d="M318.247,322.947c3.274-2.932,7.538-4.4,12.793-4.4c5.254,0,9.483,1.484,12.692,4.453
			c3.206,2.967,4.812,7.111,4.812,12.434v17.811c0,5.322-1.605,9.467-4.812,12.436c-3.209,2.969-7.421,4.451-12.641,4.451
			c-5.221,0-9.484-1.482-12.794-4.451c-3.311-2.969-4.964-7.113-4.964-12.436v-17.811
			C313.334,330.045,314.972,325.881,318.247,322.947z M340.15,326.479c-2.391-2.08-5.426-3.121-9.11-3.121s-6.755,1.041-9.211,3.121
			c-2.456,2.082-3.685,5.066-3.685,8.955v17.811c0,3.889,1.229,6.875,3.685,8.955c2.456,2.082,5.526,3.123,9.211,3.123
			s6.72-1.041,9.11-3.123c2.387-2.08,3.582-5.066,3.582-8.955v-17.811C343.732,331.545,342.537,328.561,340.15,326.479z"/>
		<path fill="#99CC29" d="M331.092,371.234c-5.477,0-10.028-1.592-13.53-4.734c-3.537-3.17-5.331-7.631-5.331-13.256v-17.811
			c0-5.691,1.777-10.168,5.28-13.307c3.47-3.107,8.022-4.684,13.529-4.684c5.515,0,10.037,1.598,13.44,4.746
			c3.429,3.174,5.165,7.627,5.165,13.244v17.811c0,5.617-1.736,10.072-5.164,13.244
			C341.077,369.639,336.572,371.234,331.092,371.234z M331.04,319.65c-4.948,0-9.005,1.385-12.058,4.119
			c-3.059,2.74-4.545,6.555-4.545,11.664v17.811c0,5.041,1.503,8.84,4.597,11.613c3.085,2.768,7.142,4.172,12.058,4.172
			c4.907,0,8.908-1.4,11.892-4.16c2.957-2.736,4.457-6.648,4.457-11.625v-17.811c0-4.977-1.5-8.889-4.458-11.625
			C340,321.049,335.982,319.65,331.04,319.65z M331.04,366.424c-3.937,0-7.275-1.137-9.924-3.383
			c-2.704-2.289-4.075-5.586-4.075-9.797v-17.811c0-4.209,1.371-7.506,4.075-9.797c2.649-2.244,5.989-3.383,9.924-3.383
			c3.94,0,7.249,1.143,9.834,3.393c2.628,2.291,3.961,5.584,3.961,9.787v17.811c0,4.205-1.333,7.498-3.96,9.787
			C338.291,365.283,334.982,366.424,331.04,366.424z M331.04,324.461c-3.397,0-6.258,0.961-8.498,2.857
			c-2.217,1.881-3.295,4.535-3.295,8.115v17.811c0,3.582,1.078,6.236,3.295,8.113c2.239,1.898,5.099,2.861,8.498,2.861
			c3.441,0,6.185-0.932,8.386-2.85c2.155-1.879,3.203-4.537,3.203-8.125v-17.811c0-3.586-1.048-6.244-3.204-8.125
			C337.223,325.393,334.48,324.461,331.04,324.461z"/>
	</g>
	<g>
		<path fill="#3F3F3F" d="M366.526,314.314c0-4.495,1.846-8.415,5.541-11.761c3.693-3.346,8.729-5.02,15.107-5.02
			c6.375,0,11.742,1.692,16.098,5.071c4.355,3.382,6.674,8.417,6.953,15.106c0,0.559-0.209,1.063-0.629,1.516
			c-0.416,0.455-0.904,0.681-1.461,0.681h-1.047c-0.488,0-0.941-0.191-1.359-0.576c-0.418-0.382-0.662-0.853-0.73-1.411
			c-0.209-5.295-1.986-9.146-5.332-11.553c-3.346-2.404-7.354-3.604-12.021-3.604c-5.02,0-8.924,1.148-11.711,3.449
			c-2.787,2.3-4.182,5.141-4.182,8.521c0,3.381,0.975,6.08,2.928,8.102c2.719,2.717,7.771,5.506,15.158,8.362
			c8.783,3.485,14.637,6.969,17.564,10.454c2.23,2.649,3.346,6.449,3.346,11.397c0,4.949-2.006,9.183-6.012,12.702
			c-4.01,3.519-9.707,5.278-17.092,5.278c-5.51,0-10.701-1.498-15.578-4.495c-2.578-1.604-4.688-3.85-6.326-6.742
			c-1.637-2.893-2.527-6.221-2.664-9.985c0-1.462,0.695-2.196,2.09-2.196h0.941c1.254,0,1.949,0.664,2.092,1.987
			c0.137,3.068,0.902,5.733,2.299,7.997c1.393,2.267,3.137,3.956,5.229,5.071c4.039,2.161,8.484,3.24,13.328,3.24
			s8.814-1.271,11.918-3.814c3.1-2.544,4.652-5.733,4.652-9.565c0-3.902-1.256-6.903-3.766-8.994c-2.02-1.672-4.217-3.1-6.584-4.285
			c-3.068-1.464-7.877-3.519-14.426-6.168c-5.02-2.23-8.662-4.792-10.928-7.683S366.526,318.811,366.526,314.314z"/>
	</g>
	<g>
		<path fill="#3F3F3F" d="M418.448,319.752h2.455c0.615,0,1.109,0.205,1.484,0.613c0.375,0.41,0.562,0.889,0.562,1.434v0.613
			c0,0.547-0.188,1.025-0.562,1.434c-0.375,0.41-0.869,0.613-1.484,0.613h-2.455c-0.615,0-1.111-0.203-1.484-0.613
			c-0.377-0.408-0.562-0.887-0.562-1.434v-0.613c0-0.545,0.186-1.023,0.562-1.434C417.337,319.957,417.833,319.752,418.448,319.752z
			 M426.329,297.211h0.818c1.295,0,1.945,0.65,1.945,1.945l-0.309,56.01c0.068,3.479,1.041,6.176,2.918,8.084
			c1.875,1.912,4.35,2.867,7.42,2.867h2.559c0.547,0,1.006,0.205,1.383,0.613c0.373,0.41,0.562,0.854,0.562,1.33v0.82
			c0,1.365-1.535,2.047-4.605,2.047c-4.504,0-8.121-1.383-10.85-4.146c-2.73-2.764-4.129-6.602-4.197-11.514l0.309-56.111
			C424.417,297.861,425.101,297.211,426.329,297.211z M432.163,319.752h7.574c0.545,0,1.006,0.205,1.381,0.613
			c0.375,0.41,0.562,0.889,0.562,1.434v0.613c0,0.547-0.188,1.025-0.562,1.434c-0.375,0.41-0.836,0.613-1.381,0.613h-7.574
			c-0.547,0-1.023-0.203-1.434-0.613c-0.41-0.408-0.613-0.887-0.613-1.434v-0.613c0-0.545,0.203-1.023,0.613-1.434
			C431.14,319.957,431.616,319.752,432.163,319.752z"/>
	</g>
	<g>
		<path fill="#3F3F3F" d="M461.536,323.947c3.275-2.932,7.539-4.4,12.795-4.4c5.252,0,9.482,1.484,12.691,4.453
			c3.205,2.967,4.811,7.111,4.811,12.434v22.518c0,2.662,0.221,4.488,0.664,5.477c0.443,0.99,1.314,1.654,2.611,1.996l1.125,0.307
			c1.023,0.205,1.535,0.65,1.535,1.33v1.127c0,1.16-0.682,1.74-2.047,1.74c-3.344,0-5.629-0.988-6.857-2.969
			c-1.229-1.979-1.842-5.016-1.842-9.109v-22.416c0-3.889-1.195-6.873-3.584-8.955c-2.389-2.08-5.424-3.121-9.107-3.121
			c-3.686,0-6.756,1.041-9.213,3.121c-2.455,2.082-3.684,5.066-3.684,8.955v17.504c0,4.025,1.006,7.061,3.02,9.107
			c2.012,2.049,4.912,3.072,8.699,3.072s6.908-1.535,9.365-4.605c0.477-0.615,1.143-0.922,1.996-0.922
			c0.852,0,1.449,0.512,1.791,1.535c0.205,0.818,0.102,1.535-0.307,2.148c-2.936,4.438-7.148,6.654-12.641,6.654
			c-5.494,0-9.656-1.467-12.486-4.402c-2.834-2.932-4.248-7.096-4.248-12.486v-17.605
			C456.624,331.045,458.261,326.881,461.536,323.947z"/>
	</g>
	<g>
		<path fill="#3F3F3F" d="M512.813,324.051c3.275-2.934,7.557-4.4,12.846-4.4c5.287,0,9.52,1.467,12.691,4.4
			c3.174,2.934,4.76,7.096,4.76,12.484v42.17c0,5.799-1.535,10.219-4.605,13.256c-3.07,3.035-7.184,4.553-12.334,4.553
			c-5.152,0-9.297-1.432-12.436-4.297c-3.139-2.867-4.744-6.895-4.811-12.078c0-1.229,0.648-1.842,1.945-1.842h0.818
			c1.363,0,2.047,0.613,2.047,1.842c0.137,3.752,1.346,6.617,3.633,8.598c2.285,1.979,5.236,2.969,8.854,2.969
			s6.533-1.094,8.752-3.275c2.215-2.186,3.326-5.461,3.326-9.826v-11.361c-3.686,2.662-8.035,3.992-13.051,3.992
			c-5.014,0-9.16-1.467-12.436-4.402c-3.273-2.932-4.912-7.096-4.912-12.486v-17.811
			C507.901,331.146,509.54,326.984,512.813,324.051z M534.718,327.58c-2.391-2.078-5.443-3.121-9.16-3.121
			c-3.721,0-6.773,1.043-9.16,3.121c-2.391,2.082-3.584,5.102-3.584,9.059v17.605c0,3.889,1.244,6.875,3.736,8.955
			c2.49,2.082,5.459,3.123,8.904,3.123s6.277-0.564,8.496-1.689c2.217-1.127,3.666-2.371,4.35-3.736v-24.361
			C538.3,332.646,537.104,329.662,534.718,327.58z"/>
	</g>
	<g>
		<path fill="#3F3F3F" d="M565.831,323.947c3.275-2.932,7.537-4.4,12.793-4.4c5.254,0,9.482,1.484,12.691,4.453
			c3.207,2.967,4.811,7.111,4.811,12.434v6.141c0,2.936-1.398,4.402-4.195,4.402h-22.109c-0.613,0-1.109-0.205-1.484-0.615
			c-0.375-0.408-0.562-0.885-0.562-1.434v-0.818c0-0.545,0.188-1.023,0.562-1.432c0.375-0.41,0.871-0.615,1.484-0.615h21.494v-5.527
			c0-3.889-1.195-6.873-3.582-8.955c-2.389-2.078-5.424-3.121-9.109-3.121c-3.684,0-6.738,1.043-9.16,3.121
			c-2.422,2.082-3.633,5.066-3.633,8.955v17.605c0,3.891,1.211,6.877,3.633,8.957c2.422,2.082,5.457,3.121,9.109,3.121
			c3.648,0,6.686-1.006,9.109-3.02c2.42-2.012,3.633-4.895,3.633-8.648c0-0.545,0.188-1.023,0.562-1.432
			c0.375-0.41,0.836-0.615,1.383-0.615h0.818c0.613,0,1.107,0.205,1.484,0.615c0.373,0.408,0.562,0.887,0.562,1.432
			c-0.068,5.256-1.707,9.332-4.912,12.23c-3.209,2.902-7.404,4.35-12.59,4.35s-9.434-1.482-12.742-4.451
			c-3.311-2.969-4.965-7.113-4.965-12.436v-17.811C560.917,331.045,562.556,326.881,565.831,323.947z"/>
	</g>
	<circle fill="#3F3F3F" cx="616.79" cy="364.039" r="5.637"/>
	<g>
		<g>
			<g>
				<path fill="#99CC29" d="M404.145,59.379c0,4.478,3.633,8.114,8.112,8.114c4.483,0,8.115-3.637,8.115-8.114
					c0-4.482-3.632-8.117-8.115-8.117C407.777,51.262,404.145,54.896,404.145,59.379z"/>
			</g>
			<g>
				<path fill="#99CC29" d="M371.247,98.68c0,4.482,3.633,8.117,8.112,8.117c4.483,0,8.114-3.635,8.114-8.117
					c0-4.486-3.631-8.118-8.114-8.118C374.88,90.562,371.247,94.197,371.247,98.68z"/>
			</g>
			<g>
				<path fill="#99CC29" d="M436.445,78.744c0,4.479,3.635,8.108,8.112,8.108c4.486,0.004,8.113-3.63,8.116-8.112
					c0-4.482-3.63-8.117-8.116-8.115C440.08,70.623,436.445,74.262,436.445,78.744z"/>
			</g>
			<g>
				<path fill="#99CC29" d="M436.445,166.494c0,4.479,3.635,8.115,8.112,8.115c4.486,0,8.113-3.636,8.116-8.115
					c0-4.486-3.63-8.123-8.116-8.123C440.08,158.371,436.445,162.008,436.445,166.494z"/>
			</g>
			<g>
				<path fill="#99CC29" d="M371.247,68.469c0,4.487,3.633,8.119,8.112,8.119c4.483,0,8.114-3.632,8.114-8.119
					c0-4.482-3.631-8.115-8.114-8.115C374.88,60.354,371.247,63.989,371.247,68.469z"/>
			</g>
			<g>
				<path fill="#99CC29" d="M341.035,128.885c0.002,4.483,3.635,8.116,8.115,8.116c4.485,0,8.11-3.633,8.115-8.116
					c0-4.477-3.63-8.112-8.115-8.112C344.67,120.772,341.037,124.408,341.035,128.885z"/>
			</g>
			<g>
				<path fill="#99CC29" d="M311.269,98.68c0.002,4.482,3.636,8.117,8.115,8.117c4.484,0,8.113-3.635,8.115-8.117
					c0-4.486-3.63-8.118-8.115-8.118C314.905,90.562,311.271,94.197,311.269,98.68z"/>
			</g>
			<g>
				<path fill="#99CC29" d="M311.269,128.885c0.002,4.483,3.636,8.116,8.115,8.116c4.484,0,8.113-3.633,8.115-8.116
					c0-4.477-3.63-8.112-8.115-8.112C314.905,120.772,311.271,124.408,311.269,128.885z"/>
			</g>
			<g>
				<path fill="#99CC29" d="M341.035,68.469c0.002,4.487,3.635,8.119,8.115,8.119c4.485,0,8.11-3.632,8.115-8.119
					c0-4.482-3.63-8.115-8.115-8.115C344.67,60.354,341.037,63.989,341.035,68.469z"/>
			</g>
			<g>
				<path fill="#99CC29" d="M436.445,48.531c0,4.481,3.635,8.116,8.112,8.116c4.486,0,8.113-3.635,8.116-8.116
					c0-4.483-3.63-8.117-8.116-8.117C440.08,40.414,436.445,44.048,436.445,48.531z"/>
			</g>
			<g>
				<path fill="#99CC29" d="M371.247,38.261c0,4.484,3.633,8.114,8.112,8.114c4.483,0.002,8.114-3.63,8.114-8.117
					c0-4.482-3.631-8.116-8.114-8.112C374.88,30.142,371.247,33.78,371.247,38.261z"/>
			</g>
			<g>
				<path fill="#99CC29" d="M436.445,18.322c0,4.483,3.635,8.114,8.112,8.114c4.486,0,8.113-3.631,8.116-8.114
					c0-4.488-3.63-8.122-8.116-8.122C440.08,10.2,436.445,13.838,436.445,18.322z"/>
			</g>
			<g>
				<path fill="#99CC29" d="M466.655,78.744c0,4.479,3.634,8.108,8.113,8.108c4.485,0.004,8.115-3.63,8.115-8.112
					s-3.63-8.117-8.115-8.115C470.289,70.623,466.655,74.262,466.655,78.744z"/>
			</g>
			<g>
				<path fill="#99CC29" d="M497.085,108.951c0,4.484,3.634,8.112,8.109,8.112c4.487,0.004,8.118-3.628,8.12-8.114
					c0-4.481-3.633-8.113-8.12-8.113C500.719,100.836,497.085,104.472,497.085,108.951z"/>
			</g>
			<g>
				<path fill="#99CC29" d="M466.655,139.155c0,4.484,3.634,8.12,8.113,8.12c4.485,0,8.115-3.636,8.115-8.12
					s-3.63-8.114-8.115-8.114C470.289,131.041,466.655,134.676,466.655,139.155z"/>
			</g>
			<g>
				<path fill="#3F3F3F" d="M404.145,29.168c0,4.481,3.633,8.118,8.112,8.118c4.483,0,8.115-3.637,8.115-8.118
					c0-4.486-3.632-8.118-8.115-8.118C407.777,21.05,404.145,24.686,404.145,29.168z"/>
			</g>
			<g>
				<path fill="#3F3F3F" d="M341.035,98.68c0.002,4.482,3.635,8.117,8.115,8.117c4.485,0,8.11-3.635,8.115-8.117
					c0-4.486-3.63-8.118-8.115-8.118C344.67,90.562,341.037,94.197,341.035,98.68z"/>
			</g>
			<g>
				<path fill="#3F3F3F" d="M341.035,159.096c0.002,4.482,3.635,8.118,8.115,8.118c4.485,0.002,8.11-3.636,8.115-8.12
					c0-4.477-3.63-8.117-8.115-8.112C344.67,150.977,341.037,154.617,341.035,159.096z"/>
			</g>
			<g>
				<path fill="#3F3F3F" d="M466.655,108.951c0,4.484,3.634,8.112,8.113,8.112c4.485,0.004,8.115-3.628,8.115-8.114
					c0-4.481-3.63-8.113-8.115-8.113C470.289,100.836,466.655,104.472,466.655,108.951z"/>
			</g>
			<g>
				<path fill="#3F3F3F" d="M497.085,78.744c0,4.479,3.634,8.108,8.109,8.108c4.487,0.004,8.118-3.63,8.12-8.112
					c0-4.482-3.633-8.117-8.12-8.115C500.719,70.623,497.085,74.262,497.085,78.744z"/>
			</g>
			<g>
				<path fill="#3F3F3F" d="M466.655,48.531c0,4.481,3.634,8.116,8.113,8.116c4.485,0,8.115-3.635,8.115-8.116
					c0-4.483-3.63-8.117-8.115-8.117C470.289,40.414,466.655,44.048,466.655,48.531z"/>
			</g>
			<g>
				<path fill="#3F3F3F" d="M412.23,241.344c-1.919,0-3.471,0.407-3.471-1.511V97.823c0-1.916,1.552-3.475,3.471-3.475
					c1.918,0,3.479,1.559,3.479,3.475v142.01C415.709,241.751,414.148,241.344,412.23,241.344z"/>
			</g>
			<g>
				<path fill="#3F3F3F" d="M412.232,99.879c-4.635,0-8.404-3.769-8.404-8.402c0-4.633,3.77-8.405,8.404-8.405
					s8.403,3.772,8.403,8.405C420.636,96.11,416.867,99.879,412.232,99.879z M412.232,89.158c-1.28,0-2.319,1.037-2.319,2.318
					c0,1.279,1.039,2.321,2.319,2.321s2.321-1.042,2.321-2.321C414.554,90.195,413.513,89.158,412.232,89.158z"/>
			</g>
			<g>
				<path fill="#3F3F3F" d="M412.159,163.733c-1.921,0-3.478-1.559-3.478-3.479c0-12.68,9.869-16.98,22.771-21.293
					c9.851-3.285,9.81-7.853,9.71-18.879c-0.011-1.076-0.017-2.193-0.017-3.349c0-1.92,1.553-3.48,3.473-3.48
					c1.919,0,3.476,1.561,3.476,3.48c0,1.135,0.01,2.23,0.017,3.287c0.105,11.529,0.188,20.641-14.456,25.536
					c-14.316,4.782-18.021,7.805-18.021,14.697C415.634,162.175,414.077,163.733,412.159,163.733z"/>
			</g>
			<g>
				<path fill="#3F3F3F" d="M412.159,179.581c-1.921,0-3.478-1.554-3.478-3.474c0-6.893-3.707-9.916-18.022-14.699
					c-14.647-4.895-14.562-14.004-14.461-25.543c0.01-1.054,0.021-2.152,0.021-3.282c0-1.921,1.52-1.32,3.438-1.32
					c1.921,0,3.512-0.601,3.512,1.32c0,1.155-0.012,2.272-0.019,3.349c-0.1,11.027-0.143,15.595,9.713,18.879
					c12.9,4.313,22.77,8.618,22.77,21.297C415.634,178.027,414.077,179.581,412.159,179.581z"/>
			</g>
			<g>
				<path fill="#3F3F3F" d="M412.23,253.599c-4.631,0-8.402-3.771-8.402-8.406c0-4.629,3.771-8.401,8.402-8.401
					c4.637,0,8.402,3.772,8.402,8.401C420.633,249.827,416.867,253.599,412.23,253.599z M412.23,242.876
					c-1.278,0-2.319,1.039-2.319,2.316c0,1.28,1.041,2.325,2.319,2.325c1.282,0,2.321-1.045,2.321-2.325
					C414.552,243.915,413.513,242.876,412.23,242.876z"/>
			</g>
			<g>
				<path fill="#3F3F3F" d="M379.658,137.343c-4.635,0-8.404-3.771-8.404-8.406c0-4.631,3.769-8.397,8.404-8.397
					c4.631,0,8.404,3.767,8.404,8.397C388.062,133.571,384.29,137.343,379.658,137.343z M379.658,126.619
					c-1.281,0-2.321,1.041-2.321,2.317c0,1.282,1.041,2.326,2.321,2.326c1.28,0,2.32-1.044,2.32-2.326
					C381.978,127.66,380.938,126.619,379.658,126.619z"/>
			</g>
			<g>
				<path fill="#3F3F3F" d="M444.451,117.476c-4.631,0-8.402-3.771-8.402-8.404c0-4.634,3.771-8.402,8.402-8.402
					c4.635,0,8.403,3.769,8.403,8.402C452.854,113.704,449.086,117.476,444.451,117.476z M444.451,106.75
					c-1.28,0-2.32,1.041-2.32,2.321c0,1.281,1.04,2.322,2.32,2.322c1.279,0,2.318-1.041,2.318-2.322
					C446.77,107.791,445.73,106.75,444.451,106.75z"/>
			</g>
		</g>
	</g>
</g>
</svg>
