<?xml version="1.0" encoding="utf-8"?>
<!-- Generator: Adobe Illustrator 16.0.0, SVG Export Plug-In . SVG Version: 6.00 Build 0)  -->
<!DOCTYPE svg PUBLIC "-//W3C//DTD SVG 1.1//EN" "http://www.w3.org/Graphics/SVG/1.1/DTD/svg11.dtd">
<svg version="1.1" id="Camada_1" xmlns="http://www.w3.org/2000/svg" xmlns:xlink="http://www.w3.org/1999/xlink" x="0px" y="0px"
	 width="31px" height="38.28px" viewBox="72.975 54.619 31 38.28" enable-background="new 72.975 54.619 31 38.28"
	 xml:space="preserve">
<g id="XMLID_35_">
	<g id="XMLID_36_">
		<g id="XMLID_99_">
			<path id="XMLID_33_" fill="#FFFFFF" d="M87.224,62.158c0,0.688,0.559,1.248,1.248,1.248c0.688,0,1.247-0.56,1.247-1.248
				c0-0.688-0.559-1.248-1.247-1.248C87.783,60.921,87.224,61.48,87.224,62.158z"/>
		</g>
		<g id="XMLID_97_">
			<path id="XMLID_32_" fill="#FFFFFF" d="M82.181,68.191c0,0.688,0.559,1.247,1.247,1.247s1.248-0.559,1.248-1.247
				c0-0.688-0.559-1.248-1.248-1.248C82.729,66.944,82.181,67.503,82.181,68.191z"/>
		</g>
		<g id="XMLID_95_">
			<path id="XMLID_31_" fill="#FFFFFF" d="M92.182,65.137c0,0.688,0.559,1.247,1.247,1.247c0.689,0,1.248-0.559,1.248-1.247
				c0-0.688-0.559-1.248-1.248-1.248C92.731,63.889,92.182,64.449,92.182,65.137z"/>
		</g>
		<g id="XMLID_93_">
			<path id="XMLID_30_" fill="#FFFFFF" d="M92.182,78.59c0,0.688,0.559,1.248,1.247,1.248c0.689,0,1.248-0.56,1.248-1.248
				c0-0.688-0.559-1.248-1.248-1.248C92.731,77.354,92.182,77.902,92.182,78.59z"/>
		</g>
		<g id="XMLID_91_">
			<path id="XMLID_29_" fill="#FFFFFF" d="M82.181,63.556c0,0.688,0.559,1.248,1.247,1.248s1.248-0.56,1.248-1.248
				c0-0.688-0.559-1.247-1.248-1.247C82.729,62.309,82.181,62.868,82.181,63.556z"/>
		</g>
		<g id="XMLID_89_">
			<path id="XMLID_28_" fill="#FFFFFF" d="M77.546,72.826c0,0.688,0.559,1.248,1.247,1.248c0.688,0,1.248-0.56,1.248-1.248
				c0-0.688-0.56-1.248-1.248-1.248C78.094,71.579,77.546,72.138,77.546,72.826z"/>
		</g>
		<g id="XMLID_87_">
			<path id="XMLID_27_" fill="#FFFFFF" d="M72.975,68.191c0,0.688,0.559,1.247,1.248,1.247c0.688,0,1.248-0.559,1.248-1.247
				c0-0.688-0.56-1.248-1.248-1.248C73.534,66.944,72.975,67.503,72.975,68.191z"/>
		</g>
		<g id="XMLID_85_">
			<path id="XMLID_26_" fill="#FFFFFF" d="M72.975,72.826c0,0.688,0.559,1.248,1.248,1.248c0.688,0,1.248-0.56,1.248-1.248
				c0-0.688-0.56-1.248-1.248-1.248C73.534,71.579,72.975,72.138,72.975,72.826z"/>
		</g>
		<g id="XMLID_83_">
			<path id="XMLID_25_" fill="#FFFFFF" d="M77.546,63.556c0,0.688,0.559,1.248,1.247,1.248c0.688,0,1.248-0.56,1.248-1.248
				c0-0.688-0.56-1.247-1.248-1.247C78.094,62.309,77.546,62.868,77.546,63.556z"/>
		</g>
		<g id="XMLID_81_">
			<path id="XMLID_24_" fill="#FFFFFF" d="M92.182,60.502c0,0.688,0.559,1.247,1.247,1.247c0.689,0,1.248-0.559,1.248-1.247
				c0-0.688-0.559-1.248-1.248-1.248C92.731,59.254,92.182,59.813,92.182,60.502z"/>
		</g>
		<g id="XMLID_79_">
			<path id="XMLID_23_" fill="#FFFFFF" d="M82.181,58.921c0,0.688,0.559,1.248,1.247,1.248s1.248-0.56,1.248-1.248
				s-0.559-1.248-1.248-1.248C82.729,57.673,82.181,58.233,82.181,58.921z"/>
		</g>
		<g id="XMLID_77_">
			<path id="XMLID_22_" fill="#FFFFFF" d="M92.182,55.867c0,0.688,0.559,1.248,1.247,1.248c0.689,0,1.248-0.56,1.248-1.248
				c0-0.688-0.559-1.248-1.248-1.248C92.731,54.619,92.182,55.178,92.182,55.867z"/>
		</g>
		<g id="XMLID_75_">
			<path id="XMLID_21_" fill="#FFFFFF" d="M96.807,65.137c0,0.688,0.559,1.247,1.247,1.247c0.688,0,1.248-0.559,1.248-1.247
				c0-0.688-0.56-1.248-1.248-1.248C97.365,63.889,96.807,64.449,96.807,65.137z"/>
		</g>
		<g id="XMLID_73_">
			<path id="XMLID_20_" fill="#FFFFFF" d="M101.474,69.772c0,0.688,0.56,1.247,1.248,1.247c0.688,0,1.247-0.56,1.247-1.247
				c0-0.688-0.559-1.248-1.247-1.248C102.033,68.524,101.474,69.084,101.474,69.772z"/>
		</g>
		<g id="XMLID_71_">
			<path id="XMLID_19_" fill="#FFFFFF" d="M96.807,74.396c0,0.689,0.559,1.248,1.247,1.248c0.688,0,1.248-0.559,1.248-1.248
				c0-0.688-0.56-1.247-1.248-1.247C97.365,73.16,96.807,73.719,96.807,74.396z"/>
		</g>
		<g id="XMLID_69_">
			<path id="XMLID_18_" fill="#FFFFFF" d="M87.224,57.534c0,0.688,0.559,1.248,1.248,1.248c0.688,0,1.247-0.56,1.247-1.248
				c0-0.688-0.559-1.248-1.247-1.248C87.783,56.286,87.224,56.845,87.224,57.534z"/>
		</g>
		<g id="XMLID_67_">
			<path id="XMLID_17_" fill="#FFFFFF" d="M77.546,68.191c0,0.688,0.559,1.247,1.247,1.247c0.688,0,1.248-0.559,1.248-1.247
				c0-0.688-0.56-1.248-1.248-1.248C78.094,66.944,77.546,67.503,77.546,68.191z"/>
		</g>
		<g id="XMLID_65_">
			<path id="XMLID_16_" fill="#FFFFFF" d="M77.546,77.461c0,0.688,0.559,1.248,1.247,1.248c0.688,0,1.248-0.56,1.248-1.248
				c0-0.688-0.56-1.248-1.248-1.248C78.094,76.213,77.546,76.773,77.546,77.461z"/>
		</g>
		<g id="XMLID_63_">
			<path id="XMLID_15_" fill="#FFFFFF" d="M96.807,69.772c0,0.688,0.559,1.247,1.247,1.247c0.688,0,1.248-0.56,1.248-1.247
				c0-0.688-0.56-1.248-1.248-1.248C97.365,68.524,96.807,69.084,96.807,69.772z"/>
		</g>
		<g id="XMLID_61_">
			<path id="XMLID_14_" fill="#FFFFFF" d="M101.474,65.137c0,0.688,0.56,1.247,1.248,1.247c0.688,0,1.247-0.559,1.247-1.247
				c0-0.688-0.559-1.248-1.247-1.248C102.033,63.889,101.474,64.449,101.474,65.137z"/>
		</g>
		<g id="XMLID_59_">
			<path id="XMLID_13_" fill="#FFFFFF" d="M96.807,60.502c0,0.688,0.559,1.247,1.247,1.247c0.688,0,1.248-0.559,1.248-1.247
				c0-0.688-0.56-1.248-1.248-1.248C97.365,59.254,96.807,59.813,96.807,60.502z"/>
		</g>
		<g id="XMLID_57_">
			<path id="XMLID_12_" fill="#FFFFFF" d="M88.461,90.076c-0.291,0-0.538,0.064-0.538-0.236V68.062c0-0.29,0.236-0.538,0.538-0.538
				c0.291,0,0.538,0.237,0.538,0.538v21.789C88.999,90.141,88.752,90.076,88.461,90.076z"/>
		</g>
		<g id="XMLID_53_">
			<path id="XMLID_54_" fill="#FFFFFF" d="M88.461,68.374c-0.71,0-1.291-0.581-1.291-1.291c0-0.71,0.581-1.291,1.291-1.291
				c0.709,0,1.291,0.581,1.291,1.291C89.752,67.793,89.171,68.374,88.461,68.374z M88.461,66.729c-0.193,0-0.355,0.161-0.355,0.355
				c0,0.193,0.162,0.355,0.355,0.355c0.194,0,0.354-0.162,0.354-0.355C88.816,66.89,88.655,66.729,88.461,66.729z"/>
		</g>
		<g id="XMLID_51_">
			<path id="XMLID_9_" fill="#FFFFFF" d="M88.45,78.171c-0.291,0-0.538-0.236-0.538-0.538c0-1.947,1.516-2.603,3.496-3.27
				c1.516-0.505,1.505-1.204,1.495-2.893c0-0.161,0-0.333,0-0.516c0-0.291,0.236-0.538,0.538-0.538c0.291,0,0.538,0.236,0.538,0.538
				c0,0.172,0,0.344,0,0.505c0.011,1.764,0.033,3.162-2.215,3.915c-2.194,0.731-2.764,1.193-2.764,2.258
				C88.988,77.935,88.741,78.171,88.45,78.171z"/>
		</g>
		<g id="XMLID_49_">
			<path id="XMLID_8_" fill="#FFFFFF" d="M88.45,80.602c-0.291,0-0.538-0.236-0.538-0.538c0-1.054-0.569-1.516-2.764-2.259
				c-2.248-0.753-2.237-2.15-2.215-3.915c0-0.161,0-0.333,0-0.505c0-0.291,0.237-0.204,0.527-0.204c0.291,0,0.538-0.097,0.538,0.204
				c0,0.172,0,0.344,0,0.516c-0.011,1.689-0.021,2.388,1.495,2.893c1.979,0.667,3.495,1.323,3.495,3.27
				C88.988,80.365,88.741,80.602,88.45,80.602z"/>
		</g>
		<g id="XMLID_45_">
			<path id="XMLID_46_" fill="#FFFFFF" d="M88.461,91.958c-0.71,0-1.291-0.581-1.291-1.29s0.581-1.291,1.291-1.291
				c0.709,0,1.291,0.581,1.291,1.291S89.171,91.958,88.461,91.958z M88.461,90.312c-0.193,0-0.355,0.162-0.355,0.355
				s0.162,0.355,0.355,0.355c0.194,0,0.354-0.162,0.354-0.355S88.655,90.312,88.461,90.312z"/>
		</g>
		<g id="XMLID_41_">
			<path id="XMLID_42_" fill="#FFFFFF" d="M83.471,74.127c-0.71,0-1.291-0.58-1.291-1.29c0-0.709,0.581-1.291,1.291-1.291
				c0.709,0,1.29,0.581,1.29,1.291C84.751,73.547,84.181,74.127,83.471,74.127z M83.471,72.482c-0.194,0-0.355,0.162-0.355,0.355
				c0,0.194,0.162,0.355,0.355,0.355c0.193,0,0.354-0.161,0.354-0.355C83.826,72.633,83.665,72.482,83.471,72.482z"/>
		</g>
		<g id="XMLID_37_">
			<path id="XMLID_38_" fill="#FFFFFF" d="M93.408,71.073c-0.709,0-1.291-0.581-1.291-1.29c0-0.71,0.581-1.291,1.291-1.291
				c0.71,0,1.29,0.581,1.29,1.291C94.698,70.493,94.118,71.073,93.408,71.073z M93.408,69.428c-0.193,0-0.354,0.162-0.354,0.355
				c0,0.193,0.161,0.354,0.354,0.354c0.194,0,0.355-0.161,0.355-0.354C93.763,69.589,93.602,69.428,93.408,69.428z"/>
		</g>
	</g>
</g>
</svg>
