<?xml version="1.0" encoding="utf-8"?>
<!-- Generator: Adobe Illustrator 16.0.0, SVG Export Plug-In . SVG Version: 6.00 Build 0)  -->
<!DOCTYPE svg PUBLIC "-//W3C//DTD SVG 1.1//EN" "http://www.w3.org/Graphics/SVG/1.1/DTD/svg11.dtd">
<svg version="1.1" id="Camada_1" xmlns="http://www.w3.org/2000/svg" xmlns:xlink="http://www.w3.org/1999/xlink" x="0px" y="0px"
	 width="31px" height="38.281px" viewBox="0 0 31 38.281" enable-background="new 0 0 31 38.281" xml:space="preserve">
<g id="XMLID_35_">
	<g id="XMLID_36_">
		<g id="XMLID_99_">
			<path id="XMLID_33_" fill="#FFFFFF" d="M14.177,7.5c0,0.685,0.556,1.242,1.242,1.242c0.684,0,1.24-0.557,1.24-1.242
				c0-0.684-0.557-1.242-1.24-1.242C14.733,6.271,14.177,6.826,14.177,7.5z"/>
		</g>
		<g id="XMLID_97_">
			<path id="XMLID_32_" fill="#9AC332" d="M9.16,13.503c0,0.684,0.556,1.241,1.24,1.241c0.685,0,1.242-0.557,1.242-1.241
				s-0.556-1.242-1.242-1.242C9.704,12.262,9.16,12.819,9.16,13.503z"/>
		</g>
		<g id="XMLID_95_">
			<path id="XMLID_31_" fill="#9AC332" d="M19.109,10.465c0,0.685,0.558,1.241,1.241,1.241c0.687,0,1.242-0.556,1.242-1.241
				s-0.556-1.242-1.242-1.242C19.655,9.223,19.109,9.78,19.109,10.465z"/>
		</g>
		<g id="XMLID_93_">
			<path id="XMLID_30_" fill="#9AC332" d="M19.109,23.847c0,0.686,0.558,1.241,1.241,1.241c0.687,0,1.242-0.556,1.242-1.241
				c0-0.685-0.556-1.242-1.242-1.242C19.655,22.619,19.109,23.163,19.109,23.847z"/>
		</g>
		<g id="XMLID_91_">
			<path id="XMLID_29_" fill="#9AC332" d="M9.16,8.892c0,0.684,0.556,1.242,1.24,1.242c0.685,0,1.242-0.558,1.242-1.242
				c0-0.684-0.556-1.241-1.242-1.241C9.704,7.651,9.16,8.208,9.16,8.892z"/>
		</g>
		<g id="XMLID_89_">
			<path id="XMLID_28_" fill="#9AC332" d="M4.548,18.114c0,0.685,0.557,1.242,1.241,1.242s1.242-0.557,1.242-1.242
				c0-0.684-0.558-1.242-1.242-1.242C5.093,16.875,4.548,17.43,4.548,18.114z"/>
		</g>
		<g id="XMLID_87_">
			<path id="XMLID_27_" fill="#9AC332" d="M0,13.503c0,0.684,0.557,1.241,1.242,1.241s1.242-0.557,1.242-1.241
				s-0.557-1.242-1.242-1.242C0.557,12.262,0,12.819,0,13.503z"/>
		</g>
		<g id="XMLID_85_">
			<path id="XMLID_26_" fill="#9AC332" d="M0,18.114c0,0.685,0.557,1.242,1.242,1.242s1.242-0.557,1.242-1.242
				c0-0.684-0.557-1.242-1.242-1.242C0.557,16.875,0,17.43,0,18.114z"/>
		</g>
		<g id="XMLID_83_">
			<path id="XMLID_25_" fill="#9AC332" d="M4.548,8.892c0,0.684,0.557,1.242,1.241,1.242S7.03,9.576,7.03,8.892
				c0-0.684-0.558-1.241-1.242-1.241C5.093,7.651,4.548,8.208,4.548,8.892z"/>
		</g>
		<g id="XMLID_81_">
			<path id="XMLID_24_" fill="#9AC332" d="M19.109,5.853c0,0.685,0.558,1.241,1.241,1.241c0.687,0,1.242-0.557,1.242-1.241
				c0-0.684-0.556-1.242-1.242-1.242C19.655,4.611,19.109,5.168,19.109,5.853z"/>
		</g>
		<g id="XMLID_79_">
			<path id="XMLID_23_" fill="#9AC332" d="M9.16,4.281c0,0.684,0.556,1.242,1.24,1.242c0.685,0,1.242-0.558,1.242-1.242
				c0-0.685-0.556-1.242-1.242-1.242C9.704,3.039,9.16,3.596,9.16,4.281z"/>
		</g>
		<g id="XMLID_77_">
			<path id="XMLID_22_" fill="#9AC332" d="M19.109,1.242c0,0.685,0.558,1.242,1.241,1.242c0.687,0,1.242-0.557,1.242-1.242
				C21.593,0.558,21.037,0,20.351,0C19.655,0,19.109,0.556,19.109,1.242z"/>
		</g>
		<g id="XMLID_75_">
			<path id="XMLID_21_" fill="#9AC332" d="M23.711,10.465c0,0.685,0.558,1.241,1.241,1.241s1.241-0.556,1.241-1.241
				s-0.558-1.242-1.241-1.242C24.267,9.223,23.711,9.78,23.711,10.465z"/>
		</g>
		<g id="XMLID_73_">
			<path id="XMLID_20_" fill="#9AC332" d="M28.354,15.076c0,0.685,0.558,1.241,1.242,1.241c0.684,0,1.239-0.558,1.239-1.241
				c0-0.685-0.556-1.242-1.239-1.242C28.91,13.834,28.354,14.391,28.354,15.076z"/>
		</g>
		<g id="XMLID_71_">
			<path id="XMLID_19_" fill="#9AC332" d="M23.711,19.675c0,0.686,0.558,1.241,1.241,1.241s1.241-0.556,1.241-1.241
				c0-0.683-0.558-1.24-1.241-1.24C24.267,18.446,23.711,19.002,23.711,19.675z"/>
		</g>
		<g id="XMLID_69_">
			<path id="XMLID_18_" fill="#FFFFFF" d="M14.177,2.901c0,0.684,0.556,1.242,1.242,1.242c0.684,0,1.24-0.558,1.24-1.242
				c0-0.685-0.557-1.241-1.24-1.241C14.733,1.66,14.177,2.215,14.177,2.901z"/>
		</g>
		<g id="XMLID_67_">
			<path id="XMLID_17_" fill="#FFFFFF" d="M4.548,13.503c0,0.684,0.557,1.241,1.241,1.241s1.242-0.557,1.242-1.241
				s-0.558-1.242-1.242-1.242C5.093,12.262,4.548,12.819,4.548,13.503z"/>
		</g>
		<g id="XMLID_65_">
			<path id="XMLID_16_" fill="#FFFFFF" d="M4.548,22.724c0,0.686,0.557,1.241,1.241,1.241S7.03,23.41,7.03,22.724
				c0-0.685-0.558-1.242-1.242-1.242C5.093,21.482,4.548,22.04,4.548,22.724z"/>
		</g>
		<g id="XMLID_63_">
			<path id="XMLID_15_" fill="#FFFFFF" d="M23.711,15.076c0,0.685,0.558,1.241,1.241,1.241s1.241-0.558,1.241-1.241
				c0-0.685-0.558-1.242-1.241-1.242C24.267,13.834,23.711,14.391,23.711,15.076z"/>
		</g>
		<g id="XMLID_61_">
			<path id="XMLID_14_" fill="#FFFFFF" d="M28.354,10.465c0,0.685,0.558,1.241,1.242,1.241c0.684,0,1.239-0.556,1.239-1.241
				s-0.556-1.242-1.239-1.242C28.91,9.223,28.354,9.78,28.354,10.465z"/>
		</g>
		<g id="XMLID_59_">
			<path id="XMLID_13_" fill="#FFFFFF" d="M23.711,5.853c0,0.685,0.558,1.241,1.241,1.241s1.241-0.557,1.241-1.241
				c0-0.684-0.558-1.242-1.241-1.242C24.267,4.611,23.711,5.168,23.711,5.853z"/>
		</g>
		<g id="XMLID_57_">
			<path id="XMLID_12_" fill="#FFFFFF" d="M15.407,35.275c-0.29,0-0.535,0.064-0.535-0.235V13.375c0-0.289,0.235-0.536,0.535-0.536
				c0.29,0,0.536,0.236,0.536,0.536v21.676C15.943,35.341,15.697,35.275,15.407,35.275z"/>
		</g>
		<g id="XMLID_53_">
			<path id="XMLID_54_" fill="#FFFFFF" d="M15.407,13.686c-0.706,0-1.284-0.579-1.284-1.284c0-0.708,0.578-1.285,1.284-1.285
				c0.705,0,1.284,0.577,1.284,1.285C16.691,13.106,16.114,13.686,15.407,13.686z M15.407,12.048c-0.192,0-0.354,0.161-0.354,0.353
				s0.161,0.354,0.354,0.354s0.352-0.161,0.352-0.354C15.761,12.209,15.6,12.048,15.407,12.048z"/>
		</g>
		<g id="XMLID_51_">
			<path id="XMLID_9_" fill="#FFFFFF" d="M15.396,23.431c-0.29,0-0.535-0.235-0.535-0.536c0-1.936,1.508-2.589,3.479-3.253
				c1.508-0.501,1.498-1.196,1.486-2.876c0-0.16,0-0.332,0-0.513c0-0.29,0.235-0.536,0.536-0.536c0.29,0,0.534,0.235,0.534,0.536
				c0,0.171,0,0.342,0,0.501c0.012,1.756,0.033,3.145-2.203,3.895c-2.183,0.727-2.75,1.187-2.75,2.246
				C15.932,23.196,15.686,23.431,15.396,23.431z"/>
		</g>
		<g id="XMLID_49_">
			<path id="XMLID_8_" fill="#FFFFFF" d="M15.396,25.85c-0.29,0-0.535-0.234-0.535-0.536c0-1.049-0.566-1.508-2.75-2.246
				c-2.237-0.75-2.226-2.14-2.204-3.895c0-0.161,0-0.332,0-0.503c0-0.29,0.235-0.202,0.523-0.202c0.29,0,0.536-0.097,0.536,0.202
				c0,0.172,0,0.343,0,0.514c-0.012,1.678-0.021,2.374,1.487,2.877c1.97,0.663,3.478,1.315,3.478,3.253
				C15.932,25.614,15.686,25.85,15.396,25.85z"/>
		</g>
		<g id="XMLID_45_">
			<path id="XMLID_46_" fill="#FFFFFF" d="M15.407,37.148c-0.706,0-1.284-0.579-1.284-1.284c0-0.706,0.578-1.285,1.284-1.285
				c0.705,0,1.284,0.579,1.284,1.285C16.691,36.571,16.114,37.148,15.407,37.148z M15.407,35.51c-0.192,0-0.354,0.161-0.354,0.354
				s0.161,0.354,0.354,0.354s0.352-0.161,0.352-0.354S15.6,35.51,15.407,35.51z"/>
		</g>
		<g id="XMLID_41_">
			<path id="XMLID_42_" fill="#FFFFFF" d="M10.442,19.408c-0.705,0-1.284-0.577-1.284-1.282c0-0.706,0.579-1.285,1.284-1.285
				c0.706,0,1.285,0.577,1.285,1.285C11.716,18.831,11.15,19.408,10.442,19.408z M10.442,17.772c-0.192,0-0.353,0.162-0.353,0.354
				s0.16,0.353,0.353,0.353s0.353-0.16,0.353-0.353C10.796,17.922,10.636,17.772,10.442,17.772z"/>
		</g>
		<g id="XMLID_37_">
			<path id="XMLID_38_" fill="#FFFFFF" d="M20.329,16.371c-0.705,0-1.284-0.579-1.284-1.284c0-0.706,0.577-1.285,1.284-1.285
				c0.708,0,1.283,0.579,1.283,1.285C21.612,15.794,21.037,16.371,20.329,16.371z M20.329,14.733c-0.192,0-0.352,0.162-0.352,0.354
				s0.159,0.353,0.352,0.353s0.354-0.16,0.354-0.353S20.521,14.733,20.329,14.733z"/>
		</g>
	</g>
</g>
</svg>
