<?xml version="1.0" encoding="utf-8"?>
<!-- Generator: Adobe Illustrator 19.0.0, SVG Export Plug-In . SVG Version: 6.00 Build 0)  -->
<svg version="1.1" id="Camada_1" xmlns="http://www.w3.org/2000/svg" xmlns:xlink="http://www.w3.org/1999/xlink" x="0px" y="0px"
	 viewBox="0 0 288.2 347.2" style="enable-background:new 0 0 288.2 347.2;" xml:space="preserve">
<style type="text/css">
	.st0{fill:#99CC29;}
	.st1{fill:#3F3F3F;}
</style>
<g id="XMLID_35_">
	<g id="XMLID_36_">
		<g id="XMLID_99_">
			<path id="XMLID_33_" class="st0" d="M132.5,70.1c0,6.4,5.2,11.6,11.6,11.6c6.4,0,11.6-5.2,11.6-11.6c0-6.4-5.2-11.6-11.6-11.6
				C137.7,58.6,132.5,63.8,132.5,70.1z"/>
		</g>
		<g id="XMLID_97_">
			<path id="XMLID_32_" class="st0" d="M85.6,126.2c0,6.4,5.2,11.6,11.6,11.6c6.4,0,11.6-5.2,11.6-11.6c0-6.4-5.2-11.6-11.6-11.6
				C90.7,114.6,85.6,119.8,85.6,126.2z"/>
		</g>
		<g id="XMLID_95_">
			<path id="XMLID_31_" class="st0" d="M178.6,97.8c0,6.4,5.2,11.6,11.6,11.6c6.4,0,11.6-5.2,11.6-11.6c0-6.4-5.2-11.6-11.6-11.6
				C183.7,86.2,178.6,91.4,178.6,97.8z"/>
		</g>
		<g id="XMLID_93_">
			<path id="XMLID_30_" class="st0" d="M178.6,222.9c0,6.4,5.2,11.6,11.6,11.6c6.4,0,11.6-5.2,11.6-11.6c0-6.4-5.2-11.6-11.6-11.6
				C183.7,211.4,178.6,216.5,178.6,222.9z"/>
		</g>
		<g id="XMLID_91_">
			<path id="XMLID_29_" class="st0" d="M85.6,83.1c0,6.4,5.2,11.6,11.6,11.6c6.4,0,11.6-5.2,11.6-11.6c0-6.4-5.2-11.6-11.6-11.6
				C90.7,71.5,85.6,76.7,85.6,83.1z"/>
		</g>
		<g id="XMLID_89_">
			<path id="XMLID_28_" class="st0" d="M42.5,169.3c0,6.4,5.2,11.6,11.6,11.6c6.4,0,11.6-5.2,11.6-11.6c0-6.4-5.2-11.6-11.6-11.6
				C47.6,157.7,42.5,162.9,42.5,169.3z"/>
		</g>
		<g id="XMLID_87_">
			<path id="XMLID_27_" class="st0" d="M0,126.2c0,6.4,5.2,11.6,11.6,11.6c6.4,0,11.6-5.2,11.6-11.6c0-6.4-5.2-11.6-11.6-11.6
				C5.2,114.6,0,119.8,0,126.2z"/>
		</g>
		<g id="XMLID_85_">
			<path id="XMLID_26_" class="st0" d="M0,169.3c0,6.4,5.2,11.6,11.6,11.6c6.4,0,11.6-5.2,11.6-11.6c0-6.4-5.2-11.6-11.6-11.6
				C5.2,157.7,0,162.9,0,169.3z"/>
		</g>
		<g id="XMLID_83_">
			<path id="XMLID_25_" class="st0" d="M42.5,83.1c0,6.4,5.2,11.6,11.6,11.6c6.4,0,11.6-5.2,11.6-11.6c0-6.4-5.2-11.6-11.6-11.6
				C47.6,71.5,42.5,76.7,42.5,83.1z"/>
		</g>
		<g id="XMLID_81_">
			<path id="XMLID_24_" class="st0" d="M178.6,54.7c0,6.4,5.2,11.6,11.6,11.6c6.4,0,11.6-5.2,11.6-11.6c0-6.4-5.2-11.6-11.6-11.6
				C183.7,43.1,178.6,48.3,178.6,54.7z"/>
		</g>
		<g id="XMLID_79_">
			<path id="XMLID_23_" class="st0" d="M85.6,40c0,6.4,5.2,11.6,11.6,11.6c6.4,0,11.6-5.2,11.6-11.6c0-6.4-5.2-11.6-11.6-11.6
				C90.7,28.4,85.6,33.6,85.6,40z"/>
		</g>
		<g id="XMLID_77_">
			<path id="XMLID_22_" class="st0" d="M178.6,11.6c0,6.4,5.2,11.6,11.6,11.6c6.4,0,11.6-5.2,11.6-11.6c0-6.4-5.2-11.6-11.6-11.6
				C183.7,0,178.6,5.2,178.6,11.6z"/>
		</g>
		<g id="XMLID_75_">
			<path id="XMLID_21_" class="st0" d="M221.6,97.8c0,6.4,5.2,11.6,11.6,11.6c6.4,0,11.6-5.2,11.6-11.6c0-6.4-5.2-11.6-11.6-11.6
				C226.8,86.2,221.6,91.4,221.6,97.8z"/>
		</g>
		<g id="XMLID_73_">
			<path id="XMLID_20_" class="st0" d="M265,140.9c0,6.4,5.2,11.6,11.6,11.6c6.4,0,11.6-5.2,11.6-11.6c0-6.4-5.2-11.6-11.6-11.6
				C270.2,129.3,265,134.5,265,140.9z"/>
		</g>
		<g id="XMLID_71_">
			<path id="XMLID_19_" class="st0" d="M221.6,183.9c0,6.4,5.2,11.6,11.6,11.6c6.4,0,11.6-5.2,11.6-11.6c0-6.4-5.2-11.6-11.6-11.6
				C226.8,172.4,221.6,177.6,221.6,183.9z"/>
		</g>
		<g id="XMLID_69_">
			<path id="XMLID_18_" class="st1" d="M132.5,27.1c0,6.4,5.2,11.6,11.6,11.6c6.4,0,11.6-5.2,11.6-11.6c0-6.4-5.2-11.6-11.6-11.6
				C137.7,15.5,132.5,20.7,132.5,27.1z"/>
		</g>
		<g id="XMLID_67_">
			<path id="XMLID_17_" class="st1" d="M42.5,126.2c0,6.4,5.2,11.6,11.6,11.6c6.4,0,11.6-5.2,11.6-11.6c0-6.4-5.2-11.6-11.6-11.6
				C47.6,114.6,42.5,119.8,42.5,126.2z"/>
		</g>
		<g id="XMLID_65_">
			<path id="XMLID_16_" class="st1" d="M42.5,212.4c0,6.4,5.2,11.6,11.6,11.6c6.4,0,11.6-5.2,11.6-11.6c0-6.4-5.2-11.6-11.6-11.6
				C47.6,200.8,42.5,206,42.5,212.4z"/>
		</g>
		<g id="XMLID_63_">
			<path id="XMLID_15_" class="st1" d="M221.6,140.9c0,6.4,5.2,11.6,11.6,11.6c6.4,0,11.6-5.2,11.6-11.6c0-6.4-5.2-11.6-11.6-11.6
				C226.8,129.3,221.6,134.5,221.6,140.9z"/>
		</g>
		<g id="XMLID_61_">
			<path id="XMLID_14_" class="st1" d="M265,97.8c0,6.4,5.2,11.6,11.6,11.6c6.4,0,11.6-5.2,11.6-11.6c0-6.4-5.2-11.6-11.6-11.6
				C270.2,86.2,265,91.4,265,97.8z"/>
		</g>
		<g id="XMLID_59_">
			<path id="XMLID_13_" class="st1" d="M221.6,54.7c0,6.4,5.2,11.6,11.6,11.6c6.4,0,11.6-5.2,11.6-11.6c0-6.4-5.2-11.6-11.6-11.6
				C226.8,43.1,221.6,48.3,221.6,54.7z"/>
		</g>
		<g id="XMLID_57_">
			<path id="XMLID_12_" class="st1" d="M144,329.7c-2.7,0-5,0.6-5-2.2V125c0-2.7,2.2-5,5-5c2.7,0,5,2.2,5,5v202.6
				C149,330.3,146.7,329.7,144,329.7z"/>
		</g>
		<g id="XMLID_53_">
			<path id="XMLID_54_" class="st1" d="M144,127.9c-6.6,0-12-5.4-12-12c0-6.6,5.4-12,12-12c6.6,0,12,5.4,12,12
				C156,122.5,150.6,127.9,144,127.9z M144,112.6c-1.8,0-3.3,1.5-3.3,3.3c0,1.8,1.5,3.3,3.3,3.3c1.8,0,3.3-1.5,3.3-3.3
				C147.3,114.1,145.8,112.6,144,112.6z"/>
		</g>
		<g id="XMLID_51_">
			<path id="XMLID_9_" class="st1" d="M143.9,219c-2.7,0-5-2.2-5-5c0-18.1,14.1-24.2,32.5-30.4c14.1-4.7,14-11.2,13.9-26.9
				c0-1.5,0-3.1,0-4.8c0-2.7,2.2-5,5-5c2.7,0,5,2.2,5,5c0,1.6,0,3.2,0,4.7c0.1,16.4,0.3,29.4-20.6,36.4c-20.4,6.8-25.7,11.1-25.7,21
				C148.9,216.8,146.6,219,143.9,219z"/>
		</g>
		<g id="XMLID_49_">
			<path id="XMLID_8_" class="st1" d="M143.9,241.6c-2.7,0-5-2.2-5-5c0-9.8-5.3-14.1-25.7-21c-20.9-7-20.8-20-20.6-36.4
				c0-1.5,0-3.1,0-4.7c0-2.7,2.2-1.9,4.9-1.9c2.7,0,5-0.9,5,1.9c0,1.6,0,3.2,0,4.8c-0.1,15.7-0.2,22.2,13.9,26.9
				c18.4,6.2,32.5,12.3,32.5,30.4C148.9,239.4,146.6,241.6,143.9,241.6z"/>
		</g>
		<g id="XMLID_45_">
			<path id="XMLID_46_" class="st1" d="M144,347.2c-6.6,0-12-5.4-12-12c0-6.6,5.4-12,12-12c6.6,0,12,5.4,12,12
				C156,341.8,150.6,347.2,144,347.2z M144,331.9c-1.8,0-3.3,1.5-3.3,3.3c0,1.8,1.5,3.3,3.3,3.3c1.8,0,3.3-1.5,3.3-3.3
				C147.3,333.4,145.8,331.9,144,331.9z"/>
		</g>
		<g id="XMLID_41_">
			<path id="XMLID_42_" class="st1" d="M97.6,181.4c-6.6,0-12-5.4-12-12c0-6.6,5.4-12,12-12c6.6,0,12,5.4,12,12
				C109.5,176,104.2,181.4,97.6,181.4z M97.6,166.1c-1.8,0-3.3,1.5-3.3,3.3c0,1.8,1.5,3.3,3.3,3.3c1.8,0,3.3-1.5,3.3-3.3
				C100.9,167.5,99.4,166.1,97.6,166.1z"/>
		</g>
		<g id="XMLID_37_">
			<path id="XMLID_38_" class="st1" d="M190,153c-6.6,0-12-5.4-12-12c0-6.6,5.4-12,12-12c6.6,0,12,5.4,12,12
				C202,147.6,196.6,153,190,153z M190,137.7c-1.8,0-3.3,1.5-3.3,3.3c0,1.8,1.5,3.3,3.3,3.3c1.8,0,3.3-1.5,3.3-3.3
				C193.3,139.2,191.8,137.7,190,137.7z"/>
		</g>
	</g>
</g>
</svg>
